%
M48
METRIC,000.000
T01C0.50
%
T01
X013397Y192249
X012397Y192249
X011397Y192249
X010397Y192249
X009397Y192249
X008397Y192249
X007397Y192249
X006397Y192249
X005397Y192249
X004397Y192249
X003704Y197750
X004704Y197750
X005704Y197750
X006704Y197750
X007704Y197750
X008704Y197750
X009704Y197750
X010704Y197750
X011704Y197750
X012704Y197750
X013704Y197750
X013397Y126249
X012397Y126249
X011397Y126249
X010397Y126249
X009397Y126249
X008397Y126249
X007397Y126249
X006397Y126249
X005397Y126249
X004397Y126249
X003704Y131750
X004704Y131750
X005704Y131750
X006704Y131750
X007704Y131750
X008704Y131750
X009704Y131750
X010704Y131750
X011704Y131750
X012704Y131750
X013704Y131750
X013397Y060249
X012397Y060249
X011397Y060249
X010397Y060249
X009397Y060249
X008397Y060249
X007397Y060249
X006397Y060249
X005397Y060249
X004397Y060249
X003704Y065750
X004704Y065750
X005704Y065750
X006704Y065750
X007704Y065750
X008704Y065750
X009704Y065750
X010704Y065750
X011704Y065750
X012704Y065750
X013704Y065750
X052394Y192249
X051394Y192249
X050394Y192249
X049394Y192249
X048394Y192249
X047394Y192249
X046394Y192249
X045394Y192249
X044394Y192249
X043394Y192249
X042701Y197750
X043701Y197750
X044701Y197750
X045701Y197750
X046701Y197750
X047701Y197750
X048701Y197750
X049701Y197750
X050701Y197750
X051701Y197750
X052701Y197750
X052394Y126249
X051394Y126249
X050394Y126249
X049394Y126249
X048394Y126249
X047394Y126249
X046394Y126249
X045394Y126249
X044394Y126249
X043394Y126249
X042701Y131750
X043701Y131750
X044701Y131750
X045701Y131750
X046701Y131750
X047701Y131750
X048701Y131750
X049701Y131750
X050701Y131750
X051701Y131750
X052701Y131750
X052394Y060249
X051394Y060249
X050394Y060249
X049394Y060249
X048394Y060249
X047394Y060249
X046394Y060249
X045394Y060249
X044394Y060249
X043394Y060249
X042701Y065750
X043701Y065750
X044701Y065750
X045701Y065750
X046701Y065750
X047701Y065750
X048701Y065750
X049701Y065750
X050701Y065750
X051701Y065750
X052701Y065750
X037247Y200170
X037247Y201170
X037247Y202170
X037247Y203170
X037247Y204170
X037247Y205170
X038747Y205131
X038747Y204131
X038747Y203131
X038747Y202131
X038747Y201131
X038747Y200131
X037247Y135030
X037247Y136030
X037247Y137030
X037247Y138030
X037247Y139030
X038747Y138992
X038747Y137992
X038747Y136992
X038747Y135992
X038747Y134992
X037247Y068892
X037247Y069892
X037247Y070892
X037247Y071892
X037247Y072892
X037247Y073892
X038747Y073854
X038747Y072854
X038747Y071854
X038747Y070854
X038747Y069854
X038747Y068854
X037247Y002752
X037247Y003752
X037247Y004752
X037247Y005752
X037247Y006752
X037247Y007752
X038747Y007716
X038747Y006716
X038747Y005716
X038747Y004716
X038747Y003716
X038747Y002716
M30