%
M48
METRIC,000.000
T01C0.50
%
T01
X013397Y192249
X012397Y192249
X011397Y192249
X010397Y192249
X009397Y192249
X008397Y192249
X007397Y192249
X006397Y192249
X005397Y192249
X004397Y192249
X003704Y197750
X004704Y197750
X005704Y197750
X006704Y197750
X007704Y197750
X008704Y197750
X009704Y197750
X010704Y197750
X011704Y197750
X012704Y197750
X013704Y197750
X013397Y126249
X012397Y126249
X011397Y126249
X010397Y126249
X009397Y126249
X008397Y126249
X007397Y126249
X006397Y126249
X005397Y126249
X004397Y126249
X003704Y131750
X004704Y131750
X005704Y131750
X006704Y131750
X007704Y131750
X008704Y131750
X009704Y131750
X010704Y131750
X011704Y131750
X012704Y131750
X013704Y131750
X013397Y060249
X012397Y060249
X011397Y060249
X010397Y060249
X009397Y060249
X008397Y060249
X007397Y060249
X006397Y060249
X005397Y060249
X004397Y060249
X003704Y065750
X004704Y065750
X005704Y065750
X006704Y065750
X007704Y065750
X008704Y065750
X009704Y065750
X010704Y065750
X011704Y065750
X012704Y065750
X013704Y065750
M30