M48
; DRILL file {KiCad (5.1.5-0-10_14)} date 2020 April 02, Thursday 15:36:56
; FORMAT={-:-/ absolute / inch / decimal}
; #@! TF.CreationDate,2020-04-02T15:36:56+02:00
; #@! TF.GenerationSoftware,Kicad,Pcbnew,(5.1.5-0-10_14)
; #@! TF.FileFunction,Plated,1,2,PTH
FMAT,2
INCH
T1C0.0118
T2C0.0157
T3C0.0197
T4C0.0236
T5C0.0295
T6C0.0300
T7C0.0315
T8C0.0335
T9C0.0394
T10C0.1260
%
G90
G05
T1
X0.0531Y1.3937
X0.0549Y0.8501
X0.0669Y2.2165
X0.1102Y1.4528
X0.122Y1.752
X0.126Y1.0315
X0.1595Y1.9263
X0.1732Y1.2717
X0.189Y1.1024
X0.2283Y1.9291
X0.2457Y0.436
X0.2756Y0.9921
X0.2756Y0.9606
X0.32Y1.058
X0.3209Y1.5673
X0.3583Y2.315
X0.3937Y1.5866
X0.4259Y0.9475
X0.4274Y0.979
X0.4528Y0.2992
X0.4724Y1.0315
X0.5039Y1.9213
X0.5118Y1.3583
X0.5197Y0.9291
X0.563Y1.9409
X0.6142Y1.1969
X0.6293Y1.7104
X0.6378Y1.4606
X0.6381Y1.6347
X0.6575Y1.7244
X0.6732Y0.5748
X0.6805Y1.6604
X0.6811Y1.2795
X0.685Y1.2323
X0.6929Y1.0217
X0.6942Y1.6888
X0.7106Y1.4508
X0.7283Y1.2992
X0.7365Y1.4329
X0.7431Y1.6368
X0.748Y1.0236
X0.7567Y1.6665
X0.7581Y1.6982
X0.762Y1.4983
X0.7677Y1.8701
X0.7726Y1.9419
X0.7756Y1.7244
X0.7779Y1.5255
X0.7795Y2.0079
X0.7914Y1.6496
X0.8002Y1.9813
X0.8092Y1.4999
X0.8268Y2.0103
X0.8334Y1.9541
X0.8425Y1.1024
X0.8511Y1.2933
X0.8653Y0.9317
X0.874Y1.0945
X0.8898Y1.0203
X0.897Y1.9676
X0.8976Y1.8898
X0.9036Y0.9618
X0.9142Y1.3635
X0.9252Y0.8543
X0.9331Y1.3898
X0.936Y1.6643
X0.9443Y1.3543
X0.9546Y0.9357
X0.9724Y0.8819
X0.9845Y1.1848
X0.985Y1.3893
X0.987Y0.9378
X0.9921Y1.9764
X1.0073Y1.367
X1.019Y1.7795
X1.0326Y1.3224
X1.0354Y2.1732
X1.0354Y2.0787
X1.0467Y1.7644
X1.0551Y0.9449
X1.0669Y0.5276
X1.0689Y1.7422
X1.0945Y1.3465
X1.0965Y1.9921
X1.1198Y1.4557
X1.1274Y1.4863
X1.1378Y1.0236
X1.1378Y1.1417
X1.1471Y1.9932
X1.1654Y2.1732
X1.1686Y1.2446
X1.1707Y1.1575
X1.1713Y2.0709
X1.187Y1.2145
X1.2165Y1.9724
X1.2244Y1.2677
X1.248Y1.0394
X1.2953Y1.8268
X1.2983Y1.9196
X1.311Y1.4252
X1.3131Y2.1978
X1.3386Y0.7283
X1.3543Y1.8189
X1.3819Y2.3146
X1.3858Y1.6811
X1.3902Y2.2421
X1.4016Y0.9055
X1.4075Y1.0807
X1.4331Y1.3583
T2
X1.4137Y2.3314
T3
X0.2717Y0.5551
X0.3465Y0.5433
X0.622Y0.9213
X0.7677Y0.1181
X0.7913Y0.1969
X0.7913Y0.063
X0.811Y0.1181
X0.8228Y0.0272
X0.8661Y0.0272
X0.9094Y0.0272
X1.0984Y0.9606
X1.126Y0.878
X1.1378Y0.6378
X1.3898Y0.1929
X1.3898Y0.063
X1.2598Y0.6102
X1.2598Y0.561
X1.2598Y0.5118
X1.2598Y0.4626
X1.2598Y0.4134
T4
X0.0315Y0.6732
X0.063Y1.3307
X0.1024Y1.9606
X0.1417Y1.2047
X0.2992Y1.0236
X0.4331Y1.0236
X0.4417Y0.6882
X0.4882Y0.0315
X0.4885Y0.2777
X0.4921Y0.5827
X0.5157Y0.2441
X0.7076Y0.0656
X0.7441Y0.6102
X0.8189Y1.0
X0.9539Y0.2925
X0.9764Y0.5827
X1.0094Y0.9055
X1.0197Y0.3543
X1.0669Y1.1307
X1.12Y1.4164
X1.1299Y0.2992
X1.1722Y1.8189
X1.1969Y0.6063
X1.2165Y0.3701
X1.4252Y1.8622
T5
X0.1654Y0.2362
X0.2441Y0.2362
T6
X0.2362Y2.0472
X0.315Y2.0472
X0.3937Y2.0472
X0.4724Y2.0472
T7
X0.3105Y0.1181
T8
X0.1929Y0.5906
X0.1929Y0.3937
T9
X0.4921Y0.5134
X0.4921Y0.4134
X0.5921Y0.5134
X0.5921Y0.4134
X0.6921Y0.5134
X0.6921Y0.4134
X0.7921Y0.5134
X0.7921Y0.4134
X0.8921Y0.5134
X0.8921Y0.4134
X0.9921Y0.5134
X0.9921Y0.4134
T10
X0.7283Y2.2047
T4
G00X0.0728Y0.6299
M15
G01X0.1004Y0.6299
M16
G05
G00X0.1004Y0.3543
M15
G01X0.0728Y0.3543
M16
G05
T0
M30
