%
M48
METRIC,000.000
T01C0.30
T02C0.40
T03C0.50
T04C0.60
T05C0.75
T06C0.76
T07C0.80
T08C0.85
T09C1.00
T10C3.20
T11C0.70
T12C0.99
%
T01
X001348Y035407
X001394Y021600
X001699Y056307
X002799Y036909
X003098Y044508
X003200Y026208
X004051Y048936
X004399Y032308
X004800Y028008
X005798Y049007
X006240Y011082
X007000Y025207
X007000Y024407
X008128Y026881
X008150Y039817
X009100Y058808
X009999Y040307
X010817Y024074
X010855Y024874
X011501Y007607
X011998Y026208
X012799Y048809
X012999Y034508
X013200Y023607
X014300Y049306
X015600Y030409
X015984Y043452
X016200Y037107
X016207Y041529
X016700Y043807
X017099Y014607
X017284Y042182
X017299Y032506
X017399Y031308
X017599Y025959
X017632Y042903
X018049Y036858
X018498Y033007
X018707Y036403
X018874Y041582
X018999Y026007
X019220Y042337
X019255Y043142
X019354Y038064
X019499Y047508
X019624Y049332
X019700Y043807
X019758Y038755
X019799Y051008
X020101Y041907
X020325Y050333
X020553Y038105
X021000Y051069
X021168Y049642
X021399Y028008
X021617Y032857
X021978Y023673
X022199Y027808
X022600Y025923
X022783Y049985
X022799Y048008
X022951Y024437
X023220Y034640
X023500Y021707
X023700Y035308
X023774Y042281
X023985Y034407
X024246Y023774
X024698Y022408
X025006Y030101
X025019Y035296
X025069Y023828
X025199Y050208
X025585Y034729
X025882Y045207
X026228Y033596
X026299Y055207
X026299Y052806
X026586Y044823
X026799Y024008
X027099Y013409
X027150Y044259
X027800Y034209
X027851Y050607
X028442Y036982
X028635Y037760
X028900Y026007
X028900Y029007
X029136Y050635
X029601Y055207
X029682Y031620
X029735Y029408
X029751Y052608
X030149Y030856
X030899Y050106
X031099Y032207
X031699Y026408
X032900Y046408
X032976Y048765
X033299Y036208
X033352Y055832
X034000Y018506
X034399Y046208
X035100Y058798
X035199Y042707
X035311Y056957
X035600Y023007
X035750Y027457
X036400Y034508
X001348Y101407
X001394Y087600
X001699Y122307
X002799Y102909
X003098Y110508
X003200Y092208
X004051Y114936
X004399Y098309
X004800Y094008
X005798Y115007
X006240Y077082
X007000Y091207
X007000Y090407
X008128Y092881
X008150Y105817
X009100Y124808
X009999Y106307
X010817Y090074
X010855Y090874
X011501Y073607
X011998Y092208
X012799Y114809
X012999Y100508
X013200Y089607
X014300Y115306
X015600Y096409
X015984Y109452
X016200Y103107
X016207Y107529
X016700Y109807
X017099Y080607
X017284Y108182
X017299Y098507
X017399Y097308
X017599Y091959
X017632Y108903
X018049Y102858
X018498Y099007
X018707Y102403
X018874Y107582
X018999Y092007
X019220Y108337
X019255Y109142
X019354Y104064
X019499Y113508
X019624Y115332
X019700Y109807
X019758Y104755
X019799Y117008
X020101Y107907
X020325Y116333
X020553Y104105
X021000Y117069
X021168Y115642
X021399Y094008
X021617Y098857
X021978Y089673
X022199Y093808
X022600Y091923
X022783Y115985
X022799Y114008
X022951Y090437
X023220Y100640
X023500Y087707
X023700Y101308
X023774Y108281
X023985Y100407
X024246Y089774
X024698Y088408
X025006Y096101
X025019Y101296
X025069Y089828
X025199Y116208
X025585Y100729
X025882Y111207
X026228Y099596
X026299Y121207
X026299Y118806
X026586Y110823
X026799Y090008
X027099Y079409
X027150Y110259
X027800Y100209
X027851Y116607
X028442Y102982
X028635Y103760
X028900Y092007
X028900Y095007
X029136Y116635
X029601Y121207
X029682Y097620
X029735Y095408
X029751Y118608
X030149Y096856
X030899Y116106
X031099Y098207
X031699Y092408
X032900Y112408
X032976Y114765
X033299Y102208
X033352Y121832
X034000Y084506
X034399Y112208
X035100Y124798
X035199Y108707
X035311Y122957
X035600Y089007
X035750Y093457
X036400Y100508
X001348Y167407
X001394Y153600
X001699Y188307
X002799Y168909
X003098Y176508
X003200Y158208
X004051Y180936
X004399Y164309
X004800Y160008
X005798Y181007
X006240Y143082
X007000Y157207
X007000Y156407
X008128Y158881
X008150Y171817
X009100Y190808
X009999Y172307
X010817Y156074
X010855Y156874
X011501Y139607
X011998Y158208
X012799Y180809
X012999Y166508
X013200Y155607
X014300Y181306
X015600Y162409
X015984Y175452
X016200Y169107
X016207Y173529
X016700Y175807
X017099Y146607
X017284Y174182
X017299Y164507
X017399Y163308
X017599Y157959
X017632Y174903
X018049Y168858
X018498Y165007
X018707Y168403
X018874Y173582
X018999Y158007
X019220Y174337
X019255Y175142
X019354Y170064
X019499Y179508
X019624Y181332
X019700Y175807
X019758Y170755
X019799Y183008
X020101Y173907
X020325Y182333
X020553Y170105
X021000Y183069
X021168Y181642
X021399Y160008
X021617Y164857
X021978Y155673
X022199Y159808
X022600Y157923
X022783Y181985
X022799Y180008
X022951Y156437
X023220Y166640
X023500Y153707
X023700Y167308
X023774Y174281
X023985Y166407
X024246Y155774
X024698Y154408
X025006Y162101
X025019Y167296
X025069Y155828
X025199Y182208
X025585Y166729
X025882Y177207
X026228Y165596
X026299Y187207
X026299Y184806
X026586Y176823
X026799Y156008
X027099Y145409
X027150Y176259
X027800Y166209
X027851Y182607
X028442Y168982
X028635Y169760
X028900Y158007
X028900Y161007
X029136Y182635
X029601Y187207
X029682Y163620
X029735Y161408
X029751Y184608
X030149Y162856
X030899Y182106
X031099Y164207
X031699Y158408
X032900Y178408
X032976Y180765
X033299Y168208
X033352Y187832
X034000Y150506
X034399Y178208
X035100Y190798
X035199Y174707
X035311Y188957
X035600Y155007
X035750Y159457
X036400Y166508
X001348Y233407
X001394Y219600
X001699Y254307
X002799Y234909
X003098Y242508
X003200Y224208
X004051Y246936
X004399Y230309
X004800Y226008
X005798Y247007
X006240Y209082
X007000Y223207
X007000Y222407
X008128Y224881
X008150Y237817
X009100Y256808
X009999Y238307
X010817Y222074
X010855Y222874
X011501Y205607
X011998Y224208
X012799Y246809
X012999Y232508
X013200Y221607
X014300Y247306
X015600Y228409
X015984Y241452
X016200Y235107
X016207Y239529
X016700Y241807
X017099Y212607
X017284Y240182
X017299Y230507
X017399Y229308
X017599Y223959
X017632Y240903
X018049Y234858
X018498Y231007
X018707Y234403
X018874Y239582
X018999Y224007
X019220Y240337
X019255Y241142
X019354Y236064
X019499Y245508
X019624Y247332
X019700Y241807
X019758Y236755
X019799Y249008
X020101Y239907
X020325Y248333
X020553Y236105
X021000Y249069
X021168Y247642
X021399Y226008
X021617Y230857
X021978Y221673
X022199Y225808
X022600Y223923
X022783Y247985
X022799Y246008
X022951Y222437
X023220Y232640
X023500Y219707
X023700Y233308
X023774Y240281
X023985Y232407
X024246Y221774
X024698Y220408
X025006Y228101
X025019Y233296
X025069Y221828
X025199Y248208
X025585Y232729
X025882Y243207
X026228Y231596
X026299Y253207
X026299Y250806
X026586Y242823
X026799Y222008
X027099Y211409
X027150Y242259
X027800Y232209
X027851Y248607
X028442Y234982
X028635Y235760
X028900Y224007
X028900Y227007
X029136Y248635
X029601Y253207
X029682Y229620
X029735Y227408
X029751Y250608
X030149Y228856
X030899Y248106
X031099Y230207
X031699Y224408
X032900Y244408
X032976Y246765
X033299Y234208
X033352Y253832
X034000Y216506
X034399Y244208
X035100Y256798
X035199Y240707
X035311Y254957
X035600Y221007
X035750Y225457
X036400Y232508
X040345Y035407
X040391Y021600
X040696Y056307
X041796Y036909
X042095Y044508
X042197Y026208
X043048Y048936
X043396Y032308
X043797Y028008
X044795Y049007
X045237Y011082
X045997Y025207
X045997Y024407
X047125Y026881
X047147Y039817
X048097Y058808
X048996Y040307
X049814Y024074
X049852Y024874
X050498Y007607
X050995Y026208
X051796Y048809
X051996Y034508
X052197Y023607
X053297Y049306
X054597Y030409
X054981Y043452
X055197Y037107
X055204Y041529
X055697Y043807
X056096Y014607
X056281Y042182
X056296Y032506
X056396Y031308
X056596Y025959
X056629Y042903
X057046Y036858
X057495Y033007
X057704Y036403
X057871Y041582
X057996Y026007
X058217Y042337
X058252Y043142
X058351Y038064
X058496Y047508
X058621Y049332
X058697Y043807
X058755Y038755
X058796Y051008
X059098Y041907
X059322Y050333
X059550Y038105
X059997Y051069
X060165Y049642
X060396Y028008
X060614Y032857
X060975Y023673
X061196Y027808
X061597Y025923
X061780Y049985
X061796Y048008
X061948Y024437
X062217Y034640
X062497Y021707
X062697Y035308
X062771Y042281
X062982Y034407
X063243Y023774
X063695Y022408
X064003Y030101
X064016Y035296
X064066Y023828
X064196Y050208
X064581Y034729
X064879Y045207
X065224Y033596
X065296Y055207
X065296Y052806
X065583Y044823
X065796Y024008
X066096Y013409
X066147Y044259
X066797Y034209
X066848Y050607
X067439Y036982
X067632Y037760
X067897Y026007
X067897Y029007
X068133Y050635
X068598Y055207
X068679Y031620
X068732Y029408
X068748Y052608
X069146Y030856
X069896Y050106
X070096Y032207
X070696Y026408
X071897Y046408
X071973Y048765
X072296Y036208
X072349Y055832
X072997Y018506
X073396Y046208
X074097Y058798
X074196Y042707
X074308Y056957
X074597Y023007
X074747Y027457
X075397Y034508
X040345Y101407
X040391Y087600
X040696Y122307
X041796Y102909
X042095Y110508
X042197Y092208
X043048Y114936
X043396Y098309
X043797Y094008
X044795Y115007
X045237Y077082
X045997Y091207
X045997Y090407
X047125Y092881
X047147Y105817
X048097Y124808
X048996Y106307
X049814Y090074
X049852Y090874
X050498Y073607
X050995Y092208
X051796Y114809
X051996Y100508
X052197Y089607
X053297Y115306
X054597Y096409
X054981Y109452
X055197Y103107
X055204Y107529
X055697Y109807
X056096Y080607
X056281Y108182
X056296Y098507
X056396Y097308
X056596Y091959
X056629Y108903
X057046Y102858
X057495Y099007
X057704Y102403
X057871Y107582
X057996Y092007
X058217Y108337
X058252Y109142
X058351Y104064
X058496Y113508
X058621Y115332
X058697Y109807
X058755Y104755
X058796Y117008
X059098Y107907
X059322Y116333
X059550Y104105
X059997Y117069
X060165Y115642
X060396Y094008
X060614Y098857
X060975Y089673
X061196Y093808
X061597Y091923
X061780Y115985
X061796Y114008
X061948Y090437
X062217Y100640
X062497Y087707
X062697Y101308
X062771Y108281
X062982Y100407
X063243Y089774
X063695Y088408
X064003Y096101
X064016Y101296
X064066Y089828
X064196Y116208
X064581Y100729
X064879Y111207
X065224Y099596
X065296Y121207
X065296Y118806
X065583Y110823
X065796Y090008
X066096Y079409
X066147Y110259
X066797Y100209
X066848Y116607
X067439Y102982
X067632Y103760
X067897Y092007
X067897Y095007
X068133Y116635
X068598Y121207
X068679Y097620
X068732Y095408
X068748Y118608
X069146Y096856
X069896Y116106
X070096Y098207
X070696Y092408
X071897Y112408
X071973Y114765
X072296Y102208
X072349Y121832
X072997Y084506
X073396Y112208
X074097Y124798
X074196Y108707
X074308Y122957
X074597Y089007
X074747Y093457
X075397Y100508
X040345Y167407
X040391Y153600
X040696Y188307
X041796Y168909
X042095Y176508
X042197Y158208
X043048Y180936
X043396Y164309
X043797Y160008
X044795Y181007
X045237Y143082
X045997Y157207
X045997Y156407
X047125Y158881
X047147Y171817
X048097Y190808
X048996Y172307
X049814Y156074
X049852Y156874
X050498Y139607
X050995Y158208
X051796Y180809
X051996Y166508
X052197Y155607
X053297Y181306
X054597Y162409
X054981Y175452
X055197Y169107
X055204Y173529
X055697Y175807
X056096Y146607
X056281Y174182
X056296Y164507
X056396Y163308
X056596Y157959
X056629Y174903
X057046Y168858
X057495Y165007
X057704Y168403
X057871Y173582
X057996Y158007
X058217Y174337
X058252Y175142
X058351Y170064
X058496Y179508
X058621Y181332
X058697Y175807
X058755Y170755
X058796Y183008
X059098Y173907
X059322Y182333
X059550Y170105
X059997Y183069
X060165Y181642
X060396Y160008
X060614Y164857
X060975Y155673
X061196Y159808
X061597Y157923
X061780Y181985
X061796Y180008
X061948Y156437
X062217Y166640
X062497Y153707
X062697Y167308
X062771Y174281
X062982Y166407
X063243Y155774
X063695Y154408
X064003Y162101
X064016Y167296
X064066Y155828
X064196Y182208
X064581Y166729
X064879Y177207
X065224Y165596
X065296Y187207
X065296Y184806
X065583Y176823
X065796Y156008
X066096Y145409
X066147Y176259
X066797Y166209
X066848Y182607
X067439Y168982
X067632Y169760
X067897Y158007
X067897Y161007
X068133Y182635
X068598Y187207
X068679Y163620
X068732Y161408
X068748Y184608
X069146Y162856
X069896Y182106
X070096Y164207
X070696Y158408
X071897Y178408
X071973Y180765
X072296Y168208
X072349Y187832
X072997Y150506
X073396Y178208
X074097Y190798
X074196Y174707
X074308Y188957
X074597Y155007
X074747Y159457
X075397Y166508
X040345Y233407
X040391Y219600
X040696Y254307
X041796Y234909
X042095Y242508
X042197Y224208
X043048Y246936
X043396Y230309
X043797Y226008
X044795Y247007
X045237Y209082
X045997Y223207
X045997Y222407
X047125Y224881
X047147Y237817
X048097Y256808
X048996Y238307
X049814Y222074
X049852Y222874
X050498Y205607
X050995Y224208
X051796Y246809
X051996Y232508
X052197Y221607
X053297Y247306
X054597Y228409
X054981Y241452
X055197Y235107
X055204Y239529
X055697Y241807
X056096Y212607
X056281Y240182
X056296Y230507
X056396Y229308
X056596Y223959
X056629Y240903
X057046Y234858
X057495Y231007
X057704Y234403
X057871Y239582
X057996Y224007
X058217Y240337
X058252Y241142
X058351Y236064
X058496Y245508
X058621Y247332
X058697Y241807
X058755Y236755
X058796Y249008
X059098Y239907
X059322Y248333
X059550Y236105
X059997Y249069
X060165Y247642
X060396Y226008
X060614Y230857
X060975Y221673
X061196Y225808
X061597Y223923
X061780Y247985
X061796Y246008
X061948Y222437
X062217Y232640
X062497Y219707
X062697Y233308
X062771Y240281
X062982Y232407
X063243Y221774
X063695Y220408
X064003Y228101
X064016Y233296
X064066Y221828
X064196Y248208
X064581Y232729
X064879Y243207
X065224Y231596
X065296Y253207
X065296Y250806
X065583Y242823
X065796Y222008
X066096Y211409
X066147Y242259
X066797Y232209
X066848Y248607
X067439Y234982
X067632Y235760
X067897Y224007
X067897Y227007
X068133Y248635
X068598Y253207
X068679Y229620
X068732Y227408
X068748Y250608
X069146Y228856
X069896Y248106
X070096Y230207
X070696Y224408
X071897Y244408
X071973Y246765
X072296Y234208
X072349Y253832
X072997Y216506
X073396Y244208
X074097Y256798
X074196Y240707
X074308Y254957
X074597Y221007
X074747Y225457
X075397Y232508
T02
X035907Y059225
X035907Y125225
X035907Y191225
X035907Y257225
X074904Y059225
X074904Y125225
X074904Y191225
X074904Y257225
T03
X006901Y014107
X008801Y013807
X015798Y023409
X019499Y003007
X020099Y005009
X020099Y001608
X020599Y003007
X020899Y000698
X021998Y000698
X023098Y000698
X027899Y024407
X028600Y022309
X028900Y016207
X035300Y004907
X035300Y001608
X031998Y015507
X031998Y014257
X031998Y013007
X031998Y011758
X031998Y010508
X006901Y080107
X008801Y079807
X015798Y089409
X019499Y069007
X020099Y071009
X020099Y067608
X020599Y069007
X020899Y066698
X021998Y066698
X023098Y066698
X027899Y090407
X028600Y088309
X028900Y082208
X035300Y070907
X035300Y067608
X031998Y081507
X031998Y080257
X031998Y079007
X031998Y077758
X031998Y076508
X006901Y146107
X008801Y145807
X015798Y155409
X019499Y135007
X020099Y137009
X020099Y133608
X020599Y135007
X020899Y132698
X021998Y132698
X023098Y132698
X027899Y156407
X028600Y154309
X028900Y148208
X035300Y136907
X035300Y133608
X031998Y147507
X031998Y146257
X031998Y145007
X031998Y143758
X031998Y142508
X006901Y212107
X008801Y211807
X015798Y221409
X019499Y201007
X020099Y203009
X020099Y199608
X020599Y201007
X020899Y198698
X021998Y198698
X023098Y198698
X027899Y222407
X028600Y220309
X028900Y214208
X035300Y202907
X035300Y199608
X031998Y213507
X031998Y212257
X031998Y211007
X031998Y209758
X031998Y208508
X045898Y014107
X047798Y013807
X054795Y023409
X058496Y003007
X059096Y005009
X059096Y001608
X059596Y003007
X059896Y000698
X060995Y000698
X062095Y000698
X066896Y024407
X067597Y022309
X067897Y016207
X074297Y004907
X074297Y001608
X070995Y015507
X070995Y014257
X070995Y013007
X070995Y011758
X070995Y010508
X045898Y080107
X047798Y079807
X054795Y089409
X058496Y069007
X059096Y071009
X059096Y067608
X059596Y069007
X059896Y066698
X060995Y066698
X062095Y066698
X066896Y090407
X067597Y088309
X067897Y082208
X074297Y070907
X074297Y067608
X070995Y081507
X070995Y080257
X070995Y079007
X070995Y077758
X070995Y076508
X045898Y146107
X047798Y145807
X054795Y155409
X058496Y135007
X059096Y137009
X059096Y133608
X059596Y135007
X059896Y132698
X060995Y132698
X062095Y132698
X066896Y156407
X067597Y154309
X067897Y148208
X074297Y136907
X074297Y133608
X070995Y147507
X070995Y146257
X070995Y145007
X070995Y143758
X070995Y142508
X045898Y212107
X047798Y211807
X054795Y221409
X058496Y201007
X059096Y203009
X059096Y199608
X059596Y201007
X059896Y198698
X060995Y198698
X062095Y198698
X066896Y222407
X067597Y220309
X067897Y214208
X074297Y202907
X074297Y199608
X070995Y213507
X070995Y212257
X070995Y211007
X070995Y209758
X070995Y208508
T04
X000800Y017107
X001600Y033807
X002600Y049807
X003599Y030607
X007599Y026007
X011000Y026007
X011219Y017488
X012400Y000808
X012407Y007061
X012499Y014808
X013098Y006208
X017973Y001674
X018900Y015507
X020800Y025407
X024229Y007437
X024800Y014808
X025638Y023007
X025900Y009007
X027099Y028727
X028448Y035984
X028699Y007607
X029773Y046208
X030401Y015408
X030899Y009408
X036200Y047307
X001849Y016007
X002550Y016007
X002550Y009007
X001849Y009007
X000800Y083107
X001600Y099807
X002600Y115807
X003599Y096607
X007599Y092007
X011000Y092007
X011219Y083488
X012400Y066808
X012407Y073061
X012499Y080808
X013098Y072208
X017973Y067674
X018900Y081507
X020800Y091407
X024229Y073437
X024800Y080808
X025638Y089007
X025900Y075007
X027099Y094727
X028448Y101984
X028699Y073607
X029773Y112208
X030401Y081408
X030899Y075408
X036200Y113307
X001849Y082007
X002550Y082007
X002550Y075007
X001849Y075007
X000800Y149107
X001600Y165807
X002600Y181807
X003599Y162607
X007599Y158007
X011000Y158007
X011219Y149488
X012400Y132808
X012407Y139061
X012499Y146808
X013098Y138208
X017973Y133674
X018900Y147507
X020800Y157407
X024229Y139437
X024800Y146808
X025638Y155007
X025900Y141007
X027099Y160727
X028448Y167984
X028699Y139607
X029773Y178208
X030401Y147408
X030899Y141408
X036200Y179307
X001849Y148007
X002550Y148007
X002550Y141007
X001849Y141007
X000800Y215107
X001600Y231807
X002600Y247807
X003599Y228607
X007599Y224007
X011000Y224007
X011219Y215488
X012400Y198808
X012407Y205061
X012499Y212808
X013098Y204208
X017973Y199674
X018900Y213507
X020800Y223407
X024229Y205437
X024800Y212808
X025638Y221007
X025900Y207007
X027099Y226727
X028448Y233984
X028699Y205607
X029773Y244208
X030401Y213408
X030899Y207408
X036200Y245307
X001849Y214007
X002550Y214007
X002550Y207007
X001849Y207007
X039797Y017107
X040597Y033807
X041597Y049807
X042596Y030607
X046596Y026007
X049997Y026007
X050216Y017488
X051397Y000808
X051404Y007061
X051496Y014808
X052095Y006208
X056970Y001674
X057897Y015507
X059797Y025407
X063226Y007437
X063797Y014808
X064635Y023007
X064897Y009007
X066096Y028727
X067445Y035984
X067696Y007607
X068770Y046208
X069398Y015408
X069896Y009408
X075197Y047307
X040846Y016007
X041547Y016007
X041547Y009007
X040846Y009007
X039797Y083107
X040597Y099807
X041597Y115807
X042596Y096607
X046596Y092007
X049997Y092007
X050216Y083488
X051397Y066808
X051404Y073061
X051496Y080808
X052095Y072208
X056970Y067674
X057897Y081507
X059797Y091407
X063226Y073437
X063797Y080808
X064635Y089007
X064897Y075007
X066096Y094727
X067445Y101984
X067696Y073607
X068770Y112208
X069398Y081408
X069896Y075408
X075197Y113307
X040846Y082007
X041547Y082007
X041547Y075007
X040846Y075007
X039797Y149107
X040597Y165807
X041597Y181807
X042596Y162607
X046596Y158007
X049997Y158007
X050216Y149488
X051397Y132808
X051404Y139061
X051496Y146808
X052095Y138208
X056970Y133674
X057897Y147507
X059797Y157407
X063226Y139437
X063797Y146808
X064635Y155007
X064897Y141007
X066096Y160727
X067445Y167984
X067696Y139607
X068770Y178208
X069398Y147408
X069896Y141408
X075197Y179307
X040846Y148007
X041547Y148007
X041547Y141007
X040846Y141007
X039797Y215107
X040597Y231807
X041597Y247807
X042596Y228607
X046596Y224007
X049997Y224007
X050216Y215488
X051397Y198808
X051404Y205061
X051496Y212808
X052095Y204208
X056970Y199674
X057897Y213507
X059797Y223407
X063226Y205437
X063797Y212808
X064635Y221007
X064897Y207007
X066096Y226727
X067445Y233984
X067696Y205607
X068770Y244208
X069398Y213408
X069896Y207408
X075197Y245307
X040846Y214007
X041547Y214007
X041547Y207007
X040846Y207007
T05
X004201Y006007
X006200Y006007
X004201Y072007
X006200Y072007
X004201Y138007
X006200Y138007
X004201Y204007
X006200Y204007
X043198Y006007
X045197Y006007
X043198Y072007
X045197Y072007
X043198Y138007
X045197Y138007
X043198Y204007
X045197Y204007
T06
X005999Y052006
X008000Y052006
X009999Y052006
X011998Y052006
X005999Y118006
X008000Y118006
X009999Y118006
X011998Y118006
X005999Y184006
X008000Y184006
X009999Y184006
X011998Y184006
X005999Y250006
X008000Y250006
X009999Y250006
X011998Y250006
X044996Y052006
X046997Y052006
X048996Y052006
X050995Y052006
X044996Y118006
X046997Y118006
X048996Y118006
X050995Y118006
X044996Y184006
X046997Y184006
X048996Y184006
X050995Y184006
X044996Y250006
X046997Y250006
X048996Y250006
X050995Y250006
T07
X007886Y003007
X007886Y069007
X007886Y135007
X007886Y201007
X046883Y003007
X046883Y069007
X046883Y135007
X046883Y201007
T08
X004899Y015009
X004899Y010007
X004899Y081009
X004899Y076007
X004899Y147009
X004899Y142007
X004899Y213009
X004899Y208007
X043896Y015009
X043896Y010007
X043896Y081009
X043896Y076007
X043896Y147009
X043896Y142007
X043896Y213009
X043896Y208007
T09
X012499Y013048
X012499Y010508
X015039Y013048
X015039Y010508
X017579Y013048
X017579Y010508
X020119Y013048
X020119Y010508
X022659Y013048
X022659Y010508
X025199Y013048
X025199Y010508
X012499Y079048
X012499Y076508
X015039Y079048
X015039Y076508
X017579Y079048
X017579Y076508
X020119Y079048
X020119Y076508
X022659Y079048
X022659Y076508
X025199Y079048
X025199Y076508
X012499Y145048
X012499Y142508
X015039Y145048
X015039Y142508
X017579Y145048
X017579Y142508
X020119Y145048
X020119Y142508
X022659Y145048
X022659Y142508
X025199Y145048
X025199Y142508
X012499Y211048
X012499Y208508
X015039Y211048
X015039Y208508
X017579Y211048
X017579Y208508
X020119Y211048
X020119Y208508
X022659Y211048
X022659Y208508
X025199Y211048
X025199Y208508
X051496Y013048
X051496Y010508
X054036Y013048
X054036Y010508
X056576Y013048
X056576Y010508
X059116Y013048
X059116Y010508
X061656Y013048
X061656Y010508
X064196Y013048
X064196Y010508
X051496Y079048
X051496Y076508
X054036Y079048
X054036Y076508
X056576Y079048
X056576Y076508
X059116Y079048
X059116Y076508
X061656Y079048
X061656Y076508
X064196Y079048
X064196Y076508
X051496Y145048
X051496Y142508
X054036Y145048
X054036Y142508
X056576Y145048
X056576Y142508
X059116Y145048
X059116Y142508
X061656Y145048
X061656Y142508
X064196Y145048
X064196Y142508
X051496Y211048
X051496Y208508
X054036Y211048
X054036Y208508
X056576Y211048
X056576Y208508
X059116Y211048
X059116Y208508
X061656Y211048
X061656Y208508
X064196Y211048
X064196Y208508
T10
X018498Y056007
X018498Y122007
X018498Y188007
X018498Y254007
X057495Y056007
X057495Y122007
X057495Y188007
X057495Y254007
T11
X000899Y030007
X002700Y030007
X000899Y096007
X002700Y096007
X000899Y162007
X002700Y162007
X000899Y228007
X002700Y228007
X039896Y030007
X041697Y030007
X039896Y096007
X041697Y096007
X039896Y162007
X041697Y162007
X039896Y228007
X041697Y228007
T12
X014991Y027442
X020071Y028458
X020071Y026426
X014991Y093442
X020071Y094458
X020071Y092426
X014991Y159442
X020071Y160458
X020071Y158426
X014991Y225442
X020071Y226458
X020071Y224426
X053988Y027442
X059068Y028458
X059068Y026426
X053988Y093442
X059068Y094458
X059068Y092426
X053988Y159442
X059068Y160458
X059068Y158426
X053988Y225442
X059068Y226458
X059068Y224426
M30