%MOIN*%
%OFA0B0*%
%FSLAX44Y44*%
%IPPOS*%
%LPD*%
%ADD10C,0*%
D10*
X00016258Y00007088D02*
X00016258Y00007088D01*
X00016223Y00007093D01*
X00016190Y00007104D01*
X00016160Y00007123D01*
X00016135Y00007148D01*
X00016116Y00007177D01*
X00016104Y00007211D01*
X00016101Y00007246D01*
X00016104Y00007281D01*
X00016116Y00007314D01*
X00016135Y00007344D01*
X00016160Y00007370D01*
X00016190Y00007388D01*
X00016223Y00007399D01*
X00016258Y00007403D01*
X00017006Y00007403D01*
X00017181Y00007423D01*
X00017348Y00007481D01*
X00017497Y00007576D01*
X00017622Y00007700D01*
X00017715Y00007849D01*
X00017774Y00008015D01*
X00017793Y00008192D01*
X00017774Y00008367D01*
X00017715Y00008533D01*
X00017622Y00008682D01*
X00017497Y00008806D01*
X00017348Y00008900D01*
X00017181Y00008958D01*
X00017006Y00008978D01*
X00016573Y00008978D01*
X00016538Y00008983D01*
X00016505Y00008994D01*
X00016475Y00009013D01*
X00016450Y00009038D01*
X00016431Y00009068D01*
X00016419Y00009101D01*
X00016415Y00009136D01*
X00016419Y00009172D01*
X00016431Y00009204D01*
X00016450Y00009234D01*
X00016475Y00009259D01*
X00016505Y00009278D01*
X00016538Y00009289D01*
X00016573Y00009294D01*
X00017006Y00009294D01*
X00017170Y00009282D01*
X00017331Y00009244D01*
X00017484Y00009185D01*
X00017627Y00009101D01*
X00017756Y00009000D01*
X00017868Y00008878D01*
X00017961Y00008743D01*
X00018032Y00008594D01*
X00018081Y00008436D01*
X00018105Y00008274D01*
X00018105Y00008108D01*
X00018081Y00007945D01*
X00018032Y00007788D01*
X00017961Y00007639D01*
X00017868Y00007503D01*
X00017756Y00007383D01*
X00017627Y00007281D01*
X00017484Y00007197D01*
X00017331Y00007137D01*
X00017170Y00007101D01*
X00017006Y00007088D01*
X00016258Y00007088D01*
X00016258Y00033073D02*
X00016258Y00033073D01*
X00016223Y00033076D01*
X00016190Y00033088D01*
X00016160Y00033108D01*
X00016135Y00033132D01*
X00016116Y00033162D01*
X00016104Y00033195D01*
X00016101Y00033230D01*
X00016104Y00033266D01*
X00016116Y00033299D01*
X00016135Y00033329D01*
X00016160Y00033353D01*
X00016190Y00033372D01*
X00016223Y00033384D01*
X00016258Y00033387D01*
X00017006Y00033387D01*
X00017181Y00033408D01*
X00017348Y00033465D01*
X00017497Y00033559D01*
X00017622Y00033684D01*
X00017715Y00033833D01*
X00017774Y00034001D01*
X00017793Y00034175D01*
X00017774Y00034351D01*
X00017715Y00034518D01*
X00017622Y00034666D01*
X00017497Y00034790D01*
X00017348Y00034885D01*
X00017181Y00034943D01*
X00017006Y00034963D01*
X00016573Y00034963D01*
X00016538Y00034966D01*
X00016505Y00034978D01*
X00016475Y00034998D01*
X00016450Y00035022D01*
X00016431Y00035052D01*
X00016419Y00035085D01*
X00016415Y00035120D01*
X00016419Y00035156D01*
X00016431Y00035188D01*
X00016450Y00035219D01*
X00016475Y00035244D01*
X00016505Y00035262D01*
X00016538Y00035274D01*
X00016573Y00035277D01*
X00017006Y00035277D01*
X00017170Y00035265D01*
X00017331Y00035228D01*
X00017484Y00035169D01*
X00017627Y00035086D01*
X00017756Y00034983D01*
X00017868Y00034862D01*
X00017961Y00034727D01*
X00018032Y00034578D01*
X00018081Y00034420D01*
X00018105Y00034257D01*
X00018105Y00034092D01*
X00018081Y00033930D01*
X00018032Y00033772D01*
X00017961Y00033624D01*
X00017868Y00033488D01*
X00017756Y00033368D01*
X00017627Y00033264D01*
X00017484Y00033183D01*
X00017331Y00033121D01*
X00017170Y00033085D01*
X00017006Y00033073D01*
X00016258Y00033073D01*
X00016258Y00059058D02*
X00016258Y00059058D01*
X00016223Y00059062D01*
X00016190Y00059073D01*
X00016160Y00059091D01*
X00016135Y00059116D01*
X00016116Y00059146D01*
X00016104Y00059179D01*
X00016101Y00059214D01*
X00016104Y00059249D01*
X00016116Y00059283D01*
X00016135Y00059312D01*
X00016160Y00059337D01*
X00016190Y00059356D01*
X00016223Y00059368D01*
X00016258Y00059372D01*
X00017006Y00059372D01*
X00017181Y00059391D01*
X00017348Y00059450D01*
X00017497Y00059544D01*
X00017622Y00059669D01*
X00017715Y00059817D01*
X00017774Y00059984D01*
X00017793Y00060159D01*
X00017774Y00060335D01*
X00017715Y00060501D01*
X00017622Y00060651D01*
X00017497Y00060775D01*
X00017348Y00060869D01*
X00017181Y00060928D01*
X00017006Y00060948D01*
X00016573Y00060948D01*
X00016538Y00060950D01*
X00016505Y00060963D01*
X00016475Y00060982D01*
X00016450Y00061006D01*
X00016431Y00061036D01*
X00016419Y00061069D01*
X00016415Y00061104D01*
X00016419Y00061139D01*
X00016431Y00061172D01*
X00016450Y00061203D01*
X00016475Y00061227D01*
X00016505Y00061246D01*
X00016538Y00061258D01*
X00016573Y00061262D01*
X00017006Y00061262D01*
X00017170Y00061249D01*
X00017331Y00061214D01*
X00017484Y00061152D01*
X00017627Y00061071D01*
X00017756Y00060967D01*
X00017868Y00060846D01*
X00017961Y00060710D01*
X00018032Y00060562D01*
X00018081Y00060404D01*
X00018105Y00060241D01*
X00018105Y00060077D01*
X00018081Y00059914D01*
X00018032Y00059756D01*
X00017961Y00059609D01*
X00017868Y00059472D01*
X00017756Y00059351D01*
X00017627Y00059249D01*
X00017484Y00059166D01*
X00017331Y00059106D01*
X00017170Y00059069D01*
X00017006Y00059058D01*
X00016258Y00059058D01*
X00016258Y00085042D02*
X00016258Y00085042D01*
X00016223Y00085046D01*
X00016190Y00085057D01*
X00016160Y00085075D01*
X00016135Y00085100D01*
X00016116Y00085130D01*
X00016104Y00085163D01*
X00016101Y00085198D01*
X00016104Y00085235D01*
X00016116Y00085267D01*
X00016135Y00085298D01*
X00016160Y00085322D01*
X00016190Y00085341D01*
X00016223Y00085352D01*
X00016258Y00085356D01*
X00017006Y00085356D01*
X00017181Y00085376D01*
X00017348Y00085434D01*
X00017497Y00085528D01*
X00017622Y00085653D01*
X00017715Y00085802D01*
X00017774Y00085969D01*
X00017793Y00086143D01*
X00017774Y00086320D01*
X00017715Y00086485D01*
X00017622Y00086635D01*
X00017497Y00086760D01*
X00017348Y00086854D01*
X00017181Y00086912D01*
X00017006Y00086932D01*
X00016573Y00086932D01*
X00016538Y00086936D01*
X00016505Y00086946D01*
X00016475Y00086966D01*
X00016450Y00086990D01*
X00016431Y00087020D01*
X00016419Y00087053D01*
X00016415Y00087088D01*
X00016419Y00087123D01*
X00016431Y00087157D01*
X00016450Y00087186D01*
X00016475Y00087211D01*
X00016505Y00087231D01*
X00016538Y00087242D01*
X00016573Y00087246D01*
X00017006Y00087246D01*
X00017170Y00087233D01*
X00017331Y00087198D01*
X00017484Y00087138D01*
X00017627Y00087055D01*
X00017756Y00086951D01*
X00017868Y00086832D01*
X00017961Y00086695D01*
X00018032Y00086546D01*
X00018081Y00086390D01*
X00018105Y00086226D01*
X00018105Y00086061D01*
X00018081Y00085898D01*
X00018032Y00085742D01*
X00017961Y00085592D01*
X00017868Y00085456D01*
X00017756Y00085335D01*
X00017627Y00085233D01*
X00017484Y00085150D01*
X00017331Y00085090D01*
X00017170Y00085053D01*
X00017006Y00085042D01*
X00016258Y00085042D01*
X00000904Y00007088D02*
X00000904Y00007088D01*
X00000869Y00007093D01*
X00000836Y00007104D01*
X00000806Y00007123D01*
X00000781Y00007148D01*
X00000762Y00007177D01*
X00000750Y00007211D01*
X00000747Y00007246D01*
X00000750Y00007281D01*
X00000762Y00007314D01*
X00000781Y00007344D01*
X00000806Y00007370D01*
X00000836Y00007388D01*
X00000869Y00007399D01*
X00000904Y00007403D01*
X00001652Y00007403D01*
X00001827Y00007423D01*
X00001994Y00007481D01*
X00002143Y00007576D01*
X00002268Y00007700D01*
X00002361Y00007849D01*
X00002421Y00008015D01*
X00002439Y00008192D01*
X00002421Y00008367D01*
X00002361Y00008533D01*
X00002268Y00008682D01*
X00002143Y00008806D01*
X00001994Y00008900D01*
X00001827Y00008958D01*
X00001652Y00008978D01*
X00001219Y00008978D01*
X00001184Y00008983D01*
X00001151Y00008994D01*
X00001121Y00009013D01*
X00001097Y00009038D01*
X00001078Y00009068D01*
X00001065Y00009101D01*
X00001061Y00009136D01*
X00001065Y00009172D01*
X00001078Y00009204D01*
X00001097Y00009234D01*
X00001121Y00009259D01*
X00001151Y00009278D01*
X00001184Y00009289D01*
X00001219Y00009294D01*
X00001652Y00009294D01*
X00001816Y00009282D01*
X00001977Y00009244D01*
X00002131Y00009185D01*
X00002273Y00009101D01*
X00002403Y00009000D01*
X00002515Y00008878D01*
X00002607Y00008743D01*
X00002678Y00008594D01*
X00002727Y00008436D01*
X00002751Y00008274D01*
X00002751Y00008108D01*
X00002727Y00007945D01*
X00002678Y00007788D01*
X00002607Y00007639D01*
X00002515Y00007503D01*
X00002403Y00007383D01*
X00002273Y00007281D01*
X00002131Y00007197D01*
X00001977Y00007137D01*
X00001816Y00007101D01*
X00001652Y00007088D01*
X00000904Y00007088D01*
X00000904Y00033073D02*
X00000904Y00033073D01*
X00000869Y00033076D01*
X00000836Y00033088D01*
X00000806Y00033108D01*
X00000781Y00033132D01*
X00000762Y00033162D01*
X00000750Y00033195D01*
X00000747Y00033230D01*
X00000750Y00033266D01*
X00000762Y00033299D01*
X00000781Y00033329D01*
X00000806Y00033353D01*
X00000836Y00033372D01*
X00000869Y00033384D01*
X00000904Y00033387D01*
X00001652Y00033387D01*
X00001827Y00033408D01*
X00001994Y00033465D01*
X00002143Y00033559D01*
X00002268Y00033684D01*
X00002361Y00033833D01*
X00002421Y00034001D01*
X00002439Y00034175D01*
X00002421Y00034351D01*
X00002361Y00034518D01*
X00002268Y00034666D01*
X00002143Y00034790D01*
X00001994Y00034885D01*
X00001827Y00034943D01*
X00001652Y00034963D01*
X00001219Y00034963D01*
X00001184Y00034966D01*
X00001151Y00034978D01*
X00001121Y00034998D01*
X00001097Y00035022D01*
X00001078Y00035052D01*
X00001065Y00035085D01*
X00001061Y00035120D01*
X00001065Y00035156D01*
X00001078Y00035188D01*
X00001097Y00035219D01*
X00001121Y00035244D01*
X00001151Y00035262D01*
X00001184Y00035274D01*
X00001219Y00035277D01*
X00001652Y00035277D01*
X00001816Y00035265D01*
X00001977Y00035228D01*
X00002131Y00035169D01*
X00002273Y00035086D01*
X00002403Y00034983D01*
X00002515Y00034862D01*
X00002607Y00034727D01*
X00002678Y00034578D01*
X00002727Y00034420D01*
X00002751Y00034257D01*
X00002751Y00034092D01*
X00002727Y00033930D01*
X00002678Y00033772D01*
X00002607Y00033624D01*
X00002515Y00033488D01*
X00002403Y00033368D01*
X00002273Y00033264D01*
X00002131Y00033183D01*
X00001977Y00033121D01*
X00001816Y00033085D01*
X00001652Y00033073D01*
X00000904Y00033073D01*
X00000904Y00059058D02*
X00000904Y00059058D01*
X00000869Y00059062D01*
X00000836Y00059073D01*
X00000806Y00059091D01*
X00000781Y00059116D01*
X00000762Y00059146D01*
X00000750Y00059179D01*
X00000747Y00059214D01*
X00000750Y00059249D01*
X00000762Y00059283D01*
X00000781Y00059312D01*
X00000806Y00059337D01*
X00000836Y00059356D01*
X00000869Y00059368D01*
X00000904Y00059372D01*
X00001652Y00059372D01*
X00001827Y00059391D01*
X00001994Y00059450D01*
X00002143Y00059544D01*
X00002268Y00059669D01*
X00002361Y00059817D01*
X00002421Y00059984D01*
X00002439Y00060159D01*
X00002421Y00060335D01*
X00002361Y00060501D01*
X00002268Y00060651D01*
X00002143Y00060775D01*
X00001994Y00060869D01*
X00001827Y00060928D01*
X00001652Y00060948D01*
X00001219Y00060948D01*
X00001184Y00060950D01*
X00001151Y00060963D01*
X00001121Y00060982D01*
X00001097Y00061006D01*
X00001078Y00061036D01*
X00001065Y00061069D01*
X00001061Y00061104D01*
X00001065Y00061139D01*
X00001078Y00061172D01*
X00001097Y00061203D01*
X00001121Y00061227D01*
X00001151Y00061246D01*
X00001184Y00061258D01*
X00001219Y00061262D01*
X00001652Y00061262D01*
X00001816Y00061249D01*
X00001977Y00061214D01*
X00002131Y00061152D01*
X00002273Y00061071D01*
X00002403Y00060967D01*
X00002515Y00060846D01*
X00002607Y00060710D01*
X00002678Y00060562D01*
X00002727Y00060404D01*
X00002751Y00060241D01*
X00002751Y00060077D01*
X00002727Y00059914D01*
X00002678Y00059756D01*
X00002607Y00059609D01*
X00002515Y00059472D01*
X00002403Y00059351D01*
X00002273Y00059249D01*
X00002131Y00059166D01*
X00001977Y00059106D01*
X00001816Y00059069D01*
X00001652Y00059058D01*
X00000904Y00059058D01*
X00000904Y00085042D02*
X00000904Y00085042D01*
X00000869Y00085046D01*
X00000836Y00085057D01*
X00000806Y00085075D01*
X00000781Y00085100D01*
X00000762Y00085130D01*
X00000750Y00085163D01*
X00000747Y00085198D01*
X00000750Y00085235D01*
X00000762Y00085267D01*
X00000781Y00085298D01*
X00000806Y00085322D01*
X00000836Y00085341D01*
X00000869Y00085352D01*
X00000904Y00085356D01*
X00001652Y00085356D01*
X00001827Y00085376D01*
X00001994Y00085434D01*
X00002143Y00085528D01*
X00002268Y00085653D01*
X00002361Y00085802D01*
X00002421Y00085969D01*
X00002439Y00086143D01*
X00002421Y00086320D01*
X00002361Y00086485D01*
X00002268Y00086635D01*
X00002143Y00086760D01*
X00001994Y00086854D01*
X00001827Y00086912D01*
X00001652Y00086932D01*
X00001219Y00086932D01*
X00001184Y00086936D01*
X00001151Y00086946D01*
X00001121Y00086966D01*
X00001097Y00086990D01*
X00001078Y00087020D01*
X00001065Y00087053D01*
X00001061Y00087088D01*
X00001065Y00087123D01*
X00001078Y00087157D01*
X00001097Y00087186D01*
X00001121Y00087211D01*
X00001151Y00087231D01*
X00001184Y00087242D01*
X00001219Y00087246D01*
X00001652Y00087246D01*
X00001816Y00087233D01*
X00001977Y00087198D01*
X00002131Y00087138D01*
X00002273Y00087055D01*
X00002403Y00086951D01*
X00002515Y00086832D01*
X00002607Y00086695D01*
X00002678Y00086546D01*
X00002727Y00086390D01*
X00002751Y00086226D01*
X00002751Y00086061D01*
X00002727Y00085898D01*
X00002678Y00085742D01*
X00002607Y00085592D01*
X00002515Y00085456D01*
X00002403Y00085335D01*
X00002273Y00085233D01*
X00002131Y00085150D01*
X00001977Y00085090D01*
X00001816Y00085053D01*
X00001652Y00085042D01*
X00000904Y00085042D01*
X00014565Y00060829D02*
X00014565Y00060829D01*
X00014563Y00060869D01*
X00014554Y00060915D01*
X00014541Y00060960D01*
X00014522Y00061003D01*
X00014498Y00061043D01*
X00014469Y00061080D01*
X00014436Y00061115D01*
X00014400Y00061143D01*
X00014361Y00061169D01*
X00014318Y00061188D01*
X00014190Y00061256D01*
X00014079Y00061349D01*
X00013993Y00061466D01*
X00013931Y00061596D01*
X00013900Y00061737D01*
X00013900Y00061882D01*
X00013931Y00062023D01*
X00013993Y00062155D01*
X00014079Y00062270D01*
X00014190Y00062363D01*
X00014318Y00062432D01*
X00014361Y00062451D01*
X00014400Y00062476D01*
X00014436Y00062506D01*
X00014469Y00062539D01*
X00014498Y00062576D01*
X00014522Y00062617D01*
X00014541Y00062660D01*
X00014554Y00062705D01*
X00014563Y00062751D01*
X00014565Y00062797D01*
X00014565Y00074999D01*
X00014558Y00075091D01*
X00014537Y00075182D01*
X00014501Y00075268D01*
X00014453Y00075346D01*
X00014392Y00075416D01*
X00014322Y00075476D01*
X00014243Y00075526D01*
X00014157Y00075561D01*
X00014067Y00075582D01*
X00013975Y00075589D01*
X00005588Y00075589D01*
X00005557Y00075591D01*
X00005526Y00075594D01*
X00005496Y00075600D01*
X00005466Y00075608D01*
X00005437Y00075619D01*
X00005409Y00075632D01*
X00005383Y00075647D01*
X00005356Y00075664D01*
X00005333Y00075684D01*
X00005310Y00075704D01*
X00005289Y00075728D01*
X00005270Y00075751D01*
X00005252Y00075777D01*
X00005237Y00075804D01*
X00005224Y00075832D01*
X00005213Y00075862D01*
X00005205Y00075892D01*
X00005200Y00075921D01*
X00005195Y00075953D01*
X00005194Y00075983D01*
X00005194Y00077559D01*
X00005195Y00077589D01*
X00005200Y00077620D01*
X00005205Y00077650D01*
X00005213Y00077680D01*
X00005224Y00077708D01*
X00005237Y00077737D01*
X00005252Y00077763D01*
X00005270Y00077789D01*
X00005289Y00077813D01*
X00005310Y00077836D01*
X00005333Y00077858D01*
X00005356Y00077877D01*
X00005383Y00077893D01*
X00005409Y00077908D01*
X00005437Y00077921D01*
X00005466Y00077932D01*
X00005496Y00077940D01*
X00005526Y00077947D01*
X00005557Y00077950D01*
X00005588Y00077951D01*
X00013975Y00077951D01*
X00014067Y00077960D01*
X00014157Y00077980D01*
X00014243Y00078016D01*
X00014322Y00078064D01*
X00014392Y00078125D01*
X00014453Y00078196D01*
X00014501Y00078274D01*
X00014537Y00078359D01*
X00014558Y00078450D01*
X00014565Y00078543D01*
X00014565Y00078808D01*
X00014570Y00078869D01*
X00014585Y00078929D01*
X00014608Y00078986D01*
X00014640Y00079039D01*
X00014680Y00079086D01*
X00014727Y00079126D01*
X00014780Y00079158D01*
X00014837Y00079182D01*
X00014897Y00079196D01*
X00014958Y00079201D01*
X00015020Y00079197D01*
X00015080Y00079182D01*
X00015137Y00079159D01*
X00015190Y00079127D01*
X00015237Y00079087D01*
X00015277Y00079040D01*
X00015309Y00078988D01*
X00015333Y00078931D01*
X00015348Y00078871D01*
X00015353Y00078809D01*
X00015353Y00078809D01*
X00015353Y00078809D01*
X00015353Y00078808D01*
X00015353Y00078808D01*
X00015353Y00078808D01*
X00015353Y00078808D01*
X00015353Y00078808D01*
X00015353Y00078808D01*
X00015353Y00078808D01*
X00015353Y00078808D01*
X00015353Y00078808D01*
X00015353Y00078808D01*
X00015353Y00078808D01*
X00015353Y00078808D01*
X00015353Y00078807D01*
X00015353Y00078807D01*
X00015353Y00078807D01*
X00015353Y00078807D01*
X00015353Y00078807D01*
X00015353Y00078807D01*
X00015353Y00078807D01*
X00015353Y00078543D01*
X00015360Y00078450D01*
X00015381Y00078359D01*
X00015417Y00078274D01*
X00015465Y00078196D01*
X00015525Y00078125D01*
X00015596Y00078064D01*
X00015675Y00078016D01*
X00015761Y00077980D01*
X00015851Y00077960D01*
X00015943Y00077951D01*
X00016850Y00077951D01*
X00016881Y00077950D01*
X00016912Y00077947D01*
X00016942Y00077940D01*
X00016972Y00077932D01*
X00017001Y00077921D01*
X00017029Y00077908D01*
X00017056Y00077893D01*
X00017081Y00077877D01*
X00017106Y00077858D01*
X00017128Y00077836D01*
X00017149Y00077813D01*
X00017169Y00077789D01*
X00017186Y00077763D01*
X00017201Y00077737D01*
X00017214Y00077708D01*
X00017225Y00077680D01*
X00017233Y00077650D01*
X00017239Y00077620D01*
X00017243Y00077589D01*
X00017244Y00077559D01*
X00017244Y00075983D01*
X00017243Y00075953D01*
X00017239Y00075921D01*
X00017233Y00075892D01*
X00017225Y00075862D01*
X00017214Y00075832D01*
X00017201Y00075804D01*
X00017186Y00075777D01*
X00017169Y00075751D01*
X00017149Y00075728D01*
X00017128Y00075704D01*
X00017106Y00075684D01*
X00017081Y00075664D01*
X00017056Y00075647D01*
X00017029Y00075632D01*
X00017001Y00075619D01*
X00016972Y00075608D01*
X00016942Y00075600D01*
X00016912Y00075594D01*
X00016881Y00075591D01*
X00016850Y00075589D01*
X00015943Y00075589D01*
X00015851Y00075582D01*
X00015761Y00075561D01*
X00015675Y00075526D01*
X00015596Y00075476D01*
X00015525Y00075416D01*
X00015465Y00075346D01*
X00015417Y00075268D01*
X00015381Y00075182D01*
X00015360Y00075091D01*
X00015353Y00074999D01*
X00015353Y00062797D01*
X00015355Y00062751D01*
X00015364Y00062705D01*
X00015377Y00062660D01*
X00015396Y00062617D01*
X00015420Y00062576D01*
X00015449Y00062539D01*
X00015482Y00062506D01*
X00015518Y00062476D01*
X00015558Y00062451D01*
X00015600Y00062432D01*
X00015728Y00062363D01*
X00015838Y00062270D01*
X00015926Y00062155D01*
X00015987Y00062023D01*
X00016018Y00061882D01*
X00016018Y00061737D01*
X00015987Y00061596D01*
X00015926Y00061466D01*
X00015838Y00061349D01*
X00015728Y00061256D01*
X00015600Y00061188D01*
X00015558Y00061169D01*
X00015518Y00061143D01*
X00015482Y00061115D01*
X00015449Y00061080D01*
X00015420Y00061043D01*
X00015396Y00061003D01*
X00015377Y00060960D01*
X00015364Y00060915D01*
X00015355Y00060869D01*
X00015353Y00060822D01*
X00015353Y00055050D01*
X00015353Y00055050D01*
X00015353Y00055050D01*
X00015353Y00055050D01*
X00015353Y00055050D01*
X00015353Y00055050D01*
X00015353Y00055050D01*
X00015353Y00055050D01*
X00015353Y00055050D01*
X00015353Y00055050D01*
X00015353Y00055049D01*
X00015353Y00055049D01*
X00015353Y00055049D01*
X00015353Y00055049D01*
X00015353Y00055049D01*
X00015353Y00055049D01*
X00015353Y00055049D01*
X00015353Y00055049D01*
X00015353Y00055049D01*
X00015353Y00055049D01*
X00015353Y00055049D01*
X00015353Y00055048D01*
X00015348Y00054986D01*
X00015333Y00054927D01*
X00015309Y00054870D01*
X00015277Y00054817D01*
X00015237Y00054770D01*
X00015190Y00054730D01*
X00015137Y00054698D01*
X00015080Y00054675D01*
X00015020Y00054661D01*
X00014958Y00054656D01*
X00014897Y00054661D01*
X00014837Y00054676D01*
X00014780Y00054699D01*
X00014727Y00054732D01*
X00014680Y00054772D01*
X00014640Y00054819D01*
X00014608Y00054871D01*
X00014585Y00054928D01*
X00014570Y00054988D01*
X00014565Y00055050D01*
X00014565Y00060829D01*
X00014565Y00034845D02*
X00014565Y00034845D01*
X00014563Y00034886D01*
X00014554Y00034931D01*
X00014541Y00034977D01*
X00014522Y00035018D01*
X00014498Y00035059D01*
X00014469Y00035096D01*
X00014436Y00035130D01*
X00014400Y00035159D01*
X00014361Y00035184D01*
X00014318Y00035205D01*
X00014190Y00035272D01*
X00014079Y00035366D01*
X00013993Y00035480D01*
X00013931Y00035613D01*
X00013900Y00035754D01*
X00013900Y00035898D01*
X00013931Y00036040D01*
X00013993Y00036170D01*
X00014079Y00036286D01*
X00014190Y00036379D01*
X00014318Y00036447D01*
X00014361Y00036467D01*
X00014400Y00036493D01*
X00014436Y00036521D01*
X00014469Y00036556D01*
X00014498Y00036593D01*
X00014522Y00036633D01*
X00014541Y00036676D01*
X00014554Y00036720D01*
X00014563Y00036767D01*
X00014565Y00036814D01*
X00014565Y00049015D01*
X00014558Y00049108D01*
X00014537Y00049198D01*
X00014501Y00049282D01*
X00014453Y00049361D01*
X00014392Y00049432D01*
X00014322Y00049492D01*
X00014243Y00049540D01*
X00014157Y00049577D01*
X00014067Y00049599D01*
X00013975Y00049605D01*
X00005588Y00049605D01*
X00005557Y00049606D01*
X00005526Y00049611D01*
X00005496Y00049617D01*
X00005466Y00049625D01*
X00005437Y00049635D01*
X00005409Y00049648D01*
X00005383Y00049664D01*
X00005356Y00049680D01*
X00005333Y00049699D01*
X00005310Y00049721D01*
X00005289Y00049744D01*
X00005270Y00049767D01*
X00005252Y00049794D01*
X00005237Y00049821D01*
X00005224Y00049848D01*
X00005213Y00049877D01*
X00005205Y00049907D01*
X00005200Y00049938D01*
X00005195Y00049968D01*
X00005194Y00049998D01*
X00005194Y00051573D01*
X00005195Y00051604D01*
X00005200Y00051636D01*
X00005205Y00051666D01*
X00005213Y00051696D01*
X00005224Y00051724D01*
X00005237Y00051753D01*
X00005252Y00051779D01*
X00005270Y00051805D01*
X00005289Y00051829D01*
X00005310Y00051852D01*
X00005333Y00051874D01*
X00005356Y00051893D01*
X00005383Y00051909D01*
X00005409Y00051924D01*
X00005437Y00051937D01*
X00005466Y00051948D01*
X00005496Y00051956D01*
X00005526Y00051963D01*
X00005557Y00051966D01*
X00005588Y00051967D01*
X00013975Y00051967D01*
X00014067Y00051974D01*
X00014157Y00051996D01*
X00014243Y00052031D01*
X00014322Y00052080D01*
X00014392Y00052141D01*
X00014453Y00052210D01*
X00014501Y00052290D01*
X00014537Y00052375D01*
X00014558Y00052465D01*
X00014565Y00052558D01*
X00014565Y00052823D01*
X00014570Y00052885D01*
X00014585Y00052945D01*
X00014608Y00053002D01*
X00014640Y00053054D01*
X00014680Y00053101D01*
X00014727Y00053141D01*
X00014780Y00053174D01*
X00014837Y00053197D01*
X00014897Y00053212D01*
X00014958Y00053217D01*
X00015020Y00053212D01*
X00015080Y00053198D01*
X00015137Y00053175D01*
X00015190Y00053143D01*
X00015237Y00053103D01*
X00015277Y00053056D01*
X00015309Y00053003D01*
X00015333Y00052946D01*
X00015348Y00052887D01*
X00015353Y00052825D01*
X00015353Y00052824D01*
X00015353Y00052824D01*
X00015353Y00052824D01*
X00015353Y00052824D01*
X00015353Y00052824D01*
X00015353Y00052824D01*
X00015353Y00052824D01*
X00015353Y00052824D01*
X00015353Y00052824D01*
X00015353Y00052824D01*
X00015353Y00052824D01*
X00015353Y00052823D01*
X00015353Y00052823D01*
X00015353Y00052823D01*
X00015353Y00052823D01*
X00015353Y00052823D01*
X00015353Y00052823D01*
X00015353Y00052823D01*
X00015353Y00052823D01*
X00015353Y00052823D01*
X00015353Y00052823D01*
X00015353Y00052558D01*
X00015360Y00052465D01*
X00015381Y00052375D01*
X00015417Y00052290D01*
X00015465Y00052210D01*
X00015525Y00052141D01*
X00015596Y00052080D01*
X00015675Y00052031D01*
X00015761Y00051996D01*
X00015851Y00051974D01*
X00015943Y00051967D01*
X00016850Y00051967D01*
X00016881Y00051966D01*
X00016912Y00051963D01*
X00016942Y00051956D01*
X00016972Y00051948D01*
X00017001Y00051937D01*
X00017029Y00051924D01*
X00017056Y00051909D01*
X00017081Y00051893D01*
X00017106Y00051874D01*
X00017128Y00051852D01*
X00017149Y00051829D01*
X00017169Y00051805D01*
X00017186Y00051779D01*
X00017201Y00051753D01*
X00017214Y00051724D01*
X00017225Y00051696D01*
X00017233Y00051666D01*
X00017239Y00051636D01*
X00017243Y00051604D01*
X00017244Y00051573D01*
X00017244Y00049998D01*
X00017243Y00049968D01*
X00017239Y00049938D01*
X00017233Y00049907D01*
X00017225Y00049877D01*
X00017214Y00049848D01*
X00017201Y00049821D01*
X00017186Y00049794D01*
X00017169Y00049767D01*
X00017149Y00049744D01*
X00017128Y00049721D01*
X00017106Y00049699D01*
X00017081Y00049680D01*
X00017056Y00049664D01*
X00017029Y00049648D01*
X00017001Y00049635D01*
X00016972Y00049625D01*
X00016942Y00049617D01*
X00016912Y00049611D01*
X00016881Y00049606D01*
X00016850Y00049605D01*
X00015943Y00049605D01*
X00015851Y00049599D01*
X00015761Y00049577D01*
X00015675Y00049540D01*
X00015596Y00049492D01*
X00015525Y00049432D01*
X00015465Y00049361D01*
X00015417Y00049282D01*
X00015381Y00049198D01*
X00015360Y00049108D01*
X00015353Y00049015D01*
X00015353Y00036814D01*
X00015355Y00036767D01*
X00015364Y00036720D01*
X00015377Y00036676D01*
X00015396Y00036633D01*
X00015420Y00036593D01*
X00015449Y00036556D01*
X00015482Y00036521D01*
X00015518Y00036493D01*
X00015558Y00036467D01*
X00015600Y00036447D01*
X00015728Y00036379D01*
X00015838Y00036286D01*
X00015926Y00036170D01*
X00015987Y00036040D01*
X00016018Y00035898D01*
X00016018Y00035754D01*
X00015987Y00035613D01*
X00015926Y00035480D01*
X00015838Y00035366D01*
X00015728Y00035272D01*
X00015600Y00035205D01*
X00015558Y00035184D01*
X00015518Y00035159D01*
X00015482Y00035130D01*
X00015449Y00035096D01*
X00015420Y00035059D01*
X00015396Y00035018D01*
X00015377Y00034977D01*
X00015364Y00034931D01*
X00015355Y00034886D01*
X00015353Y00034838D01*
X00015353Y00029066D01*
X00015353Y00029066D01*
X00015353Y00029066D01*
X00015353Y00029066D01*
X00015353Y00029066D01*
X00015353Y00029066D01*
X00015353Y00029066D01*
X00015353Y00029066D01*
X00015353Y00029065D01*
X00015353Y00029065D01*
X00015353Y00029065D01*
X00015353Y00029065D01*
X00015353Y00029065D01*
X00015353Y00029065D01*
X00015353Y00029065D01*
X00015353Y00029065D01*
X00015353Y00029065D01*
X00015353Y00029065D01*
X00015353Y00029065D01*
X00015353Y00029064D01*
X00015353Y00029064D01*
X00015353Y00029064D01*
X00015348Y00029002D01*
X00015333Y00028942D01*
X00015309Y00028885D01*
X00015277Y00028833D01*
X00015237Y00028786D01*
X00015190Y00028746D01*
X00015137Y00028714D01*
X00015080Y00028691D01*
X00015020Y00028676D01*
X00014958Y00028672D01*
X00014897Y00028677D01*
X00014837Y00028691D01*
X00014780Y00028715D01*
X00014727Y00028747D01*
X00014680Y00028787D01*
X00014640Y00028834D01*
X00014608Y00028887D01*
X00014585Y00028944D01*
X00014570Y00029004D01*
X00014565Y00029065D01*
X00014565Y00034845D01*
X00014565Y00008861D02*
X00014565Y00008861D01*
X00014563Y00008900D01*
X00014554Y00008948D01*
X00014541Y00008991D01*
X00014522Y00009035D01*
X00014498Y00009075D01*
X00014469Y00009113D01*
X00014436Y00009145D01*
X00014400Y00009175D01*
X00014361Y00009200D01*
X00014318Y00009220D01*
X00014190Y00009288D01*
X00014079Y00009382D01*
X00013993Y00009496D01*
X00013931Y00009627D01*
X00013900Y00009769D01*
X00013900Y00009913D01*
X00013931Y00010056D01*
X00013993Y00010186D01*
X00014079Y00010301D01*
X00014190Y00010395D01*
X00014318Y00010463D01*
X00014361Y00010484D01*
X00014400Y00010507D01*
X00014436Y00010537D01*
X00014469Y00010570D01*
X00014498Y00010608D01*
X00014522Y00010649D01*
X00014541Y00010691D01*
X00014554Y00010735D01*
X00014563Y00010783D01*
X00014565Y00010828D01*
X00014565Y00023031D01*
X00014558Y00023123D01*
X00014537Y00023213D01*
X00014501Y00023298D01*
X00014453Y00023377D01*
X00014392Y00023448D01*
X00014322Y00023509D01*
X00014243Y00023557D01*
X00014157Y00023592D01*
X00014067Y00023614D01*
X00013975Y00023622D01*
X00005588Y00023622D01*
X00005557Y00023622D01*
X00005526Y00023626D01*
X00005496Y00023631D01*
X00005466Y00023641D01*
X00005437Y00023652D01*
X00005409Y00023663D01*
X00005383Y00023679D01*
X00005356Y00023697D01*
X00005333Y00023715D01*
X00005310Y00023736D01*
X00005289Y00023759D01*
X00005270Y00023783D01*
X00005252Y00023809D01*
X00005237Y00023836D01*
X00005224Y00023864D01*
X00005213Y00023894D01*
X00005205Y00023922D01*
X00005200Y00023953D01*
X00005195Y00023984D01*
X00005194Y00024014D01*
X00005194Y00025589D01*
X00005195Y00025620D01*
X00005200Y00025651D01*
X00005205Y00025681D01*
X00005213Y00025711D01*
X00005224Y00025740D01*
X00005237Y00025769D01*
X00005252Y00025796D01*
X00005270Y00025821D01*
X00005289Y00025845D01*
X00005310Y00025867D01*
X00005333Y00025888D01*
X00005356Y00025909D01*
X00005383Y00025926D01*
X00005409Y00025940D01*
X00005437Y00025953D01*
X00005466Y00025964D01*
X00005496Y00025972D01*
X00005526Y00025978D01*
X00005557Y00025982D01*
X00005588Y00025983D01*
X00013975Y00025983D01*
X00014067Y00025991D01*
X00014157Y00026013D01*
X00014243Y00026047D01*
X00014322Y00026096D01*
X00014392Y00026156D01*
X00014453Y00026226D01*
X00014501Y00026305D01*
X00014537Y00026392D01*
X00014558Y00026482D01*
X00014565Y00026573D01*
X00014565Y00026839D01*
X00014570Y00026901D01*
X00014585Y00026961D01*
X00014608Y00027018D01*
X00014640Y00027070D01*
X00014680Y00027117D01*
X00014727Y00027157D01*
X00014780Y00027190D01*
X00014837Y00027213D01*
X00014897Y00027228D01*
X00014958Y00027233D01*
X00015020Y00027228D01*
X00015080Y00027214D01*
X00015137Y00027190D01*
X00015190Y00027158D01*
X00015237Y00027118D01*
X00015277Y00027072D01*
X00015309Y00027019D01*
X00015333Y00026962D01*
X00015348Y00026902D01*
X00015353Y00026841D01*
X00015353Y00026840D01*
X00015353Y00026840D01*
X00015353Y00026840D01*
X00015353Y00026840D01*
X00015353Y00026840D01*
X00015353Y00026840D01*
X00015353Y00026840D01*
X00015353Y00026840D01*
X00015353Y00026839D01*
X00015353Y00026839D01*
X00015353Y00026839D01*
X00015353Y00026839D01*
X00015353Y00026839D01*
X00015353Y00026839D01*
X00015353Y00026839D01*
X00015353Y00026839D01*
X00015353Y00026839D01*
X00015353Y00026839D01*
X00015353Y00026839D01*
X00015353Y00026838D01*
X00015353Y00026838D01*
X00015353Y00026573D01*
X00015360Y00026482D01*
X00015381Y00026392D01*
X00015417Y00026305D01*
X00015465Y00026226D01*
X00015525Y00026156D01*
X00015596Y00026096D01*
X00015675Y00026047D01*
X00015761Y00026013D01*
X00015851Y00025991D01*
X00015943Y00025983D01*
X00016850Y00025983D01*
X00016881Y00025982D01*
X00016912Y00025978D01*
X00016942Y00025972D01*
X00016972Y00025964D01*
X00017001Y00025953D01*
X00017029Y00025940D01*
X00017056Y00025926D01*
X00017081Y00025909D01*
X00017106Y00025888D01*
X00017128Y00025867D01*
X00017149Y00025845D01*
X00017169Y00025821D01*
X00017186Y00025796D01*
X00017201Y00025769D01*
X00017214Y00025740D01*
X00017225Y00025711D01*
X00017233Y00025681D01*
X00017239Y00025651D01*
X00017243Y00025620D01*
X00017244Y00025589D01*
X00017244Y00024014D01*
X00017243Y00023984D01*
X00017239Y00023953D01*
X00017233Y00023922D01*
X00017225Y00023894D01*
X00017214Y00023864D01*
X00017201Y00023836D01*
X00017186Y00023809D01*
X00017169Y00023783D01*
X00017149Y00023759D01*
X00017128Y00023736D01*
X00017106Y00023715D01*
X00017081Y00023697D01*
X00017056Y00023679D01*
X00017029Y00023663D01*
X00017001Y00023652D01*
X00016972Y00023641D01*
X00016942Y00023631D01*
X00016912Y00023626D01*
X00016881Y00023622D01*
X00016850Y00023622D01*
X00015943Y00023622D01*
X00015851Y00023614D01*
X00015761Y00023592D01*
X00015675Y00023557D01*
X00015596Y00023509D01*
X00015525Y00023448D01*
X00015465Y00023377D01*
X00015417Y00023298D01*
X00015381Y00023213D01*
X00015360Y00023123D01*
X00015353Y00023031D01*
X00015353Y00010828D01*
X00015355Y00010783D01*
X00015364Y00010735D01*
X00015377Y00010691D01*
X00015396Y00010649D01*
X00015420Y00010608D01*
X00015449Y00010570D01*
X00015482Y00010537D01*
X00015518Y00010507D01*
X00015558Y00010484D01*
X00015600Y00010463D01*
X00015728Y00010395D01*
X00015838Y00010301D01*
X00015926Y00010186D01*
X00015987Y00010056D01*
X00016018Y00009913D01*
X00016018Y00009769D01*
X00015987Y00009627D01*
X00015926Y00009496D01*
X00015838Y00009382D01*
X00015728Y00009288D01*
X00015600Y00009220D01*
X00015558Y00009200D01*
X00015518Y00009175D01*
X00015482Y00009145D01*
X00015449Y00009113D01*
X00015420Y00009075D01*
X00015396Y00009035D01*
X00015377Y00008991D01*
X00015364Y00008948D01*
X00015355Y00008900D01*
X00015353Y00008854D01*
X00015353Y00003082D01*
X00015353Y00003082D01*
X00015353Y00003082D01*
X00015353Y00003082D01*
X00015353Y00003082D01*
X00015353Y00003081D01*
X00015353Y00003081D01*
X00015353Y00003081D01*
X00015353Y00003081D01*
X00015353Y00003081D01*
X00015353Y00003081D01*
X00015353Y00003081D01*
X00015353Y00003081D01*
X00015353Y00003081D01*
X00015353Y00003081D01*
X00015353Y00003081D01*
X00015353Y00003080D01*
X00015353Y00003080D01*
X00015353Y00003080D01*
X00015353Y00003080D01*
X00015353Y00003080D01*
X00015353Y00003079D01*
X00015348Y00003018D01*
X00015333Y00002958D01*
X00015309Y00002901D01*
X00015277Y00002849D01*
X00015237Y00002802D01*
X00015190Y00002762D01*
X00015137Y00002730D01*
X00015080Y00002706D01*
X00015020Y00002692D01*
X00014958Y00002688D01*
X00014897Y00002693D01*
X00014837Y00002707D01*
X00014780Y00002731D01*
X00014727Y00002763D01*
X00014680Y00002803D01*
X00014640Y00002850D01*
X00014608Y00002903D01*
X00014585Y00002960D01*
X00014570Y00003020D01*
X00014565Y00003081D01*
X00014565Y00008861D01*
X00013975Y00000000D02*
X00013975Y00000000D01*
X00014067Y00000006D01*
X00014157Y00000027D01*
X00014243Y00000064D01*
X00014322Y00000111D01*
X00014392Y00000171D01*
X00014453Y00000242D01*
X00014501Y00000321D01*
X00014537Y00000407D01*
X00014558Y00000497D01*
X00014565Y00000590D01*
X00014565Y00000855D01*
X00014570Y00000916D01*
X00014585Y00000976D01*
X00014608Y00001033D01*
X00014640Y00001086D01*
X00014680Y00001133D01*
X00014727Y00001173D01*
X00014780Y00001205D01*
X00014837Y00001229D01*
X00014897Y00001244D01*
X00014958Y00001248D01*
X00015020Y00001244D01*
X00015080Y00001230D01*
X00015137Y00001206D01*
X00015190Y00001174D01*
X00015237Y00001134D01*
X00015277Y00001087D01*
X00015309Y00001035D01*
X00015333Y00000978D01*
X00015348Y00000918D01*
X00015353Y00000857D01*
X00015353Y00000856D01*
X00015353Y00000856D01*
X00015353Y00000856D01*
X00015353Y00000856D01*
X00015353Y00000856D01*
X00015353Y00000855D01*
X00015353Y00000855D01*
X00015353Y00000855D01*
X00015353Y00000855D01*
X00015353Y00000855D01*
X00015353Y00000855D01*
X00015353Y00000855D01*
X00015353Y00000855D01*
X00015353Y00000855D01*
X00015353Y00000855D01*
X00015353Y00000855D01*
X00015353Y00000854D01*
X00015353Y00000854D01*
X00015353Y00000854D01*
X00015353Y00000854D01*
X00015353Y00000854D01*
X00015353Y00000590D01*
X00015360Y00000497D01*
X00015381Y00000407D01*
X00015417Y00000321D01*
X00015465Y00000242D01*
X00015525Y00000171D01*
X00015596Y00000111D01*
X00015675Y00000064D01*
X00015761Y00000027D01*
X00015851Y00000006D01*
X00015943Y00000000D01*
X00029329Y00000000D01*
X00029421Y00000006D01*
X00029511Y00000027D01*
X00029597Y00000064D01*
X00029676Y00000111D01*
X00029746Y00000171D01*
X00029807Y00000242D01*
X00029855Y00000321D01*
X00029891Y00000407D01*
X00029912Y00000497D01*
X00029919Y00000590D01*
X00029919Y00008861D01*
X00029917Y00008900D01*
X00029908Y00008948D01*
X00029895Y00008991D01*
X00029876Y00009035D01*
X00029852Y00009075D01*
X00029823Y00009113D01*
X00029790Y00009145D01*
X00029754Y00009175D01*
X00029714Y00009200D01*
X00029672Y00009220D01*
X00029544Y00009288D01*
X00029433Y00009382D01*
X00029346Y00009496D01*
X00029285Y00009627D01*
X00029254Y00009769D01*
X00029254Y00009913D01*
X00029285Y00010056D01*
X00029346Y00010186D01*
X00029433Y00010301D01*
X00029544Y00010395D01*
X00029672Y00010463D01*
X00029714Y00010484D01*
X00029754Y00010507D01*
X00029790Y00010537D01*
X00029823Y00010570D01*
X00029852Y00010608D01*
X00029876Y00010649D01*
X00029895Y00010691D01*
X00029908Y00010735D01*
X00029917Y00010783D01*
X00029919Y00010828D01*
X00029919Y00023031D01*
X00029912Y00023123D01*
X00029891Y00023213D01*
X00029855Y00023298D01*
X00029807Y00023377D01*
X00029746Y00023448D01*
X00029676Y00023509D01*
X00029597Y00023557D01*
X00029511Y00023592D01*
X00029421Y00023614D01*
X00029329Y00023622D01*
X00020942Y00023622D01*
X00020911Y00023622D01*
X00020880Y00023626D01*
X00020850Y00023631D01*
X00020820Y00023641D01*
X00020791Y00023652D01*
X00020763Y00023663D01*
X00020736Y00023679D01*
X00020710Y00023697D01*
X00020686Y00023715D01*
X00020663Y00023736D01*
X00020642Y00023759D01*
X00020623Y00023783D01*
X00020606Y00023809D01*
X00020591Y00023836D01*
X00020578Y00023864D01*
X00020567Y00023894D01*
X00020559Y00023922D01*
X00020553Y00023953D01*
X00020549Y00023984D01*
X00020548Y00024014D01*
X00020548Y00025589D01*
X00020549Y00025620D01*
X00020553Y00025651D01*
X00020559Y00025681D01*
X00020567Y00025711D01*
X00020578Y00025740D01*
X00020591Y00025769D01*
X00020606Y00025796D01*
X00020623Y00025821D01*
X00020642Y00025845D01*
X00020663Y00025867D01*
X00020686Y00025888D01*
X00020710Y00025909D01*
X00020736Y00025926D01*
X00020763Y00025940D01*
X00020791Y00025953D01*
X00020820Y00025964D01*
X00020850Y00025972D01*
X00020880Y00025978D01*
X00020911Y00025982D01*
X00020942Y00025983D01*
X00029329Y00025983D01*
X00029421Y00025991D01*
X00029511Y00026013D01*
X00029597Y00026047D01*
X00029676Y00026096D01*
X00029746Y00026156D01*
X00029807Y00026226D01*
X00029855Y00026305D01*
X00029891Y00026392D01*
X00029912Y00026482D01*
X00029919Y00026573D01*
X00029919Y00034845D01*
X00029917Y00034886D01*
X00029908Y00034931D01*
X00029895Y00034977D01*
X00029876Y00035018D01*
X00029852Y00035059D01*
X00029823Y00035096D01*
X00029790Y00035130D01*
X00029754Y00035159D01*
X00029714Y00035184D01*
X00029672Y00035205D01*
X00029544Y00035272D01*
X00029433Y00035366D01*
X00029346Y00035480D01*
X00029285Y00035613D01*
X00029254Y00035754D01*
X00029254Y00035898D01*
X00029285Y00036040D01*
X00029346Y00036170D01*
X00029433Y00036286D01*
X00029544Y00036379D01*
X00029672Y00036447D01*
X00029714Y00036467D01*
X00029754Y00036493D01*
X00029790Y00036521D01*
X00029823Y00036556D01*
X00029852Y00036593D01*
X00029876Y00036633D01*
X00029895Y00036676D01*
X00029908Y00036720D01*
X00029917Y00036767D01*
X00029919Y00036814D01*
X00029919Y00049015D01*
X00029912Y00049108D01*
X00029891Y00049198D01*
X00029855Y00049282D01*
X00029807Y00049361D01*
X00029746Y00049432D01*
X00029676Y00049492D01*
X00029597Y00049540D01*
X00029511Y00049577D01*
X00029421Y00049599D01*
X00029329Y00049605D01*
X00020942Y00049605D01*
X00020911Y00049606D01*
X00020880Y00049611D01*
X00020850Y00049617D01*
X00020820Y00049625D01*
X00020791Y00049635D01*
X00020763Y00049648D01*
X00020736Y00049664D01*
X00020710Y00049680D01*
X00020686Y00049699D01*
X00020663Y00049721D01*
X00020642Y00049744D01*
X00020623Y00049767D01*
X00020606Y00049794D01*
X00020591Y00049821D01*
X00020578Y00049848D01*
X00020567Y00049877D01*
X00020559Y00049907D01*
X00020553Y00049938D01*
X00020549Y00049968D01*
X00020548Y00049998D01*
X00020548Y00051573D01*
X00020549Y00051604D01*
X00020553Y00051636D01*
X00020559Y00051666D01*
X00020567Y00051696D01*
X00020578Y00051724D01*
X00020591Y00051753D01*
X00020606Y00051779D01*
X00020623Y00051805D01*
X00020642Y00051829D01*
X00020663Y00051852D01*
X00020686Y00051874D01*
X00020710Y00051893D01*
X00020736Y00051909D01*
X00020763Y00051924D01*
X00020791Y00051937D01*
X00020820Y00051948D01*
X00020850Y00051956D01*
X00020880Y00051963D01*
X00020911Y00051966D01*
X00020942Y00051967D01*
X00029329Y00051967D01*
X00029421Y00051974D01*
X00029511Y00051996D01*
X00029597Y00052031D01*
X00029676Y00052080D01*
X00029746Y00052141D01*
X00029807Y00052210D01*
X00029855Y00052290D01*
X00029891Y00052375D01*
X00029912Y00052465D01*
X00029919Y00052558D01*
X00029919Y00060829D01*
X00029917Y00060869D01*
X00029908Y00060915D01*
X00029895Y00060960D01*
X00029876Y00061003D01*
X00029852Y00061043D01*
X00029823Y00061080D01*
X00029790Y00061115D01*
X00029754Y00061143D01*
X00029714Y00061169D01*
X00029672Y00061188D01*
X00029544Y00061256D01*
X00029433Y00061349D01*
X00029346Y00061466D01*
X00029285Y00061596D01*
X00029254Y00061737D01*
X00029254Y00061882D01*
X00029285Y00062023D01*
X00029346Y00062155D01*
X00029433Y00062270D01*
X00029544Y00062363D01*
X00029672Y00062432D01*
X00029714Y00062451D01*
X00029754Y00062476D01*
X00029790Y00062506D01*
X00029823Y00062539D01*
X00029852Y00062576D01*
X00029876Y00062617D01*
X00029895Y00062660D01*
X00029908Y00062705D01*
X00029917Y00062751D01*
X00029919Y00062797D01*
X00029919Y00074999D01*
X00029912Y00075091D01*
X00029891Y00075182D01*
X00029855Y00075268D01*
X00029807Y00075346D01*
X00029746Y00075416D01*
X00029676Y00075476D01*
X00029597Y00075526D01*
X00029511Y00075561D01*
X00029421Y00075582D01*
X00029329Y00075589D01*
X00020942Y00075589D01*
X00020911Y00075591D01*
X00020880Y00075594D01*
X00020850Y00075600D01*
X00020820Y00075608D01*
X00020791Y00075619D01*
X00020763Y00075632D01*
X00020736Y00075647D01*
X00020710Y00075664D01*
X00020686Y00075684D01*
X00020663Y00075704D01*
X00020642Y00075728D01*
X00020623Y00075751D01*
X00020606Y00075777D01*
X00020591Y00075804D01*
X00020578Y00075832D01*
X00020567Y00075862D01*
X00020559Y00075892D01*
X00020553Y00075921D01*
X00020549Y00075953D01*
X00020548Y00075983D01*
X00020548Y00077559D01*
X00020549Y00077589D01*
X00020553Y00077620D01*
X00020559Y00077650D01*
X00020567Y00077680D01*
X00020578Y00077708D01*
X00020591Y00077737D01*
X00020606Y00077763D01*
X00020623Y00077789D01*
X00020642Y00077813D01*
X00020663Y00077836D01*
X00020686Y00077858D01*
X00020710Y00077877D01*
X00020736Y00077893D01*
X00020763Y00077908D01*
X00020791Y00077921D01*
X00020820Y00077932D01*
X00020850Y00077940D01*
X00020880Y00077947D01*
X00020911Y00077950D01*
X00020942Y00077951D01*
X00029329Y00077951D01*
X00029421Y00077960D01*
X00029511Y00077980D01*
X00029597Y00078016D01*
X00029676Y00078064D01*
X00029746Y00078125D01*
X00029807Y00078196D01*
X00029855Y00078274D01*
X00029891Y00078359D01*
X00029912Y00078450D01*
X00029919Y00078543D01*
X00029919Y00086813D01*
X00029917Y00086854D01*
X00029908Y00086899D01*
X00029895Y00086945D01*
X00029876Y00086988D01*
X00029852Y00087027D01*
X00029823Y00087064D01*
X00029790Y00087098D01*
X00029754Y00087127D01*
X00029714Y00087152D01*
X00029672Y00087172D01*
X00029544Y00087240D01*
X00029433Y00087335D01*
X00029346Y00087450D01*
X00029285Y00087580D01*
X00029254Y00087721D01*
X00029254Y00087866D01*
X00029285Y00088007D01*
X00029346Y00088139D01*
X00029433Y00088254D01*
X00029544Y00088349D01*
X00029672Y00088416D01*
X00029714Y00088436D01*
X00029754Y00088460D01*
X00029790Y00088490D01*
X00029823Y00088524D01*
X00029852Y00088560D01*
X00029876Y00088602D01*
X00029895Y00088644D01*
X00029908Y00088689D01*
X00029917Y00088735D01*
X00029919Y00088782D01*
X00029919Y00100983D01*
X00029912Y00101075D01*
X00029891Y00101165D01*
X00029855Y00101252D01*
X00029807Y00101330D01*
X00029746Y00101400D01*
X00029676Y00101461D01*
X00029597Y00101509D01*
X00029511Y00101544D01*
X00029421Y00101567D01*
X00029329Y00101573D01*
X00015943Y00101573D01*
X00015851Y00101567D01*
X00015761Y00101544D01*
X00015675Y00101509D01*
X00015596Y00101461D01*
X00015525Y00101400D01*
X00015465Y00101330D01*
X00015417Y00101252D01*
X00015381Y00101165D01*
X00015360Y00101075D01*
X00015353Y00100983D01*
X00015353Y00088782D01*
X00015355Y00088735D01*
X00015364Y00088689D01*
X00015377Y00088644D01*
X00015396Y00088602D01*
X00015420Y00088560D01*
X00015449Y00088524D01*
X00015482Y00088490D01*
X00015518Y00088460D01*
X00015558Y00088436D01*
X00015600Y00088416D01*
X00015728Y00088349D01*
X00015838Y00088254D01*
X00015926Y00088139D01*
X00015987Y00088007D01*
X00016018Y00087866D01*
X00016018Y00087721D01*
X00015987Y00087580D01*
X00015926Y00087450D01*
X00015838Y00087335D01*
X00015728Y00087240D01*
X00015600Y00087172D01*
X00015558Y00087152D01*
X00015518Y00087127D01*
X00015482Y00087098D01*
X00015449Y00087064D01*
X00015420Y00087027D01*
X00015396Y00086988D01*
X00015377Y00086945D01*
X00015364Y00086899D01*
X00015355Y00086854D01*
X00015353Y00086806D01*
X00015353Y00081035D01*
X00015353Y00081035D01*
X00015353Y00081034D01*
X00015353Y00081034D01*
X00015353Y00081034D01*
X00015353Y00081034D01*
X00015353Y00081034D01*
X00015353Y00081034D01*
X00015353Y00081034D01*
X00015353Y00081034D01*
X00015353Y00081034D01*
X00015353Y00081034D01*
X00015353Y00081034D01*
X00015353Y00081033D01*
X00015353Y00081033D01*
X00015353Y00081033D01*
X00015353Y00081033D01*
X00015353Y00081033D01*
X00015353Y00081033D01*
X00015353Y00081033D01*
X00015353Y00081033D01*
X00015353Y00081032D01*
X00015348Y00080971D01*
X00015333Y00080911D01*
X00015309Y00080854D01*
X00015277Y00080801D01*
X00015237Y00080755D01*
X00015190Y00080715D01*
X00015137Y00080683D01*
X00015080Y00080659D01*
X00015020Y00080645D01*
X00014958Y00080640D01*
X00014897Y00080645D01*
X00014837Y00080660D01*
X00014780Y00080683D01*
X00014727Y00080716D01*
X00014680Y00080756D01*
X00014640Y00080803D01*
X00014608Y00080855D01*
X00014585Y00080912D01*
X00014570Y00080972D01*
X00014565Y00081034D01*
X00014565Y00086813D01*
X00014563Y00086854D01*
X00014554Y00086899D01*
X00014541Y00086945D01*
X00014522Y00086988D01*
X00014498Y00087027D01*
X00014469Y00087064D01*
X00014436Y00087098D01*
X00014400Y00087127D01*
X00014361Y00087152D01*
X00014318Y00087172D01*
X00014190Y00087240D01*
X00014079Y00087335D01*
X00013993Y00087450D01*
X00013931Y00087580D01*
X00013900Y00087721D01*
X00013900Y00087866D01*
X00013931Y00088007D01*
X00013993Y00088139D01*
X00014079Y00088254D01*
X00014190Y00088349D01*
X00014318Y00088416D01*
X00014361Y00088436D01*
X00014400Y00088460D01*
X00014436Y00088490D01*
X00014469Y00088524D01*
X00014498Y00088560D01*
X00014522Y00088602D01*
X00014541Y00088644D01*
X00014554Y00088689D01*
X00014563Y00088735D01*
X00014565Y00088782D01*
X00014565Y00100983D01*
X00014558Y00101075D01*
X00014537Y00101165D01*
X00014501Y00101252D01*
X00014453Y00101330D01*
X00014392Y00101400D01*
X00014322Y00101461D01*
X00014243Y00101509D01*
X00014157Y00101544D01*
X00014067Y00101567D01*
X00013975Y00101573D01*
X00000590Y00101573D01*
X00000497Y00101567D01*
X00000407Y00101544D01*
X00000321Y00101509D01*
X00000242Y00101461D01*
X00000171Y00101400D01*
X00000111Y00101330D01*
X00000064Y00101252D01*
X00000027Y00101165D01*
X00000006Y00101075D01*
X00000000Y00100983D01*
X00000000Y00088782D01*
X00000002Y00088735D01*
X00000010Y00088689D01*
X00000023Y00088644D01*
X00000042Y00088602D01*
X00000066Y00088560D01*
X00000095Y00088524D01*
X00000128Y00088490D01*
X00000164Y00088460D01*
X00000204Y00088436D01*
X00000246Y00088416D01*
X00000374Y00088349D01*
X00000484Y00088254D01*
X00000573Y00088139D01*
X00000633Y00088007D01*
X00000665Y00087866D01*
X00000665Y00087721D01*
X00000633Y00087580D01*
X00000573Y00087450D01*
X00000484Y00087335D01*
X00000374Y00087240D01*
X00000246Y00087172D01*
X00000204Y00087152D01*
X00000164Y00087127D01*
X00000128Y00087098D01*
X00000095Y00087064D01*
X00000066Y00087027D01*
X00000042Y00086988D01*
X00000023Y00086945D01*
X00000010Y00086899D01*
X00000002Y00086854D01*
X00000000Y00086806D01*
X00000000Y00078543D01*
X00000006Y00078450D01*
X00000027Y00078359D01*
X00000064Y00078274D01*
X00000111Y00078196D01*
X00000171Y00078125D01*
X00000242Y00078064D01*
X00000321Y00078016D01*
X00000407Y00077980D01*
X00000497Y00077960D01*
X00000590Y00077951D01*
X00001497Y00077951D01*
X00001527Y00077950D01*
X00001559Y00077947D01*
X00001588Y00077940D01*
X00001618Y00077932D01*
X00001647Y00077921D01*
X00001676Y00077908D01*
X00001703Y00077893D01*
X00001728Y00077877D01*
X00001753Y00077858D01*
X00001775Y00077836D01*
X00001796Y00077813D01*
X00001815Y00077789D01*
X00001832Y00077763D01*
X00001847Y00077737D01*
X00001860Y00077708D01*
X00001871Y00077680D01*
X00001879Y00077650D01*
X00001885Y00077620D01*
X00001890Y00077589D01*
X00001890Y00077559D01*
X00001890Y00075983D01*
X00001890Y00075953D01*
X00001885Y00075921D01*
X00001879Y00075892D01*
X00001871Y00075862D01*
X00001860Y00075832D01*
X00001847Y00075804D01*
X00001832Y00075777D01*
X00001815Y00075751D01*
X00001796Y00075728D01*
X00001775Y00075704D01*
X00001753Y00075684D01*
X00001728Y00075664D01*
X00001703Y00075647D01*
X00001676Y00075632D01*
X00001647Y00075619D01*
X00001618Y00075608D01*
X00001588Y00075600D01*
X00001559Y00075594D01*
X00001527Y00075591D01*
X00001497Y00075589D01*
X00000590Y00075589D01*
X00000497Y00075582D01*
X00000407Y00075561D01*
X00000321Y00075526D01*
X00000242Y00075476D01*
X00000171Y00075416D01*
X00000111Y00075346D01*
X00000064Y00075268D01*
X00000027Y00075182D01*
X00000006Y00075091D01*
X00000000Y00074999D01*
X00000000Y00062797D01*
X00000002Y00062751D01*
X00000010Y00062705D01*
X00000023Y00062660D01*
X00000042Y00062617D01*
X00000066Y00062576D01*
X00000095Y00062539D01*
X00000128Y00062506D01*
X00000164Y00062476D01*
X00000204Y00062451D01*
X00000246Y00062432D01*
X00000374Y00062363D01*
X00000484Y00062270D01*
X00000573Y00062155D01*
X00000633Y00062023D01*
X00000665Y00061882D01*
X00000665Y00061737D01*
X00000633Y00061596D01*
X00000573Y00061466D01*
X00000484Y00061349D01*
X00000374Y00061256D01*
X00000246Y00061188D01*
X00000204Y00061169D01*
X00000164Y00061143D01*
X00000128Y00061115D01*
X00000095Y00061080D01*
X00000066Y00061043D01*
X00000042Y00061003D01*
X00000023Y00060960D01*
X00000010Y00060915D01*
X00000002Y00060869D01*
X00000000Y00060822D01*
X00000000Y00052558D01*
X00000006Y00052465D01*
X00000027Y00052375D01*
X00000064Y00052290D01*
X00000111Y00052210D01*
X00000171Y00052141D01*
X00000242Y00052080D01*
X00000321Y00052031D01*
X00000407Y00051996D01*
X00000497Y00051974D01*
X00000590Y00051967D01*
X00001497Y00051967D01*
X00001527Y00051966D01*
X00001559Y00051963D01*
X00001588Y00051956D01*
X00001618Y00051948D01*
X00001647Y00051937D01*
X00001676Y00051924D01*
X00001703Y00051909D01*
X00001728Y00051893D01*
X00001753Y00051874D01*
X00001775Y00051852D01*
X00001796Y00051829D01*
X00001815Y00051805D01*
X00001832Y00051779D01*
X00001847Y00051753D01*
X00001860Y00051724D01*
X00001871Y00051696D01*
X00001879Y00051666D01*
X00001885Y00051636D01*
X00001890Y00051604D01*
X00001890Y00051573D01*
X00001890Y00049998D01*
X00001890Y00049968D01*
X00001885Y00049938D01*
X00001879Y00049907D01*
X00001871Y00049877D01*
X00001860Y00049848D01*
X00001847Y00049821D01*
X00001832Y00049794D01*
X00001815Y00049767D01*
X00001796Y00049744D01*
X00001775Y00049721D01*
X00001753Y00049699D01*
X00001728Y00049680D01*
X00001703Y00049664D01*
X00001676Y00049648D01*
X00001647Y00049635D01*
X00001618Y00049625D01*
X00001588Y00049617D01*
X00001559Y00049611D01*
X00001527Y00049606D01*
X00001497Y00049605D01*
X00000590Y00049605D01*
X00000497Y00049599D01*
X00000407Y00049577D01*
X00000321Y00049540D01*
X00000242Y00049492D01*
X00000171Y00049432D01*
X00000111Y00049361D01*
X00000064Y00049282D01*
X00000027Y00049198D01*
X00000006Y00049108D01*
X00000000Y00049015D01*
X00000000Y00036814D01*
X00000002Y00036767D01*
X00000010Y00036720D01*
X00000023Y00036676D01*
X00000042Y00036633D01*
X00000066Y00036593D01*
X00000095Y00036556D01*
X00000128Y00036521D01*
X00000164Y00036493D01*
X00000204Y00036467D01*
X00000246Y00036447D01*
X00000374Y00036379D01*
X00000484Y00036286D01*
X00000573Y00036170D01*
X00000633Y00036040D01*
X00000665Y00035898D01*
X00000665Y00035754D01*
X00000633Y00035613D01*
X00000573Y00035480D01*
X00000484Y00035366D01*
X00000374Y00035272D01*
X00000246Y00035205D01*
X00000204Y00035184D01*
X00000164Y00035159D01*
X00000128Y00035130D01*
X00000095Y00035096D01*
X00000066Y00035059D01*
X00000042Y00035018D01*
X00000023Y00034977D01*
X00000010Y00034931D01*
X00000002Y00034886D01*
X00000000Y00034838D01*
X00000000Y00026573D01*
X00000006Y00026482D01*
X00000027Y00026392D01*
X00000064Y00026305D01*
X00000111Y00026226D01*
X00000171Y00026156D01*
X00000242Y00026096D01*
X00000321Y00026047D01*
X00000407Y00026013D01*
X00000497Y00025991D01*
X00000590Y00025983D01*
X00001497Y00025983D01*
X00001527Y00025982D01*
X00001559Y00025978D01*
X00001588Y00025972D01*
X00001618Y00025964D01*
X00001647Y00025953D01*
X00001676Y00025940D01*
X00001703Y00025926D01*
X00001728Y00025909D01*
X00001753Y00025888D01*
X00001775Y00025867D01*
X00001796Y00025845D01*
X00001815Y00025821D01*
X00001832Y00025796D01*
X00001847Y00025769D01*
X00001860Y00025740D01*
X00001871Y00025711D01*
X00001879Y00025681D01*
X00001885Y00025651D01*
X00001890Y00025620D01*
X00001890Y00025589D01*
X00001890Y00024014D01*
X00001890Y00023984D01*
X00001885Y00023953D01*
X00001879Y00023922D01*
X00001871Y00023894D01*
X00001860Y00023864D01*
X00001847Y00023836D01*
X00001832Y00023809D01*
X00001815Y00023783D01*
X00001796Y00023759D01*
X00001775Y00023736D01*
X00001753Y00023715D01*
X00001728Y00023697D01*
X00001703Y00023679D01*
X00001676Y00023663D01*
X00001647Y00023652D01*
X00001618Y00023641D01*
X00001588Y00023631D01*
X00001559Y00023626D01*
X00001527Y00023622D01*
X00001497Y00023622D01*
X00000590Y00023622D01*
X00000497Y00023614D01*
X00000407Y00023592D01*
X00000321Y00023557D01*
X00000242Y00023509D01*
X00000171Y00023448D01*
X00000111Y00023377D01*
X00000064Y00023298D01*
X00000027Y00023213D01*
X00000006Y00023123D01*
X00000000Y00023031D01*
X00000000Y00010828D01*
X00000002Y00010783D01*
X00000010Y00010735D01*
X00000023Y00010691D01*
X00000042Y00010649D01*
X00000066Y00010608D01*
X00000095Y00010570D01*
X00000128Y00010537D01*
X00000164Y00010507D01*
X00000204Y00010484D01*
X00000246Y00010463D01*
X00000374Y00010395D01*
X00000484Y00010301D01*
X00000573Y00010186D01*
X00000633Y00010056D01*
X00000665Y00009913D01*
X00000665Y00009769D01*
X00000633Y00009627D01*
X00000573Y00009496D01*
X00000484Y00009382D01*
X00000374Y00009288D01*
X00000246Y00009220D01*
X00000204Y00009200D01*
X00000164Y00009175D01*
X00000128Y00009145D01*
X00000095Y00009113D01*
X00000066Y00009075D01*
X00000042Y00009035D01*
X00000023Y00008991D01*
X00000010Y00008948D01*
X00000002Y00008900D01*
X00000000Y00008854D01*
X00000000Y00000590D01*
X00000006Y00000497D01*
X00000027Y00000407D01*
X00000064Y00000321D01*
X00000111Y00000242D01*
X00000171Y00000171D01*
X00000242Y00000111D01*
X00000321Y00000064D01*
X00000407Y00000027D01*
X00000497Y00000006D01*
X00000590Y00000000D01*
X00013975Y00000000D01*
M02*