M48
; DRILL file {KiCad (5.1.5-0-10_14)} date 2020 January 03, Friday 16:59:39
; FORMAT={-:-/ absolute / inch / decimal}
; #@! TF.CreationDate,2020-01-03T16:59:39+02:00
; #@! TF.GenerationSoftware,Kicad,Pcbnew,(5.1.5-0-10_14)
; #@! TF.FileFunction,NonPlated,1,2,NPTH
FMAT,2
INCH
T1C0.0276
T2C0.0390
%
G90
G05
T1
X0.0354Y6.378
X0.1063Y6.378
X4.4055Y8.9764
X4.4764Y8.9764
X4.4055Y6.378
X4.4764Y6.378
X2.9488Y6.378
X3.0197Y6.378
X10.2323Y3.7795
X10.3031Y3.7795
X7.3189Y1.1811
X7.3898Y1.1811
X1.4921Y8.9764
X1.563Y8.9764
X2.9488Y3.7795
X3.0197Y3.7795
X10.2323Y8.9764
X10.3031Y8.9764
X1.4921Y6.378
X1.563Y6.378
X0.0354Y3.7795
X0.1063Y3.7795
X4.4055Y1.1811
X4.4764Y1.1811
X8.7756Y1.1811
X8.8465Y1.1811
X1.4921Y1.1811
X1.563Y1.1811
X10.2323Y1.1811
X10.3031Y1.1811
X4.4055Y3.7795
X4.4764Y3.7795
X7.3189Y3.7795
X7.3898Y3.7795
X1.4921Y3.7795
X1.563Y3.7795
X10.2323Y6.378
X10.3031Y6.378
X0.0354Y1.1811
X0.1063Y1.1811
X8.7756Y3.7795
X8.8465Y3.7795
X5.8622Y1.1811
X5.9331Y1.1811
X0.0354Y8.9764
X0.1063Y8.9764
X2.9488Y1.1811
X3.0197Y1.1811
X8.7756Y8.9764
X8.8465Y8.9764
X5.8622Y6.378
X5.9331Y6.378
X8.7756Y6.378
X8.8465Y6.378
X7.3189Y8.9764
X7.3898Y8.9764
X7.3189Y6.378
X7.3898Y6.378
X5.8622Y3.7795
X5.9331Y3.7795
X2.9488Y8.9764
X3.0197Y8.9764
X5.8622Y8.9764
X5.9331Y8.9764
T2
X9.3303Y6.277
X9.5303Y6.317
X9.5303Y6.237
X7.8736Y8.8754
X8.0736Y8.9154
X8.0736Y8.8354
X9.3303Y3.6785
X9.5303Y3.7185
X9.5303Y3.6385
X10.787Y8.8754
X10.987Y8.9154
X10.987Y8.8354
X7.8736Y6.277
X8.0736Y6.317
X8.0736Y6.237
X3.5035Y3.6785
X3.7035Y3.7185
X3.7035Y3.6385
X2.0469Y3.6785
X2.2469Y3.7185
X2.2469Y3.6385
X6.4169Y3.6785
X6.6169Y3.7185
X6.6169Y3.6385
X6.4169Y1.0801
X6.6169Y1.1201
X6.6169Y1.0401
X7.8736Y1.0801
X8.0736Y1.1201
X8.0736Y1.0401
X0.5902Y6.277
X0.7902Y6.317
X0.7902Y6.237
X4.9602Y1.0801
X5.1602Y1.1201
X5.1602Y1.0401
X10.787Y1.0801
X10.987Y1.1201
X10.987Y1.0401
X4.9602Y8.8754
X5.1602Y8.9154
X5.1602Y8.8354
X9.3303Y8.8754
X9.5303Y8.9154
X9.5303Y8.8354
X2.0469Y8.8754
X2.2469Y8.9154
X2.2469Y8.8354
X6.4169Y8.8754
X6.6169Y8.9154
X6.6169Y8.8354
X6.4169Y6.277
X6.6169Y6.317
X6.6169Y6.237
X10.787Y6.277
X10.987Y6.317
X10.987Y6.237
X0.5902Y1.0801
X0.7902Y1.1201
X0.7902Y1.0401
X10.787Y3.6785
X10.987Y3.7185
X10.987Y3.6385
X4.9602Y3.6785
X5.1602Y3.7185
X5.1602Y3.6385
X4.9602Y6.277
X5.1602Y6.317
X5.1602Y6.237
X0.5902Y8.8754
X0.7902Y8.9154
X0.7902Y8.8354
X7.8736Y3.6785
X8.0736Y3.7185
X8.0736Y3.6385
X3.5035Y1.0801
X3.7035Y1.1201
X3.7035Y1.0401
X0.5902Y3.6785
X0.7902Y3.7185
X0.7902Y3.6385
X3.5035Y6.277
X3.7035Y6.317
X3.7035Y6.237
X2.0469Y1.0801
X2.2469Y1.1201
X2.2469Y1.0401
X9.3303Y1.0801
X9.5303Y1.1201
X9.5303Y1.0401
X3.5035Y8.8754
X3.7035Y8.9154
X3.7035Y8.8354
X2.0469Y6.277
X2.2469Y6.317
X2.2469Y6.237
T0
M30
