M48
; DRILL file {KiCad (5.1.5-0-10_14)} date 2020 January 03, Friday 16:59:39
; FORMAT={-:-/ absolute / inch / decimal}
; #@! TF.CreationDate,2020-01-03T16:59:39+02:00
; #@! TF.GenerationSoftware,Kicad,Pcbnew,(5.1.5-0-10_14)
; #@! TF.FileFunction,Plated,1,2,PTH
FMAT,2
INCH
T1C0.0118
T2C0.0157
T3C0.0197
T4C0.0236
T5C0.0295
T6C0.0300
T7C0.0315
T8C0.0335
T9C0.0394
T10C0.1260
%
G90
G05
T1
X0.0531Y9.189
X0.0531Y6.5906
X0.0531Y3.9921
X0.0531Y1.3937
X0.0549Y8.6454
X0.0549Y6.047
X0.0549Y3.4486
X0.0549Y0.8501
X0.0669Y10.0118
X0.0669Y7.4134
X0.0669Y4.815
X0.0669Y2.2165
X0.1102Y9.248
X0.1102Y6.6496
X0.1102Y4.0512
X0.1102Y1.4528
X0.122Y9.5472
X0.122Y6.9488
X0.122Y4.3504
X0.122Y1.752
X0.126Y8.8268
X0.126Y6.2283
X0.126Y3.6299
X0.126Y1.0315
X0.1595Y9.7216
X0.1595Y7.1232
X0.1595Y4.5247
X0.1595Y1.9263
X0.1732Y9.0669
X0.1732Y6.4685
X0.1732Y3.8701
X0.1732Y1.2717
X0.189Y8.8976
X0.189Y6.2992
X0.189Y3.7008
X0.189Y1.1024
X0.2283Y9.7244
X0.2283Y7.126
X0.2283Y4.5276
X0.2283Y1.9291
X0.2457Y8.2313
X0.2457Y5.6328
X0.2457Y3.0344
X0.2457Y0.436
X0.2756Y8.7874
X0.2756Y8.7559
X0.2756Y6.189
X0.2756Y6.1575
X0.2756Y3.5906
X0.2756Y3.5591
X0.2756Y0.9921
X0.2756Y0.9606
X0.32Y8.8532
X0.32Y6.2548
X0.32Y3.6564
X0.32Y1.058
X0.3209Y9.3626
X0.3209Y6.7642
X0.3209Y4.1657
X0.3209Y1.5673
X0.3583Y10.1102
X0.3583Y7.5118
X0.3583Y4.9134
X0.3583Y2.315
X0.3937Y9.3819
X0.3937Y6.7835
X0.3937Y4.185
X0.3937Y1.5866
X0.4259Y8.7428
X0.4259Y6.1444
X0.4259Y3.546
X0.4259Y0.9475
X0.4274Y8.7743
X0.4274Y6.1759
X0.4274Y3.5774
X0.4274Y0.979
X0.4528Y8.0945
X0.4528Y5.4961
X0.4528Y2.8976
X0.4528Y0.2992
X0.4724Y8.8268
X0.4724Y6.2283
X0.4724Y3.6299
X0.4724Y1.0315
X0.5039Y9.7165
X0.5039Y7.1181
X0.5039Y4.5197
X0.5039Y1.9213
X0.5118Y9.1535
X0.5118Y6.5551
X0.5118Y3.9567
X0.5118Y1.3583
X0.5197Y8.7244
X0.5197Y6.126
X0.5197Y3.5276
X0.5197Y0.9291
X0.563Y9.7362
X0.563Y7.1378
X0.563Y4.5394
X0.563Y1.9409
X0.6142Y8.9921
X0.6142Y6.3937
X0.6142Y3.7953
X0.6142Y1.1969
X0.6293Y9.5057
X0.6293Y6.9073
X0.6293Y4.3088
X0.6293Y1.7104
X0.6378Y9.2559
X0.6378Y6.6575
X0.6378Y4.0591
X0.6378Y1.4606
X0.6381Y9.43
X0.6381Y6.8316
X0.6381Y4.2332
X0.6381Y1.6347
X0.6575Y9.5197
X0.6575Y6.9213
X0.6575Y4.3228
X0.6575Y1.7244
X0.6732Y8.3701
X0.6732Y5.7717
X0.6732Y3.1732
X0.6732Y0.5748
X0.6805Y9.4557
X0.6805Y6.8573
X0.6805Y4.2589
X0.6805Y1.6604
X0.6811Y9.0748
X0.6811Y6.4764
X0.6811Y3.878
X0.6811Y1.2795
X0.685Y9.0276
X0.685Y6.4291
X0.685Y3.8307
X0.685Y1.2323
X0.6929Y8.8169
X0.6929Y6.2185
X0.6929Y3.6201
X0.6929Y1.0217
X0.6942Y9.4841
X0.6942Y6.8856
X0.6942Y4.2872
X0.6942Y1.6888
X0.7106Y9.2461
X0.7106Y6.6476
X0.7106Y4.0492
X0.7106Y1.4508
X0.7283Y9.0945
X0.7283Y6.4961
X0.7283Y3.8976
X0.7283Y1.2992
X0.7365Y9.2281
X0.7365Y6.6297
X0.7365Y4.0313
X0.7365Y1.4329
X0.7431Y9.4321
X0.7431Y6.8337
X0.7431Y4.2352
X0.7431Y1.6368
X0.748Y8.8189
X0.748Y6.2205
X0.748Y3.622
X0.748Y1.0236
X0.7567Y9.4617
X0.7567Y6.8633
X0.7567Y4.2649
X0.7567Y1.6665
X0.7581Y9.4935
X0.7581Y6.8951
X0.7581Y4.2966
X0.7581Y1.6982
X0.762Y9.2936
X0.762Y6.6952
X0.762Y4.0967
X0.762Y1.4983
X0.7677Y9.6654
X0.7677Y7.0669
X0.7677Y4.4685
X0.7677Y1.8701
X0.7726Y9.7372
X0.7726Y7.1388
X0.7726Y4.5403
X0.7726Y1.9419
X0.7756Y9.5197
X0.7756Y6.9213
X0.7756Y4.3228
X0.7756Y1.7244
X0.7779Y9.3208
X0.7779Y6.7224
X0.7779Y4.124
X0.7779Y1.5255
X0.7795Y9.8031
X0.7795Y7.2047
X0.7795Y4.6063
X0.7795Y2.0079
X0.7914Y9.4449
X0.7914Y6.8464
X0.7914Y4.248
X0.7914Y1.6496
X0.8002Y9.7765
X0.8002Y7.1781
X0.8002Y4.5797
X0.8002Y1.9813
X0.8092Y9.2952
X0.8092Y6.6967
X0.8092Y4.0983
X0.8092Y1.4999
X0.8268Y9.8056
X0.8268Y7.2071
X0.8268Y4.6087
X0.8268Y2.0103
X0.8334Y9.7494
X0.8334Y7.151
X0.8334Y4.5525
X0.8334Y1.9541
X0.8425Y8.8976
X0.8425Y6.2992
X0.8425Y3.7008
X0.8425Y1.1024
X0.8511Y9.0886
X0.8511Y6.4902
X0.8511Y3.8917
X0.8511Y1.2933
X0.8653Y8.727
X0.8653Y6.1285
X0.8653Y3.5301
X0.8653Y0.9317
X0.874Y8.8898
X0.874Y6.2913
X0.874Y3.6929
X0.874Y1.0945
X0.8898Y8.8155
X0.8898Y6.2171
X0.8898Y3.6187
X0.8898Y1.0203
X0.897Y9.7629
X0.897Y7.1644
X0.897Y4.566
X0.897Y1.9676
X0.8976Y9.685
X0.8976Y7.0866
X0.8976Y4.4882
X0.8976Y1.8898
X0.9036Y8.757
X0.9036Y6.1586
X0.9036Y3.5602
X0.9036Y0.9618
X0.9142Y9.1587
X0.9142Y6.5603
X0.9142Y3.9619
X0.9142Y1.3635
X0.9252Y8.6496
X0.9252Y6.0512
X0.9252Y3.4528
X0.9252Y0.8543
X0.9331Y9.185
X0.9331Y6.5866
X0.9331Y3.9882
X0.9331Y1.3898
X0.936Y9.4596
X0.936Y6.8612
X0.936Y4.2628
X0.936Y1.6643
X0.9443Y9.1496
X0.9443Y6.5512
X0.9443Y3.9528
X0.9443Y1.3543
X0.9546Y8.731
X0.9546Y6.1326
X0.9546Y3.5341
X0.9546Y0.9357
X0.9724Y8.6772
X0.9724Y6.0787
X0.9724Y3.4803
X0.9724Y0.8819
X0.9845Y8.9801
X0.9845Y6.3816
X0.9845Y3.7832
X0.9845Y1.1848
X0.985Y9.1846
X0.985Y6.5861
X0.985Y3.9877
X0.985Y1.3893
X0.987Y8.7331
X0.987Y6.1347
X0.987Y3.5362
X0.987Y0.9378
X0.9921Y9.7717
X0.9921Y7.1732
X0.9921Y4.5748
X0.9921Y1.9764
X1.0073Y9.1623
X1.0073Y6.5639
X1.0073Y3.9654
X1.0073Y1.367
X1.019Y9.5748
X1.019Y6.9764
X1.019Y4.378
X1.019Y1.7795
X1.0326Y9.1177
X1.0326Y6.5193
X1.0326Y3.9209
X1.0326Y1.3224
X1.0354Y9.9685
X1.0354Y9.874
X1.0354Y7.3701
X1.0354Y7.2756
X1.0354Y4.7717
X1.0354Y4.6772
X1.0354Y2.1732
X1.0354Y2.0787
X1.0467Y9.5597
X1.0467Y6.9613
X1.0467Y4.3629
X1.0467Y1.7644
X1.0551Y8.7402
X1.0551Y6.1417
X1.0551Y3.5433
X1.0551Y0.9449
X1.0669Y8.3228
X1.0669Y5.7244
X1.0669Y3.126
X1.0669Y0.5276
X1.0689Y9.5374
X1.0689Y6.939
X1.0689Y4.3406
X1.0689Y1.7422
X1.0945Y9.1417
X1.0945Y6.5433
X1.0945Y3.9449
X1.0945Y1.3465
X1.0965Y9.7874
X1.0965Y7.189
X1.0965Y4.5906
X1.0965Y1.9921
X1.1198Y9.251
X1.1198Y6.6526
X1.1198Y4.0542
X1.1198Y1.4557
X1.1274Y9.2816
X1.1274Y6.6832
X1.1274Y4.0847
X1.1274Y1.4863
X1.1378Y8.8189
X1.1378Y6.2205
X1.1378Y3.622
X1.1378Y1.0236
X1.1378Y8.937
X1.1378Y6.3386
X1.1378Y3.7402
X1.1378Y1.1417
X1.1471Y9.7885
X1.1471Y7.1901
X1.1471Y4.5916
X1.1471Y1.9932
X1.1654Y9.9685
X1.1654Y7.3701
X1.1654Y4.7717
X1.1654Y2.1732
X1.1686Y9.0399
X1.1686Y6.4415
X1.1686Y3.843
X1.1686Y1.2446
X1.1707Y8.9528
X1.1707Y6.3543
X1.1707Y3.7559
X1.1707Y1.1575
X1.1713Y9.8661
X1.1713Y7.2677
X1.1713Y4.6693
X1.1713Y2.0709
X1.187Y9.0098
X1.187Y6.4114
X1.187Y3.8129
X1.187Y1.2145
X1.2165Y9.7677
X1.2165Y7.1693
X1.2165Y4.5709
X1.2165Y1.9724
X1.2244Y9.063
X1.2244Y6.4646
X1.2244Y3.8661
X1.2244Y1.2677
X1.248Y8.8346
X1.248Y6.2362
X1.248Y3.6378
X1.248Y1.0394
X1.2953Y9.622
X1.2953Y7.0236
X1.2953Y4.4252
X1.2953Y1.8268
X1.2983Y9.7148
X1.2983Y7.1164
X1.2983Y4.518
X1.2983Y1.9196
X1.311Y9.2205
X1.311Y6.622
X1.311Y4.0236
X1.311Y1.4252
X1.3131Y9.9931
X1.3131Y7.3946
X1.3131Y4.7962
X1.3131Y2.1978
X1.3386Y8.5236
X1.3386Y5.9252
X1.3386Y3.3268
X1.3386Y0.7283
X1.3543Y9.6142
X1.3543Y7.0157
X1.3543Y4.4173
X1.3543Y1.8189
X1.3819Y10.1099
X1.3819Y7.5115
X1.3819Y4.9131
X1.3819Y2.3146
X1.3858Y9.4764
X1.3858Y6.878
X1.3858Y4.2795
X1.3858Y1.6811
X1.3902Y10.0374
X1.3902Y7.439
X1.3902Y4.8406
X1.3902Y2.2421
X1.4016Y8.7008
X1.4016Y6.1024
X1.4016Y3.5039
X1.4016Y0.9055
X1.4075Y8.876
X1.4075Y6.2776
X1.4075Y3.6791
X1.4075Y1.0807
X1.4331Y9.1535
X1.4331Y6.5551
X1.4331Y3.9567
X1.4331Y1.3583
X1.5098Y9.189
X1.5098Y6.5906
X1.5098Y3.9921
X1.5098Y1.3937
X1.5116Y8.6454
X1.5116Y6.047
X1.5116Y3.4486
X1.5116Y0.8501
X1.5236Y10.0118
X1.5236Y7.4134
X1.5236Y4.815
X1.5236Y2.2165
X1.5669Y9.248
X1.5669Y6.6496
X1.5669Y4.0512
X1.5669Y1.4528
X1.5787Y9.5472
X1.5787Y6.9488
X1.5787Y4.3504
X1.5787Y1.752
X1.5827Y8.8268
X1.5827Y6.2283
X1.5827Y3.6299
X1.5827Y1.0315
X1.6161Y9.7216
X1.6161Y7.1232
X1.6161Y4.5247
X1.6161Y1.9263
X1.6299Y9.0669
X1.6299Y6.4685
X1.6299Y3.8701
X1.6299Y1.2717
X1.6457Y8.8976
X1.6457Y6.2992
X1.6457Y3.7008
X1.6457Y1.1024
X1.685Y9.7244
X1.685Y7.126
X1.685Y4.5276
X1.685Y1.9291
X1.7024Y8.2313
X1.7024Y5.6328
X1.7024Y3.0344
X1.7024Y0.436
X1.7323Y8.7874
X1.7323Y8.7559
X1.7323Y6.189
X1.7323Y6.1575
X1.7323Y3.5906
X1.7323Y3.5591
X1.7323Y0.9921
X1.7323Y0.9606
X1.7767Y8.8532
X1.7767Y6.2548
X1.7767Y3.6564
X1.7767Y1.058
X1.7776Y9.3626
X1.7776Y6.7642
X1.7776Y4.1657
X1.7776Y1.5673
X1.815Y10.1102
X1.815Y7.5118
X1.815Y4.9134
X1.815Y2.315
X1.8504Y9.3819
X1.8504Y6.7835
X1.8504Y4.185
X1.8504Y1.5866
X1.8826Y8.7428
X1.8826Y6.1444
X1.8826Y3.546
X1.8826Y0.9475
X1.8841Y8.7743
X1.8841Y6.1759
X1.8841Y3.5774
X1.8841Y0.979
X1.9094Y8.0945
X1.9094Y5.4961
X1.9094Y2.8976
X1.9094Y0.2992
X1.9291Y8.8268
X1.9291Y6.2283
X1.9291Y3.6299
X1.9291Y1.0315
X1.9606Y9.7165
X1.9606Y7.1181
X1.9606Y4.5197
X1.9606Y1.9213
X1.9685Y9.1535
X1.9685Y6.5551
X1.9685Y3.9567
X1.9685Y1.3583
X1.9764Y8.7244
X1.9764Y6.126
X1.9764Y3.5276
X1.9764Y0.9291
X2.0197Y9.7362
X2.0197Y7.1378
X2.0197Y4.5394
X2.0197Y1.9409
X2.0709Y8.9921
X2.0709Y6.3937
X2.0709Y3.7953
X2.0709Y1.1969
X2.086Y9.5057
X2.086Y6.9073
X2.086Y4.3088
X2.086Y1.7104
X2.0945Y9.2559
X2.0945Y6.6575
X2.0945Y4.0591
X2.0945Y1.4606
X2.0948Y9.43
X2.0948Y6.8316
X2.0948Y4.2332
X2.0948Y1.6347
X2.1142Y9.5197
X2.1142Y6.9213
X2.1142Y4.3228
X2.1142Y1.7244
X2.1299Y8.3701
X2.1299Y5.7717
X2.1299Y3.1732
X2.1299Y0.5748
X2.1372Y9.4557
X2.1372Y6.8573
X2.1372Y4.2589
X2.1372Y1.6604
X2.1378Y9.0748
X2.1378Y6.4764
X2.1378Y3.878
X2.1378Y1.2795
X2.1417Y9.0276
X2.1417Y6.4291
X2.1417Y3.8307
X2.1417Y1.2323
X2.1496Y8.8169
X2.1496Y6.2185
X2.1496Y3.6201
X2.1496Y1.0217
X2.1509Y9.4841
X2.1509Y6.8856
X2.1509Y4.2872
X2.1509Y1.6888
X2.1673Y9.2461
X2.1673Y6.6476
X2.1673Y4.0492
X2.1673Y1.4508
X2.185Y9.0945
X2.185Y6.4961
X2.185Y3.8976
X2.185Y1.2992
X2.1932Y9.2281
X2.1932Y6.6297
X2.1932Y4.0313
X2.1932Y1.4329
X2.1998Y9.4321
X2.1998Y6.8337
X2.1998Y4.2352
X2.1998Y1.6368
X2.2047Y8.8189
X2.2047Y6.2205
X2.2047Y3.622
X2.2047Y1.0236
X2.2134Y9.4617
X2.2134Y6.8633
X2.2134Y4.2649
X2.2134Y1.6665
X2.2148Y9.4935
X2.2148Y6.8951
X2.2148Y4.2966
X2.2148Y1.6982
X2.2187Y9.2936
X2.2187Y6.6952
X2.2187Y4.0967
X2.2187Y1.4983
X2.2244Y9.6654
X2.2244Y7.0669
X2.2244Y4.4685
X2.2244Y1.8701
X2.2293Y9.7372
X2.2293Y7.1388
X2.2293Y4.5403
X2.2293Y1.9419
X2.2323Y9.5197
X2.2323Y6.9213
X2.2323Y4.3228
X2.2323Y1.7244
X2.2346Y9.3208
X2.2346Y6.7224
X2.2346Y4.124
X2.2346Y1.5255
X2.2362Y9.8031
X2.2362Y7.2047
X2.2362Y4.6063
X2.2362Y2.0079
X2.2481Y9.4449
X2.2481Y6.8464
X2.2481Y4.248
X2.2481Y1.6496
X2.2569Y9.7765
X2.2569Y7.1781
X2.2569Y4.5797
X2.2569Y1.9813
X2.2659Y9.2952
X2.2659Y6.6967
X2.2659Y4.0983
X2.2659Y1.4999
X2.2835Y9.8056
X2.2835Y7.2071
X2.2835Y4.6087
X2.2835Y2.0103
X2.2901Y9.7494
X2.2901Y7.151
X2.2901Y4.5525
X2.2901Y1.9541
X2.2992Y8.8976
X2.2992Y6.2992
X2.2992Y3.7008
X2.2992Y1.1024
X2.3078Y9.0886
X2.3078Y6.4902
X2.3078Y3.8917
X2.3078Y1.2933
X2.322Y8.727
X2.322Y6.1285
X2.322Y3.5301
X2.322Y0.9317
X2.3307Y8.8898
X2.3307Y6.2913
X2.3307Y3.6929
X2.3307Y1.0945
X2.3465Y8.8155
X2.3465Y6.2171
X2.3465Y3.6187
X2.3465Y1.0203
X2.3537Y9.7629
X2.3537Y7.1644
X2.3537Y4.566
X2.3537Y1.9676
X2.3543Y9.685
X2.3543Y7.0866
X2.3543Y4.4882
X2.3543Y1.8898
X2.3602Y8.757
X2.3602Y6.1586
X2.3602Y3.5602
X2.3602Y0.9618
X2.3709Y9.1587
X2.3709Y6.5603
X2.3709Y3.9619
X2.3709Y1.3635
X2.3819Y8.6496
X2.3819Y6.0512
X2.3819Y3.4528
X2.3819Y0.8543
X2.3898Y9.185
X2.3898Y6.5866
X2.3898Y3.9882
X2.3898Y1.3898
X2.3927Y9.4596
X2.3927Y6.8612
X2.3927Y4.2628
X2.3927Y1.6643
X2.401Y9.1496
X2.401Y6.5512
X2.401Y3.9528
X2.401Y1.3543
X2.4113Y8.731
X2.4113Y6.1326
X2.4113Y3.5341
X2.4113Y0.9357
X2.4291Y8.6772
X2.4291Y6.0787
X2.4291Y3.4803
X2.4291Y0.8819
X2.4412Y8.9801
X2.4412Y6.3816
X2.4412Y3.7832
X2.4412Y1.1848
X2.4417Y9.1846
X2.4417Y6.5861
X2.4417Y3.9877
X2.4417Y1.3893
X2.4436Y8.7331
X2.4436Y6.1347
X2.4436Y3.5362
X2.4436Y0.9378
X2.4488Y9.7717
X2.4488Y7.1732
X2.4488Y4.5748
X2.4488Y1.9764
X2.464Y9.1623
X2.464Y6.5639
X2.464Y3.9654
X2.464Y1.367
X2.4757Y9.5748
X2.4757Y6.9764
X2.4757Y4.378
X2.4757Y1.7795
X2.4893Y9.1177
X2.4893Y6.5193
X2.4893Y3.9209
X2.4893Y1.3224
X2.4921Y9.9685
X2.4921Y9.874
X2.4921Y7.3701
X2.4921Y7.2756
X2.4921Y4.7717
X2.4921Y4.6772
X2.4921Y2.1732
X2.4921Y2.0787
X2.5033Y9.5597
X2.5033Y6.9613
X2.5033Y4.3629
X2.5033Y1.7644
X2.5118Y8.7402
X2.5118Y6.1417
X2.5118Y3.5433
X2.5118Y0.9449
X2.5236Y8.3228
X2.5236Y5.7244
X2.5236Y3.126
X2.5236Y0.5276
X2.5256Y9.5374
X2.5256Y6.939
X2.5256Y4.3406
X2.5256Y1.7422
X2.5512Y9.1417
X2.5512Y6.5433
X2.5512Y3.9449
X2.5512Y1.3465
X2.5531Y9.7874
X2.5531Y7.189
X2.5531Y4.5906
X2.5531Y1.9921
X2.5765Y9.251
X2.5765Y6.6526
X2.5765Y4.0542
X2.5765Y1.4557
X2.5841Y9.2816
X2.5841Y6.6832
X2.5841Y4.0847
X2.5841Y1.4863
X2.5945Y8.8189
X2.5945Y6.2205
X2.5945Y3.622
X2.5945Y1.0236
X2.5945Y8.937
X2.5945Y6.3386
X2.5945Y3.7402
X2.5945Y1.1417
X2.6038Y9.7885
X2.6038Y7.1901
X2.6038Y4.5916
X2.6038Y1.9932
X2.622Y9.9685
X2.622Y7.3701
X2.622Y4.7717
X2.622Y2.1732
X2.6253Y9.0399
X2.6253Y6.4415
X2.6253Y3.843
X2.6253Y1.2446
X2.6274Y8.9528
X2.6274Y6.3543
X2.6274Y3.7559
X2.6274Y1.1575
X2.628Y9.8661
X2.628Y7.2677
X2.628Y4.6693
X2.628Y2.0709
X2.6437Y9.0098
X2.6437Y6.4114
X2.6437Y3.8129
X2.6437Y1.2145
X2.6732Y9.7677
X2.6732Y7.1693
X2.6732Y4.5709
X2.6732Y1.9724
X2.6811Y9.063
X2.6811Y6.4646
X2.6811Y3.8661
X2.6811Y1.2677
X2.7047Y8.8346
X2.7047Y6.2362
X2.7047Y3.6378
X2.7047Y1.0394
X2.752Y9.622
X2.752Y7.0236
X2.752Y4.4252
X2.752Y1.8268
X2.755Y9.7148
X2.755Y7.1164
X2.755Y4.518
X2.755Y1.9196
X2.7677Y9.2205
X2.7677Y6.622
X2.7677Y4.0236
X2.7677Y1.4252
X2.7698Y9.9931
X2.7698Y7.3946
X2.7698Y4.7962
X2.7698Y2.1978
X2.7953Y8.5236
X2.7953Y5.9252
X2.7953Y3.3268
X2.7953Y0.7283
X2.811Y9.6142
X2.811Y7.0157
X2.811Y4.4173
X2.811Y1.8189
X2.8386Y10.1099
X2.8386Y7.5115
X2.8386Y4.9131
X2.8386Y2.3146
X2.8425Y9.4764
X2.8425Y6.878
X2.8425Y4.2795
X2.8425Y1.6811
X2.8469Y10.0374
X2.8469Y7.439
X2.8469Y4.8406
X2.8469Y2.2421
X2.8583Y8.7008
X2.8583Y6.1024
X2.8583Y3.5039
X2.8583Y0.9055
X2.8642Y8.876
X2.8642Y6.2776
X2.8642Y3.6791
X2.8642Y1.0807
X2.8898Y9.1535
X2.8898Y6.5551
X2.8898Y3.9567
X2.8898Y1.3583
X2.9665Y9.189
X2.9665Y6.5906
X2.9665Y3.9921
X2.9665Y1.3937
X2.9682Y8.6454
X2.9682Y6.047
X2.9682Y3.4486
X2.9682Y0.8501
X2.9803Y10.0118
X2.9803Y7.4134
X2.9803Y4.815
X2.9803Y2.2165
X3.0236Y9.248
X3.0236Y6.6496
X3.0236Y4.0512
X3.0236Y1.4528
X3.0354Y9.5472
X3.0354Y6.9488
X3.0354Y4.3504
X3.0354Y1.752
X3.0394Y8.8268
X3.0394Y6.2283
X3.0394Y3.6299
X3.0394Y1.0315
X3.0728Y9.7216
X3.0728Y7.1232
X3.0728Y4.5247
X3.0728Y1.9263
X3.0866Y9.0669
X3.0866Y6.4685
X3.0866Y3.8701
X3.0866Y1.2717
X3.1024Y8.8976
X3.1024Y6.2992
X3.1024Y3.7008
X3.1024Y1.1024
X3.1417Y9.7244
X3.1417Y7.126
X3.1417Y4.5276
X3.1417Y1.9291
X3.1591Y8.2313
X3.1591Y5.6328
X3.1591Y3.0344
X3.1591Y0.436
X3.189Y8.7874
X3.189Y8.7559
X3.189Y6.189
X3.189Y6.1575
X3.189Y3.5906
X3.189Y3.5591
X3.189Y0.9921
X3.189Y0.9606
X3.2334Y8.8532
X3.2334Y6.2548
X3.2334Y3.6564
X3.2334Y1.058
X3.2343Y9.3626
X3.2343Y6.7642
X3.2343Y4.1657
X3.2343Y1.5673
X3.2717Y10.1102
X3.2717Y7.5118
X3.2717Y4.9134
X3.2717Y2.315
X3.3071Y9.3819
X3.3071Y6.7835
X3.3071Y4.185
X3.3071Y1.5866
X3.3393Y8.7428
X3.3393Y6.1444
X3.3393Y3.546
X3.3393Y0.9475
X3.3408Y8.7743
X3.3408Y6.1759
X3.3408Y3.5774
X3.3408Y0.979
X3.3661Y8.0945
X3.3661Y5.4961
X3.3661Y2.8976
X3.3661Y0.2992
X3.3858Y8.8268
X3.3858Y6.2283
X3.3858Y3.6299
X3.3858Y1.0315
X3.4173Y9.7165
X3.4173Y7.1181
X3.4173Y4.5197
X3.4173Y1.9213
X3.4252Y9.1535
X3.4252Y6.5551
X3.4252Y3.9567
X3.4252Y1.3583
X3.4331Y8.7244
X3.4331Y6.126
X3.4331Y3.5276
X3.4331Y0.9291
X3.4764Y9.7362
X3.4764Y7.1378
X3.4764Y4.5394
X3.4764Y1.9409
X3.5276Y8.9921
X3.5276Y6.3937
X3.5276Y3.7953
X3.5276Y1.1969
X3.5427Y9.5057
X3.5427Y6.9073
X3.5427Y4.3088
X3.5427Y1.7104
X3.5512Y9.2559
X3.5512Y6.6575
X3.5512Y4.0591
X3.5512Y1.4606
X3.5515Y9.43
X3.5515Y6.8316
X3.5515Y4.2332
X3.5515Y1.6347
X3.5709Y9.5197
X3.5709Y6.9213
X3.5709Y4.3228
X3.5709Y1.7244
X3.5866Y8.3701
X3.5866Y5.7717
X3.5866Y3.1732
X3.5866Y0.5748
X3.5939Y9.4557
X3.5939Y6.8573
X3.5939Y4.2589
X3.5939Y1.6604
X3.5945Y9.0748
X3.5945Y6.4764
X3.5945Y3.878
X3.5945Y1.2795
X3.5984Y9.0276
X3.5984Y6.4291
X3.5984Y3.8307
X3.5984Y1.2323
X3.6063Y8.8169
X3.6063Y6.2185
X3.6063Y3.6201
X3.6063Y1.0217
X3.6076Y9.4841
X3.6076Y6.8856
X3.6076Y4.2872
X3.6076Y1.6888
X3.624Y9.2461
X3.624Y6.6476
X3.624Y4.0492
X3.624Y1.4508
X3.6417Y9.0945
X3.6417Y6.4961
X3.6417Y3.8976
X3.6417Y1.2992
X3.6499Y9.2281
X3.6499Y6.6297
X3.6499Y4.0313
X3.6499Y1.4329
X3.6565Y9.4321
X3.6565Y6.8337
X3.6565Y4.2352
X3.6565Y1.6368
X3.6614Y8.8189
X3.6614Y6.2205
X3.6614Y3.622
X3.6614Y1.0236
X3.6701Y9.4617
X3.6701Y6.8633
X3.6701Y4.2649
X3.6701Y1.6665
X3.6715Y9.4935
X3.6715Y6.8951
X3.6715Y4.2966
X3.6715Y1.6982
X3.6754Y9.2936
X3.6754Y6.6952
X3.6754Y4.0967
X3.6754Y1.4983
X3.6811Y9.6654
X3.6811Y7.0669
X3.6811Y4.4685
X3.6811Y1.8701
X3.686Y9.7372
X3.686Y7.1388
X3.686Y4.5403
X3.686Y1.9419
X3.689Y9.5197
X3.689Y6.9213
X3.689Y4.3228
X3.689Y1.7244
X3.6913Y9.3208
X3.6913Y6.7224
X3.6913Y4.124
X3.6913Y1.5255
X3.6929Y9.8031
X3.6929Y7.2047
X3.6929Y4.6063
X3.6929Y2.0079
X3.7048Y9.4449
X3.7048Y6.8464
X3.7048Y4.248
X3.7048Y1.6496
X3.7136Y9.7765
X3.7136Y7.1781
X3.7136Y4.5797
X3.7136Y1.9813
X3.7226Y9.2952
X3.7226Y6.6967
X3.7226Y4.0983
X3.7226Y1.4999
X3.7402Y9.8056
X3.7402Y7.2071
X3.7402Y4.6087
X3.7402Y2.0103
X3.7468Y9.7494
X3.7468Y7.151
X3.7468Y4.5525
X3.7468Y1.9541
X3.7559Y8.8976
X3.7559Y6.2992
X3.7559Y3.7008
X3.7559Y1.1024
X3.7645Y9.0886
X3.7645Y6.4902
X3.7645Y3.8917
X3.7645Y1.2933
X3.7787Y8.727
X3.7787Y6.1285
X3.7787Y3.5301
X3.7787Y0.9317
X3.7874Y8.8898
X3.7874Y6.2913
X3.7874Y3.6929
X3.7874Y1.0945
X3.8031Y8.8155
X3.8031Y6.2171
X3.8031Y3.6187
X3.8031Y1.0203
X3.8104Y9.7629
X3.8104Y7.1644
X3.8104Y4.566
X3.8104Y1.9676
X3.811Y9.685
X3.811Y7.0866
X3.811Y4.4882
X3.811Y1.8898
X3.8169Y8.757
X3.8169Y6.1586
X3.8169Y3.5602
X3.8169Y0.9618
X3.8276Y9.1587
X3.8276Y6.5603
X3.8276Y3.9619
X3.8276Y1.3635
X3.8386Y8.6496
X3.8386Y6.0512
X3.8386Y3.4528
X3.8386Y0.8543
X3.8465Y9.185
X3.8465Y6.5866
X3.8465Y3.9882
X3.8465Y1.3898
X3.8494Y9.4596
X3.8494Y6.8612
X3.8494Y4.2628
X3.8494Y1.6643
X3.8577Y9.1496
X3.8577Y6.5512
X3.8577Y3.9528
X3.8577Y1.3543
X3.868Y8.731
X3.868Y6.1326
X3.868Y3.5341
X3.868Y0.9357
X3.8858Y8.6772
X3.8858Y6.0787
X3.8858Y3.4803
X3.8858Y0.8819
X3.8979Y8.9801
X3.8979Y6.3816
X3.8979Y3.7832
X3.8979Y1.1848
X3.8984Y9.1846
X3.8984Y6.5861
X3.8984Y3.9877
X3.8984Y1.3893
X3.9003Y8.7331
X3.9003Y6.1347
X3.9003Y3.5362
X3.9003Y0.9378
X3.9055Y9.7717
X3.9055Y7.1732
X3.9055Y4.5748
X3.9055Y1.9764
X3.9207Y9.1623
X3.9207Y6.5639
X3.9207Y3.9654
X3.9207Y1.367
X3.9324Y9.5748
X3.9324Y6.9764
X3.9324Y4.378
X3.9324Y1.7795
X3.946Y9.1177
X3.946Y6.5193
X3.946Y3.9209
X3.946Y1.3224
X3.9488Y9.9685
X3.9488Y9.874
X3.9488Y7.3701
X3.9488Y7.2756
X3.9488Y4.7717
X3.9488Y4.6772
X3.9488Y2.1732
X3.9488Y2.0787
X3.96Y9.5597
X3.96Y6.9613
X3.96Y4.3629
X3.96Y1.7644
X3.9685Y8.7402
X3.9685Y6.1417
X3.9685Y3.5433
X3.9685Y0.9449
X3.9803Y8.3228
X3.9803Y5.7244
X3.9803Y3.126
X3.9803Y0.5276
X3.9823Y9.5374
X3.9823Y6.939
X3.9823Y4.3406
X3.9823Y1.7422
X4.0079Y9.1417
X4.0079Y6.5433
X4.0079Y3.9449
X4.0079Y1.3465
X4.0098Y9.7874
X4.0098Y7.189
X4.0098Y4.5906
X4.0098Y1.9921
X4.0332Y9.251
X4.0332Y6.6526
X4.0332Y4.0542
X4.0332Y1.4557
X4.0408Y9.2816
X4.0408Y6.6832
X4.0408Y4.0847
X4.0408Y1.4863
X4.0512Y8.8189
X4.0512Y6.2205
X4.0512Y3.622
X4.0512Y1.0236
X4.0512Y8.937
X4.0512Y6.3386
X4.0512Y3.7402
X4.0512Y1.1417
X4.0605Y9.7885
X4.0605Y7.1901
X4.0605Y4.5916
X4.0605Y1.9932
X4.0787Y9.9685
X4.0787Y7.3701
X4.0787Y4.7717
X4.0787Y2.1732
X4.082Y9.0399
X4.082Y6.4415
X4.082Y3.843
X4.082Y1.2446
X4.0841Y8.9528
X4.0841Y6.3543
X4.0841Y3.7559
X4.0841Y1.1575
X4.0846Y9.8661
X4.0846Y7.2677
X4.0846Y4.6693
X4.0846Y2.0709
X4.1003Y9.0098
X4.1003Y6.4114
X4.1003Y3.8129
X4.1003Y1.2145
X4.1299Y9.7677
X4.1299Y7.1693
X4.1299Y4.5709
X4.1299Y1.9724
X4.1378Y9.063
X4.1378Y6.4646
X4.1378Y3.8661
X4.1378Y1.2677
X4.1614Y8.8346
X4.1614Y6.2362
X4.1614Y3.6378
X4.1614Y1.0394
X4.2087Y9.622
X4.2087Y7.0236
X4.2087Y4.4252
X4.2087Y1.8268
X4.2117Y9.7148
X4.2117Y7.1164
X4.2117Y4.518
X4.2117Y1.9196
X4.2244Y9.2205
X4.2244Y6.622
X4.2244Y4.0236
X4.2244Y1.4252
X4.2265Y9.9931
X4.2265Y7.3946
X4.2265Y4.7962
X4.2265Y2.1978
X4.252Y8.5236
X4.252Y5.9252
X4.252Y3.3268
X4.252Y0.7283
X4.2677Y9.6142
X4.2677Y7.0157
X4.2677Y4.4173
X4.2677Y1.8189
X4.2953Y10.1099
X4.2953Y7.5115
X4.2953Y4.9131
X4.2953Y2.3146
X4.2992Y9.4764
X4.2992Y6.878
X4.2992Y4.2795
X4.2992Y1.6811
X4.3036Y10.0374
X4.3036Y7.439
X4.3036Y4.8406
X4.3036Y2.2421
X4.315Y8.7008
X4.315Y6.1024
X4.315Y3.5039
X4.315Y0.9055
X4.3209Y8.876
X4.3209Y6.2776
X4.3209Y3.6791
X4.3209Y1.0807
X4.3465Y9.1535
X4.3465Y6.5551
X4.3465Y3.9567
X4.3465Y1.3583
X4.4232Y9.189
X4.4232Y6.5906
X4.4232Y3.9921
X4.4232Y1.3937
X4.4249Y8.6454
X4.4249Y6.047
X4.4249Y3.4486
X4.4249Y0.8501
X4.437Y10.0118
X4.437Y7.4134
X4.437Y4.815
X4.437Y2.2165
X4.4803Y9.248
X4.4803Y6.6496
X4.4803Y4.0512
X4.4803Y1.4528
X4.4921Y9.5472
X4.4921Y6.9488
X4.4921Y4.3504
X4.4921Y1.752
X4.4961Y8.8268
X4.4961Y6.2283
X4.4961Y3.6299
X4.4961Y1.0315
X4.5295Y9.7216
X4.5295Y7.1232
X4.5295Y4.5247
X4.5295Y1.9263
X4.5433Y9.0669
X4.5433Y6.4685
X4.5433Y3.8701
X4.5433Y1.2717
X4.5591Y8.8976
X4.5591Y6.2992
X4.5591Y3.7008
X4.5591Y1.1024
X4.5984Y9.7244
X4.5984Y7.126
X4.5984Y4.5276
X4.5984Y1.9291
X4.6158Y8.2313
X4.6158Y5.6328
X4.6158Y3.0344
X4.6158Y0.436
X4.6457Y8.7874
X4.6457Y8.7559
X4.6457Y6.189
X4.6457Y6.1575
X4.6457Y3.5906
X4.6457Y3.5591
X4.6457Y0.9921
X4.6457Y0.9606
X4.6901Y8.8532
X4.6901Y6.2548
X4.6901Y3.6564
X4.6901Y1.058
X4.6909Y9.3626
X4.6909Y6.7642
X4.6909Y4.1657
X4.6909Y1.5673
X4.7283Y10.1102
X4.7283Y7.5118
X4.7283Y4.9134
X4.7283Y2.315
X4.7638Y9.3819
X4.7638Y6.7835
X4.7638Y4.185
X4.7638Y1.5866
X4.796Y8.7428
X4.796Y6.1444
X4.796Y3.546
X4.796Y0.9475
X4.7975Y8.7743
X4.7975Y6.1759
X4.7975Y3.5774
X4.7975Y0.979
X4.8228Y8.0945
X4.8228Y5.4961
X4.8228Y2.8976
X4.8228Y0.2992
X4.8425Y8.8268
X4.8425Y6.2283
X4.8425Y3.6299
X4.8425Y1.0315
X4.874Y9.7165
X4.874Y7.1181
X4.874Y4.5197
X4.874Y1.9213
X4.8819Y9.1535
X4.8819Y6.5551
X4.8819Y3.9567
X4.8819Y1.3583
X4.8898Y8.7244
X4.8898Y6.126
X4.8898Y3.5276
X4.8898Y0.9291
X4.9331Y9.7362
X4.9331Y7.1378
X4.9331Y4.5394
X4.9331Y1.9409
X4.9843Y8.9921
X4.9843Y6.3937
X4.9843Y3.7953
X4.9843Y1.1969
X4.9993Y9.5057
X4.9993Y6.9073
X4.9993Y4.3088
X4.9993Y1.7104
X5.0079Y9.2559
X5.0079Y6.6575
X5.0079Y4.0591
X5.0079Y1.4606
X5.0082Y9.43
X5.0082Y6.8316
X5.0082Y4.2332
X5.0082Y1.6347
X5.0276Y9.5197
X5.0276Y6.9213
X5.0276Y4.3228
X5.0276Y1.7244
X5.0433Y8.3701
X5.0433Y5.7717
X5.0433Y3.1732
X5.0433Y0.5748
X5.0505Y9.4557
X5.0505Y6.8573
X5.0505Y4.2589
X5.0505Y1.6604
X5.0512Y9.0748
X5.0512Y6.4764
X5.0512Y3.878
X5.0512Y1.2795
X5.0551Y9.0276
X5.0551Y6.4291
X5.0551Y3.8307
X5.0551Y1.2323
X5.063Y8.8169
X5.063Y6.2185
X5.063Y3.6201
X5.063Y1.0217
X5.0642Y9.4841
X5.0642Y6.8856
X5.0642Y4.2872
X5.0642Y1.6888
X5.0807Y9.2461
X5.0807Y6.6476
X5.0807Y4.0492
X5.0807Y1.4508
X5.0984Y9.0945
X5.0984Y6.4961
X5.0984Y3.8976
X5.0984Y1.2992
X5.1066Y9.2281
X5.1066Y6.6297
X5.1066Y4.0313
X5.1066Y1.4329
X5.1132Y9.4321
X5.1132Y6.8337
X5.1132Y4.2352
X5.1132Y1.6368
X5.1181Y8.8189
X5.1181Y6.2205
X5.1181Y3.622
X5.1181Y1.0236
X5.1268Y9.4617
X5.1268Y6.8633
X5.1268Y4.2649
X5.1268Y1.6665
X5.1282Y9.4935
X5.1282Y6.8951
X5.1282Y4.2966
X5.1282Y1.6982
X5.1321Y9.2936
X5.1321Y6.6952
X5.1321Y4.0967
X5.1321Y1.4983
X5.1378Y9.6654
X5.1378Y7.0669
X5.1378Y4.4685
X5.1378Y1.8701
X5.1427Y9.7372
X5.1427Y7.1388
X5.1427Y4.5403
X5.1427Y1.9419
X5.1457Y9.5197
X5.1457Y6.9213
X5.1457Y4.3228
X5.1457Y1.7244
X5.148Y9.3208
X5.148Y6.7224
X5.148Y4.124
X5.148Y1.5255
X5.1496Y9.8031
X5.1496Y7.2047
X5.1496Y4.6063
X5.1496Y2.0079
X5.1614Y9.4449
X5.1614Y6.8464
X5.1614Y4.248
X5.1614Y1.6496
X5.1702Y9.7765
X5.1702Y7.1781
X5.1702Y4.5797
X5.1702Y1.9813
X5.1793Y9.2952
X5.1793Y6.6967
X5.1793Y4.0983
X5.1793Y1.4999
X5.1969Y9.8056
X5.1969Y7.2071
X5.1969Y4.6087
X5.1969Y2.0103
X5.2035Y9.7494
X5.2035Y7.151
X5.2035Y4.5525
X5.2035Y1.9541
X5.2126Y8.8976
X5.2126Y6.2992
X5.2126Y3.7008
X5.2126Y1.1024
X5.2212Y9.0886
X5.2212Y6.4902
X5.2212Y3.8917
X5.2212Y1.2933
X5.2354Y8.727
X5.2354Y6.1285
X5.2354Y3.5301
X5.2354Y0.9317
X5.2441Y8.8898
X5.2441Y6.2913
X5.2441Y3.6929
X5.2441Y1.0945
X5.2598Y8.8155
X5.2598Y6.2171
X5.2598Y3.6187
X5.2598Y1.0203
X5.2671Y9.7629
X5.2671Y7.1644
X5.2671Y4.566
X5.2671Y1.9676
X5.2677Y9.685
X5.2677Y7.0866
X5.2677Y4.4882
X5.2677Y1.8898
X5.2736Y8.757
X5.2736Y6.1586
X5.2736Y3.5602
X5.2736Y0.9618
X5.2843Y9.1587
X5.2843Y6.5603
X5.2843Y3.9619
X5.2843Y1.3635
X5.2953Y8.6496
X5.2953Y6.0512
X5.2953Y3.4528
X5.2953Y0.8543
X5.3031Y9.185
X5.3031Y6.5866
X5.3031Y3.9882
X5.3031Y1.3898
X5.3061Y9.4596
X5.3061Y6.8612
X5.3061Y4.2628
X5.3061Y1.6643
X5.3144Y9.1496
X5.3144Y6.5512
X5.3144Y3.9528
X5.3144Y1.3543
X5.3247Y8.731
X5.3247Y6.1326
X5.3247Y3.5341
X5.3247Y0.9357
X5.3425Y8.6772
X5.3425Y6.0787
X5.3425Y3.4803
X5.3425Y0.8819
X5.3546Y8.9801
X5.3546Y6.3816
X5.3546Y3.7832
X5.3546Y1.1848
X5.3551Y9.1846
X5.3551Y6.5861
X5.3551Y3.9877
X5.3551Y1.3893
X5.357Y8.7331
X5.357Y6.1347
X5.357Y3.5362
X5.357Y0.9378
X5.3622Y9.7717
X5.3622Y7.1732
X5.3622Y4.5748
X5.3622Y1.9764
X5.3774Y9.1623
X5.3774Y6.5639
X5.3774Y3.9654
X5.3774Y1.367
X5.3891Y9.5748
X5.3891Y6.9764
X5.3891Y4.378
X5.3891Y1.7795
X5.4027Y9.1177
X5.4027Y6.5193
X5.4027Y3.9209
X5.4027Y1.3224
X5.4055Y9.9685
X5.4055Y9.874
X5.4055Y7.3701
X5.4055Y7.2756
X5.4055Y4.7717
X5.4055Y4.6772
X5.4055Y2.1732
X5.4055Y2.0787
X5.4167Y9.5597
X5.4167Y6.9613
X5.4167Y4.3629
X5.4167Y1.7644
X5.4252Y8.7402
X5.4252Y6.1417
X5.4252Y3.5433
X5.4252Y0.9449
X5.437Y8.3228
X5.437Y5.7244
X5.437Y3.126
X5.437Y0.5276
X5.439Y9.5374
X5.439Y6.939
X5.439Y4.3406
X5.439Y1.7422
X5.4646Y9.1417
X5.4646Y6.5433
X5.4646Y3.9449
X5.4646Y1.3465
X5.4665Y9.7874
X5.4665Y7.189
X5.4665Y4.5906
X5.4665Y1.9921
X5.4899Y9.251
X5.4899Y6.6526
X5.4899Y4.0542
X5.4899Y1.4557
X5.4975Y9.2816
X5.4975Y6.6832
X5.4975Y4.0847
X5.4975Y1.4863
X5.5079Y8.8189
X5.5079Y6.2205
X5.5079Y3.622
X5.5079Y1.0236
X5.5079Y8.937
X5.5079Y6.3386
X5.5079Y3.7402
X5.5079Y1.1417
X5.5172Y9.7885
X5.5172Y7.1901
X5.5172Y4.5916
X5.5172Y1.9932
X5.5354Y9.9685
X5.5354Y7.3701
X5.5354Y4.7717
X5.5354Y2.1732
X5.5387Y9.0399
X5.5387Y6.4415
X5.5387Y3.843
X5.5387Y1.2446
X5.5408Y8.9528
X5.5408Y6.3543
X5.5408Y3.7559
X5.5408Y1.1575
X5.5413Y9.8661
X5.5413Y7.2677
X5.5413Y4.6693
X5.5413Y2.0709
X5.557Y9.0098
X5.557Y6.4114
X5.557Y3.8129
X5.557Y1.2145
X5.5866Y9.7677
X5.5866Y7.1693
X5.5866Y4.5709
X5.5866Y1.9724
X5.5945Y9.063
X5.5945Y6.4646
X5.5945Y3.8661
X5.5945Y1.2677
X5.6181Y8.8346
X5.6181Y6.2362
X5.6181Y3.6378
X5.6181Y1.0394
X5.6654Y9.622
X5.6654Y7.0236
X5.6654Y4.4252
X5.6654Y1.8268
X5.6684Y9.7148
X5.6684Y7.1164
X5.6684Y4.518
X5.6684Y1.9196
X5.6811Y9.2205
X5.6811Y6.622
X5.6811Y4.0236
X5.6811Y1.4252
X5.6832Y9.9931
X5.6832Y7.3946
X5.6832Y4.7962
X5.6832Y2.1978
X5.7087Y8.5236
X5.7087Y5.9252
X5.7087Y3.3268
X5.7087Y0.7283
X5.7244Y9.6142
X5.7244Y7.0157
X5.7244Y4.4173
X5.7244Y1.8189
X5.752Y10.1099
X5.752Y7.5115
X5.752Y4.9131
X5.752Y2.3146
X5.7559Y9.4764
X5.7559Y6.878
X5.7559Y4.2795
X5.7559Y1.6811
X5.7602Y10.0374
X5.7602Y7.439
X5.7602Y4.8406
X5.7602Y2.2421
X5.7717Y8.7008
X5.7717Y6.1024
X5.7717Y3.5039
X5.7717Y0.9055
X5.7776Y8.876
X5.7776Y6.2776
X5.7776Y3.6791
X5.7776Y1.0807
X5.8031Y9.1535
X5.8031Y6.5551
X5.8031Y3.9567
X5.8031Y1.3583
X5.8799Y9.189
X5.8799Y6.5906
X5.8799Y3.9921
X5.8799Y1.3937
X5.8816Y8.6454
X5.8816Y6.047
X5.8816Y3.4486
X5.8816Y0.8501
X5.8937Y10.0118
X5.8937Y7.4134
X5.8937Y4.815
X5.8937Y2.2165
X5.937Y9.248
X5.937Y6.6496
X5.937Y4.0512
X5.937Y1.4528
X5.9488Y9.5472
X5.9488Y6.9488
X5.9488Y4.3504
X5.9488Y1.752
X5.9528Y8.8268
X5.9528Y6.2283
X5.9528Y3.6299
X5.9528Y1.0315
X5.9862Y9.7216
X5.9862Y7.1232
X5.9862Y4.5247
X5.9862Y1.9263
X6.0Y9.0669
X6.0Y6.4685
X6.0Y3.8701
X6.0Y1.2717
X6.0157Y8.8976
X6.0157Y6.2992
X6.0157Y3.7008
X6.0157Y1.1024
X6.0551Y9.7244
X6.0551Y7.126
X6.0551Y4.5276
X6.0551Y1.9291
X6.0725Y8.2313
X6.0725Y5.6328
X6.0725Y3.0344
X6.0725Y0.436
X6.1024Y8.7874
X6.1024Y8.7559
X6.1024Y6.189
X6.1024Y6.1575
X6.1024Y3.5906
X6.1024Y3.5591
X6.1024Y0.9921
X6.1024Y0.9606
X6.1468Y8.8532
X6.1468Y6.2548
X6.1468Y3.6564
X6.1468Y1.058
X6.1476Y9.3626
X6.1476Y6.7642
X6.1476Y4.1657
X6.1476Y1.5673
X6.185Y10.1102
X6.185Y7.5118
X6.185Y4.9134
X6.185Y2.315
X6.2205Y9.3819
X6.2205Y6.7835
X6.2205Y4.185
X6.2205Y1.5866
X6.2527Y8.7428
X6.2527Y6.1444
X6.2527Y3.546
X6.2527Y0.9475
X6.2542Y8.7743
X6.2542Y6.1759
X6.2542Y3.5774
X6.2542Y0.979
X6.2795Y8.0945
X6.2795Y5.4961
X6.2795Y2.8976
X6.2795Y0.2992
X6.2992Y8.8268
X6.2992Y6.2283
X6.2992Y3.6299
X6.2992Y1.0315
X6.3307Y9.7165
X6.3307Y7.1181
X6.3307Y4.5197
X6.3307Y1.9213
X6.3386Y9.1535
X6.3386Y6.5551
X6.3386Y3.9567
X6.3386Y1.3583
X6.3465Y8.7244
X6.3465Y6.126
X6.3465Y3.5276
X6.3465Y0.9291
X6.3898Y9.7362
X6.3898Y7.1378
X6.3898Y4.5394
X6.3898Y1.9409
X6.4409Y8.9921
X6.4409Y6.3937
X6.4409Y3.7953
X6.4409Y1.1969
X6.456Y9.5057
X6.456Y6.9073
X6.456Y4.3088
X6.456Y1.7104
X6.4646Y9.2559
X6.4646Y6.6575
X6.4646Y4.0591
X6.4646Y1.4606
X6.4649Y9.43
X6.4649Y6.8316
X6.4649Y4.2332
X6.4649Y1.6347
X6.4843Y9.5197
X6.4843Y6.9213
X6.4843Y4.3228
X6.4843Y1.7244
X6.5Y8.3701
X6.5Y5.7717
X6.5Y3.1732
X6.5Y0.5748
X6.5072Y9.4557
X6.5072Y6.8573
X6.5072Y4.2589
X6.5072Y1.6604
X6.5079Y9.0748
X6.5079Y6.4764
X6.5079Y3.878
X6.5079Y1.2795
X6.5118Y9.0276
X6.5118Y6.4291
X6.5118Y3.8307
X6.5118Y1.2323
X6.5197Y8.8169
X6.5197Y6.2185
X6.5197Y3.6201
X6.5197Y1.0217
X6.5209Y9.4841
X6.5209Y6.8856
X6.5209Y4.2872
X6.5209Y1.6888
X6.5374Y9.2461
X6.5374Y6.6476
X6.5374Y4.0492
X6.5374Y1.4508
X6.5551Y9.0945
X6.5551Y6.4961
X6.5551Y3.8976
X6.5551Y1.2992
X6.5633Y9.2281
X6.5633Y6.6297
X6.5633Y4.0313
X6.5633Y1.4329
X6.5699Y9.4321
X6.5699Y6.8337
X6.5699Y4.2352
X6.5699Y1.6368
X6.5748Y8.8189
X6.5748Y6.2205
X6.5748Y3.622
X6.5748Y1.0236
X6.5835Y9.4617
X6.5835Y6.8633
X6.5835Y4.2649
X6.5835Y1.6665
X6.5849Y9.4935
X6.5849Y6.8951
X6.5849Y4.2966
X6.5849Y1.6982
X6.5888Y9.2936
X6.5888Y6.6952
X6.5888Y4.0967
X6.5888Y1.4983
X6.5945Y9.6654
X6.5945Y7.0669
X6.5945Y4.4685
X6.5945Y1.8701
X6.5994Y9.7372
X6.5994Y7.1388
X6.5994Y4.5403
X6.5994Y1.9419
X6.6024Y9.5197
X6.6024Y6.9213
X6.6024Y4.3228
X6.6024Y1.7244
X6.6047Y9.3208
X6.6047Y6.7224
X6.6047Y4.124
X6.6047Y1.5255
X6.6063Y9.8031
X6.6063Y7.2047
X6.6063Y4.6063
X6.6063Y2.0079
X6.6181Y9.4449
X6.6181Y6.8464
X6.6181Y4.248
X6.6181Y1.6496
X6.6269Y9.7765
X6.6269Y7.1781
X6.6269Y4.5797
X6.6269Y1.9813
X6.636Y9.2952
X6.636Y6.6967
X6.636Y4.0983
X6.636Y1.4999
X6.6535Y9.8056
X6.6535Y7.2071
X6.6535Y4.6087
X6.6535Y2.0103
X6.6602Y9.7494
X6.6602Y7.151
X6.6602Y4.5525
X6.6602Y1.9541
X6.6693Y8.8976
X6.6693Y6.2992
X6.6693Y3.7008
X6.6693Y1.1024
X6.6779Y9.0886
X6.6779Y6.4902
X6.6779Y3.8917
X6.6779Y1.2933
X6.6921Y8.727
X6.6921Y6.1285
X6.6921Y3.5301
X6.6921Y0.9317
X6.7008Y8.8898
X6.7008Y6.2913
X6.7008Y3.6929
X6.7008Y1.0945
X6.7165Y8.8155
X6.7165Y6.2171
X6.7165Y3.6187
X6.7165Y1.0203
X6.7237Y9.7629
X6.7237Y7.1644
X6.7237Y4.566
X6.7237Y1.9676
X6.7244Y9.685
X6.7244Y7.0866
X6.7244Y4.4882
X6.7244Y1.8898
X6.7303Y8.757
X6.7303Y6.1586
X6.7303Y3.5602
X6.7303Y0.9618
X6.741Y9.1587
X6.741Y6.5603
X6.741Y3.9619
X6.741Y1.3635
X6.752Y8.6496
X6.752Y6.0512
X6.752Y3.4528
X6.752Y0.8543
X6.7598Y9.185
X6.7598Y6.5866
X6.7598Y3.9882
X6.7598Y1.3898
X6.7628Y9.4596
X6.7628Y6.8612
X6.7628Y4.2628
X6.7628Y1.6643
X6.7711Y9.1496
X6.7711Y6.5512
X6.7711Y3.9528
X6.7711Y1.3543
X6.7814Y8.731
X6.7814Y6.1326
X6.7814Y3.5341
X6.7814Y0.9357
X6.7992Y8.6772
X6.7992Y6.0787
X6.7992Y3.4803
X6.7992Y0.8819
X6.8113Y8.9801
X6.8113Y6.3816
X6.8113Y3.7832
X6.8113Y1.1848
X6.8118Y9.1846
X6.8118Y6.5861
X6.8118Y3.9877
X6.8118Y1.3893
X6.8137Y8.7331
X6.8137Y6.1347
X6.8137Y3.5362
X6.8137Y0.9378
X6.8189Y9.7717
X6.8189Y7.1732
X6.8189Y4.5748
X6.8189Y1.9764
X6.8341Y9.1623
X6.8341Y6.5639
X6.8341Y3.9654
X6.8341Y1.367
X6.8458Y9.5748
X6.8458Y6.9764
X6.8458Y4.378
X6.8458Y1.7795
X6.8594Y9.1177
X6.8594Y6.5193
X6.8594Y3.9209
X6.8594Y1.3224
X6.8622Y9.9685
X6.8622Y9.874
X6.8622Y7.3701
X6.8622Y7.2756
X6.8622Y4.7717
X6.8622Y4.6772
X6.8622Y2.1732
X6.8622Y2.0787
X6.8734Y9.5597
X6.8734Y6.9613
X6.8734Y4.3629
X6.8734Y1.7644
X6.8819Y8.7402
X6.8819Y6.1417
X6.8819Y3.5433
X6.8819Y0.9449
X6.8937Y8.3228
X6.8937Y5.7244
X6.8937Y3.126
X6.8937Y0.5276
X6.8957Y9.5374
X6.8957Y6.939
X6.8957Y4.3406
X6.8957Y1.7422
X6.9213Y9.1417
X6.9213Y6.5433
X6.9213Y3.9449
X6.9213Y1.3465
X6.9232Y9.7874
X6.9232Y7.189
X6.9232Y4.5906
X6.9232Y1.9921
X6.9466Y9.251
X6.9466Y6.6526
X6.9466Y4.0542
X6.9466Y1.4557
X6.9541Y9.2816
X6.9541Y6.6832
X6.9541Y4.0847
X6.9541Y1.4863
X6.9646Y8.8189
X6.9646Y6.2205
X6.9646Y3.622
X6.9646Y1.0236
X6.9646Y8.937
X6.9646Y6.3386
X6.9646Y3.7402
X6.9646Y1.1417
X6.9739Y9.7885
X6.9739Y7.1901
X6.9739Y4.5916
X6.9739Y1.9932
X6.9921Y9.9685
X6.9921Y7.3701
X6.9921Y4.7717
X6.9921Y2.1732
X6.9954Y9.0399
X6.9954Y6.4415
X6.9954Y3.843
X6.9954Y1.2446
X6.9975Y8.9528
X6.9975Y6.3543
X6.9975Y3.7559
X6.9975Y1.1575
X6.998Y9.8661
X6.998Y7.2677
X6.998Y4.6693
X6.998Y2.0709
X7.0137Y9.0098
X7.0137Y6.4114
X7.0137Y3.8129
X7.0137Y1.2145
X7.0433Y9.7677
X7.0433Y7.1693
X7.0433Y4.5709
X7.0433Y1.9724
X7.0512Y9.063
X7.0512Y6.4646
X7.0512Y3.8661
X7.0512Y1.2677
X7.0748Y8.8346
X7.0748Y6.2362
X7.0748Y3.6378
X7.0748Y1.0394
X7.122Y9.622
X7.122Y7.0236
X7.122Y4.4252
X7.122Y1.8268
X7.1251Y9.7148
X7.1251Y7.1164
X7.1251Y4.518
X7.1251Y1.9196
X7.1378Y9.2205
X7.1378Y6.622
X7.1378Y4.0236
X7.1378Y1.4252
X7.1399Y9.9931
X7.1399Y7.3946
X7.1399Y4.7962
X7.1399Y2.1978
X7.1654Y8.5236
X7.1654Y5.9252
X7.1654Y3.3268
X7.1654Y0.7283
X7.1811Y9.6142
X7.1811Y7.0157
X7.1811Y4.4173
X7.1811Y1.8189
X7.2087Y10.1099
X7.2087Y7.5115
X7.2087Y4.9131
X7.2087Y2.3146
X7.2126Y9.4764
X7.2126Y6.878
X7.2126Y4.2795
X7.2126Y1.6811
X7.2169Y10.0374
X7.2169Y7.439
X7.2169Y4.8406
X7.2169Y2.2421
X7.2283Y8.7008
X7.2283Y6.1024
X7.2283Y3.5039
X7.2283Y0.9055
X7.2343Y8.876
X7.2343Y6.2776
X7.2343Y3.6791
X7.2343Y1.0807
X7.2598Y9.1535
X7.2598Y6.5551
X7.2598Y3.9567
X7.2598Y1.3583
X7.3366Y9.189
X7.3366Y6.5906
X7.3366Y3.9921
X7.3366Y1.3937
X7.3383Y8.6454
X7.3383Y6.047
X7.3383Y3.4486
X7.3383Y0.8501
X7.3504Y10.0118
X7.3504Y7.4134
X7.3504Y4.815
X7.3504Y2.2165
X7.3937Y9.248
X7.3937Y6.6496
X7.3937Y4.0512
X7.3937Y1.4528
X7.4055Y9.5472
X7.4055Y6.9488
X7.4055Y4.3504
X7.4055Y1.752
X7.4094Y8.8268
X7.4094Y6.2283
X7.4094Y3.6299
X7.4094Y1.0315
X7.4429Y9.7216
X7.4429Y7.1232
X7.4429Y4.5247
X7.4429Y1.9263
X7.4567Y9.0669
X7.4567Y6.4685
X7.4567Y3.8701
X7.4567Y1.2717
X7.4724Y8.8976
X7.4724Y6.2992
X7.4724Y3.7008
X7.4724Y1.1024
X7.5118Y9.7244
X7.5118Y7.126
X7.5118Y4.5276
X7.5118Y1.9291
X7.5292Y8.2313
X7.5292Y5.6328
X7.5292Y3.0344
X7.5292Y0.436
X7.5591Y8.7874
X7.5591Y8.7559
X7.5591Y6.189
X7.5591Y6.1575
X7.5591Y3.5906
X7.5591Y3.5591
X7.5591Y0.9921
X7.5591Y0.9606
X7.6035Y8.8532
X7.6035Y6.2548
X7.6035Y3.6564
X7.6035Y1.058
X7.6043Y9.3626
X7.6043Y6.7642
X7.6043Y4.1657
X7.6043Y1.5673
X7.6417Y10.1102
X7.6417Y7.5118
X7.6417Y4.9134
X7.6417Y2.315
X7.6772Y9.3819
X7.6772Y6.7835
X7.6772Y4.185
X7.6772Y1.5866
X7.7094Y8.7428
X7.7094Y6.1444
X7.7094Y3.546
X7.7094Y0.9475
X7.7109Y8.7743
X7.7109Y6.1759
X7.7109Y3.5774
X7.7109Y0.979
X7.7362Y8.0945
X7.7362Y5.4961
X7.7362Y2.8976
X7.7362Y0.2992
X7.7559Y8.8268
X7.7559Y6.2283
X7.7559Y3.6299
X7.7559Y1.0315
X7.7874Y9.7165
X7.7874Y7.1181
X7.7874Y4.5197
X7.7874Y1.9213
X7.7953Y9.1535
X7.7953Y6.5551
X7.7953Y3.9567
X7.7953Y1.3583
X7.8031Y8.7244
X7.8031Y6.126
X7.8031Y3.5276
X7.8031Y0.9291
X7.8465Y9.7362
X7.8465Y7.1378
X7.8465Y4.5394
X7.8465Y1.9409
X7.8976Y8.9921
X7.8976Y6.3937
X7.8976Y3.7953
X7.8976Y1.1969
X7.9127Y9.5057
X7.9127Y6.9073
X7.9127Y4.3088
X7.9127Y1.7104
X7.9213Y9.2559
X7.9213Y6.6575
X7.9213Y4.0591
X7.9213Y1.4606
X7.9216Y9.43
X7.9216Y6.8316
X7.9216Y4.2332
X7.9216Y1.6347
X7.9409Y9.5197
X7.9409Y6.9213
X7.9409Y4.3228
X7.9409Y1.7244
X7.9567Y8.3701
X7.9567Y5.7717
X7.9567Y3.1732
X7.9567Y0.5748
X7.9639Y9.4557
X7.9639Y6.8573
X7.9639Y4.2589
X7.9639Y1.6604
X7.9646Y9.0748
X7.9646Y6.4764
X7.9646Y3.878
X7.9646Y1.2795
X7.9685Y9.0276
X7.9685Y6.4291
X7.9685Y3.8307
X7.9685Y1.2323
X7.9764Y8.8169
X7.9764Y6.2185
X7.9764Y3.6201
X7.9764Y1.0217
X7.9776Y9.4841
X7.9776Y6.8856
X7.9776Y4.2872
X7.9776Y1.6888
X7.9941Y9.2461
X7.9941Y6.6476
X7.9941Y4.0492
X7.9941Y1.4508
X8.0118Y9.0945
X8.0118Y6.4961
X8.0118Y3.8976
X8.0118Y1.2992
X8.02Y9.2281
X8.02Y6.6297
X8.02Y4.0313
X8.02Y1.4329
X8.0266Y9.4321
X8.0266Y6.8337
X8.0266Y4.2352
X8.0266Y1.6368
X8.0315Y8.8189
X8.0315Y6.2205
X8.0315Y3.622
X8.0315Y1.0236
X8.0402Y9.4617
X8.0402Y6.8633
X8.0402Y4.2649
X8.0402Y1.6665
X8.0416Y9.4935
X8.0416Y6.8951
X8.0416Y4.2966
X8.0416Y1.6982
X8.0454Y9.2936
X8.0454Y6.6952
X8.0454Y4.0967
X8.0454Y1.4983
X8.0512Y9.6654
X8.0512Y7.0669
X8.0512Y4.4685
X8.0512Y1.8701
X8.0561Y9.7372
X8.0561Y7.1388
X8.0561Y4.5403
X8.0561Y1.9419
X8.0591Y9.5197
X8.0591Y6.9213
X8.0591Y4.3228
X8.0591Y1.7244
X8.0614Y9.3208
X8.0614Y6.7224
X8.0614Y4.124
X8.0614Y1.5255
X8.063Y9.8031
X8.063Y7.2047
X8.063Y4.6063
X8.063Y2.0079
X8.0748Y9.4449
X8.0748Y6.8464
X8.0748Y4.248
X8.0748Y1.6496
X8.0836Y9.7765
X8.0836Y7.1781
X8.0836Y4.5797
X8.0836Y1.9813
X8.0927Y9.2952
X8.0927Y6.6967
X8.0927Y4.0983
X8.0927Y1.4999
X8.1102Y9.8056
X8.1102Y7.2071
X8.1102Y4.6087
X8.1102Y2.0103
X8.1168Y9.7494
X8.1168Y7.151
X8.1168Y4.5525
X8.1168Y1.9541
X8.126Y8.8976
X8.126Y6.2992
X8.126Y3.7008
X8.126Y1.1024
X8.1346Y9.0886
X8.1346Y6.4902
X8.1346Y3.8917
X8.1346Y1.2933
X8.1488Y8.727
X8.1488Y6.1285
X8.1488Y3.5301
X8.1488Y0.9317
X8.1575Y8.8898
X8.1575Y6.2913
X8.1575Y3.6929
X8.1575Y1.0945
X8.1732Y8.8155
X8.1732Y6.2171
X8.1732Y3.6187
X8.1732Y1.0203
X8.1804Y9.7629
X8.1804Y7.1644
X8.1804Y4.566
X8.1804Y1.9676
X8.1811Y9.685
X8.1811Y7.0866
X8.1811Y4.4882
X8.1811Y1.8898
X8.187Y8.757
X8.187Y6.1586
X8.187Y3.5602
X8.187Y0.9618
X8.1976Y9.1587
X8.1976Y6.5603
X8.1976Y3.9619
X8.1976Y1.3635
X8.2087Y8.6496
X8.2087Y6.0512
X8.2087Y3.4528
X8.2087Y0.8543
X8.2165Y9.185
X8.2165Y6.5866
X8.2165Y3.9882
X8.2165Y1.3898
X8.2195Y9.4596
X8.2195Y6.8612
X8.2195Y4.2628
X8.2195Y1.6643
X8.2278Y9.1496
X8.2278Y6.5512
X8.2278Y3.9528
X8.2278Y1.3543
X8.2381Y8.731
X8.2381Y6.1326
X8.2381Y3.5341
X8.2381Y0.9357
X8.2559Y8.6772
X8.2559Y6.0787
X8.2559Y3.4803
X8.2559Y0.8819
X8.268Y8.9801
X8.268Y6.3816
X8.268Y3.7832
X8.268Y1.1848
X8.2685Y9.1846
X8.2685Y6.5861
X8.2685Y3.9877
X8.2685Y1.3893
X8.2704Y8.7331
X8.2704Y6.1347
X8.2704Y3.5362
X8.2704Y0.9378
X8.2756Y9.7717
X8.2756Y7.1732
X8.2756Y4.5748
X8.2756Y1.9764
X8.2908Y9.1623
X8.2908Y6.5639
X8.2908Y3.9654
X8.2908Y1.367
X8.3025Y9.5748
X8.3025Y6.9764
X8.3025Y4.378
X8.3025Y1.7795
X8.3161Y9.1177
X8.3161Y6.5193
X8.3161Y3.9209
X8.3161Y1.3224
X8.3189Y9.9685
X8.3189Y9.874
X8.3189Y7.3701
X8.3189Y7.2756
X8.3189Y4.7717
X8.3189Y4.6772
X8.3189Y2.1732
X8.3189Y2.0787
X8.3301Y9.5597
X8.3301Y6.9613
X8.3301Y4.3629
X8.3301Y1.7644
X8.3386Y8.7402
X8.3386Y6.1417
X8.3386Y3.5433
X8.3386Y0.9449
X8.3504Y8.3228
X8.3504Y5.7244
X8.3504Y3.126
X8.3504Y0.5276
X8.3524Y9.5374
X8.3524Y6.939
X8.3524Y4.3406
X8.3524Y1.7422
X8.378Y9.1417
X8.378Y6.5433
X8.378Y3.9449
X8.378Y1.3465
X8.3799Y9.7874
X8.3799Y7.189
X8.3799Y4.5906
X8.3799Y1.9921
X8.4033Y9.251
X8.4033Y6.6526
X8.4033Y4.0542
X8.4033Y1.4557
X8.4108Y9.2816
X8.4108Y6.6832
X8.4108Y4.0847
X8.4108Y1.4863
X8.4213Y8.8189
X8.4213Y6.2205
X8.4213Y3.622
X8.4213Y1.0236
X8.4213Y8.937
X8.4213Y6.3386
X8.4213Y3.7402
X8.4213Y1.1417
X8.4306Y9.7885
X8.4306Y7.1901
X8.4306Y4.5916
X8.4306Y1.9932
X8.4488Y9.9685
X8.4488Y7.3701
X8.4488Y4.7717
X8.4488Y2.1732
X8.4521Y9.0399
X8.4521Y6.4415
X8.4521Y3.843
X8.4521Y1.2446
X8.4542Y8.9528
X8.4542Y6.3543
X8.4542Y3.7559
X8.4542Y1.1575
X8.4547Y9.8661
X8.4547Y7.2677
X8.4547Y4.6693
X8.4547Y2.0709
X8.4704Y9.0098
X8.4704Y6.4114
X8.4704Y3.8129
X8.4704Y1.2145
X8.5Y9.7677
X8.5Y7.1693
X8.5Y4.5709
X8.5Y1.9724
X8.5079Y9.063
X8.5079Y6.4646
X8.5079Y3.8661
X8.5079Y1.2677
X8.5315Y8.8346
X8.5315Y6.2362
X8.5315Y3.6378
X8.5315Y1.0394
X8.5787Y9.622
X8.5787Y7.0236
X8.5787Y4.4252
X8.5787Y1.8268
X8.5818Y9.7148
X8.5818Y7.1164
X8.5818Y4.518
X8.5818Y1.9196
X8.5945Y9.2205
X8.5945Y6.622
X8.5945Y4.0236
X8.5945Y1.4252
X8.5966Y9.9931
X8.5966Y7.3946
X8.5966Y4.7962
X8.5966Y2.1978
X8.622Y8.5236
X8.622Y5.9252
X8.622Y3.3268
X8.622Y0.7283
X8.6378Y9.6142
X8.6378Y7.0157
X8.6378Y4.4173
X8.6378Y1.8189
X8.6654Y10.1099
X8.6654Y7.5115
X8.6654Y4.9131
X8.6654Y2.3146
X8.6693Y9.4764
X8.6693Y6.878
X8.6693Y4.2795
X8.6693Y1.6811
X8.6736Y10.0374
X8.6736Y7.439
X8.6736Y4.8406
X8.6736Y2.2421
X8.685Y8.7008
X8.685Y6.1024
X8.685Y3.5039
X8.685Y0.9055
X8.6909Y8.876
X8.6909Y6.2776
X8.6909Y3.6791
X8.6909Y1.0807
X8.7165Y9.1535
X8.7165Y6.5551
X8.7165Y3.9567
X8.7165Y1.3583
X8.7933Y9.189
X8.7933Y6.5906
X8.7933Y3.9921
X8.7933Y1.3937
X8.795Y8.6454
X8.795Y6.047
X8.795Y3.4486
X8.795Y0.8501
X8.8071Y10.0118
X8.8071Y7.4134
X8.8071Y4.815
X8.8071Y2.2165
X8.8504Y9.248
X8.8504Y6.6496
X8.8504Y4.0512
X8.8504Y1.4528
X8.8622Y9.5472
X8.8622Y6.9488
X8.8622Y4.3504
X8.8622Y1.752
X8.8661Y8.8268
X8.8661Y6.2283
X8.8661Y3.6299
X8.8661Y1.0315
X8.8996Y9.7216
X8.8996Y7.1232
X8.8996Y4.5247
X8.8996Y1.9263
X8.9134Y9.0669
X8.9134Y6.4685
X8.9134Y3.8701
X8.9134Y1.2717
X8.9291Y8.8976
X8.9291Y6.2992
X8.9291Y3.7008
X8.9291Y1.1024
X8.9685Y9.7244
X8.9685Y7.126
X8.9685Y4.5276
X8.9685Y1.9291
X8.9859Y8.2313
X8.9859Y5.6328
X8.9859Y3.0344
X8.9859Y0.436
X9.0157Y8.7874
X9.0157Y8.7559
X9.0157Y6.189
X9.0157Y6.1575
X9.0157Y3.5906
X9.0157Y3.5591
X9.0157Y0.9921
X9.0157Y0.9606
X9.0601Y8.8532
X9.0601Y6.2548
X9.0601Y3.6564
X9.0601Y1.058
X9.061Y9.3626
X9.061Y6.7642
X9.061Y4.1657
X9.061Y1.5673
X9.0984Y10.1102
X9.0984Y7.5118
X9.0984Y4.9134
X9.0984Y2.315
X9.1339Y9.3819
X9.1339Y6.7835
X9.1339Y4.185
X9.1339Y1.5866
X9.166Y8.7428
X9.166Y6.1444
X9.166Y3.546
X9.166Y0.9475
X9.1676Y8.7743
X9.1676Y6.1759
X9.1676Y3.5774
X9.1676Y0.979
X9.1929Y8.0945
X9.1929Y5.4961
X9.1929Y2.8976
X9.1929Y0.2992
X9.2126Y8.8268
X9.2126Y6.2283
X9.2126Y3.6299
X9.2126Y1.0315
X9.2441Y9.7165
X9.2441Y7.1181
X9.2441Y4.5197
X9.2441Y1.9213
X9.252Y9.1535
X9.252Y6.5551
X9.252Y3.9567
X9.252Y1.3583
X9.2598Y8.7244
X9.2598Y6.126
X9.2598Y3.5276
X9.2598Y0.9291
X9.3031Y9.7362
X9.3031Y7.1378
X9.3031Y4.5394
X9.3031Y1.9409
X9.3543Y8.9921
X9.3543Y6.3937
X9.3543Y3.7953
X9.3543Y1.1969
X9.3694Y9.5057
X9.3694Y6.9073
X9.3694Y4.3088
X9.3694Y1.7104
X9.378Y9.2559
X9.378Y6.6575
X9.378Y4.0591
X9.378Y1.4606
X9.3782Y9.43
X9.3782Y6.8316
X9.3782Y4.2332
X9.3782Y1.6347
X9.3976Y9.5197
X9.3976Y6.9213
X9.3976Y4.3228
X9.3976Y1.7244
X9.4134Y8.3701
X9.4134Y5.7717
X9.4134Y3.1732
X9.4134Y0.5748
X9.4206Y9.4557
X9.4206Y6.8573
X9.4206Y4.2589
X9.4206Y1.6604
X9.4213Y9.0748
X9.4213Y6.4764
X9.4213Y3.878
X9.4213Y1.2795
X9.4252Y9.0276
X9.4252Y6.4291
X9.4252Y3.8307
X9.4252Y1.2323
X9.4331Y8.8169
X9.4331Y6.2185
X9.4331Y3.6201
X9.4331Y1.0217
X9.4343Y9.4841
X9.4343Y6.8856
X9.4343Y4.2872
X9.4343Y1.6888
X9.4508Y9.2461
X9.4508Y6.6476
X9.4508Y4.0492
X9.4508Y1.4508
X9.4685Y9.0945
X9.4685Y6.4961
X9.4685Y3.8976
X9.4685Y1.2992
X9.4767Y9.2281
X9.4767Y6.6297
X9.4767Y4.0313
X9.4767Y1.4329
X9.4833Y9.4321
X9.4833Y6.8337
X9.4833Y4.2352
X9.4833Y1.6368
X9.4882Y8.8189
X9.4882Y6.2205
X9.4882Y3.622
X9.4882Y1.0236
X9.4969Y9.4617
X9.4969Y6.8633
X9.4969Y4.2649
X9.4969Y1.6665
X9.4983Y9.4935
X9.4983Y6.8951
X9.4983Y4.2966
X9.4983Y1.6982
X9.5021Y9.2936
X9.5021Y6.6952
X9.5021Y4.0967
X9.5021Y1.4983
X9.5079Y9.6654
X9.5079Y7.0669
X9.5079Y4.4685
X9.5079Y1.8701
X9.5128Y9.7372
X9.5128Y7.1388
X9.5128Y4.5403
X9.5128Y1.9419
X9.5157Y9.5197
X9.5157Y6.9213
X9.5157Y4.3228
X9.5157Y1.7244
X9.5181Y9.3208
X9.5181Y6.7224
X9.5181Y4.124
X9.5181Y1.5255
X9.5197Y9.8031
X9.5197Y7.2047
X9.5197Y4.6063
X9.5197Y2.0079
X9.5315Y9.4449
X9.5315Y6.8464
X9.5315Y4.248
X9.5315Y1.6496
X9.5403Y9.7765
X9.5403Y7.1781
X9.5403Y4.5797
X9.5403Y1.9813
X9.5494Y9.2952
X9.5494Y6.6967
X9.5494Y4.0983
X9.5494Y1.4999
X9.5669Y9.8056
X9.5669Y7.2071
X9.5669Y4.6087
X9.5669Y2.0103
X9.5735Y9.7494
X9.5735Y7.151
X9.5735Y4.5525
X9.5735Y1.9541
X9.5827Y8.8976
X9.5827Y6.2992
X9.5827Y3.7008
X9.5827Y1.1024
X9.5913Y9.0886
X9.5913Y6.4902
X9.5913Y3.8917
X9.5913Y1.2933
X9.6055Y8.727
X9.6055Y6.1285
X9.6055Y3.5301
X9.6055Y0.9317
X9.6142Y8.8898
X9.6142Y6.2913
X9.6142Y3.6929
X9.6142Y1.0945
X9.6299Y8.8155
X9.6299Y6.2171
X9.6299Y3.6187
X9.6299Y1.0203
X9.6371Y9.7629
X9.6371Y7.1644
X9.6371Y4.566
X9.6371Y1.9676
X9.6378Y9.685
X9.6378Y7.0866
X9.6378Y4.4882
X9.6378Y1.8898
X9.6437Y8.757
X9.6437Y6.1586
X9.6437Y3.5602
X9.6437Y0.9618
X9.6543Y9.1587
X9.6543Y6.5603
X9.6543Y3.9619
X9.6543Y1.3635
X9.6654Y8.6496
X9.6654Y6.0512
X9.6654Y3.4528
X9.6654Y0.8543
X9.6732Y9.185
X9.6732Y6.5866
X9.6732Y3.9882
X9.6732Y1.3898
X9.6762Y9.4596
X9.6762Y6.8612
X9.6762Y4.2628
X9.6762Y1.6643
X9.6845Y9.1496
X9.6845Y6.5512
X9.6845Y3.9528
X9.6845Y1.3543
X9.6948Y8.731
X9.6948Y6.1326
X9.6948Y3.5341
X9.6948Y0.9357
X9.7126Y8.6772
X9.7126Y6.0787
X9.7126Y3.4803
X9.7126Y0.8819
X9.7247Y8.9801
X9.7247Y6.3816
X9.7247Y3.7832
X9.7247Y1.1848
X9.7252Y9.1846
X9.7252Y6.5861
X9.7252Y3.9877
X9.7252Y1.3893
X9.7271Y8.7331
X9.7271Y6.1347
X9.7271Y3.5362
X9.7271Y0.9378
X9.7323Y9.7717
X9.7323Y7.1732
X9.7323Y4.5748
X9.7323Y1.9764
X9.7475Y9.1623
X9.7475Y6.5639
X9.7475Y3.9654
X9.7475Y1.367
X9.7592Y9.5748
X9.7592Y6.9764
X9.7592Y4.378
X9.7592Y1.7795
X9.7728Y9.1177
X9.7728Y6.5193
X9.7728Y3.9209
X9.7728Y1.3224
X9.7756Y9.9685
X9.7756Y9.874
X9.7756Y7.3701
X9.7756Y7.2756
X9.7756Y4.7717
X9.7756Y4.6772
X9.7756Y2.1732
X9.7756Y2.0787
X9.7868Y9.5597
X9.7868Y6.9613
X9.7868Y4.3629
X9.7868Y1.7644
X9.7953Y8.7402
X9.7953Y6.1417
X9.7953Y3.5433
X9.7953Y0.9449
X9.8071Y8.3228
X9.8071Y5.7244
X9.8071Y3.126
X9.8071Y0.5276
X9.8091Y9.5374
X9.8091Y6.939
X9.8091Y4.3406
X9.8091Y1.7422
X9.8346Y9.1417
X9.8346Y6.5433
X9.8346Y3.9449
X9.8346Y1.3465
X9.8366Y9.7874
X9.8366Y7.189
X9.8366Y4.5906
X9.8366Y1.9921
X9.8599Y9.251
X9.8599Y6.6526
X9.8599Y4.0542
X9.8599Y1.4557
X9.8675Y9.2816
X9.8675Y6.6832
X9.8675Y4.0847
X9.8675Y1.4863
X9.878Y8.8189
X9.878Y6.2205
X9.878Y3.622
X9.878Y1.0236
X9.878Y8.937
X9.878Y6.3386
X9.878Y3.7402
X9.878Y1.1417
X9.8873Y9.7885
X9.8873Y7.1901
X9.8873Y4.5916
X9.8873Y1.9932
X9.9055Y9.9685
X9.9055Y7.3701
X9.9055Y4.7717
X9.9055Y2.1732
X9.9088Y9.0399
X9.9088Y6.4415
X9.9088Y3.843
X9.9088Y1.2446
X9.9109Y8.9528
X9.9109Y6.3543
X9.9109Y3.7559
X9.9109Y1.1575
X9.9114Y9.8661
X9.9114Y7.2677
X9.9114Y4.6693
X9.9114Y2.0709
X9.9271Y9.0098
X9.9271Y6.4114
X9.9271Y3.8129
X9.9271Y1.2145
X9.9567Y9.7677
X9.9567Y7.1693
X9.9567Y4.5709
X9.9567Y1.9724
X9.9646Y9.063
X9.9646Y6.4646
X9.9646Y3.8661
X9.9646Y1.2677
X9.9882Y8.8346
X9.9882Y6.2362
X9.9882Y3.6378
X9.9882Y1.0394
X10.0354Y9.622
X10.0354Y7.0236
X10.0354Y4.4252
X10.0354Y1.8268
X10.0385Y9.7148
X10.0385Y7.1164
X10.0385Y4.518
X10.0385Y1.9196
X10.0512Y9.2205
X10.0512Y6.622
X10.0512Y4.0236
X10.0512Y1.4252
X10.0533Y9.9931
X10.0533Y7.3946
X10.0533Y4.7962
X10.0533Y2.1978
X10.0787Y8.5236
X10.0787Y5.9252
X10.0787Y3.3268
X10.0787Y0.7283
X10.0945Y9.6142
X10.0945Y7.0157
X10.0945Y4.4173
X10.0945Y1.8189
X10.122Y10.1099
X10.122Y7.5115
X10.122Y4.9131
X10.122Y2.3146
X10.126Y9.4764
X10.126Y6.878
X10.126Y4.2795
X10.126Y1.6811
X10.1303Y10.0374
X10.1303Y7.439
X10.1303Y4.8406
X10.1303Y2.2421
X10.1417Y8.7008
X10.1417Y6.1024
X10.1417Y3.5039
X10.1417Y0.9055
X10.1476Y8.876
X10.1476Y6.2776
X10.1476Y3.6791
X10.1476Y1.0807
X10.1732Y9.1535
X10.1732Y6.5551
X10.1732Y3.9567
X10.1732Y1.3583
X10.25Y9.189
X10.25Y6.5906
X10.25Y3.9921
X10.25Y1.3937
X10.2517Y8.6454
X10.2517Y6.047
X10.2517Y3.4486
X10.2517Y0.8501
X10.2638Y10.0118
X10.2638Y7.4134
X10.2638Y4.815
X10.2638Y2.2165
X10.3071Y9.248
X10.3071Y6.6496
X10.3071Y4.0512
X10.3071Y1.4528
X10.3189Y9.5472
X10.3189Y6.9488
X10.3189Y4.3504
X10.3189Y1.752
X10.3228Y8.8268
X10.3228Y6.2283
X10.3228Y3.6299
X10.3228Y1.0315
X10.3563Y9.7216
X10.3563Y7.1232
X10.3563Y4.5247
X10.3563Y1.9263
X10.3701Y9.0669
X10.3701Y6.4685
X10.3701Y3.8701
X10.3701Y1.2717
X10.3858Y8.8976
X10.3858Y6.2992
X10.3858Y3.7008
X10.3858Y1.1024
X10.4252Y9.7244
X10.4252Y7.126
X10.4252Y4.5276
X10.4252Y1.9291
X10.4426Y8.2313
X10.4426Y5.6328
X10.4426Y3.0344
X10.4426Y0.436
X10.4724Y8.7874
X10.4724Y8.7559
X10.4724Y6.189
X10.4724Y6.1575
X10.4724Y3.5906
X10.4724Y3.5591
X10.4724Y0.9921
X10.4724Y0.9606
X10.5168Y8.8532
X10.5168Y6.2548
X10.5168Y3.6564
X10.5168Y1.058
X10.5177Y9.3626
X10.5177Y6.7642
X10.5177Y4.1657
X10.5177Y1.5673
X10.5551Y10.1102
X10.5551Y7.5118
X10.5551Y4.9134
X10.5551Y2.315
X10.5906Y9.3819
X10.5906Y6.7835
X10.5906Y4.185
X10.5906Y1.5866
X10.6227Y8.7428
X10.6227Y6.1444
X10.6227Y3.546
X10.6227Y0.9475
X10.6243Y8.7743
X10.6243Y6.1759
X10.6243Y3.5774
X10.6243Y0.979
X10.6496Y8.0945
X10.6496Y5.4961
X10.6496Y2.8976
X10.6496Y0.2992
X10.6693Y8.8268
X10.6693Y6.2283
X10.6693Y3.6299
X10.6693Y1.0315
X10.7008Y9.7165
X10.7008Y7.1181
X10.7008Y4.5197
X10.7008Y1.9213
X10.7087Y9.1535
X10.7087Y6.5551
X10.7087Y3.9567
X10.7087Y1.3583
X10.7165Y8.7244
X10.7165Y6.126
X10.7165Y3.5276
X10.7165Y0.9291
X10.7598Y9.7362
X10.7598Y7.1378
X10.7598Y4.5394
X10.7598Y1.9409
X10.811Y8.9921
X10.811Y6.3937
X10.811Y3.7953
X10.811Y1.1969
X10.8261Y9.5057
X10.8261Y6.9073
X10.8261Y4.3088
X10.8261Y1.7104
X10.8346Y9.2559
X10.8346Y6.6575
X10.8346Y4.0591
X10.8346Y1.4606
X10.8349Y9.43
X10.8349Y6.8316
X10.8349Y4.2332
X10.8349Y1.6347
X10.8543Y9.5197
X10.8543Y6.9213
X10.8543Y4.3228
X10.8543Y1.7244
X10.8701Y8.3701
X10.8701Y5.7717
X10.8701Y3.1732
X10.8701Y0.5748
X10.8773Y9.4557
X10.8773Y6.8573
X10.8773Y4.2589
X10.8773Y1.6604
X10.878Y9.0748
X10.878Y6.4764
X10.878Y3.878
X10.878Y1.2795
X10.8819Y9.0276
X10.8819Y6.4291
X10.8819Y3.8307
X10.8819Y1.2323
X10.8898Y8.8169
X10.8898Y6.2185
X10.8898Y3.6201
X10.8898Y1.0217
X10.891Y9.4841
X10.891Y6.8856
X10.891Y4.2872
X10.891Y1.6888
X10.9075Y9.2461
X10.9075Y6.6476
X10.9075Y4.0492
X10.9075Y1.4508
X10.9252Y9.0945
X10.9252Y6.4961
X10.9252Y3.8976
X10.9252Y1.2992
X10.9334Y9.2281
X10.9334Y6.6297
X10.9334Y4.0313
X10.9334Y1.4329
X10.94Y9.4321
X10.94Y6.8337
X10.94Y4.2352
X10.94Y1.6368
X10.9449Y8.8189
X10.9449Y6.2205
X10.9449Y3.622
X10.9449Y1.0236
X10.9536Y9.4617
X10.9536Y6.8633
X10.9536Y4.2649
X10.9536Y1.6665
X10.955Y9.4935
X10.955Y6.8951
X10.955Y4.2966
X10.955Y1.6982
X10.9588Y9.2936
X10.9588Y6.6952
X10.9588Y4.0967
X10.9588Y1.4983
X10.9646Y9.6654
X10.9646Y7.0669
X10.9646Y4.4685
X10.9646Y1.8701
X10.9695Y9.7372
X10.9695Y7.1388
X10.9695Y4.5403
X10.9695Y1.9419
X10.9724Y9.5197
X10.9724Y6.9213
X10.9724Y4.3228
X10.9724Y1.7244
X10.9748Y9.3208
X10.9748Y6.7224
X10.9748Y4.124
X10.9748Y1.5255
X10.9764Y9.8031
X10.9764Y7.2047
X10.9764Y4.6063
X10.9764Y2.0079
X10.9882Y9.4449
X10.9882Y6.8464
X10.9882Y4.248
X10.9882Y1.6496
X10.997Y9.7765
X10.997Y7.1781
X10.997Y4.5797
X10.997Y1.9813
X11.0061Y9.2952
X11.0061Y6.6967
X11.0061Y4.0983
X11.0061Y1.4999
X11.0236Y9.8056
X11.0236Y7.2071
X11.0236Y4.6087
X11.0236Y2.0103
X11.0302Y9.7494
X11.0302Y7.151
X11.0302Y4.5525
X11.0302Y1.9541
X11.0394Y8.8976
X11.0394Y6.2992
X11.0394Y3.7008
X11.0394Y1.1024
X11.0479Y9.0886
X11.0479Y6.4902
X11.0479Y3.8917
X11.0479Y1.2933
X11.0622Y8.727
X11.0622Y6.1285
X11.0622Y3.5301
X11.0622Y0.9317
X11.0709Y8.8898
X11.0709Y6.2913
X11.0709Y3.6929
X11.0709Y1.0945
X11.0866Y8.8155
X11.0866Y6.2171
X11.0866Y3.6187
X11.0866Y1.0203
X11.0938Y9.7629
X11.0938Y7.1644
X11.0938Y4.566
X11.0938Y1.9676
X11.0945Y9.685
X11.0945Y7.0866
X11.0945Y4.4882
X11.0945Y1.8898
X11.1004Y8.757
X11.1004Y6.1586
X11.1004Y3.5602
X11.1004Y0.9618
X11.111Y9.1587
X11.111Y6.5603
X11.111Y3.9619
X11.111Y1.3635
X11.122Y8.6496
X11.122Y6.0512
X11.122Y3.4528
X11.122Y0.8543
X11.1299Y9.185
X11.1299Y6.5866
X11.1299Y3.9882
X11.1299Y1.3898
X11.1328Y9.4596
X11.1328Y6.8612
X11.1328Y4.2628
X11.1328Y1.6643
X11.1412Y9.1496
X11.1412Y6.5512
X11.1412Y3.9528
X11.1412Y1.3543
X11.1515Y8.731
X11.1515Y6.1326
X11.1515Y3.5341
X11.1515Y0.9357
X11.1693Y8.6772
X11.1693Y6.0787
X11.1693Y3.4803
X11.1693Y0.8819
X11.1814Y8.9801
X11.1814Y6.3816
X11.1814Y3.7832
X11.1814Y1.1848
X11.1819Y9.1846
X11.1819Y6.5861
X11.1819Y3.9877
X11.1819Y1.3893
X11.1838Y8.7331
X11.1838Y6.1347
X11.1838Y3.5362
X11.1838Y0.9378
X11.189Y9.7717
X11.189Y7.1732
X11.189Y4.5748
X11.189Y1.9764
X11.2042Y9.1623
X11.2042Y6.5639
X11.2042Y3.9654
X11.2042Y1.367
X11.2159Y9.5748
X11.2159Y6.9764
X11.2159Y4.378
X11.2159Y1.7795
X11.2295Y9.1177
X11.2295Y6.5193
X11.2295Y3.9209
X11.2295Y1.3224
X11.2323Y9.9685
X11.2323Y9.874
X11.2323Y7.3701
X11.2323Y7.2756
X11.2323Y4.7717
X11.2323Y4.6772
X11.2323Y2.1732
X11.2323Y2.0787
X11.2435Y9.5597
X11.2435Y6.9613
X11.2435Y4.3629
X11.2435Y1.7644
X11.252Y8.7402
X11.252Y6.1417
X11.252Y3.5433
X11.252Y0.9449
X11.2638Y8.3228
X11.2638Y5.7244
X11.2638Y3.126
X11.2638Y0.5276
X11.2658Y9.5374
X11.2658Y6.939
X11.2658Y4.3406
X11.2658Y1.7422
X11.2913Y9.1417
X11.2913Y6.5433
X11.2913Y3.9449
X11.2913Y1.3465
X11.2933Y9.7874
X11.2933Y7.189
X11.2933Y4.5906
X11.2933Y1.9921
X11.3166Y9.251
X11.3166Y6.6526
X11.3166Y4.0542
X11.3166Y1.4557
X11.3242Y9.2816
X11.3242Y6.6832
X11.3242Y4.0847
X11.3242Y1.4863
X11.3346Y8.8189
X11.3346Y6.2205
X11.3346Y3.622
X11.3346Y1.0236
X11.3346Y8.937
X11.3346Y6.3386
X11.3346Y3.7402
X11.3346Y1.1417
X11.344Y9.7885
X11.344Y7.1901
X11.344Y4.5916
X11.344Y1.9932
X11.3622Y9.9685
X11.3622Y7.3701
X11.3622Y4.7717
X11.3622Y2.1732
X11.3655Y9.0399
X11.3655Y6.4415
X11.3655Y3.843
X11.3655Y1.2446
X11.3676Y8.9528
X11.3676Y6.3543
X11.3676Y3.7559
X11.3676Y1.1575
X11.3681Y9.8661
X11.3681Y7.2677
X11.3681Y4.6693
X11.3681Y2.0709
X11.3838Y9.0098
X11.3838Y6.4114
X11.3838Y3.8129
X11.3838Y1.2145
X11.4134Y9.7677
X11.4134Y7.1693
X11.4134Y4.5709
X11.4134Y1.9724
X11.4213Y9.063
X11.4213Y6.4646
X11.4213Y3.8661
X11.4213Y1.2677
X11.4449Y8.8346
X11.4449Y6.2362
X11.4449Y3.6378
X11.4449Y1.0394
X11.4921Y9.622
X11.4921Y7.0236
X11.4921Y4.4252
X11.4921Y1.8268
X11.4952Y9.7148
X11.4952Y7.1164
X11.4952Y4.518
X11.4952Y1.9196
X11.5079Y9.2205
X11.5079Y6.622
X11.5079Y4.0236
X11.5079Y1.4252
X11.51Y9.9931
X11.51Y7.3946
X11.51Y4.7962
X11.51Y2.1978
X11.5354Y8.5236
X11.5354Y5.9252
X11.5354Y3.3268
X11.5354Y0.7283
X11.5512Y9.6142
X11.5512Y7.0157
X11.5512Y4.4173
X11.5512Y1.8189
X11.5787Y10.1099
X11.5787Y7.5115
X11.5787Y4.9131
X11.5787Y2.3146
X11.5827Y9.4764
X11.5827Y6.878
X11.5827Y4.2795
X11.5827Y1.6811
X11.587Y10.0374
X11.587Y7.439
X11.587Y4.8406
X11.587Y2.2421
X11.5984Y8.7008
X11.5984Y6.1024
X11.5984Y3.5039
X11.5984Y0.9055
X11.6043Y8.876
X11.6043Y6.2776
X11.6043Y3.6791
X11.6043Y1.0807
X11.6299Y9.1535
X11.6299Y6.5551
X11.6299Y3.9567
X11.6299Y1.3583
T2
X1.4137Y10.1267
X1.4137Y7.5283
X1.4137Y4.9298
X1.4137Y2.3314
X2.8704Y10.1267
X2.8704Y7.5283
X2.8704Y4.9298
X2.8704Y2.3314
X4.3271Y10.1267
X4.3271Y7.5283
X4.3271Y4.9298
X4.3271Y2.3314
X5.7837Y10.1267
X5.7837Y7.5283
X5.7837Y4.9298
X5.7837Y2.3314
X7.2404Y10.1267
X7.2404Y7.5283
X7.2404Y4.9298
X7.2404Y2.3314
X8.6971Y10.1267
X8.6971Y7.5283
X8.6971Y4.9298
X8.6971Y2.3314
X10.1538Y10.1267
X10.1538Y7.5283
X10.1538Y4.9298
X10.1538Y2.3314
X11.6105Y10.1267
X11.6105Y7.5283
X11.6105Y4.9298
X11.6105Y2.3314
T3
X0.2717Y8.3504
X0.2717Y5.752
X0.2717Y3.1535
X0.2717Y0.5551
X0.3465Y8.3386
X0.3465Y5.7402
X0.3465Y3.1417
X0.3465Y0.5433
X0.622Y8.7165
X0.622Y6.1181
X0.622Y3.5197
X0.622Y0.9213
X0.7677Y7.9134
X0.7677Y5.315
X0.7677Y2.7165
X0.7677Y0.1181
X0.7913Y7.9921
X0.7913Y7.8583
X0.7913Y5.3937
X0.7913Y5.2598
X0.7913Y2.7953
X0.7913Y2.6614
X0.7913Y0.1969
X0.7913Y0.063
X0.811Y7.9134
X0.811Y5.315
X0.811Y2.7165
X0.811Y0.1181
X0.8228Y7.8225
X0.8228Y5.2241
X0.8228Y2.6257
X0.8228Y0.0272
X0.8661Y7.8225
X0.8661Y5.2241
X0.8661Y2.6257
X0.8661Y0.0272
X0.9094Y7.8225
X0.9094Y5.2241
X0.9094Y2.6257
X0.9094Y0.0272
X1.0984Y8.7559
X1.0984Y6.1575
X1.0984Y3.5591
X1.0984Y0.9606
X1.126Y8.6732
X1.126Y6.0748
X1.126Y3.4764
X1.126Y0.878
X1.1378Y8.4331
X1.1378Y5.8346
X1.1378Y3.2362
X1.1378Y0.6378
X1.3898Y7.9882
X1.3898Y7.8583
X1.3898Y5.3898
X1.3898Y5.2598
X1.3898Y2.7913
X1.3898Y2.6614
X1.3898Y0.1929
X1.3898Y0.063
X1.7283Y8.3504
X1.7283Y5.752
X1.7283Y3.1535
X1.7283Y0.5551
X1.8031Y8.3386
X1.8031Y5.7402
X1.8031Y3.1417
X1.8031Y0.5433
X2.0787Y8.7165
X2.0787Y6.1181
X2.0787Y3.5197
X2.0787Y0.9213
X2.2244Y7.9134
X2.2244Y5.315
X2.2244Y2.7165
X2.2244Y0.1181
X2.248Y7.9921
X2.248Y7.8583
X2.248Y5.3937
X2.248Y5.2598
X2.248Y2.7953
X2.248Y2.6614
X2.248Y0.1969
X2.248Y0.063
X2.2677Y7.9134
X2.2677Y5.315
X2.2677Y2.7165
X2.2677Y0.1181
X2.2795Y7.8225
X2.2795Y5.2241
X2.2795Y2.6257
X2.2795Y0.0272
X2.3228Y7.8225
X2.3228Y5.2241
X2.3228Y2.6257
X2.3228Y0.0272
X2.3661Y7.8225
X2.3661Y5.2241
X2.3661Y2.6257
X2.3661Y0.0272
X2.5551Y8.7559
X2.5551Y6.1575
X2.5551Y3.5591
X2.5551Y0.9606
X2.5827Y8.6732
X2.5827Y6.0748
X2.5827Y3.4764
X2.5827Y0.878
X2.5945Y8.4331
X2.5945Y5.8346
X2.5945Y3.2362
X2.5945Y0.6378
X2.8465Y7.9882
X2.8465Y7.8583
X2.8465Y5.3898
X2.8465Y5.2598
X2.8465Y2.7913
X2.8465Y2.6614
X2.8465Y0.1929
X2.8465Y0.063
X3.185Y8.3504
X3.185Y5.752
X3.185Y3.1535
X3.185Y0.5551
X3.2598Y8.3386
X3.2598Y5.7402
X3.2598Y3.1417
X3.2598Y0.5433
X3.5354Y8.7165
X3.5354Y6.1181
X3.5354Y3.5197
X3.5354Y0.9213
X3.6811Y7.9134
X3.6811Y5.315
X3.6811Y2.7165
X3.6811Y0.1181
X3.7047Y7.9921
X3.7047Y7.8583
X3.7047Y5.3937
X3.7047Y5.2598
X3.7047Y2.7953
X3.7047Y2.6614
X3.7047Y0.1969
X3.7047Y0.063
X3.7244Y7.9134
X3.7244Y5.315
X3.7244Y2.7165
X3.7244Y0.1181
X3.7362Y7.8225
X3.7362Y5.2241
X3.7362Y2.6257
X3.7362Y0.0272
X3.7795Y7.8225
X3.7795Y5.2241
X3.7795Y2.6257
X3.7795Y0.0272
X3.8228Y7.8225
X3.8228Y5.2241
X3.8228Y2.6257
X3.8228Y0.0272
X4.0118Y8.7559
X4.0118Y6.1575
X4.0118Y3.5591
X4.0118Y0.9606
X4.0394Y8.6732
X4.0394Y6.0748
X4.0394Y3.4764
X4.0394Y0.878
X4.0512Y8.4331
X4.0512Y5.8346
X4.0512Y3.2362
X4.0512Y0.6378
X4.3031Y7.9882
X4.3031Y7.8583
X4.3031Y5.3898
X4.3031Y5.2598
X4.3031Y2.7913
X4.3031Y2.6614
X4.3031Y0.1929
X4.3031Y0.063
X4.6417Y8.3504
X4.6417Y5.752
X4.6417Y3.1535
X4.6417Y0.5551
X4.7165Y8.3386
X4.7165Y5.7402
X4.7165Y3.1417
X4.7165Y0.5433
X4.9921Y8.7165
X4.9921Y6.1181
X4.9921Y3.5197
X4.9921Y0.9213
X5.1378Y7.9134
X5.1378Y5.315
X5.1378Y2.7165
X5.1378Y0.1181
X5.1614Y7.9921
X5.1614Y7.8583
X5.1614Y5.3937
X5.1614Y5.2598
X5.1614Y2.7953
X5.1614Y2.6614
X5.1614Y0.1969
X5.1614Y0.063
X5.1811Y7.9134
X5.1811Y5.315
X5.1811Y2.7165
X5.1811Y0.1181
X5.1929Y7.8225
X5.1929Y5.2241
X5.1929Y2.6257
X5.1929Y0.0272
X5.2362Y7.8225
X5.2362Y5.2241
X5.2362Y2.6257
X5.2362Y0.0272
X5.2795Y7.8225
X5.2795Y5.2241
X5.2795Y2.6257
X5.2795Y0.0272
X5.4685Y8.7559
X5.4685Y6.1575
X5.4685Y3.5591
X5.4685Y0.9606
X5.4961Y8.6732
X5.4961Y6.0748
X5.4961Y3.4764
X5.4961Y0.878
X5.5079Y8.4331
X5.5079Y5.8346
X5.5079Y3.2362
X5.5079Y0.6378
X5.7598Y7.9882
X5.7598Y7.8583
X5.7598Y5.3898
X5.7598Y5.2598
X5.7598Y2.7913
X5.7598Y2.6614
X5.7598Y0.1929
X5.7598Y0.063
X6.0984Y8.3504
X6.0984Y5.752
X6.0984Y3.1535
X6.0984Y0.5551
X6.1732Y8.3386
X6.1732Y5.7402
X6.1732Y3.1417
X6.1732Y0.5433
X6.4488Y8.7165
X6.4488Y6.1181
X6.4488Y3.5197
X6.4488Y0.9213
X6.5945Y7.9134
X6.5945Y5.315
X6.5945Y2.7165
X6.5945Y0.1181
X6.6181Y7.9921
X6.6181Y7.8583
X6.6181Y5.3937
X6.6181Y5.2598
X6.6181Y2.7953
X6.6181Y2.6614
X6.6181Y0.1969
X6.6181Y0.063
X6.6378Y7.9134
X6.6378Y5.315
X6.6378Y2.7165
X6.6378Y0.1181
X6.6496Y7.8225
X6.6496Y5.2241
X6.6496Y2.6257
X6.6496Y0.0272
X6.6929Y7.8225
X6.6929Y5.2241
X6.6929Y2.6257
X6.6929Y0.0272
X6.7362Y7.8225
X6.7362Y5.2241
X6.7362Y2.6257
X6.7362Y0.0272
X6.9252Y8.7559
X6.9252Y6.1575
X6.9252Y3.5591
X6.9252Y0.9606
X6.9528Y8.6732
X6.9528Y6.0748
X6.9528Y3.4764
X6.9528Y0.878
X6.9646Y8.4331
X6.9646Y5.8346
X6.9646Y3.2362
X6.9646Y0.6378
X7.2165Y7.9882
X7.2165Y7.8583
X7.2165Y5.3898
X7.2165Y5.2598
X7.2165Y2.7913
X7.2165Y2.6614
X7.2165Y0.1929
X7.2165Y0.063
X7.5551Y8.3504
X7.5551Y5.752
X7.5551Y3.1535
X7.5551Y0.5551
X7.6299Y8.3386
X7.6299Y5.7402
X7.6299Y3.1417
X7.6299Y0.5433
X7.9055Y8.7165
X7.9055Y6.1181
X7.9055Y3.5197
X7.9055Y0.9213
X8.0512Y7.9134
X8.0512Y5.315
X8.0512Y2.7165
X8.0512Y0.1181
X8.0748Y7.9921
X8.0748Y7.8583
X8.0748Y5.3937
X8.0748Y5.2598
X8.0748Y2.7953
X8.0748Y2.6614
X8.0748Y0.1969
X8.0748Y0.063
X8.0945Y7.9134
X8.0945Y5.315
X8.0945Y2.7165
X8.0945Y0.1181
X8.1063Y7.8225
X8.1063Y5.2241
X8.1063Y2.6257
X8.1063Y0.0272
X8.1496Y7.8225
X8.1496Y5.2241
X8.1496Y2.6257
X8.1496Y0.0272
X8.1929Y7.8225
X8.1929Y5.2241
X8.1929Y2.6257
X8.1929Y0.0272
X8.3819Y8.7559
X8.3819Y6.1575
X8.3819Y3.5591
X8.3819Y0.9606
X8.4094Y8.6732
X8.4094Y6.0748
X8.4094Y3.4764
X8.4094Y0.878
X8.4213Y8.4331
X8.4213Y5.8346
X8.4213Y3.2362
X8.4213Y0.6378
X8.6732Y7.9882
X8.6732Y7.8583
X8.6732Y5.3898
X8.6732Y5.2598
X8.6732Y2.7913
X8.6732Y2.6614
X8.6732Y0.1929
X8.6732Y0.063
X9.0118Y8.3504
X9.0118Y5.752
X9.0118Y3.1535
X9.0118Y0.5551
X9.0866Y8.3386
X9.0866Y5.7402
X9.0866Y3.1417
X9.0866Y0.5433
X9.3622Y8.7165
X9.3622Y6.1181
X9.3622Y3.5197
X9.3622Y0.9213
X9.5079Y7.9134
X9.5079Y5.315
X9.5079Y2.7165
X9.5079Y0.1181
X9.5315Y7.9921
X9.5315Y7.8583
X9.5315Y5.3937
X9.5315Y5.2598
X9.5315Y2.7953
X9.5315Y2.6614
X9.5315Y0.1969
X9.5315Y0.063
X9.5512Y7.9134
X9.5512Y5.315
X9.5512Y2.7165
X9.5512Y0.1181
X9.563Y7.8225
X9.563Y5.2241
X9.563Y2.6257
X9.563Y0.0272
X9.6063Y7.8225
X9.6063Y5.2241
X9.6063Y2.6257
X9.6063Y0.0272
X9.6496Y7.8225
X9.6496Y5.2241
X9.6496Y2.6257
X9.6496Y0.0272
X9.8386Y8.7559
X9.8386Y6.1575
X9.8386Y3.5591
X9.8386Y0.9606
X9.8661Y8.6732
X9.8661Y6.0748
X9.8661Y3.4764
X9.8661Y0.878
X9.878Y8.4331
X9.878Y5.8346
X9.878Y3.2362
X9.878Y0.6378
X10.1299Y7.9882
X10.1299Y7.8583
X10.1299Y5.3898
X10.1299Y5.2598
X10.1299Y2.7913
X10.1299Y2.6614
X10.1299Y0.1929
X10.1299Y0.063
X10.4685Y8.3504
X10.4685Y5.752
X10.4685Y3.1535
X10.4685Y0.5551
X10.5433Y8.3386
X10.5433Y5.7402
X10.5433Y3.1417
X10.5433Y0.5433
X10.8189Y8.7165
X10.8189Y6.1181
X10.8189Y3.5197
X10.8189Y0.9213
X10.9646Y7.9134
X10.9646Y5.315
X10.9646Y2.7165
X10.9646Y0.1181
X10.9882Y7.9921
X10.9882Y7.8583
X10.9882Y5.3937
X10.9882Y5.2598
X10.9882Y2.7953
X10.9882Y2.6614
X10.9882Y0.1969
X10.9882Y0.063
X11.0079Y7.9134
X11.0079Y5.315
X11.0079Y2.7165
X11.0079Y0.1181
X11.0197Y7.8225
X11.0197Y5.2241
X11.0197Y2.6257
X11.0197Y0.0272
X11.063Y7.8225
X11.063Y5.2241
X11.063Y2.6257
X11.063Y0.0272
X11.1063Y7.8225
X11.1063Y5.2241
X11.1063Y2.6257
X11.1063Y0.0272
X11.2953Y8.7559
X11.2953Y6.1575
X11.2953Y3.5591
X11.2953Y0.9606
X11.3228Y8.6732
X11.3228Y6.0748
X11.3228Y3.4764
X11.3228Y0.878
X11.3346Y8.4331
X11.3346Y5.8346
X11.3346Y3.2362
X11.3346Y0.6378
X11.5866Y7.9882
X11.5866Y7.8583
X11.5866Y5.3898
X11.5866Y5.2598
X11.5866Y2.7913
X11.5866Y2.6614
X11.5866Y0.1929
X11.5866Y0.063
X1.2598Y5.8071
X1.2598Y5.7579
X1.2598Y5.7087
X1.2598Y5.6594
X1.2598Y5.6102
X4.1732Y8.4055
X4.1732Y8.3563
X4.1732Y8.3071
X4.1732Y8.2579
X4.1732Y8.2087
X11.4567Y8.4055
X11.4567Y8.3563
X11.4567Y8.3071
X11.4567Y8.2579
X11.4567Y8.2087
X10.0Y8.4055
X10.0Y8.3563
X10.0Y8.3071
X10.0Y8.2579
X10.0Y8.2087
X11.4567Y0.6102
X11.4567Y0.561
X11.4567Y0.5118
X11.4567Y0.4626
X11.4567Y0.4134
X8.5433Y3.2087
X8.5433Y3.1594
X8.5433Y3.1102
X8.5433Y3.061
X8.5433Y3.0118
X11.4567Y5.8071
X11.4567Y5.7579
X11.4567Y5.7087
X11.4567Y5.6594
X11.4567Y5.6102
X4.1732Y0.6102
X4.1732Y0.561
X4.1732Y0.5118
X4.1732Y0.4626
X4.1732Y0.4134
X4.1732Y5.8071
X4.1732Y5.7579
X4.1732Y5.7087
X4.1732Y5.6594
X4.1732Y5.6102
X10.0Y0.6102
X10.0Y0.561
X10.0Y0.5118
X10.0Y0.4626
X10.0Y0.4134
X4.1732Y3.2087
X4.1732Y3.1594
X4.1732Y3.1102
X4.1732Y3.061
X4.1732Y3.0118
X8.5433Y0.6102
X8.5433Y0.561
X8.5433Y0.5118
X8.5433Y0.4626
X8.5433Y0.4134
X8.5433Y8.4055
X8.5433Y8.3563
X8.5433Y8.3071
X8.5433Y8.2579
X8.5433Y8.2087
X7.0866Y5.8071
X7.0866Y5.7579
X7.0866Y5.7087
X7.0866Y5.6594
X7.0866Y5.6102
X8.5433Y5.8071
X8.5433Y5.7579
X8.5433Y5.7087
X8.5433Y5.6594
X8.5433Y5.6102
X7.0866Y0.6102
X7.0866Y0.561
X7.0866Y0.5118
X7.0866Y0.4626
X7.0866Y0.4134
X1.2598Y3.2087
X1.2598Y3.1594
X1.2598Y3.1102
X1.2598Y3.061
X1.2598Y3.0118
X10.0Y5.8071
X10.0Y5.7579
X10.0Y5.7087
X10.0Y5.6594
X10.0Y5.6102
X5.6299Y8.4055
X5.6299Y8.3563
X5.6299Y8.3071
X5.6299Y8.2579
X5.6299Y8.2087
X5.6299Y5.8071
X5.6299Y5.7579
X5.6299Y5.7087
X5.6299Y5.6594
X5.6299Y5.6102
X1.2598Y8.4055
X1.2598Y8.3563
X1.2598Y8.3071
X1.2598Y8.2579
X1.2598Y8.2087
X2.7165Y0.6102
X2.7165Y0.561
X2.7165Y0.5118
X2.7165Y0.4626
X2.7165Y0.4134
X10.0Y3.2087
X10.0Y3.1594
X10.0Y3.1102
X10.0Y3.061
X10.0Y3.0118
X2.7165Y8.4055
X2.7165Y8.3563
X2.7165Y8.3071
X2.7165Y8.2579
X2.7165Y8.2087
X5.6299Y0.6102
X5.6299Y0.561
X5.6299Y0.5118
X5.6299Y0.4626
X5.6299Y0.4134
X2.7165Y5.8071
X2.7165Y5.7579
X2.7165Y5.7087
X2.7165Y5.6594
X2.7165Y5.6102
X7.0866Y8.4055
X7.0866Y8.3563
X7.0866Y8.3071
X7.0866Y8.2579
X7.0866Y8.2087
X11.4567Y3.2087
X11.4567Y3.1594
X11.4567Y3.1102
X11.4567Y3.061
X11.4567Y3.0118
X5.6299Y3.2087
X5.6299Y3.1594
X5.6299Y3.1102
X5.6299Y3.061
X5.6299Y3.0118
X2.7165Y3.2087
X2.7165Y3.1594
X2.7165Y3.1102
X2.7165Y3.061
X2.7165Y3.0118
X1.2598Y0.6102
X1.2598Y0.561
X1.2598Y0.5118
X1.2598Y0.4626
X1.2598Y0.4134
X7.0866Y3.2087
X7.0866Y3.1594
X7.0866Y3.1102
X7.0866Y3.061
X7.0866Y3.0118
T4
X0.0315Y8.4685
X0.0315Y5.8701
X0.0315Y3.2717
X0.0315Y0.6732
X0.063Y9.126
X0.063Y6.5276
X0.063Y3.9291
X0.063Y1.3307
X0.1024Y9.7559
X0.1024Y7.1575
X0.1024Y4.5591
X0.1024Y1.9606
X0.1417Y9.0
X0.1417Y6.4016
X0.1417Y3.8031
X0.1417Y1.2047
X0.2992Y8.8189
X0.2992Y6.2205
X0.2992Y3.622
X0.2992Y1.0236
X0.4331Y8.8189
X0.4331Y6.2205
X0.4331Y3.622
X0.4331Y1.0236
X0.4417Y8.4835
X0.4417Y5.885
X0.4417Y3.2866
X0.4417Y0.6882
X0.4882Y7.8268
X0.4882Y5.2283
X0.4882Y2.6299
X0.4882Y0.0315
X0.4885Y8.073
X0.4885Y5.4746
X0.4885Y2.8762
X0.4885Y0.2777
X0.4921Y8.378
X0.4921Y5.7795
X0.4921Y3.1811
X0.4921Y0.5827
X0.5157Y8.0394
X0.5157Y5.4409
X0.5157Y2.8425
X0.5157Y0.2441
X0.7076Y7.8608
X0.7076Y5.2624
X0.7076Y2.664
X0.7076Y0.0656
X0.7441Y8.4055
X0.7441Y5.8071
X0.7441Y3.2087
X0.7441Y0.6102
X0.8189Y8.7953
X0.8189Y6.1969
X0.8189Y3.5984
X0.8189Y1.0
X0.9539Y8.0877
X0.9539Y5.4893
X0.9539Y2.8909
X0.9539Y0.2925
X0.9764Y8.378
X0.9764Y5.7795
X0.9764Y3.1811
X0.9764Y0.5827
X1.0094Y8.7008
X1.0094Y6.1023
X1.0094Y3.5039
X1.0094Y0.9055
X1.0197Y8.1496
X1.0197Y5.5512
X1.0197Y2.9528
X1.0197Y0.3543
X1.0669Y8.926
X1.0669Y6.3275
X1.0669Y3.7291
X1.0669Y1.1307
X1.12Y9.2116
X1.12Y6.6132
X1.12Y4.0148
X1.12Y1.4164
X1.1299Y8.0945
X1.1299Y5.4961
X1.1299Y2.8976
X1.1299Y0.2992
X1.1722Y9.6142
X1.1722Y7.0157
X1.1722Y4.4173
X1.1722Y1.8189
X1.1969Y8.4016
X1.1969Y5.8031
X1.1969Y3.2047
X1.1969Y0.6063
X1.2165Y8.1654
X1.2165Y5.5669
X1.2165Y2.9685
X1.2165Y0.3701
X1.4252Y9.6575
X1.4252Y7.0591
X1.4252Y4.4606
X1.4252Y1.8622
X1.4882Y8.4685
X1.4882Y5.8701
X1.4882Y3.2717
X1.4882Y0.6732
X1.5197Y9.126
X1.5197Y6.5276
X1.5197Y3.9291
X1.5197Y1.3307
X1.5591Y9.7559
X1.5591Y7.1575
X1.5591Y4.5591
X1.5591Y1.9606
X1.5984Y9.0
X1.5984Y6.4016
X1.5984Y3.8031
X1.5984Y1.2047
X1.7559Y8.8189
X1.7559Y6.2205
X1.7559Y3.622
X1.7559Y1.0236
X1.8898Y8.8189
X1.8898Y6.2205
X1.8898Y3.622
X1.8898Y1.0236
X1.8984Y8.4835
X1.8984Y5.885
X1.8984Y3.2866
X1.8984Y0.6882
X1.9449Y7.8268
X1.9449Y5.2283
X1.9449Y2.6299
X1.9449Y0.0315
X1.9452Y8.073
X1.9452Y5.4746
X1.9452Y2.8762
X1.9452Y0.2777
X1.9488Y8.378
X1.9488Y5.7795
X1.9488Y3.1811
X1.9488Y0.5827
X1.9724Y8.0394
X1.9724Y5.4409
X1.9724Y2.8425
X1.9724Y0.2441
X2.1643Y7.8608
X2.1643Y5.2624
X2.1643Y2.664
X2.1643Y0.0656
X2.2008Y8.4055
X2.2008Y5.8071
X2.2008Y3.2087
X2.2008Y0.6102
X2.2756Y8.7953
X2.2756Y6.1969
X2.2756Y3.5984
X2.2756Y1.0
X2.4106Y8.0877
X2.4106Y5.4893
X2.4106Y2.8909
X2.4106Y0.2925
X2.4331Y8.378
X2.4331Y5.7795
X2.4331Y3.1811
X2.4331Y0.5827
X2.4661Y8.7008
X2.4661Y6.1023
X2.4661Y3.5039
X2.4661Y0.9055
X2.4764Y8.1496
X2.4764Y5.5512
X2.4764Y2.9528
X2.4764Y0.3543
X2.5236Y8.926
X2.5236Y6.3275
X2.5236Y3.7291
X2.5236Y1.1307
X2.5767Y9.2116
X2.5767Y6.6132
X2.5767Y4.0148
X2.5767Y1.4164
X2.5866Y8.0945
X2.5866Y5.4961
X2.5866Y2.8976
X2.5866Y0.2992
X2.6289Y9.6142
X2.6289Y7.0157
X2.6289Y4.4173
X2.6289Y1.8189
X2.6535Y8.4016
X2.6535Y5.8031
X2.6535Y3.2047
X2.6535Y0.6063
X2.6732Y8.1654
X2.6732Y5.5669
X2.6732Y2.9685
X2.6732Y0.3701
X2.8819Y9.6575
X2.8819Y7.0591
X2.8819Y4.4606
X2.8819Y1.8622
X2.9449Y8.4685
X2.9449Y5.8701
X2.9449Y3.2717
X2.9449Y0.6732
X2.9764Y9.126
X2.9764Y6.5276
X2.9764Y3.9291
X2.9764Y1.3307
X3.0157Y9.7559
X3.0157Y7.1575
X3.0157Y4.5591
X3.0157Y1.9606
X3.0551Y9.0
X3.0551Y6.4016
X3.0551Y3.8031
X3.0551Y1.2047
X3.2126Y8.8189
X3.2126Y6.2205
X3.2126Y3.622
X3.2126Y1.0236
X3.3465Y8.8189
X3.3465Y6.2205
X3.3465Y3.622
X3.3465Y1.0236
X3.3551Y8.4835
X3.3551Y5.885
X3.3551Y3.2866
X3.3551Y0.6882
X3.4016Y7.8268
X3.4016Y5.2283
X3.4016Y2.6299
X3.4016Y0.0315
X3.4019Y8.073
X3.4019Y5.4746
X3.4019Y2.8762
X3.4019Y0.2777
X3.4055Y8.378
X3.4055Y5.7795
X3.4055Y3.1811
X3.4055Y0.5827
X3.4291Y8.0394
X3.4291Y5.4409
X3.4291Y2.8425
X3.4291Y0.2441
X3.621Y7.8608
X3.621Y5.2624
X3.621Y2.664
X3.621Y0.0656
X3.6575Y8.4055
X3.6575Y5.8071
X3.6575Y3.2087
X3.6575Y0.6102
X3.7323Y8.7953
X3.7323Y6.1969
X3.7323Y3.5984
X3.7323Y1.0
X3.8673Y8.0877
X3.8673Y5.4893
X3.8673Y2.8909
X3.8673Y0.2925
X3.8898Y8.378
X3.8898Y5.7795
X3.8898Y3.1811
X3.8898Y0.5827
X3.9228Y8.7008
X3.9228Y6.1023
X3.9228Y3.5039
X3.9228Y0.9055
X3.9331Y8.1496
X3.9331Y5.5512
X3.9331Y2.9528
X3.9331Y0.3543
X3.9803Y8.926
X3.9803Y6.3275
X3.9803Y3.7291
X3.9803Y1.1307
X4.0334Y9.2116
X4.0334Y6.6132
X4.0334Y4.0148
X4.0334Y1.4164
X4.0433Y8.0945
X4.0433Y5.4961
X4.0433Y2.8976
X4.0433Y0.2992
X4.0856Y9.6142
X4.0856Y7.0157
X4.0856Y4.4173
X4.0856Y1.8189
X4.1102Y8.4016
X4.1102Y5.8031
X4.1102Y3.2047
X4.1102Y0.6063
X4.1299Y8.1654
X4.1299Y5.5669
X4.1299Y2.9685
X4.1299Y0.3701
X4.3386Y9.6575
X4.3386Y7.0591
X4.3386Y4.4606
X4.3386Y1.8622
X4.4016Y8.4685
X4.4016Y5.8701
X4.4016Y3.2717
X4.4016Y0.6732
X4.4331Y9.126
X4.4331Y6.5276
X4.4331Y3.9291
X4.4331Y1.3307
X4.4724Y9.7559
X4.4724Y7.1575
X4.4724Y4.5591
X4.4724Y1.9606
X4.5118Y9.0
X4.5118Y6.4016
X4.5118Y3.8031
X4.5118Y1.2047
X4.6693Y8.8189
X4.6693Y6.2205
X4.6693Y3.622
X4.6693Y1.0236
X4.8031Y8.8189
X4.8031Y6.2205
X4.8031Y3.622
X4.8031Y1.0236
X4.8118Y8.4835
X4.8118Y5.885
X4.8118Y3.2866
X4.8118Y0.6882
X4.8583Y7.8268
X4.8583Y5.2283
X4.8583Y2.6299
X4.8583Y0.0315
X4.8585Y8.073
X4.8585Y5.4746
X4.8585Y2.8762
X4.8585Y0.2777
X4.8622Y8.378
X4.8622Y5.7795
X4.8622Y3.1811
X4.8622Y0.5827
X4.8858Y8.0394
X4.8858Y5.4409
X4.8858Y2.8425
X4.8858Y0.2441
X5.0777Y7.8608
X5.0777Y5.2624
X5.0777Y2.664
X5.0777Y0.0656
X5.1142Y8.4055
X5.1142Y5.8071
X5.1142Y3.2087
X5.1142Y0.6102
X5.189Y8.7953
X5.189Y6.1969
X5.189Y3.5984
X5.189Y1.0
X5.324Y8.0877
X5.324Y5.4893
X5.324Y2.8909
X5.324Y0.2925
X5.3465Y8.378
X5.3465Y5.7795
X5.3465Y3.1811
X5.3465Y0.5827
X5.3795Y8.7008
X5.3795Y6.1023
X5.3795Y3.5039
X5.3795Y0.9055
X5.3898Y8.1496
X5.3898Y5.5512
X5.3898Y2.9528
X5.3898Y0.3543
X5.437Y8.926
X5.437Y6.3275
X5.437Y3.7291
X5.437Y1.1307
X5.4901Y9.2116
X5.4901Y6.6132
X5.4901Y4.0148
X5.4901Y1.4164
X5.5Y8.0945
X5.5Y5.4961
X5.5Y2.8976
X5.5Y0.2992
X5.5423Y9.6142
X5.5423Y7.0157
X5.5423Y4.4173
X5.5423Y1.8189
X5.5669Y8.4016
X5.5669Y5.8031
X5.5669Y3.2047
X5.5669Y0.6063
X5.5866Y8.1654
X5.5866Y5.5669
X5.5866Y2.9685
X5.5866Y0.3701
X5.7953Y9.6575
X5.7953Y7.0591
X5.7953Y4.4606
X5.7953Y1.8622
X5.8583Y8.4685
X5.8583Y5.8701
X5.8583Y3.2717
X5.8583Y0.6732
X5.8898Y9.126
X5.8898Y6.5276
X5.8898Y3.9291
X5.8898Y1.3307
X5.9291Y9.7559
X5.9291Y7.1575
X5.9291Y4.5591
X5.9291Y1.9606
X5.9685Y9.0
X5.9685Y6.4016
X5.9685Y3.8031
X5.9685Y1.2047
X6.126Y8.8189
X6.126Y6.2205
X6.126Y3.622
X6.126Y1.0236
X6.2598Y8.8189
X6.2598Y6.2205
X6.2598Y3.622
X6.2598Y1.0236
X6.2685Y8.4835
X6.2685Y5.885
X6.2685Y3.2866
X6.2685Y0.6882
X6.315Y7.8268
X6.315Y5.2283
X6.315Y2.6299
X6.315Y0.0315
X6.3152Y8.073
X6.3152Y5.4746
X6.3152Y2.8762
X6.3152Y0.2777
X6.3189Y8.378
X6.3189Y5.7795
X6.3189Y3.1811
X6.3189Y0.5827
X6.3425Y8.0394
X6.3425Y5.4409
X6.3425Y2.8425
X6.3425Y0.2441
X6.5344Y7.8608
X6.5344Y5.2624
X6.5344Y2.664
X6.5344Y0.0656
X6.5709Y8.4055
X6.5709Y5.8071
X6.5709Y3.2087
X6.5709Y0.6102
X6.6457Y8.7953
X6.6457Y6.1969
X6.6457Y3.5984
X6.6457Y1.0
X6.7806Y8.0877
X6.7806Y5.4893
X6.7806Y2.8909
X6.7806Y0.2925
X6.8031Y8.378
X6.8031Y5.7795
X6.8031Y3.1811
X6.8031Y0.5827
X6.8362Y8.7008
X6.8362Y6.1023
X6.8362Y3.5039
X6.8362Y0.9055
X6.8465Y8.1496
X6.8465Y5.5512
X6.8465Y2.9528
X6.8465Y0.3543
X6.8937Y8.926
X6.8937Y6.3275
X6.8937Y3.7291
X6.8937Y1.1307
X6.9468Y9.2116
X6.9468Y6.6132
X6.9468Y4.0148
X6.9468Y1.4164
X6.9567Y8.0945
X6.9567Y5.4961
X6.9567Y2.8976
X6.9567Y0.2992
X6.999Y9.6142
X6.999Y7.0157
X6.999Y4.4173
X6.999Y1.8189
X7.0236Y8.4016
X7.0236Y5.8031
X7.0236Y3.2047
X7.0236Y0.6063
X7.0433Y8.1654
X7.0433Y5.5669
X7.0433Y2.9685
X7.0433Y0.3701
X7.252Y9.6575
X7.252Y7.0591
X7.252Y4.4606
X7.252Y1.8622
X7.315Y8.4685
X7.315Y5.8701
X7.315Y3.2717
X7.315Y0.6732
X7.3465Y9.126
X7.3465Y6.5276
X7.3465Y3.9291
X7.3465Y1.3307
X7.3858Y9.7559
X7.3858Y7.1575
X7.3858Y4.5591
X7.3858Y1.9606
X7.4252Y9.0
X7.4252Y6.4016
X7.4252Y3.8031
X7.4252Y1.2047
X7.5827Y8.8189
X7.5827Y6.2205
X7.5827Y3.622
X7.5827Y1.0236
X7.7165Y8.8189
X7.7165Y6.2205
X7.7165Y3.622
X7.7165Y1.0236
X7.7252Y8.4835
X7.7252Y5.885
X7.7252Y3.2866
X7.7252Y0.6882
X7.7717Y7.8268
X7.7717Y5.2283
X7.7717Y2.6299
X7.7717Y0.0315
X7.7719Y8.073
X7.7719Y5.4746
X7.7719Y2.8762
X7.7719Y0.2777
X7.7756Y8.378
X7.7756Y5.7795
X7.7756Y3.1811
X7.7756Y0.5827
X7.7992Y8.0394
X7.7992Y5.4409
X7.7992Y2.8425
X7.7992Y0.2441
X7.9911Y7.8608
X7.9911Y5.2624
X7.9911Y2.664
X7.9911Y0.0656
X8.0276Y8.4055
X8.0276Y5.8071
X8.0276Y3.2087
X8.0276Y0.6102
X8.1024Y8.7953
X8.1024Y6.1969
X8.1024Y3.5984
X8.1024Y1.0
X8.2373Y8.0877
X8.2373Y5.4893
X8.2373Y2.8909
X8.2373Y0.2925
X8.2598Y8.378
X8.2598Y5.7795
X8.2598Y3.1811
X8.2598Y0.5827
X8.2929Y8.7008
X8.2929Y6.1023
X8.2929Y3.5039
X8.2929Y0.9055
X8.3031Y8.1496
X8.3031Y5.5512
X8.3031Y2.9528
X8.3031Y0.3543
X8.3504Y8.926
X8.3504Y6.3275
X8.3504Y3.7291
X8.3504Y1.1307
X8.4035Y9.2116
X8.4035Y6.6132
X8.4035Y4.0148
X8.4035Y1.4164
X8.4134Y8.0945
X8.4134Y5.4961
X8.4134Y2.8976
X8.4134Y0.2992
X8.4557Y9.6142
X8.4557Y7.0157
X8.4557Y4.4173
X8.4557Y1.8189
X8.4803Y8.4016
X8.4803Y5.8031
X8.4803Y3.2047
X8.4803Y0.6063
X8.5Y8.1654
X8.5Y5.5669
X8.5Y2.9685
X8.5Y0.3701
X8.7087Y9.6575
X8.7087Y7.0591
X8.7087Y4.4606
X8.7087Y1.8622
X8.7717Y8.4685
X8.7717Y5.8701
X8.7717Y3.2717
X8.7717Y0.6732
X8.8031Y9.126
X8.8031Y6.5276
X8.8031Y3.9291
X8.8031Y1.3307
X8.8425Y9.7559
X8.8425Y7.1575
X8.8425Y4.5591
X8.8425Y1.9606
X8.8819Y9.0
X8.8819Y6.4016
X8.8819Y3.8031
X8.8819Y1.2047
X9.0394Y8.8189
X9.0394Y6.2205
X9.0394Y3.622
X9.0394Y1.0236
X9.1732Y8.8189
X9.1732Y6.2205
X9.1732Y3.622
X9.1732Y1.0236
X9.1819Y8.4835
X9.1819Y5.885
X9.1819Y3.2866
X9.1819Y0.6882
X9.2283Y7.8268
X9.2283Y5.2283
X9.2283Y2.6299
X9.2283Y0.0315
X9.2286Y8.073
X9.2286Y5.4746
X9.2286Y2.8762
X9.2286Y0.2777
X9.2323Y8.378
X9.2323Y5.7795
X9.2323Y3.1811
X9.2323Y0.5827
X9.2559Y8.0394
X9.2559Y5.4409
X9.2559Y2.8425
X9.2559Y0.2441
X9.4478Y7.8608
X9.4478Y5.2624
X9.4478Y2.664
X9.4478Y0.0656
X9.4843Y8.4055
X9.4843Y5.8071
X9.4843Y3.2087
X9.4843Y0.6102
X9.5591Y8.7953
X9.5591Y6.1969
X9.5591Y3.5984
X9.5591Y1.0
X9.694Y8.0877
X9.694Y5.4893
X9.694Y2.8909
X9.694Y0.2925
X9.7165Y8.378
X9.7165Y5.7795
X9.7165Y3.1811
X9.7165Y0.5827
X9.7496Y8.7008
X9.7496Y6.1023
X9.7496Y3.5039
X9.7496Y0.9055
X9.7598Y8.1496
X9.7598Y5.5512
X9.7598Y2.9528
X9.7598Y0.3543
X9.8071Y8.926
X9.8071Y6.3275
X9.8071Y3.7291
X9.8071Y1.1307
X9.8602Y9.2116
X9.8602Y6.6132
X9.8602Y4.0148
X9.8602Y1.4164
X9.8701Y8.0945
X9.8701Y5.4961
X9.8701Y2.8976
X9.8701Y0.2992
X9.9124Y9.6142
X9.9124Y7.0157
X9.9124Y4.4173
X9.9124Y1.8189
X9.937Y8.4016
X9.937Y5.8031
X9.937Y3.2047
X9.937Y0.6063
X9.9567Y8.1654
X9.9567Y5.5669
X9.9567Y2.9685
X9.9567Y0.3701
X10.1654Y9.6575
X10.1654Y7.0591
X10.1654Y4.4606
X10.1654Y1.8622
X10.2283Y8.4685
X10.2283Y5.8701
X10.2283Y3.2717
X10.2283Y0.6732
X10.2598Y9.126
X10.2598Y6.5276
X10.2598Y3.9291
X10.2598Y1.3307
X10.2992Y9.7559
X10.2992Y7.1575
X10.2992Y4.5591
X10.2992Y1.9606
X10.3386Y9.0
X10.3386Y6.4016
X10.3386Y3.8031
X10.3386Y1.2047
X10.4961Y8.8189
X10.4961Y6.2205
X10.4961Y3.622
X10.4961Y1.0236
X10.6299Y8.8189
X10.6299Y6.2205
X10.6299Y3.622
X10.6299Y1.0236
X10.6386Y8.4835
X10.6386Y5.885
X10.6386Y3.2866
X10.6386Y0.6882
X10.685Y7.8268
X10.685Y5.2283
X10.685Y2.6299
X10.685Y0.0315
X10.6853Y8.073
X10.6853Y5.4746
X10.6853Y2.8762
X10.6853Y0.2777
X10.689Y8.378
X10.689Y5.7795
X10.689Y3.1811
X10.689Y0.5827
X10.7126Y8.0394
X10.7126Y5.4409
X10.7126Y2.8425
X10.7126Y0.2441
X10.9045Y7.8608
X10.9045Y5.2624
X10.9045Y2.664
X10.9045Y0.0656
X10.9409Y8.4055
X10.9409Y5.8071
X10.9409Y3.2087
X10.9409Y0.6102
X11.0157Y8.7953
X11.0157Y6.1969
X11.0157Y3.5984
X11.0157Y1.0
X11.1507Y8.0877
X11.1507Y5.4893
X11.1507Y2.8909
X11.1507Y0.2925
X11.1732Y8.378
X11.1732Y5.7795
X11.1732Y3.1811
X11.1732Y0.5827
X11.2063Y8.7008
X11.2063Y6.1023
X11.2063Y3.5039
X11.2063Y0.9055
X11.2165Y8.1496
X11.2165Y5.5512
X11.2165Y2.9528
X11.2165Y0.3543
X11.2638Y8.926
X11.2638Y6.3275
X11.2638Y3.7291
X11.2638Y1.1307
X11.3169Y9.2116
X11.3169Y6.6132
X11.3169Y4.0148
X11.3169Y1.4164
X11.3268Y8.0945
X11.3268Y5.4961
X11.3268Y2.8976
X11.3268Y0.2992
X11.3691Y9.6142
X11.3691Y7.0157
X11.3691Y4.4173
X11.3691Y1.8189
X11.3937Y8.4016
X11.3937Y5.8031
X11.3937Y3.2047
X11.3937Y0.6063
X11.4134Y8.1654
X11.4134Y5.5669
X11.4134Y2.9685
X11.4134Y0.3701
X11.622Y9.6575
X11.622Y7.0591
X11.622Y4.4606
X11.622Y1.8622
T5
X8.9055Y0.2362
X8.9843Y0.2362
X3.0787Y2.8346
X3.1575Y2.8346
X10.3622Y2.8346
X10.4409Y2.8346
X0.1654Y2.8346
X0.2441Y2.8346
X7.4488Y5.4331
X7.5276Y5.4331
X4.5354Y2.8346
X4.6142Y2.8346
X0.1654Y8.0315
X0.2441Y8.0315
X10.3622Y8.0315
X10.4409Y8.0315
X10.3622Y5.4331
X10.4409Y5.4331
X4.5354Y8.0315
X4.6142Y8.0315
X1.622Y0.2362
X1.7008Y0.2362
X1.622Y8.0315
X1.7008Y8.0315
X1.622Y5.4331
X1.7008Y5.4331
X5.9921Y5.4331
X6.0709Y5.4331
X1.622Y2.8346
X1.7008Y2.8346
X8.9055Y8.0315
X8.9843Y8.0315
X7.4488Y8.0315
X7.5276Y8.0315
X5.9921Y2.8346
X6.0709Y2.8346
X8.9055Y5.4331
X8.9843Y5.4331
X8.9055Y2.8346
X8.9843Y2.8346
X4.5354Y5.4331
X4.6142Y5.4331
X0.1654Y0.2362
X0.2441Y0.2362
X0.1654Y5.4331
X0.2441Y5.4331
X5.9921Y8.0315
X6.0709Y8.0315
X5.9921Y0.2362
X6.0709Y0.2362
X3.0787Y8.0315
X3.1575Y8.0315
X4.5354Y0.2362
X4.6142Y0.2362
X7.4488Y2.8346
X7.5276Y2.8346
X7.4488Y0.2362
X7.5276Y0.2362
X10.3622Y0.2362
X10.4409Y0.2362
X3.0787Y0.2362
X3.1575Y0.2362
X3.0787Y5.4331
X3.1575Y5.4331
T6
X7.5197Y9.8425
X7.5984Y9.8425
X7.6772Y9.8425
X7.7559Y9.8425
X3.1496Y2.0472
X3.2283Y2.0472
X3.3071Y2.0472
X3.3858Y2.0472
X7.5197Y7.2441
X7.5984Y7.2441
X7.6772Y7.2441
X7.7559Y7.2441
X8.9764Y4.6457
X9.0551Y4.6457
X9.1339Y4.6457
X9.2126Y4.6457
X6.063Y2.0472
X6.1417Y2.0472
X6.2205Y2.0472
X6.2992Y2.0472
X8.9764Y9.8425
X9.0551Y9.8425
X9.1339Y9.8425
X9.2126Y9.8425
X6.063Y7.2441
X6.1417Y7.2441
X6.2205Y7.2441
X6.2992Y7.2441
X8.9764Y7.2441
X9.0551Y7.2441
X9.1339Y7.2441
X9.2126Y7.2441
X0.2362Y4.6457
X0.315Y4.6457
X0.3937Y4.6457
X0.4724Y4.6457
X7.5197Y2.0472
X7.5984Y2.0472
X7.6772Y2.0472
X7.7559Y2.0472
X4.6063Y9.8425
X4.685Y9.8425
X4.7638Y9.8425
X4.8425Y9.8425
X4.6063Y7.2441
X4.685Y7.2441
X4.7638Y7.2441
X4.8425Y7.2441
X10.4331Y4.6457
X10.5118Y4.6457
X10.5906Y4.6457
X10.6693Y4.6457
X0.2362Y9.8425
X0.315Y9.8425
X0.3937Y9.8425
X0.4724Y9.8425
X0.2362Y2.0472
X0.315Y2.0472
X0.3937Y2.0472
X0.4724Y2.0472
X6.063Y4.6457
X6.1417Y4.6457
X6.2205Y4.6457
X6.2992Y4.6457
X1.6929Y2.0472
X1.7717Y2.0472
X1.8504Y2.0472
X1.9291Y2.0472
X1.6929Y9.8425
X1.7717Y9.8425
X1.8504Y9.8425
X1.9291Y9.8425
X3.1496Y9.8425
X3.2283Y9.8425
X3.3071Y9.8425
X3.3858Y9.8425
X4.6063Y2.0472
X4.685Y2.0472
X4.7638Y2.0472
X4.8425Y2.0472
X1.6929Y7.2441
X1.7717Y7.2441
X1.8504Y7.2441
X1.9291Y7.2441
X6.063Y9.8425
X6.1417Y9.8425
X6.2205Y9.8425
X6.2992Y9.8425
X4.6063Y4.6457
X4.685Y4.6457
X4.7638Y4.6457
X4.8425Y4.6457
X3.1496Y7.2441
X3.2283Y7.2441
X3.3071Y7.2441
X3.3858Y7.2441
X7.5197Y4.6457
X7.5984Y4.6457
X7.6772Y4.6457
X7.7559Y4.6457
X1.6929Y4.6457
X1.7717Y4.6457
X1.8504Y4.6457
X1.9291Y4.6457
X8.9764Y2.0472
X9.0551Y2.0472
X9.1339Y2.0472
X9.2126Y2.0472
X3.1496Y4.6457
X3.2283Y4.6457
X3.3071Y4.6457
X3.3858Y4.6457
X0.2362Y7.2441
X0.315Y7.2441
X0.3937Y7.2441
X0.4724Y7.2441
X10.4331Y9.8425
X10.5118Y9.8425
X10.5906Y9.8425
X10.6693Y9.8425
X10.4331Y7.2441
X10.5118Y7.2441
X10.5906Y7.2441
X10.6693Y7.2441
X10.4331Y2.0472
X10.5118Y2.0472
X10.5906Y2.0472
X10.6693Y2.0472
T7
X0.3105Y7.9134
X0.3105Y5.315
X0.3105Y2.7165
X0.3105Y0.1181
X1.7672Y7.9134
X1.7672Y5.315
X1.7672Y2.7165
X1.7672Y0.1181
X3.2239Y7.9134
X3.2239Y5.315
X3.2239Y2.7165
X3.2239Y0.1181
X4.6806Y7.9134
X4.6806Y5.315
X4.6806Y2.7165
X4.6806Y0.1181
X6.1373Y7.9134
X6.1373Y5.315
X6.1373Y2.7165
X6.1373Y0.1181
X7.594Y7.9134
X7.594Y5.315
X7.594Y2.7165
X7.594Y0.1181
X9.0507Y7.9134
X9.0507Y5.315
X9.0507Y2.7165
X9.0507Y0.1181
X10.5074Y7.9134
X10.5074Y5.315
X10.5074Y2.7165
X10.5074Y0.1181
T8
X0.1929Y5.7874
X0.1929Y5.5906
X8.9331Y5.7874
X8.9331Y5.5906
X10.3898Y8.3858
X10.3898Y8.189
X10.3898Y5.7874
X10.3898Y5.5906
X10.3898Y3.189
X10.3898Y2.9921
X8.9331Y3.189
X8.9331Y2.9921
X6.0197Y8.3858
X6.0197Y8.189
X7.4764Y3.189
X7.4764Y2.9921
X6.0197Y3.189
X6.0197Y2.9921
X3.1063Y8.3858
X3.1063Y8.189
X0.1929Y3.189
X0.1929Y2.9921
X8.9331Y8.3858
X8.9331Y8.189
X7.4764Y0.5906
X7.4764Y0.3937
X3.1063Y0.5906
X3.1063Y0.3937
X4.563Y8.3858
X4.563Y8.189
X4.563Y5.7874
X4.563Y5.5906
X10.3898Y0.5906
X10.3898Y0.3937
X0.1929Y8.3858
X0.1929Y8.189
X4.563Y0.5906
X4.563Y0.3937
X1.6496Y0.5906
X1.6496Y0.3937
X3.1063Y5.7874
X3.1063Y5.5906
X1.6496Y8.3858
X1.6496Y8.189
X7.4764Y8.3858
X7.4764Y8.189
X1.6496Y5.7874
X1.6496Y5.5906
X7.4764Y5.7874
X7.4764Y5.5906
X8.9331Y0.5906
X8.9331Y0.3937
X3.1063Y3.189
X3.1063Y2.9921
X4.563Y3.189
X4.563Y2.9921
X1.6496Y3.189
X1.6496Y2.9921
X6.0197Y5.7874
X6.0197Y5.5906
X0.1929Y0.5906
X0.1929Y0.3937
X6.0197Y0.5906
X6.0197Y0.3937
T9
X0.4921Y8.3087
X0.4921Y8.2087
X0.5921Y8.3087
X0.5921Y8.2087
X0.6921Y8.3087
X0.6921Y8.2087
X0.7921Y8.3087
X0.7921Y8.2087
X0.8921Y8.3087
X0.8921Y8.2087
X0.9921Y8.3087
X0.9921Y8.2087
X3.4055Y5.7102
X3.4055Y5.6102
X3.5055Y5.7102
X3.5055Y5.6102
X3.6055Y5.7102
X3.6055Y5.6102
X3.7055Y5.7102
X3.7055Y5.6102
X3.8055Y5.7102
X3.8055Y5.6102
X3.9055Y5.7102
X3.9055Y5.6102
X3.4055Y0.5134
X3.4055Y0.4134
X3.5055Y0.5134
X3.5055Y0.4134
X3.6055Y0.5134
X3.6055Y0.4134
X3.7055Y0.5134
X3.7055Y0.4134
X3.8055Y0.5134
X3.8055Y0.4134
X3.9055Y0.5134
X3.9055Y0.4134
X0.4921Y3.1118
X0.4921Y3.0118
X0.5921Y3.1118
X0.5921Y3.0118
X0.6921Y3.1118
X0.6921Y3.0118
X0.7921Y3.1118
X0.7921Y3.0118
X0.8921Y3.1118
X0.8921Y3.0118
X0.9921Y3.1118
X0.9921Y3.0118
X9.2323Y8.3087
X9.2323Y8.2087
X9.3323Y8.3087
X9.3323Y8.2087
X9.4323Y8.3087
X9.4323Y8.2087
X9.5323Y8.3087
X9.5323Y8.2087
X9.6323Y8.3087
X9.6323Y8.2087
X9.7323Y8.3087
X9.7323Y8.2087
X10.689Y0.5134
X10.689Y0.4134
X10.789Y0.5134
X10.789Y0.4134
X10.889Y0.5134
X10.889Y0.4134
X10.989Y0.5134
X10.989Y0.4134
X11.089Y0.5134
X11.089Y0.4134
X11.189Y0.5134
X11.189Y0.4134
X6.3189Y8.3087
X6.3189Y8.2087
X6.4189Y8.3087
X6.4189Y8.2087
X6.5189Y8.3087
X6.5189Y8.2087
X6.6189Y8.3087
X6.6189Y8.2087
X6.7189Y8.3087
X6.7189Y8.2087
X6.8189Y8.3087
X6.8189Y8.2087
X6.3189Y5.7102
X6.3189Y5.6102
X6.4189Y5.7102
X6.4189Y5.6102
X6.5189Y5.7102
X6.5189Y5.6102
X6.6189Y5.7102
X6.6189Y5.6102
X6.7189Y5.7102
X6.7189Y5.6102
X6.8189Y5.7102
X6.8189Y5.6102
X3.4055Y8.3087
X3.4055Y8.2087
X3.5055Y8.3087
X3.5055Y8.2087
X3.6055Y8.3087
X3.6055Y8.2087
X3.7055Y8.3087
X3.7055Y8.2087
X3.8055Y8.3087
X3.8055Y8.2087
X3.9055Y8.3087
X3.9055Y8.2087
X1.9488Y8.3087
X1.9488Y8.2087
X2.0488Y8.3087
X2.0488Y8.2087
X2.1488Y8.3087
X2.1488Y8.2087
X2.2488Y8.3087
X2.2488Y8.2087
X2.3488Y8.3087
X2.3488Y8.2087
X2.4488Y8.3087
X2.4488Y8.2087
X1.9488Y3.1118
X1.9488Y3.0118
X2.0488Y3.1118
X2.0488Y3.0118
X2.1488Y3.1118
X2.1488Y3.0118
X2.2488Y3.1118
X2.2488Y3.0118
X2.3488Y3.1118
X2.3488Y3.0118
X2.4488Y3.1118
X2.4488Y3.0118
X1.9488Y5.7102
X1.9488Y5.6102
X2.0488Y5.7102
X2.0488Y5.6102
X2.1488Y5.7102
X2.1488Y5.6102
X2.2488Y5.7102
X2.2488Y5.6102
X2.3488Y5.7102
X2.3488Y5.6102
X2.4488Y5.7102
X2.4488Y5.6102
X1.9488Y0.5134
X1.9488Y0.4134
X2.0488Y0.5134
X2.0488Y0.4134
X2.1488Y0.5134
X2.1488Y0.4134
X2.2488Y0.5134
X2.2488Y0.4134
X2.3488Y0.5134
X2.3488Y0.4134
X2.4488Y0.5134
X2.4488Y0.4134
X10.689Y3.1118
X10.689Y3.0118
X10.789Y3.1118
X10.789Y3.0118
X10.889Y3.1118
X10.889Y3.0118
X10.989Y3.1118
X10.989Y3.0118
X11.089Y3.1118
X11.089Y3.0118
X11.189Y3.1118
X11.189Y3.0118
X3.4055Y3.1118
X3.4055Y3.0118
X3.5055Y3.1118
X3.5055Y3.0118
X3.6055Y3.1118
X3.6055Y3.0118
X3.7055Y3.1118
X3.7055Y3.0118
X3.8055Y3.1118
X3.8055Y3.0118
X3.9055Y3.1118
X3.9055Y3.0118
X4.8622Y3.1118
X4.8622Y3.0118
X4.9622Y3.1118
X4.9622Y3.0118
X5.0622Y3.1118
X5.0622Y3.0118
X5.1622Y3.1118
X5.1622Y3.0118
X5.2622Y3.1118
X5.2622Y3.0118
X5.3622Y3.1118
X5.3622Y3.0118
X10.689Y8.3087
X10.689Y8.2087
X10.789Y8.3087
X10.789Y8.2087
X10.889Y8.3087
X10.889Y8.2087
X10.989Y8.3087
X10.989Y8.2087
X11.089Y8.3087
X11.089Y8.2087
X11.189Y8.3087
X11.189Y8.2087
X9.2323Y0.5134
X9.2323Y0.4134
X9.3323Y0.5134
X9.3323Y0.4134
X9.4323Y0.5134
X9.4323Y0.4134
X9.5323Y0.5134
X9.5323Y0.4134
X9.6323Y0.5134
X9.6323Y0.4134
X9.7323Y0.5134
X9.7323Y0.4134
X10.689Y5.7102
X10.689Y5.6102
X10.789Y5.7102
X10.789Y5.6102
X10.889Y5.7102
X10.889Y5.6102
X10.989Y5.7102
X10.989Y5.6102
X11.089Y5.7102
X11.089Y5.6102
X11.189Y5.7102
X11.189Y5.6102
X4.8622Y8.3087
X4.8622Y8.2087
X4.9622Y8.3087
X4.9622Y8.2087
X5.0622Y8.3087
X5.0622Y8.2087
X5.1622Y8.3087
X5.1622Y8.2087
X5.2622Y8.3087
X5.2622Y8.2087
X5.3622Y8.3087
X5.3622Y8.2087
X7.7756Y0.5134
X7.7756Y0.4134
X7.8756Y0.5134
X7.8756Y0.4134
X7.9756Y0.5134
X7.9756Y0.4134
X8.0756Y0.5134
X8.0756Y0.4134
X8.1756Y0.5134
X8.1756Y0.4134
X8.2756Y0.5134
X8.2756Y0.4134
X7.7756Y8.3087
X7.7756Y8.2087
X7.8756Y8.3087
X7.8756Y8.2087
X7.9756Y8.3087
X7.9756Y8.2087
X8.0756Y8.3087
X8.0756Y8.2087
X8.1756Y8.3087
X8.1756Y8.2087
X8.2756Y8.3087
X8.2756Y8.2087
X0.4921Y5.7102
X0.4921Y5.6102
X0.5921Y5.7102
X0.5921Y5.6102
X0.6921Y5.7102
X0.6921Y5.6102
X0.7921Y5.7102
X0.7921Y5.6102
X0.8921Y5.7102
X0.8921Y5.6102
X0.9921Y5.7102
X0.9921Y5.6102
X7.7756Y3.1118
X7.7756Y3.0118
X7.8756Y3.1118
X7.8756Y3.0118
X7.9756Y3.1118
X7.9756Y3.0118
X8.0756Y3.1118
X8.0756Y3.0118
X8.1756Y3.1118
X8.1756Y3.0118
X8.2756Y3.1118
X8.2756Y3.0118
X9.2323Y5.7102
X9.2323Y5.6102
X9.3323Y5.7102
X9.3323Y5.6102
X9.4323Y5.7102
X9.4323Y5.6102
X9.5323Y5.7102
X9.5323Y5.6102
X9.6323Y5.7102
X9.6323Y5.6102
X9.7323Y5.7102
X9.7323Y5.6102
X6.3189Y0.5134
X6.3189Y0.4134
X6.4189Y0.5134
X6.4189Y0.4134
X6.5189Y0.5134
X6.5189Y0.4134
X6.6189Y0.5134
X6.6189Y0.4134
X6.7189Y0.5134
X6.7189Y0.4134
X6.8189Y0.5134
X6.8189Y0.4134
X4.8622Y5.7102
X4.8622Y5.6102
X4.9622Y5.7102
X4.9622Y5.6102
X5.0622Y5.7102
X5.0622Y5.6102
X5.1622Y5.7102
X5.1622Y5.6102
X5.2622Y5.7102
X5.2622Y5.6102
X5.3622Y5.7102
X5.3622Y5.6102
X9.2323Y3.1118
X9.2323Y3.0118
X9.3323Y3.1118
X9.3323Y3.0118
X9.4323Y3.1118
X9.4323Y3.0118
X9.5323Y3.1118
X9.5323Y3.0118
X9.6323Y3.1118
X9.6323Y3.0118
X9.7323Y3.1118
X9.7323Y3.0118
X0.4921Y0.5134
X0.4921Y0.4134
X0.5921Y0.5134
X0.5921Y0.4134
X0.6921Y0.5134
X0.6921Y0.4134
X0.7921Y0.5134
X0.7921Y0.4134
X0.8921Y0.5134
X0.8921Y0.4134
X0.9921Y0.5134
X0.9921Y0.4134
X4.8622Y0.5134
X4.8622Y0.4134
X4.9622Y0.5134
X4.9622Y0.4134
X5.0622Y0.5134
X5.0622Y0.4134
X5.1622Y0.5134
X5.1622Y0.4134
X5.2622Y0.5134
X5.2622Y0.4134
X5.3622Y0.5134
X5.3622Y0.4134
X6.3189Y3.1118
X6.3189Y3.0118
X6.4189Y3.1118
X6.4189Y3.0118
X6.5189Y3.1118
X6.5189Y3.0118
X6.6189Y3.1118
X6.6189Y3.0118
X6.7189Y3.1118
X6.7189Y3.0118
X6.8189Y3.1118
X6.8189Y3.0118
X7.7756Y5.7102
X7.7756Y5.6102
X7.8756Y5.7102
X7.8756Y5.6102
X7.9756Y5.7102
X7.9756Y5.6102
X8.0756Y5.7102
X8.0756Y5.6102
X8.1756Y5.7102
X8.1756Y5.6102
X8.2756Y5.7102
X8.2756Y5.6102
T10
X10.9252Y4.8031
X5.0984Y4.8031
X10.9252Y2.2047
X8.0118Y4.8031
X3.6417Y2.2047
X0.7283Y4.8031
X9.4685Y2.2047
X3.6417Y10.0
X5.0984Y7.4016
X9.4685Y7.4016
X2.185Y7.4016
X8.0118Y10.0
X9.4685Y4.8031
X10.9252Y10.0
X8.0118Y7.4016
X3.6417Y4.8031
X3.6417Y7.4016
X2.185Y2.2047
X6.5551Y4.8031
X0.7283Y10.0
X6.5551Y2.2047
X2.185Y4.8031
X8.0118Y2.2047
X0.7283Y7.4016
X5.0984Y2.2047
X5.0984Y10.0
X9.4685Y10.0
X6.5551Y10.0
X2.185Y10.0
X6.5551Y7.4016
X10.9252Y7.4016
X0.7283Y2.2047
T4
G00X2.9862Y8.4252
M15
G01X3.0138Y8.4252
M16
G05
G00X3.0138Y8.1496
M15
G01X2.9862Y8.1496
M16
G05
G00X0.0728Y3.2283
M15
G01X0.1004Y3.2283
M16
G05
G00X0.1004Y2.9528
M15
G01X0.0728Y2.9528
M16
G05
G00X8.813Y8.4252
M15
G01X8.8406Y8.4252
M16
G05
G00X8.8406Y8.1496
M15
G01X8.813Y8.1496
M16
G05
G00X7.3563Y0.6299
M15
G01X7.3839Y0.6299
M16
G05
G00X7.3839Y0.3543
M15
G01X7.3563Y0.3543
M16
G05
G00X2.9862Y0.6299
M15
G01X3.0138Y0.6299
M16
G05
G00X3.0138Y0.3543
M15
G01X2.9862Y0.3543
M16
G05
G00X4.4429Y8.4252
M15
G01X4.4705Y8.4252
M16
G05
G00X4.4705Y8.1496
M15
G01X4.4429Y8.1496
M16
G05
G00X4.4429Y5.8268
M15
G01X4.4705Y5.8268
M16
G05
G00X4.4705Y5.5512
M15
G01X4.4429Y5.5512
M16
G05
G00X10.2697Y0.6299
M15
G01X10.2972Y0.6299
M16
G05
G00X10.2972Y0.3543
M15
G01X10.2697Y0.3543
M16
G05
G00X0.0728Y8.4252
M15
G01X0.1004Y8.4252
M16
G05
G00X0.1004Y8.1496
M15
G01X0.0728Y8.1496
M16
G05
G00X4.4429Y0.6299
M15
G01X4.4705Y0.6299
M16
G05
G00X4.4705Y0.3543
M15
G01X4.4429Y0.3543
M16
G05
G00X1.5295Y0.6299
M15
G01X1.5571Y0.6299
M16
G05
G00X1.5571Y0.3543
M15
G01X1.5295Y0.3543
M16
G05
G00X2.9862Y5.8268
M15
G01X3.0138Y5.8268
M16
G05
G00X3.0138Y5.5512
M15
G01X2.9862Y5.5512
M16
G05
G00X1.5295Y8.4252
M15
G01X1.5571Y8.4252
M16
G05
G00X1.5571Y8.1496
M15
G01X1.5295Y8.1496
M16
G05
G00X7.3563Y8.4252
M15
G01X7.3839Y8.4252
M16
G05
G00X7.3839Y8.1496
M15
G01X7.3563Y8.1496
M16
G05
G00X1.5295Y5.8268
M15
G01X1.5571Y5.8268
M16
G05
G00X1.5571Y5.5512
M15
G01X1.5295Y5.5512
M16
G05
G00X7.3563Y5.8268
M15
G01X7.3839Y5.8268
M16
G05
G00X7.3839Y5.5512
M15
G01X7.3563Y5.5512
M16
G05
G00X8.813Y0.6299
M15
G01X8.8406Y0.6299
M16
G05
G00X8.8406Y0.3543
M15
G01X8.813Y0.3543
M16
G05
G00X2.9862Y3.2283
M15
G01X3.0138Y3.2283
M16
G05
G00X3.0138Y2.9528
M15
G01X2.9862Y2.9528
M16
G05
G00X4.4429Y3.2283
M15
G01X4.4705Y3.2283
M16
G05
G00X4.4705Y2.9528
M15
G01X4.4429Y2.9528
M16
G05
G00X1.5295Y3.2283
M15
G01X1.5571Y3.2283
M16
G05
G00X1.5571Y2.9528
M15
G01X1.5295Y2.9528
M16
G05
G00X5.8996Y5.8268
M15
G01X5.9272Y5.8268
M16
G05
G00X5.9272Y5.5512
M15
G01X5.8996Y5.5512
M16
G05
G00X0.0728Y0.6299
M15
G01X0.1004Y0.6299
M16
G05
G00X0.1004Y0.3543
M15
G01X0.0728Y0.3543
M16
G05
G00X5.8996Y0.6299
M15
G01X5.9272Y0.6299
M16
G05
G00X5.9272Y0.3543
M15
G01X5.8996Y0.3543
M16
G05
G00X0.0728Y5.8268
M15
G01X0.1004Y5.8268
M16
G05
G00X0.1004Y5.5512
M15
G01X0.0728Y5.5512
M16
G05
G00X8.813Y5.8268
M15
G01X8.8406Y5.8268
M16
G05
G00X8.8406Y5.5512
M15
G01X8.813Y5.5512
M16
G05
G00X10.2697Y8.4252
M15
G01X10.2972Y8.4252
M16
G05
G00X10.2972Y8.1496
M15
G01X10.2697Y8.1496
M16
G05
G00X10.2697Y5.8268
M15
G01X10.2972Y5.8268
M16
G05
G00X10.2972Y5.5512
M15
G01X10.2697Y5.5512
M16
G05
G00X10.2697Y3.2283
M15
G01X10.2972Y3.2283
M16
G05
G00X10.2972Y2.9528
M15
G01X10.2697Y2.9528
M16
G05
G00X8.813Y3.2283
M15
G01X8.8406Y3.2283
M16
G05
G00X8.8406Y2.9528
M15
G01X8.813Y2.9528
M16
G05
G00X5.8996Y8.4252
M15
G01X5.9272Y8.4252
M16
G05
G00X5.9272Y8.1496
M15
G01X5.8996Y8.1496
M16
G05
G00X7.3563Y3.2283
M15
G01X7.3839Y3.2283
M16
G05
G00X7.3839Y2.9528
M15
G01X7.3563Y2.9528
M16
G05
G00X5.8996Y3.2283
M15
G01X5.9272Y3.2283
M16
G05
G00X5.9272Y2.9528
M15
G01X5.8996Y2.9528
M16
G05
T0
M30
