G04 #@! TF.GenerationSoftware,KiCad,Pcbnew,(5.0.1-3-g963ef8bb5)*
G04 #@! TF.CreationDate,2019-11-25T00:54:11+01:00*
G04 #@! TF.ProjectId,oibus-mini-CCC,6F696275732D6D696E692D4343432E6B,rev?*
G04 #@! TF.SameCoordinates,Original*
G04 #@! TF.FileFunction,Copper,L2,Bot,Signal*
G04 #@! TF.FilePolarity,Positive*
%FSLAX46Y46*%
G04 Gerber Fmt 4.6, Leading zero omitted, Abs format (unit mm)*
G04 Created by KiCad (PCBNEW (5.0.1-3-g963ef8bb5)) date 2019 November 25, Monday 00:54:11*
%MOMM*%
%LPD*%
G01*
G04 APERTURE LIST*
G04 #@! TA.AperFunction,ComponentPad*
%ADD10C,5.600000*%
G04 #@! TD*
G04 #@! TA.AperFunction,ComponentPad*
%ADD11O,1.700000X1.700000*%
G04 #@! TD*
G04 #@! TA.AperFunction,ComponentPad*
%ADD12R,1.700000X1.700000*%
G04 #@! TD*
G04 #@! TA.AperFunction,Conductor*
%ADD13C,0.149860*%
G04 #@! TD*
G04 #@! TA.AperFunction,ComponentPad*
%ADD14C,1.200000*%
G04 #@! TD*
G04 #@! TA.AperFunction,ComponentPad*
%ADD15O,1.200000X1.750000*%
G04 #@! TD*
G04 #@! TA.AperFunction,ComponentPad*
%ADD16C,1.450000*%
G04 #@! TD*
G04 #@! TA.AperFunction,ComponentPad*
%ADD17O,1.900000X1.200000*%
G04 #@! TD*
G04 #@! TA.AperFunction,ComponentPad*
%ADD18C,0.800000*%
G04 #@! TD*
G04 #@! TA.AperFunction,ComponentPad*
%ADD19O,1.300000X0.800000*%
G04 #@! TD*
G04 #@! TA.AperFunction,ComponentPad*
%ADD20C,1.524000*%
G04 #@! TD*
G04 #@! TA.AperFunction,SMDPad,CuDef*
%ADD21C,0.500000*%
G04 #@! TD*
G04 #@! TA.AperFunction,SMDPad,CuDef*
%ADD22C,0.875000*%
G04 #@! TD*
G04 #@! TA.AperFunction,ViaPad*
%ADD23C,0.800000*%
G04 #@! TD*
G04 #@! TA.AperFunction,ViaPad*
%ADD24C,0.600000*%
G04 #@! TD*
G04 #@! TA.AperFunction,ViaPad*
%ADD25C,1.000000*%
G04 #@! TD*
G04 #@! TA.AperFunction,ViaPad*
%ADD26C,0.700000*%
G04 #@! TD*
G04 #@! TA.AperFunction,ViaPad*
%ADD27C,1.200000*%
G04 #@! TD*
G04 #@! TA.AperFunction,Conductor*
%ADD28C,0.600000*%
G04 #@! TD*
G04 #@! TA.AperFunction,Conductor*
%ADD29C,0.200000*%
G04 #@! TD*
G04 #@! TA.AperFunction,Conductor*
%ADD30C,0.800000*%
G04 #@! TD*
G04 #@! TA.AperFunction,Conductor*
%ADD31C,0.400000*%
G04 #@! TD*
G04 #@! TA.AperFunction,Conductor*
%ADD32C,0.500000*%
G04 #@! TD*
G04 #@! TA.AperFunction,Conductor*
%ADD33C,0.254000*%
G04 #@! TD*
G04 APERTURE END LIST*
D10*
G04 #@! TO.P,H1,1*
G04 #@! TO.N,GND*
X18500000Y56000000D03*
G04 #@! TD*
D11*
G04 #@! TO.P,H2,12*
G04 #@! TO.N,/CAN_L*
X25200000Y13040000D03*
G04 #@! TO.P,H2,11*
G04 #@! TO.N,/CAN_H*
X25200000Y10500000D03*
G04 #@! TO.P,H2,10*
G04 #@! TO.N,/~SPI_ADS_CS*
X22660000Y13040000D03*
G04 #@! TO.P,H2,9*
G04 #@! TO.N,/SPI_SCK*
X22660000Y10500000D03*
G04 #@! TO.P,H2,8*
G04 #@! TO.N,/SPI_MISO*
X20120000Y13040000D03*
G04 #@! TO.P,H2,7*
G04 #@! TO.N,/SPI_MOSI*
X20120000Y10500000D03*
G04 #@! TO.P,H2,6*
G04 #@! TO.N,/SCL*
X17580000Y13040000D03*
G04 #@! TO.P,H2,5*
G04 #@! TO.N,/SDA*
X17580000Y10500000D03*
G04 #@! TO.P,H2,4*
G04 #@! TO.N,GND*
X15040000Y13040000D03*
G04 #@! TO.P,H2,3*
G04 #@! TO.N,+3V3*
X15040000Y10500000D03*
G04 #@! TO.P,H2,2*
G04 #@! TO.N,GND*
X12500000Y13040000D03*
D12*
G04 #@! TO.P,H2,1*
G04 #@! TO.N,+5V*
X12500000Y10500000D03*
G04 #@! TD*
D13*
G04 #@! TO.N,+BATT*
G04 #@! TO.C,BT1*
G36*
X4574505Y6873796D02*
X4598773Y6870196D01*
X4622572Y6864235D01*
X4645671Y6855970D01*
X4667850Y6845480D01*
X4688893Y6832868D01*
X4708599Y6818253D01*
X4726777Y6801777D01*
X4743253Y6783599D01*
X4757868Y6763893D01*
X4770480Y6742850D01*
X4780970Y6720671D01*
X4789235Y6697572D01*
X4795196Y6673773D01*
X4798796Y6649505D01*
X4800000Y6625001D01*
X4800000Y5374999D01*
X4798796Y5350495D01*
X4795196Y5326227D01*
X4789235Y5302428D01*
X4780970Y5279329D01*
X4770480Y5257150D01*
X4757868Y5236107D01*
X4743253Y5216401D01*
X4726777Y5198223D01*
X4708599Y5181747D01*
X4688893Y5167132D01*
X4667850Y5154520D01*
X4645671Y5144030D01*
X4622572Y5135765D01*
X4598773Y5129804D01*
X4574505Y5126204D01*
X4550001Y5125000D01*
X3849999Y5125000D01*
X3825495Y5126204D01*
X3801227Y5129804D01*
X3777428Y5135765D01*
X3754329Y5144030D01*
X3732150Y5154520D01*
X3711107Y5167132D01*
X3691401Y5181747D01*
X3673223Y5198223D01*
X3656747Y5216401D01*
X3642132Y5236107D01*
X3629520Y5257150D01*
X3619030Y5279329D01*
X3610765Y5302428D01*
X3604804Y5326227D01*
X3601204Y5350495D01*
X3600000Y5374999D01*
X3600000Y6625001D01*
X3601204Y6649505D01*
X3604804Y6673773D01*
X3610765Y6697572D01*
X3619030Y6720671D01*
X3629520Y6742850D01*
X3642132Y6763893D01*
X3656747Y6783599D01*
X3673223Y6801777D01*
X3691401Y6818253D01*
X3711107Y6832868D01*
X3732150Y6845480D01*
X3754329Y6855970D01*
X3777428Y6864235D01*
X3801227Y6870196D01*
X3825495Y6873796D01*
X3849999Y6875000D01*
X4550001Y6875000D01*
X4574505Y6873796D01*
X4574505Y6873796D01*
G37*
D14*
G04 #@! TD*
G04 #@! TO.P,BT1,1*
G04 #@! TO.N,+BATT*
X4200000Y6000000D03*
D15*
G04 #@! TO.P,BT1,2*
G04 #@! TO.N,Net-(BT1-Pad2)*
X6200000Y6000000D03*
G04 #@! TD*
D16*
G04 #@! TO.P,J2,6*
G04 #@! TO.N,GND*
X4900000Y15000000D03*
X4900000Y10000000D03*
D17*
X2200000Y16000000D03*
X2200000Y9000000D03*
G04 #@! TD*
D13*
G04 #@! TO.N,Net-(J3-Pad1)*
G04 #@! TO.C,J3*
G36*
X32469603Y10899037D02*
X32489018Y10896157D01*
X32508057Y10891388D01*
X32526537Y10884776D01*
X32544279Y10876384D01*
X32561114Y10866294D01*
X32576879Y10854602D01*
X32591421Y10841421D01*
X32604602Y10826879D01*
X32616294Y10811114D01*
X32626384Y10794279D01*
X32634776Y10776537D01*
X32641388Y10758057D01*
X32646157Y10739018D01*
X32649037Y10719603D01*
X32650000Y10700000D01*
X32650000Y10300000D01*
X32649037Y10280397D01*
X32646157Y10260982D01*
X32641388Y10241943D01*
X32634776Y10223463D01*
X32626384Y10205721D01*
X32616294Y10188886D01*
X32604602Y10173121D01*
X32591421Y10158579D01*
X32576879Y10145398D01*
X32561114Y10133706D01*
X32544279Y10123616D01*
X32526537Y10115224D01*
X32508057Y10108612D01*
X32489018Y10103843D01*
X32469603Y10100963D01*
X32450000Y10100000D01*
X31550000Y10100000D01*
X31530397Y10100963D01*
X31510982Y10103843D01*
X31491943Y10108612D01*
X31473463Y10115224D01*
X31455721Y10123616D01*
X31438886Y10133706D01*
X31423121Y10145398D01*
X31408579Y10158579D01*
X31395398Y10173121D01*
X31383706Y10188886D01*
X31373616Y10205721D01*
X31365224Y10223463D01*
X31358612Y10241943D01*
X31353843Y10260982D01*
X31350963Y10280397D01*
X31350000Y10300000D01*
X31350000Y10700000D01*
X31350963Y10719603D01*
X31353843Y10739018D01*
X31358612Y10758057D01*
X31365224Y10776537D01*
X31373616Y10794279D01*
X31383706Y10811114D01*
X31395398Y10826879D01*
X31408579Y10841421D01*
X31423121Y10854602D01*
X31438886Y10866294D01*
X31455721Y10876384D01*
X31473463Y10884776D01*
X31491943Y10891388D01*
X31510982Y10896157D01*
X31530397Y10899037D01*
X31550000Y10900000D01*
X32450000Y10900000D01*
X32469603Y10899037D01*
X32469603Y10899037D01*
G37*
D18*
G04 #@! TD*
G04 #@! TO.P,J3,1*
G04 #@! TO.N,Net-(J3-Pad1)*
X32000000Y10500000D03*
D19*
G04 #@! TO.P,J3,2*
G04 #@! TO.N,+5V*
X32000000Y11750000D03*
G04 #@! TO.P,J3,3*
G04 #@! TO.N,/CAN_H*
X32000000Y13000000D03*
G04 #@! TO.P,J3,4*
G04 #@! TO.N,/CAN_L*
X32000000Y14250000D03*
G04 #@! TO.P,J3,5*
G04 #@! TO.N,GND*
X32000000Y15500000D03*
G04 #@! TD*
D20*
G04 #@! TO.P,J1,1*
G04 #@! TO.N,SPS_RX*
X6000000Y52000000D03*
G04 #@! TO.P,J1,2*
G04 #@! TO.N,/SPS_TX_EXT*
X8000000Y52000000D03*
G04 #@! TO.P,J1,3*
G04 #@! TO.N,+5V*
X10000000Y52000000D03*
G04 #@! TO.P,J1,4*
G04 #@! TO.N,GND*
X12000000Y52000000D03*
G04 #@! TD*
D21*
G04 #@! TO.P,NFC,1*
G04 #@! TO.N,Net-(J4-Pad1)*
X29150000Y53900000D03*
D13*
G04 #@! TD*
G04 #@! TO.N,Net-(J4-Pad1)*
G04 #@! TO.C,NFC*
G36*
X28650000Y54650000D02*
X29150000Y54650000D01*
X29150000Y54649398D01*
X29174534Y54649398D01*
X29223365Y54644588D01*
X29271490Y54635016D01*
X29318445Y54620772D01*
X29363778Y54601995D01*
X29407051Y54578864D01*
X29447850Y54551604D01*
X29485779Y54520476D01*
X29520476Y54485779D01*
X29551604Y54447850D01*
X29578864Y54407051D01*
X29601995Y54363778D01*
X29620772Y54318445D01*
X29635016Y54271490D01*
X29644588Y54223365D01*
X29649398Y54174534D01*
X29649398Y54150000D01*
X29650000Y54150000D01*
X29650000Y53650000D01*
X29649398Y53650000D01*
X29649398Y53625466D01*
X29644588Y53576635D01*
X29635016Y53528510D01*
X29620772Y53481555D01*
X29601995Y53436222D01*
X29578864Y53392949D01*
X29551604Y53352150D01*
X29520476Y53314221D01*
X29485779Y53279524D01*
X29447850Y53248396D01*
X29407051Y53221136D01*
X29363778Y53198005D01*
X29318445Y53179228D01*
X29271490Y53164984D01*
X29223365Y53155412D01*
X29174534Y53150602D01*
X29150000Y53150602D01*
X29150000Y53150000D01*
X28650000Y53150000D01*
X28650000Y54650000D01*
X28650000Y54650000D01*
G37*
D21*
G04 #@! TO.P,NFC,2*
G04 #@! TO.N,Net-(J4-Pad2)*
X27850000Y53900000D03*
D13*
G04 #@! TD*
G04 #@! TO.N,Net-(J4-Pad2)*
G04 #@! TO.C,NFC*
G36*
X27850000Y53150602D02*
X27825466Y53150602D01*
X27776635Y53155412D01*
X27728510Y53164984D01*
X27681555Y53179228D01*
X27636222Y53198005D01*
X27592949Y53221136D01*
X27552150Y53248396D01*
X27514221Y53279524D01*
X27479524Y53314221D01*
X27448396Y53352150D01*
X27421136Y53392949D01*
X27398005Y53436222D01*
X27379228Y53481555D01*
X27364984Y53528510D01*
X27355412Y53576635D01*
X27350602Y53625466D01*
X27350602Y53650000D01*
X27350000Y53650000D01*
X27350000Y54150000D01*
X27350602Y54150000D01*
X27350602Y54174534D01*
X27355412Y54223365D01*
X27364984Y54271490D01*
X27379228Y54318445D01*
X27398005Y54363778D01*
X27421136Y54407051D01*
X27448396Y54447850D01*
X27479524Y54485779D01*
X27514221Y54520476D01*
X27552150Y54551604D01*
X27592949Y54578864D01*
X27636222Y54601995D01*
X27681555Y54620772D01*
X27728510Y54635016D01*
X27776635Y54644588D01*
X27825466Y54649398D01*
X27850000Y54649398D01*
X27850000Y54650000D01*
X28350000Y54650000D01*
X28350000Y53150000D01*
X27850000Y53150000D01*
X27850000Y53150602D01*
X27850000Y53150602D01*
G37*
G04 #@! TO.N,SPS_RX*
G04 #@! TO.C,R24*
G36*
X10677691Y57748947D02*
X10698926Y57745797D01*
X10719750Y57740581D01*
X10739962Y57733349D01*
X10759368Y57724170D01*
X10777781Y57713134D01*
X10795024Y57700346D01*
X10810930Y57685930D01*
X10825346Y57670024D01*
X10838134Y57652781D01*
X10849170Y57634368D01*
X10858349Y57614962D01*
X10865581Y57594750D01*
X10870797Y57573926D01*
X10873947Y57552691D01*
X10875000Y57531250D01*
X10875000Y57093750D01*
X10873947Y57072309D01*
X10870797Y57051074D01*
X10865581Y57030250D01*
X10858349Y57010038D01*
X10849170Y56990632D01*
X10838134Y56972219D01*
X10825346Y56954976D01*
X10810930Y56939070D01*
X10795024Y56924654D01*
X10777781Y56911866D01*
X10759368Y56900830D01*
X10739962Y56891651D01*
X10719750Y56884419D01*
X10698926Y56879203D01*
X10677691Y56876053D01*
X10656250Y56875000D01*
X10143750Y56875000D01*
X10122309Y56876053D01*
X10101074Y56879203D01*
X10080250Y56884419D01*
X10060038Y56891651D01*
X10040632Y56900830D01*
X10022219Y56911866D01*
X10004976Y56924654D01*
X9989070Y56939070D01*
X9974654Y56954976D01*
X9961866Y56972219D01*
X9950830Y56990632D01*
X9941651Y57010038D01*
X9934419Y57030250D01*
X9929203Y57051074D01*
X9926053Y57072309D01*
X9925000Y57093750D01*
X9925000Y57531250D01*
X9926053Y57552691D01*
X9929203Y57573926D01*
X9934419Y57594750D01*
X9941651Y57614962D01*
X9950830Y57634368D01*
X9961866Y57652781D01*
X9974654Y57670024D01*
X9989070Y57685930D01*
X10004976Y57700346D01*
X10022219Y57713134D01*
X10040632Y57724170D01*
X10060038Y57733349D01*
X10080250Y57740581D01*
X10101074Y57745797D01*
X10122309Y57748947D01*
X10143750Y57750000D01*
X10656250Y57750000D01*
X10677691Y57748947D01*
X10677691Y57748947D01*
G37*
D22*
G04 #@! TD*
G04 #@! TO.P,R24,2*
G04 #@! TO.N,SPS_RX*
X10400000Y57312500D03*
D13*
G04 #@! TO.N,+3V3*
G04 #@! TO.C,R24*
G36*
X10677691Y59323947D02*
X10698926Y59320797D01*
X10719750Y59315581D01*
X10739962Y59308349D01*
X10759368Y59299170D01*
X10777781Y59288134D01*
X10795024Y59275346D01*
X10810930Y59260930D01*
X10825346Y59245024D01*
X10838134Y59227781D01*
X10849170Y59209368D01*
X10858349Y59189962D01*
X10865581Y59169750D01*
X10870797Y59148926D01*
X10873947Y59127691D01*
X10875000Y59106250D01*
X10875000Y58668750D01*
X10873947Y58647309D01*
X10870797Y58626074D01*
X10865581Y58605250D01*
X10858349Y58585038D01*
X10849170Y58565632D01*
X10838134Y58547219D01*
X10825346Y58529976D01*
X10810930Y58514070D01*
X10795024Y58499654D01*
X10777781Y58486866D01*
X10759368Y58475830D01*
X10739962Y58466651D01*
X10719750Y58459419D01*
X10698926Y58454203D01*
X10677691Y58451053D01*
X10656250Y58450000D01*
X10143750Y58450000D01*
X10122309Y58451053D01*
X10101074Y58454203D01*
X10080250Y58459419D01*
X10060038Y58466651D01*
X10040632Y58475830D01*
X10022219Y58486866D01*
X10004976Y58499654D01*
X9989070Y58514070D01*
X9974654Y58529976D01*
X9961866Y58547219D01*
X9950830Y58565632D01*
X9941651Y58585038D01*
X9934419Y58605250D01*
X9929203Y58626074D01*
X9926053Y58647309D01*
X9925000Y58668750D01*
X9925000Y59106250D01*
X9926053Y59127691D01*
X9929203Y59148926D01*
X9934419Y59169750D01*
X9941651Y59189962D01*
X9950830Y59209368D01*
X9961866Y59227781D01*
X9974654Y59245024D01*
X9989070Y59260930D01*
X10004976Y59275346D01*
X10022219Y59288134D01*
X10040632Y59299170D01*
X10060038Y59308349D01*
X10080250Y59315581D01*
X10101074Y59320797D01*
X10122309Y59323947D01*
X10143750Y59325000D01*
X10656250Y59325000D01*
X10677691Y59323947D01*
X10677691Y59323947D01*
G37*
D22*
G04 #@! TD*
G04 #@! TO.P,R24,1*
G04 #@! TO.N,+3V3*
X10400000Y58887500D03*
D13*
G04 #@! TO.N,+3V3*
G04 #@! TO.C,R25*
G36*
X12277691Y59323947D02*
X12298926Y59320797D01*
X12319750Y59315581D01*
X12339962Y59308349D01*
X12359368Y59299170D01*
X12377781Y59288134D01*
X12395024Y59275346D01*
X12410930Y59260930D01*
X12425346Y59245024D01*
X12438134Y59227781D01*
X12449170Y59209368D01*
X12458349Y59189962D01*
X12465581Y59169750D01*
X12470797Y59148926D01*
X12473947Y59127691D01*
X12475000Y59106250D01*
X12475000Y58668750D01*
X12473947Y58647309D01*
X12470797Y58626074D01*
X12465581Y58605250D01*
X12458349Y58585038D01*
X12449170Y58565632D01*
X12438134Y58547219D01*
X12425346Y58529976D01*
X12410930Y58514070D01*
X12395024Y58499654D01*
X12377781Y58486866D01*
X12359368Y58475830D01*
X12339962Y58466651D01*
X12319750Y58459419D01*
X12298926Y58454203D01*
X12277691Y58451053D01*
X12256250Y58450000D01*
X11743750Y58450000D01*
X11722309Y58451053D01*
X11701074Y58454203D01*
X11680250Y58459419D01*
X11660038Y58466651D01*
X11640632Y58475830D01*
X11622219Y58486866D01*
X11604976Y58499654D01*
X11589070Y58514070D01*
X11574654Y58529976D01*
X11561866Y58547219D01*
X11550830Y58565632D01*
X11541651Y58585038D01*
X11534419Y58605250D01*
X11529203Y58626074D01*
X11526053Y58647309D01*
X11525000Y58668750D01*
X11525000Y59106250D01*
X11526053Y59127691D01*
X11529203Y59148926D01*
X11534419Y59169750D01*
X11541651Y59189962D01*
X11550830Y59209368D01*
X11561866Y59227781D01*
X11574654Y59245024D01*
X11589070Y59260930D01*
X11604976Y59275346D01*
X11622219Y59288134D01*
X11640632Y59299170D01*
X11660038Y59308349D01*
X11680250Y59315581D01*
X11701074Y59320797D01*
X11722309Y59323947D01*
X11743750Y59325000D01*
X12256250Y59325000D01*
X12277691Y59323947D01*
X12277691Y59323947D01*
G37*
D22*
G04 #@! TD*
G04 #@! TO.P,R25,1*
G04 #@! TO.N,+3V3*
X12000000Y58887500D03*
D13*
G04 #@! TO.N,/SPS_TX_EXT*
G04 #@! TO.C,R25*
G36*
X12277691Y57748947D02*
X12298926Y57745797D01*
X12319750Y57740581D01*
X12339962Y57733349D01*
X12359368Y57724170D01*
X12377781Y57713134D01*
X12395024Y57700346D01*
X12410930Y57685930D01*
X12425346Y57670024D01*
X12438134Y57652781D01*
X12449170Y57634368D01*
X12458349Y57614962D01*
X12465581Y57594750D01*
X12470797Y57573926D01*
X12473947Y57552691D01*
X12475000Y57531250D01*
X12475000Y57093750D01*
X12473947Y57072309D01*
X12470797Y57051074D01*
X12465581Y57030250D01*
X12458349Y57010038D01*
X12449170Y56990632D01*
X12438134Y56972219D01*
X12425346Y56954976D01*
X12410930Y56939070D01*
X12395024Y56924654D01*
X12377781Y56911866D01*
X12359368Y56900830D01*
X12339962Y56891651D01*
X12319750Y56884419D01*
X12298926Y56879203D01*
X12277691Y56876053D01*
X12256250Y56875000D01*
X11743750Y56875000D01*
X11722309Y56876053D01*
X11701074Y56879203D01*
X11680250Y56884419D01*
X11660038Y56891651D01*
X11640632Y56900830D01*
X11622219Y56911866D01*
X11604976Y56924654D01*
X11589070Y56939070D01*
X11574654Y56954976D01*
X11561866Y56972219D01*
X11550830Y56990632D01*
X11541651Y57010038D01*
X11534419Y57030250D01*
X11529203Y57051074D01*
X11526053Y57072309D01*
X11525000Y57093750D01*
X11525000Y57531250D01*
X11526053Y57552691D01*
X11529203Y57573926D01*
X11534419Y57594750D01*
X11541651Y57614962D01*
X11550830Y57634368D01*
X11561866Y57652781D01*
X11574654Y57670024D01*
X11589070Y57685930D01*
X11604976Y57700346D01*
X11622219Y57713134D01*
X11640632Y57724170D01*
X11660038Y57733349D01*
X11680250Y57740581D01*
X11701074Y57745797D01*
X11722309Y57748947D01*
X11743750Y57750000D01*
X12256250Y57750000D01*
X12277691Y57748947D01*
X12277691Y57748947D01*
G37*
D22*
G04 #@! TD*
G04 #@! TO.P,R25,2*
G04 #@! TO.N,/SPS_TX_EXT*
X12000000Y57312500D03*
D23*
G04 #@! TO.N,VBUS*
X6899989Y14100000D03*
X8800000Y13800000D03*
D24*
G04 #@! TO.N,GND*
X28900000Y26000000D03*
D23*
X28900000Y16200000D03*
X27900000Y24400000D03*
X28600000Y22300000D03*
X35300000Y4900000D03*
X35300000Y1600000D03*
X20100000Y5000000D03*
D24*
X33300000Y36200000D03*
X35200000Y42700000D03*
X34400000Y46200000D03*
X35100000Y58792003D03*
X30900000Y50100000D03*
X25200000Y50200000D03*
X26300000Y52800000D03*
X26300000Y55200000D03*
X29600000Y55200000D03*
X18500000Y33000000D03*
X34000000Y18500000D03*
X35600000Y23000000D03*
X31699979Y26400000D03*
X3100000Y44500000D03*
X23774265Y42274265D03*
X20100743Y41899195D03*
X13000000Y34500000D03*
X16200000Y37100000D03*
X2800000Y36900000D03*
X4400000Y32300000D03*
X17100000Y14600000D03*
X6241677Y11073899D03*
X36400000Y34500000D03*
X29736397Y29400000D03*
X27100000Y13400000D03*
X15983313Y43444503D03*
X29750000Y52600000D03*
D25*
X28700000Y7600000D03*
D23*
X19500000Y3000000D03*
X20100000Y1600000D03*
X20900000Y692039D03*
X22000000Y692039D03*
X23100000Y692013D03*
X20600008Y3000000D03*
D24*
X1700000Y56300000D03*
X12799998Y48800000D03*
X5800000Y48999990D03*
X14300000Y49300000D03*
X4050148Y48928182D03*
D23*
X13100000Y6200000D03*
D24*
X35750000Y27450000D03*
X1393413Y21593399D03*
X15600000Y30400000D03*
X28600000Y37600000D03*
X13200000Y23599979D03*
D23*
X15800000Y23399960D03*
D24*
X4800000Y28000000D03*
X3200000Y26200000D03*
X1350000Y35400000D03*
X17600000Y25950000D03*
X33353815Y55823499D03*
D25*
G04 #@! TO.N,+3V3*
X36200000Y47300000D03*
X25639663Y22999179D03*
X20800000Y25400000D03*
X29774954Y46296834D03*
D26*
X35907159Y59217791D03*
D24*
X28700000Y29000000D03*
X32300000Y30900006D03*
X31198876Y29698876D03*
D25*
X12500000Y14800000D03*
X11220221Y17479779D03*
D24*
X9100000Y58799998D03*
X21617878Y32850022D03*
D25*
X1600000Y33799992D03*
X3600000Y30600002D03*
X7600000Y26000015D03*
X26671684Y28928316D03*
X27489619Y35800021D03*
X11000000Y26000000D03*
D24*
X20557134Y38100012D03*
G04 #@! TO.N,/CAN_SILENT*
X29769481Y32168397D03*
X28400000Y33800000D03*
G04 #@! TO.N,/CAN_SHDN*
X26800000Y24000000D03*
X25784425Y34926563D03*
D25*
G04 #@! TO.N,+5V*
X25900000Y9000000D03*
D24*
X11500002Y7600000D03*
D25*
X2600000Y49800000D03*
X800000Y17600000D03*
D24*
G04 #@! TO.N,/SDA*
X7000000Y24400000D03*
X10817543Y24067697D03*
G04 #@! TO.N,/SCL*
X23162263Y24497461D03*
X23612131Y25963587D03*
X7000000Y25200000D03*
X10856706Y24866741D03*
G04 #@! TO.N,/~RESET*
X20324272Y50324272D03*
X19499994Y47500000D03*
X16207413Y41522125D03*
X18875334Y41574905D03*
X27800000Y36799988D03*
X8127713Y26872287D03*
X12000000Y26200000D03*
X19759265Y38748714D03*
X18707755Y36394631D03*
G04 #@! TO.N,/SWDCLK*
X21400000Y28000000D03*
X19000000Y26000000D03*
G04 #@! TO.N,/SWDIO*
X17300000Y32500000D03*
X17400000Y31300000D03*
D25*
G04 #@! TO.N,+BATT*
X24228432Y7428432D03*
X12407019Y7054285D03*
G04 #@! TO.N,/VIN*
X18900000Y15500000D03*
X24800000Y14800000D03*
X30400000Y15400000D03*
X30900000Y9400000D03*
D27*
G04 #@! TO.N,Net-(BT1-Pad2)*
X7887482Y3000000D03*
D24*
G04 #@! TO.N,GPS_RX*
X19256234Y43134350D03*
X17631812Y42895267D03*
G04 #@! TO.N,GPS_TX*
X19221010Y42328119D03*
X17283800Y42174915D03*
G04 #@! TO.N,/~SPI_ADS_CS*
X25068703Y23820160D03*
X25023385Y35284350D03*
G04 #@! TO.N,/SPI_SCK*
X24700000Y22400000D03*
X24305747Y34023251D03*
G04 #@! TO.N,/SPI_MISO*
X23700000Y35300000D03*
X24247139Y23767105D03*
G04 #@! TO.N,/SPI_MOSI*
X23499990Y21700000D03*
X23600000Y34400000D03*
G04 #@! TO.N,Net-(J4-Pad1)*
X29136566Y50627463D03*
G04 #@! TO.N,Net-(J4-Pad2)*
X27850002Y50599998D03*
D25*
G04 #@! TO.N,Net-(Q2-Pad3)*
X12400000Y800000D03*
X17973200Y1665066D03*
D24*
G04 #@! TO.N,/BLUE*
X34988283Y57289530D03*
X32874522Y48044565D03*
G04 #@! TO.N,/GPS_TIME*
X10000000Y40300000D03*
X19700000Y43800000D03*
X16700000Y43800000D03*
X8150000Y39810000D03*
G04 #@! TO.N,NINA_DSR*
X19800010Y51000000D03*
X19624272Y49324272D03*
G04 #@! TO.N,NINA_RTS*
X21000022Y51061337D03*
X22783112Y49976480D03*
G04 #@! TO.N,NINA_CTS*
X21167963Y49634282D03*
X22800067Y48000000D03*
G04 #@! TO.N,/5V_EN*
X22200000Y27800000D03*
X22100010Y23785495D03*
G04 #@! TO.N,/on_off*
X18050000Y36850000D03*
X19357122Y38057122D03*
G04 #@! TD*
D28*
G04 #@! TO.N,VBUS*
X7099989Y13900000D02*
X6899989Y14100000D01*
X8700000Y13900000D02*
X7099989Y13900000D01*
D29*
G04 #@! TO.N,GND*
X1393413Y21593399D02*
X1393413Y18406587D01*
X2200000Y17600000D02*
X2200000Y16000000D01*
X1393413Y18406587D02*
X2200000Y17600000D01*
D30*
G04 #@! TO.N,+3V3*
X25639663Y22999179D02*
X25639663Y22007661D01*
X24432001Y20799999D02*
X23067989Y20799999D01*
X23067989Y20799999D02*
X21200000Y22667988D01*
X25639663Y22007661D02*
X24432001Y20799999D01*
X21200000Y25000000D02*
X20800000Y25400000D01*
X21200000Y22667988D02*
X21200000Y25000000D01*
D31*
X22500000Y33845094D02*
X22500000Y35136002D01*
X22500000Y35136002D02*
X23363998Y36000000D01*
X36200000Y47300000D02*
X36200000Y48007106D01*
X36257158Y58867792D02*
X35907159Y59217791D01*
X36200000Y48007106D02*
X36400000Y48207106D01*
X36400000Y48207106D02*
X36400000Y58724950D01*
X36400000Y58724950D02*
X36257158Y58867792D01*
D29*
X28700000Y29000000D02*
X27831767Y29000000D01*
X32300000Y30800000D02*
X32300000Y30900006D01*
X31198876Y29698876D02*
X32300000Y30800000D01*
D31*
X12500000Y16200000D02*
X11220221Y17479779D01*
X12500000Y14800000D02*
X12500000Y16200000D01*
X30482060Y46296834D02*
X29774954Y46296834D01*
X30896834Y46296834D02*
X30482060Y46296834D01*
X31700000Y47100000D02*
X30896834Y46296834D01*
X36000000Y47100000D02*
X31700000Y47100000D01*
X36200000Y47300000D02*
X36000000Y47100000D01*
D29*
X12000000Y58887500D02*
X10400000Y58887500D01*
X10400000Y58887500D02*
X9187502Y58887500D01*
X9187502Y58887500D02*
X9100000Y58799998D01*
X22412950Y33645094D02*
X21917877Y33150021D01*
X21917877Y33150021D02*
X21617878Y32850022D01*
D31*
X26582503Y36000000D02*
X26782513Y35799990D01*
X23363998Y36000000D02*
X26582503Y36000000D01*
X3399998Y30600002D02*
X3600000Y30600002D01*
X1600000Y32400000D02*
X3399998Y30600002D01*
X1600000Y33799992D02*
X1600000Y32400000D01*
X26671684Y29635422D02*
X26284435Y30022671D01*
X26671684Y28928316D02*
X26671684Y29635422D01*
X26782513Y34888649D02*
X26782513Y35799990D01*
X26284435Y34390571D02*
X26782513Y34888649D01*
X26284435Y30022671D02*
X26284435Y34390571D01*
X26782513Y35799990D02*
X27489588Y35799990D01*
X27489588Y35799990D02*
X27489619Y35800021D01*
D29*
X27760083Y28928316D02*
X26671684Y28928316D01*
X27831767Y29000000D02*
X27760083Y28928316D01*
D31*
X7600000Y26000015D02*
X10999985Y26000015D01*
X10999985Y26000015D02*
X11000000Y26000000D01*
D29*
X20857133Y37800013D02*
X20557134Y38100012D01*
X23363998Y36000000D02*
X22657146Y36000000D01*
X22657146Y36000000D02*
X20857133Y37800013D01*
G04 #@! TO.N,/CAN_SILENT*
X28400000Y33537878D02*
X28400000Y33800000D01*
X29769481Y32168397D02*
X28400000Y33537878D01*
G04 #@! TO.N,/CAN_SHDN*
X25784425Y25015575D02*
X25784425Y34502299D01*
X25784425Y34502299D02*
X25784425Y34926563D01*
X26800000Y24000000D02*
X25784425Y25015575D01*
D30*
G04 #@! TO.N,+5V*
X25192894Y9000000D02*
X25900000Y9000000D01*
X13200000Y9800000D02*
X13950001Y9049999D01*
X13950001Y9049999D02*
X25142895Y9049999D01*
X25142895Y9049999D02*
X25192894Y9000000D01*
X12500000Y10500000D02*
X13200000Y9800000D01*
D28*
X13200000Y9800000D02*
X13200000Y9299998D01*
X11800001Y7899999D02*
X11500002Y7600000D01*
X13200000Y9299998D02*
X11800001Y7899999D01*
D32*
X600000Y47800000D02*
X2100001Y49300001D01*
X643412Y22153414D02*
X2400000Y23910002D01*
X2400000Y23910002D02*
X2400000Y26400000D01*
X1800000Y27200000D02*
X1800000Y30400000D01*
X1800000Y30400000D02*
X600000Y31600000D01*
X600000Y31600000D02*
X600000Y47800000D01*
X2100001Y49300001D02*
X2600000Y49800000D01*
X2000000Y27000000D02*
X1800000Y27200000D01*
X2000000Y26800000D02*
X2000000Y27000000D01*
X2400000Y26400000D02*
X2000000Y26800000D01*
X643412Y18463694D02*
X643412Y22153414D01*
X800000Y18307106D02*
X643412Y18463694D01*
X800000Y17600000D02*
X800000Y18307106D01*
D29*
G04 #@! TO.N,/SDA*
X7000000Y24400000D02*
X7332303Y24067697D01*
X7332303Y24067697D02*
X10393279Y24067697D01*
X10393279Y24067697D02*
X10817543Y24067697D01*
G04 #@! TO.N,/SCL*
X23162263Y25513719D02*
X23312132Y25663588D01*
X23162263Y24497461D02*
X23162263Y25513719D01*
X23312132Y25663588D02*
X23612131Y25963587D01*
X7000000Y25200000D02*
X10523447Y25200000D01*
X10523447Y25200000D02*
X10556707Y25166740D01*
X10556707Y25166740D02*
X10856706Y24866741D01*
G04 #@! TO.N,/~RESET*
X19799993Y47799999D02*
X19499994Y47500000D01*
X20324272Y50324272D02*
X20324272Y48324278D01*
X20324272Y48324278D02*
X19799993Y47799999D01*
X18875334Y41574905D02*
X16260193Y41574905D01*
X16260193Y41574905D02*
X16207413Y41522125D01*
X11700001Y26499999D02*
X12000000Y26200000D01*
X11327713Y26872287D02*
X11700001Y26499999D01*
X8127713Y26872287D02*
X11327713Y26872287D01*
X20183529Y38748714D02*
X19759265Y38748714D01*
X22949767Y36600000D02*
X20801053Y38748714D01*
X19851126Y37401126D02*
X19957124Y37507124D01*
X27305582Y36799988D02*
X27105594Y36600000D01*
X19957124Y37507124D02*
X19957124Y38550855D01*
X20801053Y38748714D02*
X20183529Y38748714D01*
X27105594Y36600000D02*
X22949767Y36600000D01*
X27800000Y36799988D02*
X27305582Y36799988D01*
X19957124Y38550855D02*
X19759265Y38748714D01*
X19714250Y37401126D02*
X18707755Y36394631D01*
X19851126Y37401126D02*
X19714250Y37401126D01*
G04 #@! TO.N,/SWDCLK*
X19000000Y26424264D02*
X19000000Y26000000D01*
X19000000Y26624264D02*
X19000000Y26424264D01*
X19775736Y27400000D02*
X19000000Y26624264D01*
X20800000Y27400000D02*
X19775736Y27400000D01*
X21400000Y28000000D02*
X20800000Y27400000D01*
G04 #@! TO.N,/SWDIO*
X17300000Y31400000D02*
X17400000Y31300000D01*
X17300000Y32500000D02*
X17300000Y31400000D01*
D28*
G04 #@! TO.N,+BATT*
X12781166Y7428432D02*
X12407019Y7054285D01*
X24228432Y7428432D02*
X12781166Y7428432D01*
D30*
G04 #@! TO.N,/VIN*
X18900000Y15500000D02*
X18900000Y14792894D01*
X20513108Y14792894D02*
X20520214Y14800000D01*
X18900000Y14792894D02*
X20513108Y14792894D01*
X20520214Y14800000D02*
X24800000Y14800000D01*
D28*
X30800000Y15000000D02*
X30800000Y10950000D01*
X30400000Y15400000D02*
X30800000Y15000000D01*
X30800000Y9500000D02*
X30900000Y9400000D01*
X30800000Y10950000D02*
X30800000Y9500000D01*
D30*
G04 #@! TO.N,Net-(BT1-Pad2)*
X7800000Y3000000D02*
X7887482Y3000000D01*
X6200000Y4600000D02*
X7800000Y3000000D01*
X6200000Y6000000D02*
X6200000Y4600000D01*
D29*
G04 #@! TO.N,GPS_RX*
X17870895Y43134350D02*
X17631812Y42895267D01*
X19256234Y43134350D02*
X17870895Y43134350D01*
G04 #@! TO.N,GPS_TX*
X17283800Y42174915D02*
X19067806Y42174915D01*
X19067806Y42174915D02*
X19221010Y42328119D01*
G04 #@! TO.N,/~SPI_ADS_CS*
X25368702Y24120159D02*
X25368702Y34448583D01*
X25068703Y23820160D02*
X25368702Y24120159D01*
X25368702Y34448583D02*
X25023385Y34793900D01*
X25023385Y34793900D02*
X25023385Y34860086D01*
X25023385Y34860086D02*
X25023385Y35284350D01*
G04 #@! TO.N,/SPI_SCK*
X23762265Y24209459D02*
X23762265Y24462265D01*
X24479595Y33425139D02*
X24305747Y33598987D01*
X24700000Y22400000D02*
X23597953Y23502047D01*
X23597953Y23502047D02*
X23597953Y24045147D01*
X23597953Y24045147D02*
X23762265Y24209459D01*
X23762265Y24462265D02*
X24479595Y25179595D01*
X24479595Y25179595D02*
X24479595Y33425139D01*
X24305747Y33598987D02*
X24305747Y34023251D01*
G04 #@! TO.N,/SPI_MISO*
X23700000Y35300000D02*
X23999999Y35000001D01*
X24905749Y34311253D02*
X24905749Y33735249D01*
X24217001Y35000001D02*
X24905749Y34311253D01*
X24899978Y24844208D02*
X24247139Y24191369D01*
X23999999Y35000001D02*
X24217001Y35000001D01*
X24247139Y24191369D02*
X24247139Y23767105D01*
X24899978Y33729478D02*
X24899978Y24844208D01*
X24905749Y33735249D02*
X24899978Y33729478D01*
G04 #@! TO.N,/SPI_MOSI*
X24079584Y33054093D02*
X23600000Y33533677D01*
X23499990Y21700000D02*
X22700011Y22499979D01*
X22700011Y24073496D02*
X22500000Y24273507D01*
X22500000Y24273507D02*
X22500000Y25700000D01*
X23600000Y33975736D02*
X23600000Y34400000D01*
X22700011Y22499979D02*
X22700011Y24073496D01*
X22500000Y25700000D02*
X24079584Y27279584D01*
X23600000Y33533677D02*
X23600000Y33975736D01*
X24079584Y27279584D02*
X24079584Y33054093D01*
G04 #@! TO.N,Net-(J4-Pad1)*
X29136566Y50627463D02*
X29136566Y51586566D01*
X29150000Y51600000D02*
X29150000Y53900000D01*
X29136566Y51586566D02*
X29150000Y51600000D01*
G04 #@! TO.N,Net-(J4-Pad2)*
X27850002Y50599998D02*
X27850002Y51599998D01*
X27850000Y51600000D02*
X27850000Y53900000D01*
X27850002Y51599998D02*
X27850000Y51600000D01*
D28*
G04 #@! TO.N,Net-(Q2-Pad3)*
X12400000Y800000D02*
X17108134Y800000D01*
X17473201Y1165067D02*
X17973200Y1665066D01*
X17108134Y800000D02*
X17473201Y1165067D01*
D29*
G04 #@! TO.N,/BLUE*
X35000000Y47700000D02*
X33219087Y47700000D01*
X35288282Y56211718D02*
X35900000Y55600000D01*
X35900000Y48600000D02*
X35000000Y47700000D01*
X33219087Y47700000D02*
X32874522Y48044565D01*
X35288282Y56989531D02*
X35288282Y56211718D01*
X35900000Y55600000D02*
X35900000Y48600000D01*
X34988283Y57289530D02*
X35288282Y56989531D01*
G04 #@! TO.N,/GPS_TIME*
X19700000Y43800000D02*
X16700000Y43800000D01*
X8574264Y39810000D02*
X8150000Y39810000D01*
X10000000Y40300000D02*
X9510000Y39810000D01*
X9510000Y39810000D02*
X8574264Y39810000D01*
G04 #@! TO.N,NINA_DSR*
X19800010Y51000000D02*
X19500011Y50700001D01*
X19500011Y49448533D02*
X19624272Y49324272D01*
X19500011Y50700001D02*
X19500011Y49448533D01*
G04 #@! TO.N,NINA_RTS*
X21000022Y51061337D02*
X22084879Y49976480D01*
X22084879Y49976480D02*
X22358848Y49976480D01*
X22358848Y49976480D02*
X22783112Y49976480D01*
G04 #@! TO.N,NINA_CTS*
X21167963Y49634282D02*
X22800067Y48002178D01*
X22800067Y48002178D02*
X22800067Y48000000D01*
G04 #@! TO.N,/5V_EN*
X22200000Y27800000D02*
X21900001Y27500001D01*
X21900001Y23985504D02*
X22100010Y23785495D01*
X21900001Y27500001D02*
X21900001Y23985504D01*
G04 #@! TO.N,SPS_RX*
X6000000Y53077630D02*
X6000000Y52000000D01*
X6000000Y53487500D02*
X6000000Y53077630D01*
X9825000Y57312500D02*
X6000000Y53487500D01*
X10400000Y57312500D02*
X9825000Y57312500D01*
G04 #@! TO.N,/SPS_TX_EXT*
X12012500Y57312500D02*
X12400000Y57312500D01*
X8000000Y53300000D02*
X12012500Y57312500D01*
X8000000Y52000000D02*
X8000000Y53300000D01*
G04 #@! TO.N,/on_off*
X18050000Y36850000D02*
X19257122Y38057122D01*
X19257122Y38057122D02*
X19357122Y38057122D01*
G04 #@! TD*
D33*
G04 #@! TO.N,GND*
G36*
X8173000Y58984390D02*
X8173000Y58615606D01*
X8314127Y58274895D01*
X8574897Y58014125D01*
X8915608Y57872998D01*
X9284392Y57872998D01*
X9388906Y57916289D01*
X9363770Y57878670D01*
X9300863Y57836637D01*
X9260306Y57775939D01*
X5536562Y54052194D01*
X5475863Y54011636D01*
X5315182Y53771160D01*
X5273000Y53559098D01*
X5273000Y53559095D01*
X5258759Y53487500D01*
X5273000Y53415905D01*
X5273000Y53202309D01*
X5213195Y53177537D01*
X4822463Y52786805D01*
X4611000Y52276289D01*
X4611000Y51723711D01*
X4822463Y51213195D01*
X5213195Y50822463D01*
X5723711Y50611000D01*
X6276289Y50611000D01*
X6786805Y50822463D01*
X7000000Y51035658D01*
X7213195Y50822463D01*
X7723711Y50611000D01*
X8276289Y50611000D01*
X8786805Y50822463D01*
X9000000Y51035658D01*
X9213195Y50822463D01*
X9723711Y50611000D01*
X10276289Y50611000D01*
X10786805Y50822463D01*
X10984129Y51019787D01*
X11199392Y51019787D01*
X11268857Y50777603D01*
X11792302Y50590856D01*
X12347368Y50618638D01*
X12731143Y50777603D01*
X12800608Y51019787D01*
X12000000Y51820395D01*
X11199392Y51019787D01*
X10984129Y51019787D01*
X11177537Y51213195D01*
X11279323Y51458928D01*
X11820395Y52000000D01*
X12179605Y52000000D01*
X12980213Y51199392D01*
X13222397Y51268857D01*
X13409144Y51792302D01*
X13381362Y52347368D01*
X13222397Y52731143D01*
X12980213Y52800608D01*
X12179605Y52000000D01*
X11820395Y52000000D01*
X11279323Y52541072D01*
X11177537Y52786805D01*
X10984129Y52980213D01*
X11199392Y52980213D01*
X12000000Y52179605D01*
X12800608Y52980213D01*
X12731143Y53222397D01*
X12207698Y53409144D01*
X11652632Y53381362D01*
X11268857Y53222397D01*
X11199392Y52980213D01*
X10984129Y52980213D01*
X10786805Y53177537D01*
X10276289Y53389000D01*
X9723711Y53389000D01*
X9213195Y53177537D01*
X9000000Y52964342D01*
X8846237Y53118105D01*
X9275792Y53547660D01*
X16227265Y53547660D01*
X16545501Y53093797D01*
X17806434Y52567064D01*
X19172956Y52562965D01*
X20437027Y53082122D01*
X20454499Y53093797D01*
X20772735Y53547660D01*
X18500000Y55820395D01*
X16227265Y53547660D01*
X9275792Y53547660D01*
X11055176Y55327044D01*
X15062965Y55327044D01*
X15582122Y54062973D01*
X15593797Y54045501D01*
X16047660Y53727265D01*
X18320395Y56000000D01*
X18679605Y56000000D01*
X20952340Y53727265D01*
X21406203Y54045501D01*
X21449855Y54150000D01*
X26710716Y54150000D01*
X26710716Y53650000D01*
X26713124Y53637894D01*
X26713124Y53600991D01*
X26725408Y53476273D01*
X26744530Y53380140D01*
X26780907Y53260218D01*
X26818416Y53169662D01*
X26877494Y53059134D01*
X26931950Y52977635D01*
X27011453Y52880761D01*
X27080761Y52811453D01*
X27123001Y52776788D01*
X27123000Y51671597D01*
X27108759Y51600000D01*
X27123000Y51528405D01*
X27123000Y51528402D01*
X27123003Y51528388D01*
X27123003Y51183975D01*
X27064129Y51125101D01*
X26923002Y50784390D01*
X26923002Y50415606D01*
X27064129Y50074895D01*
X27324899Y49814125D01*
X27665610Y49672998D01*
X28034394Y49672998D01*
X28375105Y49814125D01*
X28507017Y49946037D01*
X28611463Y49841590D01*
X28952174Y49700463D01*
X29320958Y49700463D01*
X29661669Y49841590D01*
X29922439Y50102360D01*
X30063566Y50443071D01*
X30063566Y50811855D01*
X29922439Y51152566D01*
X29863566Y51211439D01*
X29863566Y51460864D01*
X29877000Y51528401D01*
X29877000Y51528405D01*
X29891241Y51600000D01*
X29877000Y51671597D01*
X29877000Y52776788D01*
X29919239Y52811453D01*
X29988547Y52880761D01*
X30068050Y52977635D01*
X30122506Y53059134D01*
X30181584Y53169662D01*
X30219093Y53260218D01*
X30255470Y53380140D01*
X30274592Y53476273D01*
X30286876Y53600991D01*
X30286876Y53637894D01*
X30289284Y53650000D01*
X30289284Y54150000D01*
X30286876Y54162106D01*
X30286876Y54199009D01*
X30274592Y54323727D01*
X30255470Y54419860D01*
X30219093Y54539782D01*
X30181584Y54630338D01*
X30122506Y54740866D01*
X30068050Y54822365D01*
X29988547Y54919239D01*
X29919239Y54988547D01*
X29822365Y55068050D01*
X29740866Y55122506D01*
X29630338Y55181584D01*
X29539782Y55219093D01*
X29419860Y55255470D01*
X29323727Y55274592D01*
X29199009Y55286876D01*
X29162106Y55286876D01*
X29150000Y55289284D01*
X28650000Y55289284D01*
X28500000Y55259447D01*
X28350000Y55289284D01*
X27850000Y55289284D01*
X27837894Y55286876D01*
X27800991Y55286876D01*
X27676273Y55274592D01*
X27580140Y55255470D01*
X27460218Y55219093D01*
X27369662Y55181584D01*
X27259134Y55122506D01*
X27177635Y55068050D01*
X27080761Y54988547D01*
X27011453Y54919239D01*
X26931950Y54822365D01*
X26877494Y54740866D01*
X26818416Y54630338D01*
X26780907Y54539782D01*
X26744530Y54419860D01*
X26725408Y54323727D01*
X26713124Y54199009D01*
X26713124Y54162106D01*
X26710716Y54150000D01*
X21449855Y54150000D01*
X21932936Y55306434D01*
X21937035Y56672956D01*
X21417878Y57937027D01*
X21406203Y57954499D01*
X20952340Y58272735D01*
X18679605Y56000000D01*
X18320395Y56000000D01*
X16047660Y58272735D01*
X15593797Y57954499D01*
X15067064Y56693566D01*
X15062965Y55327044D01*
X11055176Y55327044D01*
X11963850Y56235717D01*
X12256250Y56235717D01*
X12584605Y56301031D01*
X12862971Y56487029D01*
X13048969Y56765395D01*
X13114283Y57093750D01*
X13114283Y57176969D01*
X13141242Y57312500D01*
X13114283Y57448031D01*
X13114283Y57531250D01*
X13048969Y57859605D01*
X12888342Y58100000D01*
X13048969Y58340395D01*
X13114283Y58668750D01*
X13114283Y59106250D01*
X13082703Y59265013D01*
X17408196Y59265013D01*
X16562973Y58917878D01*
X16545501Y58906203D01*
X16227265Y58452340D01*
X18500000Y56179605D01*
X20772735Y58452340D01*
X20454499Y58906203D01*
X19595553Y59265013D01*
X34930159Y59265013D01*
X34930159Y59023454D01*
X35078898Y58664365D01*
X35353733Y58389530D01*
X35573001Y58298707D01*
X35573001Y58015788D01*
X35513386Y58075403D01*
X35172675Y58216530D01*
X34803891Y58216530D01*
X34463180Y58075403D01*
X34202410Y57814633D01*
X34061283Y57473922D01*
X34061283Y57105138D01*
X34202410Y56764427D01*
X34463180Y56503657D01*
X34561282Y56463022D01*
X34561282Y56283313D01*
X34547041Y56211718D01*
X34561282Y56140123D01*
X34561282Y56140119D01*
X34576535Y56063439D01*
X34603464Y55928058D01*
X34603465Y55928057D01*
X34764146Y55687581D01*
X34824844Y55647024D01*
X35173000Y55298867D01*
X35173001Y48901134D01*
X34698868Y48427000D01*
X33719490Y48427000D01*
X33660395Y48569668D01*
X33399625Y48830438D01*
X33058914Y48971565D01*
X32690130Y48971565D01*
X32349419Y48830438D01*
X32088649Y48569668D01*
X31947522Y48228957D01*
X31947522Y47927000D01*
X31781442Y47927000D01*
X31699999Y47943200D01*
X31618556Y47927000D01*
X31618552Y47927000D01*
X31377321Y47879016D01*
X31103767Y47696233D01*
X31057631Y47627186D01*
X30554280Y47123834D01*
X30541772Y47123834D01*
X30413348Y47252258D01*
X29999128Y47423834D01*
X29550780Y47423834D01*
X29136560Y47252258D01*
X28819530Y46935228D01*
X28647954Y46521008D01*
X28647954Y46072660D01*
X28819530Y45658440D01*
X29136560Y45341410D01*
X29550780Y45169834D01*
X29999128Y45169834D01*
X30413348Y45341410D01*
X30541772Y45469834D01*
X30815390Y45469834D01*
X30896834Y45453634D01*
X30978278Y45469834D01*
X30978282Y45469834D01*
X31219513Y45517818D01*
X31493067Y45700601D01*
X31539206Y45769653D01*
X32042554Y46273000D01*
X35734405Y46273000D01*
X35975826Y46173000D01*
X36273000Y46173000D01*
X36273001Y27571608D01*
X36239061Y27400978D01*
X36182969Y27317031D01*
X36022432Y27209764D01*
X35762513Y27077328D01*
X35689462Y27024254D01*
X35613111Y26976058D01*
X35213298Y26625289D01*
X35213294Y26625287D01*
X35141013Y26538342D01*
X35067886Y26450381D01*
X35067886Y26450380D01*
X34796032Y25993226D01*
X34744144Y25863089D01*
X34711790Y25781947D01*
X34594510Y25263161D01*
X34580228Y25044591D01*
X34579679Y25036188D01*
X34628454Y24506551D01*
X34684488Y24286105D01*
X34894542Y23797463D01*
X35015954Y23605122D01*
X35015957Y23605119D01*
X35366725Y23205307D01*
X35366726Y23205306D01*
X35541632Y23059897D01*
X35986545Y22795323D01*
X36180520Y22669410D01*
X36237722Y22586216D01*
X36273000Y22420412D01*
X36273001Y1552108D01*
X36221861Y1244864D01*
X36102886Y1024364D01*
X35918905Y854294D01*
X35676374Y747072D01*
X35454265Y719013D01*
X18620965Y719013D01*
X18928624Y1026672D01*
X19100200Y1440892D01*
X19100200Y1889240D01*
X18928624Y2303460D01*
X18611594Y2620490D01*
X18197374Y2792066D01*
X17749026Y2792066D01*
X17334806Y2620490D01*
X17017776Y2303460D01*
X16846200Y1889240D01*
X16846200Y1849041D01*
X16724159Y1727000D01*
X13066818Y1727000D01*
X13038394Y1755424D01*
X12624174Y1927000D01*
X12175826Y1927000D01*
X11761606Y1755424D01*
X11444576Y1438394D01*
X11273000Y1024174D01*
X11273000Y719013D01*
X1560089Y719013D01*
X1252851Y770152D01*
X1032351Y889127D01*
X862281Y1073108D01*
X755059Y1315639D01*
X727000Y1537748D01*
X727000Y6625001D01*
X2960717Y6625001D01*
X2960717Y5374999D01*
X3028410Y5034686D01*
X3221182Y4746182D01*
X3509686Y4553410D01*
X3849999Y4485717D01*
X4550001Y4485717D01*
X4890314Y4553410D01*
X5173001Y4742295D01*
X5173001Y4701153D01*
X5152880Y4600000D01*
X5227075Y4227000D01*
X5232588Y4199285D01*
X5459575Y3859574D01*
X5545328Y3802276D01*
X6709141Y2638462D01*
X6847282Y2304961D01*
X7192443Y1959800D01*
X7643417Y1773000D01*
X8131547Y1773000D01*
X8582521Y1959800D01*
X8927682Y2304961D01*
X9114482Y2755935D01*
X9114482Y3244065D01*
X8927682Y3695039D01*
X8582521Y4040200D01*
X8131547Y4227000D01*
X8025397Y4227000D01*
X7227000Y5025396D01*
X7227000Y5053474D01*
X7355808Y5246249D01*
X7427000Y5604154D01*
X7427000Y6395847D01*
X7355808Y6753752D01*
X7084617Y7159617D01*
X6678751Y7430808D01*
X6200000Y7526038D01*
X5721248Y7430808D01*
X5315383Y7159617D01*
X5278572Y7104525D01*
X5178818Y7253818D01*
X4890314Y7446590D01*
X4550001Y7514283D01*
X3849999Y7514283D01*
X3509686Y7446590D01*
X3221182Y7253818D01*
X3028410Y6965314D01*
X2960717Y6625001D01*
X727000Y6625001D01*
X727000Y7600000D01*
X10554841Y7600000D01*
X10573002Y7508700D01*
X10573002Y7415608D01*
X10608628Y7329600D01*
X10626788Y7238303D01*
X10678503Y7160906D01*
X10714129Y7074897D01*
X10779958Y7009068D01*
X10831673Y6931671D01*
X10909070Y6879956D01*
X10974899Y6814127D01*
X11060908Y6778501D01*
X11138305Y6726786D01*
X11229602Y6708626D01*
X11315610Y6673000D01*
X11345097Y6673000D01*
X11451595Y6415891D01*
X11768625Y6098861D01*
X12182845Y5927285D01*
X12631193Y5927285D01*
X13045413Y6098861D01*
X13362443Y6415891D01*
X13397875Y6501432D01*
X23561614Y6501432D01*
X23590038Y6473008D01*
X24004258Y6301432D01*
X24452606Y6301432D01*
X24866826Y6473008D01*
X25183856Y6790038D01*
X25355432Y7204258D01*
X25355432Y7652606D01*
X25228149Y7959893D01*
X25294042Y7973000D01*
X25434405Y7973000D01*
X25675826Y7873000D01*
X26124174Y7873000D01*
X26538394Y8044576D01*
X26855424Y8361606D01*
X27027000Y8775826D01*
X27027000Y9224174D01*
X26855424Y9638394D01*
X26582816Y9911002D01*
X26591303Y9923703D01*
X26705936Y10500000D01*
X26591303Y11076297D01*
X26264858Y11564858D01*
X25957840Y11770000D01*
X26264858Y11975142D01*
X26591303Y12463703D01*
X26705936Y13040000D01*
X26591303Y13616297D01*
X26264858Y14104858D01*
X25847445Y14383764D01*
X25927000Y14575826D01*
X25927000Y15024174D01*
X25755424Y15438394D01*
X25569644Y15624174D01*
X29273000Y15624174D01*
X29273000Y15175826D01*
X29444576Y14761606D01*
X29761606Y14444576D01*
X29873000Y14398435D01*
X29873001Y11041306D01*
X29873000Y11041301D01*
X29873001Y9865596D01*
X29773000Y9624174D01*
X29773000Y9175826D01*
X29944576Y8761606D01*
X30261606Y8444576D01*
X30675826Y8273000D01*
X31124174Y8273000D01*
X31538394Y8444576D01*
X31855424Y8761606D01*
X32027000Y9175826D01*
X32027000Y9460717D01*
X32450000Y9460717D01*
X32771180Y9524604D01*
X33043463Y9706537D01*
X33225396Y9978820D01*
X33289283Y10300000D01*
X33289283Y10700000D01*
X33225396Y11021180D01*
X33111788Y11191206D01*
X33217413Y11349285D01*
X33297120Y11750000D01*
X33217413Y12150715D01*
X33067551Y12375000D01*
X33217413Y12599285D01*
X33297120Y13000000D01*
X33217413Y13400715D01*
X33067551Y13625000D01*
X33217413Y13849285D01*
X33297120Y14250000D01*
X33217413Y14650715D01*
X33071202Y14869536D01*
X33234987Y15137031D01*
X33244666Y15213877D01*
X33116998Y15373000D01*
X32127000Y15373000D01*
X32127000Y15353000D01*
X31873000Y15353000D01*
X31873000Y15373000D01*
X31853000Y15373000D01*
X31853000Y15627000D01*
X31873000Y15627000D01*
X31873000Y16383756D01*
X32127000Y16383756D01*
X32127000Y15627000D01*
X33116998Y15627000D01*
X33244666Y15786123D01*
X33234987Y15862969D01*
X33021107Y16212278D01*
X32689833Y16453149D01*
X32291598Y16548912D01*
X32127000Y16383756D01*
X31873000Y16383756D01*
X31708402Y16548912D01*
X31310167Y16453149D01*
X31096226Y16297592D01*
X31038394Y16355424D01*
X30624174Y16527000D01*
X30175826Y16527000D01*
X29761606Y16355424D01*
X29444576Y16038394D01*
X29273000Y15624174D01*
X25569644Y15624174D01*
X25438394Y15755424D01*
X25024174Y15927000D01*
X24575826Y15927000D01*
X24334405Y15827000D01*
X20621362Y15827000D01*
X20520213Y15847120D01*
X20419064Y15827000D01*
X20383340Y15819894D01*
X19987351Y15819894D01*
X19855424Y16138394D01*
X19538394Y16455424D01*
X19124174Y16627000D01*
X18675826Y16627000D01*
X18261606Y16455424D01*
X17944576Y16138394D01*
X17773000Y15724174D01*
X17773000Y15275826D01*
X17873000Y15034405D01*
X17873000Y14894044D01*
X17852880Y14792894D01*
X17915268Y14479247D01*
X17725471Y14517000D01*
X17434529Y14517000D01*
X17003703Y14431303D01*
X16515142Y14104858D01*
X16300128Y13783066D01*
X16235183Y13921358D01*
X15806924Y14311645D01*
X15396890Y14481476D01*
X15167000Y14360155D01*
X15167000Y13167000D01*
X15187000Y13167000D01*
X15187000Y12913000D01*
X15167000Y12913000D01*
X15167000Y12893000D01*
X14913000Y12893000D01*
X14913000Y12913000D01*
X12627000Y12913000D01*
X12627000Y12893000D01*
X12373000Y12893000D01*
X12373000Y12913000D01*
X11179181Y12913000D01*
X11058514Y12683108D01*
X11304817Y12158642D01*
X11519202Y11963265D01*
X11405357Y11940620D01*
X11197959Y11802041D01*
X11059380Y11594643D01*
X11010717Y11350000D01*
X11010717Y9650000D01*
X11059380Y9405357D01*
X11197959Y9197959D01*
X11405357Y9059380D01*
X11608082Y9019055D01*
X10974901Y8385874D01*
X10974899Y8385873D01*
X10714129Y8125103D01*
X10678503Y8039094D01*
X10626788Y7961697D01*
X10608628Y7870400D01*
X10573002Y7784392D01*
X10573002Y7691300D01*
X10554841Y7600000D01*
X727000Y7600000D01*
X727000Y8518835D01*
X886920Y8216526D01*
X1260053Y7907610D01*
X1723000Y7765000D01*
X2073000Y7765000D01*
X2073000Y8873000D01*
X2327000Y8873000D01*
X2327000Y7765000D01*
X2677000Y7765000D01*
X3139947Y7907610D01*
X3513080Y8216526D01*
X3739592Y8644719D01*
X3743462Y8682391D01*
X3618731Y8873000D01*
X2327000Y8873000D01*
X2073000Y8873000D01*
X2053000Y8873000D01*
X2053000Y9046602D01*
X4126207Y9046602D01*
X4191122Y8808247D01*
X4701146Y8627688D01*
X5241444Y8656051D01*
X5608878Y8808247D01*
X5673793Y9046602D01*
X4900000Y9820395D01*
X4126207Y9046602D01*
X2053000Y9046602D01*
X2053000Y9127000D01*
X2073000Y9127000D01*
X2073000Y10235000D01*
X2327000Y10235000D01*
X2327000Y9127000D01*
X3618731Y9127000D01*
X3723424Y9286988D01*
X3946602Y9226207D01*
X4720395Y10000000D01*
X5079605Y10000000D01*
X5853398Y9226207D01*
X6091753Y9291122D01*
X6272312Y9801146D01*
X6243949Y10341444D01*
X6091753Y10708878D01*
X5853398Y10773793D01*
X5079605Y10000000D01*
X4720395Y10000000D01*
X3946602Y10773793D01*
X3708247Y10708878D01*
X3527688Y10198854D01*
X3553505Y9707055D01*
X3513080Y9783474D01*
X3139947Y10092390D01*
X2677000Y10235000D01*
X2327000Y10235000D01*
X2073000Y10235000D01*
X1723000Y10235000D01*
X1260053Y10092390D01*
X886920Y9783474D01*
X727000Y9481165D01*
X727000Y10953398D01*
X4126207Y10953398D01*
X4900000Y10179605D01*
X5673793Y10953398D01*
X5608878Y11191753D01*
X5098854Y11372312D01*
X4558556Y11343949D01*
X4191122Y11191753D01*
X4126207Y10953398D01*
X727000Y10953398D01*
X727000Y14046602D01*
X4126207Y14046602D01*
X4191122Y13808247D01*
X4701146Y13627688D01*
X5241444Y13656051D01*
X5608878Y13808247D01*
X5673792Y14046600D01*
X5788942Y13931450D01*
X5872989Y14015497D01*
X5872989Y13895717D01*
X6029341Y13518251D01*
X6318240Y13229352D01*
X6625774Y13101967D01*
X6738292Y13026785D01*
X7008687Y12973000D01*
X7008689Y12973000D01*
X7099989Y12954839D01*
X7191290Y12973000D01*
X8174603Y12973000D01*
X8218251Y12929352D01*
X8595717Y12773000D01*
X9004283Y12773000D01*
X9381749Y12929352D01*
X9670648Y13218251D01*
X9827000Y13595717D01*
X9827000Y14004283D01*
X9670648Y14381749D01*
X9381749Y14670648D01*
X9004283Y14827000D01*
X7625386Y14827000D01*
X7481738Y14970648D01*
X7104272Y15127000D01*
X6695706Y15127000D01*
X6318240Y14970648D01*
X6266149Y14918557D01*
X6243949Y15341444D01*
X6091753Y15708878D01*
X5853398Y15773793D01*
X5079605Y15000000D01*
X5093748Y14985858D01*
X4914143Y14806253D01*
X4900000Y14820395D01*
X4126207Y14046602D01*
X727000Y14046602D01*
X727000Y15518835D01*
X886920Y15216526D01*
X1260053Y14907610D01*
X1723000Y14765000D01*
X2073000Y14765000D01*
X2073000Y15873000D01*
X2327000Y15873000D01*
X2327000Y14765000D01*
X2677000Y14765000D01*
X3139947Y14907610D01*
X3513080Y15216526D01*
X3576158Y15335768D01*
X3527688Y15198854D01*
X3556051Y14658556D01*
X3708247Y14291122D01*
X3946602Y14226207D01*
X4720395Y15000000D01*
X3946602Y15773793D01*
X3723424Y15713012D01*
X3618731Y15873000D01*
X2327000Y15873000D01*
X2073000Y15873000D01*
X2053000Y15873000D01*
X2053000Y15953398D01*
X4126207Y15953398D01*
X4900000Y15179605D01*
X5673793Y15953398D01*
X5608878Y16191753D01*
X5098854Y16372312D01*
X4558556Y16343949D01*
X4191122Y16191753D01*
X4126207Y15953398D01*
X2053000Y15953398D01*
X2053000Y16127000D01*
X2073000Y16127000D01*
X2073000Y17235000D01*
X2327000Y17235000D01*
X2327000Y16127000D01*
X3618731Y16127000D01*
X3743462Y16317609D01*
X3739592Y16355281D01*
X3513080Y16783474D01*
X3139947Y17092390D01*
X2677000Y17235000D01*
X2327000Y17235000D01*
X2073000Y17235000D01*
X1868668Y17235000D01*
X1927000Y17375826D01*
X1927000Y17404944D01*
X2026094Y17338731D01*
X2230864Y17298000D01*
X4269136Y17298000D01*
X4295470Y17303238D01*
X4313657Y17303238D01*
X4320950Y17304160D01*
X4987961Y17391973D01*
X5066088Y17412033D01*
X5144472Y17431285D01*
X5151334Y17433920D01*
X5778145Y17678303D01*
X5825981Y17703953D01*
X10093221Y17703953D01*
X10093221Y17255605D01*
X10264797Y16841385D01*
X10581827Y16524355D01*
X10996047Y16352779D01*
X11177668Y16352779D01*
X11673001Y15857445D01*
X11673001Y15566819D01*
X11544576Y15438394D01*
X11373000Y15024174D01*
X11373000Y14575826D01*
X11544576Y14161606D01*
X11555954Y14150228D01*
X11304817Y13921358D01*
X11058514Y13396892D01*
X11179181Y13167000D01*
X12373000Y13167000D01*
X12373000Y13187000D01*
X12627000Y13187000D01*
X12627000Y13167000D01*
X14913000Y13167000D01*
X14913000Y14360155D01*
X14683110Y14481476D01*
X14273076Y14311645D01*
X13844817Y13921358D01*
X13770000Y13762046D01*
X13695183Y13921358D01*
X13444046Y14150228D01*
X13455424Y14161606D01*
X13627000Y14575826D01*
X13627000Y15024174D01*
X13455424Y15438394D01*
X13327000Y15566818D01*
X13327000Y16118556D01*
X13343200Y16200000D01*
X13327000Y16281444D01*
X13327000Y16281448D01*
X13279016Y16522679D01*
X13096233Y16796233D01*
X13027184Y16842370D01*
X12347221Y17522332D01*
X12347221Y17703953D01*
X12175645Y18118173D01*
X11858615Y18435203D01*
X11444395Y18606779D01*
X10996047Y18606779D01*
X10581827Y18435203D01*
X10264797Y18118173D01*
X10093221Y17703953D01*
X5825981Y17703953D01*
X5849260Y17716435D01*
X5920759Y17753813D01*
X5926795Y17758009D01*
X6477220Y18144853D01*
X6537182Y18198843D01*
X6597707Y18252203D01*
X6602568Y18257717D01*
X7044828Y18764690D01*
X7090158Y18831392D01*
X7136230Y18897680D01*
X7139635Y18904195D01*
X7448199Y19502026D01*
X7476313Y19577623D01*
X7505241Y19652981D01*
X7506994Y19660120D01*
X7664048Y20314298D01*
X7673319Y20394427D01*
X7683435Y20474501D01*
X7683434Y20481852D01*
X7679911Y21154609D01*
X7669802Y21234634D01*
X7660525Y21314812D01*
X7658771Y21321951D01*
X7494875Y21974448D01*
X7465975Y22049734D01*
X7437835Y22125402D01*
X7434429Y22131917D01*
X7119622Y22726484D01*
X7073597Y22792705D01*
X7028220Y22859476D01*
X7023358Y22864990D01*
X6575813Y23367303D01*
X6515310Y23420643D01*
X6455327Y23474653D01*
X6449290Y23478847D01*
X5894846Y23859906D01*
X5823386Y23897265D01*
X5752231Y23935418D01*
X5745368Y23938052D01*
X5116033Y24175858D01*
X5037710Y24195096D01*
X4959524Y24215171D01*
X4952230Y24216092D01*
X4310788Y24293715D01*
X4269136Y24302000D01*
X3277000Y24302000D01*
X3277000Y25384392D01*
X6073000Y25384392D01*
X6073000Y25015608D01*
X6162308Y24800000D01*
X6073000Y24584392D01*
X6073000Y24215608D01*
X6214127Y23874897D01*
X6474897Y23614127D01*
X6815608Y23473000D01*
X6913766Y23473000D01*
X7048642Y23382879D01*
X7260704Y23340697D01*
X7260708Y23340697D01*
X7332302Y23326456D01*
X7403896Y23340697D01*
X10233567Y23340697D01*
X10292440Y23281824D01*
X10633151Y23140697D01*
X11001935Y23140697D01*
X11342646Y23281824D01*
X11603416Y23542594D01*
X11744543Y23883305D01*
X11744543Y24252089D01*
X11675015Y24419945D01*
X11783706Y24682349D01*
X11783706Y25051133D01*
X11743066Y25149248D01*
X11866818Y25273000D01*
X12184392Y25273000D01*
X12525103Y25414127D01*
X12785873Y25674897D01*
X12927000Y26015608D01*
X12927000Y26384392D01*
X12785873Y26725103D01*
X12525103Y26985873D01*
X12184392Y27127000D01*
X12101132Y27127000D01*
X11892409Y27335723D01*
X11851850Y27396424D01*
X11611374Y27557105D01*
X11399312Y27599287D01*
X11399308Y27599287D01*
X11327713Y27613528D01*
X11256118Y27599287D01*
X8711689Y27599287D01*
X8652816Y27658160D01*
X8652626Y27658239D01*
X13867700Y27658239D01*
X13867700Y27211761D01*
X14038560Y26799268D01*
X14354268Y26483560D01*
X14766761Y26312700D01*
X15213239Y26312700D01*
X15625732Y26483560D01*
X15941440Y26799268D01*
X16112300Y27211761D01*
X16112300Y27658239D01*
X15941440Y28070732D01*
X15625732Y28386440D01*
X15213239Y28557300D01*
X14766761Y28557300D01*
X14354268Y28386440D01*
X14038560Y28070732D01*
X13867700Y27658239D01*
X8652626Y27658239D01*
X8312105Y27799287D01*
X7943321Y27799287D01*
X7602610Y27658160D01*
X7341840Y27397390D01*
X7200713Y27056679D01*
X7200713Y27054481D01*
X6961606Y26955439D01*
X6644576Y26638409D01*
X6473000Y26224189D01*
X6473000Y25983976D01*
X6214127Y25725103D01*
X6073000Y25384392D01*
X3277000Y25384392D01*
X3277000Y26313631D01*
X3294180Y26400001D01*
X3277000Y26486371D01*
X3277000Y26486375D01*
X3226116Y26742188D01*
X3214471Y26759617D01*
X3163896Y26835306D01*
X3032281Y27032281D01*
X2959054Y27081210D01*
X2857908Y27182356D01*
X2826116Y27342188D01*
X2709751Y27516339D01*
X2681209Y27559056D01*
X2681208Y27559057D01*
X2677000Y27565355D01*
X2677000Y29023000D01*
X2894337Y29023000D01*
X3253426Y29171739D01*
X3528261Y29446574D01*
X3539208Y29473002D01*
X3824174Y29473002D01*
X4238394Y29644578D01*
X4555424Y29961608D01*
X4727000Y30375828D01*
X4727000Y30824176D01*
X4555424Y31238396D01*
X4238394Y31555426D01*
X3824174Y31727002D01*
X3442552Y31727002D01*
X2485162Y32684392D01*
X16373000Y32684392D01*
X16373000Y32315608D01*
X16514127Y31974897D01*
X16573001Y31916023D01*
X16573001Y31725815D01*
X16473000Y31484392D01*
X16473000Y31115608D01*
X16614127Y30774897D01*
X16874897Y30514127D01*
X17215608Y30373000D01*
X17584392Y30373000D01*
X17925103Y30514127D01*
X18185873Y30774897D01*
X18327000Y31115608D01*
X18327000Y31484392D01*
X18185873Y31825103D01*
X18060976Y31950000D01*
X18085873Y31974897D01*
X18227000Y32315608D01*
X18227000Y32684392D01*
X18085873Y33025103D01*
X17825103Y33285873D01*
X17484392Y33427000D01*
X17115608Y33427000D01*
X16774897Y33285873D01*
X16514127Y33025103D01*
X16373000Y32684392D01*
X2485162Y32684392D01*
X2427000Y32742553D01*
X2427000Y33033174D01*
X2555424Y33161598D01*
X2727000Y33575818D01*
X2727000Y34024166D01*
X2555424Y34438386D01*
X2238394Y34755416D01*
X1824174Y34926992D01*
X1477000Y34926992D01*
X1477000Y37034392D01*
X17123000Y37034392D01*
X17123000Y36665608D01*
X17264127Y36324897D01*
X17524897Y36064127D01*
X17865608Y35923000D01*
X17899733Y35923000D01*
X17921882Y35869528D01*
X18182652Y35608758D01*
X18523363Y35467631D01*
X18892147Y35467631D01*
X19232858Y35608758D01*
X19493628Y35869528D01*
X19634755Y36210239D01*
X19634755Y36293499D01*
X20038390Y36697133D01*
X20134787Y36716308D01*
X20375263Y36876989D01*
X20415822Y36937690D01*
X20420562Y36942430D01*
X20481260Y36982987D01*
X20547257Y37081757D01*
X21900968Y35728045D01*
X21830518Y35622608D01*
X21720984Y35458680D01*
X21656800Y35136002D01*
X21673001Y35054554D01*
X21673000Y33933277D01*
X21516746Y33777022D01*
X21433486Y33777022D01*
X21092775Y33635895D01*
X20832005Y33375125D01*
X20690878Y33034414D01*
X20690878Y32665630D01*
X20832005Y32324919D01*
X21092775Y32064149D01*
X21433486Y31923022D01*
X21802270Y31923022D01*
X22142981Y32064149D01*
X22403751Y32324919D01*
X22544878Y32665630D01*
X22544878Y32748890D01*
X22941382Y33145394D01*
X22971599Y33165583D01*
X23075863Y33009541D01*
X23136562Y32968983D01*
X23352585Y32752960D01*
X23352584Y27580717D01*
X22627001Y26855133D01*
X22627001Y26973492D01*
X22725103Y27014127D01*
X22985873Y27274897D01*
X23127000Y27615608D01*
X23127000Y27984392D01*
X22985873Y28325103D01*
X22725103Y28585873D01*
X22384392Y28727000D01*
X22015608Y28727000D01*
X21993241Y28717735D01*
X21925103Y28785873D01*
X21584392Y28927000D01*
X21215608Y28927000D01*
X21106349Y28881743D01*
X21021440Y29086732D01*
X20705732Y29402440D01*
X20293239Y29573300D01*
X19846761Y29573300D01*
X19434268Y29402440D01*
X19118560Y29086732D01*
X18947700Y28674239D01*
X18947700Y28227761D01*
X19118560Y27815268D01*
X19140716Y27793112D01*
X18536562Y27188958D01*
X18475863Y27148400D01*
X18315182Y26907924D01*
X18273000Y26695862D01*
X18273000Y26695859D01*
X18258759Y26624264D01*
X18267806Y26578782D01*
X18214127Y26525103D01*
X18073000Y26184392D01*
X18073000Y25815608D01*
X18214127Y25474897D01*
X18474897Y25214127D01*
X18815608Y25073000D01*
X19184392Y25073000D01*
X19525103Y25214127D01*
X19673000Y25362024D01*
X19673000Y25175826D01*
X19844576Y24761606D01*
X20161606Y24444576D01*
X20173001Y24439856D01*
X20173000Y22769137D01*
X20152880Y22667988D01*
X20173000Y22566839D01*
X20232587Y22267274D01*
X20459574Y21927562D01*
X20545330Y21870262D01*
X22270266Y20145324D01*
X22327563Y20059573D01*
X22435237Y19987628D01*
X22667272Y19832587D01*
X22667273Y19832587D01*
X22667274Y19832586D01*
X22966839Y19772999D01*
X23067988Y19752879D01*
X23169137Y19772999D01*
X24330852Y19772999D01*
X24432001Y19752879D01*
X24533150Y19772999D01*
X24533151Y19772999D01*
X24832716Y19832586D01*
X25172427Y20059573D01*
X25229727Y20145329D01*
X26294335Y21209936D01*
X26380089Y21267235D01*
X26607076Y21606946D01*
X26666663Y21906511D01*
X26666663Y21906512D01*
X26686783Y22007661D01*
X26666663Y22108810D01*
X26666663Y22533584D01*
X26766663Y22775005D01*
X26766663Y23073000D01*
X26984392Y23073000D01*
X27325103Y23214127D01*
X27585873Y23474897D01*
X27727000Y23815608D01*
X27727000Y24184392D01*
X27585873Y24525103D01*
X27325103Y24785873D01*
X26984392Y24927000D01*
X26901133Y24927000D01*
X26511425Y25316707D01*
X26511425Y27801316D01*
X26895858Y27801316D01*
X27310078Y27972892D01*
X27538502Y28201316D01*
X27688488Y28201316D01*
X27760083Y28187075D01*
X27831678Y28201316D01*
X27831682Y28201316D01*
X28043744Y28243498D01*
X28087897Y28273000D01*
X28116024Y28273000D01*
X28174897Y28214127D01*
X28515608Y28073000D01*
X28884392Y28073000D01*
X29225103Y28214127D01*
X29485873Y28474897D01*
X29627000Y28815608D01*
X29627000Y29184392D01*
X29485873Y29525103D01*
X29225103Y29785873D01*
X28989971Y29883268D01*
X30271876Y29883268D01*
X30271876Y29514484D01*
X30413003Y29173773D01*
X30673773Y28913003D01*
X31014484Y28771876D01*
X31383268Y28771876D01*
X31723979Y28913003D01*
X31984749Y29173773D01*
X32125876Y29514484D01*
X32125876Y29597744D01*
X32512980Y29984848D01*
X32825103Y30114133D01*
X33085873Y30374903D01*
X33227000Y30715614D01*
X33227000Y31084398D01*
X33085873Y31425109D01*
X32825103Y31685879D01*
X32484392Y31827006D01*
X32115608Y31827006D01*
X31774897Y31685879D01*
X31514127Y31425109D01*
X31373000Y31084398D01*
X31373000Y30901133D01*
X31097744Y30625876D01*
X31014484Y30625876D01*
X30673773Y30484749D01*
X30413003Y30223979D01*
X30271876Y29883268D01*
X28989971Y29883268D01*
X28884392Y29927000D01*
X28515608Y29927000D01*
X28174897Y29785873D01*
X28116024Y29727000D01*
X27903360Y29727000D01*
X27831766Y29741241D01*
X27760172Y29727000D01*
X27760168Y29727000D01*
X27548106Y29684818D01*
X27524664Y29669154D01*
X27504080Y29689738D01*
X27498684Y29716866D01*
X27498684Y29716870D01*
X27450700Y29958101D01*
X27267917Y30231655D01*
X27198865Y30277794D01*
X27111435Y30365224D01*
X27111435Y33984392D01*
X27473000Y33984392D01*
X27473000Y33615608D01*
X27614127Y33274897D01*
X27874897Y33014127D01*
X27875923Y33013702D01*
X27936562Y32973184D01*
X28842481Y32067264D01*
X28842481Y31984005D01*
X28983608Y31643294D01*
X29244378Y31382524D01*
X29585089Y31241397D01*
X29953873Y31241397D01*
X30294584Y31382524D01*
X30555354Y31643294D01*
X30696481Y31984005D01*
X30696481Y32352789D01*
X30555354Y32693500D01*
X30294584Y32954270D01*
X29953873Y33095397D01*
X29870614Y33095397D01*
X29327000Y33639011D01*
X29327000Y33984392D01*
X29185873Y34325103D01*
X28925103Y34585873D01*
X28584392Y34727000D01*
X28215608Y34727000D01*
X27874897Y34585873D01*
X27614127Y34325103D01*
X27473000Y33984392D01*
X27111435Y33984392D01*
X27111435Y34048018D01*
X27309694Y34246277D01*
X27378746Y34292416D01*
X27561529Y34565970D01*
X27582823Y34673021D01*
X27713793Y34673021D01*
X28128013Y34844597D01*
X28445043Y35161627D01*
X28616619Y35575847D01*
X28616619Y36024195D01*
X28534188Y36223200D01*
X28585873Y36274885D01*
X28727000Y36615596D01*
X28727000Y36984380D01*
X28585873Y37325091D01*
X28325103Y37585861D01*
X27984392Y37726988D01*
X27615608Y37726988D01*
X27274897Y37585861D01*
X27211565Y37522529D01*
X27021921Y37484806D01*
X26785748Y37327000D01*
X23250900Y37327000D01*
X21365749Y39212150D01*
X21325190Y39272851D01*
X21084714Y39433532D01*
X20872652Y39475714D01*
X20872648Y39475714D01*
X20801053Y39489955D01*
X20729458Y39475714D01*
X20343241Y39475714D01*
X20284368Y39534587D01*
X19943657Y39675714D01*
X19574873Y39675714D01*
X19234162Y39534587D01*
X18973392Y39273817D01*
X18832265Y38933106D01*
X18832265Y38843097D01*
X18832019Y38842995D01*
X18571249Y38582225D01*
X18441959Y38270092D01*
X17948868Y37777000D01*
X17865608Y37777000D01*
X17524897Y37635873D01*
X17264127Y37375103D01*
X17123000Y37034392D01*
X1477000Y37034392D01*
X1477000Y39994392D01*
X7223000Y39994392D01*
X7223000Y39625608D01*
X7364127Y39284897D01*
X7624897Y39024127D01*
X7965608Y38883000D01*
X8334392Y38883000D01*
X8675103Y39024127D01*
X8733976Y39083000D01*
X9438405Y39083000D01*
X9510000Y39068759D01*
X9581595Y39083000D01*
X9581599Y39083000D01*
X9793661Y39125182D01*
X10034137Y39285863D01*
X10074696Y39346563D01*
X10101132Y39373000D01*
X10184392Y39373000D01*
X10525103Y39514127D01*
X10785873Y39774897D01*
X10927000Y40115608D01*
X10927000Y40484392D01*
X10785873Y40825103D01*
X10525103Y41085873D01*
X10184392Y41227000D01*
X9815608Y41227000D01*
X9474897Y41085873D01*
X9214127Y40825103D01*
X9094791Y40537000D01*
X8733976Y40537000D01*
X8675103Y40595873D01*
X8334392Y40737000D01*
X7965608Y40737000D01*
X7624897Y40595873D01*
X7364127Y40335103D01*
X7223000Y39994392D01*
X1477000Y39994392D01*
X1477000Y41706517D01*
X15280413Y41706517D01*
X15280413Y41337733D01*
X15421540Y40997022D01*
X15682310Y40736252D01*
X16023021Y40595125D01*
X16391805Y40595125D01*
X16732516Y40736252D01*
X16844169Y40847905D01*
X18291358Y40847905D01*
X18350231Y40789032D01*
X18690942Y40647905D01*
X19059726Y40647905D01*
X19400437Y40789032D01*
X19661207Y41049802D01*
X19802334Y41390513D01*
X19802334Y41598467D01*
X20006883Y41803016D01*
X20148010Y42143727D01*
X20148010Y42512511D01*
X20075024Y42688715D01*
X20183234Y42949958D01*
X20183234Y42996784D01*
X20225103Y43014127D01*
X20485873Y43274897D01*
X20627000Y43615608D01*
X20627000Y43984392D01*
X20485873Y44325103D01*
X20225103Y44585873D01*
X19884392Y44727000D01*
X19515608Y44727000D01*
X19174897Y44585873D01*
X19116024Y44527000D01*
X17283976Y44527000D01*
X17225103Y44585873D01*
X16884392Y44727000D01*
X16515608Y44727000D01*
X16174897Y44585873D01*
X15914127Y44325103D01*
X15773000Y43984392D01*
X15773000Y43615608D01*
X15914127Y43274897D01*
X16174897Y43014127D01*
X16515608Y42873000D01*
X16670909Y42873000D01*
X16497927Y42700018D01*
X16393682Y42448348D01*
X16391805Y42449125D01*
X16023021Y42449125D01*
X15682310Y42307998D01*
X15421540Y42047228D01*
X15280413Y41706517D01*
X1477000Y41706517D01*
X1477000Y47436736D01*
X1724656Y47684392D01*
X18572994Y47684392D01*
X18572994Y47315608D01*
X18714121Y46974897D01*
X18974891Y46714127D01*
X19315602Y46573000D01*
X19684386Y46573000D01*
X20025097Y46714127D01*
X20285867Y46974897D01*
X20426994Y47315608D01*
X20426994Y47398868D01*
X20787710Y47759583D01*
X20848409Y47800141D01*
X21009090Y48040617D01*
X21051272Y48252679D01*
X21051272Y48252683D01*
X21065513Y48324277D01*
X21051272Y48395871D01*
X21051272Y48707282D01*
X21066830Y48707282D01*
X21873067Y47901045D01*
X21873067Y47815608D01*
X22014194Y47474897D01*
X22274964Y47214127D01*
X22615675Y47073000D01*
X22984459Y47073000D01*
X23325170Y47214127D01*
X23585940Y47474897D01*
X23727067Y47815608D01*
X23727067Y48184392D01*
X23585940Y48525103D01*
X23325170Y48785873D01*
X22984459Y48927000D01*
X22903378Y48927000D01*
X22780898Y49049480D01*
X22967504Y49049480D01*
X23308215Y49190607D01*
X23568985Y49451377D01*
X23710112Y49792088D01*
X23710112Y50160872D01*
X23568985Y50501583D01*
X23308215Y50762353D01*
X22967504Y50903480D01*
X22598720Y50903480D01*
X22306891Y50782601D01*
X21927022Y51162469D01*
X21927022Y51245729D01*
X21785895Y51586440D01*
X21525125Y51847210D01*
X21184414Y51988337D01*
X20815630Y51988337D01*
X20474919Y51847210D01*
X20369348Y51741639D01*
X20325113Y51785873D01*
X19984402Y51927000D01*
X19615618Y51927000D01*
X19274907Y51785873D01*
X19014137Y51525103D01*
X18873010Y51184392D01*
X18873010Y51070190D01*
X18815193Y50983661D01*
X18773011Y50771599D01*
X18773011Y50771596D01*
X18758770Y50700001D01*
X18773011Y50628406D01*
X18773012Y49691516D01*
X18697272Y49508664D01*
X18697272Y49139880D01*
X18838399Y48799169D01*
X19099169Y48538399D01*
X19368110Y48427000D01*
X19315602Y48427000D01*
X18974891Y48285873D01*
X18714121Y48025103D01*
X18572994Y47684392D01*
X1724656Y47684392D01*
X2713266Y48673000D01*
X2824174Y48673000D01*
X3238394Y48844576D01*
X3555424Y49161606D01*
X3727000Y49575826D01*
X3727000Y50024174D01*
X3555424Y50438394D01*
X3238394Y50755424D01*
X2824174Y50927000D01*
X2375826Y50927000D01*
X1961606Y50755424D01*
X1644576Y50438394D01*
X1473000Y50024174D01*
X1473000Y49913266D01*
X727000Y49167265D01*
X727000Y58431924D01*
X778138Y58739160D01*
X897114Y58959662D01*
X1081096Y59129733D01*
X1323626Y59236954D01*
X1545735Y59265013D01*
X8289238Y59265013D01*
X8173000Y58984390D01*
X8173000Y58984390D01*
G37*
X8173000Y58984390D02*
X8173000Y58615606D01*
X8314127Y58274895D01*
X8574897Y58014125D01*
X8915608Y57872998D01*
X9284392Y57872998D01*
X9388906Y57916289D01*
X9363770Y57878670D01*
X9300863Y57836637D01*
X9260306Y57775939D01*
X5536562Y54052194D01*
X5475863Y54011636D01*
X5315182Y53771160D01*
X5273000Y53559098D01*
X5273000Y53559095D01*
X5258759Y53487500D01*
X5273000Y53415905D01*
X5273000Y53202309D01*
X5213195Y53177537D01*
X4822463Y52786805D01*
X4611000Y52276289D01*
X4611000Y51723711D01*
X4822463Y51213195D01*
X5213195Y50822463D01*
X5723711Y50611000D01*
X6276289Y50611000D01*
X6786805Y50822463D01*
X7000000Y51035658D01*
X7213195Y50822463D01*
X7723711Y50611000D01*
X8276289Y50611000D01*
X8786805Y50822463D01*
X9000000Y51035658D01*
X9213195Y50822463D01*
X9723711Y50611000D01*
X10276289Y50611000D01*
X10786805Y50822463D01*
X10984129Y51019787D01*
X11199392Y51019787D01*
X11268857Y50777603D01*
X11792302Y50590856D01*
X12347368Y50618638D01*
X12731143Y50777603D01*
X12800608Y51019787D01*
X12000000Y51820395D01*
X11199392Y51019787D01*
X10984129Y51019787D01*
X11177537Y51213195D01*
X11279323Y51458928D01*
X11820395Y52000000D01*
X12179605Y52000000D01*
X12980213Y51199392D01*
X13222397Y51268857D01*
X13409144Y51792302D01*
X13381362Y52347368D01*
X13222397Y52731143D01*
X12980213Y52800608D01*
X12179605Y52000000D01*
X11820395Y52000000D01*
X11279323Y52541072D01*
X11177537Y52786805D01*
X10984129Y52980213D01*
X11199392Y52980213D01*
X12000000Y52179605D01*
X12800608Y52980213D01*
X12731143Y53222397D01*
X12207698Y53409144D01*
X11652632Y53381362D01*
X11268857Y53222397D01*
X11199392Y52980213D01*
X10984129Y52980213D01*
X10786805Y53177537D01*
X10276289Y53389000D01*
X9723711Y53389000D01*
X9213195Y53177537D01*
X9000000Y52964342D01*
X8846237Y53118105D01*
X9275792Y53547660D01*
X16227265Y53547660D01*
X16545501Y53093797D01*
X17806434Y52567064D01*
X19172956Y52562965D01*
X20437027Y53082122D01*
X20454499Y53093797D01*
X20772735Y53547660D01*
X18500000Y55820395D01*
X16227265Y53547660D01*
X9275792Y53547660D01*
X11055176Y55327044D01*
X15062965Y55327044D01*
X15582122Y54062973D01*
X15593797Y54045501D01*
X16047660Y53727265D01*
X18320395Y56000000D01*
X18679605Y56000000D01*
X20952340Y53727265D01*
X21406203Y54045501D01*
X21449855Y54150000D01*
X26710716Y54150000D01*
X26710716Y53650000D01*
X26713124Y53637894D01*
X26713124Y53600991D01*
X26725408Y53476273D01*
X26744530Y53380140D01*
X26780907Y53260218D01*
X26818416Y53169662D01*
X26877494Y53059134D01*
X26931950Y52977635D01*
X27011453Y52880761D01*
X27080761Y52811453D01*
X27123001Y52776788D01*
X27123000Y51671597D01*
X27108759Y51600000D01*
X27123000Y51528405D01*
X27123000Y51528402D01*
X27123003Y51528388D01*
X27123003Y51183975D01*
X27064129Y51125101D01*
X26923002Y50784390D01*
X26923002Y50415606D01*
X27064129Y50074895D01*
X27324899Y49814125D01*
X27665610Y49672998D01*
X28034394Y49672998D01*
X28375105Y49814125D01*
X28507017Y49946037D01*
X28611463Y49841590D01*
X28952174Y49700463D01*
X29320958Y49700463D01*
X29661669Y49841590D01*
X29922439Y50102360D01*
X30063566Y50443071D01*
X30063566Y50811855D01*
X29922439Y51152566D01*
X29863566Y51211439D01*
X29863566Y51460864D01*
X29877000Y51528401D01*
X29877000Y51528405D01*
X29891241Y51600000D01*
X29877000Y51671597D01*
X29877000Y52776788D01*
X29919239Y52811453D01*
X29988547Y52880761D01*
X30068050Y52977635D01*
X30122506Y53059134D01*
X30181584Y53169662D01*
X30219093Y53260218D01*
X30255470Y53380140D01*
X30274592Y53476273D01*
X30286876Y53600991D01*
X30286876Y53637894D01*
X30289284Y53650000D01*
X30289284Y54150000D01*
X30286876Y54162106D01*
X30286876Y54199009D01*
X30274592Y54323727D01*
X30255470Y54419860D01*
X30219093Y54539782D01*
X30181584Y54630338D01*
X30122506Y54740866D01*
X30068050Y54822365D01*
X29988547Y54919239D01*
X29919239Y54988547D01*
X29822365Y55068050D01*
X29740866Y55122506D01*
X29630338Y55181584D01*
X29539782Y55219093D01*
X29419860Y55255470D01*
X29323727Y55274592D01*
X29199009Y55286876D01*
X29162106Y55286876D01*
X29150000Y55289284D01*
X28650000Y55289284D01*
X28500000Y55259447D01*
X28350000Y55289284D01*
X27850000Y55289284D01*
X27837894Y55286876D01*
X27800991Y55286876D01*
X27676273Y55274592D01*
X27580140Y55255470D01*
X27460218Y55219093D01*
X27369662Y55181584D01*
X27259134Y55122506D01*
X27177635Y55068050D01*
X27080761Y54988547D01*
X27011453Y54919239D01*
X26931950Y54822365D01*
X26877494Y54740866D01*
X26818416Y54630338D01*
X26780907Y54539782D01*
X26744530Y54419860D01*
X26725408Y54323727D01*
X26713124Y54199009D01*
X26713124Y54162106D01*
X26710716Y54150000D01*
X21449855Y54150000D01*
X21932936Y55306434D01*
X21937035Y56672956D01*
X21417878Y57937027D01*
X21406203Y57954499D01*
X20952340Y58272735D01*
X18679605Y56000000D01*
X18320395Y56000000D01*
X16047660Y58272735D01*
X15593797Y57954499D01*
X15067064Y56693566D01*
X15062965Y55327044D01*
X11055176Y55327044D01*
X11963850Y56235717D01*
X12256250Y56235717D01*
X12584605Y56301031D01*
X12862971Y56487029D01*
X13048969Y56765395D01*
X13114283Y57093750D01*
X13114283Y57176969D01*
X13141242Y57312500D01*
X13114283Y57448031D01*
X13114283Y57531250D01*
X13048969Y57859605D01*
X12888342Y58100000D01*
X13048969Y58340395D01*
X13114283Y58668750D01*
X13114283Y59106250D01*
X13082703Y59265013D01*
X17408196Y59265013D01*
X16562973Y58917878D01*
X16545501Y58906203D01*
X16227265Y58452340D01*
X18500000Y56179605D01*
X20772735Y58452340D01*
X20454499Y58906203D01*
X19595553Y59265013D01*
X34930159Y59265013D01*
X34930159Y59023454D01*
X35078898Y58664365D01*
X35353733Y58389530D01*
X35573001Y58298707D01*
X35573001Y58015788D01*
X35513386Y58075403D01*
X35172675Y58216530D01*
X34803891Y58216530D01*
X34463180Y58075403D01*
X34202410Y57814633D01*
X34061283Y57473922D01*
X34061283Y57105138D01*
X34202410Y56764427D01*
X34463180Y56503657D01*
X34561282Y56463022D01*
X34561282Y56283313D01*
X34547041Y56211718D01*
X34561282Y56140123D01*
X34561282Y56140119D01*
X34576535Y56063439D01*
X34603464Y55928058D01*
X34603465Y55928057D01*
X34764146Y55687581D01*
X34824844Y55647024D01*
X35173000Y55298867D01*
X35173001Y48901134D01*
X34698868Y48427000D01*
X33719490Y48427000D01*
X33660395Y48569668D01*
X33399625Y48830438D01*
X33058914Y48971565D01*
X32690130Y48971565D01*
X32349419Y48830438D01*
X32088649Y48569668D01*
X31947522Y48228957D01*
X31947522Y47927000D01*
X31781442Y47927000D01*
X31699999Y47943200D01*
X31618556Y47927000D01*
X31618552Y47927000D01*
X31377321Y47879016D01*
X31103767Y47696233D01*
X31057631Y47627186D01*
X30554280Y47123834D01*
X30541772Y47123834D01*
X30413348Y47252258D01*
X29999128Y47423834D01*
X29550780Y47423834D01*
X29136560Y47252258D01*
X28819530Y46935228D01*
X28647954Y46521008D01*
X28647954Y46072660D01*
X28819530Y45658440D01*
X29136560Y45341410D01*
X29550780Y45169834D01*
X29999128Y45169834D01*
X30413348Y45341410D01*
X30541772Y45469834D01*
X30815390Y45469834D01*
X30896834Y45453634D01*
X30978278Y45469834D01*
X30978282Y45469834D01*
X31219513Y45517818D01*
X31493067Y45700601D01*
X31539206Y45769653D01*
X32042554Y46273000D01*
X35734405Y46273000D01*
X35975826Y46173000D01*
X36273000Y46173000D01*
X36273001Y27571608D01*
X36239061Y27400978D01*
X36182969Y27317031D01*
X36022432Y27209764D01*
X35762513Y27077328D01*
X35689462Y27024254D01*
X35613111Y26976058D01*
X35213298Y26625289D01*
X35213294Y26625287D01*
X35141013Y26538342D01*
X35067886Y26450381D01*
X35067886Y26450380D01*
X34796032Y25993226D01*
X34744144Y25863089D01*
X34711790Y25781947D01*
X34594510Y25263161D01*
X34580228Y25044591D01*
X34579679Y25036188D01*
X34628454Y24506551D01*
X34684488Y24286105D01*
X34894542Y23797463D01*
X35015954Y23605122D01*
X35015957Y23605119D01*
X35366725Y23205307D01*
X35366726Y23205306D01*
X35541632Y23059897D01*
X35986545Y22795323D01*
X36180520Y22669410D01*
X36237722Y22586216D01*
X36273000Y22420412D01*
X36273001Y1552108D01*
X36221861Y1244864D01*
X36102886Y1024364D01*
X35918905Y854294D01*
X35676374Y747072D01*
X35454265Y719013D01*
X18620965Y719013D01*
X18928624Y1026672D01*
X19100200Y1440892D01*
X19100200Y1889240D01*
X18928624Y2303460D01*
X18611594Y2620490D01*
X18197374Y2792066D01*
X17749026Y2792066D01*
X17334806Y2620490D01*
X17017776Y2303460D01*
X16846200Y1889240D01*
X16846200Y1849041D01*
X16724159Y1727000D01*
X13066818Y1727000D01*
X13038394Y1755424D01*
X12624174Y1927000D01*
X12175826Y1927000D01*
X11761606Y1755424D01*
X11444576Y1438394D01*
X11273000Y1024174D01*
X11273000Y719013D01*
X1560089Y719013D01*
X1252851Y770152D01*
X1032351Y889127D01*
X862281Y1073108D01*
X755059Y1315639D01*
X727000Y1537748D01*
X727000Y6625001D01*
X2960717Y6625001D01*
X2960717Y5374999D01*
X3028410Y5034686D01*
X3221182Y4746182D01*
X3509686Y4553410D01*
X3849999Y4485717D01*
X4550001Y4485717D01*
X4890314Y4553410D01*
X5173001Y4742295D01*
X5173001Y4701153D01*
X5152880Y4600000D01*
X5227075Y4227000D01*
X5232588Y4199285D01*
X5459575Y3859574D01*
X5545328Y3802276D01*
X6709141Y2638462D01*
X6847282Y2304961D01*
X7192443Y1959800D01*
X7643417Y1773000D01*
X8131547Y1773000D01*
X8582521Y1959800D01*
X8927682Y2304961D01*
X9114482Y2755935D01*
X9114482Y3244065D01*
X8927682Y3695039D01*
X8582521Y4040200D01*
X8131547Y4227000D01*
X8025397Y4227000D01*
X7227000Y5025396D01*
X7227000Y5053474D01*
X7355808Y5246249D01*
X7427000Y5604154D01*
X7427000Y6395847D01*
X7355808Y6753752D01*
X7084617Y7159617D01*
X6678751Y7430808D01*
X6200000Y7526038D01*
X5721248Y7430808D01*
X5315383Y7159617D01*
X5278572Y7104525D01*
X5178818Y7253818D01*
X4890314Y7446590D01*
X4550001Y7514283D01*
X3849999Y7514283D01*
X3509686Y7446590D01*
X3221182Y7253818D01*
X3028410Y6965314D01*
X2960717Y6625001D01*
X727000Y6625001D01*
X727000Y7600000D01*
X10554841Y7600000D01*
X10573002Y7508700D01*
X10573002Y7415608D01*
X10608628Y7329600D01*
X10626788Y7238303D01*
X10678503Y7160906D01*
X10714129Y7074897D01*
X10779958Y7009068D01*
X10831673Y6931671D01*
X10909070Y6879956D01*
X10974899Y6814127D01*
X11060908Y6778501D01*
X11138305Y6726786D01*
X11229602Y6708626D01*
X11315610Y6673000D01*
X11345097Y6673000D01*
X11451595Y6415891D01*
X11768625Y6098861D01*
X12182845Y5927285D01*
X12631193Y5927285D01*
X13045413Y6098861D01*
X13362443Y6415891D01*
X13397875Y6501432D01*
X23561614Y6501432D01*
X23590038Y6473008D01*
X24004258Y6301432D01*
X24452606Y6301432D01*
X24866826Y6473008D01*
X25183856Y6790038D01*
X25355432Y7204258D01*
X25355432Y7652606D01*
X25228149Y7959893D01*
X25294042Y7973000D01*
X25434405Y7973000D01*
X25675826Y7873000D01*
X26124174Y7873000D01*
X26538394Y8044576D01*
X26855424Y8361606D01*
X27027000Y8775826D01*
X27027000Y9224174D01*
X26855424Y9638394D01*
X26582816Y9911002D01*
X26591303Y9923703D01*
X26705936Y10500000D01*
X26591303Y11076297D01*
X26264858Y11564858D01*
X25957840Y11770000D01*
X26264858Y11975142D01*
X26591303Y12463703D01*
X26705936Y13040000D01*
X26591303Y13616297D01*
X26264858Y14104858D01*
X25847445Y14383764D01*
X25927000Y14575826D01*
X25927000Y15024174D01*
X25755424Y15438394D01*
X25569644Y15624174D01*
X29273000Y15624174D01*
X29273000Y15175826D01*
X29444576Y14761606D01*
X29761606Y14444576D01*
X29873000Y14398435D01*
X29873001Y11041306D01*
X29873000Y11041301D01*
X29873001Y9865596D01*
X29773000Y9624174D01*
X29773000Y9175826D01*
X29944576Y8761606D01*
X30261606Y8444576D01*
X30675826Y8273000D01*
X31124174Y8273000D01*
X31538394Y8444576D01*
X31855424Y8761606D01*
X32027000Y9175826D01*
X32027000Y9460717D01*
X32450000Y9460717D01*
X32771180Y9524604D01*
X33043463Y9706537D01*
X33225396Y9978820D01*
X33289283Y10300000D01*
X33289283Y10700000D01*
X33225396Y11021180D01*
X33111788Y11191206D01*
X33217413Y11349285D01*
X33297120Y11750000D01*
X33217413Y12150715D01*
X33067551Y12375000D01*
X33217413Y12599285D01*
X33297120Y13000000D01*
X33217413Y13400715D01*
X33067551Y13625000D01*
X33217413Y13849285D01*
X33297120Y14250000D01*
X33217413Y14650715D01*
X33071202Y14869536D01*
X33234987Y15137031D01*
X33244666Y15213877D01*
X33116998Y15373000D01*
X32127000Y15373000D01*
X32127000Y15353000D01*
X31873000Y15353000D01*
X31873000Y15373000D01*
X31853000Y15373000D01*
X31853000Y15627000D01*
X31873000Y15627000D01*
X31873000Y16383756D01*
X32127000Y16383756D01*
X32127000Y15627000D01*
X33116998Y15627000D01*
X33244666Y15786123D01*
X33234987Y15862969D01*
X33021107Y16212278D01*
X32689833Y16453149D01*
X32291598Y16548912D01*
X32127000Y16383756D01*
X31873000Y16383756D01*
X31708402Y16548912D01*
X31310167Y16453149D01*
X31096226Y16297592D01*
X31038394Y16355424D01*
X30624174Y16527000D01*
X30175826Y16527000D01*
X29761606Y16355424D01*
X29444576Y16038394D01*
X29273000Y15624174D01*
X25569644Y15624174D01*
X25438394Y15755424D01*
X25024174Y15927000D01*
X24575826Y15927000D01*
X24334405Y15827000D01*
X20621362Y15827000D01*
X20520213Y15847120D01*
X20419064Y15827000D01*
X20383340Y15819894D01*
X19987351Y15819894D01*
X19855424Y16138394D01*
X19538394Y16455424D01*
X19124174Y16627000D01*
X18675826Y16627000D01*
X18261606Y16455424D01*
X17944576Y16138394D01*
X17773000Y15724174D01*
X17773000Y15275826D01*
X17873000Y15034405D01*
X17873000Y14894044D01*
X17852880Y14792894D01*
X17915268Y14479247D01*
X17725471Y14517000D01*
X17434529Y14517000D01*
X17003703Y14431303D01*
X16515142Y14104858D01*
X16300128Y13783066D01*
X16235183Y13921358D01*
X15806924Y14311645D01*
X15396890Y14481476D01*
X15167000Y14360155D01*
X15167000Y13167000D01*
X15187000Y13167000D01*
X15187000Y12913000D01*
X15167000Y12913000D01*
X15167000Y12893000D01*
X14913000Y12893000D01*
X14913000Y12913000D01*
X12627000Y12913000D01*
X12627000Y12893000D01*
X12373000Y12893000D01*
X12373000Y12913000D01*
X11179181Y12913000D01*
X11058514Y12683108D01*
X11304817Y12158642D01*
X11519202Y11963265D01*
X11405357Y11940620D01*
X11197959Y11802041D01*
X11059380Y11594643D01*
X11010717Y11350000D01*
X11010717Y9650000D01*
X11059380Y9405357D01*
X11197959Y9197959D01*
X11405357Y9059380D01*
X11608082Y9019055D01*
X10974901Y8385874D01*
X10974899Y8385873D01*
X10714129Y8125103D01*
X10678503Y8039094D01*
X10626788Y7961697D01*
X10608628Y7870400D01*
X10573002Y7784392D01*
X10573002Y7691300D01*
X10554841Y7600000D01*
X727000Y7600000D01*
X727000Y8518835D01*
X886920Y8216526D01*
X1260053Y7907610D01*
X1723000Y7765000D01*
X2073000Y7765000D01*
X2073000Y8873000D01*
X2327000Y8873000D01*
X2327000Y7765000D01*
X2677000Y7765000D01*
X3139947Y7907610D01*
X3513080Y8216526D01*
X3739592Y8644719D01*
X3743462Y8682391D01*
X3618731Y8873000D01*
X2327000Y8873000D01*
X2073000Y8873000D01*
X2053000Y8873000D01*
X2053000Y9046602D01*
X4126207Y9046602D01*
X4191122Y8808247D01*
X4701146Y8627688D01*
X5241444Y8656051D01*
X5608878Y8808247D01*
X5673793Y9046602D01*
X4900000Y9820395D01*
X4126207Y9046602D01*
X2053000Y9046602D01*
X2053000Y9127000D01*
X2073000Y9127000D01*
X2073000Y10235000D01*
X2327000Y10235000D01*
X2327000Y9127000D01*
X3618731Y9127000D01*
X3723424Y9286988D01*
X3946602Y9226207D01*
X4720395Y10000000D01*
X5079605Y10000000D01*
X5853398Y9226207D01*
X6091753Y9291122D01*
X6272312Y9801146D01*
X6243949Y10341444D01*
X6091753Y10708878D01*
X5853398Y10773793D01*
X5079605Y10000000D01*
X4720395Y10000000D01*
X3946602Y10773793D01*
X3708247Y10708878D01*
X3527688Y10198854D01*
X3553505Y9707055D01*
X3513080Y9783474D01*
X3139947Y10092390D01*
X2677000Y10235000D01*
X2327000Y10235000D01*
X2073000Y10235000D01*
X1723000Y10235000D01*
X1260053Y10092390D01*
X886920Y9783474D01*
X727000Y9481165D01*
X727000Y10953398D01*
X4126207Y10953398D01*
X4900000Y10179605D01*
X5673793Y10953398D01*
X5608878Y11191753D01*
X5098854Y11372312D01*
X4558556Y11343949D01*
X4191122Y11191753D01*
X4126207Y10953398D01*
X727000Y10953398D01*
X727000Y14046602D01*
X4126207Y14046602D01*
X4191122Y13808247D01*
X4701146Y13627688D01*
X5241444Y13656051D01*
X5608878Y13808247D01*
X5673792Y14046600D01*
X5788942Y13931450D01*
X5872989Y14015497D01*
X5872989Y13895717D01*
X6029341Y13518251D01*
X6318240Y13229352D01*
X6625774Y13101967D01*
X6738292Y13026785D01*
X7008687Y12973000D01*
X7008689Y12973000D01*
X7099989Y12954839D01*
X7191290Y12973000D01*
X8174603Y12973000D01*
X8218251Y12929352D01*
X8595717Y12773000D01*
X9004283Y12773000D01*
X9381749Y12929352D01*
X9670648Y13218251D01*
X9827000Y13595717D01*
X9827000Y14004283D01*
X9670648Y14381749D01*
X9381749Y14670648D01*
X9004283Y14827000D01*
X7625386Y14827000D01*
X7481738Y14970648D01*
X7104272Y15127000D01*
X6695706Y15127000D01*
X6318240Y14970648D01*
X6266149Y14918557D01*
X6243949Y15341444D01*
X6091753Y15708878D01*
X5853398Y15773793D01*
X5079605Y15000000D01*
X5093748Y14985858D01*
X4914143Y14806253D01*
X4900000Y14820395D01*
X4126207Y14046602D01*
X727000Y14046602D01*
X727000Y15518835D01*
X886920Y15216526D01*
X1260053Y14907610D01*
X1723000Y14765000D01*
X2073000Y14765000D01*
X2073000Y15873000D01*
X2327000Y15873000D01*
X2327000Y14765000D01*
X2677000Y14765000D01*
X3139947Y14907610D01*
X3513080Y15216526D01*
X3576158Y15335768D01*
X3527688Y15198854D01*
X3556051Y14658556D01*
X3708247Y14291122D01*
X3946602Y14226207D01*
X4720395Y15000000D01*
X3946602Y15773793D01*
X3723424Y15713012D01*
X3618731Y15873000D01*
X2327000Y15873000D01*
X2073000Y15873000D01*
X2053000Y15873000D01*
X2053000Y15953398D01*
X4126207Y15953398D01*
X4900000Y15179605D01*
X5673793Y15953398D01*
X5608878Y16191753D01*
X5098854Y16372312D01*
X4558556Y16343949D01*
X4191122Y16191753D01*
X4126207Y15953398D01*
X2053000Y15953398D01*
X2053000Y16127000D01*
X2073000Y16127000D01*
X2073000Y17235000D01*
X2327000Y17235000D01*
X2327000Y16127000D01*
X3618731Y16127000D01*
X3743462Y16317609D01*
X3739592Y16355281D01*
X3513080Y16783474D01*
X3139947Y17092390D01*
X2677000Y17235000D01*
X2327000Y17235000D01*
X2073000Y17235000D01*
X1868668Y17235000D01*
X1927000Y17375826D01*
X1927000Y17404944D01*
X2026094Y17338731D01*
X2230864Y17298000D01*
X4269136Y17298000D01*
X4295470Y17303238D01*
X4313657Y17303238D01*
X4320950Y17304160D01*
X4987961Y17391973D01*
X5066088Y17412033D01*
X5144472Y17431285D01*
X5151334Y17433920D01*
X5778145Y17678303D01*
X5825981Y17703953D01*
X10093221Y17703953D01*
X10093221Y17255605D01*
X10264797Y16841385D01*
X10581827Y16524355D01*
X10996047Y16352779D01*
X11177668Y16352779D01*
X11673001Y15857445D01*
X11673001Y15566819D01*
X11544576Y15438394D01*
X11373000Y15024174D01*
X11373000Y14575826D01*
X11544576Y14161606D01*
X11555954Y14150228D01*
X11304817Y13921358D01*
X11058514Y13396892D01*
X11179181Y13167000D01*
X12373000Y13167000D01*
X12373000Y13187000D01*
X12627000Y13187000D01*
X12627000Y13167000D01*
X14913000Y13167000D01*
X14913000Y14360155D01*
X14683110Y14481476D01*
X14273076Y14311645D01*
X13844817Y13921358D01*
X13770000Y13762046D01*
X13695183Y13921358D01*
X13444046Y14150228D01*
X13455424Y14161606D01*
X13627000Y14575826D01*
X13627000Y15024174D01*
X13455424Y15438394D01*
X13327000Y15566818D01*
X13327000Y16118556D01*
X13343200Y16200000D01*
X13327000Y16281444D01*
X13327000Y16281448D01*
X13279016Y16522679D01*
X13096233Y16796233D01*
X13027184Y16842370D01*
X12347221Y17522332D01*
X12347221Y17703953D01*
X12175645Y18118173D01*
X11858615Y18435203D01*
X11444395Y18606779D01*
X10996047Y18606779D01*
X10581827Y18435203D01*
X10264797Y18118173D01*
X10093221Y17703953D01*
X5825981Y17703953D01*
X5849260Y17716435D01*
X5920759Y17753813D01*
X5926795Y17758009D01*
X6477220Y18144853D01*
X6537182Y18198843D01*
X6597707Y18252203D01*
X6602568Y18257717D01*
X7044828Y18764690D01*
X7090158Y18831392D01*
X7136230Y18897680D01*
X7139635Y18904195D01*
X7448199Y19502026D01*
X7476313Y19577623D01*
X7505241Y19652981D01*
X7506994Y19660120D01*
X7664048Y20314298D01*
X7673319Y20394427D01*
X7683435Y20474501D01*
X7683434Y20481852D01*
X7679911Y21154609D01*
X7669802Y21234634D01*
X7660525Y21314812D01*
X7658771Y21321951D01*
X7494875Y21974448D01*
X7465975Y22049734D01*
X7437835Y22125402D01*
X7434429Y22131917D01*
X7119622Y22726484D01*
X7073597Y22792705D01*
X7028220Y22859476D01*
X7023358Y22864990D01*
X6575813Y23367303D01*
X6515310Y23420643D01*
X6455327Y23474653D01*
X6449290Y23478847D01*
X5894846Y23859906D01*
X5823386Y23897265D01*
X5752231Y23935418D01*
X5745368Y23938052D01*
X5116033Y24175858D01*
X5037710Y24195096D01*
X4959524Y24215171D01*
X4952230Y24216092D01*
X4310788Y24293715D01*
X4269136Y24302000D01*
X3277000Y24302000D01*
X3277000Y25384392D01*
X6073000Y25384392D01*
X6073000Y25015608D01*
X6162308Y24800000D01*
X6073000Y24584392D01*
X6073000Y24215608D01*
X6214127Y23874897D01*
X6474897Y23614127D01*
X6815608Y23473000D01*
X6913766Y23473000D01*
X7048642Y23382879D01*
X7260704Y23340697D01*
X7260708Y23340697D01*
X7332302Y23326456D01*
X7403896Y23340697D01*
X10233567Y23340697D01*
X10292440Y23281824D01*
X10633151Y23140697D01*
X11001935Y23140697D01*
X11342646Y23281824D01*
X11603416Y23542594D01*
X11744543Y23883305D01*
X11744543Y24252089D01*
X11675015Y24419945D01*
X11783706Y24682349D01*
X11783706Y25051133D01*
X11743066Y25149248D01*
X11866818Y25273000D01*
X12184392Y25273000D01*
X12525103Y25414127D01*
X12785873Y25674897D01*
X12927000Y26015608D01*
X12927000Y26384392D01*
X12785873Y26725103D01*
X12525103Y26985873D01*
X12184392Y27127000D01*
X12101132Y27127000D01*
X11892409Y27335723D01*
X11851850Y27396424D01*
X11611374Y27557105D01*
X11399312Y27599287D01*
X11399308Y27599287D01*
X11327713Y27613528D01*
X11256118Y27599287D01*
X8711689Y27599287D01*
X8652816Y27658160D01*
X8652626Y27658239D01*
X13867700Y27658239D01*
X13867700Y27211761D01*
X14038560Y26799268D01*
X14354268Y26483560D01*
X14766761Y26312700D01*
X15213239Y26312700D01*
X15625732Y26483560D01*
X15941440Y26799268D01*
X16112300Y27211761D01*
X16112300Y27658239D01*
X15941440Y28070732D01*
X15625732Y28386440D01*
X15213239Y28557300D01*
X14766761Y28557300D01*
X14354268Y28386440D01*
X14038560Y28070732D01*
X13867700Y27658239D01*
X8652626Y27658239D01*
X8312105Y27799287D01*
X7943321Y27799287D01*
X7602610Y27658160D01*
X7341840Y27397390D01*
X7200713Y27056679D01*
X7200713Y27054481D01*
X6961606Y26955439D01*
X6644576Y26638409D01*
X6473000Y26224189D01*
X6473000Y25983976D01*
X6214127Y25725103D01*
X6073000Y25384392D01*
X3277000Y25384392D01*
X3277000Y26313631D01*
X3294180Y26400001D01*
X3277000Y26486371D01*
X3277000Y26486375D01*
X3226116Y26742188D01*
X3214471Y26759617D01*
X3163896Y26835306D01*
X3032281Y27032281D01*
X2959054Y27081210D01*
X2857908Y27182356D01*
X2826116Y27342188D01*
X2709751Y27516339D01*
X2681209Y27559056D01*
X2681208Y27559057D01*
X2677000Y27565355D01*
X2677000Y29023000D01*
X2894337Y29023000D01*
X3253426Y29171739D01*
X3528261Y29446574D01*
X3539208Y29473002D01*
X3824174Y29473002D01*
X4238394Y29644578D01*
X4555424Y29961608D01*
X4727000Y30375828D01*
X4727000Y30824176D01*
X4555424Y31238396D01*
X4238394Y31555426D01*
X3824174Y31727002D01*
X3442552Y31727002D01*
X2485162Y32684392D01*
X16373000Y32684392D01*
X16373000Y32315608D01*
X16514127Y31974897D01*
X16573001Y31916023D01*
X16573001Y31725815D01*
X16473000Y31484392D01*
X16473000Y31115608D01*
X16614127Y30774897D01*
X16874897Y30514127D01*
X17215608Y30373000D01*
X17584392Y30373000D01*
X17925103Y30514127D01*
X18185873Y30774897D01*
X18327000Y31115608D01*
X18327000Y31484392D01*
X18185873Y31825103D01*
X18060976Y31950000D01*
X18085873Y31974897D01*
X18227000Y32315608D01*
X18227000Y32684392D01*
X18085873Y33025103D01*
X17825103Y33285873D01*
X17484392Y33427000D01*
X17115608Y33427000D01*
X16774897Y33285873D01*
X16514127Y33025103D01*
X16373000Y32684392D01*
X2485162Y32684392D01*
X2427000Y32742553D01*
X2427000Y33033174D01*
X2555424Y33161598D01*
X2727000Y33575818D01*
X2727000Y34024166D01*
X2555424Y34438386D01*
X2238394Y34755416D01*
X1824174Y34926992D01*
X1477000Y34926992D01*
X1477000Y37034392D01*
X17123000Y37034392D01*
X17123000Y36665608D01*
X17264127Y36324897D01*
X17524897Y36064127D01*
X17865608Y35923000D01*
X17899733Y35923000D01*
X17921882Y35869528D01*
X18182652Y35608758D01*
X18523363Y35467631D01*
X18892147Y35467631D01*
X19232858Y35608758D01*
X19493628Y35869528D01*
X19634755Y36210239D01*
X19634755Y36293499D01*
X20038390Y36697133D01*
X20134787Y36716308D01*
X20375263Y36876989D01*
X20415822Y36937690D01*
X20420562Y36942430D01*
X20481260Y36982987D01*
X20547257Y37081757D01*
X21900968Y35728045D01*
X21830518Y35622608D01*
X21720984Y35458680D01*
X21656800Y35136002D01*
X21673001Y35054554D01*
X21673000Y33933277D01*
X21516746Y33777022D01*
X21433486Y33777022D01*
X21092775Y33635895D01*
X20832005Y33375125D01*
X20690878Y33034414D01*
X20690878Y32665630D01*
X20832005Y32324919D01*
X21092775Y32064149D01*
X21433486Y31923022D01*
X21802270Y31923022D01*
X22142981Y32064149D01*
X22403751Y32324919D01*
X22544878Y32665630D01*
X22544878Y32748890D01*
X22941382Y33145394D01*
X22971599Y33165583D01*
X23075863Y33009541D01*
X23136562Y32968983D01*
X23352585Y32752960D01*
X23352584Y27580717D01*
X22627001Y26855133D01*
X22627001Y26973492D01*
X22725103Y27014127D01*
X22985873Y27274897D01*
X23127000Y27615608D01*
X23127000Y27984392D01*
X22985873Y28325103D01*
X22725103Y28585873D01*
X22384392Y28727000D01*
X22015608Y28727000D01*
X21993241Y28717735D01*
X21925103Y28785873D01*
X21584392Y28927000D01*
X21215608Y28927000D01*
X21106349Y28881743D01*
X21021440Y29086732D01*
X20705732Y29402440D01*
X20293239Y29573300D01*
X19846761Y29573300D01*
X19434268Y29402440D01*
X19118560Y29086732D01*
X18947700Y28674239D01*
X18947700Y28227761D01*
X19118560Y27815268D01*
X19140716Y27793112D01*
X18536562Y27188958D01*
X18475863Y27148400D01*
X18315182Y26907924D01*
X18273000Y26695862D01*
X18273000Y26695859D01*
X18258759Y26624264D01*
X18267806Y26578782D01*
X18214127Y26525103D01*
X18073000Y26184392D01*
X18073000Y25815608D01*
X18214127Y25474897D01*
X18474897Y25214127D01*
X18815608Y25073000D01*
X19184392Y25073000D01*
X19525103Y25214127D01*
X19673000Y25362024D01*
X19673000Y25175826D01*
X19844576Y24761606D01*
X20161606Y24444576D01*
X20173001Y24439856D01*
X20173000Y22769137D01*
X20152880Y22667988D01*
X20173000Y22566839D01*
X20232587Y22267274D01*
X20459574Y21927562D01*
X20545330Y21870262D01*
X22270266Y20145324D01*
X22327563Y20059573D01*
X22435237Y19987628D01*
X22667272Y19832587D01*
X22667273Y19832587D01*
X22667274Y19832586D01*
X22966839Y19772999D01*
X23067988Y19752879D01*
X23169137Y19772999D01*
X24330852Y19772999D01*
X24432001Y19752879D01*
X24533150Y19772999D01*
X24533151Y19772999D01*
X24832716Y19832586D01*
X25172427Y20059573D01*
X25229727Y20145329D01*
X26294335Y21209936D01*
X26380089Y21267235D01*
X26607076Y21606946D01*
X26666663Y21906511D01*
X26666663Y21906512D01*
X26686783Y22007661D01*
X26666663Y22108810D01*
X26666663Y22533584D01*
X26766663Y22775005D01*
X26766663Y23073000D01*
X26984392Y23073000D01*
X27325103Y23214127D01*
X27585873Y23474897D01*
X27727000Y23815608D01*
X27727000Y24184392D01*
X27585873Y24525103D01*
X27325103Y24785873D01*
X26984392Y24927000D01*
X26901133Y24927000D01*
X26511425Y25316707D01*
X26511425Y27801316D01*
X26895858Y27801316D01*
X27310078Y27972892D01*
X27538502Y28201316D01*
X27688488Y28201316D01*
X27760083Y28187075D01*
X27831678Y28201316D01*
X27831682Y28201316D01*
X28043744Y28243498D01*
X28087897Y28273000D01*
X28116024Y28273000D01*
X28174897Y28214127D01*
X28515608Y28073000D01*
X28884392Y28073000D01*
X29225103Y28214127D01*
X29485873Y28474897D01*
X29627000Y28815608D01*
X29627000Y29184392D01*
X29485873Y29525103D01*
X29225103Y29785873D01*
X28989971Y29883268D01*
X30271876Y29883268D01*
X30271876Y29514484D01*
X30413003Y29173773D01*
X30673773Y28913003D01*
X31014484Y28771876D01*
X31383268Y28771876D01*
X31723979Y28913003D01*
X31984749Y29173773D01*
X32125876Y29514484D01*
X32125876Y29597744D01*
X32512980Y29984848D01*
X32825103Y30114133D01*
X33085873Y30374903D01*
X33227000Y30715614D01*
X33227000Y31084398D01*
X33085873Y31425109D01*
X32825103Y31685879D01*
X32484392Y31827006D01*
X32115608Y31827006D01*
X31774897Y31685879D01*
X31514127Y31425109D01*
X31373000Y31084398D01*
X31373000Y30901133D01*
X31097744Y30625876D01*
X31014484Y30625876D01*
X30673773Y30484749D01*
X30413003Y30223979D01*
X30271876Y29883268D01*
X28989971Y29883268D01*
X28884392Y29927000D01*
X28515608Y29927000D01*
X28174897Y29785873D01*
X28116024Y29727000D01*
X27903360Y29727000D01*
X27831766Y29741241D01*
X27760172Y29727000D01*
X27760168Y29727000D01*
X27548106Y29684818D01*
X27524664Y29669154D01*
X27504080Y29689738D01*
X27498684Y29716866D01*
X27498684Y29716870D01*
X27450700Y29958101D01*
X27267917Y30231655D01*
X27198865Y30277794D01*
X27111435Y30365224D01*
X27111435Y33984392D01*
X27473000Y33984392D01*
X27473000Y33615608D01*
X27614127Y33274897D01*
X27874897Y33014127D01*
X27875923Y33013702D01*
X27936562Y32973184D01*
X28842481Y32067264D01*
X28842481Y31984005D01*
X28983608Y31643294D01*
X29244378Y31382524D01*
X29585089Y31241397D01*
X29953873Y31241397D01*
X30294584Y31382524D01*
X30555354Y31643294D01*
X30696481Y31984005D01*
X30696481Y32352789D01*
X30555354Y32693500D01*
X30294584Y32954270D01*
X29953873Y33095397D01*
X29870614Y33095397D01*
X29327000Y33639011D01*
X29327000Y33984392D01*
X29185873Y34325103D01*
X28925103Y34585873D01*
X28584392Y34727000D01*
X28215608Y34727000D01*
X27874897Y34585873D01*
X27614127Y34325103D01*
X27473000Y33984392D01*
X27111435Y33984392D01*
X27111435Y34048018D01*
X27309694Y34246277D01*
X27378746Y34292416D01*
X27561529Y34565970D01*
X27582823Y34673021D01*
X27713793Y34673021D01*
X28128013Y34844597D01*
X28445043Y35161627D01*
X28616619Y35575847D01*
X28616619Y36024195D01*
X28534188Y36223200D01*
X28585873Y36274885D01*
X28727000Y36615596D01*
X28727000Y36984380D01*
X28585873Y37325091D01*
X28325103Y37585861D01*
X27984392Y37726988D01*
X27615608Y37726988D01*
X27274897Y37585861D01*
X27211565Y37522529D01*
X27021921Y37484806D01*
X26785748Y37327000D01*
X23250900Y37327000D01*
X21365749Y39212150D01*
X21325190Y39272851D01*
X21084714Y39433532D01*
X20872652Y39475714D01*
X20872648Y39475714D01*
X20801053Y39489955D01*
X20729458Y39475714D01*
X20343241Y39475714D01*
X20284368Y39534587D01*
X19943657Y39675714D01*
X19574873Y39675714D01*
X19234162Y39534587D01*
X18973392Y39273817D01*
X18832265Y38933106D01*
X18832265Y38843097D01*
X18832019Y38842995D01*
X18571249Y38582225D01*
X18441959Y38270092D01*
X17948868Y37777000D01*
X17865608Y37777000D01*
X17524897Y37635873D01*
X17264127Y37375103D01*
X17123000Y37034392D01*
X1477000Y37034392D01*
X1477000Y39994392D01*
X7223000Y39994392D01*
X7223000Y39625608D01*
X7364127Y39284897D01*
X7624897Y39024127D01*
X7965608Y38883000D01*
X8334392Y38883000D01*
X8675103Y39024127D01*
X8733976Y39083000D01*
X9438405Y39083000D01*
X9510000Y39068759D01*
X9581595Y39083000D01*
X9581599Y39083000D01*
X9793661Y39125182D01*
X10034137Y39285863D01*
X10074696Y39346563D01*
X10101132Y39373000D01*
X10184392Y39373000D01*
X10525103Y39514127D01*
X10785873Y39774897D01*
X10927000Y40115608D01*
X10927000Y40484392D01*
X10785873Y40825103D01*
X10525103Y41085873D01*
X10184392Y41227000D01*
X9815608Y41227000D01*
X9474897Y41085873D01*
X9214127Y40825103D01*
X9094791Y40537000D01*
X8733976Y40537000D01*
X8675103Y40595873D01*
X8334392Y40737000D01*
X7965608Y40737000D01*
X7624897Y40595873D01*
X7364127Y40335103D01*
X7223000Y39994392D01*
X1477000Y39994392D01*
X1477000Y41706517D01*
X15280413Y41706517D01*
X15280413Y41337733D01*
X15421540Y40997022D01*
X15682310Y40736252D01*
X16023021Y40595125D01*
X16391805Y40595125D01*
X16732516Y40736252D01*
X16844169Y40847905D01*
X18291358Y40847905D01*
X18350231Y40789032D01*
X18690942Y40647905D01*
X19059726Y40647905D01*
X19400437Y40789032D01*
X19661207Y41049802D01*
X19802334Y41390513D01*
X19802334Y41598467D01*
X20006883Y41803016D01*
X20148010Y42143727D01*
X20148010Y42512511D01*
X20075024Y42688715D01*
X20183234Y42949958D01*
X20183234Y42996784D01*
X20225103Y43014127D01*
X20485873Y43274897D01*
X20627000Y43615608D01*
X20627000Y43984392D01*
X20485873Y44325103D01*
X20225103Y44585873D01*
X19884392Y44727000D01*
X19515608Y44727000D01*
X19174897Y44585873D01*
X19116024Y44527000D01*
X17283976Y44527000D01*
X17225103Y44585873D01*
X16884392Y44727000D01*
X16515608Y44727000D01*
X16174897Y44585873D01*
X15914127Y44325103D01*
X15773000Y43984392D01*
X15773000Y43615608D01*
X15914127Y43274897D01*
X16174897Y43014127D01*
X16515608Y42873000D01*
X16670909Y42873000D01*
X16497927Y42700018D01*
X16393682Y42448348D01*
X16391805Y42449125D01*
X16023021Y42449125D01*
X15682310Y42307998D01*
X15421540Y42047228D01*
X15280413Y41706517D01*
X1477000Y41706517D01*
X1477000Y47436736D01*
X1724656Y47684392D01*
X18572994Y47684392D01*
X18572994Y47315608D01*
X18714121Y46974897D01*
X18974891Y46714127D01*
X19315602Y46573000D01*
X19684386Y46573000D01*
X20025097Y46714127D01*
X20285867Y46974897D01*
X20426994Y47315608D01*
X20426994Y47398868D01*
X20787710Y47759583D01*
X20848409Y47800141D01*
X21009090Y48040617D01*
X21051272Y48252679D01*
X21051272Y48252683D01*
X21065513Y48324277D01*
X21051272Y48395871D01*
X21051272Y48707282D01*
X21066830Y48707282D01*
X21873067Y47901045D01*
X21873067Y47815608D01*
X22014194Y47474897D01*
X22274964Y47214127D01*
X22615675Y47073000D01*
X22984459Y47073000D01*
X23325170Y47214127D01*
X23585940Y47474897D01*
X23727067Y47815608D01*
X23727067Y48184392D01*
X23585940Y48525103D01*
X23325170Y48785873D01*
X22984459Y48927000D01*
X22903378Y48927000D01*
X22780898Y49049480D01*
X22967504Y49049480D01*
X23308215Y49190607D01*
X23568985Y49451377D01*
X23710112Y49792088D01*
X23710112Y50160872D01*
X23568985Y50501583D01*
X23308215Y50762353D01*
X22967504Y50903480D01*
X22598720Y50903480D01*
X22306891Y50782601D01*
X21927022Y51162469D01*
X21927022Y51245729D01*
X21785895Y51586440D01*
X21525125Y51847210D01*
X21184414Y51988337D01*
X20815630Y51988337D01*
X20474919Y51847210D01*
X20369348Y51741639D01*
X20325113Y51785873D01*
X19984402Y51927000D01*
X19615618Y51927000D01*
X19274907Y51785873D01*
X19014137Y51525103D01*
X18873010Y51184392D01*
X18873010Y51070190D01*
X18815193Y50983661D01*
X18773011Y50771599D01*
X18773011Y50771596D01*
X18758770Y50700001D01*
X18773011Y50628406D01*
X18773012Y49691516D01*
X18697272Y49508664D01*
X18697272Y49139880D01*
X18838399Y48799169D01*
X19099169Y48538399D01*
X19368110Y48427000D01*
X19315602Y48427000D01*
X18974891Y48285873D01*
X18714121Y48025103D01*
X18572994Y47684392D01*
X1724656Y47684392D01*
X2713266Y48673000D01*
X2824174Y48673000D01*
X3238394Y48844576D01*
X3555424Y49161606D01*
X3727000Y49575826D01*
X3727000Y50024174D01*
X3555424Y50438394D01*
X3238394Y50755424D01*
X2824174Y50927000D01*
X2375826Y50927000D01*
X1961606Y50755424D01*
X1644576Y50438394D01*
X1473000Y50024174D01*
X1473000Y49913266D01*
X727000Y49167265D01*
X727000Y58431924D01*
X778138Y58739160D01*
X897114Y58959662D01*
X1081096Y59129733D01*
X1323626Y59236954D01*
X1545735Y59265013D01*
X8289238Y59265013D01*
X8173000Y58984390D01*
G04 #@! TD*
M02*
