M48
;DRILL file {KiCad (5.0.1-3-g963ef8bb5)} date 2019 October 31, Thursday 18:10:30
;FORMAT={-:-/ absolute / metric / decimal}
FMAT,2
METRIC,TZ
T1C0.300
T2C0.400
T3C0.500
T4C0.600
T5C0.750
T6C0.762
T7C0.850
T8C1.000
T9C3.200
%
G90
G05
M71
T1
X1.7Y56.3
X1.8Y33.1
X1.8Y21.
X2.8Y36.9
X3.1Y44.5
X4.Y49.
X4.4Y32.3
X5.8Y49.
X6.1Y24.7
X6.242Y11.074
X6.668Y25.868
X7.Y20.532
X7.4Y22.3
X7.4Y21.5
X8.4Y39.5
X9.105Y38.805
X9.5Y22.209
X9.609Y21.415
X9.7Y20.5
X9.9Y24.482
X10.Y40.3
X11.2Y40.6
X11.5Y7.6
X12.8Y48.8
X13.Y34.5
X13.2Y23.6
X15.983Y43.445
X16.2Y37.1
X16.207Y41.522
X16.7Y43.8
X17.1Y14.6
X17.284Y42.175
X17.3Y25.6
X17.632Y42.895
X18.5Y33.
X18.831Y26.439
X18.875Y41.575
X19.221Y42.328
X19.256Y43.134
X19.5Y47.5
X19.624Y49.324
X19.7Y43.8
X19.8Y38.2
X19.8Y51.
X20.101Y41.899
X20.324Y50.324
X20.4Y37.4
X21.Y51.061
X21.168Y49.634
X21.643Y32.757
X21.9Y24.3
X22.261Y30.358
X22.783Y49.976
X22.8Y48.
X23.1Y28.46
X23.1Y24.474
X23.338Y34.22
X23.5Y21.7
X23.699Y25.799
X23.7Y35.3
X23.774Y42.274
X24.247Y23.767
X24.3Y34.026
X24.7Y22.4
X25.023Y35.284
X25.069Y23.82
X25.2Y50.2
X25.786Y34.927
X26.3Y55.2
X26.3Y52.8
X26.8Y24.
X27.1Y13.4
X27.146Y28.315
X27.634Y33.834
X27.85Y50.6
X28.2Y36.8
X28.7Y29.
X28.8Y37.4
X28.9Y26.
X29.137Y50.627
X29.6Y55.2
X29.736Y29.4
X29.75Y52.6
X29.769Y32.168
X30.9Y50.1
X31.199Y29.699
X31.7Y26.4
X32.3Y30.9
X32.875Y48.045
X33.3Y36.2
X33.4Y55.787
X34.Y18.5
X34.2Y27.4
X34.4Y46.2
X34.988Y57.29
X35.1Y58.792
X35.2Y42.7
X35.6Y23.
X36.4Y34.5
T2
X35.907Y59.218
T3
X0.7Y46.4
X0.9Y35.4
X6.9Y14.1
X8.8Y13.8
X15.8Y23.7
X19.5Y3.
X20.1Y5.
X20.1Y1.6
X20.6Y3.
X20.9Y0.692
X22.Y0.692
X23.1Y0.692
X27.9Y24.4
X28.6Y22.3
X28.9Y16.2
X35.3Y4.9
X35.3Y1.6
X32.Y15.5
X32.Y14.25
X32.Y13.
X32.Y11.75
X32.Y10.5
T4
X6.1Y35.9
X6.1Y32.
X7.6Y23.3
X11.199Y23.196
X11.22Y17.48
X12.4Y0.8
X12.424Y7.033
X12.5Y14.8
X13.2Y5.8
X17.973Y1.665
X18.9Y15.5
X20.8Y24.4
X21.6Y29.
X24.228Y7.428
X24.8Y14.8
X25.64Y22.999
X25.9Y9.
X27.5Y36.
X28.7Y7.6
X29.775Y46.297
X30.4Y15.4
X30.9Y9.4
X36.2Y47.3
T5
X7.Y5.
X7.Y3.
T6
X6.Y53.8
X8.Y53.8
X10.Y53.8
X12.Y53.8
T7
X4.9Y15.
X4.9Y10.
T8
X12.5Y13.04
X12.5Y10.5
X15.04Y13.04
X15.04Y10.5
X17.58Y13.04
X17.58Y10.5
X20.12Y13.04
X20.12Y10.5
X22.66Y13.04
X22.66Y10.5
X25.2Y13.04
X25.2Y10.5
T9
X18.5Y56.
T4
X1.85Y16.G85X2.55Y16.
G05
X2.55Y9.G85X1.85Y9.
G05
T0
M30
