G04 #@! TF.GenerationSoftware,KiCad,Pcbnew,(5.0.1-3-g963ef8bb5)*
G04 #@! TF.CreationDate,2019-10-31T19:13:48+01:00*
G04 #@! TF.ProjectId,oibus-mini-CCC,6F696275732D6D696E692D4343432E6B,rev?*
G04 #@! TF.SameCoordinates,Original*
G04 #@! TF.FileFunction,Legend,Top*
G04 #@! TF.FilePolarity,Positive*
%FSLAX46Y46*%
G04 Gerber Fmt 4.6, Leading zero omitted, Abs format (unit mm)*
G04 Created by KiCad (PCBNEW (5.0.1-3-g963ef8bb5)) date 2019 October 31, Thursday 19:13:48*
%MOMM*%
%LPD*%
G01*
G04 APERTURE LIST*
%ADD10C,0.200000*%
%ADD11C,0.250000*%
%ADD12C,0.120000*%
%ADD13C,0.127000*%
%ADD14C,0.150000*%
%ADD15C,0.010000*%
G04 APERTURE END LIST*
D10*
X4342857Y30071428D02*
X4485714Y30023809D01*
X4533333Y29976190D01*
X4580952Y29880952D01*
X4580952Y29738095D01*
X4533333Y29642857D01*
X4485714Y29595238D01*
X4390476Y29547619D01*
X4009523Y29547619D01*
X4009523Y30547619D01*
X4342857Y30547619D01*
X4438095Y30500000D01*
X4485714Y30452380D01*
X4533333Y30357142D01*
X4533333Y30261904D01*
X4485714Y30166666D01*
X4438095Y30119047D01*
X4342857Y30071428D01*
X4009523Y30071428D01*
X5200000Y30547619D02*
X5390476Y30547619D01*
X5485714Y30500000D01*
X5580952Y30404761D01*
X5628571Y30214285D01*
X5628571Y29880952D01*
X5580952Y29690476D01*
X5485714Y29595238D01*
X5390476Y29547619D01*
X5200000Y29547619D01*
X5104761Y29595238D01*
X5009523Y29690476D01*
X4961904Y29880952D01*
X4961904Y30214285D01*
X5009523Y30404761D01*
X5104761Y30500000D01*
X5200000Y30547619D01*
X6247619Y30547619D02*
X6438095Y30547619D01*
X6533333Y30500000D01*
X6628571Y30404761D01*
X6676190Y30214285D01*
X6676190Y29880952D01*
X6628571Y29690476D01*
X6533333Y29595238D01*
X6438095Y29547619D01*
X6247619Y29547619D01*
X6152380Y29595238D01*
X6057142Y29690476D01*
X6009523Y29880952D01*
X6009523Y30214285D01*
X6057142Y30404761D01*
X6152380Y30500000D01*
X6247619Y30547619D01*
X6961904Y30547619D02*
X7533333Y30547619D01*
X7247619Y29547619D02*
X7247619Y30547619D01*
D11*
X16376190Y45822619D02*
X15900000Y45822619D01*
X15900000Y46822619D01*
X16709523Y45822619D02*
X16709523Y46489285D01*
X16709523Y46822619D02*
X16661904Y46775000D01*
X16709523Y46727380D01*
X16757142Y46775000D01*
X16709523Y46822619D01*
X16709523Y46727380D01*
X17614285Y45870238D02*
X17519047Y45822619D01*
X17328571Y45822619D01*
X17233333Y45870238D01*
X17185714Y45917857D01*
X17138095Y46013095D01*
X17138095Y46298809D01*
X17185714Y46394047D01*
X17233333Y46441666D01*
X17328571Y46489285D01*
X17519047Y46489285D01*
X17614285Y46441666D01*
X18423809Y45870238D02*
X18328571Y45822619D01*
X18138095Y45822619D01*
X18042857Y45870238D01*
X17995238Y45965476D01*
X17995238Y46346428D01*
X18042857Y46441666D01*
X18138095Y46489285D01*
X18328571Y46489285D01*
X18423809Y46441666D01*
X18471428Y46346428D01*
X18471428Y46251190D01*
X17995238Y46155952D01*
X18900000Y46489285D02*
X18900000Y45822619D01*
X18900000Y46394047D02*
X18947619Y46441666D01*
X19042857Y46489285D01*
X19185714Y46489285D01*
X19280952Y46441666D01*
X19328571Y46346428D01*
X19328571Y45822619D01*
X20233333Y45870238D02*
X20138095Y45822619D01*
X19947619Y45822619D01*
X19852380Y45870238D01*
X19804761Y45917857D01*
X19757142Y46013095D01*
X19757142Y46298809D01*
X19804761Y46394047D01*
X19852380Y46441666D01*
X19947619Y46489285D01*
X20138095Y46489285D01*
X20233333Y46441666D01*
X21042857Y45870238D02*
X20947619Y45822619D01*
X20757142Y45822619D01*
X20661904Y45870238D01*
X20614285Y45965476D01*
X20614285Y46346428D01*
X20661904Y46441666D01*
X20757142Y46489285D01*
X20947619Y46489285D01*
X21042857Y46441666D01*
X21090476Y46346428D01*
X21090476Y46251190D01*
X20614285Y46155952D01*
X21947619Y45822619D02*
X21947619Y46822619D01*
X21947619Y45870238D02*
X21852380Y45822619D01*
X21661904Y45822619D01*
X21566666Y45870238D01*
X21519047Y45917857D01*
X21471428Y46013095D01*
X21471428Y46298809D01*
X21519047Y46394047D01*
X21566666Y46441666D01*
X21661904Y46489285D01*
X21852380Y46489285D01*
X21947619Y46441666D01*
X23614285Y46489285D02*
X23614285Y45822619D01*
X23185714Y46489285D02*
X23185714Y45965476D01*
X23233333Y45870238D01*
X23328571Y45822619D01*
X23471428Y45822619D01*
X23566666Y45870238D01*
X23614285Y45917857D01*
X24090476Y46489285D02*
X24090476Y45822619D01*
X24090476Y46394047D02*
X24138095Y46441666D01*
X24233333Y46489285D01*
X24376190Y46489285D01*
X24471428Y46441666D01*
X24519047Y46346428D01*
X24519047Y45822619D01*
X25423809Y45822619D02*
X25423809Y46822619D01*
X25423809Y45870238D02*
X25328571Y45822619D01*
X25138095Y45822619D01*
X25042857Y45870238D01*
X24995238Y45917857D01*
X24947619Y46013095D01*
X24947619Y46298809D01*
X24995238Y46394047D01*
X25042857Y46441666D01*
X25138095Y46489285D01*
X25328571Y46489285D01*
X25423809Y46441666D01*
X26280952Y45870238D02*
X26185714Y45822619D01*
X25995238Y45822619D01*
X25900000Y45870238D01*
X25852380Y45965476D01*
X25852380Y46346428D01*
X25900000Y46441666D01*
X25995238Y46489285D01*
X26185714Y46489285D01*
X26280952Y46441666D01*
X26328571Y46346428D01*
X26328571Y46251190D01*
X25852380Y46155952D01*
X26757142Y45822619D02*
X26757142Y46489285D01*
X26757142Y46298809D02*
X26804761Y46394047D01*
X26852380Y46441666D01*
X26947619Y46489285D01*
X27042857Y46489285D01*
X16447619Y44167857D02*
X16400000Y44120238D01*
X16257142Y44072619D01*
X16161904Y44072619D01*
X16019047Y44120238D01*
X15923809Y44215476D01*
X15876190Y44310714D01*
X15828571Y44501190D01*
X15828571Y44644047D01*
X15876190Y44834523D01*
X15923809Y44929761D01*
X16019047Y45025000D01*
X16161904Y45072619D01*
X16257142Y45072619D01*
X16400000Y45025000D01*
X16447619Y44977380D01*
X16876190Y44596428D02*
X17209523Y44596428D01*
X17352380Y44072619D02*
X16876190Y44072619D01*
X16876190Y45072619D01*
X17352380Y45072619D01*
X18352380Y44072619D02*
X18019047Y44548809D01*
X17780952Y44072619D02*
X17780952Y45072619D01*
X18161904Y45072619D01*
X18257142Y45025000D01*
X18304761Y44977380D01*
X18352380Y44882142D01*
X18352380Y44739285D01*
X18304761Y44644047D01*
X18257142Y44596428D01*
X18161904Y44548809D01*
X17780952Y44548809D01*
X18780952Y44072619D02*
X18780952Y45072619D01*
X19352380Y44072619D01*
X19352380Y45072619D01*
X20780952Y45072619D02*
X20971428Y45072619D01*
X21066666Y45025000D01*
X21161904Y44929761D01*
X21209523Y44739285D01*
X21209523Y44405952D01*
X21161904Y44215476D01*
X21066666Y44120238D01*
X20971428Y44072619D01*
X20780952Y44072619D01*
X20685714Y44120238D01*
X20590476Y44215476D01*
X20542857Y44405952D01*
X20542857Y44739285D01*
X20590476Y44929761D01*
X20685714Y45025000D01*
X20780952Y45072619D01*
X21638095Y44072619D02*
X21638095Y45072619D01*
X21638095Y44596428D02*
X22209523Y44596428D01*
X22209523Y44072619D02*
X22209523Y45072619D01*
X23161904Y44072619D02*
X22685714Y44072619D01*
X22685714Y45072619D01*
X24161904Y44739285D02*
X24400000Y44072619D01*
X24638095Y44739285D01*
X25542857Y44072619D02*
X24971428Y44072619D01*
X25257142Y44072619D02*
X25257142Y45072619D01*
X25161904Y44929761D01*
X25066666Y44834523D01*
X24971428Y44786904D01*
X25971428Y44167857D02*
X26019047Y44120238D01*
X25971428Y44072619D01*
X25923809Y44120238D01*
X25971428Y44167857D01*
X25971428Y44072619D01*
X26400000Y44977380D02*
X26447619Y45025000D01*
X26542857Y45072619D01*
X26780952Y45072619D01*
X26876190Y45025000D01*
X26923809Y44977380D01*
X26971428Y44882142D01*
X26971428Y44786904D01*
X26923809Y44644047D01*
X26352380Y44072619D01*
X26971428Y44072619D01*
D12*
G04 #@! TO.C,U8*
X29751624Y33340000D02*
X31041624Y33340000D01*
X29751624Y32890000D02*
X29751624Y33340000D01*
X29301624Y32890000D02*
X29751624Y32890000D01*
X22531624Y32890000D02*
X22531624Y33340000D01*
X22981624Y32890000D02*
X22531624Y32890000D01*
X29751624Y40110000D02*
X29751624Y39660000D01*
X29301624Y40110000D02*
X29751624Y40110000D01*
X22531624Y40110000D02*
X22531624Y39660000D01*
X22981624Y40110000D02*
X22531624Y40110000D01*
G04 #@! TO.C,R3*
X8740000Y9662779D02*
X8740000Y9337221D01*
X9760000Y9662779D02*
X9760000Y9337221D01*
G04 #@! TO.C,C15*
X28410000Y26237221D02*
X28410000Y26562779D01*
X27390000Y26237221D02*
X27390000Y26562779D01*
G04 #@! TO.C,C16*
X35197989Y36760000D02*
X34872431Y36760000D01*
X35197989Y35740000D02*
X34872431Y35740000D01*
G04 #@! TO.C,C17*
X35197989Y42760000D02*
X34872431Y42760000D01*
X35197989Y41740000D02*
X34872431Y41740000D01*
G04 #@! TO.C,C18*
X5237221Y26090000D02*
X5562779Y26090000D01*
X5237221Y27110000D02*
X5562779Y27110000D01*
G04 #@! TO.C,C19*
X19090000Y32775279D02*
X19090000Y32449721D01*
X20110000Y32775279D02*
X20110000Y32449721D01*
G04 #@! TO.C,C20*
X20587221Y40240000D02*
X20912779Y40240000D01*
X20587221Y41260000D02*
X20912779Y41260000D01*
G04 #@! TO.C,C21*
X29637221Y29490000D02*
X29962779Y29490000D01*
X29637221Y30510000D02*
X29962779Y30510000D01*
G04 #@! TO.C,C22*
X31640000Y44912779D02*
X31640000Y44587221D01*
X32660000Y44912779D02*
X32660000Y44587221D01*
G04 #@! TO.C,C23*
X33140000Y44912779D02*
X33140000Y44587221D01*
X34160000Y44912779D02*
X34160000Y44587221D01*
G04 #@! TO.C,C14*
X29910000Y9941422D02*
X29910000Y10458578D01*
X28490000Y9941422D02*
X28490000Y10458578D01*
G04 #@! TO.C,D6*
X29680000Y14660000D02*
X28270000Y14660000D01*
X28270000Y12340000D02*
X30300000Y12340000D01*
X28270000Y12340000D02*
X28270000Y13000000D01*
X28270000Y14000000D02*
X28270000Y14660000D01*
G04 #@! TO.C,C2*
X30490000Y1504437D02*
X31554437Y440000D01*
X30490000Y4895563D02*
X31554437Y5960000D01*
X30490000Y4895563D02*
X30490000Y4260000D01*
X30490000Y1504437D02*
X30490000Y2140000D01*
X31554437Y440000D02*
X36010000Y440000D01*
X31554437Y5960000D02*
X36010000Y5960000D01*
X36010000Y5960000D02*
X36010000Y4260000D01*
X36010000Y440000D02*
X36010000Y2140000D01*
G04 #@! TO.C,L2*
X34890000Y45058578D02*
X34890000Y44541422D01*
X36310000Y45058578D02*
X36310000Y44541422D01*
G04 #@! TO.C,U7*
X32310000Y25500000D02*
X32310000Y27950000D01*
X29090000Y27300000D02*
X29090000Y25500000D01*
G04 #@! TO.C,Y1*
X36635210Y37250000D02*
X36635210Y41250000D01*
X33435210Y37250000D02*
X36635210Y37250000D01*
G04 #@! TO.C,R10*
X25412779Y27710000D02*
X25087221Y27710000D01*
X25412779Y26690000D02*
X25087221Y26690000D01*
G04 #@! TO.C,R11*
X25412779Y26110000D02*
X25087221Y26110000D01*
X25412779Y25090000D02*
X25087221Y25090000D01*
G04 #@! TO.C,D4*
X2335000Y51050000D02*
X2335000Y53335000D01*
X2335000Y53335000D02*
X865000Y53335000D01*
X865000Y53335000D02*
X865000Y51050000D01*
G04 #@! TO.C,R8*
X2110000Y54687221D02*
X2110000Y55012779D01*
X1090000Y54687221D02*
X1090000Y55012779D01*
G04 #@! TO.C,R9*
X34510000Y21162779D02*
X34510000Y20837221D01*
X33490000Y21162779D02*
X33490000Y20837221D01*
G04 #@! TO.C,D5*
X36635000Y20200000D02*
X36635000Y22485000D01*
X36635000Y22485000D02*
X35165000Y22485000D01*
X35165000Y22485000D02*
X35165000Y20200000D01*
G04 #@! TO.C,D3*
X8235000Y8015000D02*
X8235000Y10300000D01*
X6765000Y8015000D02*
X8235000Y8015000D01*
X6765000Y10300000D02*
X6765000Y8015000D01*
G04 #@! TO.C,H2*
X11170000Y9170000D02*
X11170000Y10500000D01*
X12500000Y9170000D02*
X11170000Y9170000D01*
X11170000Y11770000D02*
X11170000Y14370000D01*
X13770000Y11770000D02*
X11170000Y11770000D01*
X13770000Y9170000D02*
X13770000Y11770000D01*
X11170000Y14370000D02*
X26530000Y14370000D01*
X13770000Y9170000D02*
X26530000Y9170000D01*
X26530000Y9170000D02*
X26530000Y14370000D01*
D13*
G04 #@! TO.C,U2*
X15550000Y45570000D02*
X15550000Y48450000D01*
X12670000Y48450000D02*
X15550000Y48450000D01*
X12670000Y32950000D02*
X15550000Y32950000D01*
X15550000Y35830000D02*
X15550000Y32950000D01*
X50000Y35830000D02*
X50000Y32950000D01*
X2930000Y32950000D02*
X50000Y32950000D01*
X2930000Y48450000D02*
X50000Y48450000D01*
X50000Y45570000D02*
X50000Y48450000D01*
D10*
X11700000Y48900000D02*
G75*
G03X11700000Y48900000I-100000J0D01*
G01*
D13*
G04 #@! TO.C,U6*
X22400000Y25200000D02*
X19900000Y25200000D01*
X22400000Y27700000D02*
X19900000Y27700000D01*
D10*
X23370000Y25650000D02*
G75*
G03X23370000Y25650000I-120000J0D01*
G01*
D12*
G04 #@! TO.C,C5*
X35162779Y57490000D02*
X34837221Y57490000D01*
X35162779Y58510000D02*
X34837221Y58510000D01*
G04 #@! TO.C,C10*
X17640000Y26337221D02*
X17640000Y26662779D01*
X18660000Y26337221D02*
X18660000Y26662779D01*
G04 #@! TO.C,C11*
X11362779Y49490000D02*
X11037221Y49490000D01*
X11362779Y50510000D02*
X11037221Y50510000D01*
G04 #@! TO.C,FB1*
X11096148Y32177542D02*
X10770590Y32177542D01*
X11096148Y31157542D02*
X10770590Y31157542D01*
G04 #@! TO.C,FB2*
X11096148Y29407542D02*
X10770590Y29407542D01*
X11096148Y30427542D02*
X10770590Y30427542D01*
G04 #@! TO.C,SW1*
X3100000Y28350000D02*
X3400000Y28350000D01*
X3400000Y28350000D02*
X3400000Y31650000D01*
X3400000Y31650000D02*
X3100000Y31650000D01*
X900000Y28350000D02*
X600000Y28350000D01*
X600000Y28350000D02*
X600000Y31650000D01*
X600000Y31650000D02*
X900000Y31650000D01*
D10*
G04 #@! TO.C,U3*
X33754000Y50000000D02*
G75*
G03X33754000Y50000000I-100000J0D01*
G01*
D13*
X33020000Y48180000D02*
X22980000Y48180000D01*
X22980000Y48180000D02*
X22980000Y63620000D01*
X22980000Y63620000D02*
X33020000Y63620000D01*
X33020000Y63620000D02*
X33020000Y48180000D01*
D12*
G04 #@! TO.C,BT1*
X6860000Y5860000D02*
X6860000Y6140000D01*
X6860000Y6140000D02*
X8460000Y6140000D01*
X8460000Y6140000D02*
X8460000Y7060000D01*
X8460000Y7060000D02*
X640000Y7060000D01*
X640000Y7060000D02*
X640000Y940000D01*
X640000Y940000D02*
X8460000Y940000D01*
X8460000Y940000D02*
X8460000Y1860000D01*
X8460000Y1860000D02*
X6860000Y1860000D01*
X6860000Y1860000D02*
X6860000Y2140000D01*
X640000Y4500000D02*
X5000000Y4500000D01*
X5000000Y4500000D02*
X5000000Y3500000D01*
X5000000Y3500000D02*
X640000Y3500000D01*
X6860000Y7060000D02*
X6860000Y6140000D01*
X6860000Y940000D02*
X6860000Y1860000D01*
X4500000Y6300000D02*
X2900000Y6300000D01*
X2900000Y6300000D02*
X2900000Y5300000D01*
X2900000Y5300000D02*
X4500000Y5300000D01*
X4500000Y5300000D02*
X4500000Y6300000D01*
X4500000Y1700000D02*
X2900000Y1700000D01*
X2900000Y1700000D02*
X2900000Y2700000D01*
X2900000Y2700000D02*
X4500000Y2700000D01*
X4500000Y2700000D02*
X4500000Y1700000D01*
X2900000Y5300000D02*
X640000Y5300000D01*
X2900000Y5800000D02*
X640000Y5800000D01*
X6860000Y5860000D02*
X8075000Y5860000D01*
G04 #@! TO.C,C1*
X26962779Y16710000D02*
X26637221Y16710000D01*
X26962779Y15690000D02*
X26637221Y15690000D01*
G04 #@! TO.C,C3*
X26962779Y21590000D02*
X26637221Y21590000D01*
X26962779Y22610000D02*
X26637221Y22610000D01*
G04 #@! TO.C,C4*
X18010000Y16641422D02*
X18010000Y17158578D01*
X16590000Y16641422D02*
X16590000Y17158578D01*
G04 #@! TO.C,C7*
X15210000Y7008578D02*
X15210000Y6491422D01*
X13790000Y7008578D02*
X13790000Y6491422D01*
G04 #@! TO.C,C8*
X21710000Y6491422D02*
X21710000Y7008578D01*
X20290000Y6491422D02*
X20290000Y7008578D01*
G04 #@! TO.C,C9*
X14340000Y16641422D02*
X14340000Y17158578D01*
X15760000Y16641422D02*
X15760000Y17158578D01*
G04 #@! TO.C,C12*
X21587221Y4760000D02*
X21912779Y4760000D01*
X21587221Y3740000D02*
X21912779Y3740000D01*
G04 #@! TO.C,L1*
X18450000Y20950000D02*
X18450000Y21350000D01*
X21650000Y20950000D02*
X21650000Y21350000D01*
G04 #@! TO.C,Q1*
X27510000Y820000D02*
X27510000Y1750000D01*
X27510000Y3980000D02*
X27510000Y3050000D01*
X27510000Y3980000D02*
X25350000Y3980000D01*
X27510000Y820000D02*
X26050000Y820000D01*
G04 #@! TO.C,R2*
X17837221Y4760000D02*
X18162779Y4760000D01*
X17837221Y3740000D02*
X18162779Y3740000D01*
G04 #@! TO.C,R4*
X13310000Y17987221D02*
X13310000Y18312779D01*
X12290000Y17987221D02*
X12290000Y18312779D01*
G04 #@! TO.C,R5*
X12290000Y21487221D02*
X12290000Y21812779D01*
X13310000Y21487221D02*
X13310000Y21812779D01*
G04 #@! TO.C,R6*
X22490000Y6912779D02*
X22490000Y6587221D01*
X23510000Y6912779D02*
X23510000Y6587221D01*
G04 #@! TO.C,R7*
X21912779Y1740000D02*
X21587221Y1740000D01*
X21912779Y2760000D02*
X21587221Y2760000D01*
G04 #@! TO.C,U1*
X25215001Y20075001D02*
X25215001Y17625001D01*
X28435001Y18275001D02*
X28435001Y20075001D01*
G04 #@! TO.C,U4*
X18650000Y8360000D02*
X16850000Y8360000D01*
X16850000Y5140000D02*
X19300000Y5140000D01*
G04 #@! TO.C,U5*
X14190000Y22050000D02*
X14190000Y20250000D01*
X17410000Y20250000D02*
X17410000Y22700000D01*
G04 #@! TO.C,J2*
X5200000Y16400000D02*
X5200000Y15950000D01*
X3350000Y16400000D02*
X5200000Y16400000D01*
X800000Y8600000D02*
X1050000Y8600000D01*
X800000Y16400000D02*
X1050000Y16400000D01*
X3350000Y8600000D02*
X5200000Y8600000D01*
X5200000Y8600000D02*
X5200000Y9050000D01*
X5750000Y14200000D02*
X5750000Y13750000D01*
X5750000Y14200000D02*
X5300000Y14200000D01*
G04 #@! TO.C,J3*
X30850000Y10250000D02*
X30550000Y10250000D01*
X30550000Y10250000D02*
X30550000Y9750000D01*
X31140000Y13000000D02*
X31140000Y9960000D01*
X31140000Y9960000D02*
X30840000Y9960000D01*
X30840000Y9960000D02*
X30840000Y8890000D01*
X30840000Y8890000D02*
X36560000Y8890000D01*
X36560000Y8890000D02*
X36560000Y13000000D01*
X31140000Y13000000D02*
X31140000Y16040000D01*
X31140000Y16040000D02*
X30840000Y16040000D01*
X30840000Y16040000D02*
X30840000Y17110000D01*
X30840000Y17110000D02*
X36560000Y17110000D01*
X36560000Y17110000D02*
X36560000Y13000000D01*
G04 #@! TO.C,R1*
X26337221Y8110000D02*
X26662779Y8110000D01*
X26337221Y7090000D02*
X26662779Y7090000D01*
G04 #@! TO.C,R12*
X8237221Y15690000D02*
X8562779Y15690000D01*
X8237221Y16710000D02*
X8562779Y16710000D01*
G04 #@! TO.C,C24*
X9490000Y5337221D02*
X9490000Y5662779D01*
X10510000Y5337221D02*
X10510000Y5662779D01*
G04 #@! TO.C,C25*
X35162779Y27990000D02*
X34837221Y27990000D01*
X35162779Y29010000D02*
X34837221Y29010000D01*
G04 #@! TO.C,C26*
X35162779Y35010000D02*
X34837221Y35010000D01*
X35162779Y33990000D02*
X34837221Y33990000D01*
D14*
G04 #@! TO.C,D7*
X36500000Y53700000D02*
X36500000Y48300000D01*
X33500000Y53700000D02*
X33500000Y48200000D01*
X34500000Y48200000D02*
X33500000Y48200000D01*
D12*
G04 #@! TO.C,Q2*
X9420000Y1240000D02*
X9420000Y2700000D01*
X12580000Y1240000D02*
X12580000Y3400000D01*
X12580000Y1240000D02*
X11650000Y1240000D01*
X9420000Y1240000D02*
X10350000Y1240000D01*
G04 #@! TO.C,Q3*
X18760000Y170000D02*
X18760000Y1100000D01*
X18760000Y3330000D02*
X18760000Y2400000D01*
X18760000Y3330000D02*
X16600000Y3330000D01*
X18760000Y170000D02*
X17300000Y170000D01*
G04 #@! TO.C,R13*
X11240000Y5662779D02*
X11240000Y5337221D01*
X12260000Y5662779D02*
X12260000Y5337221D01*
G04 #@! TO.C,R14*
X14337221Y1510000D02*
X14662779Y1510000D01*
X14337221Y490000D02*
X14662779Y490000D01*
G04 #@! TO.C,R15*
X32837221Y47710000D02*
X33162779Y47710000D01*
X32837221Y46690000D02*
X33162779Y46690000D01*
G04 #@! TO.C,R16*
X35490000Y55762779D02*
X35490000Y55437221D01*
X36510000Y55762779D02*
X36510000Y55437221D01*
G04 #@! TO.C,R17*
X35010000Y55762779D02*
X35010000Y55437221D01*
X33990000Y55762779D02*
X33990000Y55437221D01*
G04 #@! TO.C,U9*
X13650000Y2555000D02*
X13650000Y4255000D01*
X15350000Y2705000D02*
X15350000Y4255000D01*
G04 #@! TO.C,Y2*
X33400000Y29500000D02*
X36600000Y29500000D01*
X36600000Y29500000D02*
X36600000Y33500000D01*
G04 #@! TO.C,R18*
X5237221Y28810000D02*
X5562779Y28810000D01*
X5237221Y27790000D02*
X5562779Y27790000D01*
G04 #@! TO.C,J1*
X11000000Y50500000D02*
X11600000Y50500000D01*
X6400000Y50500000D02*
X7000000Y50500000D01*
X3500000Y56350000D02*
X14550000Y56350000D01*
X3500000Y50500000D02*
X3500000Y56350000D01*
X7250000Y50500000D02*
X10750000Y50500000D01*
X14550000Y50500000D02*
X14550000Y56350000D01*
X3500000Y50500000D02*
X6150000Y50500000D01*
X11900000Y50500000D02*
X14550000Y50500000D01*
G04 #@! TO.C,U10*
X8650000Y11600000D02*
X7350000Y11600000D01*
X7100000Y13400000D02*
X8650000Y13400000D01*
G04 #@! TO.C,C6*
X32162779Y17990000D02*
X31837221Y17990000D01*
X32162779Y19010000D02*
X31837221Y19010000D01*
G04 #@! TO.C,R19*
X32510000Y21162779D02*
X32510000Y20837221D01*
X31490000Y21162779D02*
X31490000Y20837221D01*
G04 #@! TO.C,R20*
X30510000Y20837221D02*
X30510000Y21162779D01*
X29490000Y20837221D02*
X29490000Y21162779D01*
D15*
G04 #@! TO.C,REF\002A\002A*
G36*
X19103910Y52557652D02*
X19182454Y52557222D01*
X19239298Y52556058D01*
X19278105Y52553793D01*
X19302538Y52550060D01*
X19316262Y52544494D01*
X19322940Y52536727D01*
X19326236Y52526395D01*
X19326556Y52525057D01*
X19331562Y52500921D01*
X19340829Y52453299D01*
X19353392Y52387259D01*
X19368287Y52307872D01*
X19384551Y52220204D01*
X19385119Y52217125D01*
X19401410Y52131211D01*
X19416652Y52055304D01*
X19429861Y51993955D01*
X19440054Y51951718D01*
X19446248Y51933145D01*
X19446543Y51932816D01*
X19464788Y51923747D01*
X19502405Y51908633D01*
X19551271Y51890738D01*
X19551543Y51890642D01*
X19613093Y51867507D01*
X19685657Y51838035D01*
X19754057Y51808403D01*
X19757294Y51806938D01*
X19868702Y51756374D01*
X20115399Y51924840D01*
X20191077Y51976197D01*
X20259631Y52022111D01*
X20317088Y52059970D01*
X20359476Y52087163D01*
X20382825Y52101079D01*
X20385042Y52102111D01*
X20402010Y52097516D01*
X20433701Y52075345D01*
X20481352Y52034553D01*
X20546198Y51974095D01*
X20612397Y51909773D01*
X20676214Y51846388D01*
X20733329Y51788549D01*
X20780305Y51739825D01*
X20813703Y51703790D01*
X20830085Y51684016D01*
X20830694Y51682998D01*
X20832505Y51669428D01*
X20825683Y51647267D01*
X20808540Y51613522D01*
X20779393Y51565200D01*
X20736555Y51499308D01*
X20679448Y51414483D01*
X20628766Y51339823D01*
X20583461Y51272860D01*
X20546150Y51217484D01*
X20519452Y51177580D01*
X20505985Y51157038D01*
X20505137Y51155644D01*
X20506781Y51135962D01*
X20519245Y51097707D01*
X20540048Y51048111D01*
X20547462Y51032272D01*
X20579814Y50961710D01*
X20614328Y50881647D01*
X20642365Y50812371D01*
X20662568Y50760955D01*
X20678615Y50721881D01*
X20687888Y50701459D01*
X20689041Y50699886D01*
X20706096Y50697279D01*
X20746298Y50690137D01*
X20804302Y50679477D01*
X20874763Y50666315D01*
X20952335Y50651667D01*
X21031672Y50636551D01*
X21107431Y50621982D01*
X21174264Y50608978D01*
X21226828Y50598555D01*
X21259776Y50591730D01*
X21267857Y50589801D01*
X21276205Y50585038D01*
X21282506Y50574282D01*
X21287045Y50553902D01*
X21290104Y50520266D01*
X21291967Y50469745D01*
X21292918Y50398708D01*
X21293240Y50303524D01*
X21293257Y50264508D01*
X21293257Y49947201D01*
X21217057Y49932161D01*
X21174663Y49924005D01*
X21111400Y49912101D01*
X21034962Y49897884D01*
X20953043Y49882790D01*
X20930400Y49878645D01*
X20854806Y49863947D01*
X20788953Y49849495D01*
X20738366Y49836625D01*
X20708574Y49826678D01*
X20703612Y49823713D01*
X20691426Y49802717D01*
X20673953Y49762033D01*
X20654577Y49709678D01*
X20650734Y49698400D01*
X20625339Y49628477D01*
X20593817Y49549582D01*
X20562969Y49478734D01*
X20562817Y49478405D01*
X20511447Y49367267D01*
X20680399Y49118747D01*
X20849352Y48870228D01*
X20632429Y48652942D01*
X20566819Y48588274D01*
X20506979Y48531267D01*
X20456267Y48484967D01*
X20418046Y48452416D01*
X20395675Y48436657D01*
X20392466Y48435657D01*
X20373626Y48443531D01*
X20335180Y48465422D01*
X20281330Y48498733D01*
X20216276Y48540869D01*
X20145940Y48588057D01*
X20074555Y48636190D01*
X20010908Y48678072D01*
X19959041Y48711129D01*
X19922995Y48732782D01*
X19906867Y48740457D01*
X19887189Y48733963D01*
X19849875Y48716850D01*
X19802621Y48692674D01*
X19797612Y48689987D01*
X19733977Y48658073D01*
X19690341Y48642421D01*
X19663202Y48642255D01*
X19649057Y48656796D01*
X19648975Y48657000D01*
X19641905Y48674221D01*
X19625042Y48715101D01*
X19599695Y48776475D01*
X19567171Y48855181D01*
X19528778Y48948053D01*
X19485822Y49051928D01*
X19444222Y49152498D01*
X19398504Y49263484D01*
X19356526Y49366297D01*
X19319548Y49457785D01*
X19288827Y49534799D01*
X19265622Y49594185D01*
X19251190Y49632791D01*
X19246743Y49647200D01*
X19257896Y49663728D01*
X19287069Y49690070D01*
X19325971Y49719113D01*
X19436757Y49810961D01*
X19523351Y49916241D01*
X19584716Y50032734D01*
X19619815Y50158224D01*
X19627608Y50290493D01*
X19621943Y50351543D01*
X19591078Y50478205D01*
X19537920Y50590059D01*
X19465767Y50685999D01*
X19377917Y50764924D01*
X19277665Y50825730D01*
X19168310Y50867313D01*
X19053147Y50888572D01*
X18935475Y50888401D01*
X18818590Y50865699D01*
X18705789Y50819362D01*
X18600369Y50748287D01*
X18556368Y50708089D01*
X18471979Y50604871D01*
X18413222Y50492075D01*
X18379704Y50372990D01*
X18371035Y50250905D01*
X18386823Y50129107D01*
X18426678Y50010884D01*
X18490207Y49899525D01*
X18577021Y49798316D01*
X18674029Y49719113D01*
X18714437Y49688838D01*
X18742982Y49662781D01*
X18753257Y49647175D01*
X18747877Y49630157D01*
X18732575Y49589500D01*
X18708612Y49528358D01*
X18677244Y49449881D01*
X18639732Y49357220D01*
X18597333Y49253528D01*
X18555663Y49152474D01*
X18509690Y49041393D01*
X18467107Y48938459D01*
X18429221Y48846835D01*
X18397340Y48769684D01*
X18372771Y48710169D01*
X18356820Y48671456D01*
X18350910Y48657000D01*
X18336948Y48642315D01*
X18309940Y48642358D01*
X18266413Y48657901D01*
X18202890Y48689716D01*
X18202388Y48689987D01*
X18154560Y48714677D01*
X18115897Y48732662D01*
X18094095Y48740386D01*
X18093133Y48740457D01*
X18076721Y48732622D01*
X18040487Y48710835D01*
X17988474Y48677672D01*
X17924725Y48635709D01*
X17854060Y48588057D01*
X17782116Y48539809D01*
X17717274Y48497849D01*
X17663735Y48464773D01*
X17625697Y48443179D01*
X17607533Y48435657D01*
X17590808Y48445543D01*
X17557180Y48473174D01*
X17510010Y48515505D01*
X17452658Y48569495D01*
X17388484Y48632101D01*
X17367497Y48653017D01*
X17150499Y48870377D01*
X17315668Y49112780D01*
X17365864Y49187219D01*
X17409919Y49254028D01*
X17445362Y49309335D01*
X17469719Y49349271D01*
X17480522Y49369964D01*
X17480838Y49371437D01*
X17475143Y49390942D01*
X17459826Y49430178D01*
X17437537Y49482570D01*
X17421893Y49517645D01*
X17392641Y49584799D01*
X17365094Y49652642D01*
X17343737Y49709966D01*
X17337935Y49727428D01*
X17321452Y49774062D01*
X17305340Y49810095D01*
X17296490Y49823713D01*
X17276960Y49832048D01*
X17234334Y49843863D01*
X17174145Y49857819D01*
X17101922Y49872578D01*
X17069600Y49878645D01*
X16987522Y49893727D01*
X16908795Y49908331D01*
X16841109Y49921020D01*
X16792160Y49930358D01*
X16782943Y49932161D01*
X16706743Y49947201D01*
X16706743Y50264508D01*
X16706914Y50368846D01*
X16707616Y50447787D01*
X16709134Y50504962D01*
X16711749Y50544001D01*
X16715746Y50568535D01*
X16721409Y50582195D01*
X16729020Y50588611D01*
X16732143Y50589801D01*
X16750978Y50594020D01*
X16792588Y50602438D01*
X16851630Y50614039D01*
X16922757Y50627805D01*
X17000625Y50642720D01*
X17079887Y50657768D01*
X17155198Y50671931D01*
X17221213Y50684194D01*
X17272587Y50693539D01*
X17303975Y50698950D01*
X17310959Y50699886D01*
X17317285Y50712404D01*
X17331290Y50745754D01*
X17350355Y50793623D01*
X17357634Y50812371D01*
X17386996Y50884805D01*
X17421571Y50964830D01*
X17452537Y51032272D01*
X17475323Y51083841D01*
X17490482Y51126215D01*
X17495542Y51152166D01*
X17494736Y51155644D01*
X17484041Y51172064D01*
X17459620Y51208583D01*
X17424095Y51261313D01*
X17380087Y51326365D01*
X17330217Y51399849D01*
X17320356Y51414355D01*
X17262492Y51500296D01*
X17219956Y51565739D01*
X17191054Y51613696D01*
X17174090Y51647180D01*
X17167367Y51669205D01*
X17169190Y51682783D01*
X17169236Y51682869D01*
X17183586Y51700703D01*
X17215323Y51735183D01*
X17261010Y51782732D01*
X17317204Y51839778D01*
X17380468Y51902745D01*
X17387602Y51909773D01*
X17467330Y51986980D01*
X17528857Y52043670D01*
X17573421Y52080890D01*
X17602257Y52099685D01*
X17614958Y52102111D01*
X17633494Y52091529D01*
X17671961Y52067084D01*
X17726386Y52031388D01*
X17792798Y51987053D01*
X17867225Y51936689D01*
X17884601Y51924840D01*
X18131297Y51756374D01*
X18242706Y51806938D01*
X18310457Y51836405D01*
X18383183Y51866041D01*
X18445703Y51889670D01*
X18448457Y51890642D01*
X18497360Y51908543D01*
X18535057Y51923680D01*
X18553425Y51932790D01*
X18553456Y51932816D01*
X18559285Y51949283D01*
X18569192Y51989781D01*
X18582195Y52049758D01*
X18597309Y52124660D01*
X18613552Y52209936D01*
X18614881Y52217125D01*
X18631175Y52304986D01*
X18646133Y52384740D01*
X18658791Y52451319D01*
X18668186Y52499653D01*
X18673354Y52524675D01*
X18673444Y52525057D01*
X18676589Y52535701D01*
X18682704Y52543738D01*
X18695453Y52549533D01*
X18718500Y52553453D01*
X18755509Y52555865D01*
X18810144Y52557135D01*
X18886067Y52557629D01*
X18986944Y52557714D01*
X19000000Y52557714D01*
X19103910Y52557652D01*
X19103910Y52557652D01*
G37*
X19103910Y52557652D02*
X19182454Y52557222D01*
X19239298Y52556058D01*
X19278105Y52553793D01*
X19302538Y52550060D01*
X19316262Y52544494D01*
X19322940Y52536727D01*
X19326236Y52526395D01*
X19326556Y52525057D01*
X19331562Y52500921D01*
X19340829Y52453299D01*
X19353392Y52387259D01*
X19368287Y52307872D01*
X19384551Y52220204D01*
X19385119Y52217125D01*
X19401410Y52131211D01*
X19416652Y52055304D01*
X19429861Y51993955D01*
X19440054Y51951718D01*
X19446248Y51933145D01*
X19446543Y51932816D01*
X19464788Y51923747D01*
X19502405Y51908633D01*
X19551271Y51890738D01*
X19551543Y51890642D01*
X19613093Y51867507D01*
X19685657Y51838035D01*
X19754057Y51808403D01*
X19757294Y51806938D01*
X19868702Y51756374D01*
X20115399Y51924840D01*
X20191077Y51976197D01*
X20259631Y52022111D01*
X20317088Y52059970D01*
X20359476Y52087163D01*
X20382825Y52101079D01*
X20385042Y52102111D01*
X20402010Y52097516D01*
X20433701Y52075345D01*
X20481352Y52034553D01*
X20546198Y51974095D01*
X20612397Y51909773D01*
X20676214Y51846388D01*
X20733329Y51788549D01*
X20780305Y51739825D01*
X20813703Y51703790D01*
X20830085Y51684016D01*
X20830694Y51682998D01*
X20832505Y51669428D01*
X20825683Y51647267D01*
X20808540Y51613522D01*
X20779393Y51565200D01*
X20736555Y51499308D01*
X20679448Y51414483D01*
X20628766Y51339823D01*
X20583461Y51272860D01*
X20546150Y51217484D01*
X20519452Y51177580D01*
X20505985Y51157038D01*
X20505137Y51155644D01*
X20506781Y51135962D01*
X20519245Y51097707D01*
X20540048Y51048111D01*
X20547462Y51032272D01*
X20579814Y50961710D01*
X20614328Y50881647D01*
X20642365Y50812371D01*
X20662568Y50760955D01*
X20678615Y50721881D01*
X20687888Y50701459D01*
X20689041Y50699886D01*
X20706096Y50697279D01*
X20746298Y50690137D01*
X20804302Y50679477D01*
X20874763Y50666315D01*
X20952335Y50651667D01*
X21031672Y50636551D01*
X21107431Y50621982D01*
X21174264Y50608978D01*
X21226828Y50598555D01*
X21259776Y50591730D01*
X21267857Y50589801D01*
X21276205Y50585038D01*
X21282506Y50574282D01*
X21287045Y50553902D01*
X21290104Y50520266D01*
X21291967Y50469745D01*
X21292918Y50398708D01*
X21293240Y50303524D01*
X21293257Y50264508D01*
X21293257Y49947201D01*
X21217057Y49932161D01*
X21174663Y49924005D01*
X21111400Y49912101D01*
X21034962Y49897884D01*
X20953043Y49882790D01*
X20930400Y49878645D01*
X20854806Y49863947D01*
X20788953Y49849495D01*
X20738366Y49836625D01*
X20708574Y49826678D01*
X20703612Y49823713D01*
X20691426Y49802717D01*
X20673953Y49762033D01*
X20654577Y49709678D01*
X20650734Y49698400D01*
X20625339Y49628477D01*
X20593817Y49549582D01*
X20562969Y49478734D01*
X20562817Y49478405D01*
X20511447Y49367267D01*
X20680399Y49118747D01*
X20849352Y48870228D01*
X20632429Y48652942D01*
X20566819Y48588274D01*
X20506979Y48531267D01*
X20456267Y48484967D01*
X20418046Y48452416D01*
X20395675Y48436657D01*
X20392466Y48435657D01*
X20373626Y48443531D01*
X20335180Y48465422D01*
X20281330Y48498733D01*
X20216276Y48540869D01*
X20145940Y48588057D01*
X20074555Y48636190D01*
X20010908Y48678072D01*
X19959041Y48711129D01*
X19922995Y48732782D01*
X19906867Y48740457D01*
X19887189Y48733963D01*
X19849875Y48716850D01*
X19802621Y48692674D01*
X19797612Y48689987D01*
X19733977Y48658073D01*
X19690341Y48642421D01*
X19663202Y48642255D01*
X19649057Y48656796D01*
X19648975Y48657000D01*
X19641905Y48674221D01*
X19625042Y48715101D01*
X19599695Y48776475D01*
X19567171Y48855181D01*
X19528778Y48948053D01*
X19485822Y49051928D01*
X19444222Y49152498D01*
X19398504Y49263484D01*
X19356526Y49366297D01*
X19319548Y49457785D01*
X19288827Y49534799D01*
X19265622Y49594185D01*
X19251190Y49632791D01*
X19246743Y49647200D01*
X19257896Y49663728D01*
X19287069Y49690070D01*
X19325971Y49719113D01*
X19436757Y49810961D01*
X19523351Y49916241D01*
X19584716Y50032734D01*
X19619815Y50158224D01*
X19627608Y50290493D01*
X19621943Y50351543D01*
X19591078Y50478205D01*
X19537920Y50590059D01*
X19465767Y50685999D01*
X19377917Y50764924D01*
X19277665Y50825730D01*
X19168310Y50867313D01*
X19053147Y50888572D01*
X18935475Y50888401D01*
X18818590Y50865699D01*
X18705789Y50819362D01*
X18600369Y50748287D01*
X18556368Y50708089D01*
X18471979Y50604871D01*
X18413222Y50492075D01*
X18379704Y50372990D01*
X18371035Y50250905D01*
X18386823Y50129107D01*
X18426678Y50010884D01*
X18490207Y49899525D01*
X18577021Y49798316D01*
X18674029Y49719113D01*
X18714437Y49688838D01*
X18742982Y49662781D01*
X18753257Y49647175D01*
X18747877Y49630157D01*
X18732575Y49589500D01*
X18708612Y49528358D01*
X18677244Y49449881D01*
X18639732Y49357220D01*
X18597333Y49253528D01*
X18555663Y49152474D01*
X18509690Y49041393D01*
X18467107Y48938459D01*
X18429221Y48846835D01*
X18397340Y48769684D01*
X18372771Y48710169D01*
X18356820Y48671456D01*
X18350910Y48657000D01*
X18336948Y48642315D01*
X18309940Y48642358D01*
X18266413Y48657901D01*
X18202890Y48689716D01*
X18202388Y48689987D01*
X18154560Y48714677D01*
X18115897Y48732662D01*
X18094095Y48740386D01*
X18093133Y48740457D01*
X18076721Y48732622D01*
X18040487Y48710835D01*
X17988474Y48677672D01*
X17924725Y48635709D01*
X17854060Y48588057D01*
X17782116Y48539809D01*
X17717274Y48497849D01*
X17663735Y48464773D01*
X17625697Y48443179D01*
X17607533Y48435657D01*
X17590808Y48445543D01*
X17557180Y48473174D01*
X17510010Y48515505D01*
X17452658Y48569495D01*
X17388484Y48632101D01*
X17367497Y48653017D01*
X17150499Y48870377D01*
X17315668Y49112780D01*
X17365864Y49187219D01*
X17409919Y49254028D01*
X17445362Y49309335D01*
X17469719Y49349271D01*
X17480522Y49369964D01*
X17480838Y49371437D01*
X17475143Y49390942D01*
X17459826Y49430178D01*
X17437537Y49482570D01*
X17421893Y49517645D01*
X17392641Y49584799D01*
X17365094Y49652642D01*
X17343737Y49709966D01*
X17337935Y49727428D01*
X17321452Y49774062D01*
X17305340Y49810095D01*
X17296490Y49823713D01*
X17276960Y49832048D01*
X17234334Y49843863D01*
X17174145Y49857819D01*
X17101922Y49872578D01*
X17069600Y49878645D01*
X16987522Y49893727D01*
X16908795Y49908331D01*
X16841109Y49921020D01*
X16792160Y49930358D01*
X16782943Y49932161D01*
X16706743Y49947201D01*
X16706743Y50264508D01*
X16706914Y50368846D01*
X16707616Y50447787D01*
X16709134Y50504962D01*
X16711749Y50544001D01*
X16715746Y50568535D01*
X16721409Y50582195D01*
X16729020Y50588611D01*
X16732143Y50589801D01*
X16750978Y50594020D01*
X16792588Y50602438D01*
X16851630Y50614039D01*
X16922757Y50627805D01*
X17000625Y50642720D01*
X17079887Y50657768D01*
X17155198Y50671931D01*
X17221213Y50684194D01*
X17272587Y50693539D01*
X17303975Y50698950D01*
X17310959Y50699886D01*
X17317285Y50712404D01*
X17331290Y50745754D01*
X17350355Y50793623D01*
X17357634Y50812371D01*
X17386996Y50884805D01*
X17421571Y50964830D01*
X17452537Y51032272D01*
X17475323Y51083841D01*
X17490482Y51126215D01*
X17495542Y51152166D01*
X17494736Y51155644D01*
X17484041Y51172064D01*
X17459620Y51208583D01*
X17424095Y51261313D01*
X17380087Y51326365D01*
X17330217Y51399849D01*
X17320356Y51414355D01*
X17262492Y51500296D01*
X17219956Y51565739D01*
X17191054Y51613696D01*
X17174090Y51647180D01*
X17167367Y51669205D01*
X17169190Y51682783D01*
X17169236Y51682869D01*
X17183586Y51700703D01*
X17215323Y51735183D01*
X17261010Y51782732D01*
X17317204Y51839778D01*
X17380468Y51902745D01*
X17387602Y51909773D01*
X17467330Y51986980D01*
X17528857Y52043670D01*
X17573421Y52080890D01*
X17602257Y52099685D01*
X17614958Y52102111D01*
X17633494Y52091529D01*
X17671961Y52067084D01*
X17726386Y52031388D01*
X17792798Y51987053D01*
X17867225Y51936689D01*
X17884601Y51924840D01*
X18131297Y51756374D01*
X18242706Y51806938D01*
X18310457Y51836405D01*
X18383183Y51866041D01*
X18445703Y51889670D01*
X18448457Y51890642D01*
X18497360Y51908543D01*
X18535057Y51923680D01*
X18553425Y51932790D01*
X18553456Y51932816D01*
X18559285Y51949283D01*
X18569192Y51989781D01*
X18582195Y52049758D01*
X18597309Y52124660D01*
X18613552Y52209936D01*
X18614881Y52217125D01*
X18631175Y52304986D01*
X18646133Y52384740D01*
X18658791Y52451319D01*
X18668186Y52499653D01*
X18673354Y52524675D01*
X18673444Y52525057D01*
X18676589Y52535701D01*
X18682704Y52543738D01*
X18695453Y52549533D01*
X18718500Y52553453D01*
X18755509Y52555865D01*
X18810144Y52557135D01*
X18886067Y52557629D01*
X18986944Y52557714D01*
X19000000Y52557714D01*
X19103910Y52557652D01*
G36*
X22153595Y47833034D02*
X22211021Y47795503D01*
X22238719Y47761904D01*
X22260662Y47700936D01*
X22262405Y47652692D01*
X22258457Y47588184D01*
X22109686Y47523066D01*
X22037349Y47489798D01*
X21990084Y47463036D01*
X21965507Y47439856D01*
X21961237Y47417333D01*
X21974889Y47392545D01*
X21989943Y47376114D01*
X22033746Y47349765D01*
X22081389Y47347919D01*
X22125145Y47368454D01*
X22157289Y47409248D01*
X22163038Y47423653D01*
X22190576Y47468644D01*
X22222258Y47487818D01*
X22265714Y47504221D01*
X22265714Y47442034D01*
X22261872Y47399717D01*
X22246823Y47364031D01*
X22215280Y47323057D01*
X22210592Y47317733D01*
X22175506Y47281280D01*
X22145347Y47261717D01*
X22107615Y47252717D01*
X22076335Y47249770D01*
X22020385Y47249035D01*
X21980555Y47258340D01*
X21955708Y47272154D01*
X21916656Y47302533D01*
X21889625Y47335387D01*
X21872517Y47376706D01*
X21863238Y47432479D01*
X21859693Y47508695D01*
X21859410Y47547378D01*
X21860372Y47593753D01*
X21948007Y47593753D01*
X21949023Y47568874D01*
X21951556Y47564800D01*
X21968274Y47570335D01*
X22004249Y47584983D01*
X22052331Y47605810D01*
X22062386Y47610286D01*
X22123152Y47641186D01*
X22156632Y47668343D01*
X22163990Y47693780D01*
X22146391Y47719519D01*
X22131856Y47730891D01*
X22079410Y47753636D01*
X22030322Y47749878D01*
X21989227Y47722116D01*
X21960758Y47672848D01*
X21951631Y47633743D01*
X21948007Y47593753D01*
X21860372Y47593753D01*
X21861285Y47637751D01*
X21868196Y47704616D01*
X21881884Y47753305D01*
X21904096Y47789151D01*
X21936574Y47817487D01*
X21950733Y47826645D01*
X22015053Y47850493D01*
X22085473Y47851994D01*
X22153595Y47833034D01*
X22153595Y47833034D01*
G37*
X22153595Y47833034D02*
X22211021Y47795503D01*
X22238719Y47761904D01*
X22260662Y47700936D01*
X22262405Y47652692D01*
X22258457Y47588184D01*
X22109686Y47523066D01*
X22037349Y47489798D01*
X21990084Y47463036D01*
X21965507Y47439856D01*
X21961237Y47417333D01*
X21974889Y47392545D01*
X21989943Y47376114D01*
X22033746Y47349765D01*
X22081389Y47347919D01*
X22125145Y47368454D01*
X22157289Y47409248D01*
X22163038Y47423653D01*
X22190576Y47468644D01*
X22222258Y47487818D01*
X22265714Y47504221D01*
X22265714Y47442034D01*
X22261872Y47399717D01*
X22246823Y47364031D01*
X22215280Y47323057D01*
X22210592Y47317733D01*
X22175506Y47281280D01*
X22145347Y47261717D01*
X22107615Y47252717D01*
X22076335Y47249770D01*
X22020385Y47249035D01*
X21980555Y47258340D01*
X21955708Y47272154D01*
X21916656Y47302533D01*
X21889625Y47335387D01*
X21872517Y47376706D01*
X21863238Y47432479D01*
X21859693Y47508695D01*
X21859410Y47547378D01*
X21860372Y47593753D01*
X21948007Y47593753D01*
X21949023Y47568874D01*
X21951556Y47564800D01*
X21968274Y47570335D01*
X22004249Y47584983D01*
X22052331Y47605810D01*
X22062386Y47610286D01*
X22123152Y47641186D01*
X22156632Y47668343D01*
X22163990Y47693780D01*
X22146391Y47719519D01*
X22131856Y47730891D01*
X22079410Y47753636D01*
X22030322Y47749878D01*
X21989227Y47722116D01*
X21960758Y47672848D01*
X21951631Y47633743D01*
X21948007Y47593753D01*
X21860372Y47593753D01*
X21861285Y47637751D01*
X21868196Y47704616D01*
X21881884Y47753305D01*
X21904096Y47789151D01*
X21936574Y47817487D01*
X21950733Y47826645D01*
X22015053Y47850493D01*
X22085473Y47851994D01*
X22153595Y47833034D01*
G36*
X21652600Y47841248D02*
X21669948Y47833666D01*
X21711356Y47800872D01*
X21746765Y47753453D01*
X21768664Y47702849D01*
X21772229Y47677902D01*
X21760279Y47643073D01*
X21734067Y47624643D01*
X21705964Y47613484D01*
X21693095Y47611428D01*
X21686829Y47626351D01*
X21674456Y47658825D01*
X21669028Y47673498D01*
X21638590Y47724256D01*
X21594520Y47749573D01*
X21538010Y47748794D01*
X21533825Y47747797D01*
X21503655Y47733493D01*
X21481476Y47705607D01*
X21466327Y47660713D01*
X21457250Y47595385D01*
X21453286Y47506196D01*
X21452914Y47458739D01*
X21452730Y47383929D01*
X21451522Y47332931D01*
X21448309Y47300529D01*
X21442109Y47281505D01*
X21431940Y47270644D01*
X21416819Y47262728D01*
X21415946Y47262330D01*
X21386828Y47250019D01*
X21372403Y47245486D01*
X21370186Y47259191D01*
X21368289Y47297075D01*
X21366847Y47354285D01*
X21365998Y47425973D01*
X21365829Y47478435D01*
X21366692Y47579953D01*
X21370070Y47656968D01*
X21377142Y47713977D01*
X21389088Y47755474D01*
X21407090Y47785957D01*
X21432327Y47809920D01*
X21457247Y47826645D01*
X21517171Y47848903D01*
X21586911Y47853924D01*
X21652600Y47841248D01*
X21652600Y47841248D01*
G37*
X21652600Y47841248D02*
X21669948Y47833666D01*
X21711356Y47800872D01*
X21746765Y47753453D01*
X21768664Y47702849D01*
X21772229Y47677902D01*
X21760279Y47643073D01*
X21734067Y47624643D01*
X21705964Y47613484D01*
X21693095Y47611428D01*
X21686829Y47626351D01*
X21674456Y47658825D01*
X21669028Y47673498D01*
X21638590Y47724256D01*
X21594520Y47749573D01*
X21538010Y47748794D01*
X21533825Y47747797D01*
X21503655Y47733493D01*
X21481476Y47705607D01*
X21466327Y47660713D01*
X21457250Y47595385D01*
X21453286Y47506196D01*
X21452914Y47458739D01*
X21452730Y47383929D01*
X21451522Y47332931D01*
X21448309Y47300529D01*
X21442109Y47281505D01*
X21431940Y47270644D01*
X21416819Y47262728D01*
X21415946Y47262330D01*
X21386828Y47250019D01*
X21372403Y47245486D01*
X21370186Y47259191D01*
X21368289Y47297075D01*
X21366847Y47354285D01*
X21365998Y47425973D01*
X21365829Y47478435D01*
X21366692Y47579953D01*
X21370070Y47656968D01*
X21377142Y47713977D01*
X21389088Y47755474D01*
X21407090Y47785957D01*
X21432327Y47809920D01*
X21457247Y47826645D01*
X21517171Y47848903D01*
X21586911Y47853924D01*
X21652600Y47841248D01*
G36*
X21144876Y47843665D02*
X21186667Y47824656D01*
X21219469Y47801622D01*
X21243503Y47775867D01*
X21260097Y47742642D01*
X21270577Y47697200D01*
X21276271Y47634793D01*
X21278507Y47550673D01*
X21278743Y47495279D01*
X21278743Y47279174D01*
X21241774Y47262330D01*
X21212656Y47250019D01*
X21198231Y47245486D01*
X21195472Y47258975D01*
X21193282Y47295347D01*
X21191942Y47348458D01*
X21191657Y47390628D01*
X21190434Y47451553D01*
X21187136Y47499885D01*
X21182321Y47529482D01*
X21178496Y47535771D01*
X21152783Y47529348D01*
X21112418Y47512875D01*
X21065679Y47490542D01*
X21020845Y47466543D01*
X20986193Y47445070D01*
X20970002Y47430315D01*
X20969938Y47430155D01*
X20971330Y47402848D01*
X20983818Y47376781D01*
X21005743Y47355608D01*
X21037743Y47348526D01*
X21065092Y47349351D01*
X21103826Y47349958D01*
X21124158Y47340884D01*
X21136369Y47316908D01*
X21137909Y47312387D01*
X21143203Y47278194D01*
X21129047Y47257432D01*
X21092148Y47247538D01*
X21052289Y47245708D01*
X20980562Y47259273D01*
X20943432Y47278645D01*
X20897576Y47324155D01*
X20873256Y47380017D01*
X20871073Y47439043D01*
X20891629Y47494047D01*
X20922549Y47528514D01*
X20953420Y47547811D01*
X21001942Y47572241D01*
X21058485Y47597015D01*
X21067910Y47600801D01*
X21130019Y47628209D01*
X21165822Y47652366D01*
X21177337Y47676381D01*
X21166580Y47703365D01*
X21148114Y47724457D01*
X21104469Y47750428D01*
X21056446Y47752376D01*
X21012406Y47732363D01*
X20980709Y47692449D01*
X20976549Y47682152D01*
X20952327Y47644276D01*
X20916965Y47616158D01*
X20872343Y47593083D01*
X20872343Y47658515D01*
X20874969Y47698494D01*
X20886230Y47730003D01*
X20911199Y47763622D01*
X20935169Y47789516D01*
X20972441Y47826183D01*
X21001401Y47845879D01*
X21032505Y47853780D01*
X21067713Y47855086D01*
X21144876Y47843665D01*
X21144876Y47843665D01*
G37*
X21144876Y47843665D02*
X21186667Y47824656D01*
X21219469Y47801622D01*
X21243503Y47775867D01*
X21260097Y47742642D01*
X21270577Y47697200D01*
X21276271Y47634793D01*
X21278507Y47550673D01*
X21278743Y47495279D01*
X21278743Y47279174D01*
X21241774Y47262330D01*
X21212656Y47250019D01*
X21198231Y47245486D01*
X21195472Y47258975D01*
X21193282Y47295347D01*
X21191942Y47348458D01*
X21191657Y47390628D01*
X21190434Y47451553D01*
X21187136Y47499885D01*
X21182321Y47529482D01*
X21178496Y47535771D01*
X21152783Y47529348D01*
X21112418Y47512875D01*
X21065679Y47490542D01*
X21020845Y47466543D01*
X20986193Y47445070D01*
X20970002Y47430315D01*
X20969938Y47430155D01*
X20971330Y47402848D01*
X20983818Y47376781D01*
X21005743Y47355608D01*
X21037743Y47348526D01*
X21065092Y47349351D01*
X21103826Y47349958D01*
X21124158Y47340884D01*
X21136369Y47316908D01*
X21137909Y47312387D01*
X21143203Y47278194D01*
X21129047Y47257432D01*
X21092148Y47247538D01*
X21052289Y47245708D01*
X20980562Y47259273D01*
X20943432Y47278645D01*
X20897576Y47324155D01*
X20873256Y47380017D01*
X20871073Y47439043D01*
X20891629Y47494047D01*
X20922549Y47528514D01*
X20953420Y47547811D01*
X21001942Y47572241D01*
X21058485Y47597015D01*
X21067910Y47600801D01*
X21130019Y47628209D01*
X21165822Y47652366D01*
X21177337Y47676381D01*
X21166580Y47703365D01*
X21148114Y47724457D01*
X21104469Y47750428D01*
X21056446Y47752376D01*
X21012406Y47732363D01*
X20980709Y47692449D01*
X20976549Y47682152D01*
X20952327Y47644276D01*
X20916965Y47616158D01*
X20872343Y47593083D01*
X20872343Y47658515D01*
X20874969Y47698494D01*
X20886230Y47730003D01*
X20911199Y47763622D01*
X20935169Y47789516D01*
X20972441Y47826183D01*
X21001401Y47845879D01*
X21032505Y47853780D01*
X21067713Y47855086D01*
X21144876Y47843665D01*
G36*
X20779833Y47841337D02*
X20782048Y47803150D01*
X20783784Y47745114D01*
X20784899Y47671820D01*
X20785257Y47594945D01*
X20785257Y47334804D01*
X20739326Y47288873D01*
X20707675Y47260571D01*
X20679890Y47249107D01*
X20641915Y47249832D01*
X20626840Y47251679D01*
X20579726Y47257052D01*
X20540756Y47260131D01*
X20531257Y47260415D01*
X20499233Y47258555D01*
X20453432Y47253886D01*
X20435674Y47251679D01*
X20392057Y47248265D01*
X20362745Y47255680D01*
X20333680Y47278573D01*
X20323188Y47288873D01*
X20277257Y47334804D01*
X20277257Y47821398D01*
X20314226Y47838242D01*
X20346059Y47850718D01*
X20364683Y47855086D01*
X20369458Y47841282D01*
X20373921Y47802714D01*
X20377775Y47743644D01*
X20380722Y47668337D01*
X20382143Y47604714D01*
X20386114Y47354343D01*
X20420759Y47349444D01*
X20452268Y47352869D01*
X20467708Y47363959D01*
X20472023Y47384692D01*
X20475708Y47428855D01*
X20478469Y47490854D01*
X20480012Y47565091D01*
X20480235Y47603294D01*
X20480457Y47823217D01*
X20526166Y47839151D01*
X20558518Y47849985D01*
X20576115Y47855038D01*
X20576623Y47855086D01*
X20578388Y47841352D01*
X20580329Y47803270D01*
X20582282Y47745518D01*
X20584084Y47672773D01*
X20585343Y47604714D01*
X20589314Y47354343D01*
X20676400Y47354343D01*
X20680396Y47582760D01*
X20684392Y47811178D01*
X20726847Y47833132D01*
X20758192Y47848207D01*
X20776744Y47855049D01*
X20777279Y47855086D01*
X20779833Y47841337D01*
X20779833Y47841337D01*
G37*
X20779833Y47841337D02*
X20782048Y47803150D01*
X20783784Y47745114D01*
X20784899Y47671820D01*
X20785257Y47594945D01*
X20785257Y47334804D01*
X20739326Y47288873D01*
X20707675Y47260571D01*
X20679890Y47249107D01*
X20641915Y47249832D01*
X20626840Y47251679D01*
X20579726Y47257052D01*
X20540756Y47260131D01*
X20531257Y47260415D01*
X20499233Y47258555D01*
X20453432Y47253886D01*
X20435674Y47251679D01*
X20392057Y47248265D01*
X20362745Y47255680D01*
X20333680Y47278573D01*
X20323188Y47288873D01*
X20277257Y47334804D01*
X20277257Y47821398D01*
X20314226Y47838242D01*
X20346059Y47850718D01*
X20364683Y47855086D01*
X20369458Y47841282D01*
X20373921Y47802714D01*
X20377775Y47743644D01*
X20380722Y47668337D01*
X20382143Y47604714D01*
X20386114Y47354343D01*
X20420759Y47349444D01*
X20452268Y47352869D01*
X20467708Y47363959D01*
X20472023Y47384692D01*
X20475708Y47428855D01*
X20478469Y47490854D01*
X20480012Y47565091D01*
X20480235Y47603294D01*
X20480457Y47823217D01*
X20526166Y47839151D01*
X20558518Y47849985D01*
X20576115Y47855038D01*
X20576623Y47855086D01*
X20578388Y47841352D01*
X20580329Y47803270D01*
X20582282Y47745518D01*
X20584084Y47672773D01*
X20585343Y47604714D01*
X20589314Y47354343D01*
X20676400Y47354343D01*
X20680396Y47582760D01*
X20684392Y47811178D01*
X20726847Y47833132D01*
X20758192Y47848207D01*
X20776744Y47855049D01*
X20777279Y47855086D01*
X20779833Y47841337D01*
G36*
X20190117Y47734642D02*
X20189933Y47626163D01*
X20189219Y47542713D01*
X20187675Y47480296D01*
X20185001Y47434915D01*
X20180894Y47402571D01*
X20175055Y47379267D01*
X20167182Y47361005D01*
X20161221Y47350582D01*
X20111855Y47294055D01*
X20049264Y47258623D01*
X19980013Y47245910D01*
X19910668Y47257537D01*
X19869375Y47278432D01*
X19826025Y47314578D01*
X19796481Y47358724D01*
X19778655Y47416538D01*
X19770463Y47493687D01*
X19769302Y47550286D01*
X19769458Y47554353D01*
X19870857Y47554353D01*
X19871476Y47489450D01*
X19874314Y47446486D01*
X19880840Y47418378D01*
X19892523Y47398047D01*
X19906483Y47382712D01*
X19953365Y47353110D01*
X20003701Y47350581D01*
X20051276Y47375295D01*
X20054979Y47378644D01*
X20070783Y47396065D01*
X20080693Y47416791D01*
X20086058Y47447638D01*
X20088228Y47495423D01*
X20088571Y47548252D01*
X20087827Y47614619D01*
X20084748Y47658894D01*
X20078061Y47687991D01*
X20066496Y47708827D01*
X20057013Y47719893D01*
X20012960Y47747802D01*
X19962224Y47751157D01*
X19913796Y47729841D01*
X19904450Y47721927D01*
X19888540Y47704353D01*
X19878610Y47683413D01*
X19873278Y47652218D01*
X19871163Y47603878D01*
X19870857Y47554353D01*
X19769458Y47554353D01*
X19772810Y47641432D01*
X19784726Y47709914D01*
X19807135Y47761400D01*
X19842124Y47801557D01*
X19869375Y47822139D01*
X19918907Y47844375D01*
X19976316Y47854696D01*
X20029682Y47851933D01*
X20059543Y47840788D01*
X20071261Y47837617D01*
X20079037Y47849443D01*
X20084465Y47881134D01*
X20088571Y47929407D01*
X20093067Y47983171D01*
X20099313Y48015518D01*
X20110676Y48034015D01*
X20130528Y48046230D01*
X20143000Y48051638D01*
X20190171Y48071399D01*
X20190117Y47734642D01*
X20190117Y47734642D01*
G37*
X20190117Y47734642D02*
X20189933Y47626163D01*
X20189219Y47542713D01*
X20187675Y47480296D01*
X20185001Y47434915D01*
X20180894Y47402571D01*
X20175055Y47379267D01*
X20167182Y47361005D01*
X20161221Y47350582D01*
X20111855Y47294055D01*
X20049264Y47258623D01*
X19980013Y47245910D01*
X19910668Y47257537D01*
X19869375Y47278432D01*
X19826025Y47314578D01*
X19796481Y47358724D01*
X19778655Y47416538D01*
X19770463Y47493687D01*
X19769302Y47550286D01*
X19769458Y47554353D01*
X19870857Y47554353D01*
X19871476Y47489450D01*
X19874314Y47446486D01*
X19880840Y47418378D01*
X19892523Y47398047D01*
X19906483Y47382712D01*
X19953365Y47353110D01*
X20003701Y47350581D01*
X20051276Y47375295D01*
X20054979Y47378644D01*
X20070783Y47396065D01*
X20080693Y47416791D01*
X20086058Y47447638D01*
X20088228Y47495423D01*
X20088571Y47548252D01*
X20087827Y47614619D01*
X20084748Y47658894D01*
X20078061Y47687991D01*
X20066496Y47708827D01*
X20057013Y47719893D01*
X20012960Y47747802D01*
X19962224Y47751157D01*
X19913796Y47729841D01*
X19904450Y47721927D01*
X19888540Y47704353D01*
X19878610Y47683413D01*
X19873278Y47652218D01*
X19871163Y47603878D01*
X19870857Y47554353D01*
X19769458Y47554353D01*
X19772810Y47641432D01*
X19784726Y47709914D01*
X19807135Y47761400D01*
X19842124Y47801557D01*
X19869375Y47822139D01*
X19918907Y47844375D01*
X19976316Y47854696D01*
X20029682Y47851933D01*
X20059543Y47840788D01*
X20071261Y47837617D01*
X20079037Y47849443D01*
X20084465Y47881134D01*
X20088571Y47929407D01*
X20093067Y47983171D01*
X20099313Y48015518D01*
X20110676Y48034015D01*
X20130528Y48046230D01*
X20143000Y48051638D01*
X20190171Y48071399D01*
X20190117Y47734642D01*
G36*
X19529926Y47850245D02*
X19595858Y47825916D01*
X19649273Y47782883D01*
X19670164Y47752591D01*
X19692939Y47697006D01*
X19692466Y47656814D01*
X19668562Y47629783D01*
X19659717Y47625187D01*
X19621530Y47610856D01*
X19602028Y47614528D01*
X19595422Y47638593D01*
X19595086Y47651886D01*
X19582992Y47700790D01*
X19551471Y47735001D01*
X19507659Y47751524D01*
X19458695Y47747366D01*
X19418894Y47725773D01*
X19405450Y47713456D01*
X19395921Y47698513D01*
X19389485Y47675925D01*
X19385317Y47640672D01*
X19382597Y47587734D01*
X19380502Y47512093D01*
X19379960Y47488143D01*
X19377981Y47406210D01*
X19375731Y47348545D01*
X19372357Y47310392D01*
X19367006Y47286996D01*
X19358824Y47273602D01*
X19346959Y47265455D01*
X19339362Y47261856D01*
X19307102Y47249548D01*
X19288111Y47245486D01*
X19281836Y47259052D01*
X19278006Y47300066D01*
X19276600Y47369001D01*
X19277598Y47466331D01*
X19277908Y47481343D01*
X19280101Y47570141D01*
X19282693Y47634981D01*
X19286382Y47680933D01*
X19291864Y47713065D01*
X19299835Y47736447D01*
X19310993Y47756148D01*
X19316830Y47764590D01*
X19350296Y47801943D01*
X19387727Y47830997D01*
X19392309Y47833533D01*
X19459426Y47853557D01*
X19529926Y47850245D01*
X19529926Y47850245D01*
G37*
X19529926Y47850245D02*
X19595858Y47825916D01*
X19649273Y47782883D01*
X19670164Y47752591D01*
X19692939Y47697006D01*
X19692466Y47656814D01*
X19668562Y47629783D01*
X19659717Y47625187D01*
X19621530Y47610856D01*
X19602028Y47614528D01*
X19595422Y47638593D01*
X19595086Y47651886D01*
X19582992Y47700790D01*
X19551471Y47735001D01*
X19507659Y47751524D01*
X19458695Y47747366D01*
X19418894Y47725773D01*
X19405450Y47713456D01*
X19395921Y47698513D01*
X19389485Y47675925D01*
X19385317Y47640672D01*
X19382597Y47587734D01*
X19380502Y47512093D01*
X19379960Y47488143D01*
X19377981Y47406210D01*
X19375731Y47348545D01*
X19372357Y47310392D01*
X19367006Y47286996D01*
X19358824Y47273602D01*
X19346959Y47265455D01*
X19339362Y47261856D01*
X19307102Y47249548D01*
X19288111Y47245486D01*
X19281836Y47259052D01*
X19278006Y47300066D01*
X19276600Y47369001D01*
X19277598Y47466331D01*
X19277908Y47481343D01*
X19280101Y47570141D01*
X19282693Y47634981D01*
X19286382Y47680933D01*
X19291864Y47713065D01*
X19299835Y47736447D01*
X19310993Y47756148D01*
X19316830Y47764590D01*
X19350296Y47801943D01*
X19387727Y47830997D01*
X19392309Y47833533D01*
X19459426Y47853557D01*
X19529926Y47850245D01*
G36*
X19039744Y47849032D02*
X19096616Y47827913D01*
X19097267Y47827507D01*
X19132440Y47801620D01*
X19158407Y47771367D01*
X19176670Y47731942D01*
X19188732Y47678538D01*
X19196096Y47606349D01*
X19200264Y47510568D01*
X19200629Y47496922D01*
X19205876Y47291158D01*
X19161716Y47268322D01*
X19129763Y47252890D01*
X19110470Y47245577D01*
X19109578Y47245486D01*
X19106239Y47258978D01*
X19103587Y47295374D01*
X19101956Y47348548D01*
X19101600Y47391607D01*
X19101592Y47461359D01*
X19098403Y47505163D01*
X19087288Y47526056D01*
X19063501Y47527075D01*
X19022296Y47511259D01*
X18960086Y47482185D01*
X18914341Y47458037D01*
X18890813Y47437087D01*
X18883896Y47414253D01*
X18883886Y47413123D01*
X18895299Y47373788D01*
X18929092Y47352538D01*
X18980809Y47349461D01*
X19018061Y47349994D01*
X19037703Y47339265D01*
X19049952Y47313495D01*
X19057002Y47280663D01*
X19046842Y47262034D01*
X19043017Y47259368D01*
X19007001Y47248660D01*
X18956566Y47247144D01*
X18904626Y47254241D01*
X18867822Y47267212D01*
X18816938Y47310415D01*
X18788014Y47370554D01*
X18782286Y47417538D01*
X18786657Y47459918D01*
X18802475Y47494512D01*
X18833797Y47525237D01*
X18884678Y47556010D01*
X18959176Y47590748D01*
X18963714Y47592712D01*
X19030821Y47623713D01*
X19072232Y47649138D01*
X19089981Y47671986D01*
X19086107Y47695255D01*
X19062643Y47721944D01*
X19055627Y47728086D01*
X19008630Y47751900D01*
X18959933Y47750897D01*
X18917522Y47727549D01*
X18889384Y47684325D01*
X18886769Y47675840D01*
X18861308Y47634692D01*
X18829001Y47614872D01*
X18782286Y47595230D01*
X18782286Y47646050D01*
X18796496Y47719918D01*
X18838675Y47787673D01*
X18860624Y47810339D01*
X18910517Y47839431D01*
X18973967Y47852600D01*
X19039744Y47849032D01*
X19039744Y47849032D01*
G37*
X19039744Y47849032D02*
X19096616Y47827913D01*
X19097267Y47827507D01*
X19132440Y47801620D01*
X19158407Y47771367D01*
X19176670Y47731942D01*
X19188732Y47678538D01*
X19196096Y47606349D01*
X19200264Y47510568D01*
X19200629Y47496922D01*
X19205876Y47291158D01*
X19161716Y47268322D01*
X19129763Y47252890D01*
X19110470Y47245577D01*
X19109578Y47245486D01*
X19106239Y47258978D01*
X19103587Y47295374D01*
X19101956Y47348548D01*
X19101600Y47391607D01*
X19101592Y47461359D01*
X19098403Y47505163D01*
X19087288Y47526056D01*
X19063501Y47527075D01*
X19022296Y47511259D01*
X18960086Y47482185D01*
X18914341Y47458037D01*
X18890813Y47437087D01*
X18883896Y47414253D01*
X18883886Y47413123D01*
X18895299Y47373788D01*
X18929092Y47352538D01*
X18980809Y47349461D01*
X19018061Y47349994D01*
X19037703Y47339265D01*
X19049952Y47313495D01*
X19057002Y47280663D01*
X19046842Y47262034D01*
X19043017Y47259368D01*
X19007001Y47248660D01*
X18956566Y47247144D01*
X18904626Y47254241D01*
X18867822Y47267212D01*
X18816938Y47310415D01*
X18788014Y47370554D01*
X18782286Y47417538D01*
X18786657Y47459918D01*
X18802475Y47494512D01*
X18833797Y47525237D01*
X18884678Y47556010D01*
X18959176Y47590748D01*
X18963714Y47592712D01*
X19030821Y47623713D01*
X19072232Y47649138D01*
X19089981Y47671986D01*
X19086107Y47695255D01*
X19062643Y47721944D01*
X19055627Y47728086D01*
X19008630Y47751900D01*
X18959933Y47750897D01*
X18917522Y47727549D01*
X18889384Y47684325D01*
X18886769Y47675840D01*
X18861308Y47634692D01*
X18829001Y47614872D01*
X18782286Y47595230D01*
X18782286Y47646050D01*
X18796496Y47719918D01*
X18838675Y47787673D01*
X18860624Y47810339D01*
X18910517Y47839431D01*
X18973967Y47852600D01*
X19039744Y47849032D01*
G36*
X18375886Y47948711D02*
X18380139Y47889387D01*
X18385025Y47854428D01*
X18391795Y47839180D01*
X18401702Y47838985D01*
X18404914Y47840805D01*
X18447644Y47853985D01*
X18503227Y47853215D01*
X18559737Y47839667D01*
X18595082Y47822139D01*
X18631321Y47794139D01*
X18657813Y47762451D01*
X18675999Y47722187D01*
X18687322Y47668457D01*
X18693222Y47596374D01*
X18695143Y47501049D01*
X18695177Y47482763D01*
X18695200Y47277354D01*
X18649491Y47261420D01*
X18617027Y47250580D01*
X18599215Y47245532D01*
X18598691Y47245486D01*
X18596937Y47259172D01*
X18595444Y47296924D01*
X18594326Y47353776D01*
X18593697Y47424766D01*
X18593600Y47467927D01*
X18593398Y47553027D01*
X18592358Y47614019D01*
X18589831Y47655823D01*
X18585164Y47683358D01*
X18577707Y47701544D01*
X18566811Y47715302D01*
X18560007Y47721927D01*
X18513272Y47748625D01*
X18462272Y47750625D01*
X18416001Y47728045D01*
X18407444Y47719893D01*
X18394893Y47704564D01*
X18386188Y47686382D01*
X18380631Y47660091D01*
X18377526Y47620438D01*
X18376176Y47562168D01*
X18375886Y47481827D01*
X18375886Y47277354D01*
X18330177Y47261420D01*
X18297713Y47250580D01*
X18279901Y47245532D01*
X18279377Y47245486D01*
X18278037Y47259377D01*
X18276828Y47298561D01*
X18275801Y47359300D01*
X18275002Y47437859D01*
X18274481Y47530502D01*
X18274286Y47633491D01*
X18274286Y48030658D01*
X18321457Y48050556D01*
X18368629Y48070453D01*
X18375886Y47948711D01*
X18375886Y47948711D01*
G37*
X18375886Y47948711D02*
X18380139Y47889387D01*
X18385025Y47854428D01*
X18391795Y47839180D01*
X18401702Y47838985D01*
X18404914Y47840805D01*
X18447644Y47853985D01*
X18503227Y47853215D01*
X18559737Y47839667D01*
X18595082Y47822139D01*
X18631321Y47794139D01*
X18657813Y47762451D01*
X18675999Y47722187D01*
X18687322Y47668457D01*
X18693222Y47596374D01*
X18695143Y47501049D01*
X18695177Y47482763D01*
X18695200Y47277354D01*
X18649491Y47261420D01*
X18617027Y47250580D01*
X18599215Y47245532D01*
X18598691Y47245486D01*
X18596937Y47259172D01*
X18595444Y47296924D01*
X18594326Y47353776D01*
X18593697Y47424766D01*
X18593600Y47467927D01*
X18593398Y47553027D01*
X18592358Y47614019D01*
X18589831Y47655823D01*
X18585164Y47683358D01*
X18577707Y47701544D01*
X18566811Y47715302D01*
X18560007Y47721927D01*
X18513272Y47748625D01*
X18462272Y47750625D01*
X18416001Y47728045D01*
X18407444Y47719893D01*
X18394893Y47704564D01*
X18386188Y47686382D01*
X18380631Y47660091D01*
X18377526Y47620438D01*
X18376176Y47562168D01*
X18375886Y47481827D01*
X18375886Y47277354D01*
X18330177Y47261420D01*
X18297713Y47250580D01*
X18279901Y47245532D01*
X18279377Y47245486D01*
X18278037Y47259377D01*
X18276828Y47298561D01*
X18275801Y47359300D01*
X18275002Y47437859D01*
X18274481Y47530502D01*
X18274286Y47633491D01*
X18274286Y48030658D01*
X18321457Y48050556D01*
X18368629Y48070453D01*
X18375886Y47948711D01*
G36*
X17168303Y47868761D02*
X17225527Y47830265D01*
X17269749Y47774665D01*
X17296167Y47703914D01*
X17301510Y47651838D01*
X17300903Y47630107D01*
X17295822Y47613469D01*
X17281855Y47598563D01*
X17254589Y47582027D01*
X17209612Y47560502D01*
X17142511Y47530626D01*
X17142171Y47530476D01*
X17080407Y47502187D01*
X17029759Y47477067D01*
X16995404Y47457821D01*
X16982518Y47447152D01*
X16982514Y47447066D01*
X16993872Y47423834D01*
X17020431Y47398226D01*
X17050923Y47379779D01*
X17066370Y47376114D01*
X17108515Y47388788D01*
X17144808Y47420529D01*
X17162517Y47455428D01*
X17179552Y47481155D01*
X17212922Y47510454D01*
X17252149Y47535765D01*
X17286756Y47549529D01*
X17293993Y47550286D01*
X17302139Y47537840D01*
X17302630Y47506028D01*
X17296643Y47463134D01*
X17285357Y47417442D01*
X17269950Y47377239D01*
X17269171Y47375678D01*
X17222804Y47310938D01*
X17162711Y47266903D01*
X17094465Y47245289D01*
X17023638Y47247815D01*
X16955804Y47276196D01*
X16952788Y47278192D01*
X16899427Y47326552D01*
X16864340Y47389648D01*
X16844922Y47472613D01*
X16842316Y47495922D01*
X16837701Y47605945D01*
X16843233Y47657252D01*
X16982514Y47657252D01*
X16984324Y47625247D01*
X16994222Y47615907D01*
X17018898Y47622895D01*
X17057795Y47639413D01*
X17101275Y47660119D01*
X17102356Y47660667D01*
X17139209Y47680051D01*
X17154000Y47692987D01*
X17150353Y47706549D01*
X17134995Y47724368D01*
X17095923Y47750155D01*
X17053846Y47752050D01*
X17016103Y47733283D01*
X16990034Y47697085D01*
X16982514Y47657252D01*
X16843233Y47657252D01*
X16847194Y47693973D01*
X16871550Y47763788D01*
X16905456Y47812698D01*
X16966653Y47862122D01*
X17034063Y47886641D01*
X17102880Y47888203D01*
X17168303Y47868761D01*
X17168303Y47868761D01*
G37*
X17168303Y47868761D02*
X17225527Y47830265D01*
X17269749Y47774665D01*
X17296167Y47703914D01*
X17301510Y47651838D01*
X17300903Y47630107D01*
X17295822Y47613469D01*
X17281855Y47598563D01*
X17254589Y47582027D01*
X17209612Y47560502D01*
X17142511Y47530626D01*
X17142171Y47530476D01*
X17080407Y47502187D01*
X17029759Y47477067D01*
X16995404Y47457821D01*
X16982518Y47447152D01*
X16982514Y47447066D01*
X16993872Y47423834D01*
X17020431Y47398226D01*
X17050923Y47379779D01*
X17066370Y47376114D01*
X17108515Y47388788D01*
X17144808Y47420529D01*
X17162517Y47455428D01*
X17179552Y47481155D01*
X17212922Y47510454D01*
X17252149Y47535765D01*
X17286756Y47549529D01*
X17293993Y47550286D01*
X17302139Y47537840D01*
X17302630Y47506028D01*
X17296643Y47463134D01*
X17285357Y47417442D01*
X17269950Y47377239D01*
X17269171Y47375678D01*
X17222804Y47310938D01*
X17162711Y47266903D01*
X17094465Y47245289D01*
X17023638Y47247815D01*
X16955804Y47276196D01*
X16952788Y47278192D01*
X16899427Y47326552D01*
X16864340Y47389648D01*
X16844922Y47472613D01*
X16842316Y47495922D01*
X16837701Y47605945D01*
X16843233Y47657252D01*
X16982514Y47657252D01*
X16984324Y47625247D01*
X16994222Y47615907D01*
X17018898Y47622895D01*
X17057795Y47639413D01*
X17101275Y47660119D01*
X17102356Y47660667D01*
X17139209Y47680051D01*
X17154000Y47692987D01*
X17150353Y47706549D01*
X17134995Y47724368D01*
X17095923Y47750155D01*
X17053846Y47752050D01*
X17016103Y47733283D01*
X16990034Y47697085D01*
X16982514Y47657252D01*
X16843233Y47657252D01*
X16847194Y47693973D01*
X16871550Y47763788D01*
X16905456Y47812698D01*
X16966653Y47862122D01*
X17034063Y47886641D01*
X17102880Y47888203D01*
X17168303Y47868761D01*
G36*
X16041115Y47878038D02*
X16109145Y47842267D01*
X16159351Y47784699D01*
X16177185Y47747688D01*
X16191063Y47692118D01*
X16198167Y47621904D01*
X16198840Y47545273D01*
X16193427Y47470448D01*
X16182270Y47405658D01*
X16165714Y47359127D01*
X16160626Y47351113D01*
X16100355Y47291293D01*
X16028769Y47255465D01*
X15951092Y47244980D01*
X15872548Y47261190D01*
X15850689Y47270908D01*
X15808122Y47300857D01*
X15770763Y47340567D01*
X15767232Y47345603D01*
X15752881Y47369876D01*
X15743394Y47395822D01*
X15737790Y47429978D01*
X15735086Y47478881D01*
X15734299Y47549065D01*
X15734286Y47564800D01*
X15734322Y47569808D01*
X15879429Y47569808D01*
X15880273Y47503570D01*
X15883596Y47459614D01*
X15890583Y47431221D01*
X15902416Y47411675D01*
X15908457Y47405143D01*
X15943186Y47380320D01*
X15976903Y47381452D01*
X16010995Y47402984D01*
X16031329Y47425971D01*
X16043371Y47459522D01*
X16050134Y47512431D01*
X16050598Y47518601D01*
X16051752Y47614487D01*
X16039688Y47685701D01*
X16014570Y47731806D01*
X15976560Y47752365D01*
X15962992Y47753486D01*
X15927364Y47747848D01*
X15902994Y47728314D01*
X15888093Y47690958D01*
X15880875Y47631850D01*
X15879429Y47569808D01*
X15734322Y47569808D01*
X15734826Y47639587D01*
X15737096Y47691841D01*
X15742068Y47728051D01*
X15750713Y47754701D01*
X15764005Y47778278D01*
X15766943Y47782662D01*
X15816313Y47841751D01*
X15870109Y47876053D01*
X15935602Y47889669D01*
X15957842Y47890335D01*
X16041115Y47878038D01*
X16041115Y47878038D01*
G37*
X16041115Y47878038D02*
X16109145Y47842267D01*
X16159351Y47784699D01*
X16177185Y47747688D01*
X16191063Y47692118D01*
X16198167Y47621904D01*
X16198840Y47545273D01*
X16193427Y47470448D01*
X16182270Y47405658D01*
X16165714Y47359127D01*
X16160626Y47351113D01*
X16100355Y47291293D01*
X16028769Y47255465D01*
X15951092Y47244980D01*
X15872548Y47261190D01*
X15850689Y47270908D01*
X15808122Y47300857D01*
X15770763Y47340567D01*
X15767232Y47345603D01*
X15752881Y47369876D01*
X15743394Y47395822D01*
X15737790Y47429978D01*
X15735086Y47478881D01*
X15734299Y47549065D01*
X15734286Y47564800D01*
X15734322Y47569808D01*
X15879429Y47569808D01*
X15880273Y47503570D01*
X15883596Y47459614D01*
X15890583Y47431221D01*
X15902416Y47411675D01*
X15908457Y47405143D01*
X15943186Y47380320D01*
X15976903Y47381452D01*
X16010995Y47402984D01*
X16031329Y47425971D01*
X16043371Y47459522D01*
X16050134Y47512431D01*
X16050598Y47518601D01*
X16051752Y47614487D01*
X16039688Y47685701D01*
X16014570Y47731806D01*
X15976560Y47752365D01*
X15962992Y47753486D01*
X15927364Y47747848D01*
X15902994Y47728314D01*
X15888093Y47690958D01*
X15880875Y47631850D01*
X15879429Y47569808D01*
X15734322Y47569808D01*
X15734826Y47639587D01*
X15737096Y47691841D01*
X15742068Y47728051D01*
X15750713Y47754701D01*
X15764005Y47778278D01*
X15766943Y47782662D01*
X15816313Y47841751D01*
X15870109Y47876053D01*
X15935602Y47889669D01*
X15957842Y47890335D01*
X16041115Y47878038D01*
G36*
X17716093Y47872220D02*
X17762672Y47845277D01*
X17795057Y47818534D01*
X17818742Y47790516D01*
X17835059Y47756252D01*
X17845339Y47710773D01*
X17850914Y47649108D01*
X17853116Y47566289D01*
X17853371Y47506754D01*
X17853371Y47287609D01*
X17791686Y47259956D01*
X17730000Y47232303D01*
X17722743Y47472330D01*
X17719744Y47561972D01*
X17716598Y47627038D01*
X17712701Y47671974D01*
X17707447Y47701230D01*
X17700231Y47719252D01*
X17690450Y47730489D01*
X17687312Y47732921D01*
X17639761Y47751917D01*
X17591697Y47744400D01*
X17563086Y47724457D01*
X17551447Y47710325D01*
X17543391Y47691780D01*
X17538271Y47663666D01*
X17535441Y47620827D01*
X17534256Y47558105D01*
X17534057Y47492739D01*
X17534018Y47410732D01*
X17532614Y47352684D01*
X17527914Y47313535D01*
X17517987Y47288220D01*
X17500903Y47271677D01*
X17474732Y47258844D01*
X17439775Y47245509D01*
X17401596Y47230993D01*
X17406141Y47488611D01*
X17407971Y47581481D01*
X17410112Y47650111D01*
X17413181Y47699289D01*
X17417794Y47733802D01*
X17424568Y47758438D01*
X17434119Y47777984D01*
X17445634Y47795230D01*
X17501190Y47850320D01*
X17568980Y47882178D01*
X17642713Y47889809D01*
X17716093Y47872220D01*
X17716093Y47872220D01*
G37*
X17716093Y47872220D02*
X17762672Y47845277D01*
X17795057Y47818534D01*
X17818742Y47790516D01*
X17835059Y47756252D01*
X17845339Y47710773D01*
X17850914Y47649108D01*
X17853116Y47566289D01*
X17853371Y47506754D01*
X17853371Y47287609D01*
X17791686Y47259956D01*
X17730000Y47232303D01*
X17722743Y47472330D01*
X17719744Y47561972D01*
X17716598Y47627038D01*
X17712701Y47671974D01*
X17707447Y47701230D01*
X17700231Y47719252D01*
X17690450Y47730489D01*
X17687312Y47732921D01*
X17639761Y47751917D01*
X17591697Y47744400D01*
X17563086Y47724457D01*
X17551447Y47710325D01*
X17543391Y47691780D01*
X17538271Y47663666D01*
X17535441Y47620827D01*
X17534256Y47558105D01*
X17534057Y47492739D01*
X17534018Y47410732D01*
X17532614Y47352684D01*
X17527914Y47313535D01*
X17517987Y47288220D01*
X17500903Y47271677D01*
X17474732Y47258844D01*
X17439775Y47245509D01*
X17401596Y47230993D01*
X17406141Y47488611D01*
X17407971Y47581481D01*
X17410112Y47650111D01*
X17413181Y47699289D01*
X17417794Y47733802D01*
X17424568Y47758438D01*
X17434119Y47777984D01*
X17445634Y47795230D01*
X17501190Y47850320D01*
X17568980Y47882178D01*
X17642713Y47889809D01*
X17716093Y47872220D01*
G36*
X16599744Y47880082D02*
X16655201Y47852432D01*
X16704148Y47801520D01*
X16717629Y47782662D01*
X16732314Y47757985D01*
X16741842Y47731184D01*
X16747293Y47695413D01*
X16749747Y47643831D01*
X16750286Y47575733D01*
X16747852Y47482412D01*
X16739394Y47412343D01*
X16723174Y47360069D01*
X16697454Y47320131D01*
X16660497Y47287071D01*
X16657782Y47285114D01*
X16621360Y47265092D01*
X16577502Y47255185D01*
X16521724Y47252743D01*
X16431048Y47252743D01*
X16431010Y47164717D01*
X16430166Y47115692D01*
X16425024Y47086935D01*
X16411587Y47069689D01*
X16385858Y47055192D01*
X16379679Y47052231D01*
X16350764Y47038352D01*
X16328376Y47029586D01*
X16311729Y47028829D01*
X16300036Y47038977D01*
X16292510Y47062927D01*
X16288366Y47103574D01*
X16286815Y47163814D01*
X16287071Y47246545D01*
X16288349Y47354661D01*
X16288748Y47387000D01*
X16290185Y47498476D01*
X16291472Y47571397D01*
X16430971Y47571397D01*
X16431755Y47509501D01*
X16435240Y47469003D01*
X16443124Y47442292D01*
X16457105Y47421756D01*
X16466597Y47411740D01*
X16505404Y47382433D01*
X16539763Y47380048D01*
X16575216Y47404250D01*
X16576114Y47405143D01*
X16590539Y47423847D01*
X16599313Y47449268D01*
X16603739Y47488416D01*
X16605118Y47548303D01*
X16605143Y47561570D01*
X16601812Y47644099D01*
X16590969Y47701309D01*
X16571340Y47736234D01*
X16541650Y47751906D01*
X16524491Y47753486D01*
X16483766Y47746074D01*
X16455832Y47721670D01*
X16439017Y47677020D01*
X16431650Y47608870D01*
X16430971Y47571397D01*
X16291472Y47571397D01*
X16291708Y47584755D01*
X16293677Y47649667D01*
X16296450Y47697042D01*
X16300388Y47730710D01*
X16305849Y47754502D01*
X16313192Y47772247D01*
X16322777Y47787776D01*
X16326887Y47793619D01*
X16381405Y47848815D01*
X16450336Y47880110D01*
X16530072Y47888835D01*
X16599744Y47880082D01*
X16599744Y47880082D01*
G37*
X16599744Y47880082D02*
X16655201Y47852432D01*
X16704148Y47801520D01*
X16717629Y47782662D01*
X16732314Y47757985D01*
X16741842Y47731184D01*
X16747293Y47695413D01*
X16749747Y47643831D01*
X16750286Y47575733D01*
X16747852Y47482412D01*
X16739394Y47412343D01*
X16723174Y47360069D01*
X16697454Y47320131D01*
X16660497Y47287071D01*
X16657782Y47285114D01*
X16621360Y47265092D01*
X16577502Y47255185D01*
X16521724Y47252743D01*
X16431048Y47252743D01*
X16431010Y47164717D01*
X16430166Y47115692D01*
X16425024Y47086935D01*
X16411587Y47069689D01*
X16385858Y47055192D01*
X16379679Y47052231D01*
X16350764Y47038352D01*
X16328376Y47029586D01*
X16311729Y47028829D01*
X16300036Y47038977D01*
X16292510Y47062927D01*
X16288366Y47103574D01*
X16286815Y47163814D01*
X16287071Y47246545D01*
X16288349Y47354661D01*
X16288748Y47387000D01*
X16290185Y47498476D01*
X16291472Y47571397D01*
X16430971Y47571397D01*
X16431755Y47509501D01*
X16435240Y47469003D01*
X16443124Y47442292D01*
X16457105Y47421756D01*
X16466597Y47411740D01*
X16505404Y47382433D01*
X16539763Y47380048D01*
X16575216Y47404250D01*
X16576114Y47405143D01*
X16590539Y47423847D01*
X16599313Y47449268D01*
X16603739Y47488416D01*
X16605118Y47548303D01*
X16605143Y47561570D01*
X16601812Y47644099D01*
X16590969Y47701309D01*
X16571340Y47736234D01*
X16541650Y47751906D01*
X16524491Y47753486D01*
X16483766Y47746074D01*
X16455832Y47721670D01*
X16439017Y47677020D01*
X16431650Y47608870D01*
X16430971Y47571397D01*
X16291472Y47571397D01*
X16291708Y47584755D01*
X16293677Y47649667D01*
X16296450Y47697042D01*
X16300388Y47730710D01*
X16305849Y47754502D01*
X16313192Y47772247D01*
X16322777Y47787776D01*
X16326887Y47793619D01*
X16381405Y47848815D01*
X16450336Y47880110D01*
X16530072Y47888835D01*
X16599744Y47880082D01*
D12*
G04 #@! TO.C,D1*
X29400000Y4500000D02*
X29400000Y6500000D01*
X29400000Y6500000D02*
X25550000Y6500000D01*
X29400000Y4500000D02*
X25550000Y4500000D01*
G04 #@! TO.C,R21*
X32510000Y7662779D02*
X32510000Y7337221D01*
X31490000Y7662779D02*
X31490000Y7337221D01*
G04 #@! TO.C,U8*
D14*
X22304509Y32401147D02*
X21656890Y32401147D01*
X21580699Y32363052D01*
X21542604Y32324957D01*
X21504509Y32248766D01*
X21504509Y32096385D01*
X21542604Y32020195D01*
X21580699Y31982100D01*
X21656890Y31944004D01*
X22304509Y31944004D01*
X21961652Y31448766D02*
X21999747Y31524957D01*
X22037842Y31563052D01*
X22114033Y31601147D01*
X22152128Y31601147D01*
X22228318Y31563052D01*
X22266414Y31524957D01*
X22304509Y31448766D01*
X22304509Y31296385D01*
X22266414Y31220195D01*
X22228318Y31182100D01*
X22152128Y31144004D01*
X22114033Y31144004D01*
X22037842Y31182100D01*
X21999747Y31220195D01*
X21961652Y31296385D01*
X21961652Y31448766D01*
X21923556Y31524957D01*
X21885461Y31563052D01*
X21809271Y31601147D01*
X21656890Y31601147D01*
X21580699Y31563052D01*
X21542604Y31524957D01*
X21504509Y31448766D01*
X21504509Y31296385D01*
X21542604Y31220195D01*
X21580699Y31182100D01*
X21656890Y31144004D01*
X21809271Y31144004D01*
X21885461Y31182100D01*
X21923556Y31220195D01*
X21961652Y31296385D01*
G04 #@! TO.C,R3*
X10261904Y11666666D02*
X9880952Y11400000D01*
X10261904Y11209523D02*
X9461904Y11209523D01*
X9461904Y11514285D01*
X9500000Y11590476D01*
X9538095Y11628571D01*
X9614285Y11666666D01*
X9728571Y11666666D01*
X9804761Y11628571D01*
X9842857Y11590476D01*
X9880952Y11514285D01*
X9880952Y11209523D01*
X9461904Y11933333D02*
X9461904Y12428571D01*
X9766666Y12161904D01*
X9766666Y12276190D01*
X9804761Y12352380D01*
X9842857Y12390476D01*
X9919047Y12428571D01*
X10109523Y12428571D01*
X10185714Y12390476D01*
X10223809Y12352380D01*
X10261904Y12276190D01*
X10261904Y12047619D01*
X10223809Y11971428D01*
X10185714Y11933333D01*
G04 #@! TO.C,C15*
X28185714Y28285714D02*
X28223809Y28247619D01*
X28261904Y28133333D01*
X28261904Y28057142D01*
X28223809Y27942857D01*
X28147619Y27866666D01*
X28071428Y27828571D01*
X27919047Y27790476D01*
X27804761Y27790476D01*
X27652380Y27828571D01*
X27576190Y27866666D01*
X27500000Y27942857D01*
X27461904Y28057142D01*
X27461904Y28133333D01*
X27500000Y28247619D01*
X27538095Y28285714D01*
X28261904Y29047619D02*
X28261904Y28590476D01*
X28261904Y28819047D02*
X27461904Y28819047D01*
X27576190Y28742857D01*
X27652380Y28666666D01*
X27690476Y28590476D01*
X27461904Y29771428D02*
X27461904Y29390476D01*
X27842857Y29352380D01*
X27804761Y29390476D01*
X27766666Y29466666D01*
X27766666Y29657142D01*
X27804761Y29733333D01*
X27842857Y29771428D01*
X27919047Y29809523D01*
X28109523Y29809523D01*
X28185714Y29771428D01*
X28223809Y29733333D01*
X28261904Y29657142D01*
X28261904Y29466666D01*
X28223809Y29390476D01*
X28185714Y29352380D01*
G04 #@! TO.C,C16*
X31885714Y36014285D02*
X31847619Y35976190D01*
X31733333Y35938095D01*
X31657142Y35938095D01*
X31542857Y35976190D01*
X31466666Y36052380D01*
X31428571Y36128571D01*
X31390476Y36280952D01*
X31390476Y36395238D01*
X31428571Y36547619D01*
X31466666Y36623809D01*
X31542857Y36700000D01*
X31657142Y36738095D01*
X31733333Y36738095D01*
X31847619Y36700000D01*
X31885714Y36661904D01*
X32647619Y35938095D02*
X32190476Y35938095D01*
X32419047Y35938095D02*
X32419047Y36738095D01*
X32342857Y36623809D01*
X32266666Y36547619D01*
X32190476Y36509523D01*
X33333333Y36738095D02*
X33180952Y36738095D01*
X33104761Y36700000D01*
X33066666Y36661904D01*
X32990476Y36547619D01*
X32952380Y36395238D01*
X32952380Y36090476D01*
X32990476Y36014285D01*
X33028571Y35976190D01*
X33104761Y35938095D01*
X33257142Y35938095D01*
X33333333Y35976190D01*
X33371428Y36014285D01*
X33409523Y36090476D01*
X33409523Y36280952D01*
X33371428Y36357142D01*
X33333333Y36395238D01*
X33257142Y36433333D01*
X33104761Y36433333D01*
X33028571Y36395238D01*
X32990476Y36357142D01*
X32952380Y36280952D01*
G04 #@! TO.C,C17*
X31585714Y41814285D02*
X31547619Y41776190D01*
X31433333Y41738095D01*
X31357142Y41738095D01*
X31242857Y41776190D01*
X31166666Y41852380D01*
X31128571Y41928571D01*
X31090476Y42080952D01*
X31090476Y42195238D01*
X31128571Y42347619D01*
X31166666Y42423809D01*
X31242857Y42500000D01*
X31357142Y42538095D01*
X31433333Y42538095D01*
X31547619Y42500000D01*
X31585714Y42461904D01*
X32347619Y41738095D02*
X31890476Y41738095D01*
X32119047Y41738095D02*
X32119047Y42538095D01*
X32042857Y42423809D01*
X31966666Y42347619D01*
X31890476Y42309523D01*
X32614285Y42538095D02*
X33147619Y42538095D01*
X32804761Y41738095D01*
G04 #@! TO.C,C18*
X7885714Y26314285D02*
X7847619Y26276190D01*
X7733333Y26238095D01*
X7657142Y26238095D01*
X7542857Y26276190D01*
X7466666Y26352380D01*
X7428571Y26428571D01*
X7390476Y26580952D01*
X7390476Y26695238D01*
X7428571Y26847619D01*
X7466666Y26923809D01*
X7542857Y27000000D01*
X7657142Y27038095D01*
X7733333Y27038095D01*
X7847619Y27000000D01*
X7885714Y26961904D01*
X8647619Y26238095D02*
X8190476Y26238095D01*
X8419047Y26238095D02*
X8419047Y27038095D01*
X8342857Y26923809D01*
X8266666Y26847619D01*
X8190476Y26809523D01*
X9104761Y26695238D02*
X9028571Y26733333D01*
X8990476Y26771428D01*
X8952380Y26847619D01*
X8952380Y26885714D01*
X8990476Y26961904D01*
X9028571Y27000000D01*
X9104761Y27038095D01*
X9257142Y27038095D01*
X9333333Y27000000D01*
X9371428Y26961904D01*
X9409523Y26885714D01*
X9409523Y26847619D01*
X9371428Y26771428D01*
X9333333Y26733333D01*
X9257142Y26695238D01*
X9104761Y26695238D01*
X9028571Y26657142D01*
X8990476Y26619047D01*
X8952380Y26542857D01*
X8952380Y26390476D01*
X8990476Y26314285D01*
X9028571Y26276190D01*
X9104761Y26238095D01*
X9257142Y26238095D01*
X9333333Y26276190D01*
X9371428Y26314285D01*
X9409523Y26390476D01*
X9409523Y26542857D01*
X9371428Y26619047D01*
X9333333Y26657142D01*
X9257142Y26695238D01*
G04 #@! TO.C,C19*
X18535714Y31898214D02*
X18573809Y31860119D01*
X18611904Y31745833D01*
X18611904Y31669642D01*
X18573809Y31555357D01*
X18497619Y31479166D01*
X18421428Y31441071D01*
X18269047Y31402976D01*
X18154761Y31402976D01*
X18002380Y31441071D01*
X17926190Y31479166D01*
X17850000Y31555357D01*
X17811904Y31669642D01*
X17811904Y31745833D01*
X17850000Y31860119D01*
X17888095Y31898214D01*
X18611904Y32660119D02*
X18611904Y32202976D01*
X18611904Y32431547D02*
X17811904Y32431547D01*
X17926190Y32355357D01*
X18002380Y32279166D01*
X18040476Y32202976D01*
X18611904Y33041071D02*
X18611904Y33193452D01*
X18573809Y33269642D01*
X18535714Y33307738D01*
X18421428Y33383928D01*
X18269047Y33422023D01*
X17964285Y33422023D01*
X17888095Y33383928D01*
X17850000Y33345833D01*
X17811904Y33269642D01*
X17811904Y33117261D01*
X17850000Y33041071D01*
X17888095Y33002976D01*
X17964285Y32964880D01*
X18154761Y32964880D01*
X18230952Y33002976D01*
X18269047Y33041071D01*
X18307142Y33117261D01*
X18307142Y33269642D01*
X18269047Y33345833D01*
X18230952Y33383928D01*
X18154761Y33422023D01*
G04 #@! TO.C,C20*
X20235714Y41894285D02*
X20197619Y41856190D01*
X20083333Y41818095D01*
X20007142Y41818095D01*
X19892857Y41856190D01*
X19816666Y41932380D01*
X19778571Y42008571D01*
X19740476Y42160952D01*
X19740476Y42275238D01*
X19778571Y42427619D01*
X19816666Y42503809D01*
X19892857Y42580000D01*
X20007142Y42618095D01*
X20083333Y42618095D01*
X20197619Y42580000D01*
X20235714Y42541904D01*
X20540476Y42541904D02*
X20578571Y42580000D01*
X20654761Y42618095D01*
X20845238Y42618095D01*
X20921428Y42580000D01*
X20959523Y42541904D01*
X20997619Y42465714D01*
X20997619Y42389523D01*
X20959523Y42275238D01*
X20502380Y41818095D01*
X20997619Y41818095D01*
X21492857Y42618095D02*
X21569047Y42618095D01*
X21645238Y42580000D01*
X21683333Y42541904D01*
X21721428Y42465714D01*
X21759523Y42313333D01*
X21759523Y42122857D01*
X21721428Y41970476D01*
X21683333Y41894285D01*
X21645238Y41856190D01*
X21569047Y41818095D01*
X21492857Y41818095D01*
X21416666Y41856190D01*
X21378571Y41894285D01*
X21340476Y41970476D01*
X21302380Y42122857D01*
X21302380Y42313333D01*
X21340476Y42465714D01*
X21378571Y42541904D01*
X21416666Y42580000D01*
X21492857Y42618095D01*
G04 #@! TO.C,C21*
X29785714Y30914285D02*
X29747619Y30876190D01*
X29633333Y30838095D01*
X29557142Y30838095D01*
X29442857Y30876190D01*
X29366666Y30952380D01*
X29328571Y31028571D01*
X29290476Y31180952D01*
X29290476Y31295238D01*
X29328571Y31447619D01*
X29366666Y31523809D01*
X29442857Y31600000D01*
X29557142Y31638095D01*
X29633333Y31638095D01*
X29747619Y31600000D01*
X29785714Y31561904D01*
X30090476Y31561904D02*
X30128571Y31600000D01*
X30204761Y31638095D01*
X30395238Y31638095D01*
X30471428Y31600000D01*
X30509523Y31561904D01*
X30547619Y31485714D01*
X30547619Y31409523D01*
X30509523Y31295238D01*
X30052380Y30838095D01*
X30547619Y30838095D01*
X31309523Y30838095D02*
X30852380Y30838095D01*
X31080952Y30838095D02*
X31080952Y31638095D01*
X31004761Y31523809D01*
X30928571Y31447619D01*
X30852380Y31409523D01*
G04 #@! TO.C,C22*
X28785714Y44185714D02*
X28823809Y44147619D01*
X28861904Y44033333D01*
X28861904Y43957142D01*
X28823809Y43842857D01*
X28747619Y43766666D01*
X28671428Y43728571D01*
X28519047Y43690476D01*
X28404761Y43690476D01*
X28252380Y43728571D01*
X28176190Y43766666D01*
X28100000Y43842857D01*
X28061904Y43957142D01*
X28061904Y44033333D01*
X28100000Y44147619D01*
X28138095Y44185714D01*
X28138095Y44490476D02*
X28100000Y44528571D01*
X28061904Y44604761D01*
X28061904Y44795238D01*
X28100000Y44871428D01*
X28138095Y44909523D01*
X28214285Y44947619D01*
X28290476Y44947619D01*
X28404761Y44909523D01*
X28861904Y44452380D01*
X28861904Y44947619D01*
X28138095Y45252380D02*
X28100000Y45290476D01*
X28061904Y45366666D01*
X28061904Y45557142D01*
X28100000Y45633333D01*
X28138095Y45671428D01*
X28214285Y45709523D01*
X28290476Y45709523D01*
X28404761Y45671428D01*
X28861904Y45214285D01*
X28861904Y45709523D01*
G04 #@! TO.C,C23*
X29885714Y44185714D02*
X29923809Y44147619D01*
X29961904Y44033333D01*
X29961904Y43957142D01*
X29923809Y43842857D01*
X29847619Y43766666D01*
X29771428Y43728571D01*
X29619047Y43690476D01*
X29504761Y43690476D01*
X29352380Y43728571D01*
X29276190Y43766666D01*
X29200000Y43842857D01*
X29161904Y43957142D01*
X29161904Y44033333D01*
X29200000Y44147619D01*
X29238095Y44185714D01*
X29238095Y44490476D02*
X29200000Y44528571D01*
X29161904Y44604761D01*
X29161904Y44795238D01*
X29200000Y44871428D01*
X29238095Y44909523D01*
X29314285Y44947619D01*
X29390476Y44947619D01*
X29504761Y44909523D01*
X29961904Y44452380D01*
X29961904Y44947619D01*
X29161904Y45214285D02*
X29161904Y45709523D01*
X29466666Y45442857D01*
X29466666Y45557142D01*
X29504761Y45633333D01*
X29542857Y45671428D01*
X29619047Y45709523D01*
X29809523Y45709523D01*
X29885714Y45671428D01*
X29923809Y45633333D01*
X29961904Y45557142D01*
X29961904Y45328571D01*
X29923809Y45252380D01*
X29885714Y45214285D01*
G04 #@! TO.C,C14*
X27214285Y10814285D02*
X27176190Y10852380D01*
X27138095Y10966666D01*
X27138095Y11042857D01*
X27176190Y11157142D01*
X27252380Y11233333D01*
X27328571Y11271428D01*
X27480952Y11309523D01*
X27595238Y11309523D01*
X27747619Y11271428D01*
X27823809Y11233333D01*
X27900000Y11157142D01*
X27938095Y11042857D01*
X27938095Y10966666D01*
X27900000Y10852380D01*
X27861904Y10814285D01*
X27138095Y10052380D02*
X27138095Y10509523D01*
X27138095Y10280952D02*
X27938095Y10280952D01*
X27823809Y10357142D01*
X27747619Y10433333D01*
X27709523Y10509523D01*
X27671428Y9366666D02*
X27138095Y9366666D01*
X27976190Y9557142D02*
X27404761Y9747619D01*
X27404761Y9252380D01*
G04 #@! TO.C,FID1*
X1692857Y3642857D02*
X1692857Y3376190D01*
X2111904Y3376190D02*
X1311904Y3376190D01*
X1311904Y3757142D01*
X2111904Y4061904D02*
X1311904Y4061904D01*
X2111904Y4442857D02*
X1311904Y4442857D01*
X1311904Y4633333D01*
X1350000Y4747619D01*
X1426190Y4823809D01*
X1502380Y4861904D01*
X1654761Y4900000D01*
X1769047Y4900000D01*
X1921428Y4861904D01*
X1997619Y4823809D01*
X2073809Y4747619D01*
X2111904Y4633333D01*
X2111904Y4442857D01*
X2111904Y5661904D02*
X2111904Y5204761D01*
X2111904Y5433333D02*
X1311904Y5433333D01*
X1426190Y5357142D01*
X1502380Y5280952D01*
X1540476Y5204761D01*
G04 #@! TO.C,FID2*
X3142857Y59057142D02*
X2876190Y59057142D01*
X2876190Y58638095D02*
X2876190Y59438095D01*
X3257142Y59438095D01*
X3561904Y58638095D02*
X3561904Y59438095D01*
X3942857Y58638095D02*
X3942857Y59438095D01*
X4133333Y59438095D01*
X4247619Y59400000D01*
X4323809Y59323809D01*
X4361904Y59247619D01*
X4400000Y59095238D01*
X4400000Y58980952D01*
X4361904Y58828571D01*
X4323809Y58752380D01*
X4247619Y58676190D01*
X4133333Y58638095D01*
X3942857Y58638095D01*
X4704761Y59361904D02*
X4742857Y59400000D01*
X4819047Y59438095D01*
X5009523Y59438095D01*
X5085714Y59400000D01*
X5123809Y59361904D01*
X5161904Y59285714D01*
X5161904Y59209523D01*
X5123809Y59095238D01*
X4666666Y58638095D01*
X5161904Y58638095D01*
G04 #@! TO.C,H1*
X17890476Y55538095D02*
X17890476Y56338095D01*
X17890476Y55957142D02*
X18347619Y55957142D01*
X18347619Y55538095D02*
X18347619Y56338095D01*
X19147619Y55538095D02*
X18690476Y55538095D01*
X18919047Y55538095D02*
X18919047Y56338095D01*
X18842857Y56223809D01*
X18766666Y56147619D01*
X18690476Y56109523D01*
G04 #@! TO.C,D6*
X28609523Y15038095D02*
X28609523Y15838095D01*
X28800000Y15838095D01*
X28914285Y15800000D01*
X28990476Y15723809D01*
X29028571Y15647619D01*
X29066666Y15495238D01*
X29066666Y15380952D01*
X29028571Y15228571D01*
X28990476Y15152380D01*
X28914285Y15076190D01*
X28800000Y15038095D01*
X28609523Y15038095D01*
X29752380Y15838095D02*
X29600000Y15838095D01*
X29523809Y15800000D01*
X29485714Y15761904D01*
X29409523Y15647619D01*
X29371428Y15495238D01*
X29371428Y15190476D01*
X29409523Y15114285D01*
X29447619Y15076190D01*
X29523809Y15038095D01*
X29676190Y15038095D01*
X29752380Y15076190D01*
X29790476Y15114285D01*
X29828571Y15190476D01*
X29828571Y15380952D01*
X29790476Y15457142D01*
X29752380Y15495238D01*
X29676190Y15533333D01*
X29523809Y15533333D01*
X29447619Y15495238D01*
X29409523Y15457142D01*
X29371428Y15380952D01*
G04 #@! TO.C,FID3*
X35542857Y9842857D02*
X35542857Y9576190D01*
X35961904Y9576190D02*
X35161904Y9576190D01*
X35161904Y9957142D01*
X35961904Y10261904D02*
X35161904Y10261904D01*
X35961904Y10642857D02*
X35161904Y10642857D01*
X35161904Y10833333D01*
X35200000Y10947619D01*
X35276190Y11023809D01*
X35352380Y11061904D01*
X35504761Y11100000D01*
X35619047Y11100000D01*
X35771428Y11061904D01*
X35847619Y11023809D01*
X35923809Y10947619D01*
X35961904Y10833333D01*
X35961904Y10642857D01*
X35161904Y11366666D02*
X35161904Y11861904D01*
X35466666Y11595238D01*
X35466666Y11709523D01*
X35504761Y11785714D01*
X35542857Y11823809D01*
X35619047Y11861904D01*
X35809523Y11861904D01*
X35885714Y11823809D01*
X35923809Y11785714D01*
X35961904Y11709523D01*
X35961904Y11480952D01*
X35923809Y11404761D01*
X35885714Y11366666D01*
G04 #@! TO.C,P1*
X5094666Y19550000D02*
X5794666Y19783333D01*
X5094666Y20016666D01*
X5794666Y20783333D02*
X5094666Y20783333D01*
X5094666Y20950000D01*
X5128000Y21050000D01*
X5194666Y21116666D01*
X5261333Y21150000D01*
X5394666Y21183333D01*
X5494666Y21183333D01*
X5628000Y21150000D01*
X5694666Y21116666D01*
X5761333Y21050000D01*
X5794666Y20950000D01*
X5794666Y20783333D01*
X5761333Y21983333D02*
X5794666Y22083333D01*
X5794666Y22250000D01*
X5761333Y22316666D01*
X5728000Y22350000D01*
X5661333Y22383333D01*
X5594666Y22383333D01*
X5528000Y22350000D01*
X5494666Y22316666D01*
X5461333Y22250000D01*
X5428000Y22116666D01*
X5394666Y22050000D01*
X5361333Y22016666D01*
X5294666Y21983333D01*
X5228000Y21983333D01*
X5161333Y22016666D01*
X5128000Y22050000D01*
X5094666Y22116666D01*
X5094666Y22283333D01*
X5128000Y22383333D01*
X2238666Y19983333D02*
X1905333Y19750000D01*
X2238666Y19583333D02*
X1538666Y19583333D01*
X1538666Y19850000D01*
X1572000Y19916666D01*
X1605333Y19950000D01*
X1672000Y19983333D01*
X1772000Y19983333D01*
X1838666Y19950000D01*
X1872000Y19916666D01*
X1905333Y19850000D01*
X1905333Y19583333D01*
X1572000Y21183333D02*
X1538666Y21116666D01*
X1538666Y21016666D01*
X1572000Y20916666D01*
X1638666Y20850000D01*
X1705333Y20816666D01*
X1838666Y20783333D01*
X1938666Y20783333D01*
X2072000Y20816666D01*
X2138666Y20850000D01*
X2205333Y20916666D01*
X2238666Y21016666D01*
X2238666Y21083333D01*
X2205333Y21183333D01*
X2172000Y21216666D01*
X1938666Y21216666D01*
X1938666Y21083333D01*
X2172000Y22450000D02*
X2205333Y22416666D01*
X2238666Y22316666D01*
X2238666Y22250000D01*
X2205333Y22150000D01*
X2138666Y22083333D01*
X2072000Y22050000D01*
X1938666Y22016666D01*
X1838666Y22016666D01*
X1705333Y22050000D01*
X1638666Y22083333D01*
X1572000Y22150000D01*
X1538666Y22250000D01*
X1538666Y22316666D01*
X1572000Y22416666D01*
X1605333Y22450000D01*
G04 #@! TO.C,C2*
X33066666Y914285D02*
X33028571Y876190D01*
X32914285Y838095D01*
X32838095Y838095D01*
X32723809Y876190D01*
X32647619Y952380D01*
X32609523Y1028571D01*
X32571428Y1180952D01*
X32571428Y1295238D01*
X32609523Y1447619D01*
X32647619Y1523809D01*
X32723809Y1600000D01*
X32838095Y1638095D01*
X32914285Y1638095D01*
X33028571Y1600000D01*
X33066666Y1561904D01*
X33371428Y1561904D02*
X33409523Y1600000D01*
X33485714Y1638095D01*
X33676190Y1638095D01*
X33752380Y1600000D01*
X33790476Y1561904D01*
X33828571Y1485714D01*
X33828571Y1409523D01*
X33790476Y1295238D01*
X33333333Y838095D01*
X33828571Y838095D01*
G04 #@! TO.C,L2*
X31061904Y44766666D02*
X31061904Y44385714D01*
X30261904Y44385714D01*
X30338095Y44995238D02*
X30300000Y45033333D01*
X30261904Y45109523D01*
X30261904Y45300000D01*
X30300000Y45376190D01*
X30338095Y45414285D01*
X30414285Y45452380D01*
X30490476Y45452380D01*
X30604761Y45414285D01*
X31061904Y44957142D01*
X31061904Y45452380D01*
G04 #@! TO.C,U7*
X31390476Y29338095D02*
X31390476Y28690476D01*
X31428571Y28614285D01*
X31466666Y28576190D01*
X31542857Y28538095D01*
X31695238Y28538095D01*
X31771428Y28576190D01*
X31809523Y28614285D01*
X31847619Y28690476D01*
X31847619Y29338095D01*
X32152380Y29338095D02*
X32685714Y29338095D01*
X32342857Y28538095D01*
G04 #@! TO.C,Y1*
X32680952Y38919047D02*
X33061904Y38919047D01*
X32261904Y38652380D02*
X32680952Y38919047D01*
X32261904Y39185714D01*
X33061904Y39871428D02*
X33061904Y39414285D01*
X33061904Y39642857D02*
X32261904Y39642857D01*
X32376190Y39566666D01*
X32452380Y39490476D01*
X32490476Y39414285D01*
G04 #@! TO.C,R10*
X24885714Y28238095D02*
X24619047Y28619047D01*
X24428571Y28238095D02*
X24428571Y29038095D01*
X24733333Y29038095D01*
X24809523Y29000000D01*
X24847619Y28961904D01*
X24885714Y28885714D01*
X24885714Y28771428D01*
X24847619Y28695238D01*
X24809523Y28657142D01*
X24733333Y28619047D01*
X24428571Y28619047D01*
X25647619Y28238095D02*
X25190476Y28238095D01*
X25419047Y28238095D02*
X25419047Y29038095D01*
X25342857Y28923809D01*
X25266666Y28847619D01*
X25190476Y28809523D01*
X26142857Y29038095D02*
X26219047Y29038095D01*
X26295238Y29000000D01*
X26333333Y28961904D01*
X26371428Y28885714D01*
X26409523Y28733333D01*
X26409523Y28542857D01*
X26371428Y28390476D01*
X26333333Y28314285D01*
X26295238Y28276190D01*
X26219047Y28238095D01*
X26142857Y28238095D01*
X26066666Y28276190D01*
X26028571Y28314285D01*
X25990476Y28390476D01*
X25952380Y28542857D01*
X25952380Y28733333D01*
X25990476Y28885714D01*
X26028571Y28961904D01*
X26066666Y29000000D01*
X26142857Y29038095D01*
G04 #@! TO.C,R11*
X24785714Y23938095D02*
X24519047Y24319047D01*
X24328571Y23938095D02*
X24328571Y24738095D01*
X24633333Y24738095D01*
X24709523Y24700000D01*
X24747619Y24661904D01*
X24785714Y24585714D01*
X24785714Y24471428D01*
X24747619Y24395238D01*
X24709523Y24357142D01*
X24633333Y24319047D01*
X24328571Y24319047D01*
X25547619Y23938095D02*
X25090476Y23938095D01*
X25319047Y23938095D02*
X25319047Y24738095D01*
X25242857Y24623809D01*
X25166666Y24547619D01*
X25090476Y24509523D01*
X26309523Y23938095D02*
X25852380Y23938095D01*
X26080952Y23938095D02*
X26080952Y24738095D01*
X26004761Y24623809D01*
X25928571Y24547619D01*
X25852380Y24509523D01*
G04 #@! TO.C,D4*
X1861904Y48809523D02*
X1061904Y48809523D01*
X1061904Y49000000D01*
X1100000Y49114285D01*
X1176190Y49190476D01*
X1252380Y49228571D01*
X1404761Y49266666D01*
X1519047Y49266666D01*
X1671428Y49228571D01*
X1747619Y49190476D01*
X1823809Y49114285D01*
X1861904Y49000000D01*
X1861904Y48809523D01*
X1328571Y49952380D02*
X1861904Y49952380D01*
X1023809Y49761904D02*
X1595238Y49571428D01*
X1595238Y50066666D01*
G04 #@! TO.C,R8*
X2061904Y57066666D02*
X1680952Y56800000D01*
X2061904Y56609523D02*
X1261904Y56609523D01*
X1261904Y56914285D01*
X1300000Y56990476D01*
X1338095Y57028571D01*
X1414285Y57066666D01*
X1528571Y57066666D01*
X1604761Y57028571D01*
X1642857Y56990476D01*
X1680952Y56914285D01*
X1680952Y56609523D01*
X1604761Y57523809D02*
X1566666Y57447619D01*
X1528571Y57409523D01*
X1452380Y57371428D01*
X1414285Y57371428D01*
X1338095Y57409523D01*
X1300000Y57447619D01*
X1261904Y57523809D01*
X1261904Y57676190D01*
X1300000Y57752380D01*
X1338095Y57790476D01*
X1414285Y57828571D01*
X1452380Y57828571D01*
X1528571Y57790476D01*
X1566666Y57752380D01*
X1604761Y57676190D01*
X1604761Y57523809D01*
X1642857Y57447619D01*
X1680952Y57409523D01*
X1757142Y57371428D01*
X1909523Y57371428D01*
X1985714Y57409523D01*
X2023809Y57447619D01*
X2061904Y57523809D01*
X2061904Y57676190D01*
X2023809Y57752380D01*
X1985714Y57790476D01*
X1909523Y57828571D01*
X1757142Y57828571D01*
X1680952Y57790476D01*
X1642857Y57752380D01*
X1604761Y57676190D01*
G04 #@! TO.C,R9*
X34461904Y23366666D02*
X34080952Y23100000D01*
X34461904Y22909523D02*
X33661904Y22909523D01*
X33661904Y23214285D01*
X33700000Y23290476D01*
X33738095Y23328571D01*
X33814285Y23366666D01*
X33928571Y23366666D01*
X34004761Y23328571D01*
X34042857Y23290476D01*
X34080952Y23214285D01*
X34080952Y22909523D01*
X34461904Y23747619D02*
X34461904Y23900000D01*
X34423809Y23976190D01*
X34385714Y24014285D01*
X34271428Y24090476D01*
X34119047Y24128571D01*
X33814285Y24128571D01*
X33738095Y24090476D01*
X33700000Y24052380D01*
X33661904Y23976190D01*
X33661904Y23823809D01*
X33700000Y23747619D01*
X33738095Y23709523D01*
X33814285Y23671428D01*
X34004761Y23671428D01*
X34080952Y23709523D01*
X34119047Y23747619D01*
X34157142Y23823809D01*
X34157142Y23976190D01*
X34119047Y24052380D01*
X34080952Y24090476D01*
X34004761Y24128571D01*
G04 #@! TO.C,D5*
X36361904Y17809523D02*
X35561904Y17809523D01*
X35561904Y18000000D01*
X35600000Y18114285D01*
X35676190Y18190476D01*
X35752380Y18228571D01*
X35904761Y18266666D01*
X36019047Y18266666D01*
X36171428Y18228571D01*
X36247619Y18190476D01*
X36323809Y18114285D01*
X36361904Y18000000D01*
X36361904Y17809523D01*
X35561904Y18990476D02*
X35561904Y18609523D01*
X35942857Y18571428D01*
X35904761Y18609523D01*
X35866666Y18685714D01*
X35866666Y18876190D01*
X35904761Y18952380D01*
X35942857Y18990476D01*
X36019047Y19028571D01*
X36209523Y19028571D01*
X36285714Y18990476D01*
X36323809Y18952380D01*
X36361904Y18876190D01*
X36361904Y18685714D01*
X36323809Y18609523D01*
X36285714Y18571428D01*
G04 #@! TO.C,D3*
X6461904Y8109523D02*
X5661904Y8109523D01*
X5661904Y8300000D01*
X5700000Y8414285D01*
X5776190Y8490476D01*
X5852380Y8528571D01*
X6004761Y8566666D01*
X6119047Y8566666D01*
X6271428Y8528571D01*
X6347619Y8490476D01*
X6423809Y8414285D01*
X6461904Y8300000D01*
X6461904Y8109523D01*
X5661904Y8833333D02*
X5661904Y9328571D01*
X5966666Y9061904D01*
X5966666Y9176190D01*
X6004761Y9252380D01*
X6042857Y9290476D01*
X6119047Y9328571D01*
X6309523Y9328571D01*
X6385714Y9290476D01*
X6423809Y9252380D01*
X6461904Y9176190D01*
X6461904Y8947619D01*
X6423809Y8871428D01*
X6385714Y8833333D01*
G04 #@! TO.C,H2*
X10590476Y14738095D02*
X10590476Y15538095D01*
X10590476Y15157142D02*
X11047619Y15157142D01*
X11047619Y14738095D02*
X11047619Y15538095D01*
X11390476Y15461904D02*
X11428571Y15500000D01*
X11504761Y15538095D01*
X11695238Y15538095D01*
X11771428Y15500000D01*
X11809523Y15461904D01*
X11847619Y15385714D01*
X11847619Y15309523D01*
X11809523Y15195238D01*
X11352380Y14738095D01*
X11847619Y14738095D01*
G04 #@! TO.C,U2*
X14390476Y49838095D02*
X14390476Y49190476D01*
X14428571Y49114285D01*
X14466666Y49076190D01*
X14542857Y49038095D01*
X14695238Y49038095D01*
X14771428Y49076190D01*
X14809523Y49114285D01*
X14847619Y49190476D01*
X14847619Y49838095D01*
X15190476Y49761904D02*
X15228571Y49800000D01*
X15304761Y49838095D01*
X15495238Y49838095D01*
X15571428Y49800000D01*
X15609523Y49761904D01*
X15647619Y49685714D01*
X15647619Y49609523D01*
X15609523Y49495238D01*
X15152380Y49038095D01*
X15647619Y49038095D01*
G04 #@! TO.C,U6*
X19490476Y28838095D02*
X19490476Y28190476D01*
X19528571Y28114285D01*
X19566666Y28076190D01*
X19642857Y28038095D01*
X19795238Y28038095D01*
X19871428Y28076190D01*
X19909523Y28114285D01*
X19947619Y28190476D01*
X19947619Y28838095D01*
X20671428Y28838095D02*
X20519047Y28838095D01*
X20442857Y28800000D01*
X20404761Y28761904D01*
X20328571Y28647619D01*
X20290476Y28495238D01*
X20290476Y28190476D01*
X20328571Y28114285D01*
X20366666Y28076190D01*
X20442857Y28038095D01*
X20595238Y28038095D01*
X20671428Y28076190D01*
X20709523Y28114285D01*
X20747619Y28190476D01*
X20747619Y28380952D01*
X20709523Y28457142D01*
X20671428Y28495238D01*
X20595238Y28533333D01*
X20442857Y28533333D01*
X20366666Y28495238D01*
X20328571Y28457142D01*
X20290476Y28380952D01*
G04 #@! TO.C,C5*
X33966666Y58914285D02*
X33928571Y58876190D01*
X33814285Y58838095D01*
X33738095Y58838095D01*
X33623809Y58876190D01*
X33547619Y58952380D01*
X33509523Y59028571D01*
X33471428Y59180952D01*
X33471428Y59295238D01*
X33509523Y59447619D01*
X33547619Y59523809D01*
X33623809Y59600000D01*
X33738095Y59638095D01*
X33814285Y59638095D01*
X33928571Y59600000D01*
X33966666Y59561904D01*
X34690476Y59638095D02*
X34309523Y59638095D01*
X34271428Y59257142D01*
X34309523Y59295238D01*
X34385714Y59333333D01*
X34576190Y59333333D01*
X34652380Y59295238D01*
X34690476Y59257142D01*
X34728571Y59180952D01*
X34728571Y58990476D01*
X34690476Y58914285D01*
X34652380Y58876190D01*
X34576190Y58838095D01*
X34385714Y58838095D01*
X34309523Y58876190D01*
X34271428Y58914285D01*
G04 #@! TO.C,C10*
X16585714Y25985714D02*
X16623809Y25947619D01*
X16661904Y25833333D01*
X16661904Y25757142D01*
X16623809Y25642857D01*
X16547619Y25566666D01*
X16471428Y25528571D01*
X16319047Y25490476D01*
X16204761Y25490476D01*
X16052380Y25528571D01*
X15976190Y25566666D01*
X15900000Y25642857D01*
X15861904Y25757142D01*
X15861904Y25833333D01*
X15900000Y25947619D01*
X15938095Y25985714D01*
X16661904Y26747619D02*
X16661904Y26290476D01*
X16661904Y26519047D02*
X15861904Y26519047D01*
X15976190Y26442857D01*
X16052380Y26366666D01*
X16090476Y26290476D01*
X15861904Y27242857D02*
X15861904Y27319047D01*
X15900000Y27395238D01*
X15938095Y27433333D01*
X16014285Y27471428D01*
X16166666Y27509523D01*
X16357142Y27509523D01*
X16509523Y27471428D01*
X16585714Y27433333D01*
X16623809Y27395238D01*
X16661904Y27319047D01*
X16661904Y27242857D01*
X16623809Y27166666D01*
X16585714Y27128571D01*
X16509523Y27090476D01*
X16357142Y27052380D01*
X16166666Y27052380D01*
X16014285Y27090476D01*
X15938095Y27128571D01*
X15900000Y27166666D01*
X15861904Y27242857D01*
G04 #@! TO.C,C11*
X7785714Y49414285D02*
X7747619Y49376190D01*
X7633333Y49338095D01*
X7557142Y49338095D01*
X7442857Y49376190D01*
X7366666Y49452380D01*
X7328571Y49528571D01*
X7290476Y49680952D01*
X7290476Y49795238D01*
X7328571Y49947619D01*
X7366666Y50023809D01*
X7442857Y50100000D01*
X7557142Y50138095D01*
X7633333Y50138095D01*
X7747619Y50100000D01*
X7785714Y50061904D01*
X8547619Y49338095D02*
X8090476Y49338095D01*
X8319047Y49338095D02*
X8319047Y50138095D01*
X8242857Y50023809D01*
X8166666Y49947619D01*
X8090476Y49909523D01*
X9309523Y49338095D02*
X8852380Y49338095D01*
X9080952Y49338095D02*
X9080952Y50138095D01*
X9004761Y50023809D01*
X8928571Y49947619D01*
X8852380Y49909523D01*
G04 #@! TO.C,FB1*
X13333333Y31557142D02*
X13066666Y31557142D01*
X13066666Y31138095D02*
X13066666Y31938095D01*
X13447619Y31938095D01*
X14019047Y31557142D02*
X14133333Y31519047D01*
X14171428Y31480952D01*
X14209523Y31404761D01*
X14209523Y31290476D01*
X14171428Y31214285D01*
X14133333Y31176190D01*
X14057142Y31138095D01*
X13752380Y31138095D01*
X13752380Y31938095D01*
X14019047Y31938095D01*
X14095238Y31900000D01*
X14133333Y31861904D01*
X14171428Y31785714D01*
X14171428Y31709523D01*
X14133333Y31633333D01*
X14095238Y31595238D01*
X14019047Y31557142D01*
X13752380Y31557142D01*
X14971428Y31138095D02*
X14514285Y31138095D01*
X14742857Y31138095D02*
X14742857Y31938095D01*
X14666666Y31823809D01*
X14590476Y31747619D01*
X14514285Y31709523D01*
G04 #@! TO.C,FB2*
X13433333Y29957142D02*
X13166666Y29957142D01*
X13166666Y29538095D02*
X13166666Y30338095D01*
X13547619Y30338095D01*
X14119047Y29957142D02*
X14233333Y29919047D01*
X14271428Y29880952D01*
X14309523Y29804761D01*
X14309523Y29690476D01*
X14271428Y29614285D01*
X14233333Y29576190D01*
X14157142Y29538095D01*
X13852380Y29538095D01*
X13852380Y30338095D01*
X14119047Y30338095D01*
X14195238Y30300000D01*
X14233333Y30261904D01*
X14271428Y30185714D01*
X14271428Y30109523D01*
X14233333Y30033333D01*
X14195238Y29995238D01*
X14119047Y29957142D01*
X13852380Y29957142D01*
X14614285Y30261904D02*
X14652380Y30300000D01*
X14728571Y30338095D01*
X14919047Y30338095D01*
X14995238Y30300000D01*
X15033333Y30261904D01*
X15071428Y30185714D01*
X15071428Y30109523D01*
X15033333Y29995238D01*
X14576190Y29538095D01*
X15071428Y29538095D01*
G04 #@! TO.C,SW1*
X1033333Y29576190D02*
X1147619Y29538095D01*
X1338095Y29538095D01*
X1414285Y29576190D01*
X1452380Y29614285D01*
X1490476Y29690476D01*
X1490476Y29766666D01*
X1452380Y29842857D01*
X1414285Y29880952D01*
X1338095Y29919047D01*
X1185714Y29957142D01*
X1109523Y29995238D01*
X1071428Y30033333D01*
X1033333Y30109523D01*
X1033333Y30185714D01*
X1071428Y30261904D01*
X1109523Y30300000D01*
X1185714Y30338095D01*
X1376190Y30338095D01*
X1490476Y30300000D01*
X1757142Y30338095D02*
X1947619Y29538095D01*
X2100000Y30109523D01*
X2252380Y29538095D01*
X2442857Y30338095D01*
X3166666Y29538095D02*
X2709523Y29538095D01*
X2938095Y29538095D02*
X2938095Y30338095D01*
X2861904Y30223809D01*
X2785714Y30147619D01*
X2709523Y30109523D01*
G04 #@! TO.C,U3*
X21190476Y59438095D02*
X21190476Y58790476D01*
X21228571Y58714285D01*
X21266666Y58676190D01*
X21342857Y58638095D01*
X21495238Y58638095D01*
X21571428Y58676190D01*
X21609523Y58714285D01*
X21647619Y58790476D01*
X21647619Y59438095D01*
X21952380Y59438095D02*
X22447619Y59438095D01*
X22180952Y59133333D01*
X22295238Y59133333D01*
X22371428Y59095238D01*
X22409523Y59057142D01*
X22447619Y58980952D01*
X22447619Y58790476D01*
X22409523Y58714285D01*
X22371428Y58676190D01*
X22295238Y58638095D01*
X22066666Y58638095D01*
X21990476Y58676190D01*
X21952380Y58714285D01*
G04 #@! TO.C,BT1*
X4971428Y1657142D02*
X5085714Y1619047D01*
X5123809Y1580952D01*
X5161904Y1504761D01*
X5161904Y1390476D01*
X5123809Y1314285D01*
X5085714Y1276190D01*
X5009523Y1238095D01*
X4704761Y1238095D01*
X4704761Y2038095D01*
X4971428Y2038095D01*
X5047619Y2000000D01*
X5085714Y1961904D01*
X5123809Y1885714D01*
X5123809Y1809523D01*
X5085714Y1733333D01*
X5047619Y1695238D01*
X4971428Y1657142D01*
X4704761Y1657142D01*
X5390476Y2038095D02*
X5847619Y2038095D01*
X5619047Y1238095D02*
X5619047Y2038095D01*
X6533333Y1238095D02*
X6076190Y1238095D01*
X6304761Y1238095D02*
X6304761Y2038095D01*
X6228571Y1923809D01*
X6152380Y1847619D01*
X6076190Y1809523D01*
G04 #@! TO.C,C1*
X24066666Y15914285D02*
X24028571Y15876190D01*
X23914285Y15838095D01*
X23838095Y15838095D01*
X23723809Y15876190D01*
X23647619Y15952380D01*
X23609523Y16028571D01*
X23571428Y16180952D01*
X23571428Y16295238D01*
X23609523Y16447619D01*
X23647619Y16523809D01*
X23723809Y16600000D01*
X23838095Y16638095D01*
X23914285Y16638095D01*
X24028571Y16600000D01*
X24066666Y16561904D01*
X24828571Y15838095D02*
X24371428Y15838095D01*
X24600000Y15838095D02*
X24600000Y16638095D01*
X24523809Y16523809D01*
X24447619Y16447619D01*
X24371428Y16409523D01*
G04 #@! TO.C,C3*
X24566666Y21614285D02*
X24528571Y21576190D01*
X24414285Y21538095D01*
X24338095Y21538095D01*
X24223809Y21576190D01*
X24147619Y21652380D01*
X24109523Y21728571D01*
X24071428Y21880952D01*
X24071428Y21995238D01*
X24109523Y22147619D01*
X24147619Y22223809D01*
X24223809Y22300000D01*
X24338095Y22338095D01*
X24414285Y22338095D01*
X24528571Y22300000D01*
X24566666Y22261904D01*
X24833333Y22338095D02*
X25328571Y22338095D01*
X25061904Y22033333D01*
X25176190Y22033333D01*
X25252380Y21995238D01*
X25290476Y21957142D01*
X25328571Y21880952D01*
X25328571Y21690476D01*
X25290476Y21614285D01*
X25252380Y21576190D01*
X25176190Y21538095D01*
X24947619Y21538095D01*
X24871428Y21576190D01*
X24833333Y21614285D01*
G04 #@! TO.C,C4*
X19285714Y16766666D02*
X19323809Y16728571D01*
X19361904Y16614285D01*
X19361904Y16538095D01*
X19323809Y16423809D01*
X19247619Y16347619D01*
X19171428Y16309523D01*
X19019047Y16271428D01*
X18904761Y16271428D01*
X18752380Y16309523D01*
X18676190Y16347619D01*
X18600000Y16423809D01*
X18561904Y16538095D01*
X18561904Y16614285D01*
X18600000Y16728571D01*
X18638095Y16766666D01*
X18828571Y17452380D02*
X19361904Y17452380D01*
X18523809Y17261904D02*
X19095238Y17071428D01*
X19095238Y17566666D01*
G04 #@! TO.C,C7*
X14366666Y8614285D02*
X14328571Y8576190D01*
X14214285Y8538095D01*
X14138095Y8538095D01*
X14023809Y8576190D01*
X13947619Y8652380D01*
X13909523Y8728571D01*
X13871428Y8880952D01*
X13871428Y8995238D01*
X13909523Y9147619D01*
X13947619Y9223809D01*
X14023809Y9300000D01*
X14138095Y9338095D01*
X14214285Y9338095D01*
X14328571Y9300000D01*
X14366666Y9261904D01*
X14633333Y9338095D02*
X15166666Y9338095D01*
X14823809Y8538095D01*
G04 #@! TO.C,C8*
X20866666Y8514285D02*
X20828571Y8476190D01*
X20714285Y8438095D01*
X20638095Y8438095D01*
X20523809Y8476190D01*
X20447619Y8552380D01*
X20409523Y8628571D01*
X20371428Y8780952D01*
X20371428Y8895238D01*
X20409523Y9047619D01*
X20447619Y9123809D01*
X20523809Y9200000D01*
X20638095Y9238095D01*
X20714285Y9238095D01*
X20828571Y9200000D01*
X20866666Y9161904D01*
X21323809Y8895238D02*
X21247619Y8933333D01*
X21209523Y8971428D01*
X21171428Y9047619D01*
X21171428Y9085714D01*
X21209523Y9161904D01*
X21247619Y9200000D01*
X21323809Y9238095D01*
X21476190Y9238095D01*
X21552380Y9200000D01*
X21590476Y9161904D01*
X21628571Y9085714D01*
X21628571Y9047619D01*
X21590476Y8971428D01*
X21552380Y8933333D01*
X21476190Y8895238D01*
X21323809Y8895238D01*
X21247619Y8857142D01*
X21209523Y8819047D01*
X21171428Y8742857D01*
X21171428Y8590476D01*
X21209523Y8514285D01*
X21247619Y8476190D01*
X21323809Y8438095D01*
X21476190Y8438095D01*
X21552380Y8476190D01*
X21590476Y8514285D01*
X21628571Y8590476D01*
X21628571Y8742857D01*
X21590476Y8819047D01*
X21552380Y8857142D01*
X21476190Y8895238D01*
G04 #@! TO.C,C9*
X13885714Y15766666D02*
X13923809Y15728571D01*
X13961904Y15614285D01*
X13961904Y15538095D01*
X13923809Y15423809D01*
X13847619Y15347619D01*
X13771428Y15309523D01*
X13619047Y15271428D01*
X13504761Y15271428D01*
X13352380Y15309523D01*
X13276190Y15347619D01*
X13200000Y15423809D01*
X13161904Y15538095D01*
X13161904Y15614285D01*
X13200000Y15728571D01*
X13238095Y15766666D01*
X13961904Y16147619D02*
X13961904Y16300000D01*
X13923809Y16376190D01*
X13885714Y16414285D01*
X13771428Y16490476D01*
X13619047Y16528571D01*
X13314285Y16528571D01*
X13238095Y16490476D01*
X13200000Y16452380D01*
X13161904Y16376190D01*
X13161904Y16223809D01*
X13200000Y16147619D01*
X13238095Y16109523D01*
X13314285Y16071428D01*
X13504761Y16071428D01*
X13580952Y16109523D01*
X13619047Y16147619D01*
X13657142Y16223809D01*
X13657142Y16376190D01*
X13619047Y16452380D01*
X13580952Y16490476D01*
X13504761Y16528571D01*
G04 #@! TO.C,C12*
X23585714Y3814285D02*
X23547619Y3776190D01*
X23433333Y3738095D01*
X23357142Y3738095D01*
X23242857Y3776190D01*
X23166666Y3852380D01*
X23128571Y3928571D01*
X23090476Y4080952D01*
X23090476Y4195238D01*
X23128571Y4347619D01*
X23166666Y4423809D01*
X23242857Y4500000D01*
X23357142Y4538095D01*
X23433333Y4538095D01*
X23547619Y4500000D01*
X23585714Y4461904D01*
X24347619Y3738095D02*
X23890476Y3738095D01*
X24119047Y3738095D02*
X24119047Y4538095D01*
X24042857Y4423809D01*
X23966666Y4347619D01*
X23890476Y4309523D01*
X24652380Y4461904D02*
X24690476Y4500000D01*
X24766666Y4538095D01*
X24957142Y4538095D01*
X25033333Y4500000D01*
X25071428Y4461904D01*
X25109523Y4385714D01*
X25109523Y4309523D01*
X25071428Y4195238D01*
X24614285Y3738095D01*
X25109523Y3738095D01*
G04 #@! TO.C,L1*
X19866666Y17938095D02*
X19485714Y17938095D01*
X19485714Y18738095D01*
X20552380Y17938095D02*
X20095238Y17938095D01*
X20323809Y17938095D02*
X20323809Y18738095D01*
X20247619Y18623809D01*
X20171428Y18547619D01*
X20095238Y18509523D01*
G04 #@! TO.C,Q1*
X28523809Y661904D02*
X28447619Y700000D01*
X28371428Y776190D01*
X28257142Y890476D01*
X28180952Y928571D01*
X28104761Y928571D01*
X28142857Y738095D02*
X28066666Y776190D01*
X27990476Y852380D01*
X27952380Y1004761D01*
X27952380Y1271428D01*
X27990476Y1423809D01*
X28066666Y1500000D01*
X28142857Y1538095D01*
X28295238Y1538095D01*
X28371428Y1500000D01*
X28447619Y1423809D01*
X28485714Y1271428D01*
X28485714Y1004761D01*
X28447619Y852380D01*
X28371428Y776190D01*
X28295238Y738095D01*
X28142857Y738095D01*
X29247619Y738095D02*
X28790476Y738095D01*
X29019047Y738095D02*
X29019047Y1538095D01*
X28942857Y1423809D01*
X28866666Y1347619D01*
X28790476Y1309523D01*
G04 #@! TO.C,R2*
X16461904Y4466666D02*
X16080952Y4200000D01*
X16461904Y4009523D02*
X15661904Y4009523D01*
X15661904Y4314285D01*
X15700000Y4390476D01*
X15738095Y4428571D01*
X15814285Y4466666D01*
X15928571Y4466666D01*
X16004761Y4428571D01*
X16042857Y4390476D01*
X16080952Y4314285D01*
X16080952Y4009523D01*
X15738095Y4771428D02*
X15700000Y4809523D01*
X15661904Y4885714D01*
X15661904Y5076190D01*
X15700000Y5152380D01*
X15738095Y5190476D01*
X15814285Y5228571D01*
X15890476Y5228571D01*
X16004761Y5190476D01*
X16461904Y4733333D01*
X16461904Y5228571D01*
G04 #@! TO.C,R4*
X11861904Y18766666D02*
X11480952Y18500000D01*
X11861904Y18309523D02*
X11061904Y18309523D01*
X11061904Y18614285D01*
X11100000Y18690476D01*
X11138095Y18728571D01*
X11214285Y18766666D01*
X11328571Y18766666D01*
X11404761Y18728571D01*
X11442857Y18690476D01*
X11480952Y18614285D01*
X11480952Y18309523D01*
X11328571Y19452380D02*
X11861904Y19452380D01*
X11023809Y19261904D02*
X11595238Y19071428D01*
X11595238Y19566666D01*
G04 #@! TO.C,R5*
X11731904Y21516666D02*
X11350952Y21250000D01*
X11731904Y21059523D02*
X10931904Y21059523D01*
X10931904Y21364285D01*
X10970000Y21440476D01*
X11008095Y21478571D01*
X11084285Y21516666D01*
X11198571Y21516666D01*
X11274761Y21478571D01*
X11312857Y21440476D01*
X11350952Y21364285D01*
X11350952Y21059523D01*
X10931904Y22240476D02*
X10931904Y21859523D01*
X11312857Y21821428D01*
X11274761Y21859523D01*
X11236666Y21935714D01*
X11236666Y22126190D01*
X11274761Y22202380D01*
X11312857Y22240476D01*
X11389047Y22278571D01*
X11579523Y22278571D01*
X11655714Y22240476D01*
X11693809Y22202380D01*
X11731904Y22126190D01*
X11731904Y21935714D01*
X11693809Y21859523D01*
X11655714Y21821428D01*
G04 #@! TO.C,R6*
X24791904Y5866666D02*
X24410952Y5600000D01*
X24791904Y5409523D02*
X23991904Y5409523D01*
X23991904Y5714285D01*
X24030000Y5790476D01*
X24068095Y5828571D01*
X24144285Y5866666D01*
X24258571Y5866666D01*
X24334761Y5828571D01*
X24372857Y5790476D01*
X24410952Y5714285D01*
X24410952Y5409523D01*
X23991904Y6552380D02*
X23991904Y6400000D01*
X24030000Y6323809D01*
X24068095Y6285714D01*
X24182380Y6209523D01*
X24334761Y6171428D01*
X24639523Y6171428D01*
X24715714Y6209523D01*
X24753809Y6247619D01*
X24791904Y6323809D01*
X24791904Y6476190D01*
X24753809Y6552380D01*
X24715714Y6590476D01*
X24639523Y6628571D01*
X24449047Y6628571D01*
X24372857Y6590476D01*
X24334761Y6552380D01*
X24296666Y6476190D01*
X24296666Y6323809D01*
X24334761Y6247619D01*
X24372857Y6209523D01*
X24449047Y6171428D01*
G04 #@! TO.C,R7*
X23966666Y1838095D02*
X23700000Y2219047D01*
X23509523Y1838095D02*
X23509523Y2638095D01*
X23814285Y2638095D01*
X23890476Y2600000D01*
X23928571Y2561904D01*
X23966666Y2485714D01*
X23966666Y2371428D01*
X23928571Y2295238D01*
X23890476Y2257142D01*
X23814285Y2219047D01*
X23509523Y2219047D01*
X24233333Y2638095D02*
X24766666Y2638095D01*
X24423809Y1838095D01*
G04 #@! TO.C,U1*
X23486905Y18565477D02*
X24134524Y18565477D01*
X24210715Y18603572D01*
X24248810Y18641667D01*
X24286905Y18717858D01*
X24286905Y18870239D01*
X24248810Y18946429D01*
X24210715Y18984524D01*
X24134524Y19022620D01*
X23486905Y19022620D01*
X24286905Y19822620D02*
X24286905Y19365477D01*
X24286905Y19594048D02*
X23486905Y19594048D01*
X23601191Y19517858D01*
X23677381Y19441667D01*
X23715477Y19365477D01*
G04 #@! TO.C,U4*
X17090476Y9238095D02*
X17090476Y8590476D01*
X17128571Y8514285D01*
X17166666Y8476190D01*
X17242857Y8438095D01*
X17395238Y8438095D01*
X17471428Y8476190D01*
X17509523Y8514285D01*
X17547619Y8590476D01*
X17547619Y9238095D01*
X18271428Y8971428D02*
X18271428Y8438095D01*
X18080952Y9276190D02*
X17890476Y8704761D01*
X18385714Y8704761D01*
G04 #@! TO.C,U5*
X13890476Y24138095D02*
X13890476Y23490476D01*
X13928571Y23414285D01*
X13966666Y23376190D01*
X14042857Y23338095D01*
X14195238Y23338095D01*
X14271428Y23376190D01*
X14309523Y23414285D01*
X14347619Y23490476D01*
X14347619Y24138095D01*
X15109523Y24138095D02*
X14728571Y24138095D01*
X14690476Y23757142D01*
X14728571Y23795238D01*
X14804761Y23833333D01*
X14995238Y23833333D01*
X15071428Y23795238D01*
X15109523Y23757142D01*
X15147619Y23680952D01*
X15147619Y23490476D01*
X15109523Y23414285D01*
X15071428Y23376190D01*
X14995238Y23338095D01*
X14804761Y23338095D01*
X14728571Y23376190D01*
X14690476Y23414285D01*
G04 #@! TO.C,J2*
X5833333Y16938095D02*
X5833333Y16366666D01*
X5795238Y16252380D01*
X5719047Y16176190D01*
X5604761Y16138095D01*
X5528571Y16138095D01*
X6176190Y16861904D02*
X6214285Y16900000D01*
X6290476Y16938095D01*
X6480952Y16938095D01*
X6557142Y16900000D01*
X6595238Y16861904D01*
X6633333Y16785714D01*
X6633333Y16709523D01*
X6595238Y16595238D01*
X6138095Y16138095D01*
X6633333Y16138095D01*
G04 #@! TO.C,J3*
X35433333Y16738095D02*
X35433333Y16166666D01*
X35395238Y16052380D01*
X35319047Y15976190D01*
X35204761Y15938095D01*
X35128571Y15938095D01*
X35738095Y16738095D02*
X36233333Y16738095D01*
X35966666Y16433333D01*
X36080952Y16433333D01*
X36157142Y16395238D01*
X36195238Y16357142D01*
X36233333Y16280952D01*
X36233333Y16090476D01*
X36195238Y16014285D01*
X36157142Y15976190D01*
X36080952Y15938095D01*
X35852380Y15938095D01*
X35776190Y15976190D01*
X35738095Y16014285D01*
G04 #@! TO.C,R1*
X29966666Y7138095D02*
X29700000Y7519047D01*
X29509523Y7138095D02*
X29509523Y7938095D01*
X29814285Y7938095D01*
X29890476Y7900000D01*
X29928571Y7861904D01*
X29966666Y7785714D01*
X29966666Y7671428D01*
X29928571Y7595238D01*
X29890476Y7557142D01*
X29814285Y7519047D01*
X29509523Y7519047D01*
X30728571Y7138095D02*
X30271428Y7138095D01*
X30500000Y7138095D02*
X30500000Y7938095D01*
X30423809Y7823809D01*
X30347619Y7747619D01*
X30271428Y7709523D01*
G04 #@! TO.C,R12*
X7885714Y17268095D02*
X7619047Y17649047D01*
X7428571Y17268095D02*
X7428571Y18068095D01*
X7733333Y18068095D01*
X7809523Y18030000D01*
X7847619Y17991904D01*
X7885714Y17915714D01*
X7885714Y17801428D01*
X7847619Y17725238D01*
X7809523Y17687142D01*
X7733333Y17649047D01*
X7428571Y17649047D01*
X8647619Y17268095D02*
X8190476Y17268095D01*
X8419047Y17268095D02*
X8419047Y18068095D01*
X8342857Y17953809D01*
X8266666Y17877619D01*
X8190476Y17839523D01*
X8952380Y17991904D02*
X8990476Y18030000D01*
X9066666Y18068095D01*
X9257142Y18068095D01*
X9333333Y18030000D01*
X9371428Y17991904D01*
X9409523Y17915714D01*
X9409523Y17839523D01*
X9371428Y17725238D01*
X8914285Y17268095D01*
X9409523Y17268095D01*
G04 #@! TO.C,C24*
X9385714Y7214285D02*
X9347619Y7176190D01*
X9233333Y7138095D01*
X9157142Y7138095D01*
X9042857Y7176190D01*
X8966666Y7252380D01*
X8928571Y7328571D01*
X8890476Y7480952D01*
X8890476Y7595238D01*
X8928571Y7747619D01*
X8966666Y7823809D01*
X9042857Y7900000D01*
X9157142Y7938095D01*
X9233333Y7938095D01*
X9347619Y7900000D01*
X9385714Y7861904D01*
X9690476Y7861904D02*
X9728571Y7900000D01*
X9804761Y7938095D01*
X9995238Y7938095D01*
X10071428Y7900000D01*
X10109523Y7861904D01*
X10147619Y7785714D01*
X10147619Y7709523D01*
X10109523Y7595238D01*
X9652380Y7138095D01*
X10147619Y7138095D01*
X10833333Y7671428D02*
X10833333Y7138095D01*
X10642857Y7976190D02*
X10452380Y7404761D01*
X10947619Y7404761D01*
G04 #@! TO.C,C25*
X34485714Y26784285D02*
X34447619Y26746190D01*
X34333333Y26708095D01*
X34257142Y26708095D01*
X34142857Y26746190D01*
X34066666Y26822380D01*
X34028571Y26898571D01*
X33990476Y27050952D01*
X33990476Y27165238D01*
X34028571Y27317619D01*
X34066666Y27393809D01*
X34142857Y27470000D01*
X34257142Y27508095D01*
X34333333Y27508095D01*
X34447619Y27470000D01*
X34485714Y27431904D01*
X34790476Y27431904D02*
X34828571Y27470000D01*
X34904761Y27508095D01*
X35095238Y27508095D01*
X35171428Y27470000D01*
X35209523Y27431904D01*
X35247619Y27355714D01*
X35247619Y27279523D01*
X35209523Y27165238D01*
X34752380Y26708095D01*
X35247619Y26708095D01*
X35971428Y27508095D02*
X35590476Y27508095D01*
X35552380Y27127142D01*
X35590476Y27165238D01*
X35666666Y27203333D01*
X35857142Y27203333D01*
X35933333Y27165238D01*
X35971428Y27127142D01*
X36009523Y27050952D01*
X36009523Y26860476D01*
X35971428Y26784285D01*
X35933333Y26746190D01*
X35857142Y26708095D01*
X35666666Y26708095D01*
X35590476Y26746190D01*
X35552380Y26784285D01*
G04 #@! TO.C,C26*
X31885714Y34114285D02*
X31847619Y34076190D01*
X31733333Y34038095D01*
X31657142Y34038095D01*
X31542857Y34076190D01*
X31466666Y34152380D01*
X31428571Y34228571D01*
X31390476Y34380952D01*
X31390476Y34495238D01*
X31428571Y34647619D01*
X31466666Y34723809D01*
X31542857Y34800000D01*
X31657142Y34838095D01*
X31733333Y34838095D01*
X31847619Y34800000D01*
X31885714Y34761904D01*
X32190476Y34761904D02*
X32228571Y34800000D01*
X32304761Y34838095D01*
X32495238Y34838095D01*
X32571428Y34800000D01*
X32609523Y34761904D01*
X32647619Y34685714D01*
X32647619Y34609523D01*
X32609523Y34495238D01*
X32152380Y34038095D01*
X32647619Y34038095D01*
X33333333Y34838095D02*
X33180952Y34838095D01*
X33104761Y34800000D01*
X33066666Y34761904D01*
X32990476Y34647619D01*
X32952380Y34495238D01*
X32952380Y34190476D01*
X32990476Y34114285D01*
X33028571Y34076190D01*
X33104761Y34038095D01*
X33257142Y34038095D01*
X33333333Y34076190D01*
X33371428Y34114285D01*
X33409523Y34190476D01*
X33409523Y34380952D01*
X33371428Y34457142D01*
X33333333Y34495238D01*
X33257142Y34533333D01*
X33104761Y34533333D01*
X33028571Y34495238D01*
X32990476Y34457142D01*
X32952380Y34380952D01*
G04 #@! TO.C,D7*
X34409523Y50538095D02*
X34409523Y51338095D01*
X34600000Y51338095D01*
X34714285Y51300000D01*
X34790476Y51223809D01*
X34828571Y51147619D01*
X34866666Y50995238D01*
X34866666Y50880952D01*
X34828571Y50728571D01*
X34790476Y50652380D01*
X34714285Y50576190D01*
X34600000Y50538095D01*
X34409523Y50538095D01*
X35133333Y51338095D02*
X35666666Y51338095D01*
X35323809Y50538095D01*
G04 #@! TO.C,Q2*
X9323809Y261904D02*
X9247619Y300000D01*
X9171428Y376190D01*
X9057142Y490476D01*
X8980952Y528571D01*
X8904761Y528571D01*
X8942857Y338095D02*
X8866666Y376190D01*
X8790476Y452380D01*
X8752380Y604761D01*
X8752380Y871428D01*
X8790476Y1023809D01*
X8866666Y1100000D01*
X8942857Y1138095D01*
X9095238Y1138095D01*
X9171428Y1100000D01*
X9247619Y1023809D01*
X9285714Y871428D01*
X9285714Y604761D01*
X9247619Y452380D01*
X9171428Y376190D01*
X9095238Y338095D01*
X8942857Y338095D01*
X9590476Y1061904D02*
X9628571Y1100000D01*
X9704761Y1138095D01*
X9895238Y1138095D01*
X9971428Y1100000D01*
X10009523Y1061904D01*
X10047619Y985714D01*
X10047619Y909523D01*
X10009523Y795238D01*
X9552380Y338095D01*
X10047619Y338095D01*
G04 #@! TO.C,Q3*
X19623809Y161904D02*
X19547619Y200000D01*
X19471428Y276190D01*
X19357142Y390476D01*
X19280952Y428571D01*
X19204761Y428571D01*
X19242857Y238095D02*
X19166666Y276190D01*
X19090476Y352380D01*
X19052380Y504761D01*
X19052380Y771428D01*
X19090476Y923809D01*
X19166666Y1000000D01*
X19242857Y1038095D01*
X19395238Y1038095D01*
X19471428Y1000000D01*
X19547619Y923809D01*
X19585714Y771428D01*
X19585714Y504761D01*
X19547619Y352380D01*
X19471428Y276190D01*
X19395238Y238095D01*
X19242857Y238095D01*
X19852380Y1038095D02*
X20347619Y1038095D01*
X20080952Y733333D01*
X20195238Y733333D01*
X20271428Y695238D01*
X20309523Y657142D01*
X20347619Y580952D01*
X20347619Y390476D01*
X20309523Y314285D01*
X20271428Y276190D01*
X20195238Y238095D01*
X19966666Y238095D01*
X19890476Y276190D01*
X19852380Y314285D01*
G04 #@! TO.C,R13*
X11861904Y7485714D02*
X11480952Y7219047D01*
X11861904Y7028571D02*
X11061904Y7028571D01*
X11061904Y7333333D01*
X11100000Y7409523D01*
X11138095Y7447619D01*
X11214285Y7485714D01*
X11328571Y7485714D01*
X11404761Y7447619D01*
X11442857Y7409523D01*
X11480952Y7333333D01*
X11480952Y7028571D01*
X11861904Y8247619D02*
X11861904Y7790476D01*
X11861904Y8019047D02*
X11061904Y8019047D01*
X11176190Y7942857D01*
X11252380Y7866666D01*
X11290476Y7790476D01*
X11061904Y8514285D02*
X11061904Y9009523D01*
X11366666Y8742857D01*
X11366666Y8857142D01*
X11404761Y8933333D01*
X11442857Y8971428D01*
X11519047Y9009523D01*
X11709523Y9009523D01*
X11785714Y8971428D01*
X11823809Y8933333D01*
X11861904Y8857142D01*
X11861904Y8628571D01*
X11823809Y8552380D01*
X11785714Y8514285D01*
G04 #@! TO.C,R14*
X16361904Y2185714D02*
X15980952Y1919047D01*
X16361904Y1728571D02*
X15561904Y1728571D01*
X15561904Y2033333D01*
X15600000Y2109523D01*
X15638095Y2147619D01*
X15714285Y2185714D01*
X15828571Y2185714D01*
X15904761Y2147619D01*
X15942857Y2109523D01*
X15980952Y2033333D01*
X15980952Y1728571D01*
X16361904Y2947619D02*
X16361904Y2490476D01*
X16361904Y2719047D02*
X15561904Y2719047D01*
X15676190Y2642857D01*
X15752380Y2566666D01*
X15790476Y2490476D01*
X15828571Y3633333D02*
X16361904Y3633333D01*
X15523809Y3442857D02*
X16095238Y3252380D01*
X16095238Y3747619D01*
G04 #@! TO.C,R15*
X29485714Y47038095D02*
X29219047Y47419047D01*
X29028571Y47038095D02*
X29028571Y47838095D01*
X29333333Y47838095D01*
X29409523Y47800000D01*
X29447619Y47761904D01*
X29485714Y47685714D01*
X29485714Y47571428D01*
X29447619Y47495238D01*
X29409523Y47457142D01*
X29333333Y47419047D01*
X29028571Y47419047D01*
X30247619Y47038095D02*
X29790476Y47038095D01*
X30019047Y47038095D02*
X30019047Y47838095D01*
X29942857Y47723809D01*
X29866666Y47647619D01*
X29790476Y47609523D01*
X30971428Y47838095D02*
X30590476Y47838095D01*
X30552380Y47457142D01*
X30590476Y47495238D01*
X30666666Y47533333D01*
X30857142Y47533333D01*
X30933333Y47495238D01*
X30971428Y47457142D01*
X31009523Y47380952D01*
X31009523Y47190476D01*
X30971428Y47114285D01*
X30933333Y47076190D01*
X30857142Y47038095D01*
X30666666Y47038095D01*
X30590476Y47076190D01*
X30552380Y47114285D01*
G04 #@! TO.C,U9*
X12661904Y3790476D02*
X13309523Y3790476D01*
X13385714Y3828571D01*
X13423809Y3866666D01*
X13461904Y3942857D01*
X13461904Y4095238D01*
X13423809Y4171428D01*
X13385714Y4209523D01*
X13309523Y4247619D01*
X12661904Y4247619D01*
X13461904Y4666666D02*
X13461904Y4819047D01*
X13423809Y4895238D01*
X13385714Y4933333D01*
X13271428Y5009523D01*
X13119047Y5047619D01*
X12814285Y5047619D01*
X12738095Y5009523D01*
X12700000Y4971428D01*
X12661904Y4895238D01*
X12661904Y4742857D01*
X12700000Y4666666D01*
X12738095Y4628571D01*
X12814285Y4590476D01*
X13004761Y4590476D01*
X13080952Y4628571D01*
X13119047Y4666666D01*
X13157142Y4742857D01*
X13157142Y4895238D01*
X13119047Y4971428D01*
X13080952Y5009523D01*
X13004761Y5047619D01*
G04 #@! TO.C,Y2*
X32530952Y31119047D02*
X32911904Y31119047D01*
X32111904Y30852380D02*
X32530952Y31119047D01*
X32111904Y31385714D01*
X32188095Y31614285D02*
X32150000Y31652380D01*
X32111904Y31728571D01*
X32111904Y31919047D01*
X32150000Y31995238D01*
X32188095Y32033333D01*
X32264285Y32071428D01*
X32340476Y32071428D01*
X32454761Y32033333D01*
X32911904Y31576190D01*
X32911904Y32071428D01*
G04 #@! TO.C,R18*
X7885714Y27738095D02*
X7619047Y28119047D01*
X7428571Y27738095D02*
X7428571Y28538095D01*
X7733333Y28538095D01*
X7809523Y28500000D01*
X7847619Y28461904D01*
X7885714Y28385714D01*
X7885714Y28271428D01*
X7847619Y28195238D01*
X7809523Y28157142D01*
X7733333Y28119047D01*
X7428571Y28119047D01*
X8647619Y27738095D02*
X8190476Y27738095D01*
X8419047Y27738095D02*
X8419047Y28538095D01*
X8342857Y28423809D01*
X8266666Y28347619D01*
X8190476Y28309523D01*
X9104761Y28195238D02*
X9028571Y28233333D01*
X8990476Y28271428D01*
X8952380Y28347619D01*
X8952380Y28385714D01*
X8990476Y28461904D01*
X9028571Y28500000D01*
X9104761Y28538095D01*
X9257142Y28538095D01*
X9333333Y28500000D01*
X9371428Y28461904D01*
X9409523Y28385714D01*
X9409523Y28347619D01*
X9371428Y28271428D01*
X9333333Y28233333D01*
X9257142Y28195238D01*
X9104761Y28195238D01*
X9028571Y28157142D01*
X8990476Y28119047D01*
X8952380Y28042857D01*
X8952380Y27890476D01*
X8990476Y27814285D01*
X9028571Y27776190D01*
X9104761Y27738095D01*
X9257142Y27738095D01*
X9333333Y27776190D01*
X9371428Y27814285D01*
X9409523Y27890476D01*
X9409523Y28042857D01*
X9371428Y28119047D01*
X9333333Y28157142D01*
X9257142Y28195238D01*
G04 #@! TO.C,J1*
X13933333Y57738095D02*
X13933333Y57166666D01*
X13895238Y57052380D01*
X13819047Y56976190D01*
X13704761Y56938095D01*
X13628571Y56938095D01*
X14733333Y56938095D02*
X14276190Y56938095D01*
X14504761Y56938095D02*
X14504761Y57738095D01*
X14428571Y57623809D01*
X14352380Y57547619D01*
X14276190Y57509523D01*
D12*
X4828571Y53121428D02*
X3971428Y53121428D01*
X4400000Y53121428D02*
X4400000Y54621428D01*
X4257142Y54407142D01*
X4114285Y54264285D01*
X3971428Y54192857D01*
G04 #@! TO.C,U10*
D14*
X7509523Y15238095D02*
X7509523Y14590476D01*
X7547619Y14514285D01*
X7585714Y14476190D01*
X7661904Y14438095D01*
X7814285Y14438095D01*
X7890476Y14476190D01*
X7928571Y14514285D01*
X7966666Y14590476D01*
X7966666Y15238095D01*
X8766666Y14438095D02*
X8309523Y14438095D01*
X8538095Y14438095D02*
X8538095Y15238095D01*
X8461904Y15123809D01*
X8385714Y15047619D01*
X8309523Y15009523D01*
X9261904Y15238095D02*
X9338095Y15238095D01*
X9414285Y15200000D01*
X9452380Y15161904D01*
X9490476Y15085714D01*
X9528571Y14933333D01*
X9528571Y14742857D01*
X9490476Y14590476D01*
X9452380Y14514285D01*
X9414285Y14476190D01*
X9338095Y14438095D01*
X9261904Y14438095D01*
X9185714Y14476190D01*
X9147619Y14514285D01*
X9109523Y14590476D01*
X9071428Y14742857D01*
X9071428Y14933333D01*
X9109523Y15085714D01*
X9147619Y15161904D01*
X9185714Y15200000D01*
X9261904Y15238095D01*
G04 #@! TO.C,C6*
X29566666Y18214285D02*
X29528571Y18176190D01*
X29414285Y18138095D01*
X29338095Y18138095D01*
X29223809Y18176190D01*
X29147619Y18252380D01*
X29109523Y18328571D01*
X29071428Y18480952D01*
X29071428Y18595238D01*
X29109523Y18747619D01*
X29147619Y18823809D01*
X29223809Y18900000D01*
X29338095Y18938095D01*
X29414285Y18938095D01*
X29528571Y18900000D01*
X29566666Y18861904D01*
X30252380Y18938095D02*
X30100000Y18938095D01*
X30023809Y18900000D01*
X29985714Y18861904D01*
X29909523Y18747619D01*
X29871428Y18595238D01*
X29871428Y18290476D01*
X29909523Y18214285D01*
X29947619Y18176190D01*
X30023809Y18138095D01*
X30176190Y18138095D01*
X30252380Y18176190D01*
X30290476Y18214285D01*
X30328571Y18290476D01*
X30328571Y18480952D01*
X30290476Y18557142D01*
X30252380Y18595238D01*
X30176190Y18633333D01*
X30023809Y18633333D01*
X29947619Y18595238D01*
X29909523Y18557142D01*
X29871428Y18480952D01*
G04 #@! TO.C,R19*
X32461904Y22885714D02*
X32080952Y22619047D01*
X32461904Y22428571D02*
X31661904Y22428571D01*
X31661904Y22733333D01*
X31700000Y22809523D01*
X31738095Y22847619D01*
X31814285Y22885714D01*
X31928571Y22885714D01*
X32004761Y22847619D01*
X32042857Y22809523D01*
X32080952Y22733333D01*
X32080952Y22428571D01*
X32461904Y23647619D02*
X32461904Y23190476D01*
X32461904Y23419047D02*
X31661904Y23419047D01*
X31776190Y23342857D01*
X31852380Y23266666D01*
X31890476Y23190476D01*
X32461904Y24028571D02*
X32461904Y24180952D01*
X32423809Y24257142D01*
X32385714Y24295238D01*
X32271428Y24371428D01*
X32119047Y24409523D01*
X31814285Y24409523D01*
X31738095Y24371428D01*
X31700000Y24333333D01*
X31661904Y24257142D01*
X31661904Y24104761D01*
X31700000Y24028571D01*
X31738095Y23990476D01*
X31814285Y23952380D01*
X32004761Y23952380D01*
X32080952Y23990476D01*
X32119047Y24028571D01*
X32157142Y24104761D01*
X32157142Y24257142D01*
X32119047Y24333333D01*
X32080952Y24371428D01*
X32004761Y24409523D01*
G04 #@! TO.C,R20*
X30461904Y22885714D02*
X30080952Y22619047D01*
X30461904Y22428571D02*
X29661904Y22428571D01*
X29661904Y22733333D01*
X29700000Y22809523D01*
X29738095Y22847619D01*
X29814285Y22885714D01*
X29928571Y22885714D01*
X30004761Y22847619D01*
X30042857Y22809523D01*
X30080952Y22733333D01*
X30080952Y22428571D01*
X29738095Y23190476D02*
X29700000Y23228571D01*
X29661904Y23304761D01*
X29661904Y23495238D01*
X29700000Y23571428D01*
X29738095Y23609523D01*
X29814285Y23647619D01*
X29890476Y23647619D01*
X30004761Y23609523D01*
X30461904Y23152380D01*
X30461904Y23647619D01*
X29661904Y24142857D02*
X29661904Y24219047D01*
X29700000Y24295238D01*
X29738095Y24333333D01*
X29814285Y24371428D01*
X29966666Y24409523D01*
X30157142Y24409523D01*
X30309523Y24371428D01*
X30385714Y24333333D01*
X30423809Y24295238D01*
X30461904Y24219047D01*
X30461904Y24142857D01*
X30423809Y24066666D01*
X30385714Y24028571D01*
X30309523Y23990476D01*
X30157142Y23952380D01*
X29966666Y23952380D01*
X29814285Y23990476D01*
X29738095Y24028571D01*
X29700000Y24066666D01*
X29661904Y24142857D01*
G04 #@! TO.C,D1*
X29709523Y5738095D02*
X29709523Y6538095D01*
X29900000Y6538095D01*
X30014285Y6500000D01*
X30090476Y6423809D01*
X30128571Y6347619D01*
X30166666Y6195238D01*
X30166666Y6080952D01*
X30128571Y5928571D01*
X30090476Y5852380D01*
X30014285Y5776190D01*
X29900000Y5738095D01*
X29709523Y5738095D01*
X30928571Y5738095D02*
X30471428Y5738095D01*
X30700000Y5738095D02*
X30700000Y6538095D01*
X30623809Y6423809D01*
X30547619Y6347619D01*
X30471428Y6309523D01*
G04 #@! TO.C,R21*
X33882380Y6857142D02*
X33406190Y6523809D01*
X33882380Y6285714D02*
X32882380Y6285714D01*
X32882380Y6666666D01*
X32930000Y6761904D01*
X32977619Y6809523D01*
X33072857Y6857142D01*
X33215714Y6857142D01*
X33310952Y6809523D01*
X33358571Y6761904D01*
X33406190Y6666666D01*
X33406190Y6285714D01*
X32977619Y7238095D02*
X32930000Y7285714D01*
X32882380Y7380952D01*
X32882380Y7619047D01*
X32930000Y7714285D01*
X32977619Y7761904D01*
X33072857Y7809523D01*
X33168095Y7809523D01*
X33310952Y7761904D01*
X33882380Y7190476D01*
X33882380Y7809523D01*
X33882380Y8761904D02*
X33882380Y8190476D01*
X33882380Y8476190D02*
X32882380Y8476190D01*
X33025238Y8380952D01*
X33120476Y8285714D01*
X33168095Y8190476D01*
G04 #@! TD*
M02*
