G04 #@! TF.GenerationSoftware,KiCad,Pcbnew,(5.0.1-3-g963ef8bb5)*
G04 #@! TF.CreationDate,2019-10-31T19:13:48+01:00*
G04 #@! TF.ProjectId,oibus-mini-CCC,6F696275732D6D696E692D4343432E6B,rev?*
G04 #@! TF.SameCoordinates,Original*
G04 #@! TF.FileFunction,Legend,Bot*
G04 #@! TF.FilePolarity,Positive*
%FSLAX46Y46*%
G04 Gerber Fmt 4.6, Leading zero omitted, Abs format (unit mm)*
G04 Created by KiCad (PCBNEW (5.0.1-3-g963ef8bb5)) date 2019 October 31, Thursday 19:13:48*
%MOMM*%
%LPD*%
G01*
G04 APERTURE LIST*
%ADD10C,0.250000*%
%ADD11C,0.200000*%
%ADD12C,0.300000*%
%ADD13C,0.150000*%
%ADD14C,0.010000*%
%ADD15C,0.120000*%
G04 APERTURE END LIST*
D10*
X8314285Y55123809D02*
X8028571Y55885714D01*
X7742857Y55123809D01*
X7647619Y56361904D02*
X8647619Y56361904D01*
X7933333Y56695238D01*
X8647619Y57028571D01*
X7647619Y57028571D01*
X7742857Y58076190D02*
X7695238Y58028571D01*
X7647619Y57885714D01*
X7647619Y57790476D01*
X7695238Y57647619D01*
X7790476Y57552380D01*
X7885714Y57504761D01*
X8076190Y57457142D01*
X8219047Y57457142D01*
X8409523Y57504761D01*
X8504761Y57552380D01*
X8600000Y57647619D01*
X8647619Y57790476D01*
X8647619Y57885714D01*
X8600000Y58028571D01*
X8552380Y58076190D01*
X8647619Y58504761D02*
X7838095Y58504761D01*
X7742857Y58552380D01*
X7695238Y58600000D01*
X7647619Y58695238D01*
X7647619Y58885714D01*
X7695238Y58980952D01*
X7742857Y59028571D01*
X7838095Y59076190D01*
X8647619Y59076190D01*
D11*
X11133333Y49976190D02*
X11133333Y50452380D01*
X10847619Y49880952D02*
X11847619Y50214285D01*
X10847619Y50547619D01*
X10847619Y51023809D02*
X10895238Y50928571D01*
X10990476Y50880952D01*
X11847619Y50880952D01*
X11514285Y51261904D02*
X11514285Y51642857D01*
X11847619Y51404761D02*
X10990476Y51404761D01*
X10895238Y51452380D01*
X10847619Y51547619D01*
X10847619Y51642857D01*
X10942857Y51976190D02*
X10895238Y52023809D01*
X10847619Y51976190D01*
X10895238Y51928571D01*
X10942857Y51976190D01*
X10847619Y51976190D01*
X11466666Y51976190D02*
X11419047Y52023809D01*
X11371428Y51976190D01*
X11419047Y51928571D01*
X11466666Y51976190D01*
X11371428Y51976190D01*
D12*
X31578571Y37221428D02*
X30721428Y37221428D01*
X31150000Y35721428D02*
X31150000Y37221428D01*
X30221428Y35721428D02*
X30221428Y37221428D01*
X30221428Y36507142D02*
X29364285Y36507142D01*
X29364285Y35721428D02*
X29364285Y37221428D01*
X28650000Y36507142D02*
X28150000Y36507142D01*
X27935714Y35721428D02*
X28650000Y35721428D01*
X28650000Y37221428D01*
X27935714Y37221428D01*
X25292857Y35864285D02*
X25364285Y35792857D01*
X25578571Y35721428D01*
X25721428Y35721428D01*
X25935714Y35792857D01*
X26078571Y35935714D01*
X26150000Y36078571D01*
X26221428Y36364285D01*
X26221428Y36578571D01*
X26150000Y36864285D01*
X26078571Y37007142D01*
X25935714Y37150000D01*
X25721428Y37221428D01*
X25578571Y37221428D01*
X25364285Y37150000D01*
X25292857Y37078571D01*
X23935714Y35721428D02*
X24650000Y35721428D01*
X24650000Y37221428D01*
X23435714Y35721428D02*
X23435714Y37221428D01*
X22721428Y35721428D02*
X22721428Y37221428D01*
X22221428Y36150000D01*
X21721428Y37221428D01*
X21721428Y35721428D01*
X21078571Y36150000D02*
X20364285Y36150000D01*
X21221428Y35721428D02*
X20721428Y37221428D01*
X20221428Y35721428D01*
X19935714Y37221428D02*
X19078571Y37221428D01*
X19507142Y35721428D02*
X19507142Y37221428D01*
X18578571Y36507142D02*
X18078571Y36507142D01*
X17864285Y35721428D02*
X18578571Y35721428D01*
X18578571Y37221428D01*
X17864285Y37221428D01*
X15221428Y35864285D02*
X15292857Y35792857D01*
X15507142Y35721428D01*
X15650000Y35721428D01*
X15864285Y35792857D01*
X16007142Y35935714D01*
X16078571Y36078571D01*
X16150000Y36364285D01*
X16150000Y36578571D01*
X16078571Y36864285D01*
X16007142Y37007142D01*
X15864285Y37150000D01*
X15650000Y37221428D01*
X15507142Y37221428D01*
X15292857Y37150000D01*
X15221428Y37078571D01*
X14578571Y35721428D02*
X14578571Y37221428D01*
X14078571Y37221428D02*
X13221428Y37221428D01*
X13650000Y35721428D02*
X13650000Y37221428D01*
X12435714Y36435714D02*
X12435714Y35721428D01*
X12935714Y37221428D02*
X12435714Y36435714D01*
X11935714Y37221428D01*
X9435714Y35864285D02*
X9507142Y35792857D01*
X9721428Y35721428D01*
X9864285Y35721428D01*
X10078571Y35792857D01*
X10221428Y35935714D01*
X10292857Y36078571D01*
X10364285Y36364285D01*
X10364285Y36578571D01*
X10292857Y36864285D01*
X10221428Y37007142D01*
X10078571Y37150000D01*
X9864285Y37221428D01*
X9721428Y37221428D01*
X9507142Y37150000D01*
X9435714Y37078571D01*
X8792857Y37221428D02*
X8792857Y36007142D01*
X8721428Y35864285D01*
X8650000Y35792857D01*
X8507142Y35721428D01*
X8221428Y35721428D01*
X8078571Y35792857D01*
X8007142Y35864285D01*
X7935714Y36007142D01*
X7935714Y37221428D01*
X7221428Y35721428D02*
X7221428Y37221428D01*
X6650000Y37221428D01*
X6507142Y37150000D01*
X6435714Y37078571D01*
X6364285Y36935714D01*
X6364285Y36721428D01*
X6435714Y36578571D01*
X6507142Y36507142D01*
X6650000Y36435714D01*
X7221428Y36435714D01*
D11*
X10647619Y55709523D02*
X10647619Y55233333D01*
X10171428Y55185714D01*
X10219047Y55233333D01*
X10266666Y55328571D01*
X10266666Y55566666D01*
X10219047Y55661904D01*
X10171428Y55709523D01*
X10076190Y55757142D01*
X9838095Y55757142D01*
X9742857Y55709523D01*
X9695238Y55661904D01*
X9647619Y55566666D01*
X9647619Y55328571D01*
X9695238Y55233333D01*
X9742857Y55185714D01*
X10647619Y56042857D02*
X9647619Y56376190D01*
X10647619Y56709523D01*
D10*
X6214285Y55885714D02*
X5928571Y55123809D01*
X5642857Y55885714D01*
X5547619Y56361904D02*
X6547619Y56361904D01*
X5833333Y56695238D01*
X6547619Y57028571D01*
X5547619Y57028571D01*
X5642857Y58076190D02*
X5595238Y58028571D01*
X5547619Y57885714D01*
X5547619Y57790476D01*
X5595238Y57647619D01*
X5690476Y57552380D01*
X5785714Y57504761D01*
X5976190Y57457142D01*
X6119047Y57457142D01*
X6309523Y57504761D01*
X6404761Y57552380D01*
X6500000Y57647619D01*
X6547619Y57790476D01*
X6547619Y57885714D01*
X6500000Y58028571D01*
X6452380Y58076190D01*
X6547619Y58504761D02*
X5738095Y58504761D01*
X5642857Y58552380D01*
X5595238Y58600000D01*
X5547619Y58695238D01*
X5547619Y58885714D01*
X5595238Y58980952D01*
X5642857Y59028571D01*
X5738095Y59076190D01*
X6547619Y59076190D01*
D11*
X12500000Y55538095D02*
X12547619Y55442857D01*
X12547619Y55300000D01*
X12500000Y55157142D01*
X12404761Y55061904D01*
X12309523Y55014285D01*
X12119047Y54966666D01*
X11976190Y54966666D01*
X11785714Y55014285D01*
X11690476Y55061904D01*
X11595238Y55157142D01*
X11547619Y55300000D01*
X11547619Y55395238D01*
X11595238Y55538095D01*
X11642857Y55585714D01*
X11976190Y55585714D01*
X11976190Y55395238D01*
X11547619Y56014285D02*
X12547619Y56014285D01*
X11547619Y56585714D01*
X12547619Y56585714D01*
X11547619Y57061904D02*
X12547619Y57061904D01*
X12547619Y57300000D01*
X12500000Y57442857D01*
X12404761Y57538095D01*
X12309523Y57585714D01*
X12119047Y57633333D01*
X11976190Y57633333D01*
X11785714Y57585714D01*
X11690476Y57538095D01*
X11595238Y57442857D01*
X11547619Y57300000D01*
X11547619Y57061904D01*
X35400000Y51714285D02*
X35352380Y51809523D01*
X35352380Y51952380D01*
X35400000Y52095238D01*
X35495238Y52190476D01*
X35590476Y52238095D01*
X35780952Y52285714D01*
X35923809Y52285714D01*
X36114285Y52238095D01*
X36209523Y52190476D01*
X36304761Y52095238D01*
X36352380Y51952380D01*
X36352380Y51857142D01*
X36304761Y51714285D01*
X36257142Y51666666D01*
X35923809Y51666666D01*
X35923809Y51857142D01*
X36352380Y51238095D02*
X35352380Y51238095D01*
X35352380Y50857142D01*
X35400000Y50761904D01*
X35447619Y50714285D01*
X35542857Y50666666D01*
X35685714Y50666666D01*
X35780952Y50714285D01*
X35828571Y50761904D01*
X35876190Y50857142D01*
X35876190Y51238095D01*
X36304761Y50285714D02*
X36352380Y50142857D01*
X36352380Y49904761D01*
X36304761Y49809523D01*
X36257142Y49761904D01*
X36161904Y49714285D01*
X36066666Y49714285D01*
X35971428Y49761904D01*
X35923809Y49809523D01*
X35876190Y49904761D01*
X35828571Y50095238D01*
X35780952Y50190476D01*
X35733333Y50238095D01*
X35638095Y50285714D01*
X35542857Y50285714D01*
X35447619Y50238095D01*
X35400000Y50190476D01*
X35352380Y50095238D01*
X35352380Y49857142D01*
X35400000Y49714285D01*
D10*
X4714285Y3500000D02*
X4828571Y3557142D01*
X5000000Y3557142D01*
X5171428Y3500000D01*
X5285714Y3385714D01*
X5342857Y3271428D01*
X5400000Y3042857D01*
X5400000Y2871428D01*
X5342857Y2642857D01*
X5285714Y2528571D01*
X5171428Y2414285D01*
X5000000Y2357142D01*
X4885714Y2357142D01*
X4714285Y2414285D01*
X4657142Y2471428D01*
X4657142Y2871428D01*
X4885714Y2871428D01*
X4142857Y2357142D02*
X4142857Y3557142D01*
X3457142Y2357142D01*
X3457142Y3557142D01*
X2885714Y2357142D02*
X2885714Y3557142D01*
X2600000Y3557142D01*
X2428571Y3500000D01*
X2314285Y3385714D01*
X2257142Y3271428D01*
X2200000Y3042857D01*
X2200000Y2871428D01*
X2257142Y2642857D01*
X2314285Y2528571D01*
X2428571Y2414285D01*
X2600000Y2357142D01*
X2885714Y2357142D01*
X4928571Y5085714D02*
X4757142Y5028571D01*
X4700000Y4971428D01*
X4642857Y4857142D01*
X4642857Y4685714D01*
X4700000Y4571428D01*
X4757142Y4514285D01*
X4871428Y4457142D01*
X5328571Y4457142D01*
X5328571Y5657142D01*
X4928571Y5657142D01*
X4814285Y5600000D01*
X4757142Y5542857D01*
X4700000Y5428571D01*
X4700000Y5314285D01*
X4757142Y5200000D01*
X4814285Y5142857D01*
X4928571Y5085714D01*
X5328571Y5085714D01*
X4185714Y4800000D02*
X3614285Y4800000D01*
X4300000Y4457142D02*
X3900000Y5657142D01*
X3500000Y4457142D01*
X3271428Y5657142D02*
X2585714Y5657142D01*
X2928571Y4457142D02*
X2928571Y5657142D01*
X2185714Y4914285D02*
X1271428Y4914285D01*
X1728571Y4457142D02*
X1728571Y5371428D01*
D11*
X7595238Y50085714D02*
X7547619Y50228571D01*
X7547619Y50466666D01*
X7595238Y50561904D01*
X7642857Y50609523D01*
X7738095Y50657142D01*
X7833333Y50657142D01*
X7928571Y50609523D01*
X7976190Y50561904D01*
X8023809Y50466666D01*
X8071428Y50276190D01*
X8119047Y50180952D01*
X8166666Y50133333D01*
X8261904Y50085714D01*
X8357142Y50085714D01*
X8452380Y50133333D01*
X8500000Y50180952D01*
X8547619Y50276190D01*
X8547619Y50514285D01*
X8500000Y50657142D01*
X7547619Y51085714D02*
X8547619Y51085714D01*
X8547619Y51323809D01*
X8500000Y51466666D01*
X8404761Y51561904D01*
X8309523Y51609523D01*
X8119047Y51657142D01*
X7976190Y51657142D01*
X7785714Y51609523D01*
X7690476Y51561904D01*
X7595238Y51466666D01*
X7547619Y51323809D01*
X7547619Y51085714D01*
X7833333Y52038095D02*
X7833333Y52514285D01*
X7547619Y51942857D02*
X8547619Y52276190D01*
X7547619Y52609523D01*
X5595238Y50109523D02*
X5547619Y50252380D01*
X5547619Y50490476D01*
X5595238Y50585714D01*
X5642857Y50633333D01*
X5738095Y50680952D01*
X5833333Y50680952D01*
X5928571Y50633333D01*
X5976190Y50585714D01*
X6023809Y50490476D01*
X6071428Y50300000D01*
X6119047Y50204761D01*
X6166666Y50157142D01*
X6261904Y50109523D01*
X6357142Y50109523D01*
X6452380Y50157142D01*
X6500000Y50204761D01*
X6547619Y50300000D01*
X6547619Y50538095D01*
X6500000Y50680952D01*
X5642857Y51680952D02*
X5595238Y51633333D01*
X5547619Y51490476D01*
X5547619Y51395238D01*
X5595238Y51252380D01*
X5690476Y51157142D01*
X5785714Y51109523D01*
X5976190Y51061904D01*
X6119047Y51061904D01*
X6309523Y51109523D01*
X6404761Y51157142D01*
X6500000Y51252380D01*
X6547619Y51395238D01*
X6547619Y51490476D01*
X6500000Y51633333D01*
X6452380Y51680952D01*
X5547619Y52585714D02*
X5547619Y52109523D01*
X6547619Y52109523D01*
X36257142Y21742857D02*
X36304761Y21790476D01*
X36352380Y21933333D01*
X36352380Y22028571D01*
X36304761Y22171428D01*
X36209523Y22266666D01*
X36114285Y22314285D01*
X35923809Y22361904D01*
X35780952Y22361904D01*
X35590476Y22314285D01*
X35495238Y22266666D01*
X35400000Y22171428D01*
X35352380Y22028571D01*
X35352380Y21933333D01*
X35400000Y21790476D01*
X35447619Y21742857D01*
X36066666Y21361904D02*
X36066666Y20885714D01*
X36352380Y21457142D02*
X35352380Y21123809D01*
X36352380Y20790476D01*
X36352380Y20457142D02*
X35352380Y20457142D01*
X36352380Y19885714D01*
X35352380Y19885714D01*
X1195238Y51385714D02*
X1147619Y51480952D01*
X1147619Y51671428D01*
X1195238Y51766666D01*
X1290476Y51814285D01*
X1338095Y51814285D01*
X1433333Y51766666D01*
X1480952Y51671428D01*
X1480952Y51528571D01*
X1528571Y51433333D01*
X1623809Y51385714D01*
X1671428Y51385714D01*
X1766666Y51433333D01*
X1814285Y51528571D01*
X1814285Y51671428D01*
X1766666Y51766666D01*
X1814285Y52671428D02*
X1147619Y52671428D01*
X1814285Y52242857D02*
X1290476Y52242857D01*
X1195238Y52290476D01*
X1147619Y52385714D01*
X1147619Y52528571D01*
X1195238Y52623809D01*
X1242857Y52671428D01*
X1814285Y53147619D02*
X814285Y53147619D01*
X1766666Y53147619D02*
X1814285Y53242857D01*
X1814285Y53433333D01*
X1766666Y53528571D01*
X1719047Y53576190D01*
X1623809Y53623809D01*
X1338095Y53623809D01*
X1242857Y53576190D01*
X1195238Y53528571D01*
X1147619Y53433333D01*
X1147619Y53242857D01*
X1195238Y53147619D01*
X1814285Y54052380D02*
X814285Y54052380D01*
X1766666Y54052380D02*
X1814285Y54147619D01*
X1814285Y54338095D01*
X1766666Y54433333D01*
X1719047Y54480952D01*
X1623809Y54528571D01*
X1338095Y54528571D01*
X1242857Y54480952D01*
X1195238Y54433333D01*
X1147619Y54338095D01*
X1147619Y54147619D01*
X1195238Y54052380D01*
X1147619Y55100000D02*
X1195238Y55004761D01*
X1290476Y54957142D01*
X2147619Y54957142D01*
X1814285Y55385714D02*
X1147619Y55623809D01*
X1814285Y55861904D02*
X1147619Y55623809D01*
X909523Y55528571D01*
X861904Y55480952D01*
X814285Y55385714D01*
D13*
X35695357Y3488095D02*
X35945357Y3869047D01*
X36123928Y3488095D02*
X36123928Y4288095D01*
X35838214Y4288095D01*
X35766785Y4250000D01*
X35731071Y4211904D01*
X35695357Y4135714D01*
X35695357Y4021428D01*
X35731071Y3945238D01*
X35766785Y3907142D01*
X35838214Y3869047D01*
X36123928Y3869047D01*
X35088214Y3526190D02*
X35159642Y3488095D01*
X35302500Y3488095D01*
X35373928Y3526190D01*
X35409642Y3602380D01*
X35409642Y3907142D01*
X35373928Y3983333D01*
X35302500Y4021428D01*
X35159642Y4021428D01*
X35088214Y3983333D01*
X35052500Y3907142D01*
X35052500Y3830952D01*
X35409642Y3754761D01*
X34802500Y4021428D02*
X34623928Y3488095D01*
X34445357Y4021428D01*
X33195357Y3488095D02*
X33623928Y3488095D01*
X33409642Y3488095D02*
X33409642Y4288095D01*
X33481071Y4173809D01*
X33552500Y4097619D01*
X33623928Y4059523D01*
X32838214Y3526190D02*
X32838214Y3488095D01*
X32873928Y3411904D01*
X32909642Y3373809D01*
X31552500Y3488095D02*
X31981071Y3488095D01*
X31766785Y3488095D02*
X31766785Y4288095D01*
X31838214Y4173809D01*
X31909642Y4097619D01*
X31981071Y4059523D01*
X31088214Y4288095D02*
X31016785Y4288095D01*
X30945357Y4250000D01*
X30909642Y4211904D01*
X30873928Y4135714D01*
X30838214Y3983333D01*
X30838214Y3792857D01*
X30873928Y3640476D01*
X30909642Y3564285D01*
X30945357Y3526190D01*
X31016785Y3488095D01*
X31088214Y3488095D01*
X31159642Y3526190D01*
X31195357Y3564285D01*
X31231071Y3640476D01*
X31266785Y3792857D01*
X31266785Y3983333D01*
X31231071Y4135714D01*
X31195357Y4211904D01*
X31159642Y4250000D01*
X31088214Y4288095D01*
X30516785Y3564285D02*
X30481071Y3526190D01*
X30516785Y3488095D01*
X30552499Y3526190D01*
X30516785Y3564285D01*
X30516785Y3488095D01*
X30195357Y4211904D02*
X30159642Y4250000D01*
X30088214Y4288095D01*
X29909642Y4288095D01*
X29838214Y4250000D01*
X29802499Y4211904D01*
X29766785Y4135714D01*
X29766785Y4059523D01*
X29802499Y3945238D01*
X30231071Y3488095D01*
X29766785Y3488095D01*
X29302499Y4288095D02*
X29231071Y4288095D01*
X29159642Y4250000D01*
X29123928Y4211904D01*
X29088214Y4135714D01*
X29052499Y3983333D01*
X29052499Y3792857D01*
X29088214Y3640476D01*
X29123928Y3564285D01*
X29159642Y3526190D01*
X29231071Y3488095D01*
X29302499Y3488095D01*
X29373928Y3526190D01*
X29409642Y3564285D01*
X29445357Y3640476D01*
X29481071Y3792857D01*
X29481071Y3983333D01*
X29445357Y4135714D01*
X29409642Y4211904D01*
X29373928Y4250000D01*
X29302499Y4288095D01*
X28338214Y3488095D02*
X28766785Y3488095D01*
X28552499Y3488095D02*
X28552499Y4288095D01*
X28623928Y4173809D01*
X28695357Y4097619D01*
X28766785Y4059523D01*
X27981071Y3488095D02*
X27838214Y3488095D01*
X27766785Y3526190D01*
X27731071Y3564285D01*
X27659642Y3678571D01*
X27623928Y3830952D01*
X27623928Y4135714D01*
X27659642Y4211904D01*
X27695357Y4250000D01*
X27766785Y4288095D01*
X27909642Y4288095D01*
X27981071Y4250000D01*
X28016785Y4211904D01*
X28052499Y4135714D01*
X28052499Y3945238D01*
X28016785Y3869047D01*
X27981071Y3830952D01*
X27909642Y3792857D01*
X27766785Y3792857D01*
X27695357Y3830952D01*
X27659642Y3869047D01*
X27623928Y3945238D01*
X27266785Y3526190D02*
X27266785Y3488095D01*
X27302499Y3411904D01*
X27338214Y3373809D01*
X25945357Y3488095D02*
X26195357Y3869047D01*
X26373928Y3488095D02*
X26373928Y4288095D01*
X26088214Y4288095D01*
X26016785Y4250000D01*
X25981071Y4211904D01*
X25945357Y4135714D01*
X25945357Y4021428D01*
X25981071Y3945238D01*
X26016785Y3907142D01*
X26088214Y3869047D01*
X26373928Y3869047D01*
X25731071Y4288095D02*
X25302499Y4288095D01*
X25516785Y3488095D02*
X25516785Y4288095D01*
X35873928Y2557142D02*
X36123928Y2557142D01*
X36123928Y2138095D02*
X36123928Y2938095D01*
X35766785Y2938095D01*
X35373928Y2138095D02*
X35445357Y2176190D01*
X35481071Y2214285D01*
X35516785Y2290476D01*
X35516785Y2519047D01*
X35481071Y2595238D01*
X35445357Y2633333D01*
X35373928Y2671428D01*
X35266785Y2671428D01*
X35195357Y2633333D01*
X35159642Y2595238D01*
X35123928Y2519047D01*
X35123928Y2290476D01*
X35159642Y2214285D01*
X35195357Y2176190D01*
X35266785Y2138095D01*
X35373928Y2138095D01*
X34802500Y2138095D02*
X34802500Y2671428D01*
X34802500Y2519047D02*
X34766785Y2595238D01*
X34731071Y2633333D01*
X34659642Y2671428D01*
X34588214Y2671428D01*
X33766785Y2138095D02*
X33766785Y2671428D01*
X33766785Y2519047D02*
X33731071Y2595238D01*
X33695357Y2633333D01*
X33623928Y2671428D01*
X33552500Y2671428D01*
X33016785Y2176190D02*
X33088214Y2138095D01*
X33231071Y2138095D01*
X33302500Y2176190D01*
X33338214Y2252380D01*
X33338214Y2557142D01*
X33302500Y2633333D01*
X33231071Y2671428D01*
X33088214Y2671428D01*
X33016785Y2633333D01*
X32981071Y2557142D01*
X32981071Y2480952D01*
X33338214Y2404761D01*
X32695357Y2176190D02*
X32623928Y2138095D01*
X32481071Y2138095D01*
X32409642Y2176190D01*
X32373928Y2252380D01*
X32373928Y2290476D01*
X32409642Y2366666D01*
X32481071Y2404761D01*
X32588214Y2404761D01*
X32659642Y2442857D01*
X32695357Y2519047D01*
X32695357Y2557142D01*
X32659642Y2633333D01*
X32588214Y2671428D01*
X32481071Y2671428D01*
X32409642Y2633333D01*
X31766785Y2176190D02*
X31838214Y2138095D01*
X31981071Y2138095D01*
X32052500Y2176190D01*
X32088214Y2252380D01*
X32088214Y2557142D01*
X32052500Y2633333D01*
X31981071Y2671428D01*
X31838214Y2671428D01*
X31766785Y2633333D01*
X31731071Y2557142D01*
X31731071Y2480952D01*
X32088214Y2404761D01*
X31088214Y2138095D02*
X31088214Y2557142D01*
X31123928Y2633333D01*
X31195357Y2671428D01*
X31338214Y2671428D01*
X31409642Y2633333D01*
X31088214Y2176190D02*
X31159642Y2138095D01*
X31338214Y2138095D01*
X31409642Y2176190D01*
X31445357Y2252380D01*
X31445357Y2328571D01*
X31409642Y2404761D01*
X31338214Y2442857D01*
X31159642Y2442857D01*
X31088214Y2480952D01*
X30731071Y2138095D02*
X30731071Y2671428D01*
X30731071Y2519047D02*
X30695357Y2595238D01*
X30659642Y2633333D01*
X30588214Y2671428D01*
X30516785Y2671428D01*
X29945357Y2176190D02*
X30016785Y2138095D01*
X30159642Y2138095D01*
X30231071Y2176190D01*
X30266785Y2214285D01*
X30302499Y2290476D01*
X30302499Y2519047D01*
X30266785Y2595238D01*
X30231071Y2633333D01*
X30159642Y2671428D01*
X30016785Y2671428D01*
X29945357Y2633333D01*
X29623928Y2138095D02*
X29623928Y2938095D01*
X29302499Y2138095D02*
X29302499Y2557142D01*
X29338214Y2633333D01*
X29409642Y2671428D01*
X29516785Y2671428D01*
X29588214Y2633333D01*
X29623928Y2595238D01*
X28373928Y2671428D02*
X28373928Y1871428D01*
X28373928Y2633333D02*
X28302499Y2671428D01*
X28159642Y2671428D01*
X28088214Y2633333D01*
X28052499Y2595238D01*
X28016785Y2519047D01*
X28016785Y2290476D01*
X28052499Y2214285D01*
X28088214Y2176190D01*
X28159642Y2138095D01*
X28302499Y2138095D01*
X28373928Y2176190D01*
X27373928Y2671428D02*
X27373928Y2138095D01*
X27695357Y2671428D02*
X27695357Y2252380D01*
X27659642Y2176190D01*
X27588214Y2138095D01*
X27481071Y2138095D01*
X27409642Y2176190D01*
X27373928Y2214285D01*
X27016785Y2138095D02*
X27016785Y2671428D01*
X27016785Y2519047D02*
X26981071Y2595238D01*
X26945357Y2633333D01*
X26873928Y2671428D01*
X26802499Y2671428D01*
X26552499Y2671428D02*
X26552499Y1871428D01*
X26552499Y2633333D02*
X26481071Y2671428D01*
X26338214Y2671428D01*
X26266785Y2633333D01*
X26231071Y2595238D01*
X26195357Y2519047D01*
X26195357Y2290476D01*
X26231071Y2214285D01*
X26266785Y2176190D01*
X26338214Y2138095D01*
X26481071Y2138095D01*
X26552499Y2176190D01*
X25766785Y2138095D02*
X25838214Y2176190D01*
X25873928Y2214285D01*
X25909642Y2290476D01*
X25909642Y2519047D01*
X25873928Y2595238D01*
X25838214Y2633333D01*
X25766785Y2671428D01*
X25659642Y2671428D01*
X25588214Y2633333D01*
X25552499Y2595238D01*
X25516785Y2519047D01*
X25516785Y2290476D01*
X25552499Y2214285D01*
X25588214Y2176190D01*
X25659642Y2138095D01*
X25766785Y2138095D01*
X25231071Y2176190D02*
X25159642Y2138095D01*
X25016785Y2138095D01*
X24945357Y2176190D01*
X24909642Y2252380D01*
X24909642Y2290476D01*
X24945357Y2366666D01*
X25016785Y2404761D01*
X25123928Y2404761D01*
X25195357Y2442857D01*
X25231071Y2519047D01*
X25231071Y2557142D01*
X25195357Y2633333D01*
X25123928Y2671428D01*
X25016785Y2671428D01*
X24945357Y2633333D01*
X24302499Y2176190D02*
X24373928Y2138095D01*
X24516785Y2138095D01*
X24588214Y2176190D01*
X24623928Y2252380D01*
X24623928Y2557142D01*
X24588214Y2633333D01*
X24516785Y2671428D01*
X24373928Y2671428D01*
X24302499Y2633333D01*
X24266785Y2557142D01*
X24266785Y2480952D01*
X24623928Y2404761D01*
X23981071Y2176190D02*
X23909642Y2138095D01*
X23766785Y2138095D01*
X23695357Y2176190D01*
X23659642Y2252380D01*
X23659642Y2290476D01*
X23695357Y2366666D01*
X23766785Y2404761D01*
X23873928Y2404761D01*
X23945357Y2442857D01*
X23981071Y2519047D01*
X23981071Y2557142D01*
X23945357Y2633333D01*
X23873928Y2671428D01*
X23766785Y2671428D01*
X23695357Y2633333D01*
X22659642Y2138095D02*
X22731071Y2176190D01*
X22766785Y2214285D01*
X22802499Y2290476D01*
X22802499Y2519047D01*
X22766785Y2595238D01*
X22731071Y2633333D01*
X22659642Y2671428D01*
X22552499Y2671428D01*
X22481071Y2633333D01*
X22445357Y2595238D01*
X22409642Y2519047D01*
X22409642Y2290476D01*
X22445357Y2214285D01*
X22481071Y2176190D01*
X22552499Y2138095D01*
X22659642Y2138095D01*
X22088214Y2671428D02*
X22088214Y2138095D01*
X22088214Y2595238D02*
X22052499Y2633333D01*
X21981071Y2671428D01*
X21873928Y2671428D01*
X21802499Y2633333D01*
X21766785Y2557142D01*
X21766785Y2138095D01*
X21302499Y2138095D02*
X21373928Y2176190D01*
X21409642Y2252380D01*
X21409642Y2938095D01*
X21088214Y2671428D02*
X20909642Y2138095D01*
X20731071Y2671428D02*
X20909642Y2138095D01*
X20981071Y1947619D01*
X21016785Y1909523D01*
X21088214Y1871428D01*
X20409642Y2176190D02*
X20409642Y2138095D01*
X20445357Y2061904D01*
X20481071Y2023809D01*
X36123928Y1321428D02*
X36123928Y788095D01*
X36123928Y1245238D02*
X36088214Y1283333D01*
X36016785Y1321428D01*
X35909642Y1321428D01*
X35838214Y1283333D01*
X35802500Y1207142D01*
X35802500Y788095D01*
X35338214Y788095D02*
X35409642Y826190D01*
X35445357Y864285D01*
X35481071Y940476D01*
X35481071Y1169047D01*
X35445357Y1245238D01*
X35409642Y1283333D01*
X35338214Y1321428D01*
X35231071Y1321428D01*
X35159642Y1283333D01*
X35123928Y1245238D01*
X35088214Y1169047D01*
X35088214Y940476D01*
X35123928Y864285D01*
X35159642Y826190D01*
X35231071Y788095D01*
X35338214Y788095D01*
X34873928Y1321428D02*
X34588214Y1321428D01*
X34766785Y1588095D02*
X34766785Y902380D01*
X34731071Y826190D01*
X34659642Y788095D01*
X34588214Y788095D01*
X33445357Y788095D02*
X33445357Y1207142D01*
X33481071Y1283333D01*
X33552500Y1321428D01*
X33695357Y1321428D01*
X33766785Y1283333D01*
X33445357Y826190D02*
X33516785Y788095D01*
X33695357Y788095D01*
X33766785Y826190D01*
X33802500Y902380D01*
X33802500Y978571D01*
X33766785Y1054761D01*
X33695357Y1092857D01*
X33516785Y1092857D01*
X33445357Y1130952D01*
X33088214Y1321428D02*
X33088214Y521428D01*
X33088214Y1283333D02*
X33016785Y1321428D01*
X32873928Y1321428D01*
X32802500Y1283333D01*
X32766785Y1245238D01*
X32731071Y1169047D01*
X32731071Y940476D01*
X32766785Y864285D01*
X32802500Y826190D01*
X32873928Y788095D01*
X33016785Y788095D01*
X33088214Y826190D01*
X32409642Y1321428D02*
X32409642Y521428D01*
X32409642Y1283333D02*
X32338214Y1321428D01*
X32195357Y1321428D01*
X32123928Y1283333D01*
X32088214Y1245238D01*
X32052500Y1169047D01*
X32052500Y940476D01*
X32088214Y864285D01*
X32123928Y826190D01*
X32195357Y788095D01*
X32338214Y788095D01*
X32409642Y826190D01*
X31731071Y788095D02*
X31731071Y1321428D01*
X31731071Y1169047D02*
X31695357Y1245238D01*
X31659642Y1283333D01*
X31588214Y1321428D01*
X31516785Y1321428D01*
X31159642Y788095D02*
X31231071Y826190D01*
X31266785Y864285D01*
X31302499Y940476D01*
X31302499Y1169047D01*
X31266785Y1245238D01*
X31231071Y1283333D01*
X31159642Y1321428D01*
X31052499Y1321428D01*
X30981071Y1283333D01*
X30945357Y1245238D01*
X30909642Y1169047D01*
X30909642Y940476D01*
X30945357Y864285D01*
X30981071Y826190D01*
X31052499Y788095D01*
X31159642Y788095D01*
X30659642Y1321428D02*
X30481071Y788095D01*
X30302499Y1321428D01*
X29731071Y826190D02*
X29802499Y788095D01*
X29945357Y788095D01*
X30016785Y826190D01*
X30052499Y902380D01*
X30052499Y1207142D01*
X30016785Y1283333D01*
X29945357Y1321428D01*
X29802499Y1321428D01*
X29731071Y1283333D01*
X29695357Y1207142D01*
X29695357Y1130952D01*
X30052499Y1054761D01*
X29052499Y788095D02*
X29052499Y1588095D01*
X29052499Y826190D02*
X29123928Y788095D01*
X29266785Y788095D01*
X29338214Y826190D01*
X29373928Y864285D01*
X29409642Y940476D01*
X29409642Y1169047D01*
X29373928Y1245238D01*
X29338214Y1283333D01*
X29266785Y1321428D01*
X29123928Y1321428D01*
X29052499Y1283333D01*
X28231071Y1321428D02*
X27945357Y1321428D01*
X28123928Y788095D02*
X28123928Y1473809D01*
X28088214Y1550000D01*
X28016785Y1588095D01*
X27945357Y1588095D01*
X27588214Y788095D02*
X27659642Y826190D01*
X27695357Y864285D01*
X27731071Y940476D01*
X27731071Y1169047D01*
X27695357Y1245238D01*
X27659642Y1283333D01*
X27588214Y1321428D01*
X27481071Y1321428D01*
X27409642Y1283333D01*
X27373928Y1245238D01*
X27338214Y1169047D01*
X27338214Y940476D01*
X27373928Y864285D01*
X27409642Y826190D01*
X27481071Y788095D01*
X27588214Y788095D01*
X27016785Y788095D02*
X27016785Y1321428D01*
X27016785Y1169047D02*
X26981071Y1245238D01*
X26945357Y1283333D01*
X26873928Y1321428D01*
X26802500Y1321428D01*
X25981071Y788095D02*
X25981071Y1321428D01*
X25981071Y1169047D02*
X25945357Y1245238D01*
X25909642Y1283333D01*
X25838214Y1321428D01*
X25766785Y1321428D01*
X25231071Y826190D02*
X25302500Y788095D01*
X25445357Y788095D01*
X25516785Y826190D01*
X25552500Y902380D01*
X25552500Y1207142D01*
X25516785Y1283333D01*
X25445357Y1321428D01*
X25302500Y1321428D01*
X25231071Y1283333D01*
X25195357Y1207142D01*
X25195357Y1130952D01*
X25552500Y1054761D01*
X24909642Y826190D02*
X24838214Y788095D01*
X24695357Y788095D01*
X24623928Y826190D01*
X24588214Y902380D01*
X24588214Y940476D01*
X24623928Y1016666D01*
X24695357Y1054761D01*
X24802500Y1054761D01*
X24873928Y1092857D01*
X24909642Y1169047D01*
X24909642Y1207142D01*
X24873928Y1283333D01*
X24802500Y1321428D01*
X24695357Y1321428D01*
X24623928Y1283333D01*
X23945357Y788095D02*
X23945357Y1207142D01*
X23981071Y1283333D01*
X24052500Y1321428D01*
X24195357Y1321428D01*
X24266785Y1283333D01*
X23945357Y826190D02*
X24016785Y788095D01*
X24195357Y788095D01*
X24266785Y826190D01*
X24302500Y902380D01*
X24302500Y978571D01*
X24266785Y1054761D01*
X24195357Y1092857D01*
X24016785Y1092857D01*
X23945357Y1130952D01*
X23481071Y788095D02*
X23552500Y826190D01*
X23588214Y902380D01*
X23588214Y1588095D01*
X22909642Y826190D02*
X22981071Y788095D01*
X23123928Y788095D01*
X23195357Y826190D01*
X23231071Y902380D01*
X23231071Y1207142D01*
X23195357Y1283333D01*
X23123928Y1321428D01*
X22981071Y1321428D01*
X22909642Y1283333D01*
X22873928Y1207142D01*
X22873928Y1130952D01*
X23231071Y1054761D01*
X22552500Y864285D02*
X22516785Y826190D01*
X22552500Y788095D01*
X22588214Y826190D01*
X22552500Y864285D01*
X22552500Y788095D01*
D11*
X27814285Y33133333D02*
X27338095Y33133333D01*
X27909523Y32847619D02*
X27576190Y33847619D01*
X27242857Y32847619D01*
X26909523Y32847619D02*
X26909523Y33514285D01*
X26909523Y33847619D02*
X26957142Y33800000D01*
X26909523Y33752380D01*
X26861904Y33800000D01*
X26909523Y33847619D01*
X26909523Y33752380D01*
X26433333Y32847619D02*
X26433333Y33514285D01*
X26433333Y33323809D02*
X26385714Y33419047D01*
X26338095Y33466666D01*
X26242857Y33514285D01*
X26147619Y33514285D01*
X24385714Y32752380D02*
X24480952Y32800000D01*
X24576190Y32895238D01*
X24719047Y33038095D01*
X24814285Y33085714D01*
X24909523Y33085714D01*
X24861904Y32847619D02*
X24957142Y32895238D01*
X25052380Y32990476D01*
X25100000Y33180952D01*
X25100000Y33514285D01*
X25052380Y33704761D01*
X24957142Y33800000D01*
X24861904Y33847619D01*
X24671428Y33847619D01*
X24576190Y33800000D01*
X24480952Y33704761D01*
X24433333Y33514285D01*
X24433333Y33180952D01*
X24480952Y32990476D01*
X24576190Y32895238D01*
X24671428Y32847619D01*
X24861904Y32847619D01*
X23576190Y33514285D02*
X23576190Y32847619D01*
X24004761Y33514285D02*
X24004761Y32990476D01*
X23957142Y32895238D01*
X23861904Y32847619D01*
X23719047Y32847619D01*
X23623809Y32895238D01*
X23576190Y32942857D01*
X22671428Y32847619D02*
X22671428Y33371428D01*
X22719047Y33466666D01*
X22814285Y33514285D01*
X23004761Y33514285D01*
X23100000Y33466666D01*
X22671428Y32895238D02*
X22766666Y32847619D01*
X23004761Y32847619D01*
X23100000Y32895238D01*
X23147619Y32990476D01*
X23147619Y33085714D01*
X23100000Y33180952D01*
X23004761Y33228571D01*
X22766666Y33228571D01*
X22671428Y33276190D01*
X22052380Y32847619D02*
X22147619Y32895238D01*
X22195238Y32990476D01*
X22195238Y33847619D01*
X21671428Y32847619D02*
X21671428Y33514285D01*
X21671428Y33847619D02*
X21719047Y33800000D01*
X21671428Y33752380D01*
X21623809Y33800000D01*
X21671428Y33847619D01*
X21671428Y33752380D01*
X21338095Y33514285D02*
X20957142Y33514285D01*
X21195238Y33847619D02*
X21195238Y32990476D01*
X21147619Y32895238D01*
X21052380Y32847619D01*
X20957142Y32847619D01*
X20719047Y33514285D02*
X20480952Y32847619D01*
X20242857Y33514285D02*
X20480952Y32847619D01*
X20576190Y32609523D01*
X20623809Y32561904D01*
X20719047Y32514285D01*
X19147619Y32895238D02*
X19004761Y32847619D01*
X18766666Y32847619D01*
X18671428Y32895238D01*
X18623809Y32942857D01*
X18576190Y33038095D01*
X18576190Y33133333D01*
X18623809Y33228571D01*
X18671428Y33276190D01*
X18766666Y33323809D01*
X18957142Y33371428D01*
X19052380Y33419047D01*
X19100000Y33466666D01*
X19147619Y33561904D01*
X19147619Y33657142D01*
X19100000Y33752380D01*
X19052380Y33800000D01*
X18957142Y33847619D01*
X18719047Y33847619D01*
X18576190Y33800000D01*
X17766666Y32895238D02*
X17861904Y32847619D01*
X18052380Y32847619D01*
X18147619Y32895238D01*
X18195238Y32990476D01*
X18195238Y33371428D01*
X18147619Y33466666D01*
X18052380Y33514285D01*
X17861904Y33514285D01*
X17766666Y33466666D01*
X17719047Y33371428D01*
X17719047Y33276190D01*
X18195238Y33180952D01*
X17290476Y33514285D02*
X17290476Y32847619D01*
X17290476Y33419047D02*
X17242857Y33466666D01*
X17147619Y33514285D01*
X17004761Y33514285D01*
X16909523Y33466666D01*
X16861904Y33371428D01*
X16861904Y32847619D01*
X16433333Y32895238D02*
X16338095Y32847619D01*
X16147619Y32847619D01*
X16052380Y32895238D01*
X16004761Y32990476D01*
X16004761Y33038095D01*
X16052380Y33133333D01*
X16147619Y33180952D01*
X16290476Y33180952D01*
X16385714Y33228571D01*
X16433333Y33323809D01*
X16433333Y33371428D01*
X16385714Y33466666D01*
X16290476Y33514285D01*
X16147619Y33514285D01*
X16052380Y33466666D01*
X15433333Y32847619D02*
X15528571Y32895238D01*
X15576190Y32942857D01*
X15623809Y33038095D01*
X15623809Y33323809D01*
X15576190Y33419047D01*
X15528571Y33466666D01*
X15433333Y33514285D01*
X15290476Y33514285D01*
X15195238Y33466666D01*
X15147619Y33419047D01*
X15100000Y33323809D01*
X15100000Y33038095D01*
X15147619Y32942857D01*
X15195238Y32895238D01*
X15290476Y32847619D01*
X15433333Y32847619D01*
X14671428Y32847619D02*
X14671428Y33514285D01*
X14671428Y33323809D02*
X14623809Y33419047D01*
X14576190Y33466666D01*
X14480952Y33514285D01*
X14385714Y33514285D01*
X12957142Y33371428D02*
X12814285Y33323809D01*
X12766666Y33276190D01*
X12719047Y33180952D01*
X12719047Y33038095D01*
X12766666Y32942857D01*
X12814285Y32895238D01*
X12909523Y32847619D01*
X13290476Y32847619D01*
X13290476Y33847619D01*
X12957142Y33847619D01*
X12861904Y33800000D01*
X12814285Y33752380D01*
X12766666Y33657142D01*
X12766666Y33561904D01*
X12814285Y33466666D01*
X12861904Y33419047D01*
X12957142Y33371428D01*
X13290476Y33371428D01*
X12147619Y32847619D02*
X12242857Y32895238D01*
X12290476Y32942857D01*
X12338095Y33038095D01*
X12338095Y33323809D01*
X12290476Y33419047D01*
X12242857Y33466666D01*
X12147619Y33514285D01*
X12004761Y33514285D01*
X11909523Y33466666D01*
X11861904Y33419047D01*
X11814285Y33323809D01*
X11814285Y33038095D01*
X11861904Y32942857D01*
X11909523Y32895238D01*
X12004761Y32847619D01*
X12147619Y32847619D01*
X10957142Y32847619D02*
X10957142Y33371428D01*
X11004761Y33466666D01*
X11100000Y33514285D01*
X11290476Y33514285D01*
X11385714Y33466666D01*
X10957142Y32895238D02*
X11052380Y32847619D01*
X11290476Y32847619D01*
X11385714Y32895238D01*
X11433333Y32990476D01*
X11433333Y33085714D01*
X11385714Y33180952D01*
X11290476Y33228571D01*
X11052380Y33228571D01*
X10957142Y33276190D01*
X10480952Y32847619D02*
X10480952Y33514285D01*
X10480952Y33323809D02*
X10433333Y33419047D01*
X10385714Y33466666D01*
X10290476Y33514285D01*
X10195238Y33514285D01*
X9433333Y32847619D02*
X9433333Y33847619D01*
X9433333Y32895238D02*
X9528571Y32847619D01*
X9719047Y32847619D01*
X9814285Y32895238D01*
X9861904Y32942857D01*
X9909523Y33038095D01*
X9909523Y33323809D01*
X9861904Y33419047D01*
X9814285Y33466666D01*
X9719047Y33514285D01*
X9528571Y33514285D01*
X9433333Y33466666D01*
X25885714Y29447619D02*
X25885714Y30447619D01*
X25552380Y29733333D01*
X25219047Y30447619D01*
X25219047Y29447619D01*
X24314285Y29447619D02*
X24314285Y29971428D01*
X24361904Y30066666D01*
X24457142Y30114285D01*
X24647619Y30114285D01*
X24742857Y30066666D01*
X24314285Y29495238D02*
X24409523Y29447619D01*
X24647619Y29447619D01*
X24742857Y29495238D01*
X24790476Y29590476D01*
X24790476Y29685714D01*
X24742857Y29780952D01*
X24647619Y29828571D01*
X24409523Y29828571D01*
X24314285Y29876190D01*
X23409523Y29447619D02*
X23409523Y30447619D01*
X23409523Y29495238D02*
X23504761Y29447619D01*
X23695238Y29447619D01*
X23790476Y29495238D01*
X23838095Y29542857D01*
X23885714Y29638095D01*
X23885714Y29923809D01*
X23838095Y30019047D01*
X23790476Y30066666D01*
X23695238Y30114285D01*
X23504761Y30114285D01*
X23409523Y30066666D01*
X22552380Y29495238D02*
X22647619Y29447619D01*
X22838095Y29447619D01*
X22933333Y29495238D01*
X22980952Y29590476D01*
X22980952Y29971428D01*
X22933333Y30066666D01*
X22838095Y30114285D01*
X22647619Y30114285D01*
X22552380Y30066666D01*
X22504761Y29971428D01*
X22504761Y29876190D01*
X22980952Y29780952D01*
X21409523Y30114285D02*
X21219047Y29447619D01*
X21028571Y29923809D01*
X20838095Y29447619D01*
X20647619Y30114285D01*
X20266666Y29447619D02*
X20266666Y30114285D01*
X20266666Y30447619D02*
X20314285Y30400000D01*
X20266666Y30352380D01*
X20219047Y30400000D01*
X20266666Y30447619D01*
X20266666Y30352380D01*
X19933333Y30114285D02*
X19552380Y30114285D01*
X19790476Y30447619D02*
X19790476Y29590476D01*
X19742857Y29495238D01*
X19647619Y29447619D01*
X19552380Y29447619D01*
X19219047Y29447619D02*
X19219047Y30447619D01*
X18790476Y29447619D02*
X18790476Y29971428D01*
X18838095Y30066666D01*
X18933333Y30114285D01*
X19076190Y30114285D01*
X19171428Y30066666D01*
X19219047Y30019047D01*
X17552380Y29447619D02*
X17552380Y30447619D01*
X16980952Y29447619D02*
X17409523Y30019047D01*
X16980952Y30447619D02*
X17552380Y29876190D01*
X16552380Y29447619D02*
X16552380Y30114285D01*
X16552380Y30447619D02*
X16600000Y30400000D01*
X16552380Y30352380D01*
X16504761Y30400000D01*
X16552380Y30447619D01*
X16552380Y30352380D01*
X15504761Y29542857D02*
X15552380Y29495238D01*
X15695238Y29447619D01*
X15790476Y29447619D01*
X15933333Y29495238D01*
X16028571Y29590476D01*
X16076190Y29685714D01*
X16123809Y29876190D01*
X16123809Y30019047D01*
X16076190Y30209523D01*
X16028571Y30304761D01*
X15933333Y30400000D01*
X15790476Y30447619D01*
X15695238Y30447619D01*
X15552380Y30400000D01*
X15504761Y30352380D01*
X14647619Y29447619D02*
X14647619Y29971428D01*
X14695238Y30066666D01*
X14790476Y30114285D01*
X14980952Y30114285D01*
X15076190Y30066666D01*
X14647619Y29495238D02*
X14742857Y29447619D01*
X14980952Y29447619D01*
X15076190Y29495238D01*
X15123809Y29590476D01*
X15123809Y29685714D01*
X15076190Y29780952D01*
X14980952Y29828571D01*
X14742857Y29828571D01*
X14647619Y29876190D01*
X13742857Y29447619D02*
X13742857Y30447619D01*
X13742857Y29495238D02*
X13838095Y29447619D01*
X14028571Y29447619D01*
X14123809Y29495238D01*
X14171428Y29542857D01*
X14219047Y29638095D01*
X14219047Y29923809D01*
X14171428Y30019047D01*
X14123809Y30066666D01*
X14028571Y30114285D01*
X13838095Y30114285D01*
X13742857Y30066666D01*
X12504761Y29447619D02*
X12504761Y30447619D01*
X12504761Y30066666D02*
X12409523Y30114285D01*
X12219047Y30114285D01*
X12123809Y30066666D01*
X12076190Y30019047D01*
X12028571Y29923809D01*
X12028571Y29638095D01*
X12076190Y29542857D01*
X12123809Y29495238D01*
X12219047Y29447619D01*
X12409523Y29447619D01*
X12504761Y29495238D01*
X11695238Y30114285D02*
X11457142Y29447619D01*
X11219047Y30114285D02*
X11457142Y29447619D01*
X11552380Y29209523D01*
X11600000Y29161904D01*
X11695238Y29114285D01*
X25719047Y28747619D02*
X25528571Y28747619D01*
X25433333Y28700000D01*
X25338095Y28604761D01*
X25290476Y28414285D01*
X25290476Y28080952D01*
X25338095Y27890476D01*
X25433333Y27795238D01*
X25528571Y27747619D01*
X25719047Y27747619D01*
X25814285Y27795238D01*
X25909523Y27890476D01*
X25957142Y28080952D01*
X25957142Y28414285D01*
X25909523Y28604761D01*
X25814285Y28700000D01*
X25719047Y28747619D01*
X24433333Y27795238D02*
X24528571Y27747619D01*
X24719047Y27747619D01*
X24814285Y27795238D01*
X24861904Y27842857D01*
X24909523Y27938095D01*
X24909523Y28223809D01*
X24861904Y28319047D01*
X24814285Y28366666D01*
X24719047Y28414285D01*
X24528571Y28414285D01*
X24433333Y28366666D01*
X24147619Y28414285D02*
X23766666Y28414285D01*
X24004761Y28747619D02*
X24004761Y27890476D01*
X23957142Y27795238D01*
X23861904Y27747619D01*
X23766666Y27747619D01*
X23004761Y27747619D02*
X23004761Y28271428D01*
X23052380Y28366666D01*
X23147619Y28414285D01*
X23338095Y28414285D01*
X23433333Y28366666D01*
X23004761Y27795238D02*
X23100000Y27747619D01*
X23338095Y27747619D01*
X23433333Y27795238D01*
X23480952Y27890476D01*
X23480952Y27985714D01*
X23433333Y28080952D01*
X23338095Y28128571D01*
X23100000Y28128571D01*
X23004761Y28176190D01*
X22528571Y28414285D02*
X22528571Y27747619D01*
X22528571Y28319047D02*
X22480952Y28366666D01*
X22385714Y28414285D01*
X22242857Y28414285D01*
X22147619Y28366666D01*
X22100000Y28271428D01*
X22100000Y27747619D01*
X21623809Y27747619D02*
X21623809Y28414285D01*
X21623809Y28747619D02*
X21671428Y28700000D01*
X21623809Y28652380D01*
X21576190Y28700000D01*
X21623809Y28747619D01*
X21623809Y28652380D01*
X21195238Y27795238D02*
X21100000Y27747619D01*
X20909523Y27747619D01*
X20814285Y27795238D01*
X20766666Y27890476D01*
X20766666Y27938095D01*
X20814285Y28033333D01*
X20909523Y28080952D01*
X21052380Y28080952D01*
X21147619Y28128571D01*
X21195238Y28223809D01*
X21195238Y28271428D01*
X21147619Y28366666D01*
X21052380Y28414285D01*
X20909523Y28414285D01*
X20814285Y28366666D01*
X19576190Y27747619D02*
X19576190Y28747619D01*
X19100000Y28414285D02*
X19100000Y27747619D01*
X19100000Y28319047D02*
X19052380Y28366666D01*
X18957142Y28414285D01*
X18814285Y28414285D01*
X18719047Y28366666D01*
X18671428Y28271428D01*
X18671428Y27747619D01*
X18242857Y27795238D02*
X18147619Y27747619D01*
X17957142Y27747619D01*
X17861904Y27795238D01*
X17814285Y27890476D01*
X17814285Y27938095D01*
X17861904Y28033333D01*
X17957142Y28080952D01*
X18100000Y28080952D01*
X18195238Y28128571D01*
X18242857Y28223809D01*
X18242857Y28271428D01*
X18195238Y28366666D01*
X18100000Y28414285D01*
X17957142Y28414285D01*
X17861904Y28366666D01*
X17528571Y28414285D02*
X17147619Y28414285D01*
X17385714Y28747619D02*
X17385714Y27890476D01*
X17338095Y27795238D01*
X17242857Y27747619D01*
X17147619Y27747619D01*
X16814285Y27747619D02*
X16814285Y28414285D01*
X16814285Y28223809D02*
X16766666Y28319047D01*
X16719047Y28366666D01*
X16623809Y28414285D01*
X16528571Y28414285D01*
X15766666Y28414285D02*
X15766666Y27747619D01*
X16195238Y28414285D02*
X16195238Y27890476D01*
X16147619Y27795238D01*
X16052380Y27747619D01*
X15909523Y27747619D01*
X15814285Y27795238D01*
X15766666Y27842857D01*
X15290476Y27747619D02*
X15290476Y28414285D01*
X15290476Y28319047D02*
X15242857Y28366666D01*
X15147619Y28414285D01*
X15004761Y28414285D01*
X14909523Y28366666D01*
X14861904Y28271428D01*
X14861904Y27747619D01*
X14861904Y28271428D02*
X14814285Y28366666D01*
X14719047Y28414285D01*
X14576190Y28414285D01*
X14480952Y28366666D01*
X14433333Y28271428D01*
X14433333Y27747619D01*
X13576190Y27795238D02*
X13671428Y27747619D01*
X13861904Y27747619D01*
X13957142Y27795238D01*
X14004761Y27890476D01*
X14004761Y28271428D01*
X13957142Y28366666D01*
X13861904Y28414285D01*
X13671428Y28414285D01*
X13576190Y28366666D01*
X13528571Y28271428D01*
X13528571Y28176190D01*
X14004761Y28080952D01*
X13100000Y28414285D02*
X13100000Y27747619D01*
X13100000Y28319047D02*
X13052380Y28366666D01*
X12957142Y28414285D01*
X12814285Y28414285D01*
X12719047Y28366666D01*
X12671428Y28271428D01*
X12671428Y27747619D01*
X12338095Y28414285D02*
X11957142Y28414285D01*
X12195238Y28747619D02*
X12195238Y27890476D01*
X12147619Y27795238D01*
X12052380Y27747619D01*
X11957142Y27747619D01*
X11671428Y27795238D02*
X11576190Y27747619D01*
X11385714Y27747619D01*
X11290476Y27795238D01*
X11242857Y27890476D01*
X11242857Y27938095D01*
X11290476Y28033333D01*
X11385714Y28080952D01*
X11528571Y28080952D01*
X11623809Y28128571D01*
X11671428Y28223809D01*
X11671428Y28271428D01*
X11623809Y28366666D01*
X11528571Y28414285D01*
X11385714Y28414285D01*
X11290476Y28366666D01*
X24100000Y26714285D02*
X23909523Y26047619D01*
X23719047Y26523809D01*
X23528571Y26047619D01*
X23338095Y26714285D01*
X23052380Y26714285D02*
X22861904Y26047619D01*
X22671428Y26523809D01*
X22480952Y26047619D01*
X22290476Y26714285D01*
X22004761Y26714285D02*
X21814285Y26047619D01*
X21623809Y26523809D01*
X21433333Y26047619D01*
X21242857Y26714285D01*
X20861904Y26142857D02*
X20814285Y26095238D01*
X20861904Y26047619D01*
X20909523Y26095238D01*
X20861904Y26142857D01*
X20861904Y26047619D01*
X20242857Y26047619D02*
X20338095Y26095238D01*
X20385714Y26142857D01*
X20433333Y26238095D01*
X20433333Y26523809D01*
X20385714Y26619047D01*
X20338095Y26666666D01*
X20242857Y26714285D01*
X20100000Y26714285D01*
X20004761Y26666666D01*
X19957142Y26619047D01*
X19909523Y26523809D01*
X19909523Y26238095D01*
X19957142Y26142857D01*
X20004761Y26095238D01*
X20100000Y26047619D01*
X20242857Y26047619D01*
X19052380Y26095238D02*
X19147619Y26047619D01*
X19338095Y26047619D01*
X19433333Y26095238D01*
X19480952Y26142857D01*
X19528571Y26238095D01*
X19528571Y26523809D01*
X19480952Y26619047D01*
X19433333Y26666666D01*
X19338095Y26714285D01*
X19147619Y26714285D01*
X19052380Y26666666D01*
X18766666Y26714285D02*
X18385714Y26714285D01*
X18623809Y27047619D02*
X18623809Y26190476D01*
X18576190Y26095238D01*
X18480952Y26047619D01*
X18385714Y26047619D01*
X17623809Y26047619D02*
X17623809Y26571428D01*
X17671428Y26666666D01*
X17766666Y26714285D01*
X17957142Y26714285D01*
X18052380Y26666666D01*
X17623809Y26095238D02*
X17719047Y26047619D01*
X17957142Y26047619D01*
X18052380Y26095238D01*
X18100000Y26190476D01*
X18100000Y26285714D01*
X18052380Y26380952D01*
X17957142Y26428571D01*
X17719047Y26428571D01*
X17623809Y26476190D01*
X17147619Y26714285D02*
X17147619Y26047619D01*
X17147619Y26619047D02*
X17100000Y26666666D01*
X17004761Y26714285D01*
X16861904Y26714285D01*
X16766666Y26666666D01*
X16719047Y26571428D01*
X16719047Y26047619D01*
X16242857Y26047619D02*
X16242857Y26714285D01*
X16242857Y27047619D02*
X16290476Y27000000D01*
X16242857Y26952380D01*
X16195238Y27000000D01*
X16242857Y27047619D01*
X16242857Y26952380D01*
X15814285Y26095238D02*
X15719047Y26047619D01*
X15528571Y26047619D01*
X15433333Y26095238D01*
X15385714Y26190476D01*
X15385714Y26238095D01*
X15433333Y26333333D01*
X15528571Y26380952D01*
X15671428Y26380952D01*
X15766666Y26428571D01*
X15814285Y26523809D01*
X15814285Y26571428D01*
X15766666Y26666666D01*
X15671428Y26714285D01*
X15528571Y26714285D01*
X15433333Y26666666D01*
X14957142Y26142857D02*
X14909523Y26095238D01*
X14957142Y26047619D01*
X15004761Y26095238D01*
X14957142Y26142857D01*
X14957142Y26047619D01*
X14052380Y26095238D02*
X14147619Y26047619D01*
X14338095Y26047619D01*
X14433333Y26095238D01*
X14480952Y26142857D01*
X14528571Y26238095D01*
X14528571Y26523809D01*
X14480952Y26619047D01*
X14433333Y26666666D01*
X14338095Y26714285D01*
X14147619Y26714285D01*
X14052380Y26666666D01*
X13623809Y26047619D02*
X13623809Y27047619D01*
X13195238Y26047619D02*
X13195238Y26571428D01*
X13242857Y26666666D01*
X13338095Y26714285D01*
X13480952Y26714285D01*
X13576190Y26666666D01*
X13623809Y26619047D01*
D14*
G04 #@! TO.C,B1*
G36*
X12350577Y23292706D02*
X12258315Y23222568D01*
X12203120Y23123634D01*
X12191471Y23010599D01*
X12229844Y22898159D01*
X12266610Y22850114D01*
X12366174Y22786323D01*
X12484748Y22771419D01*
X12600886Y22805346D01*
X12662569Y22851182D01*
X12727992Y22954370D01*
X12741902Y23067309D01*
X12710456Y23174759D01*
X12639812Y23261478D01*
X12536125Y23312227D01*
X12473430Y23319350D01*
X12350577Y23292706D01*
X12350577Y23292706D01*
G37*
X12350577Y23292706D02*
X12258315Y23222568D01*
X12203120Y23123634D01*
X12191471Y23010599D01*
X12229844Y22898159D01*
X12266610Y22850114D01*
X12366174Y22786323D01*
X12484748Y22771419D01*
X12600886Y22805346D01*
X12662569Y22851182D01*
X12727992Y22954370D01*
X12741902Y23067309D01*
X12710456Y23174759D01*
X12639812Y23261478D01*
X12536125Y23312227D01*
X12473430Y23319350D01*
X12350577Y23292706D01*
G36*
X12226150Y21614375D02*
X12224411Y21378688D01*
X12222734Y21158268D01*
X12221200Y20962763D01*
X12219883Y20801818D01*
X12218862Y20685078D01*
X12218213Y20622190D01*
X12218213Y20622188D01*
X12216625Y20503125D01*
X12431170Y20493732D01*
X12545603Y20490205D01*
X12612896Y20495417D01*
X12649293Y20514221D01*
X12671035Y20551467D01*
X12677233Y20567236D01*
X12686014Y20621983D01*
X12693717Y20732439D01*
X12700090Y20890820D01*
X12704885Y21089340D01*
X12707851Y21320215D01*
X12708750Y21548788D01*
X12708750Y22447442D01*
X12589688Y22467122D01*
X12471024Y22481090D01*
X12352169Y22487149D01*
X12351563Y22487151D01*
X12232500Y22487500D01*
X12226150Y21614375D01*
X12226150Y21614375D01*
G37*
X12226150Y21614375D02*
X12224411Y21378688D01*
X12222734Y21158268D01*
X12221200Y20962763D01*
X12219883Y20801818D01*
X12218862Y20685078D01*
X12218213Y20622190D01*
X12218213Y20622188D01*
X12216625Y20503125D01*
X12431170Y20493732D01*
X12545603Y20490205D01*
X12612896Y20495417D01*
X12649293Y20514221D01*
X12671035Y20551467D01*
X12677233Y20567236D01*
X12686014Y20621983D01*
X12693717Y20732439D01*
X12700090Y20890820D01*
X12704885Y21089340D01*
X12707851Y21320215D01*
X12708750Y21548788D01*
X12708750Y22447442D01*
X12589688Y22467122D01*
X12471024Y22481090D01*
X12352169Y22487149D01*
X12351563Y22487151D01*
X12232500Y22487500D01*
X12226150Y21614375D01*
G36*
X13730889Y22513757D02*
X13548189Y22458424D01*
X13399147Y22367222D01*
X13384670Y22354201D01*
X13330426Y22296041D01*
X13287795Y22229862D01*
X13255438Y22147613D01*
X13232016Y22041241D01*
X13216190Y21902694D01*
X13206620Y21723921D01*
X13201967Y21496870D01*
X13200875Y21249250D01*
X13200875Y20503125D01*
X13677125Y20503125D01*
X13693000Y21219020D01*
X13699358Y21482750D01*
X13707444Y21689672D01*
X13720360Y21846465D01*
X13741210Y21959806D01*
X13773094Y22036373D01*
X13819115Y22082843D01*
X13882376Y22105894D01*
X13965978Y22112204D01*
X14073024Y22108451D01*
X14105349Y22106635D01*
X14249302Y22076885D01*
X14367288Y22011407D01*
X14430247Y21939484D01*
X14446673Y21882855D01*
X14460512Y21773343D01*
X14471977Y21608102D01*
X14481281Y21384281D01*
X14486750Y21185750D01*
X14502625Y20503125D01*
X14733272Y20493788D01*
X14865904Y20492302D01*
X14944410Y20501751D01*
X14977399Y20523251D01*
X14978334Y20525538D01*
X14982234Y20566584D01*
X14986325Y20662954D01*
X14990418Y20806472D01*
X14994322Y20988964D01*
X14997846Y21202254D01*
X15000800Y21438167D01*
X15001688Y21527087D01*
X15010625Y22487548D01*
X14781043Y22487524D01*
X14661970Y22486170D01*
X14591508Y22478927D01*
X14554776Y22460979D01*
X14536893Y22427511D01*
X14531169Y22406654D01*
X14511605Y22352023D01*
X14483800Y22351646D01*
X14459127Y22371075D01*
X14311366Y22461880D01*
X14129434Y22515752D01*
X13930290Y22532955D01*
X13730889Y22513757D01*
X13730889Y22513757D01*
G37*
X13730889Y22513757D02*
X13548189Y22458424D01*
X13399147Y22367222D01*
X13384670Y22354201D01*
X13330426Y22296041D01*
X13287795Y22229862D01*
X13255438Y22147613D01*
X13232016Y22041241D01*
X13216190Y21902694D01*
X13206620Y21723921D01*
X13201967Y21496870D01*
X13200875Y21249250D01*
X13200875Y20503125D01*
X13677125Y20503125D01*
X13693000Y21219020D01*
X13699358Y21482750D01*
X13707444Y21689672D01*
X13720360Y21846465D01*
X13741210Y21959806D01*
X13773094Y22036373D01*
X13819115Y22082843D01*
X13882376Y22105894D01*
X13965978Y22112204D01*
X14073024Y22108451D01*
X14105349Y22106635D01*
X14249302Y22076885D01*
X14367288Y22011407D01*
X14430247Y21939484D01*
X14446673Y21882855D01*
X14460512Y21773343D01*
X14471977Y21608102D01*
X14481281Y21384281D01*
X14486750Y21185750D01*
X14502625Y20503125D01*
X14733272Y20493788D01*
X14865904Y20492302D01*
X14944410Y20501751D01*
X14977399Y20523251D01*
X14978334Y20525538D01*
X14982234Y20566584D01*
X14986325Y20662954D01*
X14990418Y20806472D01*
X14994322Y20988964D01*
X14997846Y21202254D01*
X15000800Y21438167D01*
X15001688Y21527087D01*
X15010625Y22487548D01*
X14781043Y22487524D01*
X14661970Y22486170D01*
X14591508Y22478927D01*
X14554776Y22460979D01*
X14536893Y22427511D01*
X14531169Y22406654D01*
X14511605Y22352023D01*
X14483800Y22351646D01*
X14459127Y22371075D01*
X14311366Y22461880D01*
X14129434Y22515752D01*
X13930290Y22532955D01*
X13730889Y22513757D01*
G36*
X11078740Y22529135D02*
X10921871Y22523996D01*
X10764100Y22511772D01*
X10633838Y22494832D01*
X10607438Y22489834D01*
X10511254Y22466813D01*
X10450793Y22437273D01*
X10416092Y22386927D01*
X10397185Y22301486D01*
X10384382Y22170000D01*
X10379934Y22123367D01*
X10381905Y22091550D01*
X10399807Y22073019D01*
X10443153Y22066239D01*
X10521455Y22069678D01*
X10644227Y22081801D01*
X10815620Y22100498D01*
X11014147Y22115692D01*
X11157437Y22111097D01*
X11251007Y22085392D01*
X11300375Y22037258D01*
X11311750Y21981896D01*
X11304591Y21918464D01*
X11275939Y21869644D01*
X11215036Y21827118D01*
X11111121Y21782566D01*
X11005655Y21745254D01*
X10810355Y21672207D01*
X10638993Y21595365D01*
X10505661Y21521480D01*
X10443184Y21475739D01*
X10341298Y21345826D01*
X10281766Y21179840D01*
X10270118Y20995668D01*
X10304283Y20819431D01*
X10382532Y20684274D01*
X10511952Y20579664D01*
X10571521Y20547896D01*
X10716954Y20499868D01*
X10902555Y20471511D01*
X11107629Y20464392D01*
X11311479Y20480080D01*
X11361430Y20488035D01*
X11485994Y20514204D01*
X11608675Y20545938D01*
X11646744Y20557580D01*
X11719035Y20585159D01*
X11759364Y20620080D01*
X11781402Y20681871D01*
X11796073Y20770842D01*
X11805714Y20870508D01*
X11804131Y20943552D01*
X11796509Y20967281D01*
X11755206Y20973365D01*
X11670728Y20966047D01*
X11564836Y20947587D01*
X11419982Y20921370D01*
X11251920Y20897139D01*
X11120336Y20882456D01*
X10994189Y20873181D01*
X10912495Y20875022D01*
X10856786Y20890530D01*
X10808595Y20922257D01*
X10803750Y20926196D01*
X10751427Y20975647D01*
X10744092Y21018331D01*
X10773144Y21080638D01*
X10807873Y21126849D01*
X10864698Y21168635D01*
X10955553Y21212556D01*
X11092374Y21265171D01*
X11139459Y21281971D01*
X11283558Y21336239D01*
X11415372Y21391923D01*
X11516648Y21441016D01*
X11556765Y21465102D01*
X11688627Y21592282D01*
X11773347Y21744351D01*
X11811330Y21909423D01*
X11802978Y22075612D01*
X11748695Y22231033D01*
X11648885Y22363800D01*
X11523240Y22452696D01*
X11436648Y22491705D01*
X11352098Y22515091D01*
X11248887Y22526414D01*
X11106311Y22529234D01*
X11078740Y22529135D01*
X11078740Y22529135D01*
G37*
X11078740Y22529135D02*
X10921871Y22523996D01*
X10764100Y22511772D01*
X10633838Y22494832D01*
X10607438Y22489834D01*
X10511254Y22466813D01*
X10450793Y22437273D01*
X10416092Y22386927D01*
X10397185Y22301486D01*
X10384382Y22170000D01*
X10379934Y22123367D01*
X10381905Y22091550D01*
X10399807Y22073019D01*
X10443153Y22066239D01*
X10521455Y22069678D01*
X10644227Y22081801D01*
X10815620Y22100498D01*
X11014147Y22115692D01*
X11157437Y22111097D01*
X11251007Y22085392D01*
X11300375Y22037258D01*
X11311750Y21981896D01*
X11304591Y21918464D01*
X11275939Y21869644D01*
X11215036Y21827118D01*
X11111121Y21782566D01*
X11005655Y21745254D01*
X10810355Y21672207D01*
X10638993Y21595365D01*
X10505661Y21521480D01*
X10443184Y21475739D01*
X10341298Y21345826D01*
X10281766Y21179840D01*
X10270118Y20995668D01*
X10304283Y20819431D01*
X10382532Y20684274D01*
X10511952Y20579664D01*
X10571521Y20547896D01*
X10716954Y20499868D01*
X10902555Y20471511D01*
X11107629Y20464392D01*
X11311479Y20480080D01*
X11361430Y20488035D01*
X11485994Y20514204D01*
X11608675Y20545938D01*
X11646744Y20557580D01*
X11719035Y20585159D01*
X11759364Y20620080D01*
X11781402Y20681871D01*
X11796073Y20770842D01*
X11805714Y20870508D01*
X11804131Y20943552D01*
X11796509Y20967281D01*
X11755206Y20973365D01*
X11670728Y20966047D01*
X11564836Y20947587D01*
X11419982Y20921370D01*
X11251920Y20897139D01*
X11120336Y20882456D01*
X10994189Y20873181D01*
X10912495Y20875022D01*
X10856786Y20890530D01*
X10808595Y20922257D01*
X10803750Y20926196D01*
X10751427Y20975647D01*
X10744092Y21018331D01*
X10773144Y21080638D01*
X10807873Y21126849D01*
X10864698Y21168635D01*
X10955553Y21212556D01*
X11092374Y21265171D01*
X11139459Y21281971D01*
X11283558Y21336239D01*
X11415372Y21391923D01*
X11516648Y21441016D01*
X11556765Y21465102D01*
X11688627Y21592282D01*
X11773347Y21744351D01*
X11811330Y21909423D01*
X11802978Y22075612D01*
X11748695Y22231033D01*
X11648885Y22363800D01*
X11523240Y22452696D01*
X11436648Y22491705D01*
X11352098Y22515091D01*
X11248887Y22526414D01*
X11106311Y22529234D01*
X11078740Y22529135D01*
G36*
X16113166Y22514065D02*
X15900620Y22459221D01*
X15724480Y22366398D01*
X15639203Y22291720D01*
X15590500Y22234719D01*
X15552410Y22174832D01*
X15523535Y22103520D01*
X15502473Y22012244D01*
X15487824Y21892467D01*
X15478187Y21735649D01*
X15472162Y21533252D01*
X15468347Y21276737D01*
X15468039Y21248243D01*
X15460138Y20503125D01*
X15678944Y20503125D01*
X15797549Y20505508D01*
X15868844Y20515533D01*
X15908934Y20537522D01*
X15931527Y20570876D01*
X15959130Y20616330D01*
X15989406Y20616041D01*
X16036017Y20581366D01*
X16120315Y20536269D01*
X16244516Y20496440D01*
X16385028Y20467862D01*
X16518257Y20456517D01*
X16528251Y20456537D01*
X16617303Y20467724D01*
X16732326Y20495137D01*
X16797654Y20515527D01*
X16985061Y20605059D01*
X17118120Y20726627D01*
X17198672Y20882687D01*
X17228561Y21075696D01*
X17228802Y21090500D01*
X17227950Y21097171D01*
X16734935Y21097171D01*
X16721355Y20987551D01*
X16657621Y20913254D01*
X16547251Y20875669D01*
X16393765Y20876188D01*
X16246236Y20903977D01*
X16105503Y20964089D01*
X16016839Y21060517D01*
X15980123Y21193409D01*
X15979000Y21225666D01*
X15979000Y21352268D01*
X16264897Y21338599D01*
X16455277Y21320849D01*
X16590607Y21286246D01*
X16677943Y21231164D01*
X16724342Y21151979D01*
X16734935Y21097171D01*
X17227950Y21097171D01*
X17203567Y21288029D01*
X17125926Y21451994D01*
X16998326Y21580826D01*
X16823209Y21672958D01*
X16603022Y21726823D01*
X16340208Y21740852D01*
X16223898Y21734974D01*
X15974874Y21715770D01*
X15984875Y21852399D01*
X16020325Y21976882D01*
X16104977Y22062156D01*
X16237910Y22108000D01*
X16418203Y22114188D01*
X16644933Y22080499D01*
X16784427Y22046176D01*
X16933279Y22006027D01*
X17030603Y21985253D01*
X17086243Y21986947D01*
X17110047Y22014198D01*
X17111862Y22070099D01*
X17102994Y22146188D01*
X17082968Y22266592D01*
X17051045Y22341985D01*
X16992607Y22390798D01*
X16893035Y22431462D01*
X16870794Y22438948D01*
X16608098Y22505105D01*
X16352274Y22529752D01*
X16113166Y22514065D01*
X16113166Y22514065D01*
G37*
X16113166Y22514065D02*
X15900620Y22459221D01*
X15724480Y22366398D01*
X15639203Y22291720D01*
X15590500Y22234719D01*
X15552410Y22174832D01*
X15523535Y22103520D01*
X15502473Y22012244D01*
X15487824Y21892467D01*
X15478187Y21735649D01*
X15472162Y21533252D01*
X15468347Y21276737D01*
X15468039Y21248243D01*
X15460138Y20503125D01*
X15678944Y20503125D01*
X15797549Y20505508D01*
X15868844Y20515533D01*
X15908934Y20537522D01*
X15931527Y20570876D01*
X15959130Y20616330D01*
X15989406Y20616041D01*
X16036017Y20581366D01*
X16120315Y20536269D01*
X16244516Y20496440D01*
X16385028Y20467862D01*
X16518257Y20456517D01*
X16528251Y20456537D01*
X16617303Y20467724D01*
X16732326Y20495137D01*
X16797654Y20515527D01*
X16985061Y20605059D01*
X17118120Y20726627D01*
X17198672Y20882687D01*
X17228561Y21075696D01*
X17228802Y21090500D01*
X17227950Y21097171D01*
X16734935Y21097171D01*
X16721355Y20987551D01*
X16657621Y20913254D01*
X16547251Y20875669D01*
X16393765Y20876188D01*
X16246236Y20903977D01*
X16105503Y20964089D01*
X16016839Y21060517D01*
X15980123Y21193409D01*
X15979000Y21225666D01*
X15979000Y21352268D01*
X16264897Y21338599D01*
X16455277Y21320849D01*
X16590607Y21286246D01*
X16677943Y21231164D01*
X16724342Y21151979D01*
X16734935Y21097171D01*
X17227950Y21097171D01*
X17203567Y21288029D01*
X17125926Y21451994D01*
X16998326Y21580826D01*
X16823209Y21672958D01*
X16603022Y21726823D01*
X16340208Y21740852D01*
X16223898Y21734974D01*
X15974874Y21715770D01*
X15984875Y21852399D01*
X16020325Y21976882D01*
X16104977Y22062156D01*
X16237910Y22108000D01*
X16418203Y22114188D01*
X16644933Y22080499D01*
X16784427Y22046176D01*
X16933279Y22006027D01*
X17030603Y21985253D01*
X17086243Y21986947D01*
X17110047Y22014198D01*
X17111862Y22070099D01*
X17102994Y22146188D01*
X17082968Y22266592D01*
X17051045Y22341985D01*
X16992607Y22390798D01*
X16893035Y22431462D01*
X16870794Y22438948D01*
X16608098Y22505105D01*
X16352274Y22529752D01*
X16113166Y22514065D01*
G36*
X17947500Y22487500D02*
X17727535Y22487501D01*
X17507570Y22487501D01*
X17486052Y22315277D01*
X17477655Y22213155D01*
X17479164Y22135567D01*
X17485641Y22108902D01*
X17526236Y22091557D01*
X17612737Y22079346D01*
X17727124Y22074750D01*
X17947500Y22074750D01*
X17946743Y21638188D01*
X17943475Y21392148D01*
X17932798Y21202953D01*
X17911960Y21064116D01*
X17878210Y20969153D01*
X17828798Y20911580D01*
X17760970Y20884911D01*
X17671978Y20882660D01*
X17628211Y20887360D01*
X17537439Y20896388D01*
X17490175Y20887773D01*
X17467457Y20855264D01*
X17460422Y20832041D01*
X17444400Y20737362D01*
X17440834Y20636245D01*
X17449069Y20551261D01*
X17468449Y20504981D01*
X17469956Y20503926D01*
X17539657Y20482674D01*
X17650068Y20470914D01*
X17779085Y20468803D01*
X17904610Y20476497D01*
X18004539Y20494156D01*
X18022517Y20499991D01*
X18144803Y20556648D01*
X18240670Y20629860D01*
X18312972Y20727144D01*
X18364564Y20856018D01*
X18398302Y21024000D01*
X18417040Y21238608D01*
X18423632Y21507361D01*
X18423750Y21556638D01*
X18423750Y22074750D01*
X18612377Y22074750D01*
X18715149Y22078447D01*
X18789131Y22088035D01*
X18814787Y22098563D01*
X18825840Y22140941D01*
X18840069Y22225691D01*
X18850696Y22304938D01*
X18872820Y22487500D01*
X18423750Y22487500D01*
X18423750Y23240869D01*
X18276444Y23261060D01*
X18164732Y23273642D01*
X18063421Y23280698D01*
X18038319Y23281250D01*
X17947500Y23281250D01*
X17947500Y22487500D01*
X17947500Y22487500D01*
G37*
X17947500Y22487500D02*
X17727535Y22487501D01*
X17507570Y22487501D01*
X17486052Y22315277D01*
X17477655Y22213155D01*
X17479164Y22135567D01*
X17485641Y22108902D01*
X17526236Y22091557D01*
X17612737Y22079346D01*
X17727124Y22074750D01*
X17947500Y22074750D01*
X17946743Y21638188D01*
X17943475Y21392148D01*
X17932798Y21202953D01*
X17911960Y21064116D01*
X17878210Y20969153D01*
X17828798Y20911580D01*
X17760970Y20884911D01*
X17671978Y20882660D01*
X17628211Y20887360D01*
X17537439Y20896388D01*
X17490175Y20887773D01*
X17467457Y20855264D01*
X17460422Y20832041D01*
X17444400Y20737362D01*
X17440834Y20636245D01*
X17449069Y20551261D01*
X17468449Y20504981D01*
X17469956Y20503926D01*
X17539657Y20482674D01*
X17650068Y20470914D01*
X17779085Y20468803D01*
X17904610Y20476497D01*
X18004539Y20494156D01*
X18022517Y20499991D01*
X18144803Y20556648D01*
X18240670Y20629860D01*
X18312972Y20727144D01*
X18364564Y20856018D01*
X18398302Y21024000D01*
X18417040Y21238608D01*
X18423632Y21507361D01*
X18423750Y21556638D01*
X18423750Y22074750D01*
X18612377Y22074750D01*
X18715149Y22078447D01*
X18789131Y22088035D01*
X18814787Y22098563D01*
X18825840Y22140941D01*
X18840069Y22225691D01*
X18850696Y22304938D01*
X18872820Y22487500D01*
X18423750Y22487500D01*
X18423750Y23240869D01*
X18276444Y23261060D01*
X18164732Y23273642D01*
X18063421Y23280698D01*
X18038319Y23281250D01*
X17947500Y23281250D01*
X17947500Y22487500D01*
G36*
X19571354Y22523049D02*
X19404358Y22503785D01*
X19255773Y22472597D01*
X19137943Y22431250D01*
X19063212Y22381509D01*
X19043781Y22346474D01*
X19015873Y22188374D01*
X19007262Y22086041D01*
X19017651Y22034841D01*
X19023434Y22029330D01*
X19068151Y22026992D01*
X19153434Y22039910D01*
X19238721Y22059700D01*
X19426801Y22096241D01*
X19617403Y22110354D01*
X19791456Y22102025D01*
X19929888Y22071242D01*
X19956337Y22060206D01*
X20055818Y21992356D01*
X20124175Y21893200D01*
X20165019Y21753844D01*
X20181959Y21565393D01*
X20182912Y21501958D01*
X20173681Y21311493D01*
X20141148Y21167626D01*
X20079734Y21055979D01*
X19983859Y20962174D01*
X19969117Y20950944D01*
X19914201Y20917381D01*
X19849271Y20897535D01*
X19757114Y20888397D01*
X19620520Y20886959D01*
X19603992Y20887120D01*
X19459853Y20892754D01*
X19323921Y20905021D01*
X19220826Y20921533D01*
X19203411Y20925947D01*
X19121892Y20945010D01*
X19069908Y20949225D01*
X19063155Y20946739D01*
X19044460Y20900666D01*
X19029694Y20817278D01*
X19020483Y20718459D01*
X19018451Y20626095D01*
X19025223Y20562071D01*
X19033465Y20546755D01*
X19088820Y20528531D01*
X19189578Y20508447D01*
X19317787Y20488936D01*
X19455494Y20472430D01*
X19584749Y20461364D01*
X19687110Y20458161D01*
X19809343Y20467053D01*
X19949204Y20486578D01*
X20011650Y20498538D01*
X20227895Y20568441D01*
X20399614Y20676906D01*
X20528441Y20826605D01*
X20616012Y21020211D01*
X20663963Y21260396D01*
X20673929Y21549835D01*
X20672989Y21579200D01*
X20664548Y21740015D01*
X20650436Y21858026D01*
X20626470Y21953910D01*
X20588466Y22048347D01*
X20570408Y22086247D01*
X20449388Y22264187D01*
X20282796Y22398762D01*
X20073419Y22487760D01*
X20059364Y22491654D01*
X19911201Y22518749D01*
X19744417Y22528625D01*
X19571354Y22523049D01*
X19571354Y22523049D01*
G37*
X19571354Y22523049D02*
X19404358Y22503785D01*
X19255773Y22472597D01*
X19137943Y22431250D01*
X19063212Y22381509D01*
X19043781Y22346474D01*
X19015873Y22188374D01*
X19007262Y22086041D01*
X19017651Y22034841D01*
X19023434Y22029330D01*
X19068151Y22026992D01*
X19153434Y22039910D01*
X19238721Y22059700D01*
X19426801Y22096241D01*
X19617403Y22110354D01*
X19791456Y22102025D01*
X19929888Y22071242D01*
X19956337Y22060206D01*
X20055818Y21992356D01*
X20124175Y21893200D01*
X20165019Y21753844D01*
X20181959Y21565393D01*
X20182912Y21501958D01*
X20173681Y21311493D01*
X20141148Y21167626D01*
X20079734Y21055979D01*
X19983859Y20962174D01*
X19969117Y20950944D01*
X19914201Y20917381D01*
X19849271Y20897535D01*
X19757114Y20888397D01*
X19620520Y20886959D01*
X19603992Y20887120D01*
X19459853Y20892754D01*
X19323921Y20905021D01*
X19220826Y20921533D01*
X19203411Y20925947D01*
X19121892Y20945010D01*
X19069908Y20949225D01*
X19063155Y20946739D01*
X19044460Y20900666D01*
X19029694Y20817278D01*
X19020483Y20718459D01*
X19018451Y20626095D01*
X19025223Y20562071D01*
X19033465Y20546755D01*
X19088820Y20528531D01*
X19189578Y20508447D01*
X19317787Y20488936D01*
X19455494Y20472430D01*
X19584749Y20461364D01*
X19687110Y20458161D01*
X19809343Y20467053D01*
X19949204Y20486578D01*
X20011650Y20498538D01*
X20227895Y20568441D01*
X20399614Y20676906D01*
X20528441Y20826605D01*
X20616012Y21020211D01*
X20663963Y21260396D01*
X20673929Y21549835D01*
X20672989Y21579200D01*
X20664548Y21740015D01*
X20650436Y21858026D01*
X20626470Y21953910D01*
X20588466Y22048347D01*
X20570408Y22086247D01*
X20449388Y22264187D01*
X20282796Y22398762D01*
X20073419Y22487760D01*
X20059364Y22491654D01*
X19911201Y22518749D01*
X19744417Y22528625D01*
X19571354Y22523049D01*
G36*
X21826289Y22526276D02*
X21761065Y22517367D01*
X21517040Y22453056D01*
X21318793Y22345554D01*
X21165530Y22193921D01*
X21056457Y21997218D01*
X20990780Y21754506D01*
X20971685Y21583403D01*
X20977735Y21310246D01*
X21029795Y21067502D01*
X21125095Y20860443D01*
X21260859Y20694344D01*
X21434315Y20574478D01*
X21521519Y20537862D01*
X21720757Y20489240D01*
X21942151Y20468750D01*
X22157537Y20477619D01*
X22297250Y20504016D01*
X22496696Y20580228D01*
X22653073Y20691262D01*
X22779987Y20848318D01*
X22837000Y20948289D01*
X22886825Y21048143D01*
X22918915Y21128145D01*
X22937087Y21207464D01*
X22945152Y21305274D01*
X22946925Y21440744D01*
X22946877Y21458784D01*
X22454290Y21458784D01*
X22451481Y21332201D01*
X22443521Y21240923D01*
X22442257Y21233574D01*
X22391912Y21103848D01*
X22301845Y20989878D01*
X22190032Y20912793D01*
X22159680Y20901419D01*
X22027146Y20879826D01*
X21881312Y20884917D01*
X21748430Y20913916D01*
X21667823Y20953387D01*
X21579528Y21034194D01*
X21520990Y21131846D01*
X21488120Y21259010D01*
X21476827Y21428355D01*
X21478227Y21540702D01*
X21485322Y21694325D01*
X21497405Y21800027D01*
X21517446Y21873357D01*
X21548411Y21929862D01*
X21553981Y21937577D01*
X21664367Y22042602D01*
X21808691Y22100610D01*
X21963875Y22115572D01*
X22142914Y22097581D01*
X22276976Y22040604D01*
X22370285Y21940138D01*
X22427064Y21791676D01*
X22451320Y21595621D01*
X22454290Y21458784D01*
X22946877Y21458784D01*
X22946767Y21500105D01*
X22935681Y21733235D01*
X22901451Y21919878D01*
X22839458Y22074283D01*
X22745085Y22210702D01*
X22700437Y22260095D01*
X22529366Y22394188D01*
X22319662Y22485164D01*
X22081809Y22530150D01*
X21826289Y22526276D01*
X21826289Y22526276D01*
G37*
X21826289Y22526276D02*
X21761065Y22517367D01*
X21517040Y22453056D01*
X21318793Y22345554D01*
X21165530Y22193921D01*
X21056457Y21997218D01*
X20990780Y21754506D01*
X20971685Y21583403D01*
X20977735Y21310246D01*
X21029795Y21067502D01*
X21125095Y20860443D01*
X21260859Y20694344D01*
X21434315Y20574478D01*
X21521519Y20537862D01*
X21720757Y20489240D01*
X21942151Y20468750D01*
X22157537Y20477619D01*
X22297250Y20504016D01*
X22496696Y20580228D01*
X22653073Y20691262D01*
X22779987Y20848318D01*
X22837000Y20948289D01*
X22886825Y21048143D01*
X22918915Y21128145D01*
X22937087Y21207464D01*
X22945152Y21305274D01*
X22946925Y21440744D01*
X22946877Y21458784D01*
X22454290Y21458784D01*
X22451481Y21332201D01*
X22443521Y21240923D01*
X22442257Y21233574D01*
X22391912Y21103848D01*
X22301845Y20989878D01*
X22190032Y20912793D01*
X22159680Y20901419D01*
X22027146Y20879826D01*
X21881312Y20884917D01*
X21748430Y20913916D01*
X21667823Y20953387D01*
X21579528Y21034194D01*
X21520990Y21131846D01*
X21488120Y21259010D01*
X21476827Y21428355D01*
X21478227Y21540702D01*
X21485322Y21694325D01*
X21497405Y21800027D01*
X21517446Y21873357D01*
X21548411Y21929862D01*
X21553981Y21937577D01*
X21664367Y22042602D01*
X21808691Y22100610D01*
X21963875Y22115572D01*
X22142914Y22097581D01*
X22276976Y22040604D01*
X22370285Y21940138D01*
X22427064Y21791676D01*
X22451320Y21595621D01*
X22454290Y21458784D01*
X22946877Y21458784D01*
X22946767Y21500105D01*
X22935681Y21733235D01*
X22901451Y21919878D01*
X22839458Y22074283D01*
X22745085Y22210702D01*
X22700437Y22260095D01*
X22529366Y22394188D01*
X22319662Y22485164D01*
X22081809Y22530150D01*
X21826289Y22526276D01*
G36*
X22654659Y20111293D02*
X22624335Y20069099D01*
X22619910Y20046341D01*
X22634237Y19967316D01*
X22692493Y19921577D01*
X22725875Y19916723D01*
X22779258Y19932314D01*
X22800091Y19943640D01*
X22829103Y19992793D01*
X22831841Y20046341D01*
X22810387Y20101785D01*
X22754615Y20121165D01*
X22725875Y20122125D01*
X22654659Y20111293D01*
X22654659Y20111293D01*
G37*
X22654659Y20111293D02*
X22624335Y20069099D01*
X22619910Y20046341D01*
X22634237Y19967316D01*
X22692493Y19921577D01*
X22725875Y19916723D01*
X22779258Y19932314D01*
X22800091Y19943640D01*
X22829103Y19992793D01*
X22831841Y20046341D01*
X22810387Y20101785D01*
X22754615Y20121165D01*
X22725875Y20122125D01*
X22654659Y20111293D01*
G36*
X10676313Y19815520D02*
X10633718Y19813886D01*
X10515939Y19807844D01*
X10447320Y19797902D01*
X10413547Y19778317D01*
X10400306Y19743346D01*
X10396983Y19718906D01*
X10394229Y19671005D01*
X10409754Y19646058D01*
X10457922Y19637533D01*
X10553101Y19638901D01*
X10571608Y19639531D01*
X10691556Y19635543D01*
X10750461Y19615196D01*
X10747782Y19581421D01*
X10682976Y19537148D01*
X10597375Y19500353D01*
X10451154Y19426322D01*
X10360387Y19337678D01*
X10327414Y19238972D01*
X10354575Y19134752D01*
X10385726Y19088880D01*
X10439907Y19042312D01*
X10519463Y19017362D01*
X10615913Y19008023D01*
X10725613Y19005889D01*
X10817151Y19010268D01*
X10851375Y19015589D01*
X10927024Y19057306D01*
X10981442Y19124477D01*
X10994250Y19171455D01*
X10971856Y19191296D01*
X10900274Y19198244D01*
X10772901Y19192934D01*
X10772000Y19192870D01*
X10653737Y19186527D01*
X10585792Y19189903D01*
X10555464Y19204906D01*
X10549750Y19226308D01*
X10579905Y19268406D01*
X10664850Y19312577D01*
X10708098Y19328242D01*
X10837039Y19388956D01*
X10934626Y19469807D01*
X10988040Y19558697D01*
X10994250Y19598251D01*
X10975489Y19660169D01*
X10930070Y19734735D01*
X10927405Y19738167D01*
X10887927Y19782421D01*
X10845000Y19806950D01*
X10780501Y19816426D01*
X10676313Y19815520D01*
X10676313Y19815520D01*
G37*
X10676313Y19815520D02*
X10633718Y19813886D01*
X10515939Y19807844D01*
X10447320Y19797902D01*
X10413547Y19778317D01*
X10400306Y19743346D01*
X10396983Y19718906D01*
X10394229Y19671005D01*
X10409754Y19646058D01*
X10457922Y19637533D01*
X10553101Y19638901D01*
X10571608Y19639531D01*
X10691556Y19635543D01*
X10750461Y19615196D01*
X10747782Y19581421D01*
X10682976Y19537148D01*
X10597375Y19500353D01*
X10451154Y19426322D01*
X10360387Y19337678D01*
X10327414Y19238972D01*
X10354575Y19134752D01*
X10385726Y19088880D01*
X10439907Y19042312D01*
X10519463Y19017362D01*
X10615913Y19008023D01*
X10725613Y19005889D01*
X10817151Y19010268D01*
X10851375Y19015589D01*
X10927024Y19057306D01*
X10981442Y19124477D01*
X10994250Y19171455D01*
X10971856Y19191296D01*
X10900274Y19198244D01*
X10772901Y19192934D01*
X10772000Y19192870D01*
X10653737Y19186527D01*
X10585792Y19189903D01*
X10555464Y19204906D01*
X10549750Y19226308D01*
X10579905Y19268406D01*
X10664850Y19312577D01*
X10708098Y19328242D01*
X10837039Y19388956D01*
X10934626Y19469807D01*
X10988040Y19558697D01*
X10994250Y19598251D01*
X10975489Y19660169D01*
X10930070Y19734735D01*
X10927405Y19738167D01*
X10887927Y19782421D01*
X10845000Y19806950D01*
X10780501Y19816426D01*
X10676313Y19815520D01*
G36*
X11682624Y20117822D02*
X11653105Y20093743D01*
X11640165Y20033138D01*
X11635448Y19971313D01*
X11625985Y19879528D01*
X11607060Y19834898D01*
X11569612Y19821083D01*
X11551839Y19820500D01*
X11483384Y19795752D01*
X11459860Y19751491D01*
X11453567Y19673549D01*
X11492785Y19636637D01*
X11551749Y19630000D01*
X11592250Y19626501D01*
X11615431Y19606784D01*
X11626113Y19557023D01*
X11629118Y19463392D01*
X11629250Y19407750D01*
X11629250Y19185500D01*
X11531892Y19185500D01*
X11464486Y19178973D01*
X11442352Y19147506D01*
X11444579Y19098188D01*
X11460185Y19039149D01*
X11502050Y19011384D01*
X11573241Y19001048D01*
X11673368Y19006559D01*
X11751194Y19051708D01*
X11771679Y19071042D01*
X11813266Y19119560D01*
X11837335Y19173703D01*
X11848527Y19252034D01*
X11851479Y19373117D01*
X11851500Y19390432D01*
X11852567Y19512050D01*
X11858584Y19583492D01*
X11873775Y19618077D01*
X11902365Y19629127D01*
X11927479Y19630000D01*
X12001613Y19656172D01*
X12038499Y19731570D01*
X12042000Y19775472D01*
X12013481Y19810568D01*
X11948490Y19820500D01*
X11891759Y19824972D01*
X11862712Y19849546D01*
X11849894Y19910964D01*
X11845303Y19971313D01*
X11836745Y20062316D01*
X11818695Y20106608D01*
X11779499Y20120939D01*
X11740375Y20122125D01*
X11682624Y20117822D01*
X11682624Y20117822D01*
G37*
X11682624Y20117822D02*
X11653105Y20093743D01*
X11640165Y20033138D01*
X11635448Y19971313D01*
X11625985Y19879528D01*
X11607060Y19834898D01*
X11569612Y19821083D01*
X11551839Y19820500D01*
X11483384Y19795752D01*
X11459860Y19751491D01*
X11453567Y19673549D01*
X11492785Y19636637D01*
X11551749Y19630000D01*
X11592250Y19626501D01*
X11615431Y19606784D01*
X11626113Y19557023D01*
X11629118Y19463392D01*
X11629250Y19407750D01*
X11629250Y19185500D01*
X11531892Y19185500D01*
X11464486Y19178973D01*
X11442352Y19147506D01*
X11444579Y19098188D01*
X11460185Y19039149D01*
X11502050Y19011384D01*
X11573241Y19001048D01*
X11673368Y19006559D01*
X11751194Y19051708D01*
X11771679Y19071042D01*
X11813266Y19119560D01*
X11837335Y19173703D01*
X11848527Y19252034D01*
X11851479Y19373117D01*
X11851500Y19390432D01*
X11852567Y19512050D01*
X11858584Y19583492D01*
X11873775Y19618077D01*
X11902365Y19629127D01*
X11927479Y19630000D01*
X12001613Y19656172D01*
X12038499Y19731570D01*
X12042000Y19775472D01*
X12013481Y19810568D01*
X11948490Y19820500D01*
X11891759Y19824972D01*
X11862712Y19849546D01*
X11849894Y19910964D01*
X11845303Y19971313D01*
X11836745Y20062316D01*
X11818695Y20106608D01*
X11779499Y20120939D01*
X11740375Y20122125D01*
X11682624Y20117822D01*
G36*
X13059990Y19810718D02*
X13026517Y19785329D01*
X13026250Y19782400D01*
X13016879Y19760311D01*
X12988150Y19782400D01*
X12936284Y19804203D01*
X12845683Y19817991D01*
X12784080Y19820500D01*
X12679011Y19815503D01*
X12613117Y19794689D01*
X12562469Y19749322D01*
X12551256Y19735511D01*
X12520481Y19689592D01*
X12501576Y19636982D01*
X12492393Y19562662D01*
X12490787Y19451615D01*
X12493389Y19330698D01*
X12502375Y19010875D01*
X12589688Y19000829D01*
X12677000Y18990783D01*
X12680165Y19238954D01*
X12685614Y19410569D01*
X12698740Y19528470D01*
X12722431Y19602262D01*
X12759575Y19641548D01*
X12805285Y19655159D01*
X12891650Y19652980D01*
X12952399Y19617191D01*
X12992366Y19539833D01*
X13016388Y19412943D01*
X13026250Y19291345D01*
X13034716Y19157409D01*
X13044424Y19074175D01*
X13059608Y19028915D01*
X13084503Y19008900D01*
X13122689Y19001480D01*
X13192042Y19002327D01*
X13225876Y19014710D01*
X13234552Y19053489D01*
X13241689Y19142711D01*
X13246574Y19269323D01*
X13248495Y19420274D01*
X13248500Y19428917D01*
X13248500Y19820500D01*
X13137375Y19820500D01*
X13059990Y19810718D01*
X13059990Y19810718D01*
G37*
X13059990Y19810718D02*
X13026517Y19785329D01*
X13026250Y19782400D01*
X13016879Y19760311D01*
X12988150Y19782400D01*
X12936284Y19804203D01*
X12845683Y19817991D01*
X12784080Y19820500D01*
X12679011Y19815503D01*
X12613117Y19794689D01*
X12562469Y19749322D01*
X12551256Y19735511D01*
X12520481Y19689592D01*
X12501576Y19636982D01*
X12492393Y19562662D01*
X12490787Y19451615D01*
X12493389Y19330698D01*
X12502375Y19010875D01*
X12589688Y19000829D01*
X12677000Y18990783D01*
X12680165Y19238954D01*
X12685614Y19410569D01*
X12698740Y19528470D01*
X12722431Y19602262D01*
X12759575Y19641548D01*
X12805285Y19655159D01*
X12891650Y19652980D01*
X12952399Y19617191D01*
X12992366Y19539833D01*
X13016388Y19412943D01*
X13026250Y19291345D01*
X13034716Y19157409D01*
X13044424Y19074175D01*
X13059608Y19028915D01*
X13084503Y19008900D01*
X13122689Y19001480D01*
X13192042Y19002327D01*
X13225876Y19014710D01*
X13234552Y19053489D01*
X13241689Y19142711D01*
X13246574Y19269323D01*
X13248495Y19420274D01*
X13248500Y19428917D01*
X13248500Y19820500D01*
X13137375Y19820500D01*
X13059990Y19810718D01*
G36*
X13995577Y19813905D02*
X13921079Y19787613D01*
X13854603Y19732988D01*
X13800032Y19654742D01*
X13757195Y19551808D01*
X13732745Y19447228D01*
X13733334Y19364041D01*
X13741816Y19342324D01*
X13779968Y19328711D01*
X13865605Y19318357D01*
X13982732Y19312929D01*
X14028249Y19312500D01*
X14149739Y19309723D01*
X14242495Y19302315D01*
X14291891Y19291662D01*
X14296250Y19287100D01*
X14269223Y19233349D01*
X14186607Y19199923D01*
X14046101Y19186021D01*
X14004150Y19185500D01*
X13889446Y19183723D01*
X13824421Y19175655D01*
X13795290Y19157192D01*
X13788270Y19124230D01*
X13788250Y19121215D01*
X13817502Y19057965D01*
X13869692Y19025965D01*
X13968799Y19004837D01*
X14096982Y18997984D01*
X14223584Y19005394D01*
X14315678Y19026118D01*
X14423718Y19102370D01*
X14492657Y19224180D01*
X14518417Y19384136D01*
X14518500Y19394663D01*
X14503609Y19549508D01*
X14296250Y19549508D01*
X14279759Y19521541D01*
X14222684Y19507030D01*
X14117753Y19503000D01*
X14017273Y19504071D01*
X13968935Y19511404D01*
X13961378Y19531179D01*
X13983245Y19569576D01*
X13986454Y19574438D01*
X14045987Y19632479D01*
X14099814Y19655807D01*
X14182618Y19649058D01*
X14255554Y19613544D01*
X14294593Y19562270D01*
X14296250Y19549508D01*
X14503609Y19549508D01*
X14501640Y19569971D01*
X14448018Y19695244D01*
X14353073Y19775180D01*
X14212242Y19814476D01*
X14104885Y19820500D01*
X13995577Y19813905D01*
X13995577Y19813905D01*
G37*
X13995577Y19813905D02*
X13921079Y19787613D01*
X13854603Y19732988D01*
X13800032Y19654742D01*
X13757195Y19551808D01*
X13732745Y19447228D01*
X13733334Y19364041D01*
X13741816Y19342324D01*
X13779968Y19328711D01*
X13865605Y19318357D01*
X13982732Y19312929D01*
X14028249Y19312500D01*
X14149739Y19309723D01*
X14242495Y19302315D01*
X14291891Y19291662D01*
X14296250Y19287100D01*
X14269223Y19233349D01*
X14186607Y19199923D01*
X14046101Y19186021D01*
X14004150Y19185500D01*
X13889446Y19183723D01*
X13824421Y19175655D01*
X13795290Y19157192D01*
X13788270Y19124230D01*
X13788250Y19121215D01*
X13817502Y19057965D01*
X13869692Y19025965D01*
X13968799Y19004837D01*
X14096982Y18997984D01*
X14223584Y19005394D01*
X14315678Y19026118D01*
X14423718Y19102370D01*
X14492657Y19224180D01*
X14518417Y19384136D01*
X14518500Y19394663D01*
X14503609Y19549508D01*
X14296250Y19549508D01*
X14279759Y19521541D01*
X14222684Y19507030D01*
X14117753Y19503000D01*
X14017273Y19504071D01*
X13968935Y19511404D01*
X13961378Y19531179D01*
X13983245Y19569576D01*
X13986454Y19574438D01*
X14045987Y19632479D01*
X14099814Y19655807D01*
X14182618Y19649058D01*
X14255554Y19613544D01*
X14294593Y19562270D01*
X14296250Y19549508D01*
X14503609Y19549508D01*
X14501640Y19569971D01*
X14448018Y19695244D01*
X14353073Y19775180D01*
X14212242Y19814476D01*
X14104885Y19820500D01*
X13995577Y19813905D01*
G36*
X16166127Y19810982D02*
X16137758Y19788048D01*
X16137750Y19787633D01*
X16118315Y19770983D01*
X16076338Y19787633D01*
X15988291Y19812862D01*
X15873812Y19819215D01*
X15761521Y19807521D01*
X15680036Y19778608D01*
X15676344Y19776048D01*
X15620677Y19747786D01*
X15568119Y19765289D01*
X15552087Y19776048D01*
X15458236Y19811448D01*
X15335885Y19820227D01*
X15213681Y19803451D01*
X15120270Y19762185D01*
X15117330Y19759873D01*
X15084169Y19728969D01*
X15062551Y19691735D01*
X15050025Y19634925D01*
X15044137Y19545294D01*
X15042436Y19409598D01*
X15042375Y19355060D01*
X15042375Y19010875D01*
X15232875Y19010875D01*
X15242141Y19294972D01*
X15251265Y19456395D01*
X15268685Y19564062D01*
X15298206Y19627559D01*
X15343634Y19656473D01*
X15387576Y19661264D01*
X15458089Y19653637D01*
X15505889Y19624901D01*
X15536298Y19564466D01*
X15554638Y19461743D01*
X15566233Y19306144D01*
X15566250Y19305816D01*
X15582125Y19010875D01*
X15772625Y19010875D01*
X15781891Y19294972D01*
X15791015Y19456395D01*
X15808435Y19564062D01*
X15837956Y19627559D01*
X15883384Y19656473D01*
X15927326Y19661264D01*
X15997839Y19653637D01*
X16045639Y19624901D01*
X16076048Y19564466D01*
X16094388Y19461743D01*
X16105983Y19306144D01*
X16106000Y19305816D01*
X16114207Y19167814D01*
X16123399Y19080849D01*
X16137503Y19032527D01*
X16160447Y19010454D01*
X16196157Y19002236D01*
X16202439Y19001480D01*
X16271792Y19002327D01*
X16305626Y19014710D01*
X16314302Y19053489D01*
X16321439Y19142711D01*
X16326324Y19269323D01*
X16328245Y19420274D01*
X16328250Y19428917D01*
X16328250Y19820500D01*
X16233000Y19820500D01*
X16166127Y19810982D01*
X16166127Y19810982D01*
G37*
X16166127Y19810982D02*
X16137758Y19788048D01*
X16137750Y19787633D01*
X16118315Y19770983D01*
X16076338Y19787633D01*
X15988291Y19812862D01*
X15873812Y19819215D01*
X15761521Y19807521D01*
X15680036Y19778608D01*
X15676344Y19776048D01*
X15620677Y19747786D01*
X15568119Y19765289D01*
X15552087Y19776048D01*
X15458236Y19811448D01*
X15335885Y19820227D01*
X15213681Y19803451D01*
X15120270Y19762185D01*
X15117330Y19759873D01*
X15084169Y19728969D01*
X15062551Y19691735D01*
X15050025Y19634925D01*
X15044137Y19545294D01*
X15042436Y19409598D01*
X15042375Y19355060D01*
X15042375Y19010875D01*
X15232875Y19010875D01*
X15242141Y19294972D01*
X15251265Y19456395D01*
X15268685Y19564062D01*
X15298206Y19627559D01*
X15343634Y19656473D01*
X15387576Y19661264D01*
X15458089Y19653637D01*
X15505889Y19624901D01*
X15536298Y19564466D01*
X15554638Y19461743D01*
X15566233Y19306144D01*
X15566250Y19305816D01*
X15582125Y19010875D01*
X15772625Y19010875D01*
X15781891Y19294972D01*
X15791015Y19456395D01*
X15808435Y19564062D01*
X15837956Y19627559D01*
X15883384Y19656473D01*
X15927326Y19661264D01*
X15997839Y19653637D01*
X16045639Y19624901D01*
X16076048Y19564466D01*
X16094388Y19461743D01*
X16105983Y19306144D01*
X16106000Y19305816D01*
X16114207Y19167814D01*
X16123399Y19080849D01*
X16137503Y19032527D01*
X16160447Y19010454D01*
X16196157Y19002236D01*
X16202439Y19001480D01*
X16271792Y19002327D01*
X16305626Y19014710D01*
X16314302Y19053489D01*
X16321439Y19142711D01*
X16326324Y19269323D01*
X16328245Y19420274D01*
X16328250Y19428917D01*
X16328250Y19820500D01*
X16233000Y19820500D01*
X16166127Y19810982D01*
G36*
X16894459Y19473359D02*
X16892072Y19325380D01*
X16889715Y19197229D01*
X16887692Y19104520D01*
X16886521Y19066438D01*
X16910265Y19021205D01*
X16969326Y18998603D01*
X17037666Y19004893D01*
X17069250Y19022497D01*
X17129585Y19036428D01*
X17154815Y19025421D01*
X17228974Y19003471D01*
X17334560Y18998987D01*
X17441987Y19011833D01*
X17492987Y19026972D01*
X17553662Y19063674D01*
X17593900Y19122960D01*
X17616667Y19215481D01*
X17624923Y19351891D01*
X17623212Y19495123D01*
X17614125Y19804625D01*
X17526813Y19814672D01*
X17439500Y19824718D01*
X17439067Y19576547D01*
X17436535Y19412051D01*
X17427237Y19300887D01*
X17407604Y19232966D01*
X17374067Y19198200D01*
X17323055Y19186501D01*
X17300860Y19185987D01*
X17216130Y19192081D01*
X17159696Y19216736D01*
X17124730Y19270988D01*
X17104407Y19365878D01*
X17091899Y19512442D01*
X17091129Y19525112D01*
X17082384Y19658619D01*
X17072639Y19741503D01*
X17057302Y19786537D01*
X17031781Y19806498D01*
X16991486Y19814159D01*
X16987063Y19814672D01*
X16899750Y19824718D01*
X16894459Y19473359D01*
X16894459Y19473359D01*
G37*
X16894459Y19473359D02*
X16892072Y19325380D01*
X16889715Y19197229D01*
X16887692Y19104520D01*
X16886521Y19066438D01*
X16910265Y19021205D01*
X16969326Y18998603D01*
X17037666Y19004893D01*
X17069250Y19022497D01*
X17129585Y19036428D01*
X17154815Y19025421D01*
X17228974Y19003471D01*
X17334560Y18998987D01*
X17441987Y19011833D01*
X17492987Y19026972D01*
X17553662Y19063674D01*
X17593900Y19122960D01*
X17616667Y19215481D01*
X17624923Y19351891D01*
X17623212Y19495123D01*
X17614125Y19804625D01*
X17526813Y19814672D01*
X17439500Y19824718D01*
X17439067Y19576547D01*
X17436535Y19412051D01*
X17427237Y19300887D01*
X17407604Y19232966D01*
X17374067Y19198200D01*
X17323055Y19186501D01*
X17300860Y19185987D01*
X17216130Y19192081D01*
X17159696Y19216736D01*
X17124730Y19270988D01*
X17104407Y19365878D01*
X17091899Y19512442D01*
X17091129Y19525112D01*
X17082384Y19658619D01*
X17072639Y19741503D01*
X17057302Y19786537D01*
X17031781Y19806498D01*
X16991486Y19814159D01*
X16987063Y19814672D01*
X16899750Y19824718D01*
X16894459Y19473359D01*
G36*
X18192954Y19817578D02*
X18126198Y19799809D01*
X18101488Y19772875D01*
X18094967Y19702578D01*
X18093550Y19685675D01*
X18119517Y19658271D01*
X18201500Y19655523D01*
X18301170Y19654576D01*
X18370195Y19625906D01*
X18414827Y19560554D01*
X18441316Y19449556D01*
X18455500Y19291345D01*
X18463799Y19157560D01*
X18473223Y19074430D01*
X18488302Y19029201D01*
X18513566Y19009117D01*
X18553545Y19001426D01*
X18558688Y19000829D01*
X18646000Y18990783D01*
X18646000Y19306423D01*
X18647989Y19453671D01*
X18653324Y19587459D01*
X18661061Y19688036D01*
X18665844Y19721282D01*
X18674873Y19786856D01*
X18655407Y19814424D01*
X18591653Y19820437D01*
X18570594Y19820500D01*
X18490756Y19810992D01*
X18455903Y19785991D01*
X18455500Y19782400D01*
X18446129Y19760311D01*
X18417400Y19782400D01*
X18361374Y19809562D01*
X18278952Y19821058D01*
X18192954Y19817578D01*
X18192954Y19817578D01*
G37*
X18192954Y19817578D02*
X18126198Y19799809D01*
X18101488Y19772875D01*
X18094967Y19702578D01*
X18093550Y19685675D01*
X18119517Y19658271D01*
X18201500Y19655523D01*
X18301170Y19654576D01*
X18370195Y19625906D01*
X18414827Y19560554D01*
X18441316Y19449556D01*
X18455500Y19291345D01*
X18463799Y19157560D01*
X18473223Y19074430D01*
X18488302Y19029201D01*
X18513566Y19009117D01*
X18553545Y19001426D01*
X18558688Y19000829D01*
X18646000Y18990783D01*
X18646000Y19306423D01*
X18647989Y19453671D01*
X18653324Y19587459D01*
X18661061Y19688036D01*
X18665844Y19721282D01*
X18674873Y19786856D01*
X18655407Y19814424D01*
X18591653Y19820437D01*
X18570594Y19820500D01*
X18490756Y19810992D01*
X18455903Y19785991D01*
X18455500Y19782400D01*
X18446129Y19760311D01*
X18417400Y19782400D01*
X18361374Y19809562D01*
X18278952Y19821058D01*
X18192954Y19817578D01*
G36*
X19397874Y20117822D02*
X19368355Y20093743D01*
X19355415Y20033138D01*
X19350698Y19971313D01*
X19341235Y19879528D01*
X19322310Y19834898D01*
X19284862Y19821083D01*
X19267089Y19820500D01*
X19198634Y19795752D01*
X19175110Y19751491D01*
X19168817Y19673549D01*
X19208035Y19636637D01*
X19266999Y19630000D01*
X19307500Y19626501D01*
X19330681Y19606784D01*
X19341363Y19557023D01*
X19344368Y19463392D01*
X19344500Y19407750D01*
X19344500Y19185500D01*
X19247142Y19185500D01*
X19179736Y19178973D01*
X19157602Y19147506D01*
X19159829Y19098188D01*
X19175435Y19039149D01*
X19217300Y19011384D01*
X19288491Y19001048D01*
X19388618Y19006559D01*
X19466444Y19051708D01*
X19486929Y19071042D01*
X19528516Y19119560D01*
X19552585Y19173703D01*
X19563777Y19252034D01*
X19566729Y19373117D01*
X19566750Y19390432D01*
X19567817Y19512050D01*
X19573834Y19583492D01*
X19589025Y19618077D01*
X19617615Y19629127D01*
X19642729Y19630000D01*
X19716863Y19656172D01*
X19753749Y19731570D01*
X19757250Y19775472D01*
X19728731Y19810568D01*
X19663740Y19820500D01*
X19607009Y19824972D01*
X19577962Y19849546D01*
X19565144Y19910964D01*
X19560553Y19971313D01*
X19551995Y20062316D01*
X19533945Y20106608D01*
X19494749Y20120939D01*
X19455625Y20122125D01*
X19397874Y20117822D01*
X19397874Y20117822D01*
G37*
X19397874Y20117822D02*
X19368355Y20093743D01*
X19355415Y20033138D01*
X19350698Y19971313D01*
X19341235Y19879528D01*
X19322310Y19834898D01*
X19284862Y19821083D01*
X19267089Y19820500D01*
X19198634Y19795752D01*
X19175110Y19751491D01*
X19168817Y19673549D01*
X19208035Y19636637D01*
X19266999Y19630000D01*
X19307500Y19626501D01*
X19330681Y19606784D01*
X19341363Y19557023D01*
X19344368Y19463392D01*
X19344500Y19407750D01*
X19344500Y19185500D01*
X19247142Y19185500D01*
X19179736Y19178973D01*
X19157602Y19147506D01*
X19159829Y19098188D01*
X19175435Y19039149D01*
X19217300Y19011384D01*
X19288491Y19001048D01*
X19388618Y19006559D01*
X19466444Y19051708D01*
X19486929Y19071042D01*
X19528516Y19119560D01*
X19552585Y19173703D01*
X19563777Y19252034D01*
X19566729Y19373117D01*
X19566750Y19390432D01*
X19567817Y19512050D01*
X19573834Y19583492D01*
X19589025Y19618077D01*
X19617615Y19629127D01*
X19642729Y19630000D01*
X19716863Y19656172D01*
X19753749Y19731570D01*
X19757250Y19775472D01*
X19728731Y19810568D01*
X19663740Y19820500D01*
X19607009Y19824972D01*
X19577962Y19849546D01*
X19565144Y19910964D01*
X19560553Y19971313D01*
X19551995Y20062316D01*
X19533945Y20106608D01*
X19494749Y20120939D01*
X19455625Y20122125D01*
X19397874Y20117822D01*
G36*
X20487063Y19815520D02*
X20444468Y19813886D01*
X20326689Y19807844D01*
X20258070Y19797902D01*
X20224297Y19778317D01*
X20211056Y19743346D01*
X20207733Y19718906D01*
X20204979Y19671005D01*
X20220504Y19646058D01*
X20268672Y19637533D01*
X20363851Y19638901D01*
X20382358Y19639531D01*
X20501709Y19636065D01*
X20559985Y19616675D01*
X20557038Y19583325D01*
X20492719Y19537983D01*
X20393390Y19492957D01*
X20248305Y19415438D01*
X20164899Y19323375D01*
X20142977Y19216519D01*
X20149704Y19175940D01*
X20203570Y19084212D01*
X20308732Y19026022D01*
X20461985Y19002315D01*
X20660127Y19014036D01*
X20685938Y19017742D01*
X20749432Y19034148D01*
X20773684Y19052672D01*
X20781480Y19097939D01*
X20792203Y19141763D01*
X20798160Y19176488D01*
X20784202Y19195247D01*
X20737807Y19201145D01*
X20646451Y19197288D01*
X20585394Y19193059D01*
X20466305Y19186614D01*
X20397595Y19189775D01*
X20366617Y19204411D01*
X20360500Y19226308D01*
X20390655Y19268406D01*
X20475600Y19312577D01*
X20518848Y19328242D01*
X20647789Y19388956D01*
X20745376Y19469807D01*
X20798790Y19558697D01*
X20805000Y19598251D01*
X20786239Y19660169D01*
X20740820Y19734735D01*
X20738155Y19738167D01*
X20698677Y19782421D01*
X20655750Y19806950D01*
X20591251Y19816426D01*
X20487063Y19815520D01*
X20487063Y19815520D01*
G37*
X20487063Y19815520D02*
X20444468Y19813886D01*
X20326689Y19807844D01*
X20258070Y19797902D01*
X20224297Y19778317D01*
X20211056Y19743346D01*
X20207733Y19718906D01*
X20204979Y19671005D01*
X20220504Y19646058D01*
X20268672Y19637533D01*
X20363851Y19638901D01*
X20382358Y19639531D01*
X20501709Y19636065D01*
X20559985Y19616675D01*
X20557038Y19583325D01*
X20492719Y19537983D01*
X20393390Y19492957D01*
X20248305Y19415438D01*
X20164899Y19323375D01*
X20142977Y19216519D01*
X20149704Y19175940D01*
X20203570Y19084212D01*
X20308732Y19026022D01*
X20461985Y19002315D01*
X20660127Y19014036D01*
X20685938Y19017742D01*
X20749432Y19034148D01*
X20773684Y19052672D01*
X20781480Y19097939D01*
X20792203Y19141763D01*
X20798160Y19176488D01*
X20784202Y19195247D01*
X20737807Y19201145D01*
X20646451Y19197288D01*
X20585394Y19193059D01*
X20466305Y19186614D01*
X20397595Y19189775D01*
X20366617Y19204411D01*
X20360500Y19226308D01*
X20390655Y19268406D01*
X20475600Y19312577D01*
X20518848Y19328242D01*
X20647789Y19388956D01*
X20745376Y19469807D01*
X20798790Y19558697D01*
X20805000Y19598251D01*
X20786239Y19660169D01*
X20740820Y19734735D01*
X20738155Y19738167D01*
X20698677Y19782421D01*
X20655750Y19806950D01*
X20591251Y19816426D01*
X20487063Y19815520D01*
G36*
X21908288Y19808938D02*
X21862684Y19785984D01*
X21824359Y19768638D01*
X21806835Y19785984D01*
X21765120Y19805951D01*
X21682551Y19818414D01*
X21627184Y19820500D01*
X21515966Y19812675D01*
X21439972Y19783203D01*
X21389818Y19741454D01*
X21354199Y19702159D01*
X21331767Y19660748D01*
X21320029Y19602803D01*
X21316492Y19513905D01*
X21318663Y19379635D01*
X21319824Y19336642D01*
X21328875Y19010875D01*
X21519375Y19010875D01*
X21535250Y19328375D01*
X21543310Y19472862D01*
X21552232Y19565835D01*
X21565262Y19619234D01*
X21585647Y19645001D01*
X21616633Y19655077D01*
X21624399Y19656262D01*
X21705642Y19646943D01*
X21773974Y19616653D01*
X21811166Y19586834D01*
X21834670Y19546896D01*
X21848347Y19482026D01*
X21856059Y19377414D01*
X21859451Y19288767D01*
X21864681Y19155582D01*
X21872289Y19073068D01*
X21886276Y19028415D01*
X21910643Y19008815D01*
X21949189Y19001480D01*
X22018542Y19002327D01*
X22052376Y19014710D01*
X22061052Y19053489D01*
X22068189Y19142711D01*
X22073074Y19269323D01*
X22074995Y19420274D01*
X22075000Y19428917D01*
X22075000Y19820500D01*
X21986100Y19820500D01*
X21908288Y19808938D01*
X21908288Y19808938D01*
G37*
X21908288Y19808938D02*
X21862684Y19785984D01*
X21824359Y19768638D01*
X21806835Y19785984D01*
X21765120Y19805951D01*
X21682551Y19818414D01*
X21627184Y19820500D01*
X21515966Y19812675D01*
X21439972Y19783203D01*
X21389818Y19741454D01*
X21354199Y19702159D01*
X21331767Y19660748D01*
X21320029Y19602803D01*
X21316492Y19513905D01*
X21318663Y19379635D01*
X21319824Y19336642D01*
X21328875Y19010875D01*
X21519375Y19010875D01*
X21535250Y19328375D01*
X21543310Y19472862D01*
X21552232Y19565835D01*
X21565262Y19619234D01*
X21585647Y19645001D01*
X21616633Y19655077D01*
X21624399Y19656262D01*
X21705642Y19646943D01*
X21773974Y19616653D01*
X21811166Y19586834D01*
X21834670Y19546896D01*
X21848347Y19482026D01*
X21856059Y19377414D01*
X21859451Y19288767D01*
X21864681Y19155582D01*
X21872289Y19073068D01*
X21886276Y19028415D01*
X21910643Y19008815D01*
X21949189Y19001480D01*
X22018542Y19002327D01*
X22052376Y19014710D01*
X22061052Y19053489D01*
X22068189Y19142711D01*
X22073074Y19269323D01*
X22074995Y19420274D01*
X22075000Y19428917D01*
X22075000Y19820500D01*
X21986100Y19820500D01*
X21908288Y19808938D01*
G36*
X22614750Y18995000D02*
X22709396Y18995000D01*
X22784336Y19008558D01*
X22819347Y19057380D01*
X22821841Y19066438D01*
X22828451Y19127375D01*
X22832059Y19234640D01*
X22832304Y19371118D01*
X22830383Y19471250D01*
X22821125Y19804625D01*
X22717938Y19814575D01*
X22614750Y19824524D01*
X22614750Y18995000D01*
X22614750Y18995000D01*
G37*
X22614750Y18995000D02*
X22709396Y18995000D01*
X22784336Y19008558D01*
X22819347Y19057380D01*
X22821841Y19066438D01*
X22828451Y19127375D01*
X22832059Y19234640D01*
X22832304Y19371118D01*
X22830383Y19471250D01*
X22821125Y19804625D01*
X22717938Y19814575D01*
X22614750Y19824524D01*
X22614750Y18995000D01*
G36*
X23789500Y18391750D02*
X27536000Y18391750D01*
X27536000Y19315880D01*
X26773113Y19315880D01*
X26727795Y19205718D01*
X26696069Y19168182D01*
X26603105Y19104149D01*
X26501565Y19097072D01*
X26395271Y19136701D01*
X26308570Y19209470D01*
X26269791Y19302373D01*
X26272867Y19402116D01*
X26311730Y19495408D01*
X26380312Y19568957D01*
X26472545Y19609472D01*
X26582361Y19603660D01*
X26605001Y19596112D01*
X26708169Y19527745D01*
X26765389Y19428778D01*
X26773113Y19315880D01*
X27536000Y19315880D01*
X27536000Y21550264D01*
X26601085Y21550264D01*
X26592819Y21443378D01*
X26533934Y21345887D01*
X26436862Y21274729D01*
X26385232Y21256121D01*
X26356047Y21244269D01*
X26322918Y21220081D01*
X26282169Y21178506D01*
X26230125Y21114491D01*
X26163109Y21022984D01*
X26077446Y20898932D01*
X25969459Y20737282D01*
X25835472Y20532983D01*
X25671810Y20280981D01*
X25639970Y20231794D01*
X25473302Y19973888D01*
X25338171Y19763528D01*
X25231417Y19595077D01*
X25149880Y19462898D01*
X25090399Y19361354D01*
X25049814Y19284809D01*
X25024965Y19227625D01*
X25012692Y19184166D01*
X25009834Y19148795D01*
X25013231Y19115876D01*
X25013481Y19114361D01*
X25019795Y19030029D01*
X24996469Y18967158D01*
X24937683Y18900049D01*
X24830839Y18823621D01*
X24724757Y18810350D01*
X24616838Y18859978D01*
X24606975Y18867498D01*
X24525342Y18965501D01*
X24503893Y19079429D01*
X24535529Y19185315D01*
X24575301Y19245094D01*
X24630513Y19282515D01*
X24720596Y19308212D01*
X24780136Y19319202D01*
X24810210Y19347606D01*
X24870664Y19424880D01*
X24958098Y19546126D01*
X25069110Y19706444D01*
X25200300Y19900937D01*
X25348267Y20124706D01*
X25483311Y20332135D01*
X26132476Y21335894D01*
X26097254Y21467851D01*
X26082358Y21513192D01*
X26059094Y21556794D01*
X26020970Y21604752D01*
X25961493Y21663162D01*
X25874171Y21738119D01*
X25752510Y21835719D01*
X25590019Y21962058D01*
X25483952Y22043654D01*
X25293328Y22189112D01*
X25145159Y22299559D01*
X25032267Y22379592D01*
X24947474Y22433806D01*
X24883601Y22466798D01*
X24833470Y22483163D01*
X24790742Y22487501D01*
X24670234Y22513069D01*
X24581412Y22580125D01*
X24530771Y22674198D01*
X24524809Y22780815D01*
X24570021Y22885506D01*
X24597682Y22917569D01*
X24699501Y22982403D01*
X24808447Y22994644D01*
X24909299Y22960440D01*
X24986834Y22885936D01*
X25025829Y22777279D01*
X25027776Y22743904D01*
X25029684Y22706107D01*
X25039446Y22670997D01*
X25063147Y22632712D01*
X25106870Y22585393D01*
X25176702Y22523180D01*
X25278726Y22440213D01*
X25419027Y22330633D01*
X25603691Y22188578D01*
X25607214Y22185875D01*
X25774773Y22059245D01*
X25927485Y21947455D01*
X26057627Y21855869D01*
X26157477Y21789847D01*
X26219312Y21754751D01*
X26234250Y21750559D01*
X26387553Y21758962D01*
X26501824Y21718040D01*
X26576016Y21628363D01*
X26601085Y21550264D01*
X27536000Y21550264D01*
X27536000Y23408250D01*
X23789500Y23408250D01*
X23789500Y18391750D01*
X23789500Y18391750D01*
G37*
X23789500Y18391750D02*
X27536000Y18391750D01*
X27536000Y19315880D01*
X26773113Y19315880D01*
X26727795Y19205718D01*
X26696069Y19168182D01*
X26603105Y19104149D01*
X26501565Y19097072D01*
X26395271Y19136701D01*
X26308570Y19209470D01*
X26269791Y19302373D01*
X26272867Y19402116D01*
X26311730Y19495408D01*
X26380312Y19568957D01*
X26472545Y19609472D01*
X26582361Y19603660D01*
X26605001Y19596112D01*
X26708169Y19527745D01*
X26765389Y19428778D01*
X26773113Y19315880D01*
X27536000Y19315880D01*
X27536000Y21550264D01*
X26601085Y21550264D01*
X26592819Y21443378D01*
X26533934Y21345887D01*
X26436862Y21274729D01*
X26385232Y21256121D01*
X26356047Y21244269D01*
X26322918Y21220081D01*
X26282169Y21178506D01*
X26230125Y21114491D01*
X26163109Y21022984D01*
X26077446Y20898932D01*
X25969459Y20737282D01*
X25835472Y20532983D01*
X25671810Y20280981D01*
X25639970Y20231794D01*
X25473302Y19973888D01*
X25338171Y19763528D01*
X25231417Y19595077D01*
X25149880Y19462898D01*
X25090399Y19361354D01*
X25049814Y19284809D01*
X25024965Y19227625D01*
X25012692Y19184166D01*
X25009834Y19148795D01*
X25013231Y19115876D01*
X25013481Y19114361D01*
X25019795Y19030029D01*
X24996469Y18967158D01*
X24937683Y18900049D01*
X24830839Y18823621D01*
X24724757Y18810350D01*
X24616838Y18859978D01*
X24606975Y18867498D01*
X24525342Y18965501D01*
X24503893Y19079429D01*
X24535529Y19185315D01*
X24575301Y19245094D01*
X24630513Y19282515D01*
X24720596Y19308212D01*
X24780136Y19319202D01*
X24810210Y19347606D01*
X24870664Y19424880D01*
X24958098Y19546126D01*
X25069110Y19706444D01*
X25200300Y19900937D01*
X25348267Y20124706D01*
X25483311Y20332135D01*
X26132476Y21335894D01*
X26097254Y21467851D01*
X26082358Y21513192D01*
X26059094Y21556794D01*
X26020970Y21604752D01*
X25961493Y21663162D01*
X25874171Y21738119D01*
X25752510Y21835719D01*
X25590019Y21962058D01*
X25483952Y22043654D01*
X25293328Y22189112D01*
X25145159Y22299559D01*
X25032267Y22379592D01*
X24947474Y22433806D01*
X24883601Y22466798D01*
X24833470Y22483163D01*
X24790742Y22487501D01*
X24670234Y22513069D01*
X24581412Y22580125D01*
X24530771Y22674198D01*
X24524809Y22780815D01*
X24570021Y22885506D01*
X24597682Y22917569D01*
X24699501Y22982403D01*
X24808447Y22994644D01*
X24909299Y22960440D01*
X24986834Y22885936D01*
X25025829Y22777279D01*
X25027776Y22743904D01*
X25029684Y22706107D01*
X25039446Y22670997D01*
X25063147Y22632712D01*
X25106870Y22585393D01*
X25176702Y22523180D01*
X25278726Y22440213D01*
X25419027Y22330633D01*
X25603691Y22188578D01*
X25607214Y22185875D01*
X25774773Y22059245D01*
X25927485Y21947455D01*
X26057627Y21855869D01*
X26157477Y21789847D01*
X26219312Y21754751D01*
X26234250Y21750559D01*
X26387553Y21758962D01*
X26501824Y21718040D01*
X26576016Y21628363D01*
X26601085Y21550264D01*
X27536000Y21550264D01*
X27536000Y23408250D01*
X23789500Y23408250D01*
X23789500Y18391750D01*
D15*
G04 #@! TO.C,NFC*
X27800000Y54900000D02*
G75*
G03X27100000Y54200000I0J-700000D01*
G01*
X27100000Y53600000D02*
G75*
G03X27800000Y52900000I700000J0D01*
G01*
X29200000Y52900000D02*
G75*
G03X29900000Y53600000I0J700000D01*
G01*
X29900000Y54200000D02*
G75*
G03X29200000Y54900000I-700000J0D01*
G01*
X29900000Y53600000D02*
X29900000Y54200000D01*
X27800000Y52900000D02*
X29200000Y52900000D01*
X27100000Y54200000D02*
X27100000Y53600000D01*
X29200000Y54900000D02*
X27800000Y54900000D01*
D14*
G04 #@! TO.C,G\002A\002A\002A*
G36*
X23916145Y52010301D02*
X23718701Y51906343D01*
X23555541Y51752929D01*
X23437340Y51557754D01*
X23374768Y51328511D01*
X23373718Y51319978D01*
X23378835Y51079302D01*
X23453247Y50860109D01*
X23582867Y50678020D01*
X23769034Y50519602D01*
X23975737Y50419929D01*
X24190496Y50383428D01*
X24359286Y50402578D01*
X24577221Y50491041D01*
X24763780Y50632478D01*
X24908480Y50813984D01*
X25000839Y51022655D01*
X25030571Y51228961D01*
X24996348Y51441727D01*
X24901698Y51643804D01*
X24758652Y51820413D01*
X24579237Y51956772D01*
X24375484Y52038104D01*
X24371204Y52039076D01*
X24137204Y52057110D01*
X23916145Y52010301D01*
X23916145Y52010301D01*
G37*
X23916145Y52010301D02*
X23718701Y51906343D01*
X23555541Y51752929D01*
X23437340Y51557754D01*
X23374768Y51328511D01*
X23373718Y51319978D01*
X23378835Y51079302D01*
X23453247Y50860109D01*
X23582867Y50678020D01*
X23769034Y50519602D01*
X23975737Y50419929D01*
X24190496Y50383428D01*
X24359286Y50402578D01*
X24577221Y50491041D01*
X24763780Y50632478D01*
X24908480Y50813984D01*
X25000839Y51022655D01*
X25030571Y51228961D01*
X24996348Y51441727D01*
X24901698Y51643804D01*
X24758652Y51820413D01*
X24579237Y51956772D01*
X24375484Y52038104D01*
X24371204Y52039076D01*
X24137204Y52057110D01*
X23916145Y52010301D01*
G36*
X28294980Y48809143D02*
X28203166Y48692645D01*
X28113187Y48558391D01*
X28034094Y48422682D01*
X27974939Y48301817D01*
X27944773Y48212097D01*
X27944838Y48178607D01*
X27980279Y48143633D01*
X28059116Y48084997D01*
X28161907Y48015346D01*
X28269211Y47947324D01*
X28361587Y47893576D01*
X28419594Y47866749D01*
X28425886Y47865715D01*
X28431158Y47899926D01*
X28435459Y47994266D01*
X28438475Y48136296D01*
X28439891Y48313577D01*
X28439881Y48419072D01*
X28438334Y48972429D01*
X28294980Y48809143D01*
X28294980Y48809143D01*
G37*
X28294980Y48809143D02*
X28203166Y48692645D01*
X28113187Y48558391D01*
X28034094Y48422682D01*
X27974939Y48301817D01*
X27944773Y48212097D01*
X27944838Y48178607D01*
X27980279Y48143633D01*
X28059116Y48084997D01*
X28161907Y48015346D01*
X28269211Y47947324D01*
X28361587Y47893576D01*
X28419594Y47866749D01*
X28425886Y47865715D01*
X28431158Y47899926D01*
X28435459Y47994266D01*
X28438475Y48136296D01*
X28439891Y48313577D01*
X28439881Y48419072D01*
X28438334Y48972429D01*
X28294980Y48809143D01*
G36*
X28624404Y48419072D02*
X28625551Y48228239D01*
X28629732Y48066211D01*
X28636371Y47945351D01*
X28644892Y47878020D01*
X28650071Y47868270D01*
X28692345Y47887563D01*
X28777573Y47935825D01*
X28887657Y48002788D01*
X28892462Y48005798D01*
X29001906Y48079015D01*
X29084105Y48142564D01*
X29121690Y48182984D01*
X29121926Y48183637D01*
X29113111Y48244130D01*
X29070060Y48346153D01*
X29002088Y48473185D01*
X28918508Y48608703D01*
X28828636Y48736187D01*
X28769306Y48809143D01*
X28625951Y48972429D01*
X28624404Y48419072D01*
X28624404Y48419072D01*
G37*
X28624404Y48419072D02*
X28625551Y48228239D01*
X28629732Y48066211D01*
X28636371Y47945351D01*
X28644892Y47878020D01*
X28650071Y47868270D01*
X28692345Y47887563D01*
X28777573Y47935825D01*
X28887657Y48002788D01*
X28892462Y48005798D01*
X29001906Y48079015D01*
X29084105Y48142564D01*
X29121690Y48182984D01*
X29121926Y48183637D01*
X29113111Y48244130D01*
X29070060Y48346153D01*
X29002088Y48473185D01*
X28918508Y48608703D01*
X28828636Y48736187D01*
X28769306Y48809143D01*
X28625951Y48972429D01*
X28624404Y48419072D01*
G36*
X27834062Y47923586D02*
X27821913Y47878988D01*
X27809468Y47779821D01*
X27798756Y47644050D01*
X27795214Y47579436D01*
X27779884Y47258803D01*
X28088481Y47072402D01*
X28221206Y46993499D01*
X28330089Y46931143D01*
X28400739Y46893443D01*
X28419253Y46886000D01*
X28428603Y46919710D01*
X28436005Y47010551D01*
X28440507Y47143090D01*
X28441429Y47245409D01*
X28441429Y47604818D01*
X28149504Y47775961D01*
X28020342Y47847957D01*
X27915042Y47899687D01*
X27848553Y47924157D01*
X27834062Y47923586D01*
X27834062Y47923586D01*
G37*
X27834062Y47923586D02*
X27821913Y47878988D01*
X27809468Y47779821D01*
X27798756Y47644050D01*
X27795214Y47579436D01*
X27779884Y47258803D01*
X28088481Y47072402D01*
X28221206Y46993499D01*
X28330089Y46931143D01*
X28400739Y46893443D01*
X28419253Y46886000D01*
X28428603Y46919710D01*
X28436005Y47010551D01*
X28440507Y47143090D01*
X28441429Y47245409D01*
X28441429Y47604818D01*
X28149504Y47775961D01*
X28020342Y47847957D01*
X27915042Y47899687D01*
X27848553Y47924157D01*
X27834062Y47923586D01*
G36*
X29192342Y47915096D02*
X29106824Y47876088D01*
X28989311Y47812808D01*
X28915680Y47769825D01*
X28622857Y47594343D01*
X28622857Y47240172D01*
X28625444Y47090005D01*
X28632409Y46971663D01*
X28642559Y46900626D01*
X28650071Y46887130D01*
X28690852Y46905436D01*
X28778487Y46953773D01*
X28898222Y47023818D01*
X28980834Y47073719D01*
X29284383Y47259179D01*
X29269063Y47579624D01*
X29259806Y47725357D01*
X29248111Y47842009D01*
X29235958Y47911674D01*
X29231122Y47922687D01*
X29192342Y47915096D01*
X29192342Y47915096D01*
G37*
X29192342Y47915096D02*
X29106824Y47876088D01*
X28989311Y47812808D01*
X28915680Y47769825D01*
X28622857Y47594343D01*
X28622857Y47240172D01*
X28625444Y47090005D01*
X28632409Y46971663D01*
X28642559Y46900626D01*
X28650071Y46887130D01*
X28690852Y46905436D01*
X28778487Y46953773D01*
X28898222Y47023818D01*
X28980834Y47073719D01*
X29284383Y47259179D01*
X29269063Y47579624D01*
X29259806Y47725357D01*
X29248111Y47842009D01*
X29235958Y47911674D01*
X29231122Y47922687D01*
X29192342Y47915096D01*
G36*
X27871719Y46850106D02*
X27911928Y46737434D01*
X27979445Y46594671D01*
X28066598Y46436129D01*
X28165716Y46276118D01*
X28269127Y46128952D01*
X28331186Y46051429D01*
X28439476Y45924429D01*
X28440452Y46255629D01*
X28438230Y46423000D01*
X28428852Y46532717D01*
X28410034Y46599531D01*
X28381433Y46636621D01*
X28295390Y46699965D01*
X28186919Y46768977D01*
X28072893Y46834423D01*
X27970185Y46887070D01*
X27895670Y46917687D01*
X27866488Y46918374D01*
X27871719Y46850106D01*
X27871719Y46850106D01*
G37*
X27871719Y46850106D02*
X27911928Y46737434D01*
X27979445Y46594671D01*
X28066598Y46436129D01*
X28165716Y46276118D01*
X28269127Y46128952D01*
X28331186Y46051429D01*
X28439476Y45924429D01*
X28440452Y46255629D01*
X28438230Y46423000D01*
X28428852Y46532717D01*
X28410034Y46599531D01*
X28381433Y46636621D01*
X28295390Y46699965D01*
X28186919Y46768977D01*
X28072893Y46834423D01*
X27970185Y46887070D01*
X27895670Y46917687D01*
X27866488Y46918374D01*
X27871719Y46850106D01*
G36*
X29106974Y46898421D02*
X28994316Y46837837D01*
X28953330Y46813450D01*
X28806498Y46723572D01*
X28710793Y46654043D01*
X28655825Y46586708D01*
X28631207Y46503410D01*
X28626552Y46385993D01*
X28630424Y46249059D01*
X28641000Y45926146D01*
X28812980Y46155167D01*
X28910962Y46296539D01*
X29005686Y46452118D01*
X29089268Y46606547D01*
X29153826Y46744472D01*
X29191475Y46850538D01*
X29196786Y46902764D01*
X29171814Y46919091D01*
X29106974Y46898421D01*
X29106974Y46898421D01*
G37*
X29106974Y46898421D02*
X28994316Y46837837D01*
X28953330Y46813450D01*
X28806498Y46723572D01*
X28710793Y46654043D01*
X28655825Y46586708D01*
X28631207Y46503410D01*
X28626552Y46385993D01*
X28630424Y46249059D01*
X28641000Y45926146D01*
X28812980Y46155167D01*
X28910962Y46296539D01*
X29005686Y46452118D01*
X29089268Y46606547D01*
X29153826Y46744472D01*
X29191475Y46850538D01*
X29196786Y46902764D01*
X29171814Y46919091D01*
X29106974Y46898421D01*
G36*
X7373897Y47727028D02*
X7307232Y47645798D01*
X7221759Y47525558D01*
X7125376Y47378700D01*
X7025983Y47217612D01*
X6931477Y47054686D01*
X6849756Y46902310D01*
X6793007Y46782912D01*
X6673543Y46452920D01*
X6616443Y46159802D01*
X6621678Y45903366D01*
X6645081Y45797429D01*
X6742849Y45574310D01*
X6885666Y45395996D01*
X7062980Y45267616D01*
X7264242Y45194297D01*
X7478899Y45181168D01*
X7696400Y45233357D01*
X7753243Y45258816D01*
X7911942Y45371812D01*
X8052203Y45535376D01*
X8157468Y45727531D01*
X8197093Y45848023D01*
X8217739Y46068358D01*
X8184883Y46328292D01*
X8099901Y46619938D01*
X8033367Y46786580D01*
X7969928Y46918539D01*
X7886576Y47072230D01*
X7791227Y47235255D01*
X7691797Y47395218D01*
X7596200Y47539722D01*
X7512352Y47656369D01*
X7448168Y47732764D01*
X7413857Y47756858D01*
X7373897Y47727028D01*
X7373897Y47727028D01*
G37*
X7373897Y47727028D02*
X7307232Y47645798D01*
X7221759Y47525558D01*
X7125376Y47378700D01*
X7025983Y47217612D01*
X6931477Y47054686D01*
X6849756Y46902310D01*
X6793007Y46782912D01*
X6673543Y46452920D01*
X6616443Y46159802D01*
X6621678Y45903366D01*
X6645081Y45797429D01*
X6742849Y45574310D01*
X6885666Y45395996D01*
X7062980Y45267616D01*
X7264242Y45194297D01*
X7478899Y45181168D01*
X7696400Y45233357D01*
X7753243Y45258816D01*
X7911942Y45371812D01*
X8052203Y45535376D01*
X8157468Y45727531D01*
X8197093Y45848023D01*
X8217739Y46068358D01*
X8184883Y46328292D01*
X8099901Y46619938D01*
X8033367Y46786580D01*
X7969928Y46918539D01*
X7886576Y47072230D01*
X7791227Y47235255D01*
X7691797Y47395218D01*
X7596200Y47539722D01*
X7512352Y47656369D01*
X7448168Y47732764D01*
X7413857Y47756858D01*
X7373897Y47727028D01*
G36*
X11846886Y42834424D02*
X11749076Y42811394D01*
X11661519Y42762240D01*
X11629209Y42738482D01*
X11480687Y42589044D01*
X11396922Y42412265D01*
X11372541Y42218736D01*
X11404444Y42022419D01*
X11494095Y41854278D01*
X11629233Y41723381D01*
X11797594Y41638795D01*
X11986918Y41609588D01*
X12159878Y41636511D01*
X12344849Y41726666D01*
X12481615Y41859933D01*
X12568027Y42023337D01*
X12601935Y42203904D01*
X12581188Y42388661D01*
X12503637Y42564632D01*
X12367130Y42718843D01*
X12342506Y42738482D01*
X12251488Y42798320D01*
X12160539Y42829094D01*
X12038751Y42839615D01*
X11985857Y42840143D01*
X11846886Y42834424D01*
X11846886Y42834424D01*
G37*
X11846886Y42834424D02*
X11749076Y42811394D01*
X11661519Y42762240D01*
X11629209Y42738482D01*
X11480687Y42589044D01*
X11396922Y42412265D01*
X11372541Y42218736D01*
X11404444Y42022419D01*
X11494095Y41854278D01*
X11629233Y41723381D01*
X11797594Y41638795D01*
X11986918Y41609588D01*
X12159878Y41636511D01*
X12344849Y41726666D01*
X12481615Y41859933D01*
X12568027Y42023337D01*
X12601935Y42203904D01*
X12581188Y42388661D01*
X12503637Y42564632D01*
X12367130Y42718843D01*
X12342506Y42738482D01*
X12251488Y42798320D01*
X12160539Y42829094D01*
X12038751Y42839615D01*
X11985857Y42840143D01*
X11846886Y42834424D01*
G36*
X17573857Y52010084D02*
X17428037Y51998763D01*
X17259853Y51978950D01*
X17086021Y51953468D01*
X16923253Y51925145D01*
X16788264Y51896804D01*
X16697768Y51871272D01*
X16670593Y51857394D01*
X16668312Y51807916D01*
X16704875Y51719026D01*
X16770843Y51605492D01*
X16856777Y51482080D01*
X16953238Y51363558D01*
X17047714Y51267427D01*
X17174730Y51168354D01*
X17317931Y51079594D01*
X17463549Y51006823D01*
X17597817Y50955720D01*
X17706966Y50931961D01*
X17777227Y50941224D01*
X17793440Y50959928D01*
X17799437Y51012189D01*
X17803131Y51122300D01*
X17804303Y51275568D01*
X17802733Y51457302D01*
X17801714Y51514176D01*
X17791571Y52020429D01*
X17573857Y52010084D01*
X17573857Y52010084D01*
G37*
X17573857Y52010084D02*
X17428037Y51998763D01*
X17259853Y51978950D01*
X17086021Y51953468D01*
X16923253Y51925145D01*
X16788264Y51896804D01*
X16697768Y51871272D01*
X16670593Y51857394D01*
X16668312Y51807916D01*
X16704875Y51719026D01*
X16770843Y51605492D01*
X16856777Y51482080D01*
X16953238Y51363558D01*
X17047714Y51267427D01*
X17174730Y51168354D01*
X17317931Y51079594D01*
X17463549Y51006823D01*
X17597817Y50955720D01*
X17706966Y50931961D01*
X17777227Y50941224D01*
X17793440Y50959928D01*
X17799437Y51012189D01*
X17803131Y51122300D01*
X17804303Y51275568D01*
X17802733Y51457302D01*
X17801714Y51514176D01*
X17791571Y52020429D01*
X17573857Y52010084D01*
G36*
X18081857Y51479167D02*
X18084228Y51262734D01*
X18090989Y51093531D01*
X18101616Y50979553D01*
X18115583Y50928796D01*
X18118143Y50927060D01*
X18170385Y50932100D01*
X18266017Y50956626D01*
X18343120Y50981348D01*
X18624969Y51116079D01*
X18873811Y51310984D01*
X18959315Y51401814D01*
X19056352Y51526373D01*
X19135520Y51650395D01*
X19188757Y51758552D01*
X19208000Y51835514D01*
X19200279Y51859950D01*
X19149217Y51881065D01*
X19042753Y51907007D01*
X18897650Y51934980D01*
X18730677Y51962190D01*
X18558600Y51985843D01*
X18398185Y52003143D01*
X18299571Y52010084D01*
X18081857Y52020429D01*
X18081857Y51479167D01*
X18081857Y51479167D01*
G37*
X18081857Y51479167D02*
X18084228Y51262734D01*
X18090989Y51093531D01*
X18101616Y50979553D01*
X18115583Y50928796D01*
X18118143Y50927060D01*
X18170385Y50932100D01*
X18266017Y50956626D01*
X18343120Y50981348D01*
X18624969Y51116079D01*
X18873811Y51310984D01*
X18959315Y51401814D01*
X19056352Y51526373D01*
X19135520Y51650395D01*
X19188757Y51758552D01*
X19208000Y51835514D01*
X19200279Y51859950D01*
X19149217Y51881065D01*
X19042753Y51907007D01*
X18897650Y51934980D01*
X18730677Y51962190D01*
X18558600Y51985843D01*
X18398185Y52003143D01*
X18299571Y52010084D01*
X18081857Y52020429D01*
X18081857Y51479167D01*
G36*
X16250283Y51735681D02*
X16238896Y51733480D01*
X16121091Y51696993D01*
X15957401Y51628543D01*
X15762790Y51535720D01*
X15552218Y51426114D01*
X15340648Y51307315D01*
X15143041Y51186912D01*
X15078462Y51144810D01*
X14950499Y51053266D01*
X14801528Y50936597D01*
X14641430Y50803735D01*
X14480089Y50663616D01*
X14327386Y50525172D01*
X14193201Y50397336D01*
X14087419Y50289043D01*
X14019919Y50209227D01*
X14000027Y50169857D01*
X14030874Y50129931D01*
X14114761Y50062758D01*
X14240547Y49974960D01*
X14397086Y49873159D01*
X14573237Y49763975D01*
X14757856Y49654030D01*
X14939799Y49549945D01*
X15107923Y49458341D01*
X15251085Y49385838D01*
X15358142Y49339059D01*
X15417949Y49324624D01*
X15421334Y49325350D01*
X15451450Y49361964D01*
X15500326Y49448889D01*
X15558826Y49569441D01*
X15576300Y49608340D01*
X15655669Y49775802D01*
X15755803Y49968319D01*
X15869914Y50174701D01*
X15991211Y50383756D01*
X16112903Y50584293D01*
X16228201Y50765119D01*
X16330314Y50915044D01*
X16412453Y51022875D01*
X16467481Y51077209D01*
X16512457Y51068581D01*
X16583118Y51022749D01*
X16595772Y51012232D01*
X16693367Y50928284D01*
X16406479Y50494084D01*
X16306620Y50337497D01*
X16200942Y50162530D01*
X16095432Y49980235D01*
X15996075Y49801662D01*
X15908859Y49637864D01*
X15839768Y49499891D01*
X15794788Y49398796D01*
X15779906Y49345630D01*
X15781863Y49340897D01*
X15820410Y49345852D01*
X15912951Y49367479D01*
X16043866Y49401946D01*
X16140571Y49428969D01*
X16443950Y49503164D01*
X16814302Y49572148D01*
X17246155Y49634980D01*
X17537571Y49669896D01*
X17791571Y49698143D01*
X17801706Y50157993D01*
X17811841Y50617842D01*
X17612314Y50659264D01*
X17309627Y50758066D01*
X17024940Y50921326D01*
X16768170Y51141379D01*
X16549235Y51410562D01*
X16466213Y51544774D01*
X16400203Y51657002D01*
X16352470Y51717713D01*
X16307626Y51739681D01*
X16250283Y51735681D01*
X16250283Y51735681D01*
G37*
X16250283Y51735681D02*
X16238896Y51733480D01*
X16121091Y51696993D01*
X15957401Y51628543D01*
X15762790Y51535720D01*
X15552218Y51426114D01*
X15340648Y51307315D01*
X15143041Y51186912D01*
X15078462Y51144810D01*
X14950499Y51053266D01*
X14801528Y50936597D01*
X14641430Y50803735D01*
X14480089Y50663616D01*
X14327386Y50525172D01*
X14193201Y50397336D01*
X14087419Y50289043D01*
X14019919Y50209227D01*
X14000027Y50169857D01*
X14030874Y50129931D01*
X14114761Y50062758D01*
X14240547Y49974960D01*
X14397086Y49873159D01*
X14573237Y49763975D01*
X14757856Y49654030D01*
X14939799Y49549945D01*
X15107923Y49458341D01*
X15251085Y49385838D01*
X15358142Y49339059D01*
X15417949Y49324624D01*
X15421334Y49325350D01*
X15451450Y49361964D01*
X15500326Y49448889D01*
X15558826Y49569441D01*
X15576300Y49608340D01*
X15655669Y49775802D01*
X15755803Y49968319D01*
X15869914Y50174701D01*
X15991211Y50383756D01*
X16112903Y50584293D01*
X16228201Y50765119D01*
X16330314Y50915044D01*
X16412453Y51022875D01*
X16467481Y51077209D01*
X16512457Y51068581D01*
X16583118Y51022749D01*
X16595772Y51012232D01*
X16693367Y50928284D01*
X16406479Y50494084D01*
X16306620Y50337497D01*
X16200942Y50162530D01*
X16095432Y49980235D01*
X15996075Y49801662D01*
X15908859Y49637864D01*
X15839768Y49499891D01*
X15794788Y49398796D01*
X15779906Y49345630D01*
X15781863Y49340897D01*
X15820410Y49345852D01*
X15912951Y49367479D01*
X16043866Y49401946D01*
X16140571Y49428969D01*
X16443950Y49503164D01*
X16814302Y49572148D01*
X17246155Y49634980D01*
X17537571Y49669896D01*
X17791571Y49698143D01*
X17801706Y50157993D01*
X17811841Y50617842D01*
X17612314Y50659264D01*
X17309627Y50758066D01*
X17024940Y50921326D01*
X16768170Y51141379D01*
X16549235Y51410562D01*
X16466213Y51544774D01*
X16400203Y51657002D01*
X16352470Y51717713D01*
X16307626Y51739681D01*
X16250283Y51735681D01*
G36*
X17465000Y49360994D02*
X17295609Y49348805D01*
X17088116Y49323777D01*
X16861024Y49289210D01*
X16632838Y49248404D01*
X16422061Y49204660D01*
X16247198Y49161277D01*
X16129973Y49122900D01*
X16082107Y49101660D01*
X16063755Y49084404D01*
X16083471Y49066789D01*
X16149808Y49044470D01*
X16271319Y49013104D01*
X16414295Y48978508D01*
X16653524Y48925582D01*
X16895486Y48880220D01*
X17129334Y48843611D01*
X17344221Y48816946D01*
X17529297Y48801415D01*
X17673716Y48798209D01*
X17766629Y48808517D01*
X17796424Y48826846D01*
X17803434Y48883431D01*
X17805581Y48989444D01*
X17802425Y49121172D01*
X17791571Y49371572D01*
X17465000Y49360994D01*
X17465000Y49360994D01*
G37*
X17465000Y49360994D02*
X17295609Y49348805D01*
X17088116Y49323777D01*
X16861024Y49289210D01*
X16632838Y49248404D01*
X16422061Y49204660D01*
X16247198Y49161277D01*
X16129973Y49122900D01*
X16082107Y49101660D01*
X16063755Y49084404D01*
X16083471Y49066789D01*
X16149808Y49044470D01*
X16271319Y49013104D01*
X16414295Y48978508D01*
X16653524Y48925582D01*
X16895486Y48880220D01*
X17129334Y48843611D01*
X17344221Y48816946D01*
X17529297Y48801415D01*
X17673716Y48798209D01*
X17766629Y48808517D01*
X17796424Y48826846D01*
X17803434Y48883431D01*
X17805581Y48989444D01*
X17802425Y49121172D01*
X17791571Y49371572D01*
X17465000Y49360994D01*
G36*
X23782454Y54870622D02*
X23332439Y54789337D01*
X22894902Y54651309D01*
X22475665Y54457454D01*
X22080552Y54208685D01*
X21715386Y53905917D01*
X21385991Y53550064D01*
X21098189Y53142041D01*
X20939040Y52855000D01*
X20847841Y52648444D01*
X20758482Y52403544D01*
X20680680Y52150284D01*
X20624152Y51918646D01*
X20609636Y51838522D01*
X20578439Y51639583D01*
X20944862Y51397207D01*
X21195728Y51213453D01*
X21465839Y50984884D01*
X21739325Y50727304D01*
X22000319Y50456522D01*
X22232953Y50188343D01*
X22421359Y49938574D01*
X22446010Y49901875D01*
X22758304Y49370481D01*
X23008768Y48820601D01*
X23193506Y48261674D01*
X23279191Y47883468D01*
X23341688Y47543712D01*
X23563174Y47505142D01*
X23758105Y47474067D01*
X23905887Y47462882D01*
X24026031Y47477088D01*
X24138052Y47522191D01*
X24261461Y47603695D01*
X24415772Y47727103D01*
X24449462Y47755130D01*
X24581319Y47863797D01*
X24691386Y47952041D01*
X24768749Y48011290D01*
X24802495Y48032972D01*
X24802992Y48032818D01*
X24814352Y47995024D01*
X24833672Y47907663D01*
X24849143Y47829429D01*
X24871408Y47720083D01*
X24889624Y47644766D01*
X24897133Y47624200D01*
X24934868Y47627736D01*
X25023011Y47647771D01*
X25142112Y47679865D01*
X25626989Y47855184D01*
X26076017Y48091331D01*
X26484622Y48383646D01*
X26848233Y48727473D01*
X27162275Y49118152D01*
X27422178Y49551026D01*
X27623366Y50021436D01*
X27706814Y50292518D01*
X27744639Y50443559D01*
X27770952Y50578896D01*
X27787826Y50718307D01*
X27797332Y50881576D01*
X27801543Y51088482D01*
X27802273Y51204000D01*
X27801644Y51349143D01*
X26010286Y51349143D01*
X26010286Y51131429D01*
X25631427Y51131429D01*
X25472697Y51128332D01*
X25342352Y51119966D01*
X25256565Y51107719D01*
X25231355Y51097105D01*
X25227999Y51080492D01*
X25246334Y51063548D01*
X25296320Y51042787D01*
X25387914Y51014722D01*
X25531074Y50975866D01*
X25711491Y50928979D01*
X25841546Y50893336D01*
X25914819Y50864471D01*
X25945367Y50833411D01*
X25947252Y50791180D01*
X25945265Y50779754D01*
X25921092Y50706227D01*
X25898863Y50676272D01*
X25852825Y50677379D01*
X25754391Y50695832D01*
X25620673Y50728123D01*
X25542304Y50749380D01*
X25379141Y50795037D01*
X25273401Y50823128D01*
X25212631Y50835678D01*
X25184375Y50834713D01*
X25176182Y50822256D01*
X25175714Y50808985D01*
X25205239Y50778392D01*
X25284697Y50722117D01*
X25400411Y50649414D01*
X25484024Y50600342D01*
X25615241Y50521697D01*
X25718455Y50453104D01*
X25780023Y50404012D01*
X25791299Y50387572D01*
X25770350Y50331739D01*
X25741560Y50287103D01*
X25715113Y50260522D01*
X25680382Y50253932D01*
X25624323Y50271684D01*
X25533890Y50318132D01*
X25396039Y50397627D01*
X25377378Y50408600D01*
X25243080Y50484295D01*
X25132443Y50540379D01*
X25059700Y50569999D01*
X25039126Y50571508D01*
X25053302Y50537967D01*
X25109636Y50465540D01*
X25198366Y50366040D01*
X25274413Y50286725D01*
X25390510Y50167599D01*
X25462470Y50087385D01*
X25497487Y50033689D01*
X25502750Y49994117D01*
X25485450Y49956275D01*
X25475140Y49940771D01*
X25417807Y49856826D01*
X25137948Y50135044D01*
X25023593Y50244525D01*
X24928302Y50327868D01*
X24863121Y50375913D01*
X24839708Y50382273D01*
X24848939Y50339723D01*
X24888453Y50249538D01*
X24951363Y50126413D01*
X25005255Y50029152D01*
X25087400Y49883507D01*
X25136962Y49787362D01*
X25158001Y49727580D01*
X25154582Y49691023D01*
X25130766Y49664552D01*
X25120416Y49656735D01*
X25053134Y49621702D01*
X25016833Y49618056D01*
X24985357Y49652720D01*
X24928089Y49737030D01*
X24854145Y49857010D01*
X24797651Y49954188D01*
X24708175Y50104125D01*
X24646419Y50189113D01*
X24611851Y50208541D01*
X24603941Y50161795D01*
X24622158Y50048263D01*
X24665970Y49867332D01*
X24679237Y49817509D01*
X24764452Y49501446D01*
X24662735Y49465988D01*
X24621277Y49450937D01*
X24590840Y49446284D01*
X24566428Y49461916D01*
X24543043Y49507721D01*
X24515690Y49593588D01*
X24479371Y49729402D01*
X24429091Y49925053D01*
X24427366Y49931752D01*
X24391759Y50056106D01*
X24358869Y50147186D01*
X24335159Y50187421D01*
X24333106Y50188000D01*
X24321755Y50154160D01*
X24312581Y50062402D01*
X24306621Y49927370D01*
X24304857Y49788857D01*
X24304857Y49389715D01*
X24087143Y49389715D01*
X24087143Y49788857D01*
X24084710Y49949246D01*
X24078113Y50078865D01*
X24068404Y50163071D01*
X24058445Y50188000D01*
X24035773Y50155677D01*
X24003243Y50070674D01*
X23967662Y49950948D01*
X23965584Y49943072D01*
X23926864Y49795196D01*
X23890135Y49654808D01*
X23866468Y49564243D01*
X23839681Y49478528D01*
X23807266Y49448650D01*
X23748217Y49459521D01*
X23729531Y49465895D01*
X23627547Y49501446D01*
X23712763Y49817509D01*
X23762235Y50013619D01*
X23786231Y50142193D01*
X23784218Y50203844D01*
X23755667Y50199183D01*
X23700046Y50128825D01*
X23616824Y49993381D01*
X23594349Y49954188D01*
X23514175Y49817629D01*
X23444333Y49707006D01*
X23393936Y49636298D01*
X23375167Y49618056D01*
X23321558Y49628165D01*
X23271584Y49656735D01*
X23242517Y49682739D01*
X23232646Y49714947D01*
X23246033Y49766497D01*
X23286741Y49850526D01*
X23358832Y49980172D01*
X23386745Y50029152D01*
X23461863Y50166522D01*
X23518376Y50281170D01*
X23549397Y50358403D01*
X23552292Y50382273D01*
X23521022Y50370996D01*
X23450310Y50316703D01*
X23351175Y50228537D01*
X23252705Y50133705D01*
X22971500Y49854149D01*
X22912405Y49938519D01*
X22887882Y49978606D01*
X22883185Y50015546D01*
X22905470Y50061637D01*
X22961892Y50129174D01*
X23059606Y50230456D01*
X23114478Y50285812D01*
X23220984Y50397194D01*
X23301889Y50489879D01*
X23347419Y50552149D01*
X23352873Y50571508D01*
X23314124Y50563860D01*
X23227777Y50525073D01*
X23108064Y50462003D01*
X23014621Y50408600D01*
X22870744Y50325196D01*
X22775724Y50275319D01*
X22716515Y50254616D01*
X22680073Y50258736D01*
X22653352Y50283327D01*
X22650439Y50287103D01*
X22610647Y50353964D01*
X22600701Y50387572D01*
X22629804Y50419939D01*
X22708963Y50477629D01*
X22824533Y50551195D01*
X22907976Y50600342D01*
X23039251Y50678567D01*
X23142715Y50746081D01*
X23204692Y50793628D01*
X23216286Y50808985D01*
X23214446Y50827814D01*
X23200625Y50836465D01*
X23162369Y50832914D01*
X23087223Y50815136D01*
X22962734Y50781106D01*
X22849696Y50749380D01*
X22704327Y50711241D01*
X22585279Y50685103D01*
X22509664Y50674473D01*
X22493137Y50676272D01*
X22463332Y50723122D01*
X22446735Y50779754D01*
X22444286Y50825565D01*
X22467472Y50858273D01*
X22530354Y50886853D01*
X22646990Y50920278D01*
X22680509Y50928979D01*
X22878381Y50980478D01*
X23015757Y51018059D01*
X23102595Y51045209D01*
X23148853Y51065414D01*
X23164489Y51082163D01*
X23160644Y51097105D01*
X23117681Y51111312D01*
X23018334Y51122653D01*
X22878774Y51129739D01*
X22760573Y51131429D01*
X22381714Y51131429D01*
X22381714Y51349143D01*
X22786905Y51349143D01*
X22945818Y51351014D01*
X23071324Y51356095D01*
X23149951Y51363588D01*
X23169438Y51371801D01*
X23126884Y51390526D01*
X23030255Y51422910D01*
X22895563Y51463794D01*
X22791461Y51493525D01*
X22628499Y51540875D01*
X22524615Y51577201D01*
X22468258Y51608152D01*
X22447878Y51639376D01*
X22448247Y51661367D01*
X22472112Y51734226D01*
X22488438Y51759449D01*
X22531871Y51762465D01*
X22626455Y51749940D01*
X22753445Y51725847D01*
X22894095Y51694158D01*
X23029657Y51658844D01*
X23141385Y51623878D01*
X23159005Y51617360D01*
X23207385Y51616372D01*
X23216286Y51633076D01*
X23186671Y51666014D01*
X23107002Y51723992D01*
X22991043Y51797494D01*
X22908873Y51845601D01*
X22777465Y51923982D01*
X22673864Y51992715D01*
X22611895Y52042242D01*
X22600444Y52058851D01*
X22619315Y52116548D01*
X22648253Y52164045D01*
X22674088Y52191935D01*
X22707180Y52200183D01*
X22760516Y52184515D01*
X22847084Y52140658D01*
X22979870Y52064341D01*
X23016181Y52043003D01*
X23151006Y51966583D01*
X23261825Y51909278D01*
X23334614Y51878015D01*
X23355465Y51875371D01*
X23339928Y51907616D01*
X23282159Y51979082D01*
X23191917Y52078355D01*
X23106424Y52166583D01*
X22837201Y52437615D01*
X22998671Y52599085D01*
X23269703Y52329862D01*
X23382328Y52220974D01*
X23475444Y52136555D01*
X23537766Y52086491D01*
X23557670Y52077575D01*
X23547894Y52114022D01*
X23507895Y52198473D01*
X23444757Y52316687D01*
X23396232Y52402184D01*
X23320145Y52535504D01*
X23260057Y52644747D01*
X23223935Y52715203D01*
X23217072Y52732899D01*
X23243434Y52767321D01*
X23301473Y52811756D01*
X23340183Y52834187D01*
X23372495Y52836413D01*
X23407484Y52809161D01*
X23454223Y52743159D01*
X23521784Y52629132D01*
X23579777Y52527311D01*
X23660210Y52390683D01*
X23729049Y52283180D01*
X23778064Y52217077D01*
X23797656Y52202352D01*
X23799812Y52241708D01*
X23784875Y52334359D01*
X23755822Y52463856D01*
X23737189Y52536328D01*
X23690294Y52716932D01*
X23663866Y52839872D01*
X23658043Y52917147D01*
X23672962Y52960760D01*
X23708761Y52982710D01*
X23742387Y52990873D01*
X23801993Y52993573D01*
X23838164Y52960994D01*
X23867557Y52876207D01*
X23872126Y52859032D01*
X23935248Y52623725D01*
X23984580Y52453314D01*
X24021994Y52341834D01*
X24049359Y52283321D01*
X24054874Y52276243D01*
X24068565Y52294852D01*
X24079048Y52376282D01*
X24085480Y52510823D01*
X24087143Y52648172D01*
X24087143Y53054572D01*
X24304857Y53054572D01*
X24304857Y52653287D01*
X24308320Y52458764D01*
X24318809Y52336223D01*
X24336471Y52285402D01*
X24361454Y52306040D01*
X24393906Y52397873D01*
X24411472Y52464312D01*
X24463970Y52671729D01*
X24504644Y52818276D01*
X24537968Y52913799D01*
X24568415Y52968146D01*
X24600459Y52991163D01*
X24638574Y52992698D01*
X24650625Y52990680D01*
X24699315Y52976260D01*
X24727136Y52947625D01*
X24734199Y52892786D01*
X24720614Y52799756D01*
X24686491Y52656544D01*
X24654811Y52536328D01*
X24619888Y52394705D01*
X24597611Y52281809D01*
X24590956Y52214088D01*
X24594343Y52202352D01*
X24621064Y52225539D01*
X24674328Y52300149D01*
X24745908Y52413910D01*
X24812222Y52527311D01*
X24897761Y52676731D01*
X24956702Y52772224D01*
X24998119Y52823065D01*
X25031085Y52838526D01*
X25064674Y52827881D01*
X25090527Y52811756D01*
X25152295Y52763837D01*
X25174928Y52732899D01*
X25157482Y52693566D01*
X25111174Y52606410D01*
X25043973Y52486141D01*
X24995768Y52402184D01*
X24921680Y52270001D01*
X24866262Y52162596D01*
X24836600Y52094214D01*
X24834330Y52077575D01*
X24865246Y52094443D01*
X24935647Y52153281D01*
X25034247Y52244201D01*
X25122297Y52329862D01*
X25393328Y52599085D01*
X25554798Y52437615D01*
X25285576Y52166583D01*
X25176977Y52053672D01*
X25093335Y51959781D01*
X25044408Y51896320D01*
X25036535Y51875371D01*
X25074148Y51884149D01*
X25159661Y51923846D01*
X25279050Y51987534D01*
X25375819Y52043003D01*
X25520390Y52126954D01*
X25615914Y52177514D01*
X25675380Y52198956D01*
X25711774Y52195552D01*
X25738083Y52171574D01*
X25743747Y52164045D01*
X25782448Y52095068D01*
X25791556Y52058851D01*
X25761485Y52025584D01*
X25681418Y51967328D01*
X25565181Y51893642D01*
X25483127Y51845601D01*
X25351864Y51767319D01*
X25248546Y51698792D01*
X25186936Y51649534D01*
X25175714Y51633076D01*
X25201728Y51609750D01*
X25224505Y51614102D01*
X25337552Y51651903D01*
X25474894Y51689894D01*
X25618133Y51724052D01*
X25748872Y51750354D01*
X25848714Y51764776D01*
X25899259Y51763295D01*
X25900981Y51762030D01*
X25932853Y51701465D01*
X25943753Y51660020D01*
X25940543Y51625351D01*
X25909610Y51595438D01*
X25839162Y51564593D01*
X25717412Y51527124D01*
X25604776Y51496415D01*
X25453564Y51454284D01*
X25329238Y51416149D01*
X25248263Y51387254D01*
X25226800Y51376038D01*
X25249524Y51365378D01*
X25331535Y51356715D01*
X25459559Y51350995D01*
X25605095Y51349143D01*
X26010286Y51349143D01*
X27801644Y51349143D01*
X27801225Y51445484D01*
X27794908Y51633793D01*
X27781611Y51788237D01*
X27759622Y51928127D01*
X27727232Y52072772D01*
X27724219Y52084811D01*
X27566335Y52578900D01*
X27350607Y53031278D01*
X27073477Y53448403D01*
X26792761Y53774048D01*
X26418458Y54115556D01*
X26015869Y54393921D01*
X25590818Y54610060D01*
X25149128Y54764885D01*
X24696621Y54859310D01*
X24239122Y54894252D01*
X23782454Y54870622D01*
X23782454Y54870622D01*
G37*
X23782454Y54870622D02*
X23332439Y54789337D01*
X22894902Y54651309D01*
X22475665Y54457454D01*
X22080552Y54208685D01*
X21715386Y53905917D01*
X21385991Y53550064D01*
X21098189Y53142041D01*
X20939040Y52855000D01*
X20847841Y52648444D01*
X20758482Y52403544D01*
X20680680Y52150284D01*
X20624152Y51918646D01*
X20609636Y51838522D01*
X20578439Y51639583D01*
X20944862Y51397207D01*
X21195728Y51213453D01*
X21465839Y50984884D01*
X21739325Y50727304D01*
X22000319Y50456522D01*
X22232953Y50188343D01*
X22421359Y49938574D01*
X22446010Y49901875D01*
X22758304Y49370481D01*
X23008768Y48820601D01*
X23193506Y48261674D01*
X23279191Y47883468D01*
X23341688Y47543712D01*
X23563174Y47505142D01*
X23758105Y47474067D01*
X23905887Y47462882D01*
X24026031Y47477088D01*
X24138052Y47522191D01*
X24261461Y47603695D01*
X24415772Y47727103D01*
X24449462Y47755130D01*
X24581319Y47863797D01*
X24691386Y47952041D01*
X24768749Y48011290D01*
X24802495Y48032972D01*
X24802992Y48032818D01*
X24814352Y47995024D01*
X24833672Y47907663D01*
X24849143Y47829429D01*
X24871408Y47720083D01*
X24889624Y47644766D01*
X24897133Y47624200D01*
X24934868Y47627736D01*
X25023011Y47647771D01*
X25142112Y47679865D01*
X25626989Y47855184D01*
X26076017Y48091331D01*
X26484622Y48383646D01*
X26848233Y48727473D01*
X27162275Y49118152D01*
X27422178Y49551026D01*
X27623366Y50021436D01*
X27706814Y50292518D01*
X27744639Y50443559D01*
X27770952Y50578896D01*
X27787826Y50718307D01*
X27797332Y50881576D01*
X27801543Y51088482D01*
X27802273Y51204000D01*
X27801644Y51349143D01*
X26010286Y51349143D01*
X26010286Y51131429D01*
X25631427Y51131429D01*
X25472697Y51128332D01*
X25342352Y51119966D01*
X25256565Y51107719D01*
X25231355Y51097105D01*
X25227999Y51080492D01*
X25246334Y51063548D01*
X25296320Y51042787D01*
X25387914Y51014722D01*
X25531074Y50975866D01*
X25711491Y50928979D01*
X25841546Y50893336D01*
X25914819Y50864471D01*
X25945367Y50833411D01*
X25947252Y50791180D01*
X25945265Y50779754D01*
X25921092Y50706227D01*
X25898863Y50676272D01*
X25852825Y50677379D01*
X25754391Y50695832D01*
X25620673Y50728123D01*
X25542304Y50749380D01*
X25379141Y50795037D01*
X25273401Y50823128D01*
X25212631Y50835678D01*
X25184375Y50834713D01*
X25176182Y50822256D01*
X25175714Y50808985D01*
X25205239Y50778392D01*
X25284697Y50722117D01*
X25400411Y50649414D01*
X25484024Y50600342D01*
X25615241Y50521697D01*
X25718455Y50453104D01*
X25780023Y50404012D01*
X25791299Y50387572D01*
X25770350Y50331739D01*
X25741560Y50287103D01*
X25715113Y50260522D01*
X25680382Y50253932D01*
X25624323Y50271684D01*
X25533890Y50318132D01*
X25396039Y50397627D01*
X25377378Y50408600D01*
X25243080Y50484295D01*
X25132443Y50540379D01*
X25059700Y50569999D01*
X25039126Y50571508D01*
X25053302Y50537967D01*
X25109636Y50465540D01*
X25198366Y50366040D01*
X25274413Y50286725D01*
X25390510Y50167599D01*
X25462470Y50087385D01*
X25497487Y50033689D01*
X25502750Y49994117D01*
X25485450Y49956275D01*
X25475140Y49940771D01*
X25417807Y49856826D01*
X25137948Y50135044D01*
X25023593Y50244525D01*
X24928302Y50327868D01*
X24863121Y50375913D01*
X24839708Y50382273D01*
X24848939Y50339723D01*
X24888453Y50249538D01*
X24951363Y50126413D01*
X25005255Y50029152D01*
X25087400Y49883507D01*
X25136962Y49787362D01*
X25158001Y49727580D01*
X25154582Y49691023D01*
X25130766Y49664552D01*
X25120416Y49656735D01*
X25053134Y49621702D01*
X25016833Y49618056D01*
X24985357Y49652720D01*
X24928089Y49737030D01*
X24854145Y49857010D01*
X24797651Y49954188D01*
X24708175Y50104125D01*
X24646419Y50189113D01*
X24611851Y50208541D01*
X24603941Y50161795D01*
X24622158Y50048263D01*
X24665970Y49867332D01*
X24679237Y49817509D01*
X24764452Y49501446D01*
X24662735Y49465988D01*
X24621277Y49450937D01*
X24590840Y49446284D01*
X24566428Y49461916D01*
X24543043Y49507721D01*
X24515690Y49593588D01*
X24479371Y49729402D01*
X24429091Y49925053D01*
X24427366Y49931752D01*
X24391759Y50056106D01*
X24358869Y50147186D01*
X24335159Y50187421D01*
X24333106Y50188000D01*
X24321755Y50154160D01*
X24312581Y50062402D01*
X24306621Y49927370D01*
X24304857Y49788857D01*
X24304857Y49389715D01*
X24087143Y49389715D01*
X24087143Y49788857D01*
X24084710Y49949246D01*
X24078113Y50078865D01*
X24068404Y50163071D01*
X24058445Y50188000D01*
X24035773Y50155677D01*
X24003243Y50070674D01*
X23967662Y49950948D01*
X23965584Y49943072D01*
X23926864Y49795196D01*
X23890135Y49654808D01*
X23866468Y49564243D01*
X23839681Y49478528D01*
X23807266Y49448650D01*
X23748217Y49459521D01*
X23729531Y49465895D01*
X23627547Y49501446D01*
X23712763Y49817509D01*
X23762235Y50013619D01*
X23786231Y50142193D01*
X23784218Y50203844D01*
X23755667Y50199183D01*
X23700046Y50128825D01*
X23616824Y49993381D01*
X23594349Y49954188D01*
X23514175Y49817629D01*
X23444333Y49707006D01*
X23393936Y49636298D01*
X23375167Y49618056D01*
X23321558Y49628165D01*
X23271584Y49656735D01*
X23242517Y49682739D01*
X23232646Y49714947D01*
X23246033Y49766497D01*
X23286741Y49850526D01*
X23358832Y49980172D01*
X23386745Y50029152D01*
X23461863Y50166522D01*
X23518376Y50281170D01*
X23549397Y50358403D01*
X23552292Y50382273D01*
X23521022Y50370996D01*
X23450310Y50316703D01*
X23351175Y50228537D01*
X23252705Y50133705D01*
X22971500Y49854149D01*
X22912405Y49938519D01*
X22887882Y49978606D01*
X22883185Y50015546D01*
X22905470Y50061637D01*
X22961892Y50129174D01*
X23059606Y50230456D01*
X23114478Y50285812D01*
X23220984Y50397194D01*
X23301889Y50489879D01*
X23347419Y50552149D01*
X23352873Y50571508D01*
X23314124Y50563860D01*
X23227777Y50525073D01*
X23108064Y50462003D01*
X23014621Y50408600D01*
X22870744Y50325196D01*
X22775724Y50275319D01*
X22716515Y50254616D01*
X22680073Y50258736D01*
X22653352Y50283327D01*
X22650439Y50287103D01*
X22610647Y50353964D01*
X22600701Y50387572D01*
X22629804Y50419939D01*
X22708963Y50477629D01*
X22824533Y50551195D01*
X22907976Y50600342D01*
X23039251Y50678567D01*
X23142715Y50746081D01*
X23204692Y50793628D01*
X23216286Y50808985D01*
X23214446Y50827814D01*
X23200625Y50836465D01*
X23162369Y50832914D01*
X23087223Y50815136D01*
X22962734Y50781106D01*
X22849696Y50749380D01*
X22704327Y50711241D01*
X22585279Y50685103D01*
X22509664Y50674473D01*
X22493137Y50676272D01*
X22463332Y50723122D01*
X22446735Y50779754D01*
X22444286Y50825565D01*
X22467472Y50858273D01*
X22530354Y50886853D01*
X22646990Y50920278D01*
X22680509Y50928979D01*
X22878381Y50980478D01*
X23015757Y51018059D01*
X23102595Y51045209D01*
X23148853Y51065414D01*
X23164489Y51082163D01*
X23160644Y51097105D01*
X23117681Y51111312D01*
X23018334Y51122653D01*
X22878774Y51129739D01*
X22760573Y51131429D01*
X22381714Y51131429D01*
X22381714Y51349143D01*
X22786905Y51349143D01*
X22945818Y51351014D01*
X23071324Y51356095D01*
X23149951Y51363588D01*
X23169438Y51371801D01*
X23126884Y51390526D01*
X23030255Y51422910D01*
X22895563Y51463794D01*
X22791461Y51493525D01*
X22628499Y51540875D01*
X22524615Y51577201D01*
X22468258Y51608152D01*
X22447878Y51639376D01*
X22448247Y51661367D01*
X22472112Y51734226D01*
X22488438Y51759449D01*
X22531871Y51762465D01*
X22626455Y51749940D01*
X22753445Y51725847D01*
X22894095Y51694158D01*
X23029657Y51658844D01*
X23141385Y51623878D01*
X23159005Y51617360D01*
X23207385Y51616372D01*
X23216286Y51633076D01*
X23186671Y51666014D01*
X23107002Y51723992D01*
X22991043Y51797494D01*
X22908873Y51845601D01*
X22777465Y51923982D01*
X22673864Y51992715D01*
X22611895Y52042242D01*
X22600444Y52058851D01*
X22619315Y52116548D01*
X22648253Y52164045D01*
X22674088Y52191935D01*
X22707180Y52200183D01*
X22760516Y52184515D01*
X22847084Y52140658D01*
X22979870Y52064341D01*
X23016181Y52043003D01*
X23151006Y51966583D01*
X23261825Y51909278D01*
X23334614Y51878015D01*
X23355465Y51875371D01*
X23339928Y51907616D01*
X23282159Y51979082D01*
X23191917Y52078355D01*
X23106424Y52166583D01*
X22837201Y52437615D01*
X22998671Y52599085D01*
X23269703Y52329862D01*
X23382328Y52220974D01*
X23475444Y52136555D01*
X23537766Y52086491D01*
X23557670Y52077575D01*
X23547894Y52114022D01*
X23507895Y52198473D01*
X23444757Y52316687D01*
X23396232Y52402184D01*
X23320145Y52535504D01*
X23260057Y52644747D01*
X23223935Y52715203D01*
X23217072Y52732899D01*
X23243434Y52767321D01*
X23301473Y52811756D01*
X23340183Y52834187D01*
X23372495Y52836413D01*
X23407484Y52809161D01*
X23454223Y52743159D01*
X23521784Y52629132D01*
X23579777Y52527311D01*
X23660210Y52390683D01*
X23729049Y52283180D01*
X23778064Y52217077D01*
X23797656Y52202352D01*
X23799812Y52241708D01*
X23784875Y52334359D01*
X23755822Y52463856D01*
X23737189Y52536328D01*
X23690294Y52716932D01*
X23663866Y52839872D01*
X23658043Y52917147D01*
X23672962Y52960760D01*
X23708761Y52982710D01*
X23742387Y52990873D01*
X23801993Y52993573D01*
X23838164Y52960994D01*
X23867557Y52876207D01*
X23872126Y52859032D01*
X23935248Y52623725D01*
X23984580Y52453314D01*
X24021994Y52341834D01*
X24049359Y52283321D01*
X24054874Y52276243D01*
X24068565Y52294852D01*
X24079048Y52376282D01*
X24085480Y52510823D01*
X24087143Y52648172D01*
X24087143Y53054572D01*
X24304857Y53054572D01*
X24304857Y52653287D01*
X24308320Y52458764D01*
X24318809Y52336223D01*
X24336471Y52285402D01*
X24361454Y52306040D01*
X24393906Y52397873D01*
X24411472Y52464312D01*
X24463970Y52671729D01*
X24504644Y52818276D01*
X24537968Y52913799D01*
X24568415Y52968146D01*
X24600459Y52991163D01*
X24638574Y52992698D01*
X24650625Y52990680D01*
X24699315Y52976260D01*
X24727136Y52947625D01*
X24734199Y52892786D01*
X24720614Y52799756D01*
X24686491Y52656544D01*
X24654811Y52536328D01*
X24619888Y52394705D01*
X24597611Y52281809D01*
X24590956Y52214088D01*
X24594343Y52202352D01*
X24621064Y52225539D01*
X24674328Y52300149D01*
X24745908Y52413910D01*
X24812222Y52527311D01*
X24897761Y52676731D01*
X24956702Y52772224D01*
X24998119Y52823065D01*
X25031085Y52838526D01*
X25064674Y52827881D01*
X25090527Y52811756D01*
X25152295Y52763837D01*
X25174928Y52732899D01*
X25157482Y52693566D01*
X25111174Y52606410D01*
X25043973Y52486141D01*
X24995768Y52402184D01*
X24921680Y52270001D01*
X24866262Y52162596D01*
X24836600Y52094214D01*
X24834330Y52077575D01*
X24865246Y52094443D01*
X24935647Y52153281D01*
X25034247Y52244201D01*
X25122297Y52329862D01*
X25393328Y52599085D01*
X25554798Y52437615D01*
X25285576Y52166583D01*
X25176977Y52053672D01*
X25093335Y51959781D01*
X25044408Y51896320D01*
X25036535Y51875371D01*
X25074148Y51884149D01*
X25159661Y51923846D01*
X25279050Y51987534D01*
X25375819Y52043003D01*
X25520390Y52126954D01*
X25615914Y52177514D01*
X25675380Y52198956D01*
X25711774Y52195552D01*
X25738083Y52171574D01*
X25743747Y52164045D01*
X25782448Y52095068D01*
X25791556Y52058851D01*
X25761485Y52025584D01*
X25681418Y51967328D01*
X25565181Y51893642D01*
X25483127Y51845601D01*
X25351864Y51767319D01*
X25248546Y51698792D01*
X25186936Y51649534D01*
X25175714Y51633076D01*
X25201728Y51609750D01*
X25224505Y51614102D01*
X25337552Y51651903D01*
X25474894Y51689894D01*
X25618133Y51724052D01*
X25748872Y51750354D01*
X25848714Y51764776D01*
X25899259Y51763295D01*
X25900981Y51762030D01*
X25932853Y51701465D01*
X25943753Y51660020D01*
X25940543Y51625351D01*
X25909610Y51595438D01*
X25839162Y51564593D01*
X25717412Y51527124D01*
X25604776Y51496415D01*
X25453564Y51454284D01*
X25329238Y51416149D01*
X25248263Y51387254D01*
X25226800Y51376038D01*
X25249524Y51365378D01*
X25331535Y51356715D01*
X25459559Y51350995D01*
X25605095Y51349143D01*
X26010286Y51349143D01*
X27801644Y51349143D01*
X27801225Y51445484D01*
X27794908Y51633793D01*
X27781611Y51788237D01*
X27759622Y51928127D01*
X27727232Y52072772D01*
X27724219Y52084811D01*
X27566335Y52578900D01*
X27350607Y53031278D01*
X27073477Y53448403D01*
X26792761Y53774048D01*
X26418458Y54115556D01*
X26015869Y54393921D01*
X25590818Y54610060D01*
X25149128Y54764885D01*
X24696621Y54859310D01*
X24239122Y54894252D01*
X23782454Y54870622D01*
G36*
X13632731Y49684453D02*
X13340582Y49177392D01*
X13104445Y48629034D01*
X12927047Y48047355D01*
X12811119Y47440331D01*
X12783639Y47203500D01*
X12760224Y46958572D01*
X14970068Y46958572D01*
X14995699Y47294215D01*
X15017202Y47513828D01*
X15049042Y47760324D01*
X15087902Y48013505D01*
X15130468Y48253174D01*
X15173423Y48459134D01*
X15210137Y48600500D01*
X15236072Y48707446D01*
X15235720Y48765786D01*
X15226238Y48772858D01*
X15171507Y48754237D01*
X15068658Y48703320D01*
X14930311Y48627524D01*
X14769089Y48534264D01*
X14597613Y48430959D01*
X14428506Y48325025D01*
X14274389Y48223878D01*
X14178045Y48156925D01*
X13872714Y47937516D01*
X13789378Y48032607D01*
X13736770Y48107407D01*
X13718351Y48164541D01*
X13719246Y48169064D01*
X13756477Y48210410D01*
X13844867Y48280621D01*
X13972816Y48372122D01*
X14128724Y48477336D01*
X14300991Y48588689D01*
X14478018Y48698604D01*
X14648203Y48799506D01*
X14799947Y48883819D01*
X14864545Y48917025D01*
X15189817Y49078150D01*
X14808102Y49286906D01*
X14614757Y49396575D01*
X14404412Y49522187D01*
X14208268Y49644854D01*
X14108853Y49710212D01*
X13791318Y49924763D01*
X13632731Y49684453D01*
X13632731Y49684453D01*
G37*
X13632731Y49684453D02*
X13340582Y49177392D01*
X13104445Y48629034D01*
X12927047Y48047355D01*
X12811119Y47440331D01*
X12783639Y47203500D01*
X12760224Y46958572D01*
X14970068Y46958572D01*
X14995699Y47294215D01*
X15017202Y47513828D01*
X15049042Y47760324D01*
X15087902Y48013505D01*
X15130468Y48253174D01*
X15173423Y48459134D01*
X15210137Y48600500D01*
X15236072Y48707446D01*
X15235720Y48765786D01*
X15226238Y48772858D01*
X15171507Y48754237D01*
X15068658Y48703320D01*
X14930311Y48627524D01*
X14769089Y48534264D01*
X14597613Y48430959D01*
X14428506Y48325025D01*
X14274389Y48223878D01*
X14178045Y48156925D01*
X13872714Y47937516D01*
X13789378Y48032607D01*
X13736770Y48107407D01*
X13718351Y48164541D01*
X13719246Y48169064D01*
X13756477Y48210410D01*
X13844867Y48280621D01*
X13972816Y48372122D01*
X14128724Y48477336D01*
X14300991Y48588689D01*
X14478018Y48698604D01*
X14648203Y48799506D01*
X14799947Y48883819D01*
X14864545Y48917025D01*
X15189817Y49078150D01*
X14808102Y49286906D01*
X14614757Y49396575D01*
X14404412Y49522187D01*
X14208268Y49644854D01*
X14108853Y49710212D01*
X13791318Y49924763D01*
X13632731Y49684453D01*
G36*
X15596607Y48871039D02*
X15568161Y48780735D01*
X15529834Y48652917D01*
X15509115Y48582004D01*
X15378105Y48031625D01*
X15295915Y47464259D01*
X15281706Y47294215D01*
X15258769Y46958572D01*
X17811157Y46958572D01*
X17801364Y47729643D01*
X17791571Y48500715D01*
X17628286Y48509678D01*
X17195505Y48547582D01*
X16755653Y48612122D01*
X16332199Y48698944D01*
X15948610Y48803690D01*
X15827841Y48843876D01*
X15716947Y48880944D01*
X15637836Y48903787D01*
X15610165Y48907690D01*
X15596607Y48871039D01*
X15596607Y48871039D01*
G37*
X15596607Y48871039D02*
X15568161Y48780735D01*
X15529834Y48652917D01*
X15509115Y48582004D01*
X15378105Y48031625D01*
X15295915Y47464259D01*
X15281706Y47294215D01*
X15258769Y46958572D01*
X17811157Y46958572D01*
X17801364Y47729643D01*
X17791571Y48500715D01*
X17628286Y48509678D01*
X17195505Y48547582D01*
X16755653Y48612122D01*
X16332199Y48698944D01*
X15948610Y48803690D01*
X15827841Y48843876D01*
X15716947Y48880944D01*
X15637836Y48903787D01*
X15610165Y48907690D01*
X15596607Y48871039D01*
G36*
X19529495Y51726863D02*
X19486020Y51677057D01*
X19429463Y51579311D01*
X19406774Y51536980D01*
X19223904Y51264107D01*
X18990804Y51027609D01*
X18720770Y50837670D01*
X18427097Y50704477D01*
X18261115Y50659264D01*
X18061588Y50617842D01*
X18071722Y50158165D01*
X18081857Y49698489D01*
X18281429Y49674619D01*
X18408943Y49659362D01*
X18579279Y49638973D01*
X18763202Y49616952D01*
X18837018Y49608112D01*
X19484067Y49494099D01*
X20120455Y49308357D01*
X20745965Y49050973D01*
X21360381Y48722036D01*
X21882786Y48379821D01*
X22004121Y48290674D01*
X22099152Y48215622D01*
X22154848Y48165239D01*
X22164000Y48151670D01*
X22142215Y48107892D01*
X22089092Y48038416D01*
X22082357Y48030639D01*
X22000714Y47937516D01*
X21697064Y48155724D01*
X21215885Y48469149D01*
X20703975Y48742799D01*
X20173454Y48972251D01*
X19636441Y49153084D01*
X19105054Y49280874D01*
X18591414Y49351201D01*
X18390286Y49362353D01*
X18081857Y49371572D01*
X18072296Y48165072D01*
X18062736Y46958572D01*
X20585082Y46958572D01*
X21073725Y46958615D01*
X21494818Y46958837D01*
X21853386Y46959380D01*
X22154450Y46960384D01*
X22403034Y46961990D01*
X22604160Y46964339D01*
X22762850Y46967571D01*
X22884128Y46971828D01*
X22973016Y46977250D01*
X23034537Y46983978D01*
X23073714Y46992153D01*
X23095568Y47001915D01*
X23105124Y47013406D01*
X23107403Y47026767D01*
X23107428Y47029285D01*
X23099100Y47167650D01*
X23076386Y47356594D01*
X23042697Y47576339D01*
X23001441Y47807109D01*
X22956028Y48029126D01*
X22909867Y48222613D01*
X22888477Y48299442D01*
X22689302Y48846737D01*
X22424856Y49376271D01*
X22102010Y49878161D01*
X21727636Y50342526D01*
X21308604Y50759482D01*
X21004935Y51008421D01*
X20862365Y51107411D01*
X20683123Y51219087D01*
X20481364Y51335941D01*
X20271240Y51450468D01*
X20066904Y51555159D01*
X19882509Y51642507D01*
X19732207Y51705006D01*
X19637179Y51733920D01*
X19574883Y51741544D01*
X19529495Y51726863D01*
X19529495Y51726863D01*
G37*
X19529495Y51726863D02*
X19486020Y51677057D01*
X19429463Y51579311D01*
X19406774Y51536980D01*
X19223904Y51264107D01*
X18990804Y51027609D01*
X18720770Y50837670D01*
X18427097Y50704477D01*
X18261115Y50659264D01*
X18061588Y50617842D01*
X18071722Y50158165D01*
X18081857Y49698489D01*
X18281429Y49674619D01*
X18408943Y49659362D01*
X18579279Y49638973D01*
X18763202Y49616952D01*
X18837018Y49608112D01*
X19484067Y49494099D01*
X20120455Y49308357D01*
X20745965Y49050973D01*
X21360381Y48722036D01*
X21882786Y48379821D01*
X22004121Y48290674D01*
X22099152Y48215622D01*
X22154848Y48165239D01*
X22164000Y48151670D01*
X22142215Y48107892D01*
X22089092Y48038416D01*
X22082357Y48030639D01*
X22000714Y47937516D01*
X21697064Y48155724D01*
X21215885Y48469149D01*
X20703975Y48742799D01*
X20173454Y48972251D01*
X19636441Y49153084D01*
X19105054Y49280874D01*
X18591414Y49351201D01*
X18390286Y49362353D01*
X18081857Y49371572D01*
X18072296Y48165072D01*
X18062736Y46958572D01*
X20585082Y46958572D01*
X21073725Y46958615D01*
X21494818Y46958837D01*
X21853386Y46959380D01*
X22154450Y46960384D01*
X22403034Y46961990D01*
X22604160Y46964339D01*
X22762850Y46967571D01*
X22884128Y46971828D01*
X22973016Y46977250D01*
X23034537Y46983978D01*
X23073714Y46992153D01*
X23095568Y47001915D01*
X23105124Y47013406D01*
X23107403Y47026767D01*
X23107428Y47029285D01*
X23099100Y47167650D01*
X23076386Y47356594D01*
X23042697Y47576339D01*
X23001441Y47807109D01*
X22956028Y48029126D01*
X22909867Y48222613D01*
X22888477Y48299442D01*
X22689302Y48846737D01*
X22424856Y49376271D01*
X22102010Y49878161D01*
X21727636Y50342526D01*
X21308604Y50759482D01*
X21004935Y51008421D01*
X20862365Y51107411D01*
X20683123Y51219087D01*
X20481364Y51335941D01*
X20271240Y51450468D01*
X20066904Y51555159D01*
X19882509Y51642507D01*
X19732207Y51705006D01*
X19637179Y51733920D01*
X19574883Y51741544D01*
X19529495Y51726863D01*
G36*
X28213674Y51108770D02*
X28048363Y51086112D01*
X28023654Y50863842D01*
X27929340Y50318139D01*
X27771769Y49807595D01*
X27551194Y49332745D01*
X27267867Y48894125D01*
X26922043Y48492270D01*
X26883531Y48453630D01*
X26483727Y48107450D01*
X26046129Y47821977D01*
X25575335Y47599922D01*
X25248286Y47489316D01*
X25078566Y47434894D01*
X24978034Y47389058D01*
X24943979Y47350547D01*
X24944016Y47348076D01*
X24951687Y47282052D01*
X24966182Y47176630D01*
X24973445Y47127197D01*
X24998716Y46958684D01*
X24900754Y46995929D01*
X24826029Y47018263D01*
X24788385Y47018766D01*
X24786534Y46975337D01*
X24801041Y46878353D01*
X24828237Y46744014D01*
X24864453Y46588519D01*
X24906020Y46428067D01*
X24949269Y46278857D01*
X24971528Y46210140D01*
X25040466Y46022312D01*
X25108152Y45864456D01*
X25169344Y45746841D01*
X25218801Y45679734D01*
X25247336Y45669842D01*
X25294053Y45665272D01*
X25399595Y45635357D01*
X25555890Y45582881D01*
X25754868Y45510632D01*
X25988457Y45421395D01*
X26137286Y45362684D01*
X26246143Y45319272D01*
X25920929Y45037136D01*
X26083536Y44869134D01*
X26389134Y44594298D01*
X26739810Y44349102D01*
X27120185Y44141052D01*
X27514881Y43977651D01*
X27908518Y43866406D01*
X28237474Y43817942D01*
X28380932Y43806592D01*
X28506834Y43795906D01*
X28586571Y43788335D01*
X28664304Y43786898D01*
X28790550Y43791854D01*
X28941633Y43802160D01*
X28985714Y43805911D01*
X29473281Y43885033D01*
X29942159Y44031242D01*
X30385932Y44240101D01*
X30798182Y44507172D01*
X31172492Y44828015D01*
X31502443Y45198192D01*
X31781618Y45613265D01*
X31889209Y45813991D01*
X31978987Y46012188D01*
X32067587Y46236988D01*
X32141161Y46452141D01*
X32167057Y46541286D01*
X32205774Y46694268D01*
X32232652Y46827358D01*
X32249742Y46960334D01*
X32259096Y47112971D01*
X32262767Y47305048D01*
X32263067Y47466572D01*
X29475571Y47466572D01*
X29454556Y47103704D01*
X29387784Y46777316D01*
X29269665Y46473923D01*
X29094612Y46180040D01*
X28857034Y45882181D01*
X28787032Y45805319D01*
X28533921Y45533582D01*
X28279032Y45804778D01*
X28150086Y45951228D01*
X28023142Y46111022D01*
X27918830Y46257648D01*
X27886907Y46308630D01*
X27750464Y46571004D01*
X27659345Y46827444D01*
X27607529Y47101330D01*
X27588996Y47416042D01*
X27588714Y47466572D01*
X27591778Y47674703D01*
X27603052Y47834845D01*
X27625659Y47971399D01*
X27662723Y48108770D01*
X27676374Y48151490D01*
X27795922Y48433992D01*
X27970714Y48730458D01*
X28190230Y49024175D01*
X28315856Y49167357D01*
X28530016Y49398571D01*
X28744184Y49170716D01*
X28976723Y48894831D01*
X29174226Y48603269D01*
X29325089Y48314402D01*
X29387912Y48151490D01*
X29429669Y48009416D01*
X29456079Y47875116D01*
X29470266Y47724187D01*
X29475353Y47532225D01*
X29475571Y47466572D01*
X32263067Y47466572D01*
X32257475Y47764919D01*
X32239057Y48014303D01*
X32203590Y48237823D01*
X32146849Y48458574D01*
X32064612Y48699655D01*
X32012996Y48834062D01*
X31803322Y49270151D01*
X31531623Y49679843D01*
X31206485Y50053500D01*
X30836493Y50381483D01*
X30430233Y50654153D01*
X30354084Y50696526D01*
X29946708Y50882095D01*
X29509956Y51019142D01*
X29060971Y51104363D01*
X28616896Y51134457D01*
X28213674Y51108770D01*
X28213674Y51108770D01*
G37*
X28213674Y51108770D02*
X28048363Y51086112D01*
X28023654Y50863842D01*
X27929340Y50318139D01*
X27771769Y49807595D01*
X27551194Y49332745D01*
X27267867Y48894125D01*
X26922043Y48492270D01*
X26883531Y48453630D01*
X26483727Y48107450D01*
X26046129Y47821977D01*
X25575335Y47599922D01*
X25248286Y47489316D01*
X25078566Y47434894D01*
X24978034Y47389058D01*
X24943979Y47350547D01*
X24944016Y47348076D01*
X24951687Y47282052D01*
X24966182Y47176630D01*
X24973445Y47127197D01*
X24998716Y46958684D01*
X24900754Y46995929D01*
X24826029Y47018263D01*
X24788385Y47018766D01*
X24786534Y46975337D01*
X24801041Y46878353D01*
X24828237Y46744014D01*
X24864453Y46588519D01*
X24906020Y46428067D01*
X24949269Y46278857D01*
X24971528Y46210140D01*
X25040466Y46022312D01*
X25108152Y45864456D01*
X25169344Y45746841D01*
X25218801Y45679734D01*
X25247336Y45669842D01*
X25294053Y45665272D01*
X25399595Y45635357D01*
X25555890Y45582881D01*
X25754868Y45510632D01*
X25988457Y45421395D01*
X26137286Y45362684D01*
X26246143Y45319272D01*
X25920929Y45037136D01*
X26083536Y44869134D01*
X26389134Y44594298D01*
X26739810Y44349102D01*
X27120185Y44141052D01*
X27514881Y43977651D01*
X27908518Y43866406D01*
X28237474Y43817942D01*
X28380932Y43806592D01*
X28506834Y43795906D01*
X28586571Y43788335D01*
X28664304Y43786898D01*
X28790550Y43791854D01*
X28941633Y43802160D01*
X28985714Y43805911D01*
X29473281Y43885033D01*
X29942159Y44031242D01*
X30385932Y44240101D01*
X30798182Y44507172D01*
X31172492Y44828015D01*
X31502443Y45198192D01*
X31781618Y45613265D01*
X31889209Y45813991D01*
X31978987Y46012188D01*
X32067587Y46236988D01*
X32141161Y46452141D01*
X32167057Y46541286D01*
X32205774Y46694268D01*
X32232652Y46827358D01*
X32249742Y46960334D01*
X32259096Y47112971D01*
X32262767Y47305048D01*
X32263067Y47466572D01*
X29475571Y47466572D01*
X29454556Y47103704D01*
X29387784Y46777316D01*
X29269665Y46473923D01*
X29094612Y46180040D01*
X28857034Y45882181D01*
X28787032Y45805319D01*
X28533921Y45533582D01*
X28279032Y45804778D01*
X28150086Y45951228D01*
X28023142Y46111022D01*
X27918830Y46257648D01*
X27886907Y46308630D01*
X27750464Y46571004D01*
X27659345Y46827444D01*
X27607529Y47101330D01*
X27588996Y47416042D01*
X27588714Y47466572D01*
X27591778Y47674703D01*
X27603052Y47834845D01*
X27625659Y47971399D01*
X27662723Y48108770D01*
X27676374Y48151490D01*
X27795922Y48433992D01*
X27970714Y48730458D01*
X28190230Y49024175D01*
X28315856Y49167357D01*
X28530016Y49398571D01*
X28744184Y49170716D01*
X28976723Y48894831D01*
X29174226Y48603269D01*
X29325089Y48314402D01*
X29387912Y48151490D01*
X29429669Y48009416D01*
X29456079Y47875116D01*
X29470266Y47724187D01*
X29475353Y47532225D01*
X29475571Y47466572D01*
X32263067Y47466572D01*
X32257475Y47764919D01*
X32239057Y48014303D01*
X32203590Y48237823D01*
X32146849Y48458574D01*
X32064612Y48699655D01*
X32012996Y48834062D01*
X31803322Y49270151D01*
X31531623Y49679843D01*
X31206485Y50053500D01*
X30836493Y50381483D01*
X30430233Y50654153D01*
X30354084Y50696526D01*
X29946708Y50882095D01*
X29509956Y51019142D01*
X29060971Y51104363D01*
X28616896Y51134457D01*
X28213674Y51108770D01*
G36*
X7504571Y49838806D02*
X7202097Y49832413D01*
X6949007Y49812736D01*
X6722662Y49775404D01*
X6500425Y49716046D01*
X6259657Y49630291D01*
X6108810Y49569323D01*
X5677388Y49351496D01*
X5282423Y49075967D01*
X4928118Y48749844D01*
X4618676Y48380234D01*
X4358298Y47974246D01*
X4151187Y47538986D01*
X4001545Y47081562D01*
X3913574Y46609082D01*
X3891477Y46128653D01*
X3910312Y45850852D01*
X3999723Y45330695D01*
X4149397Y44849562D01*
X4361374Y44403158D01*
X4637692Y43987188D01*
X4979844Y43597905D01*
X5365942Y43258064D01*
X5781760Y42984426D01*
X6227160Y42777052D01*
X6702003Y42636002D01*
X7206152Y42561333D01*
X7413857Y42550127D01*
X7594452Y42546666D01*
X7757226Y42546627D01*
X7883451Y42549823D01*
X7951214Y42555464D01*
X8001547Y42565219D01*
X8035789Y42582413D01*
X8059744Y42620478D01*
X8079216Y42692851D01*
X8100007Y42812966D01*
X8120820Y42948083D01*
X8230677Y43430179D01*
X8406440Y43893133D01*
X8642580Y44330604D01*
X8933571Y44736252D01*
X9273883Y45103739D01*
X9657991Y45426724D01*
X10080364Y45698866D01*
X10535477Y45913827D01*
X10782342Y46000625D01*
X10873869Y46029143D01*
X8439843Y46029143D01*
X8434812Y45935198D01*
X8376955Y45683085D01*
X8263813Y45446869D01*
X8106124Y45242242D01*
X7914625Y45084889D01*
X7816669Y45032033D01*
X7617871Y44974665D01*
X7390007Y44960781D01*
X7161495Y44989563D01*
X6968262Y45056393D01*
X6805924Y45155448D01*
X6673024Y45282395D01*
X6552902Y45454906D01*
X6495633Y45557673D01*
X6447329Y45657963D01*
X6418437Y45749434D01*
X6404516Y45856275D01*
X6401123Y46002672D01*
X6401622Y46069572D01*
X6427770Y46361488D01*
X6502139Y46657293D01*
X6628788Y46969413D01*
X6801155Y47292230D01*
X6884938Y47427154D01*
X6991788Y47587923D01*
X7108965Y47756520D01*
X7223730Y47914923D01*
X7323342Y48045115D01*
X7386193Y48119715D01*
X7419182Y48106701D01*
X7484209Y48044648D01*
X7572171Y47944296D01*
X7673962Y47816387D01*
X7780480Y47671662D01*
X7843849Y47579767D01*
X8050407Y47242394D01*
X8216780Y46908921D01*
X8339473Y46589072D01*
X8414992Y46292572D01*
X8439843Y46029143D01*
X10873869Y46029143D01*
X10993970Y46066564D01*
X10969923Y46226921D01*
X10950479Y46338080D01*
X10930622Y46424113D01*
X10924799Y46442204D01*
X10922712Y46476206D01*
X10963841Y46483177D01*
X11036575Y46472207D01*
X11123569Y46459800D01*
X11160697Y46475280D01*
X11168931Y46530766D01*
X11168952Y46548713D01*
X11156201Y46694710D01*
X11122281Y46881476D01*
X11071997Y47093075D01*
X11010153Y47313568D01*
X10941554Y47527018D01*
X10871003Y47717488D01*
X10803306Y47869041D01*
X10743267Y47965739D01*
X10740996Y47968350D01*
X10682597Y48009088D01*
X10572676Y48065129D01*
X10428373Y48128287D01*
X10305515Y48176286D01*
X10153215Y48234196D01*
X10028196Y48284470D01*
X9944938Y48321108D01*
X9917916Y48336871D01*
X9936420Y48369308D01*
X9998198Y48431331D01*
X10072242Y48494912D01*
X10240110Y48631041D01*
X10006269Y48850522D01*
X9604511Y49180395D01*
X9166660Y49448726D01*
X8688876Y49657638D01*
X8358172Y49761735D01*
X8226351Y49794146D01*
X8098683Y49816426D01*
X7956933Y49830220D01*
X7782871Y49837174D01*
X7558261Y49838936D01*
X7504571Y49838806D01*
X7504571Y49838806D01*
G37*
X7504571Y49838806D02*
X7202097Y49832413D01*
X6949007Y49812736D01*
X6722662Y49775404D01*
X6500425Y49716046D01*
X6259657Y49630291D01*
X6108810Y49569323D01*
X5677388Y49351496D01*
X5282423Y49075967D01*
X4928118Y48749844D01*
X4618676Y48380234D01*
X4358298Y47974246D01*
X4151187Y47538986D01*
X4001545Y47081562D01*
X3913574Y46609082D01*
X3891477Y46128653D01*
X3910312Y45850852D01*
X3999723Y45330695D01*
X4149397Y44849562D01*
X4361374Y44403158D01*
X4637692Y43987188D01*
X4979844Y43597905D01*
X5365942Y43258064D01*
X5781760Y42984426D01*
X6227160Y42777052D01*
X6702003Y42636002D01*
X7206152Y42561333D01*
X7413857Y42550127D01*
X7594452Y42546666D01*
X7757226Y42546627D01*
X7883451Y42549823D01*
X7951214Y42555464D01*
X8001547Y42565219D01*
X8035789Y42582413D01*
X8059744Y42620478D01*
X8079216Y42692851D01*
X8100007Y42812966D01*
X8120820Y42948083D01*
X8230677Y43430179D01*
X8406440Y43893133D01*
X8642580Y44330604D01*
X8933571Y44736252D01*
X9273883Y45103739D01*
X9657991Y45426724D01*
X10080364Y45698866D01*
X10535477Y45913827D01*
X10782342Y46000625D01*
X10873869Y46029143D01*
X8439843Y46029143D01*
X8434812Y45935198D01*
X8376955Y45683085D01*
X8263813Y45446869D01*
X8106124Y45242242D01*
X7914625Y45084889D01*
X7816669Y45032033D01*
X7617871Y44974665D01*
X7390007Y44960781D01*
X7161495Y44989563D01*
X6968262Y45056393D01*
X6805924Y45155448D01*
X6673024Y45282395D01*
X6552902Y45454906D01*
X6495633Y45557673D01*
X6447329Y45657963D01*
X6418437Y45749434D01*
X6404516Y45856275D01*
X6401123Y46002672D01*
X6401622Y46069572D01*
X6427770Y46361488D01*
X6502139Y46657293D01*
X6628788Y46969413D01*
X6801155Y47292230D01*
X6884938Y47427154D01*
X6991788Y47587923D01*
X7108965Y47756520D01*
X7223730Y47914923D01*
X7323342Y48045115D01*
X7386193Y48119715D01*
X7419182Y48106701D01*
X7484209Y48044648D01*
X7572171Y47944296D01*
X7673962Y47816387D01*
X7780480Y47671662D01*
X7843849Y47579767D01*
X8050407Y47242394D01*
X8216780Y46908921D01*
X8339473Y46589072D01*
X8414992Y46292572D01*
X8439843Y46029143D01*
X10873869Y46029143D01*
X10993970Y46066564D01*
X10969923Y46226921D01*
X10950479Y46338080D01*
X10930622Y46424113D01*
X10924799Y46442204D01*
X10922712Y46476206D01*
X10963841Y46483177D01*
X11036575Y46472207D01*
X11123569Y46459800D01*
X11160697Y46475280D01*
X11168931Y46530766D01*
X11168952Y46548713D01*
X11156201Y46694710D01*
X11122281Y46881476D01*
X11071997Y47093075D01*
X11010153Y47313568D01*
X10941554Y47527018D01*
X10871003Y47717488D01*
X10803306Y47869041D01*
X10743267Y47965739D01*
X10740996Y47968350D01*
X10682597Y48009088D01*
X10572676Y48065129D01*
X10428373Y48128287D01*
X10305515Y48176286D01*
X10153215Y48234196D01*
X10028196Y48284470D01*
X9944938Y48321108D01*
X9917916Y48336871D01*
X9936420Y48369308D01*
X9998198Y48431331D01*
X10072242Y48494912D01*
X10240110Y48631041D01*
X10006269Y48850522D01*
X9604511Y49180395D01*
X9166660Y49448726D01*
X8688876Y49657638D01*
X8358172Y49761735D01*
X8226351Y49794146D01*
X8098683Y49816426D01*
X7956933Y49830220D01*
X7782871Y49837174D01*
X7558261Y49838936D01*
X7504571Y49838806D01*
G36*
X15269714Y46495447D02*
X15284827Y46213614D01*
X15327483Y45885230D01*
X15393655Y45529090D01*
X15479320Y45163987D01*
X15580450Y44808717D01*
X15693022Y44482074D01*
X15710644Y44436715D01*
X15942527Y43918428D01*
X16225142Y43402039D01*
X16453254Y43045047D01*
X16545427Y42908512D01*
X16620204Y42794955D01*
X16669348Y42717070D01*
X16684857Y42688006D01*
X16658103Y42650260D01*
X16596458Y42597576D01*
X16527852Y42551351D01*
X16482459Y42532922D01*
X16443586Y42562279D01*
X16376236Y42644825D01*
X16286963Y42770196D01*
X16182326Y42928026D01*
X16068880Y43107950D01*
X15953181Y43299602D01*
X15841786Y43492618D01*
X15741251Y43676631D01*
X15668438Y43819858D01*
X15412955Y44406985D01*
X15220838Y44990727D01*
X15086630Y45590708D01*
X15007657Y46195132D01*
X14964777Y46668286D01*
X12758635Y46668286D01*
X12783778Y46405215D01*
X12877288Y45782834D01*
X13034639Y45187617D01*
X13253032Y44623532D01*
X13529670Y44094543D01*
X13861754Y43604620D01*
X14246487Y43157728D01*
X14681070Y42757834D01*
X15162706Y42408904D01*
X15688597Y42114907D01*
X15868429Y42031911D01*
X16052146Y41951156D01*
X16181223Y41897866D01*
X16268257Y41872205D01*
X16325849Y41874333D01*
X16366595Y41904412D01*
X16403095Y41962606D01*
X16442802Y42039293D01*
X16614651Y42305055D01*
X16831089Y42541238D01*
X17075054Y42730712D01*
X17204191Y42803650D01*
X17353596Y42870398D01*
X17502543Y42925692D01*
X17620684Y42958364D01*
X17628286Y42959732D01*
X17791571Y42987295D01*
X17791571Y46650143D01*
X16530643Y46659685D01*
X15269714Y46669226D01*
X15269714Y46495447D01*
X15269714Y46495447D01*
G37*
X15269714Y46495447D02*
X15284827Y46213614D01*
X15327483Y45885230D01*
X15393655Y45529090D01*
X15479320Y45163987D01*
X15580450Y44808717D01*
X15693022Y44482074D01*
X15710644Y44436715D01*
X15942527Y43918428D01*
X16225142Y43402039D01*
X16453254Y43045047D01*
X16545427Y42908512D01*
X16620204Y42794955D01*
X16669348Y42717070D01*
X16684857Y42688006D01*
X16658103Y42650260D01*
X16596458Y42597576D01*
X16527852Y42551351D01*
X16482459Y42532922D01*
X16443586Y42562279D01*
X16376236Y42644825D01*
X16286963Y42770196D01*
X16182326Y42928026D01*
X16068880Y43107950D01*
X15953181Y43299602D01*
X15841786Y43492618D01*
X15741251Y43676631D01*
X15668438Y43819858D01*
X15412955Y44406985D01*
X15220838Y44990727D01*
X15086630Y45590708D01*
X15007657Y46195132D01*
X14964777Y46668286D01*
X12758635Y46668286D01*
X12783778Y46405215D01*
X12877288Y45782834D01*
X13034639Y45187617D01*
X13253032Y44623532D01*
X13529670Y44094543D01*
X13861754Y43604620D01*
X14246487Y43157728D01*
X14681070Y42757834D01*
X15162706Y42408904D01*
X15688597Y42114907D01*
X15868429Y42031911D01*
X16052146Y41951156D01*
X16181223Y41897866D01*
X16268257Y41872205D01*
X16325849Y41874333D01*
X16366595Y41904412D01*
X16403095Y41962606D01*
X16442802Y42039293D01*
X16614651Y42305055D01*
X16831089Y42541238D01*
X17075054Y42730712D01*
X17204191Y42803650D01*
X17353596Y42870398D01*
X17502543Y42925692D01*
X17620684Y42958364D01*
X17628286Y42959732D01*
X17791571Y42987295D01*
X17791571Y46650143D01*
X16530643Y46659685D01*
X15269714Y46669226D01*
X15269714Y46495447D01*
G36*
X20598351Y46659464D02*
X18081857Y46650143D01*
X18081857Y42987295D01*
X18245143Y42959732D01*
X18512594Y42881175D01*
X18777433Y42741947D01*
X19025450Y42553018D01*
X19242439Y42325357D01*
X19414192Y42069932D01*
X19425754Y42048242D01*
X19483680Y41942510D01*
X19529289Y41868602D01*
X19551429Y41843435D01*
X19590446Y41857105D01*
X19681112Y41893174D01*
X19808329Y41945551D01*
X19906188Y41986603D01*
X20375757Y42210600D01*
X20802840Y42470944D01*
X21203910Y42779092D01*
X21595442Y43146503D01*
X21640410Y43192875D01*
X22044021Y43662377D01*
X22382899Y44164008D01*
X22657426Y44698613D01*
X22867985Y45267038D01*
X23014955Y45870127D01*
X23089675Y46405464D01*
X23114844Y46668785D01*
X20598351Y46659464D01*
X20598351Y46659464D01*
G37*
X20598351Y46659464D02*
X18081857Y46650143D01*
X18081857Y42987295D01*
X18245143Y42959732D01*
X18512594Y42881175D01*
X18777433Y42741947D01*
X19025450Y42553018D01*
X19242439Y42325357D01*
X19414192Y42069932D01*
X19425754Y42048242D01*
X19483680Y41942510D01*
X19529289Y41868602D01*
X19551429Y41843435D01*
X19590446Y41857105D01*
X19681112Y41893174D01*
X19808329Y41945551D01*
X19906188Y41986603D01*
X20375757Y42210600D01*
X20802840Y42470944D01*
X21203910Y42779092D01*
X21595442Y43146503D01*
X21640410Y43192875D01*
X22044021Y43662377D01*
X22382899Y44164008D01*
X22657426Y44698613D01*
X22867985Y45267038D01*
X23014955Y45870127D01*
X23089675Y46405464D01*
X23114844Y46668785D01*
X20598351Y46659464D01*
G36*
X17709929Y42676829D02*
X17586071Y42653140D01*
X17430633Y42589400D01*
X17263711Y42496507D01*
X17105399Y42385361D01*
X16999133Y42291310D01*
X16886267Y42167102D01*
X16787205Y42039061D01*
X16711113Y41921329D01*
X16667153Y41828046D01*
X16663979Y41774140D01*
X16710063Y41750932D01*
X16812438Y41723895D01*
X16955401Y41695244D01*
X17123246Y41667197D01*
X17300270Y41641970D01*
X17470769Y41621780D01*
X17619037Y41608843D01*
X17729371Y41605376D01*
X17786066Y41613596D01*
X17788466Y41615419D01*
X17796051Y41657453D01*
X17802441Y41758516D01*
X17807102Y41905070D01*
X17809504Y42083576D01*
X17809714Y42156762D01*
X17809714Y42676858D01*
X17709929Y42676829D01*
X17709929Y42676829D01*
G37*
X17709929Y42676829D02*
X17586071Y42653140D01*
X17430633Y42589400D01*
X17263711Y42496507D01*
X17105399Y42385361D01*
X16999133Y42291310D01*
X16886267Y42167102D01*
X16787205Y42039061D01*
X16711113Y41921329D01*
X16667153Y41828046D01*
X16663979Y41774140D01*
X16710063Y41750932D01*
X16812438Y41723895D01*
X16955401Y41695244D01*
X17123246Y41667197D01*
X17300270Y41641970D01*
X17470769Y41621780D01*
X17619037Y41608843D01*
X17729371Y41605376D01*
X17786066Y41613596D01*
X17788466Y41615419D01*
X17796051Y41657453D01*
X17802441Y41758516D01*
X17807102Y41905070D01*
X17809504Y42083576D01*
X17809714Y42156762D01*
X17809714Y42676858D01*
X17709929Y42676829D01*
G36*
X18071816Y42142099D02*
X18075450Y41931187D01*
X18080798Y41782437D01*
X18093353Y41685535D01*
X18118608Y41630171D01*
X18162058Y41606032D01*
X18229196Y41602805D01*
X18325516Y41610180D01*
X18354000Y41612412D01*
X18494324Y41626813D01*
X18655970Y41649519D01*
X18822505Y41677421D01*
X18977492Y41707414D01*
X19104496Y41736390D01*
X19187083Y41761241D01*
X19209449Y41774140D01*
X19205639Y41829643D01*
X19161560Y41923435D01*
X19086621Y42040900D01*
X18990230Y42167423D01*
X18881795Y42288389D01*
X18872145Y42298126D01*
X18736128Y42413667D01*
X18574609Y42520131D01*
X18408087Y42606579D01*
X18257059Y42662071D01*
X18162530Y42676829D01*
X18061774Y42676858D01*
X18071816Y42142099D01*
X18071816Y42142099D01*
G37*
X18071816Y42142099D02*
X18075450Y41931187D01*
X18080798Y41782437D01*
X18093353Y41685535D01*
X18118608Y41630171D01*
X18162058Y41606032D01*
X18229196Y41602805D01*
X18325516Y41610180D01*
X18354000Y41612412D01*
X18494324Y41626813D01*
X18655970Y41649519D01*
X18822505Y41677421D01*
X18977492Y41707414D01*
X19104496Y41736390D01*
X19187083Y41761241D01*
X19209449Y41774140D01*
X19205639Y41829643D01*
X19161560Y41923435D01*
X19086621Y42040900D01*
X18990230Y42167423D01*
X18881795Y42288389D01*
X18872145Y42298126D01*
X18736128Y42413667D01*
X18574609Y42520131D01*
X18408087Y42606579D01*
X18257059Y42662071D01*
X18162530Y42676829D01*
X18061774Y42676858D01*
X18071816Y42142099D01*
G36*
X11518268Y45728679D02*
X11392536Y45614256D01*
X11285416Y45520621D01*
X11208318Y45457490D01*
X11172751Y45434572D01*
X11150196Y45466824D01*
X11121378Y45550055D01*
X11100602Y45631585D01*
X11056512Y45828598D01*
X10868042Y45773104D01*
X10498223Y45634722D01*
X10123549Y45440080D01*
X9763726Y45201206D01*
X9438457Y44930129D01*
X9356402Y44850242D01*
X9037511Y44483915D01*
X8776456Y44085414D01*
X8570329Y43648691D01*
X8416218Y43167700D01*
X8320380Y42697027D01*
X8291764Y42495527D01*
X8277963Y42333941D01*
X8278184Y42181307D01*
X8291632Y42006667D01*
X8300562Y41923503D01*
X8392201Y41409862D01*
X8545289Y40927197D01*
X8755279Y40479314D01*
X9017618Y40070023D01*
X9327758Y39703134D01*
X9681148Y39382454D01*
X10073239Y39111793D01*
X10499481Y38894959D01*
X10955324Y38735761D01*
X11436217Y38638009D01*
X11937612Y38605511D01*
X12247924Y38619047D01*
X12724208Y38694971D01*
X13188165Y38838947D01*
X13632089Y39046599D01*
X14048273Y39313556D01*
X14429012Y39635442D01*
X14766598Y40007885D01*
X14822229Y40080014D01*
X15008329Y40363101D01*
X15179016Y40690030D01*
X15324575Y41037649D01*
X15435293Y41382805D01*
X15500739Y41697143D01*
X15523384Y41860429D01*
X15262203Y42005572D01*
X14763247Y42323663D01*
X14515790Y42525375D01*
X13490299Y42525375D01*
X13436599Y42421530D01*
X13395981Y42353991D01*
X13353408Y42337026D01*
X13278844Y42361062D01*
X13264950Y42366818D01*
X13153552Y42403101D01*
X13017670Y42434392D01*
X12974643Y42441667D01*
X12802286Y42467383D01*
X12802286Y42260389D01*
X12807964Y42130885D01*
X12832769Y42040004D01*
X12888355Y41954179D01*
X12923211Y41912120D01*
X13012742Y41794686D01*
X13105186Y41654011D01*
X13146267Y41583199D01*
X13201887Y41477343D01*
X13224547Y41415487D01*
X13217111Y41378519D01*
X13182442Y41347326D01*
X13181692Y41346776D01*
X13095520Y41302766D01*
X13033149Y41323283D01*
X12983102Y41408335D01*
X12932743Y41506980D01*
X12861006Y41622637D01*
X12833758Y41661743D01*
X12730117Y41804816D01*
X12588326Y41650991D01*
X12494004Y41532742D01*
X12443258Y41419034D01*
X12423459Y41315940D01*
X12405965Y41210522D01*
X12378992Y41082176D01*
X12347317Y40949800D01*
X12315720Y40832289D01*
X12288979Y40748539D01*
X12272105Y40717429D01*
X12235158Y40730740D01*
X12167591Y40760178D01*
X12099204Y40811342D01*
X12095904Y40859964D01*
X12122074Y40940188D01*
X12154073Y41055102D01*
X12185551Y41179460D01*
X12210156Y41288018D01*
X12221537Y41355529D01*
X12221714Y41360053D01*
X12193143Y41389877D01*
X12103195Y41404628D01*
X12019581Y41406858D01*
X11897267Y41401594D01*
X11807862Y41377698D01*
X11719342Y41323008D01*
X11647653Y41265639D01*
X11522078Y41170731D01*
X11386829Y41082622D01*
X11317074Y41043837D01*
X11220096Y40997648D01*
X11165427Y40983747D01*
X11131196Y41000549D01*
X11108431Y41028704D01*
X11064353Y41117557D01*
X11085656Y41176918D01*
X11142214Y41203351D01*
X11216055Y41236775D01*
X11319656Y41299440D01*
X11395127Y41351991D01*
X11566396Y41478555D01*
X11391364Y41642278D01*
X11287517Y41733471D01*
X11207485Y41783026D01*
X11126329Y41803057D01*
X11054323Y41806000D01*
X10906981Y41816734D01*
X10762045Y41845158D01*
X10637032Y41885610D01*
X10549460Y41932427D01*
X10516841Y41979763D01*
X10530423Y42069021D01*
X10576785Y42109598D01*
X10667449Y42106487D01*
X10755829Y42083330D01*
X10886898Y42046598D01*
X11010703Y42017058D01*
X11051500Y42009167D01*
X11169428Y41989243D01*
X11169428Y42193242D01*
X11162932Y42324596D01*
X11135332Y42419702D01*
X11074458Y42514329D01*
X11049382Y42546120D01*
X10924776Y42713825D01*
X10824780Y42874127D01*
X10761655Y43006997D01*
X10754937Y43027172D01*
X10751732Y43089286D01*
X10801245Y43127617D01*
X10830292Y43138336D01*
X10891295Y43152607D01*
X10934128Y43135820D01*
X10977042Y43074749D01*
X11013272Y43005736D01*
X11077615Y42888392D01*
X11142797Y42783884D01*
X11166478Y42750869D01*
X11235681Y42661596D01*
X11380023Y42810330D01*
X11471971Y42917742D01*
X11522263Y43019389D01*
X11548599Y43151257D01*
X11548897Y43153604D01*
X11577126Y43329108D01*
X11613808Y43488884D01*
X11654475Y43618406D01*
X11694659Y43703148D01*
X11725935Y43729143D01*
X11791828Y43708836D01*
X11833161Y43683786D01*
X11869158Y43646901D01*
X11874089Y43597025D01*
X11849415Y43508807D01*
X11844139Y43493286D01*
X11804335Y43357398D01*
X11772980Y43217549D01*
X11770465Y43203000D01*
X11746559Y43057858D01*
X11974722Y43070592D01*
X12111478Y43083275D01*
X12205680Y43109982D01*
X12287290Y43161830D01*
X12337997Y43205392D01*
X12453631Y43295687D01*
X12592696Y43385390D01*
X12656398Y43420337D01*
X12839688Y43513217D01*
X12875415Y43419247D01*
X12901613Y43345458D01*
X12911143Y43310107D01*
X12881693Y43286718D01*
X12806007Y43242830D01*
X12738786Y43207534D01*
X12625880Y43142778D01*
X12531918Y43076044D01*
X12500038Y43046657D01*
X12464677Y43001869D01*
X12461212Y42963310D01*
X12496170Y42911562D01*
X12572609Y42830761D01*
X12663082Y42746858D01*
X12746500Y42699721D01*
X12854602Y42674661D01*
X12929286Y42665667D01*
X13085166Y42642002D01*
X13243543Y42606525D01*
X13318650Y42584185D01*
X13490299Y42525375D01*
X14515790Y42525375D01*
X14301302Y42700212D01*
X13881271Y43128596D01*
X13508056Y43602190D01*
X13186562Y44114371D01*
X12921691Y44658514D01*
X12718346Y45227995D01*
X12632603Y45558046D01*
X12596192Y45718084D01*
X12565679Y45848964D01*
X12544452Y45936371D01*
X12536055Y45966068D01*
X12499811Y45970856D01*
X12407180Y45979364D01*
X12274165Y45990184D01*
X12182935Y45997105D01*
X11835726Y46022787D01*
X11518268Y45728679D01*
X11518268Y45728679D01*
G37*
X11518268Y45728679D02*
X11392536Y45614256D01*
X11285416Y45520621D01*
X11208318Y45457490D01*
X11172751Y45434572D01*
X11150196Y45466824D01*
X11121378Y45550055D01*
X11100602Y45631585D01*
X11056512Y45828598D01*
X10868042Y45773104D01*
X10498223Y45634722D01*
X10123549Y45440080D01*
X9763726Y45201206D01*
X9438457Y44930129D01*
X9356402Y44850242D01*
X9037511Y44483915D01*
X8776456Y44085414D01*
X8570329Y43648691D01*
X8416218Y43167700D01*
X8320380Y42697027D01*
X8291764Y42495527D01*
X8277963Y42333941D01*
X8278184Y42181307D01*
X8291632Y42006667D01*
X8300562Y41923503D01*
X8392201Y41409862D01*
X8545289Y40927197D01*
X8755279Y40479314D01*
X9017618Y40070023D01*
X9327758Y39703134D01*
X9681148Y39382454D01*
X10073239Y39111793D01*
X10499481Y38894959D01*
X10955324Y38735761D01*
X11436217Y38638009D01*
X11937612Y38605511D01*
X12247924Y38619047D01*
X12724208Y38694971D01*
X13188165Y38838947D01*
X13632089Y39046599D01*
X14048273Y39313556D01*
X14429012Y39635442D01*
X14766598Y40007885D01*
X14822229Y40080014D01*
X15008329Y40363101D01*
X15179016Y40690030D01*
X15324575Y41037649D01*
X15435293Y41382805D01*
X15500739Y41697143D01*
X15523384Y41860429D01*
X15262203Y42005572D01*
X14763247Y42323663D01*
X14515790Y42525375D01*
X13490299Y42525375D01*
X13436599Y42421530D01*
X13395981Y42353991D01*
X13353408Y42337026D01*
X13278844Y42361062D01*
X13264950Y42366818D01*
X13153552Y42403101D01*
X13017670Y42434392D01*
X12974643Y42441667D01*
X12802286Y42467383D01*
X12802286Y42260389D01*
X12807964Y42130885D01*
X12832769Y42040004D01*
X12888355Y41954179D01*
X12923211Y41912120D01*
X13012742Y41794686D01*
X13105186Y41654011D01*
X13146267Y41583199D01*
X13201887Y41477343D01*
X13224547Y41415487D01*
X13217111Y41378519D01*
X13182442Y41347326D01*
X13181692Y41346776D01*
X13095520Y41302766D01*
X13033149Y41323283D01*
X12983102Y41408335D01*
X12932743Y41506980D01*
X12861006Y41622637D01*
X12833758Y41661743D01*
X12730117Y41804816D01*
X12588326Y41650991D01*
X12494004Y41532742D01*
X12443258Y41419034D01*
X12423459Y41315940D01*
X12405965Y41210522D01*
X12378992Y41082176D01*
X12347317Y40949800D01*
X12315720Y40832289D01*
X12288979Y40748539D01*
X12272105Y40717429D01*
X12235158Y40730740D01*
X12167591Y40760178D01*
X12099204Y40811342D01*
X12095904Y40859964D01*
X12122074Y40940188D01*
X12154073Y41055102D01*
X12185551Y41179460D01*
X12210156Y41288018D01*
X12221537Y41355529D01*
X12221714Y41360053D01*
X12193143Y41389877D01*
X12103195Y41404628D01*
X12019581Y41406858D01*
X11897267Y41401594D01*
X11807862Y41377698D01*
X11719342Y41323008D01*
X11647653Y41265639D01*
X11522078Y41170731D01*
X11386829Y41082622D01*
X11317074Y41043837D01*
X11220096Y40997648D01*
X11165427Y40983747D01*
X11131196Y41000549D01*
X11108431Y41028704D01*
X11064353Y41117557D01*
X11085656Y41176918D01*
X11142214Y41203351D01*
X11216055Y41236775D01*
X11319656Y41299440D01*
X11395127Y41351991D01*
X11566396Y41478555D01*
X11391364Y41642278D01*
X11287517Y41733471D01*
X11207485Y41783026D01*
X11126329Y41803057D01*
X11054323Y41806000D01*
X10906981Y41816734D01*
X10762045Y41845158D01*
X10637032Y41885610D01*
X10549460Y41932427D01*
X10516841Y41979763D01*
X10530423Y42069021D01*
X10576785Y42109598D01*
X10667449Y42106487D01*
X10755829Y42083330D01*
X10886898Y42046598D01*
X11010703Y42017058D01*
X11051500Y42009167D01*
X11169428Y41989243D01*
X11169428Y42193242D01*
X11162932Y42324596D01*
X11135332Y42419702D01*
X11074458Y42514329D01*
X11049382Y42546120D01*
X10924776Y42713825D01*
X10824780Y42874127D01*
X10761655Y43006997D01*
X10754937Y43027172D01*
X10751732Y43089286D01*
X10801245Y43127617D01*
X10830292Y43138336D01*
X10891295Y43152607D01*
X10934128Y43135820D01*
X10977042Y43074749D01*
X11013272Y43005736D01*
X11077615Y42888392D01*
X11142797Y42783884D01*
X11166478Y42750869D01*
X11235681Y42661596D01*
X11380023Y42810330D01*
X11471971Y42917742D01*
X11522263Y43019389D01*
X11548599Y43151257D01*
X11548897Y43153604D01*
X11577126Y43329108D01*
X11613808Y43488884D01*
X11654475Y43618406D01*
X11694659Y43703148D01*
X11725935Y43729143D01*
X11791828Y43708836D01*
X11833161Y43683786D01*
X11869158Y43646901D01*
X11874089Y43597025D01*
X11849415Y43508807D01*
X11844139Y43493286D01*
X11804335Y43357398D01*
X11772980Y43217549D01*
X11770465Y43203000D01*
X11746559Y43057858D01*
X11974722Y43070592D01*
X12111478Y43083275D01*
X12205680Y43109982D01*
X12287290Y43161830D01*
X12337997Y43205392D01*
X12453631Y43295687D01*
X12592696Y43385390D01*
X12656398Y43420337D01*
X12839688Y43513217D01*
X12875415Y43419247D01*
X12901613Y43345458D01*
X12911143Y43310107D01*
X12881693Y43286718D01*
X12806007Y43242830D01*
X12738786Y43207534D01*
X12625880Y43142778D01*
X12531918Y43076044D01*
X12500038Y43046657D01*
X12464677Y43001869D01*
X12461212Y42963310D01*
X12496170Y42911562D01*
X12572609Y42830761D01*
X12663082Y42746858D01*
X12746500Y42699721D01*
X12854602Y42674661D01*
X12929286Y42665667D01*
X13085166Y42642002D01*
X13243543Y42606525D01*
X13318650Y42584185D01*
X13490299Y42525375D01*
X14515790Y42525375D01*
X14301302Y42700212D01*
X13881271Y43128596D01*
X13508056Y43602190D01*
X13186562Y44114371D01*
X12921691Y44658514D01*
X12718346Y45227995D01*
X12632603Y45558046D01*
X12596192Y45718084D01*
X12565679Y45848964D01*
X12544452Y45936371D01*
X12536055Y45966068D01*
X12499811Y45970856D01*
X12407180Y45979364D01*
X12274165Y45990184D01*
X12182935Y45997105D01*
X11835726Y46022787D01*
X11518268Y45728679D01*
G04 #@! TO.C,H2*
D13*
X11952380Y8658476D02*
X11952380Y9134666D01*
X12428571Y9182285D01*
X12380952Y9134666D01*
X12333333Y9039428D01*
X12333333Y8801333D01*
X12380952Y8706095D01*
X12428571Y8658476D01*
X12523809Y8610857D01*
X12761904Y8610857D01*
X12857142Y8658476D01*
X12904761Y8706095D01*
X12952380Y8801333D01*
X12952380Y9039428D01*
X12904761Y9134666D01*
X12857142Y9182285D01*
X11952380Y8325142D02*
X12952380Y7991809D01*
X11952380Y7658476D01*
X14492380Y9198095D02*
X14492380Y8579047D01*
X14873333Y8912380D01*
X14873333Y8769523D01*
X14920952Y8674285D01*
X14968571Y8626666D01*
X15063809Y8579047D01*
X15301904Y8579047D01*
X15397142Y8626666D01*
X15444761Y8674285D01*
X15492380Y8769523D01*
X15492380Y9055238D01*
X15444761Y9150476D01*
X15397142Y9198095D01*
X14492380Y8293333D02*
X15492380Y7960000D01*
X14492380Y7626666D01*
X14492380Y7388571D02*
X14492380Y6769523D01*
X14873333Y7102857D01*
X14873333Y6960000D01*
X14920952Y6864761D01*
X14968571Y6817142D01*
X15063809Y6769523D01*
X15301904Y6769523D01*
X15397142Y6817142D01*
X15444761Y6864761D01*
X15492380Y6960000D01*
X15492380Y7245714D01*
X15444761Y7340952D01*
X15397142Y7388571D01*
X17984761Y9174285D02*
X18032380Y9031428D01*
X18032380Y8793333D01*
X17984761Y8698095D01*
X17937142Y8650476D01*
X17841904Y8602857D01*
X17746666Y8602857D01*
X17651428Y8650476D01*
X17603809Y8698095D01*
X17556190Y8793333D01*
X17508571Y8983809D01*
X17460952Y9079047D01*
X17413333Y9126666D01*
X17318095Y9174285D01*
X17222857Y9174285D01*
X17127619Y9126666D01*
X17080000Y9079047D01*
X17032380Y8983809D01*
X17032380Y8745714D01*
X17080000Y8602857D01*
X18032380Y8174285D02*
X17032380Y8174285D01*
X17032380Y7936190D01*
X17080000Y7793333D01*
X17175238Y7698095D01*
X17270476Y7650476D01*
X17460952Y7602857D01*
X17603809Y7602857D01*
X17794285Y7650476D01*
X17889523Y7698095D01*
X17984761Y7793333D01*
X18032380Y7936190D01*
X18032380Y8174285D01*
X17746666Y7221904D02*
X17746666Y6745714D01*
X18032380Y7317142D02*
X17032380Y6983809D01*
X18032380Y6650476D01*
X20572380Y9206095D02*
X19572380Y9206095D01*
X19572380Y8825142D01*
X19620000Y8729904D01*
X19667619Y8682285D01*
X19762857Y8634666D01*
X19905714Y8634666D01*
X20000952Y8682285D01*
X20048571Y8729904D01*
X20096190Y8825142D01*
X20096190Y9206095D01*
X19572380Y8301333D02*
X19572380Y7682285D01*
X19953333Y8015619D01*
X19953333Y7872761D01*
X20000952Y7777523D01*
X20048571Y7729904D01*
X20143809Y7682285D01*
X20381904Y7682285D01*
X20477142Y7729904D01*
X20524761Y7777523D01*
X20572380Y7872761D01*
X20572380Y8158476D01*
X20524761Y8253714D01*
X20477142Y8301333D01*
X23112380Y9206095D02*
X22112380Y9206095D01*
X22112380Y8825142D01*
X22160000Y8729904D01*
X22207619Y8682285D01*
X22302857Y8634666D01*
X22445714Y8634666D01*
X22540952Y8682285D01*
X22588571Y8729904D01*
X22636190Y8825142D01*
X22636190Y9206095D01*
X23112380Y7682285D02*
X23112380Y8253714D01*
X23112380Y7968000D02*
X22112380Y7968000D01*
X22255238Y8063238D01*
X22350476Y8158476D01*
X22398095Y8253714D01*
X25811142Y8618666D02*
X25858761Y8666285D01*
X25906380Y8809142D01*
X25906380Y8904380D01*
X25858761Y9047238D01*
X25763523Y9142476D01*
X25668285Y9190095D01*
X25477809Y9237714D01*
X25334952Y9237714D01*
X25144476Y9190095D01*
X25049238Y9142476D01*
X24954000Y9047238D01*
X24906380Y8904380D01*
X24906380Y8809142D01*
X24954000Y8666285D01*
X25001619Y8618666D01*
X25620666Y8237714D02*
X25620666Y7761523D01*
X25906380Y8332952D02*
X24906380Y7999619D01*
X25906380Y7666285D01*
X25906380Y7332952D02*
X24906380Y7332952D01*
X25906380Y6761523D01*
X24906380Y6761523D01*
X25906380Y6285333D02*
X24906380Y6285333D01*
X25382571Y6285333D02*
X25382571Y5713904D01*
X25906380Y5713904D02*
X24906380Y5713904D01*
X11746000Y16341904D02*
X11698380Y16437142D01*
X11698380Y16580000D01*
X11746000Y16722857D01*
X11841238Y16818095D01*
X11936476Y16865714D01*
X12126952Y16913333D01*
X12269809Y16913333D01*
X12460285Y16865714D01*
X12555523Y16818095D01*
X12650761Y16722857D01*
X12698380Y16580000D01*
X12698380Y16484761D01*
X12650761Y16341904D01*
X12603142Y16294285D01*
X12269809Y16294285D01*
X12269809Y16484761D01*
X12698380Y15865714D02*
X11698380Y15865714D01*
X12698380Y15294285D01*
X11698380Y15294285D01*
X12698380Y14818095D02*
X11698380Y14818095D01*
X11698380Y14580000D01*
X11746000Y14437142D01*
X11841238Y14341904D01*
X11936476Y14294285D01*
X12126952Y14246666D01*
X12269809Y14246666D01*
X12460285Y14294285D01*
X12555523Y14341904D01*
X12650761Y14437142D01*
X12698380Y14580000D01*
X12698380Y14818095D01*
X14540000Y16341904D02*
X14492380Y16437142D01*
X14492380Y16580000D01*
X14540000Y16722857D01*
X14635238Y16818095D01*
X14730476Y16865714D01*
X14920952Y16913333D01*
X15063809Y16913333D01*
X15254285Y16865714D01*
X15349523Y16818095D01*
X15444761Y16722857D01*
X15492380Y16580000D01*
X15492380Y16484761D01*
X15444761Y16341904D01*
X15397142Y16294285D01*
X15063809Y16294285D01*
X15063809Y16484761D01*
X15492380Y15865714D02*
X14492380Y15865714D01*
X15492380Y15294285D01*
X14492380Y15294285D01*
X15492380Y14818095D02*
X14492380Y14818095D01*
X14492380Y14580000D01*
X14540000Y14437142D01*
X14635238Y14341904D01*
X14730476Y14294285D01*
X14920952Y14246666D01*
X15063809Y14246666D01*
X15254285Y14294285D01*
X15349523Y14341904D01*
X15444761Y14437142D01*
X15492380Y14580000D01*
X15492380Y14818095D01*
X17984761Y16770476D02*
X18032380Y16627619D01*
X18032380Y16389523D01*
X17984761Y16294285D01*
X17937142Y16246666D01*
X17841904Y16199047D01*
X17746666Y16199047D01*
X17651428Y16246666D01*
X17603809Y16294285D01*
X17556190Y16389523D01*
X17508571Y16580000D01*
X17460952Y16675238D01*
X17413333Y16722857D01*
X17318095Y16770476D01*
X17222857Y16770476D01*
X17127619Y16722857D01*
X17080000Y16675238D01*
X17032380Y16580000D01*
X17032380Y16341904D01*
X17080000Y16199047D01*
X17937142Y15199047D02*
X17984761Y15246666D01*
X18032380Y15389523D01*
X18032380Y15484761D01*
X17984761Y15627619D01*
X17889523Y15722857D01*
X17794285Y15770476D01*
X17603809Y15818095D01*
X17460952Y15818095D01*
X17270476Y15770476D01*
X17175238Y15722857D01*
X17080000Y15627619D01*
X17032380Y15484761D01*
X17032380Y15389523D01*
X17080000Y15246666D01*
X17127619Y15199047D01*
X18032380Y14294285D02*
X18032380Y14770476D01*
X17032380Y14770476D01*
X20572380Y15810095D02*
X19572380Y15810095D01*
X19572380Y15429142D01*
X19620000Y15333904D01*
X19667619Y15286285D01*
X19762857Y15238666D01*
X19905714Y15238666D01*
X20000952Y15286285D01*
X20048571Y15333904D01*
X20096190Y15429142D01*
X20096190Y15810095D01*
X19667619Y14857714D02*
X19620000Y14810095D01*
X19572380Y14714857D01*
X19572380Y14476761D01*
X19620000Y14381523D01*
X19667619Y14333904D01*
X19762857Y14286285D01*
X19858095Y14286285D01*
X20000952Y14333904D01*
X20572380Y14905333D01*
X20572380Y14286285D01*
X23112380Y15810095D02*
X22112380Y15810095D01*
X22112380Y15429142D01*
X22160000Y15333904D01*
X22207619Y15286285D01*
X22302857Y15238666D01*
X22445714Y15238666D01*
X22540952Y15286285D01*
X22588571Y15333904D01*
X22636190Y15429142D01*
X22636190Y15810095D01*
X22112380Y14619619D02*
X22112380Y14524380D01*
X22160000Y14429142D01*
X22207619Y14381523D01*
X22302857Y14333904D01*
X22493333Y14286285D01*
X22731428Y14286285D01*
X22921904Y14333904D01*
X23017142Y14381523D01*
X23064761Y14429142D01*
X23112380Y14524380D01*
X23112380Y14619619D01*
X23064761Y14714857D01*
X23017142Y14762476D01*
X22921904Y14810095D01*
X22731428Y14857714D01*
X22493333Y14857714D01*
X22302857Y14810095D01*
X22207619Y14762476D01*
X22160000Y14714857D01*
X22112380Y14619619D01*
X25811142Y17135619D02*
X25858761Y17183238D01*
X25906380Y17326095D01*
X25906380Y17421333D01*
X25858761Y17564190D01*
X25763523Y17659428D01*
X25668285Y17707047D01*
X25477809Y17754666D01*
X25334952Y17754666D01*
X25144476Y17707047D01*
X25049238Y17659428D01*
X24954000Y17564190D01*
X24906380Y17421333D01*
X24906380Y17326095D01*
X24954000Y17183238D01*
X25001619Y17135619D01*
X25620666Y16754666D02*
X25620666Y16278476D01*
X25906380Y16849904D02*
X24906380Y16516571D01*
X25906380Y16183238D01*
X25906380Y15849904D02*
X24906380Y15849904D01*
X25906380Y15278476D01*
X24906380Y15278476D01*
X25906380Y14326095D02*
X25906380Y14802285D01*
X24906380Y14802285D01*
G04 #@! TO.C,NFC*
X29471428Y55338095D02*
X29471428Y56138095D01*
X29014285Y55338095D01*
X29014285Y56138095D01*
X28366666Y55757142D02*
X28633333Y55757142D01*
X28633333Y55338095D02*
X28633333Y56138095D01*
X28252380Y56138095D01*
X27490476Y55414285D02*
X27528571Y55376190D01*
X27642857Y55338095D01*
X27719047Y55338095D01*
X27833333Y55376190D01*
X27909523Y55452380D01*
X27947619Y55528571D01*
X27985714Y55680952D01*
X27985714Y55795238D01*
X27947619Y55947619D01*
X27909523Y56023809D01*
X27833333Y56100000D01*
X27719047Y56138095D01*
X27642857Y56138095D01*
X27528571Y56100000D01*
X27490476Y56061904D01*
G04 #@! TD*
M02*
