G04 #@! TF.GenerationSoftware,KiCad,Pcbnew,(5.0.1-3-g963ef8bb5)*
G04 #@! TF.CreationDate,2019-10-31T19:13:48+01:00*
G04 #@! TF.ProjectId,oibus-mini-CCC,6F696275732D6D696E692D4343432E6B,rev?*
G04 #@! TF.SameCoordinates,Original*
G04 #@! TF.FileFunction,Copper,L2,Bot,Signal*
G04 #@! TF.FilePolarity,Positive*
%FSLAX46Y46*%
G04 Gerber Fmt 4.6, Leading zero omitted, Abs format (unit mm)*
G04 Created by KiCad (PCBNEW (5.0.1-3-g963ef8bb5)) date 2019 October 31, Thursday 19:13:48*
%MOMM*%
%LPD*%
G01*
G04 APERTURE LIST*
G04 #@! TA.AperFunction,ComponentPad*
%ADD10C,5.600000*%
G04 #@! TD*
G04 #@! TA.AperFunction,ComponentPad*
%ADD11O,1.700000X1.700000*%
G04 #@! TD*
G04 #@! TA.AperFunction,ComponentPad*
%ADD12R,1.700000X1.700000*%
G04 #@! TD*
G04 #@! TA.AperFunction,Conductor*
%ADD13C,0.149860*%
G04 #@! TD*
G04 #@! TA.AperFunction,ComponentPad*
%ADD14C,1.200000*%
G04 #@! TD*
G04 #@! TA.AperFunction,ComponentPad*
%ADD15O,1.750000X1.200000*%
G04 #@! TD*
G04 #@! TA.AperFunction,ComponentPad*
%ADD16C,1.450000*%
G04 #@! TD*
G04 #@! TA.AperFunction,ComponentPad*
%ADD17O,1.900000X1.200000*%
G04 #@! TD*
G04 #@! TA.AperFunction,ComponentPad*
%ADD18C,0.800000*%
G04 #@! TD*
G04 #@! TA.AperFunction,ComponentPad*
%ADD19O,1.300000X0.800000*%
G04 #@! TD*
G04 #@! TA.AperFunction,ComponentPad*
%ADD20C,1.524000*%
G04 #@! TD*
G04 #@! TA.AperFunction,SMDPad,CuDef*
%ADD21C,0.500000*%
G04 #@! TD*
G04 #@! TA.AperFunction,ViaPad*
%ADD22C,0.800000*%
G04 #@! TD*
G04 #@! TA.AperFunction,ViaPad*
%ADD23C,0.600000*%
G04 #@! TD*
G04 #@! TA.AperFunction,ViaPad*
%ADD24C,1.000000*%
G04 #@! TD*
G04 #@! TA.AperFunction,ViaPad*
%ADD25C,0.700000*%
G04 #@! TD*
G04 #@! TA.AperFunction,Conductor*
%ADD26C,0.600000*%
G04 #@! TD*
G04 #@! TA.AperFunction,Conductor*
%ADD27C,0.800000*%
G04 #@! TD*
G04 #@! TA.AperFunction,Conductor*
%ADD28C,0.400000*%
G04 #@! TD*
G04 #@! TA.AperFunction,Conductor*
%ADD29C,0.200000*%
G04 #@! TD*
G04 #@! TA.AperFunction,Conductor*
%ADD30C,0.500000*%
G04 #@! TD*
G04 #@! TA.AperFunction,Conductor*
%ADD31C,0.254000*%
G04 #@! TD*
G04 APERTURE END LIST*
D10*
G04 #@! TO.P,H1,1*
G04 #@! TO.N,GND*
X18500000Y56000000D03*
G04 #@! TD*
D11*
G04 #@! TO.P,H2,12*
G04 #@! TO.N,/CAN_L*
X25200000Y13040000D03*
G04 #@! TO.P,H2,11*
G04 #@! TO.N,/CAN_H*
X25200000Y10500000D03*
G04 #@! TO.P,H2,10*
G04 #@! TO.N,/~SPI_ADS_CS*
X22660000Y13040000D03*
G04 #@! TO.P,H2,9*
G04 #@! TO.N,/SPI_SCK*
X22660000Y10500000D03*
G04 #@! TO.P,H2,8*
G04 #@! TO.N,/SPI_MISO*
X20120000Y13040000D03*
G04 #@! TO.P,H2,7*
G04 #@! TO.N,/SPI_MOSI*
X20120000Y10500000D03*
G04 #@! TO.P,H2,6*
G04 #@! TO.N,/SCL*
X17580000Y13040000D03*
G04 #@! TO.P,H2,5*
G04 #@! TO.N,/SDA*
X17580000Y10500000D03*
G04 #@! TO.P,H2,4*
G04 #@! TO.N,GND*
X15040000Y13040000D03*
G04 #@! TO.P,H2,3*
G04 #@! TO.N,+3V3*
X15040000Y10500000D03*
G04 #@! TO.P,H2,2*
G04 #@! TO.N,GND*
X12500000Y13040000D03*
D12*
G04 #@! TO.P,H2,1*
G04 #@! TO.N,+5V*
X12500000Y10500000D03*
G04 #@! TD*
D13*
G04 #@! TO.N,+BATT*
G04 #@! TO.C,BT1*
G36*
X7649505Y5598796D02*
X7673773Y5595196D01*
X7697572Y5589235D01*
X7720671Y5580970D01*
X7742850Y5570480D01*
X7763893Y5557868D01*
X7783599Y5543253D01*
X7801777Y5526777D01*
X7818253Y5508599D01*
X7832868Y5488893D01*
X7845480Y5467850D01*
X7855970Y5445671D01*
X7864235Y5422572D01*
X7870196Y5398773D01*
X7873796Y5374505D01*
X7875000Y5350001D01*
X7875000Y4649999D01*
X7873796Y4625495D01*
X7870196Y4601227D01*
X7864235Y4577428D01*
X7855970Y4554329D01*
X7845480Y4532150D01*
X7832868Y4511107D01*
X7818253Y4491401D01*
X7801777Y4473223D01*
X7783599Y4456747D01*
X7763893Y4442132D01*
X7742850Y4429520D01*
X7720671Y4419030D01*
X7697572Y4410765D01*
X7673773Y4404804D01*
X7649505Y4401204D01*
X7625001Y4400000D01*
X6374999Y4400000D01*
X6350495Y4401204D01*
X6326227Y4404804D01*
X6302428Y4410765D01*
X6279329Y4419030D01*
X6257150Y4429520D01*
X6236107Y4442132D01*
X6216401Y4456747D01*
X6198223Y4473223D01*
X6181747Y4491401D01*
X6167132Y4511107D01*
X6154520Y4532150D01*
X6144030Y4554329D01*
X6135765Y4577428D01*
X6129804Y4601227D01*
X6126204Y4625495D01*
X6125000Y4649999D01*
X6125000Y5350001D01*
X6126204Y5374505D01*
X6129804Y5398773D01*
X6135765Y5422572D01*
X6144030Y5445671D01*
X6154520Y5467850D01*
X6167132Y5488893D01*
X6181747Y5508599D01*
X6198223Y5526777D01*
X6216401Y5543253D01*
X6236107Y5557868D01*
X6257150Y5570480D01*
X6279329Y5580970D01*
X6302428Y5589235D01*
X6326227Y5595196D01*
X6350495Y5598796D01*
X6374999Y5600000D01*
X7625001Y5600000D01*
X7649505Y5598796D01*
X7649505Y5598796D01*
G37*
D14*
G04 #@! TD*
G04 #@! TO.P,BT1,1*
G04 #@! TO.N,+BATT*
X7000000Y5000000D03*
D15*
G04 #@! TO.P,BT1,2*
G04 #@! TO.N,Net-(BT1-Pad2)*
X7000000Y3000000D03*
G04 #@! TD*
D16*
G04 #@! TO.P,J2,6*
G04 #@! TO.N,GND*
X4900000Y15000000D03*
X4900000Y10000000D03*
D17*
X2200000Y16000000D03*
X2200000Y9000000D03*
G04 #@! TD*
D13*
G04 #@! TO.N,Net-(J3-Pad1)*
G04 #@! TO.C,J3*
G36*
X32469603Y10899037D02*
X32489018Y10896157D01*
X32508057Y10891388D01*
X32526537Y10884776D01*
X32544279Y10876384D01*
X32561114Y10866294D01*
X32576879Y10854602D01*
X32591421Y10841421D01*
X32604602Y10826879D01*
X32616294Y10811114D01*
X32626384Y10794279D01*
X32634776Y10776537D01*
X32641388Y10758057D01*
X32646157Y10739018D01*
X32649037Y10719603D01*
X32650000Y10700000D01*
X32650000Y10300000D01*
X32649037Y10280397D01*
X32646157Y10260982D01*
X32641388Y10241943D01*
X32634776Y10223463D01*
X32626384Y10205721D01*
X32616294Y10188886D01*
X32604602Y10173121D01*
X32591421Y10158579D01*
X32576879Y10145398D01*
X32561114Y10133706D01*
X32544279Y10123616D01*
X32526537Y10115224D01*
X32508057Y10108612D01*
X32489018Y10103843D01*
X32469603Y10100963D01*
X32450000Y10100000D01*
X31550000Y10100000D01*
X31530397Y10100963D01*
X31510982Y10103843D01*
X31491943Y10108612D01*
X31473463Y10115224D01*
X31455721Y10123616D01*
X31438886Y10133706D01*
X31423121Y10145398D01*
X31408579Y10158579D01*
X31395398Y10173121D01*
X31383706Y10188886D01*
X31373616Y10205721D01*
X31365224Y10223463D01*
X31358612Y10241943D01*
X31353843Y10260982D01*
X31350963Y10280397D01*
X31350000Y10300000D01*
X31350000Y10700000D01*
X31350963Y10719603D01*
X31353843Y10739018D01*
X31358612Y10758057D01*
X31365224Y10776537D01*
X31373616Y10794279D01*
X31383706Y10811114D01*
X31395398Y10826879D01*
X31408579Y10841421D01*
X31423121Y10854602D01*
X31438886Y10866294D01*
X31455721Y10876384D01*
X31473463Y10884776D01*
X31491943Y10891388D01*
X31510982Y10896157D01*
X31530397Y10899037D01*
X31550000Y10900000D01*
X32450000Y10900000D01*
X32469603Y10899037D01*
X32469603Y10899037D01*
G37*
D18*
G04 #@! TD*
G04 #@! TO.P,J3,1*
G04 #@! TO.N,Net-(J3-Pad1)*
X32000000Y10500000D03*
D19*
G04 #@! TO.P,J3,2*
G04 #@! TO.N,+5V*
X32000000Y11750000D03*
G04 #@! TO.P,J3,3*
G04 #@! TO.N,/CAN_H*
X32000000Y13000000D03*
G04 #@! TO.P,J3,4*
G04 #@! TO.N,/CAN_L*
X32000000Y14250000D03*
G04 #@! TO.P,J3,5*
G04 #@! TO.N,GND*
X32000000Y15500000D03*
G04 #@! TD*
D20*
G04 #@! TO.P,J1,1*
G04 #@! TO.N,SPS_RX*
X6000000Y53800000D03*
G04 #@! TO.P,J1,2*
G04 #@! TO.N,SPS_TX*
X8000000Y53800000D03*
G04 #@! TO.P,J1,3*
G04 #@! TO.N,+5V*
X10000000Y53800000D03*
G04 #@! TO.P,J1,4*
G04 #@! TO.N,GND*
X12000000Y53800000D03*
G04 #@! TD*
D21*
G04 #@! TO.P,NFC,1*
G04 #@! TO.N,Net-(J4-Pad1)*
X29150000Y53900000D03*
D13*
G04 #@! TD*
G04 #@! TO.N,Net-(J4-Pad1)*
G04 #@! TO.C,NFC*
G36*
X28650000Y54650000D02*
X29150000Y54650000D01*
X29150000Y54649398D01*
X29174534Y54649398D01*
X29223365Y54644588D01*
X29271490Y54635016D01*
X29318445Y54620772D01*
X29363778Y54601995D01*
X29407051Y54578864D01*
X29447850Y54551604D01*
X29485779Y54520476D01*
X29520476Y54485779D01*
X29551604Y54447850D01*
X29578864Y54407051D01*
X29601995Y54363778D01*
X29620772Y54318445D01*
X29635016Y54271490D01*
X29644588Y54223365D01*
X29649398Y54174534D01*
X29649398Y54150000D01*
X29650000Y54150000D01*
X29650000Y53650000D01*
X29649398Y53650000D01*
X29649398Y53625466D01*
X29644588Y53576635D01*
X29635016Y53528510D01*
X29620772Y53481555D01*
X29601995Y53436222D01*
X29578864Y53392949D01*
X29551604Y53352150D01*
X29520476Y53314221D01*
X29485779Y53279524D01*
X29447850Y53248396D01*
X29407051Y53221136D01*
X29363778Y53198005D01*
X29318445Y53179228D01*
X29271490Y53164984D01*
X29223365Y53155412D01*
X29174534Y53150602D01*
X29150000Y53150602D01*
X29150000Y53150000D01*
X28650000Y53150000D01*
X28650000Y54650000D01*
X28650000Y54650000D01*
G37*
D21*
G04 #@! TO.P,NFC,2*
G04 #@! TO.N,Net-(J4-Pad2)*
X27850000Y53900000D03*
D13*
G04 #@! TD*
G04 #@! TO.N,Net-(J4-Pad2)*
G04 #@! TO.C,NFC*
G36*
X27850000Y53150602D02*
X27825466Y53150602D01*
X27776635Y53155412D01*
X27728510Y53164984D01*
X27681555Y53179228D01*
X27636222Y53198005D01*
X27592949Y53221136D01*
X27552150Y53248396D01*
X27514221Y53279524D01*
X27479524Y53314221D01*
X27448396Y53352150D01*
X27421136Y53392949D01*
X27398005Y53436222D01*
X27379228Y53481555D01*
X27364984Y53528510D01*
X27355412Y53576635D01*
X27350602Y53625466D01*
X27350602Y53650000D01*
X27350000Y53650000D01*
X27350000Y54150000D01*
X27350602Y54150000D01*
X27350602Y54174534D01*
X27355412Y54223365D01*
X27364984Y54271490D01*
X27379228Y54318445D01*
X27398005Y54363778D01*
X27421136Y54407051D01*
X27448396Y54447850D01*
X27479524Y54485779D01*
X27514221Y54520476D01*
X27552150Y54551604D01*
X27592949Y54578864D01*
X27636222Y54601995D01*
X27681555Y54620772D01*
X27728510Y54635016D01*
X27776635Y54644588D01*
X27825466Y54649398D01*
X27850000Y54649398D01*
X27850000Y54650000D01*
X28350000Y54650000D01*
X28350000Y53150000D01*
X27850000Y53150000D01*
X27850000Y53150602D01*
X27850000Y53150602D01*
G37*
D22*
G04 #@! TO.N,VBUS*
X6899989Y14100000D03*
X8800000Y13800000D03*
D23*
G04 #@! TO.N,GND*
X28900000Y26000000D03*
X33400000Y55787500D03*
D22*
X15800000Y23700000D03*
X28900000Y16200000D03*
X27900000Y24400000D03*
X28600000Y22300000D03*
X35300000Y4900000D03*
X35300000Y1600000D03*
X20100000Y5000000D03*
X13200000Y5800000D03*
D23*
X33300000Y36200000D03*
X35200000Y42700000D03*
X34400000Y46200000D03*
X35100000Y58792003D03*
X30900000Y50100000D03*
X25200000Y50200000D03*
X26300000Y52800000D03*
X26300000Y55200000D03*
X29600000Y55200000D03*
X18500000Y33000000D03*
X17300000Y25600000D03*
X18830717Y26439033D03*
X34000000Y18500000D03*
X35600000Y23000000D03*
X31699979Y26400000D03*
X28800000Y37400000D03*
X3100000Y44500000D03*
X23774265Y42274265D03*
X20100743Y41899195D03*
X13000000Y34500000D03*
X16200000Y37100000D03*
X2800000Y36900000D03*
X4400000Y32300000D03*
X17100000Y14600000D03*
X13200000Y23600000D03*
X1800000Y21000000D03*
X6241677Y11073899D03*
X34200000Y27400000D03*
X36400000Y34500000D03*
X29736397Y29400000D03*
X27100000Y13400000D03*
X15983313Y43444503D03*
X29750000Y52600000D03*
X6668266Y25868266D03*
D24*
X28700000Y7600000D03*
D22*
X19500000Y3000000D03*
X20100000Y1600000D03*
X20900000Y692039D03*
X22000000Y692039D03*
X23100000Y692013D03*
X20600008Y3000000D03*
D23*
X1700000Y56300000D03*
X12799998Y48800000D03*
X4000000Y48999990D03*
X5800000Y48999990D03*
D24*
G04 #@! TO.N,+3V3*
X36200000Y47300000D03*
X21600000Y28999979D03*
X25639663Y22999179D03*
X29774954Y46296834D03*
X6100000Y32000000D03*
X6100000Y35900000D03*
X27500000Y36000000D03*
D25*
X35907159Y59217791D03*
D24*
X20800000Y24400000D03*
D23*
X21642878Y32757122D03*
X27146476Y28314709D03*
X28700000Y29000000D03*
X32300000Y30900006D03*
X31198876Y29698876D03*
X20400000Y37400000D03*
D24*
X11198697Y23195730D03*
X12500000Y14800000D03*
X11220221Y17479779D03*
X7600000Y23299990D03*
D23*
G04 #@! TO.N,/CAN_SILENT*
X29769481Y32168397D03*
X27633734Y33833734D03*
G04 #@! TO.N,/CAN_SHDN*
X25785650Y34927348D03*
X26800000Y24000000D03*
D24*
G04 #@! TO.N,+5V*
X25900000Y9000000D03*
D22*
X700000Y46400000D03*
X900000Y35400000D03*
D23*
X11500002Y7600000D03*
G04 #@! TO.N,/SCL*
X23699265Y25799265D03*
X23100010Y24474270D03*
X23099958Y28460342D03*
G04 #@! TO.N,/~RESET*
X20324272Y50324272D03*
X19499994Y47500000D03*
X11200000Y40600000D03*
X9105025Y38805025D03*
X28200000Y36800000D03*
X19800000Y38200000D03*
X16207413Y41522125D03*
X18875334Y41574905D03*
G04 #@! TO.N,/SWDSWO*
X9700000Y20500000D03*
X6999990Y20532177D03*
G04 #@! TO.N,/SWDCLK*
X9608706Y21414503D03*
X7400000Y21500010D03*
G04 #@! TO.N,/SWDIO*
X9500023Y22208961D03*
X7400000Y22300023D03*
D24*
G04 #@! TO.N,+BATT*
X24228432Y7428432D03*
X12423985Y7033370D03*
G04 #@! TO.N,/VIN*
X18900000Y15500000D03*
X24800000Y14800000D03*
X30400000Y15400000D03*
X30900000Y9400000D03*
D23*
G04 #@! TO.N,GPS_RX*
X19256234Y43134350D03*
X17631812Y42895267D03*
G04 #@! TO.N,GPS_TX*
X19221010Y42328119D03*
X17283800Y42174915D03*
G04 #@! TO.N,/~SPI_ADS_CS*
X25068703Y23820160D03*
X25023385Y35284350D03*
G04 #@! TO.N,/SPI_SCK*
X24700000Y22400000D03*
X24299968Y34026336D03*
G04 #@! TO.N,/SPI_MISO*
X23700000Y35300000D03*
X24247139Y23767105D03*
G04 #@! TO.N,/SPI_MOSI*
X23499990Y21700000D03*
X23338114Y34219827D03*
G04 #@! TO.N,Net-(J4-Pad1)*
X29136566Y50627463D03*
G04 #@! TO.N,Net-(J4-Pad2)*
X27850002Y50599998D03*
D24*
G04 #@! TO.N,Net-(Q2-Pad3)*
X12400000Y800000D03*
X17973200Y1665066D03*
D23*
G04 #@! TO.N,/BLUE*
X34988283Y57289530D03*
X32874522Y48044565D03*
G04 #@! TO.N,/GPS_TIME*
X10000000Y40300000D03*
X19700000Y43800000D03*
X16700000Y43800000D03*
X8150000Y39810000D03*
G04 #@! TO.N,NINA_DSR*
X19800010Y51000000D03*
X19624272Y49324272D03*
G04 #@! TO.N,NINA_RTS*
X21000022Y51061337D03*
X22783112Y49976480D03*
G04 #@! TO.N,NINA_CTS*
X21167963Y49634282D03*
X22800067Y48000000D03*
G04 #@! TO.N,/5V_EN*
X21900000Y24300000D03*
X22261086Y30358418D03*
G04 #@! TO.N,/BOOT*
X9900034Y24482156D03*
X6100000Y24700000D03*
G04 #@! TD*
D26*
G04 #@! TO.N,VBUS*
X7099989Y13900000D02*
X6899989Y14100000D01*
X8700000Y13900000D02*
X7099989Y13900000D01*
D27*
G04 #@! TO.N,+3V3*
X6100000Y32000000D02*
X6100000Y35900000D01*
D28*
X22500000Y33845094D02*
X22500000Y35136002D01*
X26792894Y36000000D02*
X27500000Y36000000D01*
X22500000Y35136002D02*
X23363998Y36000000D01*
X23363998Y36000000D02*
X26792894Y36000000D01*
X36200000Y47300000D02*
X36200000Y48007106D01*
X36257158Y58867792D02*
X35907159Y59217791D01*
X36200000Y48007106D02*
X36400000Y48207106D01*
X36400000Y48207106D02*
X36400000Y58724950D01*
X36400000Y58724950D02*
X36257158Y58867792D01*
X22700000Y33645094D02*
X22500000Y33845094D01*
D27*
X23067989Y20799999D02*
X20800000Y23067988D01*
X25639663Y22999179D02*
X25639663Y22007661D01*
X20800000Y23692894D02*
X20800000Y24400000D01*
X25639663Y22007661D02*
X24432001Y20799999D01*
X24432001Y20799999D02*
X23067989Y20799999D01*
X20800000Y23067988D02*
X20800000Y23692894D01*
D29*
X22700000Y33645094D02*
X22530850Y33645094D01*
X21942877Y33057121D02*
X21642878Y32757122D01*
X22530850Y33645094D02*
X21942877Y33057121D01*
D28*
X22405941Y29499978D02*
X23300000Y30394037D01*
X23300000Y30394037D02*
X23300000Y33045094D01*
X22099999Y29499978D02*
X22405941Y29499978D01*
X21600000Y28999979D02*
X22099999Y29499978D01*
X23300000Y33045094D02*
X22700000Y33645094D01*
D29*
X27446475Y28614708D02*
X27146476Y28314709D01*
X27831767Y29000000D02*
X27446475Y28614708D01*
X28700000Y29000000D02*
X27831767Y29000000D01*
X32300000Y30800000D02*
X32300000Y30900006D01*
X31198876Y29698876D02*
X32300000Y30800000D01*
X23363998Y36000000D02*
X22100000Y36000000D01*
X20700000Y37400000D02*
X20400000Y37400000D01*
X22100000Y36000000D02*
X20700000Y37400000D01*
D28*
X12500000Y16200000D02*
X11220221Y17479779D01*
X12500000Y14800000D02*
X12500000Y16200000D01*
X30482060Y46296834D02*
X29774954Y46296834D01*
X30896834Y46296834D02*
X30482060Y46296834D01*
X31700000Y47100000D02*
X30896834Y46296834D01*
X36000000Y47100000D02*
X31700000Y47100000D01*
X36200000Y47300000D02*
X36000000Y47100000D01*
D27*
X11198697Y23195730D02*
X7704260Y23195730D01*
X7704260Y23195730D02*
X7600000Y23299990D01*
D29*
G04 #@! TO.N,/CAN_SILENT*
X29299071Y32168397D02*
X27633734Y33833734D01*
X29769481Y32168397D02*
X29299071Y32168397D01*
G04 #@! TO.N,/CAN_SHDN*
X25785650Y25014350D02*
X26500001Y24299999D01*
X25785650Y34927348D02*
X25785650Y25014350D01*
X26500001Y24299999D02*
X26800000Y24000000D01*
D27*
G04 #@! TO.N,+5V*
X25192894Y9000000D02*
X25900000Y9000000D01*
X13200000Y9800000D02*
X13950001Y9049999D01*
X13950001Y9049999D02*
X25142895Y9049999D01*
X25142895Y9049999D02*
X25192894Y9000000D01*
D30*
X700000Y35600000D02*
X900000Y35400000D01*
X700000Y46400000D02*
X700000Y35600000D01*
D27*
X12500000Y10500000D02*
X13200000Y9800000D01*
D26*
X13200000Y9800000D02*
X13200000Y9299998D01*
X11800001Y7899999D02*
X11500002Y7600000D01*
X13200000Y9299998D02*
X11800001Y7899999D01*
D29*
G04 #@! TO.N,/SCL*
X23699265Y25799265D02*
X23300000Y26198530D01*
X23099958Y26398572D02*
X23099958Y28036078D01*
X23100010Y25998540D02*
X23100010Y24898534D01*
X23100010Y24898534D02*
X23100010Y24474270D01*
X23300000Y26198530D02*
X23100010Y25998540D01*
X23300000Y26198530D02*
X23099958Y26398572D01*
X23099958Y28036078D02*
X23099958Y28460342D01*
G04 #@! TO.N,/~RESET*
X19799993Y47799999D02*
X19499994Y47500000D01*
X20324272Y50324272D02*
X20324272Y48324278D01*
X20324272Y48324278D02*
X19799993Y47799999D01*
X9405025Y38805025D02*
X9105025Y38805025D01*
X11200000Y40600000D02*
X9405025Y38805025D01*
X28200000Y36800000D02*
X23100000Y36800000D01*
X23100000Y36800000D02*
X22100000Y37800000D01*
X22100000Y37800000D02*
X21100000Y37800000D01*
X20700000Y38200000D02*
X19800000Y38200000D01*
X21100000Y37800000D02*
X20700000Y38200000D01*
X18875334Y41574905D02*
X16260193Y41574905D01*
X16260193Y41574905D02*
X16207413Y41522125D01*
G04 #@! TO.N,/SWDSWO*
X7367813Y20900000D02*
X6999990Y20532177D01*
X9700000Y20500000D02*
X9300000Y20900000D01*
X9300000Y20900000D02*
X7367813Y20900000D01*
G04 #@! TO.N,/SWDCLK*
X9608706Y21414503D02*
X7485507Y21414503D01*
X7485507Y21414503D02*
X7400000Y21500010D01*
G04 #@! TO.N,/SWDIO*
X7491062Y22208961D02*
X7400000Y22300023D01*
X9500023Y22208961D02*
X7491062Y22208961D01*
D26*
G04 #@! TO.N,+BATT*
X24228432Y7428432D02*
X12819047Y7428432D01*
X12819047Y7428432D02*
X12423985Y7033370D01*
D27*
G04 #@! TO.N,/VIN*
X18900000Y15500000D02*
X18900000Y14792894D01*
X20513108Y14792894D02*
X20520214Y14800000D01*
X18900000Y14792894D02*
X20513108Y14792894D01*
X20520214Y14800000D02*
X24800000Y14800000D01*
D26*
X30800000Y15000000D02*
X30800000Y10950000D01*
X30400000Y15400000D02*
X30800000Y15000000D01*
X30800000Y9500000D02*
X30900000Y9400000D01*
X30800000Y10950000D02*
X30800000Y9500000D01*
D29*
G04 #@! TO.N,GPS_RX*
X17870895Y43134350D02*
X17631812Y42895267D01*
X19256234Y43134350D02*
X17870895Y43134350D01*
G04 #@! TO.N,GPS_TX*
X17283800Y42174915D02*
X19067806Y42174915D01*
X19067806Y42174915D02*
X19221010Y42328119D01*
G04 #@! TO.N,/~SPI_ADS_CS*
X25299989Y33535986D02*
X25299989Y34517296D01*
X25148523Y24324244D02*
X25148523Y33384520D01*
X25023385Y34860086D02*
X25023385Y35284350D01*
X25068703Y24244424D02*
X25148523Y24324244D01*
X25068703Y23820160D02*
X25068703Y24244424D01*
X25023385Y34793900D02*
X25023385Y34860086D01*
X25148523Y33384520D02*
X25299989Y33535986D01*
X25299989Y34517296D02*
X25023385Y34793900D01*
G04 #@! TO.N,/SPI_SCK*
X23597953Y23502047D02*
X23597953Y24084211D01*
X23700011Y24186269D02*
X23700011Y24400011D01*
X24299968Y33602072D02*
X24299968Y34026336D01*
X24299968Y24999968D02*
X24299968Y33602072D01*
X24700000Y22400000D02*
X23597953Y23502047D01*
X23597953Y24084211D02*
X23700011Y24186269D01*
X23700011Y24400011D02*
X24299968Y24999968D01*
G04 #@! TO.N,/SPI_MISO*
X23700000Y35300000D02*
X23999999Y35000001D01*
X24899978Y33701675D02*
X24699989Y33501686D01*
X24247139Y24191369D02*
X24247139Y23767105D01*
X23999999Y35000001D02*
X24251584Y35000001D01*
X24251584Y35000001D02*
X24899978Y34351607D01*
X24699989Y24644219D02*
X24247139Y24191369D01*
X24899978Y34351607D02*
X24899978Y33701675D01*
X24699989Y33501686D02*
X24699989Y24644219D01*
G04 #@! TO.N,/SPI_MOSI*
X22499957Y28748343D02*
X22811957Y29060343D01*
X22500000Y28172298D02*
X22499957Y28172341D01*
X23338114Y33795563D02*
X23338114Y34219827D01*
X23800000Y30000000D02*
X23800000Y33333677D01*
X22860343Y29060343D02*
X23800000Y30000000D01*
X22499957Y28172341D02*
X22499957Y28748343D01*
X22500000Y22699990D02*
X22500000Y28172298D01*
X22811957Y29060343D02*
X22860343Y29060343D01*
X23800000Y33333677D02*
X23338114Y33795563D01*
X23499990Y21700000D02*
X22500000Y22699990D01*
G04 #@! TO.N,Net-(J4-Pad1)*
X29136566Y50627463D02*
X29136566Y51586566D01*
X29150000Y51600000D02*
X29150000Y53900000D01*
X29136566Y51586566D02*
X29150000Y51600000D01*
G04 #@! TO.N,Net-(J4-Pad2)*
X27850002Y50599998D02*
X27850002Y51599998D01*
X27850000Y51600000D02*
X27850000Y53900000D01*
X27850002Y51599998D02*
X27850000Y51600000D01*
D26*
G04 #@! TO.N,Net-(Q2-Pad3)*
X12400000Y800000D02*
X17108134Y800000D01*
X17473201Y1165067D02*
X17973200Y1665066D01*
X17108134Y800000D02*
X17473201Y1165067D01*
D29*
G04 #@! TO.N,/BLUE*
X35000000Y47700000D02*
X33219087Y47700000D01*
X35288282Y56211718D02*
X35900000Y55600000D01*
X35900000Y48600000D02*
X35000000Y47700000D01*
X33219087Y47700000D02*
X32874522Y48044565D01*
X35288282Y56989531D02*
X35288282Y56211718D01*
X35900000Y55600000D02*
X35900000Y48600000D01*
X34988283Y57289530D02*
X35288282Y56989531D01*
G04 #@! TO.N,/GPS_TIME*
X19700000Y43800000D02*
X16700000Y43800000D01*
X8574264Y39810000D02*
X8150000Y39810000D01*
X10000000Y40300000D02*
X9510000Y39810000D01*
X9510000Y39810000D02*
X8574264Y39810000D01*
G04 #@! TO.N,NINA_DSR*
X19800010Y51000000D02*
X19500011Y50700001D01*
X19500011Y49448533D02*
X19624272Y49324272D01*
X19500011Y50700001D02*
X19500011Y49448533D01*
G04 #@! TO.N,NINA_RTS*
X21000022Y51061337D02*
X22084879Y49976480D01*
X22084879Y49976480D02*
X22358848Y49976480D01*
X22358848Y49976480D02*
X22783112Y49976480D01*
G04 #@! TO.N,NINA_CTS*
X21167963Y49634282D02*
X22800067Y48002178D01*
X22800067Y48002178D02*
X22800067Y48000000D01*
G04 #@! TO.N,/5V_EN*
X21900000Y27400000D02*
X20799999Y28500001D01*
X20799999Y29354302D02*
X21804115Y30358418D01*
X21804115Y30358418D02*
X21836822Y30358418D01*
X21836822Y30358418D02*
X22261086Y30358418D01*
X21900000Y24300000D02*
X21900000Y27400000D01*
X20799999Y28500001D02*
X20799999Y29354302D01*
G04 #@! TO.N,/BOOT*
X6524264Y24700000D02*
X6100000Y24700000D01*
X9560571Y24100000D02*
X7124264Y24100000D01*
X9900000Y24439429D02*
X9560571Y24100000D01*
X7124264Y24100000D02*
X6524264Y24700000D01*
G04 #@! TD*
D31*
G04 #@! TO.N,GND*
G36*
X16562973Y58917878D02*
X16545501Y58906203D01*
X16227265Y58452340D01*
X18500000Y56179605D01*
X20772735Y58452340D01*
X20454499Y58906203D01*
X19595553Y59265013D01*
X34930159Y59265013D01*
X34930159Y59023454D01*
X35078898Y58664365D01*
X35353733Y58389530D01*
X35573001Y58298707D01*
X35573001Y58015788D01*
X35513386Y58075403D01*
X35172675Y58216530D01*
X34803891Y58216530D01*
X34463180Y58075403D01*
X34202410Y57814633D01*
X34061283Y57473922D01*
X34061283Y57105138D01*
X34202410Y56764427D01*
X34463180Y56503657D01*
X34561282Y56463022D01*
X34561282Y56283313D01*
X34547041Y56211718D01*
X34561282Y56140123D01*
X34561282Y56140119D01*
X34576535Y56063439D01*
X34603464Y55928058D01*
X34603465Y55928057D01*
X34764146Y55687581D01*
X34824844Y55647024D01*
X35173000Y55298867D01*
X35173001Y48901134D01*
X34698868Y48427000D01*
X33719490Y48427000D01*
X33660395Y48569668D01*
X33399625Y48830438D01*
X33058914Y48971565D01*
X32690130Y48971565D01*
X32349419Y48830438D01*
X32088649Y48569668D01*
X31947522Y48228957D01*
X31947522Y47927000D01*
X31781442Y47927000D01*
X31699999Y47943200D01*
X31618556Y47927000D01*
X31618552Y47927000D01*
X31377321Y47879016D01*
X31103767Y47696233D01*
X31057631Y47627186D01*
X30554280Y47123834D01*
X30541772Y47123834D01*
X30413348Y47252258D01*
X29999128Y47423834D01*
X29550780Y47423834D01*
X29136560Y47252258D01*
X28819530Y46935228D01*
X28647954Y46521008D01*
X28647954Y46072660D01*
X28819530Y45658440D01*
X29136560Y45341410D01*
X29550780Y45169834D01*
X29999128Y45169834D01*
X30413348Y45341410D01*
X30541772Y45469834D01*
X30815390Y45469834D01*
X30896834Y45453634D01*
X30978278Y45469834D01*
X30978282Y45469834D01*
X31219513Y45517818D01*
X31493067Y45700601D01*
X31539206Y45769653D01*
X32042554Y46273000D01*
X35734405Y46273000D01*
X35975826Y46173000D01*
X36273000Y46173000D01*
X36273001Y27571608D01*
X36239061Y27400978D01*
X36182969Y27317031D01*
X36022432Y27209764D01*
X35762513Y27077328D01*
X35689462Y27024254D01*
X35613111Y26976058D01*
X35213298Y26625289D01*
X35213294Y26625287D01*
X35133895Y26529780D01*
X35067886Y26450381D01*
X35067886Y26450380D01*
X34796032Y25993226D01*
X34744144Y25863089D01*
X34711790Y25781947D01*
X34594510Y25263161D01*
X34582857Y25084829D01*
X34579679Y25036188D01*
X34628454Y24506551D01*
X34684488Y24286105D01*
X34894542Y23797463D01*
X35015954Y23605122D01*
X35015957Y23605119D01*
X35366725Y23205307D01*
X35366726Y23205306D01*
X35541632Y23059897D01*
X35986545Y22795323D01*
X36180520Y22669410D01*
X36237722Y22586216D01*
X36273000Y22420412D01*
X36273001Y1552108D01*
X36221861Y1244864D01*
X36102886Y1024364D01*
X35918905Y854294D01*
X35676374Y747072D01*
X35454265Y719013D01*
X18620965Y719013D01*
X18928624Y1026672D01*
X19100200Y1440892D01*
X19100200Y1889240D01*
X18928624Y2303460D01*
X18611594Y2620490D01*
X18197374Y2792066D01*
X17749026Y2792066D01*
X17334806Y2620490D01*
X17017776Y2303460D01*
X16846200Y1889240D01*
X16846200Y1849041D01*
X16724159Y1727000D01*
X13066818Y1727000D01*
X13038394Y1755424D01*
X12624174Y1927000D01*
X12175826Y1927000D01*
X11761606Y1755424D01*
X11444576Y1438394D01*
X11273000Y1024174D01*
X11273000Y719013D01*
X1560089Y719013D01*
X1252851Y770152D01*
X1032351Y889127D01*
X862281Y1073108D01*
X755059Y1315639D01*
X727000Y1537748D01*
X727000Y3000000D01*
X5473962Y3000000D01*
X5569192Y2521248D01*
X5840383Y2115383D01*
X6246248Y1844192D01*
X6604153Y1773000D01*
X7395847Y1773000D01*
X7753752Y1844192D01*
X8159617Y2115383D01*
X8430808Y2521248D01*
X8526038Y3000000D01*
X8430808Y3478752D01*
X8159617Y3884617D01*
X8104526Y3921428D01*
X8253818Y4021182D01*
X8446590Y4309686D01*
X8514283Y4649999D01*
X8514283Y5350001D01*
X8446590Y5690314D01*
X8253818Y5978818D01*
X7965314Y6171590D01*
X7625001Y6239283D01*
X6374999Y6239283D01*
X6034686Y6171590D01*
X5746182Y5978818D01*
X5553410Y5690314D01*
X5485717Y5350001D01*
X5485717Y4649999D01*
X5553410Y4309686D01*
X5746182Y4021182D01*
X5895474Y3921428D01*
X5840383Y3884617D01*
X5569192Y3478752D01*
X5473962Y3000000D01*
X727000Y3000000D01*
X727000Y7600000D01*
X10554841Y7600000D01*
X10573002Y7508700D01*
X10573002Y7415608D01*
X10608628Y7329600D01*
X10626788Y7238303D01*
X10678503Y7160906D01*
X10714129Y7074897D01*
X10779958Y7009068D01*
X10831673Y6931671D01*
X10909070Y6879956D01*
X10974899Y6814127D01*
X11060908Y6778501D01*
X11138305Y6726786D01*
X11229602Y6708626D01*
X11315610Y6673000D01*
X11353399Y6673000D01*
X11468561Y6394976D01*
X11785591Y6077946D01*
X12199811Y5906370D01*
X12648159Y5906370D01*
X13062379Y6077946D01*
X13379409Y6394976D01*
X13423505Y6501432D01*
X23561614Y6501432D01*
X23590038Y6473008D01*
X24004258Y6301432D01*
X24452606Y6301432D01*
X24866826Y6473008D01*
X25183856Y6790038D01*
X25355432Y7204258D01*
X25355432Y7652606D01*
X25228149Y7959893D01*
X25294042Y7973000D01*
X25434405Y7973000D01*
X25675826Y7873000D01*
X26124174Y7873000D01*
X26538394Y8044576D01*
X26855424Y8361606D01*
X27027000Y8775826D01*
X27027000Y9224174D01*
X26855424Y9638394D01*
X26582816Y9911002D01*
X26591303Y9923703D01*
X26705936Y10500000D01*
X26591303Y11076297D01*
X26264858Y11564858D01*
X25957840Y11770000D01*
X26264858Y11975142D01*
X26591303Y12463703D01*
X26705936Y13040000D01*
X26591303Y13616297D01*
X26264858Y14104858D01*
X25847445Y14383764D01*
X25927000Y14575826D01*
X25927000Y15024174D01*
X25755424Y15438394D01*
X25569644Y15624174D01*
X29273000Y15624174D01*
X29273000Y15175826D01*
X29444576Y14761606D01*
X29761606Y14444576D01*
X29873000Y14398435D01*
X29873001Y11041306D01*
X29873000Y11041301D01*
X29873001Y9865596D01*
X29773000Y9624174D01*
X29773000Y9175826D01*
X29944576Y8761606D01*
X30261606Y8444576D01*
X30675826Y8273000D01*
X31124174Y8273000D01*
X31538394Y8444576D01*
X31855424Y8761606D01*
X32027000Y9175826D01*
X32027000Y9460717D01*
X32450000Y9460717D01*
X32771180Y9524604D01*
X33043463Y9706537D01*
X33225396Y9978820D01*
X33289283Y10300000D01*
X33289283Y10700000D01*
X33225396Y11021180D01*
X33111788Y11191206D01*
X33217413Y11349285D01*
X33297120Y11750000D01*
X33217413Y12150715D01*
X33067551Y12375000D01*
X33217413Y12599285D01*
X33297120Y13000000D01*
X33217413Y13400715D01*
X33067551Y13625000D01*
X33217413Y13849285D01*
X33297120Y14250000D01*
X33217413Y14650715D01*
X33071202Y14869536D01*
X33234987Y15137031D01*
X33244666Y15213877D01*
X33116998Y15373000D01*
X32127000Y15373000D01*
X32127000Y15353000D01*
X31873000Y15353000D01*
X31873000Y15373000D01*
X31853000Y15373000D01*
X31853000Y15627000D01*
X31873000Y15627000D01*
X31873000Y16383756D01*
X32127000Y16383756D01*
X32127000Y15627000D01*
X33116998Y15627000D01*
X33244666Y15786123D01*
X33234987Y15862969D01*
X33021107Y16212278D01*
X32689833Y16453149D01*
X32291598Y16548912D01*
X32127000Y16383756D01*
X31873000Y16383756D01*
X31708402Y16548912D01*
X31310167Y16453149D01*
X31096226Y16297592D01*
X31038394Y16355424D01*
X30624174Y16527000D01*
X30175826Y16527000D01*
X29761606Y16355424D01*
X29444576Y16038394D01*
X29273000Y15624174D01*
X25569644Y15624174D01*
X25438394Y15755424D01*
X25024174Y15927000D01*
X24575826Y15927000D01*
X24334405Y15827000D01*
X20621362Y15827000D01*
X20520213Y15847120D01*
X20419064Y15827000D01*
X20383340Y15819894D01*
X19987351Y15819894D01*
X19855424Y16138394D01*
X19538394Y16455424D01*
X19124174Y16627000D01*
X18675826Y16627000D01*
X18261606Y16455424D01*
X17944576Y16138394D01*
X17773000Y15724174D01*
X17773000Y15275826D01*
X17873000Y15034405D01*
X17873000Y14894044D01*
X17852880Y14792894D01*
X17915268Y14479247D01*
X17725471Y14517000D01*
X17434529Y14517000D01*
X17003703Y14431303D01*
X16515142Y14104858D01*
X16300128Y13783066D01*
X16235183Y13921358D01*
X15806924Y14311645D01*
X15396890Y14481476D01*
X15167000Y14360155D01*
X15167000Y13167000D01*
X15187000Y13167000D01*
X15187000Y12913000D01*
X15167000Y12913000D01*
X15167000Y12893000D01*
X14913000Y12893000D01*
X14913000Y12913000D01*
X12627000Y12913000D01*
X12627000Y12893000D01*
X12373000Y12893000D01*
X12373000Y12913000D01*
X11179181Y12913000D01*
X11058514Y12683108D01*
X11304817Y12158642D01*
X11519202Y11963265D01*
X11405357Y11940620D01*
X11197959Y11802041D01*
X11059380Y11594643D01*
X11010717Y11350000D01*
X11010717Y9650000D01*
X11059380Y9405357D01*
X11197959Y9197959D01*
X11405357Y9059380D01*
X11608082Y9019055D01*
X10974901Y8385874D01*
X10974899Y8385873D01*
X10714129Y8125103D01*
X10678503Y8039094D01*
X10626788Y7961697D01*
X10608628Y7870400D01*
X10573002Y7784392D01*
X10573002Y7691300D01*
X10554841Y7600000D01*
X727000Y7600000D01*
X727000Y8518835D01*
X886920Y8216526D01*
X1260053Y7907610D01*
X1723000Y7765000D01*
X2073000Y7765000D01*
X2073000Y8873000D01*
X2327000Y8873000D01*
X2327000Y7765000D01*
X2677000Y7765000D01*
X3139947Y7907610D01*
X3513080Y8216526D01*
X3739592Y8644719D01*
X3743462Y8682391D01*
X3618731Y8873000D01*
X2327000Y8873000D01*
X2073000Y8873000D01*
X2053000Y8873000D01*
X2053000Y9046602D01*
X4126207Y9046602D01*
X4191122Y8808247D01*
X4701146Y8627688D01*
X5241444Y8656051D01*
X5608878Y8808247D01*
X5673793Y9046602D01*
X4900000Y9820395D01*
X4126207Y9046602D01*
X2053000Y9046602D01*
X2053000Y9127000D01*
X2073000Y9127000D01*
X2073000Y10235000D01*
X2327000Y10235000D01*
X2327000Y9127000D01*
X3618731Y9127000D01*
X3723424Y9286988D01*
X3946602Y9226207D01*
X4720395Y10000000D01*
X5079605Y10000000D01*
X5853398Y9226207D01*
X6091753Y9291122D01*
X6272312Y9801146D01*
X6243949Y10341444D01*
X6091753Y10708878D01*
X5853398Y10773793D01*
X5079605Y10000000D01*
X4720395Y10000000D01*
X3946602Y10773793D01*
X3708247Y10708878D01*
X3527688Y10198854D01*
X3553505Y9707055D01*
X3513080Y9783474D01*
X3139947Y10092390D01*
X2677000Y10235000D01*
X2327000Y10235000D01*
X2073000Y10235000D01*
X1723000Y10235000D01*
X1260053Y10092390D01*
X886920Y9783474D01*
X727000Y9481165D01*
X727000Y10953398D01*
X4126207Y10953398D01*
X4900000Y10179605D01*
X5673793Y10953398D01*
X5608878Y11191753D01*
X5098854Y11372312D01*
X4558556Y11343949D01*
X4191122Y11191753D01*
X4126207Y10953398D01*
X727000Y10953398D01*
X727000Y14046602D01*
X4126207Y14046602D01*
X4191122Y13808247D01*
X4701146Y13627688D01*
X5241444Y13656051D01*
X5608878Y13808247D01*
X5673792Y14046600D01*
X5788942Y13931450D01*
X5872989Y14015497D01*
X5872989Y13895717D01*
X6029341Y13518251D01*
X6318240Y13229352D01*
X6625774Y13101967D01*
X6738292Y13026785D01*
X7008687Y12973000D01*
X7008689Y12973000D01*
X7099989Y12954839D01*
X7191290Y12973000D01*
X8174603Y12973000D01*
X8218251Y12929352D01*
X8595717Y12773000D01*
X9004283Y12773000D01*
X9381749Y12929352D01*
X9670648Y13218251D01*
X9827000Y13595717D01*
X9827000Y14004283D01*
X9670648Y14381749D01*
X9381749Y14670648D01*
X9004283Y14827000D01*
X7625386Y14827000D01*
X7481738Y14970648D01*
X7104272Y15127000D01*
X6695706Y15127000D01*
X6318240Y14970648D01*
X6266149Y14918557D01*
X6243949Y15341444D01*
X6091753Y15708878D01*
X5853398Y15773793D01*
X5079605Y15000000D01*
X5093748Y14985858D01*
X4914143Y14806253D01*
X4900000Y14820395D01*
X4126207Y14046602D01*
X727000Y14046602D01*
X727000Y15518835D01*
X886920Y15216526D01*
X1260053Y14907610D01*
X1723000Y14765000D01*
X2073000Y14765000D01*
X2073000Y15873000D01*
X2327000Y15873000D01*
X2327000Y14765000D01*
X2677000Y14765000D01*
X3139947Y14907610D01*
X3513080Y15216526D01*
X3576158Y15335768D01*
X3527688Y15198854D01*
X3556051Y14658556D01*
X3708247Y14291122D01*
X3946602Y14226207D01*
X4720395Y15000000D01*
X3946602Y15773793D01*
X3723424Y15713012D01*
X3618731Y15873000D01*
X2327000Y15873000D01*
X2073000Y15873000D01*
X2053000Y15873000D01*
X2053000Y15953398D01*
X4126207Y15953398D01*
X4900000Y15179605D01*
X5673793Y15953398D01*
X5608878Y16191753D01*
X5098854Y16372312D01*
X4558556Y16343949D01*
X4191122Y16191753D01*
X4126207Y15953398D01*
X2053000Y15953398D01*
X2053000Y16127000D01*
X2073000Y16127000D01*
X2073000Y17235000D01*
X2327000Y17235000D01*
X2327000Y16127000D01*
X3618731Y16127000D01*
X3743462Y16317609D01*
X3739592Y16355281D01*
X3513080Y16783474D01*
X3139947Y17092390D01*
X2677000Y17235000D01*
X2327000Y17235000D01*
X2073000Y17235000D01*
X1723000Y17235000D01*
X1260053Y17092390D01*
X886920Y16783474D01*
X727000Y16481165D01*
X727000Y18683239D01*
X1561700Y18683239D01*
X1561700Y18236761D01*
X1732560Y17824268D01*
X2048268Y17508560D01*
X2460761Y17337700D01*
X2907239Y17337700D01*
X3319732Y17508560D01*
X3635440Y17824268D01*
X3700000Y17980130D01*
X3764560Y17824268D01*
X4080268Y17508560D01*
X4492761Y17337700D01*
X4939239Y17337700D01*
X5351732Y17508560D01*
X5547125Y17703953D01*
X10093221Y17703953D01*
X10093221Y17255605D01*
X10264797Y16841385D01*
X10581827Y16524355D01*
X10996047Y16352779D01*
X11177668Y16352779D01*
X11673001Y15857445D01*
X11673001Y15566819D01*
X11544576Y15438394D01*
X11373000Y15024174D01*
X11373000Y14575826D01*
X11544576Y14161606D01*
X11555954Y14150228D01*
X11304817Y13921358D01*
X11058514Y13396892D01*
X11179181Y13167000D01*
X12373000Y13167000D01*
X12373000Y13187000D01*
X12627000Y13187000D01*
X12627000Y13167000D01*
X14913000Y13167000D01*
X14913000Y14360155D01*
X14683110Y14481476D01*
X14273076Y14311645D01*
X13844817Y13921358D01*
X13770000Y13762046D01*
X13695183Y13921358D01*
X13444046Y14150228D01*
X13455424Y14161606D01*
X13627000Y14575826D01*
X13627000Y15024174D01*
X13455424Y15438394D01*
X13327000Y15566818D01*
X13327000Y16118556D01*
X13343200Y16200000D01*
X13327000Y16281444D01*
X13327000Y16281448D01*
X13279016Y16522679D01*
X13096233Y16796233D01*
X13027184Y16842370D01*
X12347221Y17522332D01*
X12347221Y17703953D01*
X12175645Y18118173D01*
X11858615Y18435203D01*
X11444395Y18606779D01*
X10996047Y18606779D01*
X10581827Y18435203D01*
X10264797Y18118173D01*
X10093221Y17703953D01*
X5547125Y17703953D01*
X5667440Y17824268D01*
X5838300Y18236761D01*
X5838300Y18683239D01*
X5667440Y19095732D01*
X5351732Y19411440D01*
X4939239Y19582300D01*
X4492761Y19582300D01*
X4080268Y19411440D01*
X3764560Y19095732D01*
X3700000Y18939870D01*
X3635440Y19095732D01*
X3319732Y19411440D01*
X2907239Y19582300D01*
X2460761Y19582300D01*
X2048268Y19411440D01*
X1732560Y19095732D01*
X1561700Y18683239D01*
X727000Y18683239D01*
X727000Y22412422D01*
X760939Y22583047D01*
X817031Y22666994D01*
X977568Y22774261D01*
X1237487Y22906697D01*
X1310535Y22959769D01*
X1386890Y23007968D01*
X1786705Y23358740D01*
X1932114Y23533647D01*
X1932115Y23533649D01*
X2068644Y23763239D01*
X2577700Y23763239D01*
X2577700Y23316761D01*
X2748560Y22904268D01*
X3064268Y22588560D01*
X3476761Y22417700D01*
X3923239Y22417700D01*
X4335732Y22588560D01*
X4651440Y22904268D01*
X4822300Y23316761D01*
X4822300Y23763239D01*
X4651440Y24175732D01*
X4335732Y24491440D01*
X3923239Y24662300D01*
X3476761Y24662300D01*
X3064268Y24491440D01*
X2748560Y24175732D01*
X2577700Y23763239D01*
X2068644Y23763239D01*
X2203966Y23990799D01*
X2203967Y23990800D01*
X2269744Y24155768D01*
X2288209Y24202078D01*
X2288209Y24202079D01*
X2405488Y24720865D01*
X2416173Y24884392D01*
X5173000Y24884392D01*
X5173000Y24515608D01*
X5314127Y24174897D01*
X5574897Y23914127D01*
X5915608Y23773000D01*
X6284392Y23773000D01*
X6382496Y23813636D01*
X6531276Y23664855D01*
X6473000Y23524164D01*
X6473000Y23075816D01*
X6595483Y22780116D01*
X6473000Y22484415D01*
X6473000Y22115631D01*
X6562310Y21900017D01*
X6473000Y21684402D01*
X6473000Y21316163D01*
X6214117Y21057280D01*
X6072990Y20716569D01*
X6072990Y20347785D01*
X6214117Y20007074D01*
X6474887Y19746304D01*
X6815598Y19605177D01*
X7184382Y19605177D01*
X7525093Y19746304D01*
X7785863Y20007074D01*
X7854592Y20173000D01*
X8832070Y20173000D01*
X8914127Y19974897D01*
X9174897Y19714127D01*
X9515608Y19573000D01*
X9884392Y19573000D01*
X10225103Y19714127D01*
X10485873Y19974897D01*
X10627000Y20315608D01*
X10627000Y20684392D01*
X10485873Y21025103D01*
X10461065Y21049911D01*
X10535706Y21230111D01*
X10535706Y21598895D01*
X10394579Y21939606D01*
X10392635Y21941550D01*
X10427023Y22024569D01*
X10427023Y22168730D01*
X10733102Y22168730D01*
X10974523Y22068730D01*
X11422871Y22068730D01*
X11837091Y22240306D01*
X12154121Y22557336D01*
X12325697Y22971556D01*
X12325697Y23419904D01*
X12154121Y23834124D01*
X11837091Y24151154D01*
X11422871Y24322730D01*
X10974523Y24322730D01*
X10808971Y24254156D01*
X10827034Y24297764D01*
X10827034Y24666548D01*
X10685907Y25007259D01*
X10425137Y25268029D01*
X10084426Y25409156D01*
X9715642Y25409156D01*
X9374931Y25268029D01*
X9114161Y25007259D01*
X9039495Y24827000D01*
X7425397Y24827000D01*
X7088960Y25163436D01*
X7048401Y25224137D01*
X6807925Y25384818D01*
X6705855Y25405121D01*
X6625103Y25485873D01*
X6284392Y25627000D01*
X5915608Y25627000D01*
X5574897Y25485873D01*
X5314127Y25225103D01*
X5173000Y24884392D01*
X2416173Y24884392D01*
X2418771Y24924148D01*
X2420319Y24947836D01*
X2371545Y25477472D01*
X2364286Y25506032D01*
X2315511Y25697918D01*
X2105457Y26186561D01*
X2105457Y26186562D01*
X2014441Y26330748D01*
X1984045Y26378901D01*
X1984044Y26378902D01*
X1633272Y26778717D01*
X1597791Y26808214D01*
X1458367Y26924125D01*
X1013521Y27188659D01*
X819480Y27314615D01*
X762278Y27397809D01*
X727000Y27563613D01*
X727000Y34373000D01*
X1104283Y34373000D01*
X1481749Y34529352D01*
X1770648Y34818251D01*
X1927000Y35195717D01*
X1927000Y35604283D01*
X1770648Y35981749D01*
X1628223Y36124174D01*
X4973000Y36124174D01*
X4973000Y35675826D01*
X5073001Y35434403D01*
X5073000Y32465595D01*
X4973000Y32224174D01*
X4973000Y31775826D01*
X5144576Y31361606D01*
X5461606Y31044576D01*
X5875826Y30873000D01*
X6324174Y30873000D01*
X6738394Y31044576D01*
X7055424Y31361606D01*
X7227000Y31775826D01*
X7227000Y32224174D01*
X7127000Y32465595D01*
X7127000Y35434405D01*
X7227000Y35675826D01*
X7227000Y36124174D01*
X7055424Y36538394D01*
X6738394Y36855424D01*
X6324174Y37027000D01*
X5875826Y37027000D01*
X5461606Y36855424D01*
X5144576Y36538394D01*
X4973000Y36124174D01*
X1628223Y36124174D01*
X1577000Y36175397D01*
X1577000Y39994392D01*
X7223000Y39994392D01*
X7223000Y39625608D01*
X7364127Y39284897D01*
X7624897Y39024127D01*
X7965608Y38883000D01*
X8178025Y38883000D01*
X8178025Y38620633D01*
X8319152Y38279922D01*
X8579922Y38019152D01*
X8920633Y37878025D01*
X9289417Y37878025D01*
X9630128Y38019152D01*
X9816758Y38205782D01*
X9929162Y38280888D01*
X9969721Y38341589D01*
X10012524Y38384392D01*
X18873000Y38384392D01*
X18873000Y38015608D01*
X19014127Y37674897D01*
X19274897Y37414127D01*
X19473000Y37332070D01*
X19473000Y37215608D01*
X19614127Y36874897D01*
X19874897Y36614127D01*
X20215608Y36473000D01*
X20584392Y36473000D01*
X20594628Y36477240D01*
X21535305Y35536562D01*
X21575863Y35475863D01*
X21706976Y35388256D01*
X21656800Y35136002D01*
X21673001Y35054554D01*
X21673000Y33926538D01*
X21656800Y33845094D01*
X21664418Y33806795D01*
X21541746Y33684122D01*
X21458486Y33684122D01*
X21117775Y33542995D01*
X20857005Y33282225D01*
X20715878Y32941514D01*
X20715878Y32572730D01*
X20857005Y32232019D01*
X21117775Y31971249D01*
X21458486Y31830122D01*
X21827270Y31830122D01*
X22167981Y31971249D01*
X22428751Y32232019D01*
X22473001Y32338847D01*
X22473000Y31274018D01*
X22445478Y31285418D01*
X22076694Y31285418D01*
X21735983Y31144291D01*
X21663352Y31071660D01*
X21520454Y31043236D01*
X21279978Y30882555D01*
X21239420Y30821856D01*
X20336561Y29918996D01*
X20275863Y29878439D01*
X20235306Y29817741D01*
X20235305Y29817740D01*
X20115181Y29637962D01*
X20110618Y29615021D01*
X20072999Y29425901D01*
X20072999Y29425897D01*
X20058758Y29354302D01*
X20072999Y29282707D01*
X20072999Y28571596D01*
X20058758Y28500001D01*
X20072999Y28428406D01*
X20072999Y28428403D01*
X20115181Y28216341D01*
X20275862Y27975865D01*
X20336561Y27935307D01*
X21173001Y27098866D01*
X21173000Y25465354D01*
X21024174Y25527000D01*
X20575826Y25527000D01*
X20161606Y25355424D01*
X19844576Y25038394D01*
X19673000Y24624174D01*
X19673000Y24175826D01*
X19773000Y23934405D01*
X19773000Y23169137D01*
X19752880Y23067988D01*
X19773000Y22966839D01*
X19832587Y22667274D01*
X20059574Y22327562D01*
X20145330Y22270262D01*
X22270264Y20145327D01*
X22327563Y20059573D01*
X22667274Y19832586D01*
X22966839Y19772999D01*
X22966840Y19772999D01*
X23067989Y19752879D01*
X23169138Y19772999D01*
X24330852Y19772999D01*
X24432001Y19752879D01*
X24533150Y19772999D01*
X24533151Y19772999D01*
X24832716Y19832586D01*
X25172427Y20059573D01*
X25229727Y20145329D01*
X26294335Y21209936D01*
X26380089Y21267235D01*
X26607076Y21606946D01*
X26666663Y21906511D01*
X26666663Y21906512D01*
X26686783Y22007661D01*
X26666663Y22108810D01*
X26666663Y22533584D01*
X26766663Y22775005D01*
X26766663Y23073000D01*
X26984392Y23073000D01*
X27325103Y23214127D01*
X27585873Y23474897D01*
X27727000Y23815608D01*
X27727000Y24184392D01*
X27585873Y24525103D01*
X27325103Y24785873D01*
X26984392Y24927000D01*
X26901133Y24927000D01*
X26512650Y25315482D01*
X26512650Y27637559D01*
X26621373Y27528836D01*
X26962084Y27387709D01*
X27330868Y27387709D01*
X27671579Y27528836D01*
X27932349Y27789606D01*
X28073476Y28130317D01*
X28073476Y28213577D01*
X28124462Y28264563D01*
X28174897Y28214127D01*
X28515608Y28073000D01*
X28884392Y28073000D01*
X29225103Y28214127D01*
X29485873Y28474897D01*
X29627000Y28815608D01*
X29627000Y29184392D01*
X29485873Y29525103D01*
X29225103Y29785873D01*
X28989971Y29883268D01*
X30271876Y29883268D01*
X30271876Y29514484D01*
X30413003Y29173773D01*
X30673773Y28913003D01*
X31014484Y28771876D01*
X31383268Y28771876D01*
X31723979Y28913003D01*
X31984749Y29173773D01*
X32125876Y29514484D01*
X32125876Y29597744D01*
X32512980Y29984848D01*
X32825103Y30114133D01*
X33085873Y30374903D01*
X33227000Y30715614D01*
X33227000Y31084398D01*
X33085873Y31425109D01*
X32825103Y31685879D01*
X32484392Y31827006D01*
X32115608Y31827006D01*
X31774897Y31685879D01*
X31514127Y31425109D01*
X31373000Y31084398D01*
X31373000Y30901133D01*
X31097744Y30625876D01*
X31014484Y30625876D01*
X30673773Y30484749D01*
X30413003Y30223979D01*
X30271876Y29883268D01*
X28989971Y29883268D01*
X28884392Y29927000D01*
X28515608Y29927000D01*
X28174897Y29785873D01*
X28116024Y29727000D01*
X27903360Y29727000D01*
X27831766Y29741241D01*
X27760172Y29727000D01*
X27760168Y29727000D01*
X27548106Y29684818D01*
X27307630Y29524137D01*
X27267071Y29463436D01*
X27045344Y29241709D01*
X26962084Y29241709D01*
X26621373Y29100582D01*
X26512650Y28991859D01*
X26512650Y34018126D01*
X26706734Y34018126D01*
X26706734Y33649342D01*
X26847861Y33308631D01*
X27108631Y33047861D01*
X27449342Y32906734D01*
X27532602Y32906734D01*
X28734377Y31704959D01*
X28774934Y31644260D01*
X29015410Y31483579D01*
X29175084Y31451818D01*
X29244378Y31382524D01*
X29585089Y31241397D01*
X29953873Y31241397D01*
X30294584Y31382524D01*
X30555354Y31643294D01*
X30696481Y31984005D01*
X30696481Y32352789D01*
X30555354Y32693500D01*
X30294584Y32954270D01*
X29953873Y33095397D01*
X29585089Y33095397D01*
X29454355Y33041245D01*
X28560734Y33934866D01*
X28560734Y34018126D01*
X28419607Y34358837D01*
X28158837Y34619607D01*
X27818126Y34760734D01*
X27449342Y34760734D01*
X27108631Y34619607D01*
X26847861Y34358837D01*
X26706734Y34018126D01*
X26512650Y34018126D01*
X26512650Y34343372D01*
X26571523Y34402245D01*
X26712650Y34742956D01*
X26712650Y35111740D01*
X26687275Y35173000D01*
X26733182Y35173000D01*
X26861606Y35044576D01*
X27275826Y34873000D01*
X27724174Y34873000D01*
X28138394Y35044576D01*
X28455424Y35361606D01*
X28627000Y35775826D01*
X28627000Y35973491D01*
X28725103Y36014127D01*
X28985873Y36274897D01*
X29127000Y36615608D01*
X29127000Y36984392D01*
X28985873Y37325103D01*
X28725103Y37585873D01*
X28384392Y37727000D01*
X28015608Y37727000D01*
X27674897Y37585873D01*
X27616024Y37527000D01*
X23401134Y37527000D01*
X22664696Y38263436D01*
X22624137Y38324137D01*
X22383661Y38484818D01*
X22171599Y38527000D01*
X22171595Y38527000D01*
X22100000Y38541241D01*
X22028405Y38527000D01*
X21401132Y38527000D01*
X21264696Y38663436D01*
X21224137Y38724137D01*
X20983661Y38884818D01*
X20771599Y38927000D01*
X20771595Y38927000D01*
X20700000Y38941241D01*
X20628405Y38927000D01*
X20383976Y38927000D01*
X20325103Y38985873D01*
X19984392Y39127000D01*
X19615608Y39127000D01*
X19274897Y38985873D01*
X19014127Y38725103D01*
X18873000Y38384392D01*
X10012524Y38384392D01*
X11301133Y39673000D01*
X11384392Y39673000D01*
X11725103Y39814127D01*
X11985873Y40074897D01*
X12127000Y40415608D01*
X12127000Y40784392D01*
X11985873Y41125103D01*
X11725103Y41385873D01*
X11384392Y41527000D01*
X11015608Y41527000D01*
X10674897Y41385873D01*
X10418891Y41129867D01*
X10184392Y41227000D01*
X9815608Y41227000D01*
X9474897Y41085873D01*
X9214127Y40825103D01*
X9094791Y40537000D01*
X8733976Y40537000D01*
X8675103Y40595873D01*
X8334392Y40737000D01*
X7965608Y40737000D01*
X7624897Y40595873D01*
X7364127Y40335103D01*
X7223000Y39994392D01*
X1577000Y39994392D01*
X1577000Y41706517D01*
X15280413Y41706517D01*
X15280413Y41337733D01*
X15421540Y40997022D01*
X15682310Y40736252D01*
X16023021Y40595125D01*
X16391805Y40595125D01*
X16732516Y40736252D01*
X16844169Y40847905D01*
X18291358Y40847905D01*
X18350231Y40789032D01*
X18690942Y40647905D01*
X19059726Y40647905D01*
X19400437Y40789032D01*
X19661207Y41049802D01*
X19802334Y41390513D01*
X19802334Y41598467D01*
X20006883Y41803016D01*
X20148010Y42143727D01*
X20148010Y42512511D01*
X20075024Y42688715D01*
X20183234Y42949958D01*
X20183234Y42996784D01*
X20225103Y43014127D01*
X20485873Y43274897D01*
X20627000Y43615608D01*
X20627000Y43984392D01*
X20485873Y44325103D01*
X20225103Y44585873D01*
X19884392Y44727000D01*
X19515608Y44727000D01*
X19174897Y44585873D01*
X19116024Y44527000D01*
X17283976Y44527000D01*
X17225103Y44585873D01*
X16884392Y44727000D01*
X16515608Y44727000D01*
X16174897Y44585873D01*
X15914127Y44325103D01*
X15773000Y43984392D01*
X15773000Y43615608D01*
X15914127Y43274897D01*
X16174897Y43014127D01*
X16515608Y42873000D01*
X16670909Y42873000D01*
X16497927Y42700018D01*
X16393682Y42448348D01*
X16391805Y42449125D01*
X16023021Y42449125D01*
X15682310Y42307998D01*
X15421540Y42047228D01*
X15280413Y41706517D01*
X1577000Y41706517D01*
X1577000Y45833586D01*
X1727000Y46195717D01*
X1727000Y46604283D01*
X1570648Y46981749D01*
X1281749Y47270648D01*
X904283Y47427000D01*
X727000Y47427000D01*
X727000Y47684392D01*
X18572994Y47684392D01*
X18572994Y47315608D01*
X18714121Y46974897D01*
X18974891Y46714127D01*
X19315602Y46573000D01*
X19684386Y46573000D01*
X20025097Y46714127D01*
X20285867Y46974897D01*
X20426994Y47315608D01*
X20426994Y47398868D01*
X20787710Y47759583D01*
X20848409Y47800141D01*
X21009090Y48040617D01*
X21051272Y48252679D01*
X21051272Y48252683D01*
X21065513Y48324277D01*
X21051272Y48395871D01*
X21051272Y48707282D01*
X21066830Y48707282D01*
X21873067Y47901045D01*
X21873067Y47815608D01*
X22014194Y47474897D01*
X22274964Y47214127D01*
X22615675Y47073000D01*
X22984459Y47073000D01*
X23325170Y47214127D01*
X23585940Y47474897D01*
X23727067Y47815608D01*
X23727067Y48184392D01*
X23585940Y48525103D01*
X23325170Y48785873D01*
X22984459Y48927000D01*
X22903378Y48927000D01*
X22780898Y49049480D01*
X22967504Y49049480D01*
X23308215Y49190607D01*
X23568985Y49451377D01*
X23710112Y49792088D01*
X23710112Y50160872D01*
X23568985Y50501583D01*
X23308215Y50762353D01*
X22967504Y50903480D01*
X22598720Y50903480D01*
X22306891Y50782601D01*
X21927022Y51162469D01*
X21927022Y51245729D01*
X21785895Y51586440D01*
X21525125Y51847210D01*
X21184414Y51988337D01*
X20815630Y51988337D01*
X20474919Y51847210D01*
X20369348Y51741639D01*
X20325113Y51785873D01*
X19984402Y51927000D01*
X19615618Y51927000D01*
X19274907Y51785873D01*
X19014137Y51525103D01*
X18873010Y51184392D01*
X18873010Y51070190D01*
X18815193Y50983661D01*
X18773011Y50771599D01*
X18773011Y50771596D01*
X18758770Y50700001D01*
X18773011Y50628406D01*
X18773012Y49691516D01*
X18697272Y49508664D01*
X18697272Y49139880D01*
X18838399Y48799169D01*
X19099169Y48538399D01*
X19368110Y48427000D01*
X19315602Y48427000D01*
X18974891Y48285873D01*
X18714121Y48025103D01*
X18572994Y47684392D01*
X727000Y47684392D01*
X727000Y54076289D01*
X4611000Y54076289D01*
X4611000Y53523711D01*
X4822463Y53013195D01*
X5213195Y52622463D01*
X5723711Y52411000D01*
X6276289Y52411000D01*
X6786805Y52622463D01*
X7000000Y52835658D01*
X7213195Y52622463D01*
X7723711Y52411000D01*
X8276289Y52411000D01*
X8786805Y52622463D01*
X9000000Y52835658D01*
X9213195Y52622463D01*
X9723711Y52411000D01*
X10276289Y52411000D01*
X10786805Y52622463D01*
X10984129Y52819787D01*
X11199392Y52819787D01*
X11268857Y52577603D01*
X11792302Y52390856D01*
X12347368Y52418638D01*
X12731143Y52577603D01*
X12800608Y52819787D01*
X12000000Y53620395D01*
X11199392Y52819787D01*
X10984129Y52819787D01*
X11177537Y53013195D01*
X11279323Y53258928D01*
X11820395Y53800000D01*
X12179605Y53800000D01*
X12980213Y52999392D01*
X13222397Y53068857D01*
X13393217Y53547660D01*
X16227265Y53547660D01*
X16545501Y53093797D01*
X17806434Y52567064D01*
X19172956Y52562965D01*
X20437027Y53082122D01*
X20454499Y53093797D01*
X20772735Y53547660D01*
X18500000Y55820395D01*
X16227265Y53547660D01*
X13393217Y53547660D01*
X13409144Y53592302D01*
X13381362Y54147368D01*
X13222397Y54531143D01*
X12980213Y54600608D01*
X12179605Y53800000D01*
X11820395Y53800000D01*
X11279323Y54341072D01*
X11177537Y54586805D01*
X10984129Y54780213D01*
X11199392Y54780213D01*
X12000000Y53979605D01*
X12800608Y54780213D01*
X12731143Y55022397D01*
X12207698Y55209144D01*
X11652632Y55181362D01*
X11268857Y55022397D01*
X11199392Y54780213D01*
X10984129Y54780213D01*
X10786805Y54977537D01*
X10276289Y55189000D01*
X9723711Y55189000D01*
X9213195Y54977537D01*
X9000000Y54764342D01*
X8786805Y54977537D01*
X8276289Y55189000D01*
X7723711Y55189000D01*
X7213195Y54977537D01*
X7000000Y54764342D01*
X6786805Y54977537D01*
X6276289Y55189000D01*
X5723711Y55189000D01*
X5213195Y54977537D01*
X4822463Y54586805D01*
X4611000Y54076289D01*
X727000Y54076289D01*
X727000Y55327044D01*
X15062965Y55327044D01*
X15582122Y54062973D01*
X15593797Y54045501D01*
X16047660Y53727265D01*
X18320395Y56000000D01*
X18679605Y56000000D01*
X20952340Y53727265D01*
X21406203Y54045501D01*
X21449855Y54150000D01*
X26710716Y54150000D01*
X26710716Y53650000D01*
X26713124Y53637894D01*
X26713124Y53600991D01*
X26725408Y53476273D01*
X26744530Y53380140D01*
X26780907Y53260218D01*
X26818416Y53169662D01*
X26877494Y53059134D01*
X26931950Y52977635D01*
X27011453Y52880761D01*
X27080761Y52811453D01*
X27123001Y52776788D01*
X27123000Y51671597D01*
X27108759Y51600000D01*
X27123000Y51528405D01*
X27123000Y51528402D01*
X27123003Y51528388D01*
X27123003Y51183975D01*
X27064129Y51125101D01*
X26923002Y50784390D01*
X26923002Y50415606D01*
X27064129Y50074895D01*
X27324899Y49814125D01*
X27665610Y49672998D01*
X28034394Y49672998D01*
X28375105Y49814125D01*
X28507017Y49946037D01*
X28611463Y49841590D01*
X28952174Y49700463D01*
X29320958Y49700463D01*
X29661669Y49841590D01*
X29922439Y50102360D01*
X30063566Y50443071D01*
X30063566Y50811855D01*
X29922439Y51152566D01*
X29863566Y51211439D01*
X29863566Y51460864D01*
X29877000Y51528401D01*
X29877000Y51528405D01*
X29891241Y51600000D01*
X29877000Y51671597D01*
X29877000Y52776788D01*
X29919239Y52811453D01*
X29988547Y52880761D01*
X30068050Y52977635D01*
X30122506Y53059134D01*
X30181584Y53169662D01*
X30219093Y53260218D01*
X30255470Y53380140D01*
X30274592Y53476273D01*
X30286876Y53600991D01*
X30286876Y53637894D01*
X30289284Y53650000D01*
X30289284Y54150000D01*
X30286876Y54162106D01*
X30286876Y54199009D01*
X30274592Y54323727D01*
X30255470Y54419860D01*
X30219093Y54539782D01*
X30181584Y54630338D01*
X30122506Y54740866D01*
X30068050Y54822365D01*
X29988547Y54919239D01*
X29919239Y54988547D01*
X29822365Y55068050D01*
X29740866Y55122506D01*
X29630338Y55181584D01*
X29539782Y55219093D01*
X29419860Y55255470D01*
X29323727Y55274592D01*
X29199009Y55286876D01*
X29162106Y55286876D01*
X29150000Y55289284D01*
X28650000Y55289284D01*
X28500000Y55259447D01*
X28350000Y55289284D01*
X27850000Y55289284D01*
X27837894Y55286876D01*
X27800991Y55286876D01*
X27676273Y55274592D01*
X27580140Y55255470D01*
X27460218Y55219093D01*
X27369662Y55181584D01*
X27259134Y55122506D01*
X27177635Y55068050D01*
X27080761Y54988547D01*
X27011453Y54919239D01*
X26931950Y54822365D01*
X26877494Y54740866D01*
X26818416Y54630338D01*
X26780907Y54539782D01*
X26744530Y54419860D01*
X26725408Y54323727D01*
X26713124Y54199009D01*
X26713124Y54162106D01*
X26710716Y54150000D01*
X21449855Y54150000D01*
X21932936Y55306434D01*
X21937035Y56672956D01*
X21417878Y57937027D01*
X21406203Y57954499D01*
X20952340Y58272735D01*
X18679605Y56000000D01*
X18320395Y56000000D01*
X16047660Y58272735D01*
X15593797Y57954499D01*
X15067064Y56693566D01*
X15062965Y55327044D01*
X727000Y55327044D01*
X727000Y58431924D01*
X778138Y58739160D01*
X897114Y58959662D01*
X1081096Y59129733D01*
X1323626Y59236954D01*
X1545735Y59265013D01*
X17408196Y59265013D01*
X16562973Y58917878D01*
X16562973Y58917878D01*
G37*
X16562973Y58917878D02*
X16545501Y58906203D01*
X16227265Y58452340D01*
X18500000Y56179605D01*
X20772735Y58452340D01*
X20454499Y58906203D01*
X19595553Y59265013D01*
X34930159Y59265013D01*
X34930159Y59023454D01*
X35078898Y58664365D01*
X35353733Y58389530D01*
X35573001Y58298707D01*
X35573001Y58015788D01*
X35513386Y58075403D01*
X35172675Y58216530D01*
X34803891Y58216530D01*
X34463180Y58075403D01*
X34202410Y57814633D01*
X34061283Y57473922D01*
X34061283Y57105138D01*
X34202410Y56764427D01*
X34463180Y56503657D01*
X34561282Y56463022D01*
X34561282Y56283313D01*
X34547041Y56211718D01*
X34561282Y56140123D01*
X34561282Y56140119D01*
X34576535Y56063439D01*
X34603464Y55928058D01*
X34603465Y55928057D01*
X34764146Y55687581D01*
X34824844Y55647024D01*
X35173000Y55298867D01*
X35173001Y48901134D01*
X34698868Y48427000D01*
X33719490Y48427000D01*
X33660395Y48569668D01*
X33399625Y48830438D01*
X33058914Y48971565D01*
X32690130Y48971565D01*
X32349419Y48830438D01*
X32088649Y48569668D01*
X31947522Y48228957D01*
X31947522Y47927000D01*
X31781442Y47927000D01*
X31699999Y47943200D01*
X31618556Y47927000D01*
X31618552Y47927000D01*
X31377321Y47879016D01*
X31103767Y47696233D01*
X31057631Y47627186D01*
X30554280Y47123834D01*
X30541772Y47123834D01*
X30413348Y47252258D01*
X29999128Y47423834D01*
X29550780Y47423834D01*
X29136560Y47252258D01*
X28819530Y46935228D01*
X28647954Y46521008D01*
X28647954Y46072660D01*
X28819530Y45658440D01*
X29136560Y45341410D01*
X29550780Y45169834D01*
X29999128Y45169834D01*
X30413348Y45341410D01*
X30541772Y45469834D01*
X30815390Y45469834D01*
X30896834Y45453634D01*
X30978278Y45469834D01*
X30978282Y45469834D01*
X31219513Y45517818D01*
X31493067Y45700601D01*
X31539206Y45769653D01*
X32042554Y46273000D01*
X35734405Y46273000D01*
X35975826Y46173000D01*
X36273000Y46173000D01*
X36273001Y27571608D01*
X36239061Y27400978D01*
X36182969Y27317031D01*
X36022432Y27209764D01*
X35762513Y27077328D01*
X35689462Y27024254D01*
X35613111Y26976058D01*
X35213298Y26625289D01*
X35213294Y26625287D01*
X35133895Y26529780D01*
X35067886Y26450381D01*
X35067886Y26450380D01*
X34796032Y25993226D01*
X34744144Y25863089D01*
X34711790Y25781947D01*
X34594510Y25263161D01*
X34582857Y25084829D01*
X34579679Y25036188D01*
X34628454Y24506551D01*
X34684488Y24286105D01*
X34894542Y23797463D01*
X35015954Y23605122D01*
X35015957Y23605119D01*
X35366725Y23205307D01*
X35366726Y23205306D01*
X35541632Y23059897D01*
X35986545Y22795323D01*
X36180520Y22669410D01*
X36237722Y22586216D01*
X36273000Y22420412D01*
X36273001Y1552108D01*
X36221861Y1244864D01*
X36102886Y1024364D01*
X35918905Y854294D01*
X35676374Y747072D01*
X35454265Y719013D01*
X18620965Y719013D01*
X18928624Y1026672D01*
X19100200Y1440892D01*
X19100200Y1889240D01*
X18928624Y2303460D01*
X18611594Y2620490D01*
X18197374Y2792066D01*
X17749026Y2792066D01*
X17334806Y2620490D01*
X17017776Y2303460D01*
X16846200Y1889240D01*
X16846200Y1849041D01*
X16724159Y1727000D01*
X13066818Y1727000D01*
X13038394Y1755424D01*
X12624174Y1927000D01*
X12175826Y1927000D01*
X11761606Y1755424D01*
X11444576Y1438394D01*
X11273000Y1024174D01*
X11273000Y719013D01*
X1560089Y719013D01*
X1252851Y770152D01*
X1032351Y889127D01*
X862281Y1073108D01*
X755059Y1315639D01*
X727000Y1537748D01*
X727000Y3000000D01*
X5473962Y3000000D01*
X5569192Y2521248D01*
X5840383Y2115383D01*
X6246248Y1844192D01*
X6604153Y1773000D01*
X7395847Y1773000D01*
X7753752Y1844192D01*
X8159617Y2115383D01*
X8430808Y2521248D01*
X8526038Y3000000D01*
X8430808Y3478752D01*
X8159617Y3884617D01*
X8104526Y3921428D01*
X8253818Y4021182D01*
X8446590Y4309686D01*
X8514283Y4649999D01*
X8514283Y5350001D01*
X8446590Y5690314D01*
X8253818Y5978818D01*
X7965314Y6171590D01*
X7625001Y6239283D01*
X6374999Y6239283D01*
X6034686Y6171590D01*
X5746182Y5978818D01*
X5553410Y5690314D01*
X5485717Y5350001D01*
X5485717Y4649999D01*
X5553410Y4309686D01*
X5746182Y4021182D01*
X5895474Y3921428D01*
X5840383Y3884617D01*
X5569192Y3478752D01*
X5473962Y3000000D01*
X727000Y3000000D01*
X727000Y7600000D01*
X10554841Y7600000D01*
X10573002Y7508700D01*
X10573002Y7415608D01*
X10608628Y7329600D01*
X10626788Y7238303D01*
X10678503Y7160906D01*
X10714129Y7074897D01*
X10779958Y7009068D01*
X10831673Y6931671D01*
X10909070Y6879956D01*
X10974899Y6814127D01*
X11060908Y6778501D01*
X11138305Y6726786D01*
X11229602Y6708626D01*
X11315610Y6673000D01*
X11353399Y6673000D01*
X11468561Y6394976D01*
X11785591Y6077946D01*
X12199811Y5906370D01*
X12648159Y5906370D01*
X13062379Y6077946D01*
X13379409Y6394976D01*
X13423505Y6501432D01*
X23561614Y6501432D01*
X23590038Y6473008D01*
X24004258Y6301432D01*
X24452606Y6301432D01*
X24866826Y6473008D01*
X25183856Y6790038D01*
X25355432Y7204258D01*
X25355432Y7652606D01*
X25228149Y7959893D01*
X25294042Y7973000D01*
X25434405Y7973000D01*
X25675826Y7873000D01*
X26124174Y7873000D01*
X26538394Y8044576D01*
X26855424Y8361606D01*
X27027000Y8775826D01*
X27027000Y9224174D01*
X26855424Y9638394D01*
X26582816Y9911002D01*
X26591303Y9923703D01*
X26705936Y10500000D01*
X26591303Y11076297D01*
X26264858Y11564858D01*
X25957840Y11770000D01*
X26264858Y11975142D01*
X26591303Y12463703D01*
X26705936Y13040000D01*
X26591303Y13616297D01*
X26264858Y14104858D01*
X25847445Y14383764D01*
X25927000Y14575826D01*
X25927000Y15024174D01*
X25755424Y15438394D01*
X25569644Y15624174D01*
X29273000Y15624174D01*
X29273000Y15175826D01*
X29444576Y14761606D01*
X29761606Y14444576D01*
X29873000Y14398435D01*
X29873001Y11041306D01*
X29873000Y11041301D01*
X29873001Y9865596D01*
X29773000Y9624174D01*
X29773000Y9175826D01*
X29944576Y8761606D01*
X30261606Y8444576D01*
X30675826Y8273000D01*
X31124174Y8273000D01*
X31538394Y8444576D01*
X31855424Y8761606D01*
X32027000Y9175826D01*
X32027000Y9460717D01*
X32450000Y9460717D01*
X32771180Y9524604D01*
X33043463Y9706537D01*
X33225396Y9978820D01*
X33289283Y10300000D01*
X33289283Y10700000D01*
X33225396Y11021180D01*
X33111788Y11191206D01*
X33217413Y11349285D01*
X33297120Y11750000D01*
X33217413Y12150715D01*
X33067551Y12375000D01*
X33217413Y12599285D01*
X33297120Y13000000D01*
X33217413Y13400715D01*
X33067551Y13625000D01*
X33217413Y13849285D01*
X33297120Y14250000D01*
X33217413Y14650715D01*
X33071202Y14869536D01*
X33234987Y15137031D01*
X33244666Y15213877D01*
X33116998Y15373000D01*
X32127000Y15373000D01*
X32127000Y15353000D01*
X31873000Y15353000D01*
X31873000Y15373000D01*
X31853000Y15373000D01*
X31853000Y15627000D01*
X31873000Y15627000D01*
X31873000Y16383756D01*
X32127000Y16383756D01*
X32127000Y15627000D01*
X33116998Y15627000D01*
X33244666Y15786123D01*
X33234987Y15862969D01*
X33021107Y16212278D01*
X32689833Y16453149D01*
X32291598Y16548912D01*
X32127000Y16383756D01*
X31873000Y16383756D01*
X31708402Y16548912D01*
X31310167Y16453149D01*
X31096226Y16297592D01*
X31038394Y16355424D01*
X30624174Y16527000D01*
X30175826Y16527000D01*
X29761606Y16355424D01*
X29444576Y16038394D01*
X29273000Y15624174D01*
X25569644Y15624174D01*
X25438394Y15755424D01*
X25024174Y15927000D01*
X24575826Y15927000D01*
X24334405Y15827000D01*
X20621362Y15827000D01*
X20520213Y15847120D01*
X20419064Y15827000D01*
X20383340Y15819894D01*
X19987351Y15819894D01*
X19855424Y16138394D01*
X19538394Y16455424D01*
X19124174Y16627000D01*
X18675826Y16627000D01*
X18261606Y16455424D01*
X17944576Y16138394D01*
X17773000Y15724174D01*
X17773000Y15275826D01*
X17873000Y15034405D01*
X17873000Y14894044D01*
X17852880Y14792894D01*
X17915268Y14479247D01*
X17725471Y14517000D01*
X17434529Y14517000D01*
X17003703Y14431303D01*
X16515142Y14104858D01*
X16300128Y13783066D01*
X16235183Y13921358D01*
X15806924Y14311645D01*
X15396890Y14481476D01*
X15167000Y14360155D01*
X15167000Y13167000D01*
X15187000Y13167000D01*
X15187000Y12913000D01*
X15167000Y12913000D01*
X15167000Y12893000D01*
X14913000Y12893000D01*
X14913000Y12913000D01*
X12627000Y12913000D01*
X12627000Y12893000D01*
X12373000Y12893000D01*
X12373000Y12913000D01*
X11179181Y12913000D01*
X11058514Y12683108D01*
X11304817Y12158642D01*
X11519202Y11963265D01*
X11405357Y11940620D01*
X11197959Y11802041D01*
X11059380Y11594643D01*
X11010717Y11350000D01*
X11010717Y9650000D01*
X11059380Y9405357D01*
X11197959Y9197959D01*
X11405357Y9059380D01*
X11608082Y9019055D01*
X10974901Y8385874D01*
X10974899Y8385873D01*
X10714129Y8125103D01*
X10678503Y8039094D01*
X10626788Y7961697D01*
X10608628Y7870400D01*
X10573002Y7784392D01*
X10573002Y7691300D01*
X10554841Y7600000D01*
X727000Y7600000D01*
X727000Y8518835D01*
X886920Y8216526D01*
X1260053Y7907610D01*
X1723000Y7765000D01*
X2073000Y7765000D01*
X2073000Y8873000D01*
X2327000Y8873000D01*
X2327000Y7765000D01*
X2677000Y7765000D01*
X3139947Y7907610D01*
X3513080Y8216526D01*
X3739592Y8644719D01*
X3743462Y8682391D01*
X3618731Y8873000D01*
X2327000Y8873000D01*
X2073000Y8873000D01*
X2053000Y8873000D01*
X2053000Y9046602D01*
X4126207Y9046602D01*
X4191122Y8808247D01*
X4701146Y8627688D01*
X5241444Y8656051D01*
X5608878Y8808247D01*
X5673793Y9046602D01*
X4900000Y9820395D01*
X4126207Y9046602D01*
X2053000Y9046602D01*
X2053000Y9127000D01*
X2073000Y9127000D01*
X2073000Y10235000D01*
X2327000Y10235000D01*
X2327000Y9127000D01*
X3618731Y9127000D01*
X3723424Y9286988D01*
X3946602Y9226207D01*
X4720395Y10000000D01*
X5079605Y10000000D01*
X5853398Y9226207D01*
X6091753Y9291122D01*
X6272312Y9801146D01*
X6243949Y10341444D01*
X6091753Y10708878D01*
X5853398Y10773793D01*
X5079605Y10000000D01*
X4720395Y10000000D01*
X3946602Y10773793D01*
X3708247Y10708878D01*
X3527688Y10198854D01*
X3553505Y9707055D01*
X3513080Y9783474D01*
X3139947Y10092390D01*
X2677000Y10235000D01*
X2327000Y10235000D01*
X2073000Y10235000D01*
X1723000Y10235000D01*
X1260053Y10092390D01*
X886920Y9783474D01*
X727000Y9481165D01*
X727000Y10953398D01*
X4126207Y10953398D01*
X4900000Y10179605D01*
X5673793Y10953398D01*
X5608878Y11191753D01*
X5098854Y11372312D01*
X4558556Y11343949D01*
X4191122Y11191753D01*
X4126207Y10953398D01*
X727000Y10953398D01*
X727000Y14046602D01*
X4126207Y14046602D01*
X4191122Y13808247D01*
X4701146Y13627688D01*
X5241444Y13656051D01*
X5608878Y13808247D01*
X5673792Y14046600D01*
X5788942Y13931450D01*
X5872989Y14015497D01*
X5872989Y13895717D01*
X6029341Y13518251D01*
X6318240Y13229352D01*
X6625774Y13101967D01*
X6738292Y13026785D01*
X7008687Y12973000D01*
X7008689Y12973000D01*
X7099989Y12954839D01*
X7191290Y12973000D01*
X8174603Y12973000D01*
X8218251Y12929352D01*
X8595717Y12773000D01*
X9004283Y12773000D01*
X9381749Y12929352D01*
X9670648Y13218251D01*
X9827000Y13595717D01*
X9827000Y14004283D01*
X9670648Y14381749D01*
X9381749Y14670648D01*
X9004283Y14827000D01*
X7625386Y14827000D01*
X7481738Y14970648D01*
X7104272Y15127000D01*
X6695706Y15127000D01*
X6318240Y14970648D01*
X6266149Y14918557D01*
X6243949Y15341444D01*
X6091753Y15708878D01*
X5853398Y15773793D01*
X5079605Y15000000D01*
X5093748Y14985858D01*
X4914143Y14806253D01*
X4900000Y14820395D01*
X4126207Y14046602D01*
X727000Y14046602D01*
X727000Y15518835D01*
X886920Y15216526D01*
X1260053Y14907610D01*
X1723000Y14765000D01*
X2073000Y14765000D01*
X2073000Y15873000D01*
X2327000Y15873000D01*
X2327000Y14765000D01*
X2677000Y14765000D01*
X3139947Y14907610D01*
X3513080Y15216526D01*
X3576158Y15335768D01*
X3527688Y15198854D01*
X3556051Y14658556D01*
X3708247Y14291122D01*
X3946602Y14226207D01*
X4720395Y15000000D01*
X3946602Y15773793D01*
X3723424Y15713012D01*
X3618731Y15873000D01*
X2327000Y15873000D01*
X2073000Y15873000D01*
X2053000Y15873000D01*
X2053000Y15953398D01*
X4126207Y15953398D01*
X4900000Y15179605D01*
X5673793Y15953398D01*
X5608878Y16191753D01*
X5098854Y16372312D01*
X4558556Y16343949D01*
X4191122Y16191753D01*
X4126207Y15953398D01*
X2053000Y15953398D01*
X2053000Y16127000D01*
X2073000Y16127000D01*
X2073000Y17235000D01*
X2327000Y17235000D01*
X2327000Y16127000D01*
X3618731Y16127000D01*
X3743462Y16317609D01*
X3739592Y16355281D01*
X3513080Y16783474D01*
X3139947Y17092390D01*
X2677000Y17235000D01*
X2327000Y17235000D01*
X2073000Y17235000D01*
X1723000Y17235000D01*
X1260053Y17092390D01*
X886920Y16783474D01*
X727000Y16481165D01*
X727000Y18683239D01*
X1561700Y18683239D01*
X1561700Y18236761D01*
X1732560Y17824268D01*
X2048268Y17508560D01*
X2460761Y17337700D01*
X2907239Y17337700D01*
X3319732Y17508560D01*
X3635440Y17824268D01*
X3700000Y17980130D01*
X3764560Y17824268D01*
X4080268Y17508560D01*
X4492761Y17337700D01*
X4939239Y17337700D01*
X5351732Y17508560D01*
X5547125Y17703953D01*
X10093221Y17703953D01*
X10093221Y17255605D01*
X10264797Y16841385D01*
X10581827Y16524355D01*
X10996047Y16352779D01*
X11177668Y16352779D01*
X11673001Y15857445D01*
X11673001Y15566819D01*
X11544576Y15438394D01*
X11373000Y15024174D01*
X11373000Y14575826D01*
X11544576Y14161606D01*
X11555954Y14150228D01*
X11304817Y13921358D01*
X11058514Y13396892D01*
X11179181Y13167000D01*
X12373000Y13167000D01*
X12373000Y13187000D01*
X12627000Y13187000D01*
X12627000Y13167000D01*
X14913000Y13167000D01*
X14913000Y14360155D01*
X14683110Y14481476D01*
X14273076Y14311645D01*
X13844817Y13921358D01*
X13770000Y13762046D01*
X13695183Y13921358D01*
X13444046Y14150228D01*
X13455424Y14161606D01*
X13627000Y14575826D01*
X13627000Y15024174D01*
X13455424Y15438394D01*
X13327000Y15566818D01*
X13327000Y16118556D01*
X13343200Y16200000D01*
X13327000Y16281444D01*
X13327000Y16281448D01*
X13279016Y16522679D01*
X13096233Y16796233D01*
X13027184Y16842370D01*
X12347221Y17522332D01*
X12347221Y17703953D01*
X12175645Y18118173D01*
X11858615Y18435203D01*
X11444395Y18606779D01*
X10996047Y18606779D01*
X10581827Y18435203D01*
X10264797Y18118173D01*
X10093221Y17703953D01*
X5547125Y17703953D01*
X5667440Y17824268D01*
X5838300Y18236761D01*
X5838300Y18683239D01*
X5667440Y19095732D01*
X5351732Y19411440D01*
X4939239Y19582300D01*
X4492761Y19582300D01*
X4080268Y19411440D01*
X3764560Y19095732D01*
X3700000Y18939870D01*
X3635440Y19095732D01*
X3319732Y19411440D01*
X2907239Y19582300D01*
X2460761Y19582300D01*
X2048268Y19411440D01*
X1732560Y19095732D01*
X1561700Y18683239D01*
X727000Y18683239D01*
X727000Y22412422D01*
X760939Y22583047D01*
X817031Y22666994D01*
X977568Y22774261D01*
X1237487Y22906697D01*
X1310535Y22959769D01*
X1386890Y23007968D01*
X1786705Y23358740D01*
X1932114Y23533647D01*
X1932115Y23533649D01*
X2068644Y23763239D01*
X2577700Y23763239D01*
X2577700Y23316761D01*
X2748560Y22904268D01*
X3064268Y22588560D01*
X3476761Y22417700D01*
X3923239Y22417700D01*
X4335732Y22588560D01*
X4651440Y22904268D01*
X4822300Y23316761D01*
X4822300Y23763239D01*
X4651440Y24175732D01*
X4335732Y24491440D01*
X3923239Y24662300D01*
X3476761Y24662300D01*
X3064268Y24491440D01*
X2748560Y24175732D01*
X2577700Y23763239D01*
X2068644Y23763239D01*
X2203966Y23990799D01*
X2203967Y23990800D01*
X2269744Y24155768D01*
X2288209Y24202078D01*
X2288209Y24202079D01*
X2405488Y24720865D01*
X2416173Y24884392D01*
X5173000Y24884392D01*
X5173000Y24515608D01*
X5314127Y24174897D01*
X5574897Y23914127D01*
X5915608Y23773000D01*
X6284392Y23773000D01*
X6382496Y23813636D01*
X6531276Y23664855D01*
X6473000Y23524164D01*
X6473000Y23075816D01*
X6595483Y22780116D01*
X6473000Y22484415D01*
X6473000Y22115631D01*
X6562310Y21900017D01*
X6473000Y21684402D01*
X6473000Y21316163D01*
X6214117Y21057280D01*
X6072990Y20716569D01*
X6072990Y20347785D01*
X6214117Y20007074D01*
X6474887Y19746304D01*
X6815598Y19605177D01*
X7184382Y19605177D01*
X7525093Y19746304D01*
X7785863Y20007074D01*
X7854592Y20173000D01*
X8832070Y20173000D01*
X8914127Y19974897D01*
X9174897Y19714127D01*
X9515608Y19573000D01*
X9884392Y19573000D01*
X10225103Y19714127D01*
X10485873Y19974897D01*
X10627000Y20315608D01*
X10627000Y20684392D01*
X10485873Y21025103D01*
X10461065Y21049911D01*
X10535706Y21230111D01*
X10535706Y21598895D01*
X10394579Y21939606D01*
X10392635Y21941550D01*
X10427023Y22024569D01*
X10427023Y22168730D01*
X10733102Y22168730D01*
X10974523Y22068730D01*
X11422871Y22068730D01*
X11837091Y22240306D01*
X12154121Y22557336D01*
X12325697Y22971556D01*
X12325697Y23419904D01*
X12154121Y23834124D01*
X11837091Y24151154D01*
X11422871Y24322730D01*
X10974523Y24322730D01*
X10808971Y24254156D01*
X10827034Y24297764D01*
X10827034Y24666548D01*
X10685907Y25007259D01*
X10425137Y25268029D01*
X10084426Y25409156D01*
X9715642Y25409156D01*
X9374931Y25268029D01*
X9114161Y25007259D01*
X9039495Y24827000D01*
X7425397Y24827000D01*
X7088960Y25163436D01*
X7048401Y25224137D01*
X6807925Y25384818D01*
X6705855Y25405121D01*
X6625103Y25485873D01*
X6284392Y25627000D01*
X5915608Y25627000D01*
X5574897Y25485873D01*
X5314127Y25225103D01*
X5173000Y24884392D01*
X2416173Y24884392D01*
X2418771Y24924148D01*
X2420319Y24947836D01*
X2371545Y25477472D01*
X2364286Y25506032D01*
X2315511Y25697918D01*
X2105457Y26186561D01*
X2105457Y26186562D01*
X2014441Y26330748D01*
X1984045Y26378901D01*
X1984044Y26378902D01*
X1633272Y26778717D01*
X1597791Y26808214D01*
X1458367Y26924125D01*
X1013521Y27188659D01*
X819480Y27314615D01*
X762278Y27397809D01*
X727000Y27563613D01*
X727000Y34373000D01*
X1104283Y34373000D01*
X1481749Y34529352D01*
X1770648Y34818251D01*
X1927000Y35195717D01*
X1927000Y35604283D01*
X1770648Y35981749D01*
X1628223Y36124174D01*
X4973000Y36124174D01*
X4973000Y35675826D01*
X5073001Y35434403D01*
X5073000Y32465595D01*
X4973000Y32224174D01*
X4973000Y31775826D01*
X5144576Y31361606D01*
X5461606Y31044576D01*
X5875826Y30873000D01*
X6324174Y30873000D01*
X6738394Y31044576D01*
X7055424Y31361606D01*
X7227000Y31775826D01*
X7227000Y32224174D01*
X7127000Y32465595D01*
X7127000Y35434405D01*
X7227000Y35675826D01*
X7227000Y36124174D01*
X7055424Y36538394D01*
X6738394Y36855424D01*
X6324174Y37027000D01*
X5875826Y37027000D01*
X5461606Y36855424D01*
X5144576Y36538394D01*
X4973000Y36124174D01*
X1628223Y36124174D01*
X1577000Y36175397D01*
X1577000Y39994392D01*
X7223000Y39994392D01*
X7223000Y39625608D01*
X7364127Y39284897D01*
X7624897Y39024127D01*
X7965608Y38883000D01*
X8178025Y38883000D01*
X8178025Y38620633D01*
X8319152Y38279922D01*
X8579922Y38019152D01*
X8920633Y37878025D01*
X9289417Y37878025D01*
X9630128Y38019152D01*
X9816758Y38205782D01*
X9929162Y38280888D01*
X9969721Y38341589D01*
X10012524Y38384392D01*
X18873000Y38384392D01*
X18873000Y38015608D01*
X19014127Y37674897D01*
X19274897Y37414127D01*
X19473000Y37332070D01*
X19473000Y37215608D01*
X19614127Y36874897D01*
X19874897Y36614127D01*
X20215608Y36473000D01*
X20584392Y36473000D01*
X20594628Y36477240D01*
X21535305Y35536562D01*
X21575863Y35475863D01*
X21706976Y35388256D01*
X21656800Y35136002D01*
X21673001Y35054554D01*
X21673000Y33926538D01*
X21656800Y33845094D01*
X21664418Y33806795D01*
X21541746Y33684122D01*
X21458486Y33684122D01*
X21117775Y33542995D01*
X20857005Y33282225D01*
X20715878Y32941514D01*
X20715878Y32572730D01*
X20857005Y32232019D01*
X21117775Y31971249D01*
X21458486Y31830122D01*
X21827270Y31830122D01*
X22167981Y31971249D01*
X22428751Y32232019D01*
X22473001Y32338847D01*
X22473000Y31274018D01*
X22445478Y31285418D01*
X22076694Y31285418D01*
X21735983Y31144291D01*
X21663352Y31071660D01*
X21520454Y31043236D01*
X21279978Y30882555D01*
X21239420Y30821856D01*
X20336561Y29918996D01*
X20275863Y29878439D01*
X20235306Y29817741D01*
X20235305Y29817740D01*
X20115181Y29637962D01*
X20110618Y29615021D01*
X20072999Y29425901D01*
X20072999Y29425897D01*
X20058758Y29354302D01*
X20072999Y29282707D01*
X20072999Y28571596D01*
X20058758Y28500001D01*
X20072999Y28428406D01*
X20072999Y28428403D01*
X20115181Y28216341D01*
X20275862Y27975865D01*
X20336561Y27935307D01*
X21173001Y27098866D01*
X21173000Y25465354D01*
X21024174Y25527000D01*
X20575826Y25527000D01*
X20161606Y25355424D01*
X19844576Y25038394D01*
X19673000Y24624174D01*
X19673000Y24175826D01*
X19773000Y23934405D01*
X19773000Y23169137D01*
X19752880Y23067988D01*
X19773000Y22966839D01*
X19832587Y22667274D01*
X20059574Y22327562D01*
X20145330Y22270262D01*
X22270264Y20145327D01*
X22327563Y20059573D01*
X22667274Y19832586D01*
X22966839Y19772999D01*
X22966840Y19772999D01*
X23067989Y19752879D01*
X23169138Y19772999D01*
X24330852Y19772999D01*
X24432001Y19752879D01*
X24533150Y19772999D01*
X24533151Y19772999D01*
X24832716Y19832586D01*
X25172427Y20059573D01*
X25229727Y20145329D01*
X26294335Y21209936D01*
X26380089Y21267235D01*
X26607076Y21606946D01*
X26666663Y21906511D01*
X26666663Y21906512D01*
X26686783Y22007661D01*
X26666663Y22108810D01*
X26666663Y22533584D01*
X26766663Y22775005D01*
X26766663Y23073000D01*
X26984392Y23073000D01*
X27325103Y23214127D01*
X27585873Y23474897D01*
X27727000Y23815608D01*
X27727000Y24184392D01*
X27585873Y24525103D01*
X27325103Y24785873D01*
X26984392Y24927000D01*
X26901133Y24927000D01*
X26512650Y25315482D01*
X26512650Y27637559D01*
X26621373Y27528836D01*
X26962084Y27387709D01*
X27330868Y27387709D01*
X27671579Y27528836D01*
X27932349Y27789606D01*
X28073476Y28130317D01*
X28073476Y28213577D01*
X28124462Y28264563D01*
X28174897Y28214127D01*
X28515608Y28073000D01*
X28884392Y28073000D01*
X29225103Y28214127D01*
X29485873Y28474897D01*
X29627000Y28815608D01*
X29627000Y29184392D01*
X29485873Y29525103D01*
X29225103Y29785873D01*
X28989971Y29883268D01*
X30271876Y29883268D01*
X30271876Y29514484D01*
X30413003Y29173773D01*
X30673773Y28913003D01*
X31014484Y28771876D01*
X31383268Y28771876D01*
X31723979Y28913003D01*
X31984749Y29173773D01*
X32125876Y29514484D01*
X32125876Y29597744D01*
X32512980Y29984848D01*
X32825103Y30114133D01*
X33085873Y30374903D01*
X33227000Y30715614D01*
X33227000Y31084398D01*
X33085873Y31425109D01*
X32825103Y31685879D01*
X32484392Y31827006D01*
X32115608Y31827006D01*
X31774897Y31685879D01*
X31514127Y31425109D01*
X31373000Y31084398D01*
X31373000Y30901133D01*
X31097744Y30625876D01*
X31014484Y30625876D01*
X30673773Y30484749D01*
X30413003Y30223979D01*
X30271876Y29883268D01*
X28989971Y29883268D01*
X28884392Y29927000D01*
X28515608Y29927000D01*
X28174897Y29785873D01*
X28116024Y29727000D01*
X27903360Y29727000D01*
X27831766Y29741241D01*
X27760172Y29727000D01*
X27760168Y29727000D01*
X27548106Y29684818D01*
X27307630Y29524137D01*
X27267071Y29463436D01*
X27045344Y29241709D01*
X26962084Y29241709D01*
X26621373Y29100582D01*
X26512650Y28991859D01*
X26512650Y34018126D01*
X26706734Y34018126D01*
X26706734Y33649342D01*
X26847861Y33308631D01*
X27108631Y33047861D01*
X27449342Y32906734D01*
X27532602Y32906734D01*
X28734377Y31704959D01*
X28774934Y31644260D01*
X29015410Y31483579D01*
X29175084Y31451818D01*
X29244378Y31382524D01*
X29585089Y31241397D01*
X29953873Y31241397D01*
X30294584Y31382524D01*
X30555354Y31643294D01*
X30696481Y31984005D01*
X30696481Y32352789D01*
X30555354Y32693500D01*
X30294584Y32954270D01*
X29953873Y33095397D01*
X29585089Y33095397D01*
X29454355Y33041245D01*
X28560734Y33934866D01*
X28560734Y34018126D01*
X28419607Y34358837D01*
X28158837Y34619607D01*
X27818126Y34760734D01*
X27449342Y34760734D01*
X27108631Y34619607D01*
X26847861Y34358837D01*
X26706734Y34018126D01*
X26512650Y34018126D01*
X26512650Y34343372D01*
X26571523Y34402245D01*
X26712650Y34742956D01*
X26712650Y35111740D01*
X26687275Y35173000D01*
X26733182Y35173000D01*
X26861606Y35044576D01*
X27275826Y34873000D01*
X27724174Y34873000D01*
X28138394Y35044576D01*
X28455424Y35361606D01*
X28627000Y35775826D01*
X28627000Y35973491D01*
X28725103Y36014127D01*
X28985873Y36274897D01*
X29127000Y36615608D01*
X29127000Y36984392D01*
X28985873Y37325103D01*
X28725103Y37585873D01*
X28384392Y37727000D01*
X28015608Y37727000D01*
X27674897Y37585873D01*
X27616024Y37527000D01*
X23401134Y37527000D01*
X22664696Y38263436D01*
X22624137Y38324137D01*
X22383661Y38484818D01*
X22171599Y38527000D01*
X22171595Y38527000D01*
X22100000Y38541241D01*
X22028405Y38527000D01*
X21401132Y38527000D01*
X21264696Y38663436D01*
X21224137Y38724137D01*
X20983661Y38884818D01*
X20771599Y38927000D01*
X20771595Y38927000D01*
X20700000Y38941241D01*
X20628405Y38927000D01*
X20383976Y38927000D01*
X20325103Y38985873D01*
X19984392Y39127000D01*
X19615608Y39127000D01*
X19274897Y38985873D01*
X19014127Y38725103D01*
X18873000Y38384392D01*
X10012524Y38384392D01*
X11301133Y39673000D01*
X11384392Y39673000D01*
X11725103Y39814127D01*
X11985873Y40074897D01*
X12127000Y40415608D01*
X12127000Y40784392D01*
X11985873Y41125103D01*
X11725103Y41385873D01*
X11384392Y41527000D01*
X11015608Y41527000D01*
X10674897Y41385873D01*
X10418891Y41129867D01*
X10184392Y41227000D01*
X9815608Y41227000D01*
X9474897Y41085873D01*
X9214127Y40825103D01*
X9094791Y40537000D01*
X8733976Y40537000D01*
X8675103Y40595873D01*
X8334392Y40737000D01*
X7965608Y40737000D01*
X7624897Y40595873D01*
X7364127Y40335103D01*
X7223000Y39994392D01*
X1577000Y39994392D01*
X1577000Y41706517D01*
X15280413Y41706517D01*
X15280413Y41337733D01*
X15421540Y40997022D01*
X15682310Y40736252D01*
X16023021Y40595125D01*
X16391805Y40595125D01*
X16732516Y40736252D01*
X16844169Y40847905D01*
X18291358Y40847905D01*
X18350231Y40789032D01*
X18690942Y40647905D01*
X19059726Y40647905D01*
X19400437Y40789032D01*
X19661207Y41049802D01*
X19802334Y41390513D01*
X19802334Y41598467D01*
X20006883Y41803016D01*
X20148010Y42143727D01*
X20148010Y42512511D01*
X20075024Y42688715D01*
X20183234Y42949958D01*
X20183234Y42996784D01*
X20225103Y43014127D01*
X20485873Y43274897D01*
X20627000Y43615608D01*
X20627000Y43984392D01*
X20485873Y44325103D01*
X20225103Y44585873D01*
X19884392Y44727000D01*
X19515608Y44727000D01*
X19174897Y44585873D01*
X19116024Y44527000D01*
X17283976Y44527000D01*
X17225103Y44585873D01*
X16884392Y44727000D01*
X16515608Y44727000D01*
X16174897Y44585873D01*
X15914127Y44325103D01*
X15773000Y43984392D01*
X15773000Y43615608D01*
X15914127Y43274897D01*
X16174897Y43014127D01*
X16515608Y42873000D01*
X16670909Y42873000D01*
X16497927Y42700018D01*
X16393682Y42448348D01*
X16391805Y42449125D01*
X16023021Y42449125D01*
X15682310Y42307998D01*
X15421540Y42047228D01*
X15280413Y41706517D01*
X1577000Y41706517D01*
X1577000Y45833586D01*
X1727000Y46195717D01*
X1727000Y46604283D01*
X1570648Y46981749D01*
X1281749Y47270648D01*
X904283Y47427000D01*
X727000Y47427000D01*
X727000Y47684392D01*
X18572994Y47684392D01*
X18572994Y47315608D01*
X18714121Y46974897D01*
X18974891Y46714127D01*
X19315602Y46573000D01*
X19684386Y46573000D01*
X20025097Y46714127D01*
X20285867Y46974897D01*
X20426994Y47315608D01*
X20426994Y47398868D01*
X20787710Y47759583D01*
X20848409Y47800141D01*
X21009090Y48040617D01*
X21051272Y48252679D01*
X21051272Y48252683D01*
X21065513Y48324277D01*
X21051272Y48395871D01*
X21051272Y48707282D01*
X21066830Y48707282D01*
X21873067Y47901045D01*
X21873067Y47815608D01*
X22014194Y47474897D01*
X22274964Y47214127D01*
X22615675Y47073000D01*
X22984459Y47073000D01*
X23325170Y47214127D01*
X23585940Y47474897D01*
X23727067Y47815608D01*
X23727067Y48184392D01*
X23585940Y48525103D01*
X23325170Y48785873D01*
X22984459Y48927000D01*
X22903378Y48927000D01*
X22780898Y49049480D01*
X22967504Y49049480D01*
X23308215Y49190607D01*
X23568985Y49451377D01*
X23710112Y49792088D01*
X23710112Y50160872D01*
X23568985Y50501583D01*
X23308215Y50762353D01*
X22967504Y50903480D01*
X22598720Y50903480D01*
X22306891Y50782601D01*
X21927022Y51162469D01*
X21927022Y51245729D01*
X21785895Y51586440D01*
X21525125Y51847210D01*
X21184414Y51988337D01*
X20815630Y51988337D01*
X20474919Y51847210D01*
X20369348Y51741639D01*
X20325113Y51785873D01*
X19984402Y51927000D01*
X19615618Y51927000D01*
X19274907Y51785873D01*
X19014137Y51525103D01*
X18873010Y51184392D01*
X18873010Y51070190D01*
X18815193Y50983661D01*
X18773011Y50771599D01*
X18773011Y50771596D01*
X18758770Y50700001D01*
X18773011Y50628406D01*
X18773012Y49691516D01*
X18697272Y49508664D01*
X18697272Y49139880D01*
X18838399Y48799169D01*
X19099169Y48538399D01*
X19368110Y48427000D01*
X19315602Y48427000D01*
X18974891Y48285873D01*
X18714121Y48025103D01*
X18572994Y47684392D01*
X727000Y47684392D01*
X727000Y54076289D01*
X4611000Y54076289D01*
X4611000Y53523711D01*
X4822463Y53013195D01*
X5213195Y52622463D01*
X5723711Y52411000D01*
X6276289Y52411000D01*
X6786805Y52622463D01*
X7000000Y52835658D01*
X7213195Y52622463D01*
X7723711Y52411000D01*
X8276289Y52411000D01*
X8786805Y52622463D01*
X9000000Y52835658D01*
X9213195Y52622463D01*
X9723711Y52411000D01*
X10276289Y52411000D01*
X10786805Y52622463D01*
X10984129Y52819787D01*
X11199392Y52819787D01*
X11268857Y52577603D01*
X11792302Y52390856D01*
X12347368Y52418638D01*
X12731143Y52577603D01*
X12800608Y52819787D01*
X12000000Y53620395D01*
X11199392Y52819787D01*
X10984129Y52819787D01*
X11177537Y53013195D01*
X11279323Y53258928D01*
X11820395Y53800000D01*
X12179605Y53800000D01*
X12980213Y52999392D01*
X13222397Y53068857D01*
X13393217Y53547660D01*
X16227265Y53547660D01*
X16545501Y53093797D01*
X17806434Y52567064D01*
X19172956Y52562965D01*
X20437027Y53082122D01*
X20454499Y53093797D01*
X20772735Y53547660D01*
X18500000Y55820395D01*
X16227265Y53547660D01*
X13393217Y53547660D01*
X13409144Y53592302D01*
X13381362Y54147368D01*
X13222397Y54531143D01*
X12980213Y54600608D01*
X12179605Y53800000D01*
X11820395Y53800000D01*
X11279323Y54341072D01*
X11177537Y54586805D01*
X10984129Y54780213D01*
X11199392Y54780213D01*
X12000000Y53979605D01*
X12800608Y54780213D01*
X12731143Y55022397D01*
X12207698Y55209144D01*
X11652632Y55181362D01*
X11268857Y55022397D01*
X11199392Y54780213D01*
X10984129Y54780213D01*
X10786805Y54977537D01*
X10276289Y55189000D01*
X9723711Y55189000D01*
X9213195Y54977537D01*
X9000000Y54764342D01*
X8786805Y54977537D01*
X8276289Y55189000D01*
X7723711Y55189000D01*
X7213195Y54977537D01*
X7000000Y54764342D01*
X6786805Y54977537D01*
X6276289Y55189000D01*
X5723711Y55189000D01*
X5213195Y54977537D01*
X4822463Y54586805D01*
X4611000Y54076289D01*
X727000Y54076289D01*
X727000Y55327044D01*
X15062965Y55327044D01*
X15582122Y54062973D01*
X15593797Y54045501D01*
X16047660Y53727265D01*
X18320395Y56000000D01*
X18679605Y56000000D01*
X20952340Y53727265D01*
X21406203Y54045501D01*
X21449855Y54150000D01*
X26710716Y54150000D01*
X26710716Y53650000D01*
X26713124Y53637894D01*
X26713124Y53600991D01*
X26725408Y53476273D01*
X26744530Y53380140D01*
X26780907Y53260218D01*
X26818416Y53169662D01*
X26877494Y53059134D01*
X26931950Y52977635D01*
X27011453Y52880761D01*
X27080761Y52811453D01*
X27123001Y52776788D01*
X27123000Y51671597D01*
X27108759Y51600000D01*
X27123000Y51528405D01*
X27123000Y51528402D01*
X27123003Y51528388D01*
X27123003Y51183975D01*
X27064129Y51125101D01*
X26923002Y50784390D01*
X26923002Y50415606D01*
X27064129Y50074895D01*
X27324899Y49814125D01*
X27665610Y49672998D01*
X28034394Y49672998D01*
X28375105Y49814125D01*
X28507017Y49946037D01*
X28611463Y49841590D01*
X28952174Y49700463D01*
X29320958Y49700463D01*
X29661669Y49841590D01*
X29922439Y50102360D01*
X30063566Y50443071D01*
X30063566Y50811855D01*
X29922439Y51152566D01*
X29863566Y51211439D01*
X29863566Y51460864D01*
X29877000Y51528401D01*
X29877000Y51528405D01*
X29891241Y51600000D01*
X29877000Y51671597D01*
X29877000Y52776788D01*
X29919239Y52811453D01*
X29988547Y52880761D01*
X30068050Y52977635D01*
X30122506Y53059134D01*
X30181584Y53169662D01*
X30219093Y53260218D01*
X30255470Y53380140D01*
X30274592Y53476273D01*
X30286876Y53600991D01*
X30286876Y53637894D01*
X30289284Y53650000D01*
X30289284Y54150000D01*
X30286876Y54162106D01*
X30286876Y54199009D01*
X30274592Y54323727D01*
X30255470Y54419860D01*
X30219093Y54539782D01*
X30181584Y54630338D01*
X30122506Y54740866D01*
X30068050Y54822365D01*
X29988547Y54919239D01*
X29919239Y54988547D01*
X29822365Y55068050D01*
X29740866Y55122506D01*
X29630338Y55181584D01*
X29539782Y55219093D01*
X29419860Y55255470D01*
X29323727Y55274592D01*
X29199009Y55286876D01*
X29162106Y55286876D01*
X29150000Y55289284D01*
X28650000Y55289284D01*
X28500000Y55259447D01*
X28350000Y55289284D01*
X27850000Y55289284D01*
X27837894Y55286876D01*
X27800991Y55286876D01*
X27676273Y55274592D01*
X27580140Y55255470D01*
X27460218Y55219093D01*
X27369662Y55181584D01*
X27259134Y55122506D01*
X27177635Y55068050D01*
X27080761Y54988547D01*
X27011453Y54919239D01*
X26931950Y54822365D01*
X26877494Y54740866D01*
X26818416Y54630338D01*
X26780907Y54539782D01*
X26744530Y54419860D01*
X26725408Y54323727D01*
X26713124Y54199009D01*
X26713124Y54162106D01*
X26710716Y54150000D01*
X21449855Y54150000D01*
X21932936Y55306434D01*
X21937035Y56672956D01*
X21417878Y57937027D01*
X21406203Y57954499D01*
X20952340Y58272735D01*
X18679605Y56000000D01*
X18320395Y56000000D01*
X16047660Y58272735D01*
X15593797Y57954499D01*
X15067064Y56693566D01*
X15062965Y55327044D01*
X727000Y55327044D01*
X727000Y58431924D01*
X778138Y58739160D01*
X897114Y58959662D01*
X1081096Y59129733D01*
X1323626Y59236954D01*
X1545735Y59265013D01*
X17408196Y59265013D01*
X16562973Y58917878D01*
G04 #@! TD*
M02*
