G04 #@! TF.GenerationSoftware,KiCad,Pcbnew,(5.1.5-0-10_14)*
G04 #@! TF.CreationDate,2020-01-03T19:11:33+02:00*
G04 #@! TF.ProjectId,oibus-mini-CCC,6f696275-732d-46d6-996e-692d4343432e,rev?*
G04 #@! TF.SameCoordinates,Original*
G04 #@! TF.FileFunction,Profile,NP*
%FSLAX46Y46*%
G04 Gerber Fmt 4.6, Leading zero omitted, Abs format (unit mm)*
G04 Created by KiCad (PCBNEW (5.1.5-0-10_14)) date 2020-01-03 19:11:33*
%MOMM*%
%LPD*%
G04 APERTURE LIST*
%ADD10C,0.150000*%
%ADD11C,0.200000*%
G04 APERTURE END LIST*
D10*
X2300000Y18000000D02*
G75*
G02X2300000Y18800000I0J400000D01*
G01*
X3100000Y22800000D02*
G75*
G02X3100000Y23600000I0J400000D01*
G01*
X4200000Y23600000D02*
G75*
G02X4200000Y18000000I0J-2800000D01*
G01*
X4200000Y22800000D02*
G75*
G02X4200000Y18800000I0J-2000000D01*
G01*
X2300000Y18000000D02*
X4200000Y18000000D01*
X4200000Y18800000D02*
X2300000Y18800000D01*
X3100000Y22800000D02*
X4200000Y22800000D01*
X4200000Y23600000D02*
X3100000Y23600000D01*
D11*
X1500000Y59992013D02*
X35500000Y59992013D01*
X0Y1492013D02*
X0Y22484025D01*
X37000000Y58492013D02*
X37000000Y27500000D01*
X35500000Y59992013D02*
G75*
G02X37000000Y58492013I0J-1500000D01*
G01*
X0Y58492013D02*
G75*
G02X1500000Y59992013I1500000J0D01*
G01*
X37000000Y22500000D02*
X37000000Y1492013D01*
X36370370Y23412909D02*
G75*
G02X37000000Y22484025I-370370J-928884D01*
G01*
X37000000Y1492013D02*
G75*
G02X35500000Y-7987I-1500000J0D01*
G01*
X629630Y26571116D02*
G75*
G02X0Y27500000I370370J928884D01*
G01*
X629629Y26571115D02*
G75*
G02X629630Y23412909I-629629J-1579103D01*
G01*
X35500000Y-7987D02*
X1500000Y-7987D01*
X0Y27500000D02*
X0Y58492013D01*
X0Y22484025D02*
G75*
G02X629630Y23412909I1000000J0D01*
G01*
X1500000Y-7987D02*
G75*
G02X0Y1492013I0J1500000D01*
G01*
X36370370Y23412908D02*
G75*
G02X36370370Y26571116I629630J1579104D01*
G01*
X37000000Y27500000D02*
G75*
G02X36370370Y26571116I-1000000J0D01*
G01*
M02*
