G04 #@! TF.GenerationSoftware,KiCad,Pcbnew,(5.1.5-0-10_14)*
G04 #@! TF.CreationDate,2020-01-03T19:11:33+02:00*
G04 #@! TF.ProjectId,oibus-mini-CCC,6f696275-732d-46d6-996e-692d4343432e,rev?*
G04 #@! TF.SameCoordinates,Original*
G04 #@! TF.FileFunction,Soldermask,Bot*
G04 #@! TF.FilePolarity,Negative*
%FSLAX46Y46*%
G04 Gerber Fmt 4.6, Leading zero omitted, Abs format (unit mm)*
G04 Created by KiCad (PCBNEW (5.1.5-0-10_14)) date 2020-01-03 19:11:33*
%MOMM*%
%LPD*%
G04 APERTURE LIST*
%ADD10C,0.149860*%
G04 APERTURE END LIST*
D10*
G36*
X6327617Y6916580D02*
G01*
X6408399Y6892075D01*
X6450335Y6879354D01*
X6563424Y6818906D01*
X6662554Y6737553D01*
X6743906Y6638425D01*
X6804354Y6525336D01*
X6814040Y6493404D01*
X6841580Y6402618D01*
X6851000Y6306973D01*
X6851000Y5693027D01*
X6841580Y5597382D01*
X6814040Y5506596D01*
X6804354Y5474664D01*
X6743906Y5361575D01*
X6662554Y5262446D01*
X6563425Y5181094D01*
X6450336Y5120646D01*
X6418404Y5110960D01*
X6327618Y5083420D01*
X6200000Y5070851D01*
X6072383Y5083420D01*
X5981597Y5110960D01*
X5949665Y5120646D01*
X5836576Y5181094D01*
X5737447Y5262446D01*
X5656096Y5361573D01*
X5656095Y5361575D01*
X5595647Y5474664D01*
X5595645Y5474667D01*
X5583237Y5515573D01*
X5558420Y5597382D01*
X5549000Y5693027D01*
X5549000Y6306972D01*
X5558420Y6402617D01*
X5595645Y6525331D01*
X5595646Y6525335D01*
X5656094Y6638424D01*
X5737447Y6737554D01*
X5836575Y6818906D01*
X5949664Y6879354D01*
X5991600Y6892075D01*
X6072382Y6916580D01*
X6200000Y6929149D01*
X6327617Y6916580D01*
G37*
G36*
X4691242Y6921596D02*
G01*
X4728337Y6910343D01*
X4762515Y6892075D01*
X4792481Y6867481D01*
X4817075Y6837515D01*
X4835343Y6803337D01*
X4846596Y6766242D01*
X4851000Y6721526D01*
X4851000Y5278474D01*
X4846596Y5233758D01*
X4835343Y5196663D01*
X4817075Y5162485D01*
X4792481Y5132519D01*
X4762515Y5107925D01*
X4728337Y5089657D01*
X4691242Y5078404D01*
X4646526Y5074000D01*
X3753474Y5074000D01*
X3708758Y5078404D01*
X3671663Y5089657D01*
X3637485Y5107925D01*
X3607519Y5132519D01*
X3582925Y5162485D01*
X3564657Y5196663D01*
X3553404Y5233758D01*
X3549000Y5278474D01*
X3549000Y6721526D01*
X3553404Y6766242D01*
X3564657Y6803337D01*
X3582925Y6837515D01*
X3607519Y6867481D01*
X3637485Y6892075D01*
X3671663Y6910343D01*
X3708758Y6921596D01*
X3753474Y6926000D01*
X4646526Y6926000D01*
X4691242Y6921596D01*
G37*
G36*
X2613855Y9647860D02*
G01*
X2677618Y9641580D01*
X2768404Y9614040D01*
X2800336Y9604354D01*
X2913425Y9543906D01*
X3012554Y9462554D01*
X3093906Y9363425D01*
X3154354Y9250336D01*
X3154355Y9250332D01*
X3191580Y9127618D01*
X3204149Y9000000D01*
X3191580Y8872382D01*
X3164040Y8781596D01*
X3154354Y8749664D01*
X3093906Y8636575D01*
X3012554Y8537446D01*
X2913425Y8456094D01*
X2800336Y8395646D01*
X2768404Y8385960D01*
X2677618Y8358420D01*
X2613855Y8352140D01*
X2581974Y8349000D01*
X1818026Y8349000D01*
X1786145Y8352140D01*
X1722382Y8358420D01*
X1631596Y8385960D01*
X1599664Y8395646D01*
X1486575Y8456094D01*
X1387446Y8537446D01*
X1306094Y8636575D01*
X1245646Y8749664D01*
X1235960Y8781596D01*
X1208420Y8872382D01*
X1195851Y9000000D01*
X1208420Y9127618D01*
X1245645Y9250332D01*
X1245646Y9250336D01*
X1306094Y9363425D01*
X1387446Y9462554D01*
X1486575Y9543906D01*
X1599664Y9604354D01*
X1631596Y9614040D01*
X1722382Y9641580D01*
X1786145Y9647860D01*
X1818026Y9651000D01*
X2581974Y9651000D01*
X2613855Y9647860D01*
G37*
G36*
X5126348Y10746180D02*
G01*
X5126350Y10746179D01*
X5126351Y10746179D01*
X5267574Y10687683D01*
X5267577Y10687681D01*
X5394669Y10602761D01*
X5502761Y10494669D01*
X5558494Y10411258D01*
X5587683Y10367574D01*
X5646179Y10226351D01*
X5646180Y10226348D01*
X5671875Y10097169D01*
X5676000Y10076429D01*
X5676000Y9923571D01*
X5646179Y9773649D01*
X5587683Y9632426D01*
X5587681Y9632423D01*
X5502761Y9505331D01*
X5394669Y9397239D01*
X5267577Y9312319D01*
X5267574Y9312317D01*
X5126351Y9253821D01*
X5126350Y9253821D01*
X5126348Y9253820D01*
X4976431Y9224000D01*
X4823569Y9224000D01*
X4673652Y9253820D01*
X4673650Y9253821D01*
X4673649Y9253821D01*
X4532426Y9312317D01*
X4532423Y9312319D01*
X4405331Y9397239D01*
X4297239Y9505331D01*
X4212319Y9632423D01*
X4212317Y9632426D01*
X4153821Y9773649D01*
X4124000Y9923571D01*
X4124000Y10076429D01*
X4128125Y10097169D01*
X4153820Y10226348D01*
X4153821Y10226351D01*
X4212317Y10367574D01*
X4241506Y10411258D01*
X4297239Y10494669D01*
X4405331Y10602761D01*
X4532423Y10687681D01*
X4532426Y10687683D01*
X4673649Y10746179D01*
X4673650Y10746179D01*
X4673652Y10746180D01*
X4823569Y10776000D01*
X4976431Y10776000D01*
X5126348Y10746180D01*
G37*
G36*
X15153512Y11396073D02*
G01*
X15302812Y11366376D01*
X15466784Y11298456D01*
X15614354Y11199853D01*
X15739853Y11074354D01*
X15838456Y10926784D01*
X15906376Y10762812D01*
X15941000Y10588741D01*
X15941000Y10411259D01*
X15906376Y10237188D01*
X15838456Y10073216D01*
X15739853Y9925646D01*
X15614354Y9800147D01*
X15466784Y9701544D01*
X15302812Y9633624D01*
X15155663Y9604355D01*
X15128742Y9599000D01*
X14951258Y9599000D01*
X14924337Y9604355D01*
X14777188Y9633624D01*
X14613216Y9701544D01*
X14465646Y9800147D01*
X14340147Y9925646D01*
X14241544Y10073216D01*
X14173624Y10237188D01*
X14139000Y10411259D01*
X14139000Y10588741D01*
X14173624Y10762812D01*
X14241544Y10926784D01*
X14340147Y11074354D01*
X14465646Y11199853D01*
X14613216Y11298456D01*
X14777188Y11366376D01*
X14926488Y11396073D01*
X14951258Y11401000D01*
X15128742Y11401000D01*
X15153512Y11396073D01*
G37*
G36*
X13401000Y9599000D02*
G01*
X11599000Y9599000D01*
X11599000Y11401000D01*
X13401000Y11401000D01*
X13401000Y9599000D01*
G37*
G36*
X20233512Y11396073D02*
G01*
X20382812Y11366376D01*
X20546784Y11298456D01*
X20694354Y11199853D01*
X20819853Y11074354D01*
X20918456Y10926784D01*
X20986376Y10762812D01*
X21021000Y10588741D01*
X21021000Y10411259D01*
X20986376Y10237188D01*
X20918456Y10073216D01*
X20819853Y9925646D01*
X20694354Y9800147D01*
X20546784Y9701544D01*
X20382812Y9633624D01*
X20235663Y9604355D01*
X20208742Y9599000D01*
X20031258Y9599000D01*
X20004337Y9604355D01*
X19857188Y9633624D01*
X19693216Y9701544D01*
X19545646Y9800147D01*
X19420147Y9925646D01*
X19321544Y10073216D01*
X19253624Y10237188D01*
X19219000Y10411259D01*
X19219000Y10588741D01*
X19253624Y10762812D01*
X19321544Y10926784D01*
X19420147Y11074354D01*
X19545646Y11199853D01*
X19693216Y11298456D01*
X19857188Y11366376D01*
X20006488Y11396073D01*
X20031258Y11401000D01*
X20208742Y11401000D01*
X20233512Y11396073D01*
G37*
G36*
X22773512Y11396073D02*
G01*
X22922812Y11366376D01*
X23086784Y11298456D01*
X23234354Y11199853D01*
X23359853Y11074354D01*
X23458456Y10926784D01*
X23526376Y10762812D01*
X23561000Y10588741D01*
X23561000Y10411259D01*
X23526376Y10237188D01*
X23458456Y10073216D01*
X23359853Y9925646D01*
X23234354Y9800147D01*
X23086784Y9701544D01*
X22922812Y9633624D01*
X22775663Y9604355D01*
X22748742Y9599000D01*
X22571258Y9599000D01*
X22544337Y9604355D01*
X22397188Y9633624D01*
X22233216Y9701544D01*
X22085646Y9800147D01*
X21960147Y9925646D01*
X21861544Y10073216D01*
X21793624Y10237188D01*
X21759000Y10411259D01*
X21759000Y10588741D01*
X21793624Y10762812D01*
X21861544Y10926784D01*
X21960147Y11074354D01*
X22085646Y11199853D01*
X22233216Y11298456D01*
X22397188Y11366376D01*
X22546488Y11396073D01*
X22571258Y11401000D01*
X22748742Y11401000D01*
X22773512Y11396073D01*
G37*
G36*
X25313512Y11396073D02*
G01*
X25462812Y11366376D01*
X25626784Y11298456D01*
X25774354Y11199853D01*
X25899853Y11074354D01*
X25998456Y10926784D01*
X26066376Y10762812D01*
X26101000Y10588741D01*
X26101000Y10411259D01*
X26066376Y10237188D01*
X25998456Y10073216D01*
X25899853Y9925646D01*
X25774354Y9800147D01*
X25626784Y9701544D01*
X25462812Y9633624D01*
X25315663Y9604355D01*
X25288742Y9599000D01*
X25111258Y9599000D01*
X25084337Y9604355D01*
X24937188Y9633624D01*
X24773216Y9701544D01*
X24625646Y9800147D01*
X24500147Y9925646D01*
X24401544Y10073216D01*
X24333624Y10237188D01*
X24299000Y10411259D01*
X24299000Y10588741D01*
X24333624Y10762812D01*
X24401544Y10926784D01*
X24500147Y11074354D01*
X24625646Y11199853D01*
X24773216Y11298456D01*
X24937188Y11366376D01*
X25086488Y11396073D01*
X25111258Y11401000D01*
X25288742Y11401000D01*
X25313512Y11396073D01*
G37*
G36*
X17693512Y11396073D02*
G01*
X17842812Y11366376D01*
X18006784Y11298456D01*
X18154354Y11199853D01*
X18279853Y11074354D01*
X18378456Y10926784D01*
X18446376Y10762812D01*
X18481000Y10588741D01*
X18481000Y10411259D01*
X18446376Y10237188D01*
X18378456Y10073216D01*
X18279853Y9925646D01*
X18154354Y9800147D01*
X18006784Y9701544D01*
X17842812Y9633624D01*
X17695663Y9604355D01*
X17668742Y9599000D01*
X17491258Y9599000D01*
X17464337Y9604355D01*
X17317188Y9633624D01*
X17153216Y9701544D01*
X17005646Y9800147D01*
X16880147Y9925646D01*
X16781544Y10073216D01*
X16713624Y10237188D01*
X16679000Y10411259D01*
X16679000Y10588741D01*
X16713624Y10762812D01*
X16781544Y10926784D01*
X16880147Y11074354D01*
X17005646Y11199853D01*
X17153216Y11298456D01*
X17317188Y11366376D01*
X17466488Y11396073D01*
X17491258Y11401000D01*
X17668742Y11401000D01*
X17693512Y11396073D01*
G37*
G36*
X32569683Y10947275D02*
G01*
X32600143Y10938034D01*
X32628223Y10923026D01*
X32652831Y10902831D01*
X32673026Y10878223D01*
X32688034Y10850143D01*
X32697275Y10819683D01*
X32701000Y10781860D01*
X32701000Y10218140D01*
X32697275Y10180317D01*
X32688034Y10149857D01*
X32673026Y10121777D01*
X32652831Y10097169D01*
X32628223Y10076974D01*
X32600143Y10061966D01*
X32569683Y10052725D01*
X32531860Y10049000D01*
X31468140Y10049000D01*
X31430317Y10052725D01*
X31399857Y10061966D01*
X31371777Y10076974D01*
X31347169Y10097169D01*
X31326974Y10121777D01*
X31311966Y10149857D01*
X31302725Y10180317D01*
X31299000Y10218140D01*
X31299000Y10781860D01*
X31302725Y10819683D01*
X31311966Y10850143D01*
X31326974Y10878223D01*
X31347169Y10902831D01*
X31371777Y10923026D01*
X31399857Y10938034D01*
X31430317Y10947275D01*
X31468140Y10951000D01*
X32531860Y10951000D01*
X32569683Y10947275D01*
G37*
G36*
X32338410Y12194475D02*
G01*
X32423426Y12168686D01*
X32501775Y12126807D01*
X32570449Y12070449D01*
X32626807Y12001775D01*
X32668686Y11923426D01*
X32694475Y11838410D01*
X32703182Y11750000D01*
X32694475Y11661590D01*
X32668686Y11576574D01*
X32626807Y11498225D01*
X32570449Y11429551D01*
X32501775Y11373193D01*
X32423426Y11331314D01*
X32338410Y11305525D01*
X32272158Y11299000D01*
X31727842Y11299000D01*
X31661590Y11305525D01*
X31576574Y11331314D01*
X31498225Y11373193D01*
X31429551Y11429551D01*
X31373193Y11498225D01*
X31331314Y11576574D01*
X31305525Y11661590D01*
X31296818Y11750000D01*
X31305525Y11838410D01*
X31331314Y11923426D01*
X31373193Y12001775D01*
X31429551Y12070449D01*
X31498225Y12126807D01*
X31576574Y12168686D01*
X31661590Y12194475D01*
X31727842Y12201000D01*
X32272158Y12201000D01*
X32338410Y12194475D01*
G37*
G36*
X17693512Y13936073D02*
G01*
X17842812Y13906376D01*
X18006784Y13838456D01*
X18154354Y13739853D01*
X18279853Y13614354D01*
X18378456Y13466784D01*
X18446376Y13302812D01*
X18481000Y13128741D01*
X18481000Y12951259D01*
X18446376Y12777188D01*
X18378456Y12613216D01*
X18279853Y12465646D01*
X18154354Y12340147D01*
X18006784Y12241544D01*
X17842812Y12173624D01*
X17693512Y12143927D01*
X17668742Y12139000D01*
X17491258Y12139000D01*
X17466488Y12143927D01*
X17317188Y12173624D01*
X17153216Y12241544D01*
X17005646Y12340147D01*
X16880147Y12465646D01*
X16781544Y12613216D01*
X16713624Y12777188D01*
X16679000Y12951259D01*
X16679000Y13128741D01*
X16713624Y13302812D01*
X16781544Y13466784D01*
X16880147Y13614354D01*
X17005646Y13739853D01*
X17153216Y13838456D01*
X17317188Y13906376D01*
X17466488Y13936073D01*
X17491258Y13941000D01*
X17668742Y13941000D01*
X17693512Y13936073D01*
G37*
G36*
X20233512Y13936073D02*
G01*
X20382812Y13906376D01*
X20546784Y13838456D01*
X20694354Y13739853D01*
X20819853Y13614354D01*
X20918456Y13466784D01*
X20986376Y13302812D01*
X21021000Y13128741D01*
X21021000Y12951259D01*
X20986376Y12777188D01*
X20918456Y12613216D01*
X20819853Y12465646D01*
X20694354Y12340147D01*
X20546784Y12241544D01*
X20382812Y12173624D01*
X20233512Y12143927D01*
X20208742Y12139000D01*
X20031258Y12139000D01*
X20006488Y12143927D01*
X19857188Y12173624D01*
X19693216Y12241544D01*
X19545646Y12340147D01*
X19420147Y12465646D01*
X19321544Y12613216D01*
X19253624Y12777188D01*
X19219000Y12951259D01*
X19219000Y13128741D01*
X19253624Y13302812D01*
X19321544Y13466784D01*
X19420147Y13614354D01*
X19545646Y13739853D01*
X19693216Y13838456D01*
X19857188Y13906376D01*
X20006488Y13936073D01*
X20031258Y13941000D01*
X20208742Y13941000D01*
X20233512Y13936073D01*
G37*
G36*
X22773512Y13936073D02*
G01*
X22922812Y13906376D01*
X23086784Y13838456D01*
X23234354Y13739853D01*
X23359853Y13614354D01*
X23458456Y13466784D01*
X23526376Y13302812D01*
X23561000Y13128741D01*
X23561000Y12951259D01*
X23526376Y12777188D01*
X23458456Y12613216D01*
X23359853Y12465646D01*
X23234354Y12340147D01*
X23086784Y12241544D01*
X22922812Y12173624D01*
X22773512Y12143927D01*
X22748742Y12139000D01*
X22571258Y12139000D01*
X22546488Y12143927D01*
X22397188Y12173624D01*
X22233216Y12241544D01*
X22085646Y12340147D01*
X21960147Y12465646D01*
X21861544Y12613216D01*
X21793624Y12777188D01*
X21759000Y12951259D01*
X21759000Y13128741D01*
X21793624Y13302812D01*
X21861544Y13466784D01*
X21960147Y13614354D01*
X22085646Y13739853D01*
X22233216Y13838456D01*
X22397188Y13906376D01*
X22546488Y13936073D01*
X22571258Y13941000D01*
X22748742Y13941000D01*
X22773512Y13936073D01*
G37*
G36*
X12613512Y13936073D02*
G01*
X12762812Y13906376D01*
X12926784Y13838456D01*
X13074354Y13739853D01*
X13199853Y13614354D01*
X13298456Y13466784D01*
X13366376Y13302812D01*
X13401000Y13128741D01*
X13401000Y12951259D01*
X13366376Y12777188D01*
X13298456Y12613216D01*
X13199853Y12465646D01*
X13074354Y12340147D01*
X12926784Y12241544D01*
X12762812Y12173624D01*
X12613512Y12143927D01*
X12588742Y12139000D01*
X12411258Y12139000D01*
X12386488Y12143927D01*
X12237188Y12173624D01*
X12073216Y12241544D01*
X11925646Y12340147D01*
X11800147Y12465646D01*
X11701544Y12613216D01*
X11633624Y12777188D01*
X11599000Y12951259D01*
X11599000Y13128741D01*
X11633624Y13302812D01*
X11701544Y13466784D01*
X11800147Y13614354D01*
X11925646Y13739853D01*
X12073216Y13838456D01*
X12237188Y13906376D01*
X12386488Y13936073D01*
X12411258Y13941000D01*
X12588742Y13941000D01*
X12613512Y13936073D01*
G37*
G36*
X15153512Y13936073D02*
G01*
X15302812Y13906376D01*
X15466784Y13838456D01*
X15614354Y13739853D01*
X15739853Y13614354D01*
X15838456Y13466784D01*
X15906376Y13302812D01*
X15941000Y13128741D01*
X15941000Y12951259D01*
X15906376Y12777188D01*
X15838456Y12613216D01*
X15739853Y12465646D01*
X15614354Y12340147D01*
X15466784Y12241544D01*
X15302812Y12173624D01*
X15153512Y12143927D01*
X15128742Y12139000D01*
X14951258Y12139000D01*
X14926488Y12143927D01*
X14777188Y12173624D01*
X14613216Y12241544D01*
X14465646Y12340147D01*
X14340147Y12465646D01*
X14241544Y12613216D01*
X14173624Y12777188D01*
X14139000Y12951259D01*
X14139000Y13128741D01*
X14173624Y13302812D01*
X14241544Y13466784D01*
X14340147Y13614354D01*
X14465646Y13739853D01*
X14613216Y13838456D01*
X14777188Y13906376D01*
X14926488Y13936073D01*
X14951258Y13941000D01*
X15128742Y13941000D01*
X15153512Y13936073D01*
G37*
G36*
X25313512Y13936073D02*
G01*
X25462812Y13906376D01*
X25626784Y13838456D01*
X25774354Y13739853D01*
X25899853Y13614354D01*
X25998456Y13466784D01*
X26066376Y13302812D01*
X26101000Y13128741D01*
X26101000Y12951259D01*
X26066376Y12777188D01*
X25998456Y12613216D01*
X25899853Y12465646D01*
X25774354Y12340147D01*
X25626784Y12241544D01*
X25462812Y12173624D01*
X25313512Y12143927D01*
X25288742Y12139000D01*
X25111258Y12139000D01*
X25086488Y12143927D01*
X24937188Y12173624D01*
X24773216Y12241544D01*
X24625646Y12340147D01*
X24500147Y12465646D01*
X24401544Y12613216D01*
X24333624Y12777188D01*
X24299000Y12951259D01*
X24299000Y13128741D01*
X24333624Y13302812D01*
X24401544Y13466784D01*
X24500147Y13614354D01*
X24625646Y13739853D01*
X24773216Y13838456D01*
X24937188Y13906376D01*
X25086488Y13936073D01*
X25111258Y13941000D01*
X25288742Y13941000D01*
X25313512Y13936073D01*
G37*
G36*
X32338410Y13444475D02*
G01*
X32423426Y13418686D01*
X32501775Y13376807D01*
X32570449Y13320449D01*
X32626807Y13251775D01*
X32668686Y13173426D01*
X32694475Y13088410D01*
X32703182Y13000000D01*
X32694475Y12911590D01*
X32668686Y12826574D01*
X32626807Y12748225D01*
X32570449Y12679551D01*
X32501775Y12623193D01*
X32423426Y12581314D01*
X32338410Y12555525D01*
X32272158Y12549000D01*
X31727842Y12549000D01*
X31661590Y12555525D01*
X31576574Y12581314D01*
X31498225Y12623193D01*
X31429551Y12679551D01*
X31373193Y12748225D01*
X31331314Y12826574D01*
X31305525Y12911590D01*
X31296818Y13000000D01*
X31305525Y13088410D01*
X31331314Y13173426D01*
X31373193Y13251775D01*
X31429551Y13320449D01*
X31498225Y13376807D01*
X31576574Y13418686D01*
X31661590Y13444475D01*
X31727842Y13451000D01*
X32272158Y13451000D01*
X32338410Y13444475D01*
G37*
G36*
X32338410Y14694475D02*
G01*
X32423426Y14668686D01*
X32501775Y14626807D01*
X32570449Y14570449D01*
X32626807Y14501775D01*
X32668686Y14423426D01*
X32694475Y14338410D01*
X32703182Y14250000D01*
X32694475Y14161590D01*
X32668686Y14076574D01*
X32626807Y13998225D01*
X32570449Y13929551D01*
X32501775Y13873193D01*
X32423426Y13831314D01*
X32338410Y13805525D01*
X32272158Y13799000D01*
X31727842Y13799000D01*
X31661590Y13805525D01*
X31576574Y13831314D01*
X31498225Y13873193D01*
X31429551Y13929551D01*
X31373193Y13998225D01*
X31331314Y14076574D01*
X31305525Y14161590D01*
X31296818Y14250000D01*
X31305525Y14338410D01*
X31331314Y14423426D01*
X31373193Y14501775D01*
X31429551Y14570449D01*
X31498225Y14626807D01*
X31576574Y14668686D01*
X31661590Y14694475D01*
X31727842Y14701000D01*
X32272158Y14701000D01*
X32338410Y14694475D01*
G37*
G36*
X5126348Y15746180D02*
G01*
X5126350Y15746179D01*
X5126351Y15746179D01*
X5267574Y15687683D01*
X5267577Y15687681D01*
X5394669Y15602761D01*
X5502761Y15494669D01*
X5587681Y15367577D01*
X5587683Y15367574D01*
X5646179Y15226351D01*
X5646180Y15226348D01*
X5676000Y15076431D01*
X5676000Y14923571D01*
X5646179Y14773649D01*
X5587683Y14632426D01*
X5587681Y14632423D01*
X5502761Y14505331D01*
X5394669Y14397239D01*
X5306625Y14338410D01*
X5267574Y14312317D01*
X5126351Y14253821D01*
X5126350Y14253821D01*
X5126348Y14253820D01*
X4976431Y14224000D01*
X4823569Y14224000D01*
X4673652Y14253820D01*
X4673650Y14253821D01*
X4673649Y14253821D01*
X4532426Y14312317D01*
X4493375Y14338410D01*
X4405331Y14397239D01*
X4297239Y14505331D01*
X4212319Y14632423D01*
X4212317Y14632426D01*
X4153821Y14773649D01*
X4124000Y14923571D01*
X4124000Y15076431D01*
X4153820Y15226348D01*
X4153821Y15226351D01*
X4212317Y15367574D01*
X4212319Y15367577D01*
X4297239Y15494669D01*
X4405331Y15602761D01*
X4532423Y15687681D01*
X4532426Y15687683D01*
X4673649Y15746179D01*
X4673650Y15746179D01*
X4673652Y15746180D01*
X4823569Y15776000D01*
X4976431Y15776000D01*
X5126348Y15746180D01*
G37*
G36*
X32338410Y15944475D02*
G01*
X32423426Y15918686D01*
X32501775Y15876807D01*
X32570449Y15820449D01*
X32626807Y15751775D01*
X32668686Y15673426D01*
X32694475Y15588410D01*
X32703182Y15500000D01*
X32694475Y15411590D01*
X32668686Y15326574D01*
X32626807Y15248225D01*
X32570449Y15179551D01*
X32501775Y15123193D01*
X32423426Y15081314D01*
X32338410Y15055525D01*
X32272158Y15049000D01*
X31727842Y15049000D01*
X31661590Y15055525D01*
X31576574Y15081314D01*
X31498225Y15123193D01*
X31429551Y15179551D01*
X31373193Y15248225D01*
X31331314Y15326574D01*
X31305525Y15411590D01*
X31296818Y15500000D01*
X31305525Y15588410D01*
X31331314Y15673426D01*
X31373193Y15751775D01*
X31429551Y15820449D01*
X31498225Y15876807D01*
X31576574Y15918686D01*
X31661590Y15944475D01*
X31727842Y15951000D01*
X32272158Y15951000D01*
X32338410Y15944475D01*
G37*
G36*
X2613855Y16647860D02*
G01*
X2677618Y16641580D01*
X2768404Y16614040D01*
X2800336Y16604354D01*
X2913425Y16543906D01*
X3012554Y16462554D01*
X3093906Y16363425D01*
X3154354Y16250336D01*
X3154355Y16250332D01*
X3191580Y16127618D01*
X3204149Y16000000D01*
X3191580Y15872382D01*
X3175826Y15820449D01*
X3154354Y15749664D01*
X3093906Y15636575D01*
X3012554Y15537446D01*
X2913425Y15456094D01*
X2800336Y15395646D01*
X2768404Y15385960D01*
X2677618Y15358420D01*
X2613855Y15352140D01*
X2581974Y15349000D01*
X1818026Y15349000D01*
X1786145Y15352140D01*
X1722382Y15358420D01*
X1631596Y15385960D01*
X1599664Y15395646D01*
X1486575Y15456094D01*
X1387446Y15537446D01*
X1306094Y15636575D01*
X1245646Y15749664D01*
X1224174Y15820449D01*
X1208420Y15872382D01*
X1195851Y16000000D01*
X1208420Y16127618D01*
X1245645Y16250332D01*
X1245646Y16250336D01*
X1306094Y16363425D01*
X1387446Y16462554D01*
X1486575Y16543906D01*
X1599664Y16604354D01*
X1631596Y16614040D01*
X1722382Y16641580D01*
X1786145Y16647860D01*
X1818026Y16651000D01*
X2581974Y16651000D01*
X2613855Y16647860D01*
G37*
G36*
X20176578Y26954803D02*
G01*
X20229350Y26944306D01*
X20328770Y26903125D01*
X20418246Y26843339D01*
X20494339Y26767246D01*
X20554125Y26677770D01*
X20595306Y26578350D01*
X20616300Y26472806D01*
X20616300Y26365194D01*
X20595306Y26259650D01*
X20554125Y26160230D01*
X20494339Y26070754D01*
X20418246Y25994661D01*
X20328770Y25934875D01*
X20229350Y25893694D01*
X20176578Y25883197D01*
X20123807Y25872700D01*
X20016193Y25872700D01*
X19963422Y25883197D01*
X19910650Y25893694D01*
X19811230Y25934875D01*
X19721754Y25994661D01*
X19645661Y26070754D01*
X19585875Y26160230D01*
X19544694Y26259650D01*
X19523700Y26365194D01*
X19523700Y26472806D01*
X19544694Y26578350D01*
X19585875Y26677770D01*
X19645661Y26767246D01*
X19721754Y26843339D01*
X19811230Y26903125D01*
X19910650Y26944306D01*
X19963422Y26954803D01*
X20016193Y26965300D01*
X20123807Y26965300D01*
X20176578Y26954803D01*
G37*
G36*
X15096578Y27970803D02*
G01*
X15149350Y27960306D01*
X15248770Y27919125D01*
X15338246Y27859339D01*
X15414339Y27783246D01*
X15474125Y27693770D01*
X15515306Y27594350D01*
X15536300Y27488806D01*
X15536300Y27381194D01*
X15515306Y27275650D01*
X15474125Y27176230D01*
X15414339Y27086754D01*
X15338246Y27010661D01*
X15248770Y26950875D01*
X15149350Y26909694D01*
X15116325Y26903125D01*
X15043807Y26888700D01*
X14936193Y26888700D01*
X14863675Y26903125D01*
X14830650Y26909694D01*
X14731230Y26950875D01*
X14641754Y27010661D01*
X14565661Y27086754D01*
X14505875Y27176230D01*
X14464694Y27275650D01*
X14443700Y27381194D01*
X14443700Y27488806D01*
X14464694Y27594350D01*
X14505875Y27693770D01*
X14565661Y27783246D01*
X14641754Y27859339D01*
X14731230Y27919125D01*
X14830650Y27960306D01*
X14883422Y27970803D01*
X14936193Y27981300D01*
X15043807Y27981300D01*
X15096578Y27970803D01*
G37*
G36*
X20176578Y28986803D02*
G01*
X20229350Y28976306D01*
X20328770Y28935125D01*
X20418246Y28875339D01*
X20494339Y28799246D01*
X20554125Y28709770D01*
X20595306Y28610350D01*
X20616300Y28504806D01*
X20616300Y28397194D01*
X20595306Y28291650D01*
X20554125Y28192230D01*
X20494339Y28102754D01*
X20418246Y28026661D01*
X20328770Y27966875D01*
X20229350Y27925694D01*
X20196325Y27919125D01*
X20123807Y27904700D01*
X20016193Y27904700D01*
X19943675Y27919125D01*
X19910650Y27925694D01*
X19811230Y27966875D01*
X19721754Y28026661D01*
X19645661Y28102754D01*
X19585875Y28192230D01*
X19544694Y28291650D01*
X19523700Y28397194D01*
X19523700Y28504806D01*
X19544694Y28610350D01*
X19585875Y28709770D01*
X19645661Y28799246D01*
X19721754Y28875339D01*
X19811230Y28935125D01*
X19910650Y28976306D01*
X19963422Y28986803D01*
X20016193Y28997300D01*
X20123807Y28997300D01*
X20176578Y28986803D01*
G37*
G36*
X978231Y30393295D02*
G01*
X1016967Y30385590D01*
X1047195Y30373069D01*
X1089944Y30355362D01*
X1155622Y30311477D01*
X1211477Y30255622D01*
X1255362Y30189944D01*
X1285590Y30116966D01*
X1301000Y30039496D01*
X1301000Y29960504D01*
X1285590Y29883034D01*
X1255362Y29810056D01*
X1211477Y29744378D01*
X1155622Y29688523D01*
X1089944Y29644638D01*
X1047195Y29626931D01*
X1016967Y29614410D01*
X978231Y29606705D01*
X939496Y29599000D01*
X860504Y29599000D01*
X821769Y29606705D01*
X783033Y29614410D01*
X752805Y29626931D01*
X710056Y29644638D01*
X644378Y29688523D01*
X588523Y29744378D01*
X544638Y29810056D01*
X514410Y29883034D01*
X499000Y29960504D01*
X499000Y30039496D01*
X514410Y30116966D01*
X544638Y30189944D01*
X588523Y30255622D01*
X644378Y30311477D01*
X710056Y30355362D01*
X752805Y30373069D01*
X783033Y30385590D01*
X821769Y30393295D01*
X860504Y30401000D01*
X939496Y30401000D01*
X978231Y30393295D01*
G37*
G36*
X2778231Y30393295D02*
G01*
X2816967Y30385590D01*
X2847195Y30373069D01*
X2889944Y30355362D01*
X2955622Y30311477D01*
X3011477Y30255622D01*
X3055362Y30189944D01*
X3085590Y30116966D01*
X3101000Y30039496D01*
X3101000Y29960504D01*
X3085590Y29883034D01*
X3055362Y29810056D01*
X3011477Y29744378D01*
X2955622Y29688523D01*
X2889944Y29644638D01*
X2847195Y29626931D01*
X2816967Y29614410D01*
X2778231Y29606705D01*
X2739496Y29599000D01*
X2660504Y29599000D01*
X2621769Y29606705D01*
X2583033Y29614410D01*
X2552805Y29626931D01*
X2510056Y29644638D01*
X2444378Y29688523D01*
X2388523Y29744378D01*
X2344638Y29810056D01*
X2314410Y29883034D01*
X2299000Y29960504D01*
X2299000Y30039496D01*
X2314410Y30116966D01*
X2344638Y30189944D01*
X2388523Y30255622D01*
X2444378Y30311477D01*
X2510056Y30355362D01*
X2552805Y30373069D01*
X2583033Y30385590D01*
X2621769Y30393295D01*
X2660504Y30401000D01*
X2739496Y30401000D01*
X2778231Y30393295D01*
G37*
G36*
X6237142Y52781758D02*
G01*
X6385101Y52720471D01*
X6518255Y52631501D01*
X6631501Y52518255D01*
X6720471Y52385101D01*
X6781758Y52237142D01*
X6813000Y52080075D01*
X6813000Y51919925D01*
X6781758Y51762858D01*
X6720471Y51614899D01*
X6631501Y51481745D01*
X6518255Y51368499D01*
X6385101Y51279529D01*
X6237142Y51218242D01*
X6080075Y51187000D01*
X5919925Y51187000D01*
X5762858Y51218242D01*
X5614899Y51279529D01*
X5481745Y51368499D01*
X5368499Y51481745D01*
X5279529Y51614899D01*
X5218242Y51762858D01*
X5187000Y51919925D01*
X5187000Y52080075D01*
X5218242Y52237142D01*
X5279529Y52385101D01*
X5368499Y52518255D01*
X5481745Y52631501D01*
X5614899Y52720471D01*
X5762858Y52781758D01*
X5919925Y52813000D01*
X6080075Y52813000D01*
X6237142Y52781758D01*
G37*
G36*
X8237142Y52781758D02*
G01*
X8385101Y52720471D01*
X8518255Y52631501D01*
X8631501Y52518255D01*
X8720471Y52385101D01*
X8781758Y52237142D01*
X8813000Y52080075D01*
X8813000Y51919925D01*
X8781758Y51762858D01*
X8720471Y51614899D01*
X8631501Y51481745D01*
X8518255Y51368499D01*
X8385101Y51279529D01*
X8237142Y51218242D01*
X8080075Y51187000D01*
X7919925Y51187000D01*
X7762858Y51218242D01*
X7614899Y51279529D01*
X7481745Y51368499D01*
X7368499Y51481745D01*
X7279529Y51614899D01*
X7218242Y51762858D01*
X7187000Y51919925D01*
X7187000Y52080075D01*
X7218242Y52237142D01*
X7279529Y52385101D01*
X7368499Y52518255D01*
X7481745Y52631501D01*
X7614899Y52720471D01*
X7762858Y52781758D01*
X7919925Y52813000D01*
X8080075Y52813000D01*
X8237142Y52781758D01*
G37*
G36*
X10237142Y52781758D02*
G01*
X10385101Y52720471D01*
X10518255Y52631501D01*
X10631501Y52518255D01*
X10720471Y52385101D01*
X10781758Y52237142D01*
X10813000Y52080075D01*
X10813000Y51919925D01*
X10781758Y51762858D01*
X10720471Y51614899D01*
X10631501Y51481745D01*
X10518255Y51368499D01*
X10385101Y51279529D01*
X10237142Y51218242D01*
X10080075Y51187000D01*
X9919925Y51187000D01*
X9762858Y51218242D01*
X9614899Y51279529D01*
X9481745Y51368499D01*
X9368499Y51481745D01*
X9279529Y51614899D01*
X9218242Y51762858D01*
X9187000Y51919925D01*
X9187000Y52080075D01*
X9218242Y52237142D01*
X9279529Y52385101D01*
X9368499Y52518255D01*
X9481745Y52631501D01*
X9614899Y52720471D01*
X9762858Y52781758D01*
X9919925Y52813000D01*
X10080075Y52813000D01*
X10237142Y52781758D01*
G37*
G36*
X12237142Y52781758D02*
G01*
X12385101Y52720471D01*
X12518255Y52631501D01*
X12631501Y52518255D01*
X12720471Y52385101D01*
X12781758Y52237142D01*
X12813000Y52080075D01*
X12813000Y51919925D01*
X12781758Y51762858D01*
X12720471Y51614899D01*
X12631501Y51481745D01*
X12518255Y51368499D01*
X12385101Y51279529D01*
X12237142Y51218242D01*
X12080075Y51187000D01*
X11919925Y51187000D01*
X11762858Y51218242D01*
X11614899Y51279529D01*
X11481745Y51368499D01*
X11368499Y51481745D01*
X11279529Y51614899D01*
X11218242Y51762858D01*
X11187000Y51919925D01*
X11187000Y52080075D01*
X11218242Y52237142D01*
X11279529Y52385101D01*
X11368499Y52518255D01*
X11481745Y52631501D01*
X11614899Y52720471D01*
X11762858Y52781758D01*
X11919925Y52813000D01*
X12080075Y52813000D01*
X12237142Y52781758D01*
G37*
G36*
X28359999Y54700263D02*
G01*
X28369608Y54697348D01*
X28378472Y54692610D01*
X28386237Y54686237D01*
X28396448Y54673794D01*
X28403378Y54663425D01*
X28420705Y54646098D01*
X28441080Y54632485D01*
X28463720Y54623109D01*
X28487753Y54618329D01*
X28512257Y54618330D01*
X28536290Y54623112D01*
X28558929Y54632490D01*
X28579302Y54646105D01*
X28596629Y54663432D01*
X28603558Y54673802D01*
X28613763Y54686237D01*
X28621528Y54692610D01*
X28630392Y54697348D01*
X28640001Y54700263D01*
X28656140Y54701852D01*
X29143861Y54701852D01*
X29162199Y54700046D01*
X29174450Y54699444D01*
X29192869Y54699444D01*
X29215149Y54697250D01*
X29299233Y54680524D01*
X29320660Y54674024D01*
X29399858Y54641220D01*
X29405303Y54638309D01*
X29405309Y54638307D01*
X29414169Y54633571D01*
X29414173Y54633568D01*
X29419614Y54630660D01*
X29490899Y54583029D01*
X29508204Y54568828D01*
X29568828Y54508204D01*
X29583029Y54490899D01*
X29630660Y54419614D01*
X29633568Y54414173D01*
X29633571Y54414169D01*
X29638307Y54405309D01*
X29638309Y54405303D01*
X29641220Y54399858D01*
X29674024Y54320660D01*
X29680524Y54299233D01*
X29697250Y54215149D01*
X29699444Y54192869D01*
X29699444Y54174450D01*
X29700046Y54162199D01*
X29701852Y54143862D01*
X29701852Y53656139D01*
X29700046Y53637801D01*
X29699444Y53625550D01*
X29699444Y53607131D01*
X29697250Y53584851D01*
X29680524Y53500767D01*
X29674024Y53479340D01*
X29641220Y53400142D01*
X29638309Y53394697D01*
X29638307Y53394691D01*
X29633571Y53385831D01*
X29633568Y53385827D01*
X29630660Y53380386D01*
X29583029Y53309101D01*
X29568828Y53291796D01*
X29508204Y53231172D01*
X29490899Y53216971D01*
X29419614Y53169340D01*
X29414173Y53166432D01*
X29414169Y53166429D01*
X29405309Y53161693D01*
X29405303Y53161691D01*
X29399858Y53158780D01*
X29320660Y53125976D01*
X29299233Y53119476D01*
X29215149Y53102750D01*
X29192869Y53100556D01*
X29174450Y53100556D01*
X29162199Y53099954D01*
X29143862Y53098148D01*
X28656140Y53098148D01*
X28640001Y53099737D01*
X28630392Y53102652D01*
X28621528Y53107390D01*
X28613763Y53113763D01*
X28603552Y53126206D01*
X28596622Y53136575D01*
X28579295Y53153902D01*
X28558920Y53167515D01*
X28536280Y53176891D01*
X28512247Y53181671D01*
X28487743Y53181670D01*
X28463710Y53176888D01*
X28441071Y53167510D01*
X28420698Y53153895D01*
X28403371Y53136568D01*
X28396442Y53126198D01*
X28386237Y53113763D01*
X28378472Y53107390D01*
X28369608Y53102652D01*
X28359999Y53099737D01*
X28343860Y53098148D01*
X27856138Y53098148D01*
X27837801Y53099954D01*
X27825550Y53100556D01*
X27807131Y53100556D01*
X27784851Y53102750D01*
X27700767Y53119476D01*
X27679340Y53125976D01*
X27600142Y53158780D01*
X27594697Y53161691D01*
X27594691Y53161693D01*
X27585831Y53166429D01*
X27585827Y53166432D01*
X27580386Y53169340D01*
X27509101Y53216971D01*
X27491796Y53231172D01*
X27431172Y53291796D01*
X27416971Y53309101D01*
X27369340Y53380386D01*
X27366432Y53385827D01*
X27366429Y53385831D01*
X27361693Y53394691D01*
X27361691Y53394697D01*
X27358780Y53400142D01*
X27325976Y53479340D01*
X27319476Y53500767D01*
X27302750Y53584851D01*
X27300556Y53607131D01*
X27300556Y53625550D01*
X27299954Y53637801D01*
X27298148Y53656139D01*
X27298148Y54143862D01*
X27299954Y54162199D01*
X27300556Y54174450D01*
X27300556Y54192869D01*
X27302750Y54215149D01*
X27319476Y54299233D01*
X27325976Y54320660D01*
X27358780Y54399858D01*
X27361691Y54405303D01*
X27361693Y54405309D01*
X27366429Y54414169D01*
X27366432Y54414173D01*
X27369340Y54419614D01*
X27416971Y54490899D01*
X27431172Y54508204D01*
X27491796Y54568828D01*
X27509101Y54583029D01*
X27580386Y54630660D01*
X27585827Y54633568D01*
X27585831Y54633571D01*
X27594691Y54638307D01*
X27594697Y54638309D01*
X27600142Y54641220D01*
X27679340Y54674024D01*
X27700767Y54680524D01*
X27784851Y54697250D01*
X27807131Y54699444D01*
X27825550Y54699444D01*
X27837801Y54700046D01*
X27856139Y54701852D01*
X28343860Y54701852D01*
X28359999Y54700263D01*
G37*
G36*
X19331606Y58741438D02*
G01*
X19850455Y58526524D01*
X20224524Y58276579D01*
X20317406Y58214517D01*
X20714517Y57817406D01*
X20728615Y57796307D01*
X21026524Y57350455D01*
X21241438Y56831606D01*
X21351000Y56280799D01*
X21351000Y55719201D01*
X21241438Y55168394D01*
X21026524Y54649545D01*
X20776579Y54275476D01*
X20721383Y54192869D01*
X20714516Y54182593D01*
X20317407Y53785484D01*
X19850455Y53473476D01*
X19331606Y53258562D01*
X19142190Y53220885D01*
X18780800Y53149000D01*
X18219200Y53149000D01*
X17857810Y53220885D01*
X17668394Y53258562D01*
X17149545Y53473476D01*
X16682593Y53785484D01*
X16285484Y54182593D01*
X16278618Y54192869D01*
X16223421Y54275476D01*
X15973476Y54649545D01*
X15758562Y55168394D01*
X15649000Y55719201D01*
X15649000Y56280799D01*
X15758562Y56831606D01*
X15973476Y57350455D01*
X16271385Y57796307D01*
X16285483Y57817406D01*
X16682594Y58214517D01*
X16775476Y58276579D01*
X17149545Y58526524D01*
X17668394Y58741438D01*
X18219200Y58851000D01*
X18780800Y58851000D01*
X19331606Y58741438D01*
G37*
G36*
X10779591Y57796915D02*
G01*
X10813569Y57786607D01*
X10844890Y57769866D01*
X10872339Y57747339D01*
X10894866Y57719890D01*
X10911607Y57688569D01*
X10921915Y57654591D01*
X10926000Y57613110D01*
X10926000Y57011890D01*
X10921915Y56970409D01*
X10911607Y56936431D01*
X10894866Y56905110D01*
X10872339Y56877661D01*
X10844890Y56855134D01*
X10813569Y56838393D01*
X10779591Y56828085D01*
X10738110Y56824000D01*
X10061890Y56824000D01*
X10020409Y56828085D01*
X9986431Y56838393D01*
X9955110Y56855134D01*
X9927661Y56877661D01*
X9905134Y56905110D01*
X9888393Y56936431D01*
X9878085Y56970409D01*
X9874000Y57011890D01*
X9874000Y57613110D01*
X9878085Y57654591D01*
X9888393Y57688569D01*
X9905134Y57719890D01*
X9927661Y57747339D01*
X9955110Y57769866D01*
X9986431Y57786607D01*
X10020409Y57796915D01*
X10061890Y57801000D01*
X10738110Y57801000D01*
X10779591Y57796915D01*
G37*
G36*
X12379591Y57796915D02*
G01*
X12413569Y57786607D01*
X12444890Y57769866D01*
X12472339Y57747339D01*
X12494866Y57719890D01*
X12511607Y57688569D01*
X12521915Y57654591D01*
X12526000Y57613110D01*
X12526000Y57011890D01*
X12521915Y56970409D01*
X12511607Y56936431D01*
X12494866Y56905110D01*
X12472339Y56877661D01*
X12444890Y56855134D01*
X12413569Y56838393D01*
X12379591Y56828085D01*
X12338110Y56824000D01*
X11661890Y56824000D01*
X11620409Y56828085D01*
X11586431Y56838393D01*
X11555110Y56855134D01*
X11527661Y56877661D01*
X11505134Y56905110D01*
X11488393Y56936431D01*
X11478085Y56970409D01*
X11474000Y57011890D01*
X11474000Y57613110D01*
X11478085Y57654591D01*
X11488393Y57688569D01*
X11505134Y57719890D01*
X11527661Y57747339D01*
X11555110Y57769866D01*
X11586431Y57786607D01*
X11620409Y57796915D01*
X11661890Y57801000D01*
X12338110Y57801000D01*
X12379591Y57796915D01*
G37*
G36*
X12379591Y59371915D02*
G01*
X12413569Y59361607D01*
X12444890Y59344866D01*
X12472339Y59322339D01*
X12494866Y59294890D01*
X12511607Y59263569D01*
X12521915Y59229591D01*
X12526000Y59188110D01*
X12526000Y58586890D01*
X12521915Y58545409D01*
X12511607Y58511431D01*
X12494866Y58480110D01*
X12472339Y58452661D01*
X12444890Y58430134D01*
X12413569Y58413393D01*
X12379591Y58403085D01*
X12338110Y58399000D01*
X11661890Y58399000D01*
X11620409Y58403085D01*
X11586431Y58413393D01*
X11555110Y58430134D01*
X11527661Y58452661D01*
X11505134Y58480110D01*
X11488393Y58511431D01*
X11478085Y58545409D01*
X11474000Y58586890D01*
X11474000Y59188110D01*
X11478085Y59229591D01*
X11488393Y59263569D01*
X11505134Y59294890D01*
X11527661Y59322339D01*
X11555110Y59344866D01*
X11586431Y59361607D01*
X11620409Y59371915D01*
X11661890Y59376000D01*
X12338110Y59376000D01*
X12379591Y59371915D01*
G37*
G36*
X10779591Y59371915D02*
G01*
X10813569Y59361607D01*
X10844890Y59344866D01*
X10872339Y59322339D01*
X10894866Y59294890D01*
X10911607Y59263569D01*
X10921915Y59229591D01*
X10926000Y59188110D01*
X10926000Y58586890D01*
X10921915Y58545409D01*
X10911607Y58511431D01*
X10894866Y58480110D01*
X10872339Y58452661D01*
X10844890Y58430134D01*
X10813569Y58413393D01*
X10779591Y58403085D01*
X10738110Y58399000D01*
X10061890Y58399000D01*
X10020409Y58403085D01*
X9986431Y58413393D01*
X9955110Y58430134D01*
X9927661Y58452661D01*
X9905134Y58480110D01*
X9888393Y58511431D01*
X9878085Y58545409D01*
X9874000Y58586890D01*
X9874000Y59188110D01*
X9878085Y59229591D01*
X9888393Y59263569D01*
X9905134Y59294890D01*
X9927661Y59322339D01*
X9955110Y59344866D01*
X9986431Y59361607D01*
X10020409Y59371915D01*
X10061890Y59376000D01*
X10738110Y59376000D01*
X10779591Y59371915D01*
G37*
M02*
