%
M48
METRIC,000.000
T01C0.50
%
T01
X013397Y192249
X012397Y192249
X011397Y192249
X010397Y192249
X009397Y192249
X008397Y192249
X007397Y192249
X006397Y192249
X005397Y192249
X004397Y192249
X003704Y197750
X004704Y197750
X005704Y197750
X006704Y197750
X007704Y197750
X008704Y197750
X009704Y197750
X010704Y197750
X011704Y197750
X012704Y197750
X013704Y197750
X032397Y192249
X031397Y192249
X030397Y192249
X029397Y192249
X028397Y192249
X027397Y192249
X026397Y192249
X025397Y192249
X024397Y192249
X023397Y192249
X022704Y197750
X023704Y197750
X024704Y197750
X025704Y197750
X026704Y197750
X027704Y197750
X028704Y197750
X029704Y197750
X030704Y197750
X031704Y197750
X032704Y197750
X013397Y126249
X012397Y126249
X011397Y126249
X010397Y126249
X009397Y126249
X008397Y126249
X007397Y126249
X006397Y126249
X005397Y126249
X004397Y126249
X003704Y131750
X004704Y131750
X005704Y131750
X006704Y131750
X007704Y131750
X008704Y131750
X009704Y131750
X010704Y131750
X011704Y131750
X012704Y131750
X013704Y131750
X032397Y126249
X031397Y126249
X030397Y126249
X029397Y126249
X028397Y126249
X027397Y126249
X026397Y126249
X025397Y126249
X024397Y126249
X023397Y126249
X022704Y131750
X023704Y131750
X024704Y131750
X025704Y131750
X026704Y131750
X027704Y131750
X028704Y131750
X029704Y131750
X030704Y131750
X031704Y131750
X032704Y131750
X032397Y060249
X031397Y060249
X030397Y060249
X029397Y060249
X028397Y060249
X027397Y060249
X026397Y060249
X025397Y060249
X024397Y060249
X023397Y060249
X022704Y065750
X023704Y065750
X024704Y065750
X025704Y065750
X026704Y065750
X027704Y065750
X028704Y065750
X029704Y065750
X030704Y065750
X031704Y065750
X032704Y065750
X013397Y060249
X012397Y060249
X011397Y060249
X010397Y060249
X009397Y060249
X008397Y060249
X007397Y060249
X006397Y060249
X005397Y060249
X004397Y060249
X003704Y065750
X004704Y065750
X005704Y065750
X006704Y065750
X007704Y065750
X008704Y065750
X009704Y065750
X010704Y065750
X011704Y065750
X012704Y065750
X013704Y065750
M30