%MOIN*%
%OFA0B0*%
%FSLAX44Y44*%
%IPPOS*%
%LPD*%
%ADD10C,0*%
D10*
X00000905Y00085042D02*
X00000905Y00085042D01*
X00000870Y00085046D01*
X00000837Y00085058D01*
X00000807Y00085076D01*
X00000782Y00085101D01*
X00000763Y00085131D01*
X00000751Y00085164D01*
X00000748Y00085199D01*
X00000751Y00085235D01*
X00000763Y00085268D01*
X00000782Y00085298D01*
X00000807Y00085323D01*
X00000837Y00085341D01*
X00000870Y00085353D01*
X00000905Y00085357D01*
X00000905Y00085357D01*
X00001653Y00085357D01*
X00001828Y00085377D01*
X00001995Y00085435D01*
X00002144Y00085529D01*
X00002269Y00085653D01*
X00002362Y00085803D01*
X00002421Y00085969D01*
X00002440Y00086144D01*
X00002421Y00086320D01*
X00002362Y00086486D01*
X00002269Y00086635D01*
X00002144Y00086760D01*
X00001995Y00086854D01*
X00001828Y00086912D01*
X00001653Y00086932D01*
X00001220Y00086932D01*
X00001185Y00086936D01*
X00001152Y00086947D01*
X00001122Y00086966D01*
X00001097Y00086991D01*
X00001078Y00087021D01*
X00001066Y00087054D01*
X00001062Y00087089D01*
X00001066Y00087124D01*
X00001078Y00087158D01*
X00001097Y00087187D01*
X00001122Y00087212D01*
X00001152Y00087231D01*
X00001185Y00087243D01*
X00001220Y00087247D01*
X00001653Y00087247D01*
X00001817Y00087234D01*
X00001978Y00087198D01*
X00002131Y00087138D01*
X00002274Y00087055D01*
X00002403Y00086952D01*
X00002515Y00086832D01*
X00002608Y00086696D01*
X00002679Y00086547D01*
X00002728Y00086390D01*
X00002752Y00086227D01*
X00002752Y00086062D01*
X00002728Y00085899D01*
X00002679Y00085742D01*
X00002608Y00085593D01*
X00002515Y00085457D01*
X00002403Y00085336D01*
X00002274Y00085234D01*
X00002131Y00085151D01*
X00001978Y00085091D01*
X00001817Y00085054D01*
X00001653Y00085042D01*
X00000905Y00085042D01*
X00000905Y00059058D02*
X00000905Y00059058D01*
X00000870Y00059062D01*
X00000837Y00059073D01*
X00000807Y00059092D01*
X00000782Y00059117D01*
X00000763Y00059147D01*
X00000751Y00059180D01*
X00000748Y00059215D01*
X00000751Y00059250D01*
X00000763Y00059284D01*
X00000782Y00059313D01*
X00000807Y00059338D01*
X00000837Y00059357D01*
X00000870Y00059369D01*
X00000905Y00059373D01*
X00000905Y00059373D01*
X00001653Y00059373D01*
X00001828Y00059392D01*
X00001995Y00059451D01*
X00002144Y00059545D01*
X00002269Y00059669D01*
X00002362Y00059818D01*
X00002421Y00059985D01*
X00002440Y00060160D01*
X00002421Y00060335D01*
X00002362Y00060502D01*
X00002269Y00060651D01*
X00002144Y00060776D01*
X00001995Y00060870D01*
X00001828Y00060928D01*
X00001653Y00060948D01*
X00001220Y00060948D01*
X00001185Y00060951D01*
X00001152Y00060963D01*
X00001122Y00060982D01*
X00001097Y00061007D01*
X00001078Y00061037D01*
X00001066Y00061070D01*
X00001062Y00061105D01*
X00001066Y00061140D01*
X00001078Y00061173D01*
X00001097Y00061203D01*
X00001122Y00061228D01*
X00001152Y00061247D01*
X00001185Y00061259D01*
X00001220Y00061262D01*
X00001653Y00061262D01*
X00001817Y00061250D01*
X00001978Y00061214D01*
X00002131Y00061153D01*
X00002274Y00061071D01*
X00002403Y00060968D01*
X00002515Y00060847D01*
X00002608Y00060711D01*
X00002679Y00060563D01*
X00002728Y00060405D01*
X00002752Y00060242D01*
X00002752Y00060078D01*
X00002728Y00059915D01*
X00002679Y00059757D01*
X00002608Y00059609D01*
X00002515Y00059473D01*
X00002403Y00059352D01*
X00002274Y00059249D01*
X00002131Y00059167D01*
X00001978Y00059107D01*
X00001817Y00059070D01*
X00001653Y00059058D01*
X00000905Y00059058D01*
X00000905Y00033074D02*
X00000905Y00033074D01*
X00000870Y00033077D01*
X00000837Y00033089D01*
X00000807Y00033108D01*
X00000782Y00033133D01*
X00000763Y00033163D01*
X00000751Y00033196D01*
X00000748Y00033231D01*
X00000751Y00033266D01*
X00000763Y00033299D01*
X00000782Y00033329D01*
X00000807Y00033354D01*
X00000837Y00033373D01*
X00000870Y00033385D01*
X00000905Y00033388D01*
X00000905Y00033388D01*
X00001653Y00033388D01*
X00001828Y00033408D01*
X00001995Y00033466D01*
X00002144Y00033560D01*
X00002269Y00033685D01*
X00002362Y00033834D01*
X00002421Y00034001D01*
X00002440Y00034176D01*
X00002421Y00034351D01*
X00002362Y00034518D01*
X00002269Y00034667D01*
X00002144Y00034791D01*
X00001995Y00034885D01*
X00001828Y00034944D01*
X00001653Y00034963D01*
X00001220Y00034963D01*
X00001185Y00034967D01*
X00001152Y00034979D01*
X00001122Y00034998D01*
X00001097Y00035023D01*
X00001078Y00035052D01*
X00001066Y00035086D01*
X00001062Y00035121D01*
X00001066Y00035156D01*
X00001078Y00035189D01*
X00001097Y00035219D01*
X00001122Y00035244D01*
X00001152Y00035263D01*
X00001185Y00035274D01*
X00001220Y00035278D01*
X00001653Y00035278D01*
X00001817Y00035266D01*
X00001978Y00035229D01*
X00002131Y00035169D01*
X00002274Y00035087D01*
X00002403Y00034984D01*
X00002515Y00034863D01*
X00002608Y00034727D01*
X00002679Y00034579D01*
X00002728Y00034421D01*
X00002752Y00034258D01*
X00002752Y00034093D01*
X00002728Y00033931D01*
X00002679Y00033773D01*
X00002608Y00033625D01*
X00002515Y00033489D01*
X00002403Y00033368D01*
X00002274Y00033265D01*
X00002131Y00033183D01*
X00001978Y00033122D01*
X00001817Y00033086D01*
X00001653Y00033074D01*
X00000905Y00033074D01*
X00000905Y00007089D02*
X00000905Y00007089D01*
X00000870Y00007093D01*
X00000837Y00007105D01*
X00000807Y00007124D01*
X00000782Y00007149D01*
X00000763Y00007178D01*
X00000751Y00007212D01*
X00000748Y00007247D01*
X00000751Y00007282D01*
X00000763Y00007315D01*
X00000782Y00007345D01*
X00000807Y00007370D01*
X00000837Y00007389D01*
X00000870Y00007400D01*
X00000905Y00007404D01*
X00000905Y00007404D01*
X00001653Y00007404D01*
X00001828Y00007424D01*
X00001995Y00007482D01*
X00002144Y00007576D01*
X00002269Y00007701D01*
X00002362Y00007850D01*
X00002421Y00008016D01*
X00002440Y00008192D01*
X00002421Y00008367D01*
X00002362Y00008533D01*
X00002269Y00008683D01*
X00002144Y00008807D01*
X00001995Y00008901D01*
X00001828Y00008959D01*
X00001653Y00008979D01*
X00001220Y00008979D01*
X00001185Y00008983D01*
X00001152Y00008995D01*
X00001122Y00009013D01*
X00001097Y00009038D01*
X00001078Y00009068D01*
X00001066Y00009101D01*
X00001062Y00009137D01*
X00001066Y00009172D01*
X00001078Y00009205D01*
X00001097Y00009235D01*
X00001122Y00009260D01*
X00001152Y00009278D01*
X00001185Y00009290D01*
X00001220Y00009294D01*
X00001653Y00009294D01*
X00001817Y00009282D01*
X00001978Y00009245D01*
X00002131Y00009185D01*
X00002274Y00009102D01*
X00002403Y00009000D01*
X00002515Y00008879D01*
X00002608Y00008743D01*
X00002679Y00008594D01*
X00002728Y00008437D01*
X00002752Y00008274D01*
X00002752Y00008109D01*
X00002728Y00007946D01*
X00002679Y00007789D01*
X00002608Y00007640D01*
X00002515Y00007504D01*
X00002403Y00007384D01*
X00002274Y00007281D01*
X00002131Y00007198D01*
X00001978Y00007138D01*
X00001817Y00007102D01*
X00001653Y00007089D01*
X00000905Y00007089D01*
X00001497Y00025984D02*
X00001497Y00025984D01*
X00001528Y00025983D01*
X00001559Y00025979D01*
X00001589Y00025973D01*
X00001619Y00025964D01*
X00001648Y00025954D01*
X00001676Y00025941D01*
X00001703Y00025926D01*
X00001728Y00025909D01*
X00001753Y00025889D01*
X00001775Y00025868D01*
X00001796Y00025846D01*
X00001816Y00025821D01*
X00001833Y00025796D01*
X00001848Y00025769D01*
X00001861Y00025741D01*
X00001872Y00025712D01*
X00001880Y00025682D01*
X00001886Y00025652D01*
X00001890Y00025621D01*
X00001891Y00025590D01*
X00001891Y00024015D01*
X00001890Y00023984D01*
X00001886Y00023954D01*
X00001880Y00023923D01*
X00001872Y00023894D01*
X00001861Y00023865D01*
X00001848Y00023837D01*
X00001833Y00023810D01*
X00001816Y00023784D01*
X00001796Y00023760D01*
X00001775Y00023737D01*
X00001753Y00023716D01*
X00001728Y00023697D01*
X00001703Y00023680D01*
X00001676Y00023664D01*
X00001648Y00023652D01*
X00001619Y00023641D01*
X00001589Y00023632D01*
X00001559Y00023626D01*
X00001528Y00023623D01*
X00001497Y00023622D01*
X00000590Y00023622D01*
X00000498Y00023614D01*
X00000408Y00023593D01*
X00000322Y00023557D01*
X00000243Y00023509D01*
X00000172Y00023449D01*
X00000112Y00023378D01*
X00000064Y00023299D01*
X00000028Y00023213D01*
X00000007Y00023123D01*
X00000000Y00023031D01*
X00000000Y00010829D01*
X00000002Y00010783D01*
X00000011Y00010736D01*
X00000024Y00010692D01*
X00000043Y00010649D01*
X00000067Y00010609D01*
X00000096Y00010571D01*
X00000129Y00010538D01*
X00000165Y00010508D01*
X00000205Y00010484D01*
X00000247Y00010464D01*
X00000375Y00010396D01*
X00000485Y00010302D01*
X00000573Y00010187D01*
X00000634Y00010056D01*
X00000665Y00009914D01*
X00000665Y00009770D01*
X00000634Y00009628D01*
X00000573Y00009497D01*
X00000485Y00009382D01*
X00000375Y00009288D01*
X00000247Y00009220D01*
X00000205Y00009200D01*
X00000165Y00009176D01*
X00000129Y00009146D01*
X00000096Y00009113D01*
X00000067Y00009076D01*
X00000043Y00009035D01*
X00000024Y00008992D01*
X00000011Y00008948D01*
X00000002Y00008901D01*
X00000000Y00008855D01*
X00000000Y00000590D01*
X00000007Y00000498D01*
X00000028Y00000408D01*
X00000064Y00000322D01*
X00000112Y00000243D01*
X00000172Y00000172D01*
X00000243Y00000112D01*
X00000322Y00000064D01*
X00000408Y00000028D01*
X00000498Y00000007D01*
X00000590Y00000000D01*
X00013976Y00000000D01*
X00014068Y00000007D01*
X00014158Y00000028D01*
X00014244Y00000064D01*
X00014323Y00000112D01*
X00014393Y00000172D01*
X00014454Y00000243D01*
X00014502Y00000322D01*
X00014538Y00000408D01*
X00014559Y00000498D01*
X00014566Y00000590D01*
X00014566Y00008861D01*
X00014564Y00008901D01*
X00014555Y00008948D01*
X00014542Y00008992D01*
X00014523Y00009035D01*
X00014499Y00009076D01*
X00014470Y00009113D01*
X00014437Y00009146D01*
X00014401Y00009176D01*
X00014361Y00009200D01*
X00014319Y00009220D01*
X00014191Y00009288D01*
X00014080Y00009382D01*
X00013993Y00009497D01*
X00013932Y00009628D01*
X00013901Y00009770D01*
X00013901Y00009914D01*
X00013932Y00010056D01*
X00013993Y00010187D01*
X00014080Y00010302D01*
X00014191Y00010396D01*
X00014319Y00010464D01*
X00014361Y00010484D01*
X00014401Y00010508D01*
X00014437Y00010538D01*
X00014470Y00010571D01*
X00014499Y00010609D01*
X00014523Y00010649D01*
X00014542Y00010692D01*
X00014555Y00010736D01*
X00014564Y00010783D01*
X00014566Y00010829D01*
X00014566Y00023031D01*
X00014559Y00023123D01*
X00014538Y00023213D01*
X00014502Y00023299D01*
X00014454Y00023378D01*
X00014393Y00023449D01*
X00014323Y00023509D01*
X00014244Y00023557D01*
X00014158Y00023593D01*
X00014068Y00023614D01*
X00013976Y00023622D01*
X00013069Y00023622D01*
X00013038Y00023623D01*
X00013007Y00023626D01*
X00012977Y00023632D01*
X00012947Y00023641D01*
X00012918Y00023652D01*
X00012890Y00023664D01*
X00012863Y00023680D01*
X00012837Y00023697D01*
X00012813Y00023716D01*
X00012790Y00023737D01*
X00012769Y00023760D01*
X00012750Y00023784D01*
X00012733Y00023810D01*
X00012718Y00023837D01*
X00012705Y00023865D01*
X00012694Y00023894D01*
X00012686Y00023923D01*
X00012680Y00023954D01*
X00012676Y00023984D01*
X00012675Y00024015D01*
X00012675Y00025590D01*
X00012676Y00025621D01*
X00012680Y00025652D01*
X00012686Y00025682D01*
X00012694Y00025712D01*
X00012705Y00025741D01*
X00012718Y00025769D01*
X00012733Y00025796D01*
X00012750Y00025821D01*
X00012769Y00025846D01*
X00012790Y00025868D01*
X00012813Y00025889D01*
X00012837Y00025909D01*
X00012863Y00025926D01*
X00012890Y00025941D01*
X00012918Y00025954D01*
X00012947Y00025964D01*
X00012977Y00025973D01*
X00013007Y00025979D01*
X00013038Y00025983D01*
X00013069Y00025984D01*
X00013976Y00025984D01*
X00014068Y00025991D01*
X00014158Y00026013D01*
X00014244Y00026048D01*
X00014323Y00026097D01*
X00014393Y00026157D01*
X00014454Y00026227D01*
X00014502Y00026306D01*
X00014538Y00026392D01*
X00014559Y00026482D01*
X00014566Y00026574D01*
X00014566Y00034845D01*
X00014564Y00034886D01*
X00014555Y00034932D01*
X00014542Y00034977D01*
X00014523Y00035019D01*
X00014499Y00035060D01*
X00014470Y00035097D01*
X00014437Y00035130D01*
X00014401Y00035160D01*
X00014361Y00035185D01*
X00014319Y00035205D01*
X00014191Y00035272D01*
X00014080Y00035366D01*
X00013993Y00035481D01*
X00013932Y00035613D01*
X00013901Y00035754D01*
X00013901Y00035899D01*
X00013932Y00036040D01*
X00013993Y00036171D01*
X00014080Y00036286D01*
X00014191Y00036380D01*
X00014319Y00036448D01*
X00014361Y00036468D01*
X00014401Y00036493D01*
X00014437Y00036522D01*
X00014470Y00036556D01*
X00014499Y00036593D01*
X00014523Y00036633D01*
X00014542Y00036676D01*
X00014555Y00036721D01*
X00014564Y00036767D01*
X00014566Y00036814D01*
X00014566Y00049015D01*
X00014559Y00049108D01*
X00014538Y00049198D01*
X00014502Y00049283D01*
X00014454Y00049362D01*
X00014393Y00049433D01*
X00014323Y00049493D01*
X00014244Y00049541D01*
X00014158Y00049577D01*
X00014068Y00049599D01*
X00013976Y00049606D01*
X00013069Y00049606D01*
X00013038Y00049607D01*
X00013007Y00049611D01*
X00012977Y00049617D01*
X00012947Y00049625D01*
X00012918Y00049636D01*
X00012890Y00049649D01*
X00012863Y00049664D01*
X00012837Y00049681D01*
X00012813Y00049700D01*
X00012790Y00049721D01*
X00012769Y00049744D01*
X00012750Y00049768D01*
X00012733Y00049794D01*
X00012718Y00049821D01*
X00012705Y00049849D01*
X00012694Y00049878D01*
X00012686Y00049908D01*
X00012680Y00049938D01*
X00012676Y00049969D01*
X00012675Y00049999D01*
X00012675Y00051574D01*
X00012676Y00051605D01*
X00012680Y00051636D01*
X00012686Y00051666D01*
X00012694Y00051696D01*
X00012705Y00051725D01*
X00012718Y00051753D01*
X00012733Y00051780D01*
X00012750Y00051806D01*
X00012769Y00051830D01*
X00012790Y00051853D01*
X00012813Y00051874D01*
X00012837Y00051893D01*
X00012863Y00051910D01*
X00012890Y00051925D01*
X00012918Y00051938D01*
X00012947Y00051949D01*
X00012977Y00051957D01*
X00013007Y00051963D01*
X00013038Y00051967D01*
X00013069Y00051968D01*
X00013976Y00051968D01*
X00014068Y00051975D01*
X00014158Y00051997D01*
X00014244Y00052032D01*
X00014323Y00052081D01*
X00014393Y00052141D01*
X00014454Y00052211D01*
X00014502Y00052290D01*
X00014538Y00052376D01*
X00014559Y00052466D01*
X00014566Y00052559D01*
X00014566Y00060829D01*
X00014564Y00060870D01*
X00014555Y00060916D01*
X00014542Y00060961D01*
X00014523Y00061004D01*
X00014499Y00061044D01*
X00014470Y00061081D01*
X00014437Y00061115D01*
X00014401Y00061144D01*
X00014361Y00061169D01*
X00014319Y00061189D01*
X00014191Y00061257D01*
X00014080Y00061350D01*
X00013993Y00061466D01*
X00013932Y00061597D01*
X00013901Y00061738D01*
X00013901Y00061883D01*
X00013932Y00062024D01*
X00013993Y00062156D01*
X00014080Y00062271D01*
X00014191Y00062364D01*
X00014319Y00062432D01*
X00014361Y00062452D01*
X00014401Y00062477D01*
X00014437Y00062506D01*
X00014470Y00062540D01*
X00014499Y00062577D01*
X00014523Y00062617D01*
X00014542Y00062660D01*
X00014555Y00062705D01*
X00014564Y00062751D01*
X00014566Y00062798D01*
X00014566Y00074999D01*
X00014559Y00075092D01*
X00014538Y00075182D01*
X00014502Y00075268D01*
X00014454Y00075347D01*
X00014393Y00075417D01*
X00014323Y00075477D01*
X00014244Y00075526D01*
X00014158Y00075561D01*
X00014068Y00075583D01*
X00013976Y00075590D01*
X00013069Y00075590D01*
X00013038Y00075591D01*
X00013007Y00075595D01*
X00012977Y00075601D01*
X00012947Y00075609D01*
X00012918Y00075620D01*
X00012890Y00075633D01*
X00012863Y00075648D01*
X00012837Y00075665D01*
X00012813Y00075684D01*
X00012790Y00075705D01*
X00012769Y00075728D01*
X00012750Y00075752D01*
X00012733Y00075778D01*
X00012718Y00075805D01*
X00012705Y00075833D01*
X00012694Y00075862D01*
X00012686Y00075892D01*
X00012680Y00075922D01*
X00012676Y00075953D01*
X00012675Y00075984D01*
X00012675Y00077559D01*
X00012676Y00077589D01*
X00012680Y00077620D01*
X00012686Y00077650D01*
X00012694Y00077680D01*
X00012705Y00077709D01*
X00012718Y00077737D01*
X00012733Y00077764D01*
X00012750Y00077790D01*
X00012769Y00077814D01*
X00012790Y00077837D01*
X00012813Y00077858D01*
X00012837Y00077877D01*
X00012863Y00077894D01*
X00012890Y00077909D01*
X00012918Y00077922D01*
X00012947Y00077933D01*
X00012977Y00077941D01*
X00013007Y00077947D01*
X00013038Y00077951D01*
X00013069Y00077952D01*
X00013976Y00077952D01*
X00014068Y00077960D01*
X00014158Y00077981D01*
X00014244Y00078017D01*
X00014323Y00078065D01*
X00014393Y00078125D01*
X00014454Y00078196D01*
X00014502Y00078275D01*
X00014538Y00078360D01*
X00014559Y00078450D01*
X00014566Y00078543D01*
X00014566Y00086814D01*
X00014564Y00086854D01*
X00014555Y00086900D01*
X00014542Y00086945D01*
X00014523Y00086988D01*
X00014499Y00087028D01*
X00014470Y00087065D01*
X00014437Y00087099D01*
X00014401Y00087128D01*
X00014361Y00087153D01*
X00014319Y00087173D01*
X00014191Y00087241D01*
X00014080Y00087335D01*
X00013993Y00087450D01*
X00013932Y00087581D01*
X00013901Y00087722D01*
X00013901Y00087867D01*
X00013932Y00088008D01*
X00013993Y00088140D01*
X00014080Y00088255D01*
X00014191Y00088349D01*
X00014319Y00088416D01*
X00014361Y00088436D01*
X00014401Y00088461D01*
X00014437Y00088491D01*
X00014470Y00088524D01*
X00014499Y00088561D01*
X00014523Y00088602D01*
X00014542Y00088644D01*
X00014555Y00088689D01*
X00014564Y00088735D01*
X00014566Y00088782D01*
X00014566Y00100984D01*
X00014559Y00101076D01*
X00014538Y00101166D01*
X00014502Y00101252D01*
X00014454Y00101331D01*
X00014393Y00101401D01*
X00014323Y00101462D01*
X00014244Y00101510D01*
X00014158Y00101545D01*
X00014068Y00101567D01*
X00013976Y00101574D01*
X00000590Y00101574D01*
X00000498Y00101567D01*
X00000408Y00101545D01*
X00000322Y00101510D01*
X00000243Y00101462D01*
X00000172Y00101401D01*
X00000112Y00101331D01*
X00000064Y00101252D01*
X00000028Y00101166D01*
X00000007Y00101076D01*
X00000000Y00100984D01*
X00000000Y00088782D01*
X00000002Y00088735D01*
X00000011Y00088689D01*
X00000024Y00088644D01*
X00000043Y00088602D01*
X00000067Y00088561D01*
X00000096Y00088524D01*
X00000129Y00088491D01*
X00000165Y00088461D01*
X00000205Y00088436D01*
X00000247Y00088416D01*
X00000375Y00088349D01*
X00000485Y00088255D01*
X00000573Y00088140D01*
X00000634Y00088008D01*
X00000665Y00087867D01*
X00000665Y00087722D01*
X00000634Y00087581D01*
X00000573Y00087450D01*
X00000485Y00087335D01*
X00000375Y00087241D01*
X00000247Y00087173D01*
X00000205Y00087153D01*
X00000165Y00087128D01*
X00000129Y00087099D01*
X00000096Y00087065D01*
X00000067Y00087028D01*
X00000043Y00086988D01*
X00000024Y00086945D01*
X00000011Y00086900D01*
X00000002Y00086854D01*
X00000000Y00086807D01*
X00000000Y00078543D01*
X00000007Y00078450D01*
X00000028Y00078360D01*
X00000064Y00078275D01*
X00000112Y00078196D01*
X00000172Y00078125D01*
X00000243Y00078065D01*
X00000322Y00078017D01*
X00000408Y00077981D01*
X00000498Y00077960D01*
X00000590Y00077952D01*
X00001497Y00077952D01*
X00001528Y00077951D01*
X00001559Y00077947D01*
X00001589Y00077941D01*
X00001619Y00077933D01*
X00001648Y00077922D01*
X00001676Y00077909D01*
X00001703Y00077894D01*
X00001728Y00077877D01*
X00001753Y00077858D01*
X00001775Y00077837D01*
X00001796Y00077814D01*
X00001816Y00077790D01*
X00001833Y00077764D01*
X00001848Y00077737D01*
X00001861Y00077709D01*
X00001872Y00077680D01*
X00001880Y00077650D01*
X00001886Y00077620D01*
X00001890Y00077589D01*
X00001891Y00077559D01*
X00001891Y00075984D01*
X00001890Y00075953D01*
X00001886Y00075922D01*
X00001880Y00075892D01*
X00001872Y00075862D01*
X00001861Y00075833D01*
X00001848Y00075805D01*
X00001833Y00075778D01*
X00001816Y00075752D01*
X00001796Y00075728D01*
X00001775Y00075705D01*
X00001753Y00075684D01*
X00001728Y00075665D01*
X00001703Y00075648D01*
X00001676Y00075633D01*
X00001648Y00075620D01*
X00001619Y00075609D01*
X00001589Y00075601D01*
X00001559Y00075595D01*
X00001528Y00075591D01*
X00001497Y00075590D01*
X00000590Y00075590D01*
X00000498Y00075583D01*
X00000408Y00075561D01*
X00000322Y00075526D01*
X00000243Y00075477D01*
X00000172Y00075417D01*
X00000112Y00075347D01*
X00000064Y00075268D01*
X00000028Y00075182D01*
X00000007Y00075092D01*
X00000000Y00074999D01*
X00000000Y00062798D01*
X00000002Y00062751D01*
X00000011Y00062705D01*
X00000024Y00062660D01*
X00000043Y00062617D01*
X00000067Y00062577D01*
X00000096Y00062540D01*
X00000129Y00062506D01*
X00000165Y00062477D01*
X00000205Y00062452D01*
X00000247Y00062432D01*
X00000375Y00062364D01*
X00000485Y00062271D01*
X00000573Y00062156D01*
X00000634Y00062024D01*
X00000665Y00061883D01*
X00000665Y00061738D01*
X00000634Y00061597D01*
X00000573Y00061466D01*
X00000485Y00061350D01*
X00000375Y00061257D01*
X00000247Y00061189D01*
X00000205Y00061169D01*
X00000165Y00061144D01*
X00000129Y00061115D01*
X00000096Y00061081D01*
X00000067Y00061044D01*
X00000043Y00061004D01*
X00000024Y00060961D01*
X00000011Y00060916D01*
X00000002Y00060870D01*
X00000000Y00060823D01*
X00000000Y00052559D01*
X00000007Y00052466D01*
X00000028Y00052376D01*
X00000064Y00052290D01*
X00000112Y00052211D01*
X00000172Y00052141D01*
X00000243Y00052081D01*
X00000322Y00052032D01*
X00000408Y00051997D01*
X00000498Y00051975D01*
X00000590Y00051968D01*
X00001497Y00051968D01*
X00001528Y00051967D01*
X00001559Y00051963D01*
X00001589Y00051957D01*
X00001619Y00051949D01*
X00001648Y00051938D01*
X00001676Y00051925D01*
X00001703Y00051910D01*
X00001728Y00051893D01*
X00001753Y00051874D01*
X00001775Y00051853D01*
X00001796Y00051830D01*
X00001816Y00051806D01*
X00001833Y00051780D01*
X00001848Y00051753D01*
X00001861Y00051725D01*
X00001872Y00051696D01*
X00001880Y00051666D01*
X00001886Y00051636D01*
X00001890Y00051605D01*
X00001891Y00051574D01*
X00001891Y00049999D01*
X00001890Y00049969D01*
X00001886Y00049938D01*
X00001880Y00049908D01*
X00001872Y00049878D01*
X00001861Y00049849D01*
X00001848Y00049821D01*
X00001833Y00049794D01*
X00001816Y00049768D01*
X00001796Y00049744D01*
X00001775Y00049721D01*
X00001753Y00049700D01*
X00001728Y00049681D01*
X00001703Y00049664D01*
X00001676Y00049649D01*
X00001648Y00049636D01*
X00001619Y00049625D01*
X00001589Y00049617D01*
X00001559Y00049611D01*
X00001528Y00049607D01*
X00001497Y00049606D01*
X00000590Y00049606D01*
X00000498Y00049599D01*
X00000408Y00049577D01*
X00000322Y00049541D01*
X00000243Y00049493D01*
X00000172Y00049433D01*
X00000112Y00049362D01*
X00000064Y00049283D01*
X00000028Y00049198D01*
X00000007Y00049108D01*
X00000000Y00049015D01*
X00000000Y00036814D01*
X00000002Y00036767D01*
X00000011Y00036721D01*
X00000024Y00036676D01*
X00000043Y00036633D01*
X00000067Y00036593D01*
X00000096Y00036556D01*
X00000129Y00036522D01*
X00000165Y00036493D01*
X00000205Y00036468D01*
X00000247Y00036448D01*
X00000375Y00036380D01*
X00000485Y00036286D01*
X00000573Y00036171D01*
X00000634Y00036040D01*
X00000665Y00035899D01*
X00000665Y00035754D01*
X00000634Y00035613D01*
X00000573Y00035481D01*
X00000485Y00035366D01*
X00000375Y00035272D01*
X00000247Y00035205D01*
X00000205Y00035185D01*
X00000165Y00035160D01*
X00000129Y00035130D01*
X00000096Y00035097D01*
X00000067Y00035060D01*
X00000043Y00035019D01*
X00000024Y00034977D01*
X00000011Y00034932D01*
X00000002Y00034886D01*
X00000000Y00034839D01*
X00000000Y00026574D01*
X00000007Y00026482D01*
X00000028Y00026392D01*
X00000064Y00026306D01*
X00000112Y00026227D01*
X00000172Y00026157D01*
X00000243Y00026097D01*
X00000322Y00026048D01*
X00000408Y00026013D01*
X00000498Y00025991D01*
X00000590Y00025984D01*
X00001497Y00025984D01*
X00008977Y00025984D02*
X00008977Y00025984D01*
X00009008Y00025983D01*
X00009039Y00025979D01*
X00009069Y00025973D01*
X00009099Y00025964D01*
X00009128Y00025954D01*
X00009156Y00025941D01*
X00009183Y00025926D01*
X00009209Y00025909D01*
X00009233Y00025889D01*
X00009256Y00025868D01*
X00009277Y00025846D01*
X00009296Y00025821D01*
X00009313Y00025796D01*
X00009328Y00025769D01*
X00009341Y00025741D01*
X00009352Y00025712D01*
X00009360Y00025682D01*
X00009366Y00025652D01*
X00009370Y00025621D01*
X00009371Y00025590D01*
X00009371Y00024015D01*
X00009370Y00023984D01*
X00009366Y00023954D01*
X00009360Y00023923D01*
X00009352Y00023894D01*
X00009341Y00023865D01*
X00009328Y00023837D01*
X00009313Y00023810D01*
X00009296Y00023784D01*
X00009277Y00023760D01*
X00009256Y00023737D01*
X00009233Y00023716D01*
X00009209Y00023697D01*
X00009183Y00023680D01*
X00009156Y00023664D01*
X00009128Y00023652D01*
X00009099Y00023641D01*
X00009069Y00023632D01*
X00009039Y00023626D01*
X00009008Y00023623D01*
X00008977Y00023622D01*
X00005589Y00023622D01*
X00005558Y00023623D01*
X00005527Y00023626D01*
X00005497Y00023632D01*
X00005467Y00023641D01*
X00005438Y00023652D01*
X00005410Y00023664D01*
X00005383Y00023680D01*
X00005357Y00023697D01*
X00005333Y00023716D01*
X00005310Y00023737D01*
X00005289Y00023760D01*
X00005270Y00023784D01*
X00005253Y00023810D01*
X00005238Y00023837D01*
X00005225Y00023865D01*
X00005214Y00023894D01*
X00005206Y00023923D01*
X00005200Y00023954D01*
X00005196Y00023984D01*
X00005195Y00024015D01*
X00005195Y00025590D01*
X00005196Y00025621D01*
X00005200Y00025652D01*
X00005206Y00025682D01*
X00005214Y00025712D01*
X00005225Y00025741D01*
X00005238Y00025769D01*
X00005253Y00025796D01*
X00005270Y00025821D01*
X00005289Y00025846D01*
X00005310Y00025868D01*
X00005333Y00025889D01*
X00005357Y00025909D01*
X00005383Y00025926D01*
X00005410Y00025941D01*
X00005438Y00025954D01*
X00005467Y00025964D01*
X00005497Y00025973D01*
X00005527Y00025979D01*
X00005558Y00025983D01*
X00005589Y00025984D01*
X00008977Y00025984D01*
X00005589Y00049606D02*
X00005589Y00049606D01*
X00005558Y00049607D01*
X00005527Y00049611D01*
X00005497Y00049617D01*
X00005467Y00049625D01*
X00005438Y00049636D01*
X00005410Y00049649D01*
X00005383Y00049664D01*
X00005357Y00049681D01*
X00005333Y00049700D01*
X00005310Y00049721D01*
X00005289Y00049744D01*
X00005270Y00049768D01*
X00005253Y00049794D01*
X00005238Y00049821D01*
X00005225Y00049849D01*
X00005214Y00049878D01*
X00005206Y00049908D01*
X00005200Y00049938D01*
X00005196Y00049969D01*
X00005195Y00049999D01*
X00005195Y00051574D01*
X00005196Y00051605D01*
X00005200Y00051636D01*
X00005206Y00051666D01*
X00005214Y00051696D01*
X00005225Y00051725D01*
X00005238Y00051753D01*
X00005253Y00051780D01*
X00005270Y00051806D01*
X00005289Y00051830D01*
X00005310Y00051853D01*
X00005333Y00051874D01*
X00005357Y00051893D01*
X00005383Y00051910D01*
X00005410Y00051925D01*
X00005438Y00051938D01*
X00005467Y00051949D01*
X00005497Y00051957D01*
X00005527Y00051963D01*
X00005558Y00051967D01*
X00005589Y00051968D01*
X00008977Y00051968D01*
X00009008Y00051967D01*
X00009039Y00051963D01*
X00009069Y00051957D01*
X00009099Y00051949D01*
X00009128Y00051938D01*
X00009156Y00051925D01*
X00009183Y00051910D01*
X00009209Y00051893D01*
X00009233Y00051874D01*
X00009256Y00051853D01*
X00009277Y00051830D01*
X00009296Y00051806D01*
X00009313Y00051780D01*
X00009328Y00051753D01*
X00009341Y00051725D01*
X00009352Y00051696D01*
X00009360Y00051666D01*
X00009366Y00051636D01*
X00009370Y00051605D01*
X00009371Y00051574D01*
X00009371Y00049999D01*
X00009370Y00049969D01*
X00009366Y00049938D01*
X00009360Y00049908D01*
X00009352Y00049878D01*
X00009341Y00049849D01*
X00009328Y00049821D01*
X00009313Y00049794D01*
X00009296Y00049768D01*
X00009277Y00049744D01*
X00009256Y00049721D01*
X00009233Y00049700D01*
X00009209Y00049681D01*
X00009183Y00049664D01*
X00009156Y00049649D01*
X00009128Y00049636D01*
X00009099Y00049625D01*
X00009069Y00049617D01*
X00009039Y00049611D01*
X00009008Y00049607D01*
X00008977Y00049606D01*
X00005589Y00049606D01*
X00005589Y00075590D02*
X00005589Y00075590D01*
X00005558Y00075591D01*
X00005527Y00075595D01*
X00005497Y00075601D01*
X00005467Y00075609D01*
X00005438Y00075620D01*
X00005410Y00075633D01*
X00005383Y00075648D01*
X00005357Y00075665D01*
X00005333Y00075684D01*
X00005310Y00075705D01*
X00005289Y00075728D01*
X00005270Y00075752D01*
X00005253Y00075778D01*
X00005238Y00075805D01*
X00005225Y00075833D01*
X00005214Y00075862D01*
X00005206Y00075892D01*
X00005200Y00075922D01*
X00005196Y00075953D01*
X00005195Y00075984D01*
X00005195Y00077559D01*
X00005196Y00077589D01*
X00005200Y00077620D01*
X00005206Y00077650D01*
X00005214Y00077680D01*
X00005225Y00077709D01*
X00005238Y00077737D01*
X00005253Y00077764D01*
X00005270Y00077790D01*
X00005289Y00077814D01*
X00005310Y00077837D01*
X00005333Y00077858D01*
X00005357Y00077877D01*
X00005383Y00077894D01*
X00005410Y00077909D01*
X00005438Y00077922D01*
X00005467Y00077933D01*
X00005497Y00077941D01*
X00005527Y00077947D01*
X00005558Y00077951D01*
X00005589Y00077952D01*
X00008977Y00077952D01*
X00009008Y00077951D01*
X00009039Y00077947D01*
X00009069Y00077941D01*
X00009099Y00077933D01*
X00009128Y00077922D01*
X00009156Y00077909D01*
X00009183Y00077894D01*
X00009209Y00077877D01*
X00009233Y00077858D01*
X00009256Y00077837D01*
X00009277Y00077814D01*
X00009296Y00077790D01*
X00009313Y00077764D01*
X00009328Y00077737D01*
X00009341Y00077709D01*
X00009352Y00077680D01*
X00009360Y00077650D01*
X00009366Y00077620D01*
X00009370Y00077589D01*
X00009371Y00077559D01*
X00009371Y00075984D01*
X00009370Y00075953D01*
X00009366Y00075922D01*
X00009360Y00075892D01*
X00009352Y00075862D01*
X00009341Y00075833D01*
X00009328Y00075805D01*
X00009313Y00075778D01*
X00009296Y00075752D01*
X00009277Y00075728D01*
X00009256Y00075705D01*
X00009233Y00075684D01*
X00009209Y00075665D01*
X00009183Y00075648D01*
X00009156Y00075633D01*
X00009128Y00075620D01*
X00009099Y00075609D01*
X00009069Y00075601D01*
X00009039Y00075595D01*
X00009008Y00075591D01*
X00008977Y00075590D01*
X00005589Y00075590D01*
M02*